<?xml version="1.0" standalone="no"?>
<!DOCTYPE svg PUBLIC "-//W3C//DTD SVG 1.1//EN" "http://www.w3.org/Graphics/SVG/1.1/DTD/svg11.dtd" >
<svg xmlns="http://www.w3.org/2000/svg" xmlns:xlink="http://www.w3.org/1999/xlink" version="1.1">
<metadata>
Created by FontForge 20170731 at Sun May  7 16:21:55 2023
 By Aleksey,,,
Copyright (c) 2023 by Designova. All rights reserved.
</metadata>
<defs>
<font id="Optika-SemiBoldItalic" horiz-adv-x="1469" >
  <font-face 
    font-family="Optika SemiBold Italic"
    font-weight="600"
    font-style="italic"
    font-stretch="normal"
    units-per-em="2048"
    panose-1="0 0 7 0 0 0 0 0 0 0"
    ascent="1638"
    descent="-410"
    x-height="1128"
    cap-height="1470"
    bbox="-737 -506 3514 2193"
    underline-thickness="50"
    underline-position="-150"
    unicode-range="U+000D-F8FF"
  />
<missing-glyph horiz-adv-x="1479" 
d="M1512 1470l-233 -1469h-1079l233 1469h1079zM1261 1272h-641l-169 -1071h641z" />
    <glyph glyph-name=".notdef" horiz-adv-x="1479" 
d="M1512 1470l-233 -1469h-1079l233 1469h1079zM1261 1272h-641l-169 -1071h641z" />
    <glyph glyph-name=".null" horiz-adv-x="0" 
 />
    <glyph glyph-name="nonmarkingreturn" horiz-adv-x="682" 
 />
    <glyph glyph-name="CR" unicode="&#xd;" horiz-adv-x="541" 
 />
    <glyph glyph-name="space" unicode=" " horiz-adv-x="541" 
 />
    <glyph glyph-name="exclam" unicode="!" horiz-adv-x="724" 
d="M741 1470l-202 -1023h-209l123 1023h288zM363 -10q-67 0 -107.5 46t-30.5 111q11 67 65 112.5t123 45.5q68 0 106 -45t27 -113q-11 -66 -63.5 -111.5t-119.5 -45.5z" />
    <glyph glyph-name="quotedbl" unicode="&#x22;" horiz-adv-x="1044" 
d="M687 1470l-111 -601h-199l81 601h229zM1052 1470l-111 -601h-200l82 601h229z" />
    <glyph glyph-name="numbersign" unicode="#" horiz-adv-x="1421" 
d="M561 364l-102 -363h-202l102 363h-275l32 206h302l95 332h-279l32 205h304l104 363h200l-103 -363h320l102 363h203l-102 -363h274l-32 -205h-300l-95 -332h277l-32 -206h-301l-102 -363h-202l102 363h-322zM1035 902h-321l-97 -332h324z" />
    <glyph glyph-name="dollar" unicode="$" horiz-adv-x="1406" 
d="M809 -9l-37 -232h-186l36 231q-148 11 -273.5 63.5t-191.5 131.5l135 213q54 -71 153.5 -119.5t213.5 -59.5l65 410q-78 21 -134 41.5t-113.5 55t-90 77.5t-48 106.5t-2.5 143.5q18 118 96 217q140 178 426 209l37 233h186l-36 -230q116 -8 220.5 -45t175.5 -95
l-126 -216q-130 110 -307 127l-66 -417q80 -20 137 -39.5t117 -54t94 -76t50.5 -106t3.5 -144.5q-19 -119 -96 -213q-148 -183 -439 -212zM764 884l58 364q-8 -1 -20.5 -3.5t-15.5 -3.5q-173 -48 -194 -178q-10 -62 23 -98q46 -49 149 -81zM903 585l-58 -364q8 1 23.5 4
t17.5 3q180 45 201 174q9 62 -22 96q-50 53 -162 87z" />
    <glyph glyph-name="percent" unicode="%" horiz-adv-x="1905" 
d="M610 654q-103 0 -178 53q-74 54 -103.5 147.5t-10.5 214.5q19 120 79 214q59 95 149.5 147t194.5 52q107 0 180 -53q72 -52 100.5 -145.5t9.5 -214.5q-20 -123 -78 -214q-59 -96 -148.5 -148.5t-194.5 -52.5zM1800 1470l-1236 -1469h-226l1237 1469h225zM637 827
q80 0 134.5 63.5t72.5 178.5q18 114 -16.5 177t-114.5 63q-79 0 -134 -63.5t-73 -176.5t17.5 -177.5t113.5 -64.5zM1397 -10q-105 0 -177 52q-152 111 -112 360q18 121 77 215q59 95 149.5 147.5t193.5 52.5q106 0 180 -52l1 -1q73 -54 101.5 -148t9.5 -214
q-19 -118 -77 -214q-61 -94 -151.5 -146t-194.5 -52zM1425 162q80 0 134.5 63.5t72.5 176.5t-17.5 177.5t-113.5 64.5t-133.5 -64.5t-73.5 -177.5t17 -176.5t114 -63.5z" />
    <glyph glyph-name="ampersand" unicode="&#x26;" horiz-adv-x="1458" 
d="M1296 330l163 -191l-175 -174l-160 190q-218 -169 -497 -169q-149 0 -260 48q-114 52 -167 143t-35 204q17 99 76 187q92 129 319 255q-25 33 -57 83q-62 109 -43 230q16 103 82 184q63 78 162 120t220 42q110 0 191 -38q82 -40 117.5 -113.5t20.5 -171.5
q-13 -82 -68 -164q-76 -104 -275 -210l248 -292q66 108 111 245l200 -71q-63 -187 -173 -337zM785 935q38 20 107 60q68 44 100 81t39 81q10 59 -27 93t-112 34q-81 0 -132.5 -38t-62.5 -104q-8 -47 11.5 -92t76.5 -115zM673 205q128 0 238 53q53 30 81 50l-308 364
q-49 -27 -121 -72q-69 -49 -103.5 -96t-42.5 -103q-10 -58 18 -100q57 -96 238 -96z" />
    <glyph glyph-name="quotesingle" unicode="'" horiz-adv-x="589" 
d="M642 1470l-111 -601h-200l82 601h229z" />
    <glyph glyph-name="parenleft" unicode="(" horiz-adv-x="827" 
d="M654 -390h-248q-93 189 -118 440t19 533q45 284 150.5 535t256.5 436h248q-324 -426 -410 -971q-44 -281 -19 -519t121 -454z" />
    <glyph glyph-name="parenright" unicode=")" horiz-adv-x="831" 
d="M297 -390h-248q322 417 410 973q88 550 -102 971h248q95 -181 121.5 -430.5t-19.5 -540.5q-46 -289 -151 -538.5t-259 -434.5z" />
    <glyph glyph-name="asterisk" unicode="*" horiz-adv-x="1034" 
d="M763 998l-37 -254h-179l42 254l-247 -132l-66 160l241 125l-203 121l118 164l206 -132l37 250h179l-42 -250l248 133l62 -165l-239 -121l201 -125l-116 -160z" />
    <glyph glyph-name="plus" unicode="+" horiz-adv-x="1366" 
d="M896 627l-57 -361h-228l57 361h-367l34 215h367l58 363h228l-58 -363h367l-34 -215h-367z" />
    <glyph glyph-name="comma" unicode="," horiz-adv-x="669" 
d="M421 2l-147 -298h-184l126 310q-35 20 -50 58t-8 85q11 71 66 119t125 48q69 0 106.5 -47t26.5 -120q-12 -70 -61 -155z" />
    <glyph glyph-name="hyphen" unicode="-" horiz-adv-x="891" 
d="M856 696l-35 -224h-599l35 224h599z" />
    <glyph glyph-name="period" unicode="." horiz-adv-x="701" 
d="M352 -10q-70 0 -110.5 48.5t-29.5 118.5t67 118.5t126 48.5q68 0 107 -48t28 -119t-65.5 -119t-122.5 -48z" />
    <glyph glyph-name="slash" unicode="/" horiz-adv-x="1007" 
d="M1241 1756l-995 -1956h-235l994 1956h236z" />
    <glyph glyph-name="zero" unicode="0" horiz-adv-x="1510" 
d="M755 -14q-173 0 -297 89q-128 94 -177.5 265t-13.5 397q37 233 143 402q106 167 256 256.5t326 89.5q177 0 295 -89q128 -91 177 -261t13 -398q-38 -240 -142 -405q-101 -164 -253 -255t-327 -91zM792 222q100 0 188 56q184 121 238 459q26 168 1 289q-27 110 -94 166.5
t-170 56.5q-101 0 -189 -55q-187 -122 -240 -457q-27 -172 2 -291q24 -110 91.5 -167t172.5 -57z" />
    <glyph glyph-name="one" unicode="1" horiz-adv-x="912" 
d="M506 1l192 1165l-210 -225l-164 138l368 391h300l-233 -1469h-253z" />
    <glyph glyph-name="two" unicode="2" horiz-adv-x="1427" 
d="M1314 234l-37 -233h-1072l28 178l673 563q87 73 130 124q74 88 87 178q16 99 -46 152t-194 53q-235 0 -383 -166l-154 156q96 117 252.5 181.5t340.5 64.5q153 0 260 -48q110 -52 158.5 -148.5t28.5 -223.5q-10 -62 -43 -144q-64 -145 -272 -321l-439 -366h682z" />
    <glyph glyph-name="three" unicode="3" horiz-adv-x="1417" 
d="M702 -14q-163 0 -305 53t-218 142l157 211q56 -78 165.5 -124t237.5 -46q143 0 232.5 58.5t106.5 162.5q17 107 -55 162t-229 55h-142l28 181l386 397h-648l37 232h989l-28 -176l-409 -424q183 -29 270.5 -141t59.5 -284q-20 -125 -97 -232q-176 -227 -538 -227z" />
    <glyph glyph-name="four" unicode="4" horiz-adv-x="1606" 
d="M1242 349l-55 -348h-253l55 348h-784l28 178l887 943h300l-141 -891h269l-37 -230h-269zM1033 579l93 587l-549 -587h456z" />
    <glyph glyph-name="five" unicode="5" horiz-adv-x="1417" 
d="M702 -14q-163 0 -305 53t-218 141l155 212q57 -78 166.5 -124t236.5 -46q144 0 234 59t107 164q13 73 -14 122q-51 108 -349 108h-352l207 795h851l-37 -232h-630l-83 -331h124q221 0 344 -55q121 -56 171.5 -156.5t28.5 -241.5q-20 -126 -98 -234v-1
q-177 -233 -539 -233z" />
    <glyph glyph-name="six" unicode="6" horiz-adv-x="1452" 
d="M1188 860q112 -59 160 -162.5t27 -237.5q-22 -144 -112 -252q-86 -107 -214 -164.5t-279 -57.5q-197 0 -322 87q-127 87 -174 251t-10 393q39 246 155 419q112 169 284 259t379 90q254 0 372 -101l-138 -213q-74 84 -266 84q-207 0 -341 -123t-177 -354q1 1 3.5 2.5
t3.5 2.5q157 132 396 132q147 0 253 -55zM953 238q144 67 167 212q19 115 -49 179.5t-206 64.5q-93 0 -163 -33q-72 -33 -116.5 -88t-55.5 -124l-1 -7q-8 -111 63.5 -173t205.5 -62q87 0 155 31z" />
    <glyph glyph-name="seven" unicode="7" horiz-adv-x="1421" 
d="M1477 1299l-786 -1298h-278l755 1237h-822l37 232h1121z" />
    <glyph glyph-name="eight" unicode="8" horiz-adv-x="1479" 
d="M736 -14q-183 0 -299 52q-126 55 -183 156.5t-36 234.5q21 135 110 231q63 70 155 114q-69 52 -98.5 129t-14.5 171q20 126 106 223q83 91 211.5 139.5t285.5 48.5q158 0 272 -48q119 -51 171.5 -144t32.5 -219q-18 -120 -100 -211q-49 -52 -110 -89q95 -52 135.5 -140.5
t22.5 -204.5q-21 -136 -113 -238q-88 -99 -229.5 -152t-318.5 -53zM876 869q134 0 218.5 53t98.5 145q14 91 -54.5 144.5t-200.5 53.5t-215 -53t-97 -145q-15 -93 51 -145.5t199 -52.5zM771 207q157 0 254 60.5t114 167.5q17 104 -62 163.5t-235 59.5q-155 0 -251 -59.5
t-113 -163.5q-17 -107 60.5 -167.5t232.5 -60.5z" />
    <glyph glyph-name="nine" unicode="9" horiz-adv-x="1448" 
d="M1239 1398q124 -86 169.5 -250t8.5 -394q-39 -251 -153 -419q-113 -170 -282.5 -259.5t-380.5 -89.5q-121 0 -218 26.5t-154 75.5l136 211q83 -83 270 -83q204 0 337 122.5t176 351.5q-160 -134 -399 -134q-145 0 -251 55q-112 59 -160.5 163t-27.5 237q23 146 113 255
q84 104 212.5 161.5t277.5 57.5q205 0 326 -87zM982 810q72 33 117 88t56 125l3 22q4 104 -69 162t-203 58q-82 0 -153 -30q-144 -68 -167 -214q-18 -113 49 -178.5t203 -65.5q94 0 164 33z" />
    <glyph glyph-name="colon" unicode=":" horiz-adv-x="701" 
d="M481 804q-70 0 -110.5 48.5t-29.5 118.5t67 118.5t126 48.5q68 0 107 -48t28 -119t-65.5 -119t-122.5 -48zM352 -10q-70 0 -110.5 48.5t-29.5 118.5t67 118.5t126 48.5q68 0 107 -48t28 -119t-65.5 -119t-122.5 -48z" />
    <glyph glyph-name="semicolon" unicode=";" horiz-adv-x="647" 
d="M427 804q-70 0 -110.5 48.5t-29.5 118.5t67 118.5t126 48.5q68 0 107 -48t28 -119t-65.5 -119t-122.5 -48zM425 2l-147 -298h-184l126 310q-35 20 -50.5 58t-7.5 85q11 71 66 119t125 48q69 0 106.5 -47t26.5 -120q-12 -70 -61 -155z" />
    <glyph glyph-name="less" unicode="&#x3c;" horiz-adv-x="1406" 
d="M637 737l623 -257l-36 -229l-902 378l33 213l1023 380l-37 -231z" />
    <glyph glyph-name="equal" unicode="=" horiz-adv-x="1489" 
d="M1396 1082l-34 -217h-962l34 217h962zM1321 606l-34 -217h-962l34 217h962z" />
    <glyph glyph-name="greater" unicode="&#x3e;" horiz-adv-x="1406" 
d="M1317 842l-33 -213l-1022 -378l36 229l708 257l-627 254l37 231z" />
    <glyph glyph-name="question" unicode="?" horiz-adv-x="1240" 
d="M861 447h-260q17 208 248 379q50 38 74.5 58t57.5 53t49.5 64.5t22.5 67.5q14 86 -47.5 137t-181.5 51q-239 0 -381 -171l-174 140q112 127 266 193t338 66q157 0 257 -44q111 -47 159.5 -135t29.5 -207q-10 -61 -33 -114.5t-58 -97.5t-70 -78t-82 -71
q-44 -33 -66.5 -51.5t-55 -50t-48.5 -56.5t-29.5 -60t-15.5 -73zM659 -10q-67 0 -105.5 45.5t-28.5 111.5q11 68 63.5 113t120.5 45t106 -45t27 -113q-11 -66 -63.5 -111.5t-119.5 -45.5z" />
    <glyph glyph-name="at" unicode="@" horiz-adv-x="2119" 
d="M994 -406q-208 0 -377.5 68.5t-282.5 199.5q-111 128 -153 303.5t-10 377.5q32 200 129.5 374.5t250.5 302.5q152 128 344.5 195.5t405.5 67.5q208 0 375.5 -64.5t282.5 -188.5q112 -124 154.5 -293t10.5 -367q-29 -180 -93 -304q-66 -134 -166 -205t-221 -71
q-92 0 -150.5 41t-77.5 118q-159 -159 -396 -159q-154 0 -257 72q-109 74 -155.5 198t-22.5 277q26 160 111 280q90 125 219.5 193t277.5 68q147 0 248 -61q39 -26 72 -63l19 117h232l-120 -755q-17 -115 68 -115q46 0 89 37q89 85 129 330q51 325 -130 526
q-184 199 -529 199q-346 0 -595 -209q-246 -205 -300 -541q-53 -340 125 -547q183 -210 523 -210q108 0 218.5 27t200.5 74l38 -183q-98 -51 -230 -80.5t-257 -29.5zM1083 205q95 0 169 40h1q79 40 130 115.5t67 176.5q17 109 -12 177q-29 73 -94 112t-156 39
q-99 0 -171 -38q-79 -40 -129.5 -115t-66.5 -175q-16 -105 12 -176q28 -76 93 -116t157 -40z" />
    <glyph glyph-name="A" unicode="A" horiz-adv-x="1720" 
d="M577 387l-230 -386h-272l899 1469h236l435 -1469h-277l-108 386h-683zM1199 606l-157 559l-334 -559h491z" />
    <glyph glyph-name="B" unicode="B" horiz-adv-x="1571" 
d="M1562 1074q-32 -204 -210 -312l-29 3l1 -1q10 -4 15 -7l11 5q-6 -3 -9 -6q89 -51 126.5 -140t18.5 -206q-31 -198 -194.5 -303.5t-438.5 -105.5h-703l233 1469h672q275 0 406 -102.5t101 -293.5zM1299 1059q16 99 -54 147.5t-231 48.5h-406l-63 -396h406q317 0 348 200z
M1228 427q17 106 -52 157t-230 51h-436l-66 -413h436q161 0 246 50.5t102 154.5z" />
    <glyph glyph-name="C" unicode="C" horiz-adv-x="1653" 
d="M924 -14q-165 0 -297.5 55t-220.5 159q-93 104 -128.5 241.5t-10.5 295.5q51 322 309 537q122 103 272.5 157t314.5 54q181 0 318.5 -64t217.5 -185l-198 -166q-126 179 -368 179q-227 0 -399.5 -145t-207.5 -367q-35 -224 90.5 -369.5t353.5 -145.5q244 0 425 181
l146 -166q-119 -121 -278.5 -186t-338.5 -65z" />
    <glyph glyph-name="D" unicode="D" horiz-adv-x="1715" 
d="M774 1h-624l233 1469h624q228 0 398 -91q167 -95 239 -261.5t38 -380.5q-35 -216 -159 -385v-1q-131 -167 -326 -258.5t-423 -91.5zM959 1238h-354l-159 -1004h354q165 0 300 64q132 63 216 177t107 262t-26 262q-49 116 -161.5 177.5t-276.5 61.5z" />
    <glyph glyph-name="E" unicode="E" 
d="M1351 234l-37 -233h-1164l233 1469h1169l-37 -232h-910l-62 -390h824l-36 -230h-824l-61 -384h905z" />
    <glyph glyph-name="F" unicode="F" 
d="M507 618l-98 -617h-259l233 1469h1169l-37 -232h-910l-62 -390h824l-36 -230h-824z" />
    <glyph glyph-name="G" unicode="G" horiz-adv-x="1668" 
d="M930 -14q-166 0 -300.5 54.5t-223.5 158.5q-191 211 -139 538q25 158 104.5 295.5t206.5 241.5q122 103 274 157t318 54q186 0 325 -63t219 -184l-190 -164q-135 175 -383 175q-232 0 -406 -144.5t-209 -367.5q-36 -224 91.5 -369.5t358.5 -145.5q171 0 317 78l50 318
h-455l36 230h704l-105 -668q-118 -92 -273.5 -143t-319.5 -51z" />
    <glyph glyph-name="H" unicode="H" horiz-adv-x="1571" 
d="M509 631l-100 -630h-259l233 1469h259l-96 -607h753l96 607h259l-233 -1469h-259l100 630h-753z" />
    <glyph glyph-name="I" unicode="I" horiz-adv-x="559" 
d="M642 1470l-233 -1469h-259l233 1469h259z" />
    <glyph glyph-name="J" unicode="J" horiz-adv-x="1550" 
d="M772 -14q-303 0 -438.5 177.5t-78.5 500.5h259q-38 -224 35.5 -333t261.5 -109t296 104.5t142 319.5l131 824h253l-132 -831q-50 -312 -239.5 -482.5t-489.5 -170.5z" />
    <glyph glyph-name="K" unicode="K" horiz-adv-x="1627" 
d="M470 383l-61 -382h-259l233 1469h259l-118 -747l843 747h310l-737 -665l537 -804h-311l-430 615z" />
    <glyph glyph-name="L" unicode="L" horiz-adv-x="1464" 
d="M1351 234l-37 -233h-1164l233 1469h259l-196 -1236h905z" />
    <glyph glyph-name="M" unicode="M" horiz-adv-x="1861" 
d="M552 948l-150 -947h-252l233 1469h210l421 -965l716 965h210l-229 -1469h-251l149 953l-590 -782h-125z" />
    <glyph glyph-name="N" unicode="N" horiz-adv-x="1571" 
d="M568 1001l-159 -1000h-259l233 1469h208l646 -999l158 999h259l-233 -1469h-207z" />
    <glyph glyph-name="O" unicode="O" horiz-adv-x="1859" 
d="M930 -14q-162 0 -297.5 55.5t-226.5 159.5q-93 104 -128.5 240.5t-10.5 295.5q51 319 308 535q124 104 276 158.5t316 54.5q163 0 296.5 -54t225.5 -157q92 -104 127 -241t10 -296q-52 -327 -307 -538q-253 -213 -589 -213zM967 222q146 0 275.5 66.5t215.5 184.5
t109 264q34 220 -90.5 366t-346.5 146q-148 0 -278.5 -66t-216.5 -183.5t-109 -262.5q-35 -223 90 -369t351 -146z" />
    <glyph glyph-name="P" unicode="P" horiz-adv-x="1544" 
d="M477 429l-68 -428h-259l233 1469h626q195 0 318 -60q131 -63 187 -182t30 -278q-24 -158 -119 -279q-95 -118 -243.5 -180t-337.5 -62h-367zM966 1238h-361l-91 -576h361q179 0 283.5 73.5t126.5 214.5q23 140 -59 214t-260 74z" />
    <glyph glyph-name="Q" unicode="Q" horiz-adv-x="1941" 
d="M1531 210l248 -283l-185 -162l-269 308q-188 -87 -395 -87q-162 0 -297.5 55.5t-226.5 159.5q-93 104 -128.5 240.5t-10.5 295.5q51 319 308 535q124 104 276 158.5t316 54.5q163 0 296.5 -54t225.5 -157q92 -104 127 -241t10 -296q-50 -319 -295 -527zM967 222
q146 0 275.5 66.5t215.5 184.5t109 264q34 220 -90.5 366t-346.5 146q-148 0 -278.5 -66t-216.5 -183.5t-109 -262.5q-35 -223 90 -369t351 -146z" />
    <glyph glyph-name="R" unicode="R" horiz-adv-x="1548" 
d="M477 429l-68 -428h-259l233 1469h626q195 0 318 -60q131 -63 187 -182t30 -278q-24 -158 -119 -279q-111 -136 -288 -197l261 -473h-290l-233 428h-398zM966 1238h-361l-91 -576h361q179 0 283.5 73.5t126.5 214.5q23 140 -59 214t-260 74z" />
    <glyph glyph-name="S" unicode="S" horiz-adv-x="1451" 
d="M723 -14q-172 0 -321.5 55t-222.5 145l135 211q65 -83 187.5 -133t257.5 -50q118 0 193 27q139 49 157 161q9 61 -22 96q-62 67 -259 113q-97 23 -156.5 40.5t-134 52.5t-113 78t-59.5 112.5t-7 158.5q18 118 96 217q82 105 221 160t319 55q138 0 264.5 -38.5
t204.5 -104.5l-126 -216q-151 131 -379 131q-112 0 -190 -29q-136 -51 -154 -165q-10 -63 24 -98q60 -66 257 -110q200 -51 282 -90q166 -78 191 -220q10 -58 -1 -129q-18 -117 -97 -213q-84 -106 -224.5 -161.5t-322.5 -55.5z" />
    <glyph glyph-name="T" unicode="T" horiz-adv-x="1525" 
d="M1087 1238l-196 -1237h-257l196 1237h-484l37 232h1225l-37 -232h-484z" />
    <glyph glyph-name="U" unicode="U" horiz-adv-x="1552" 
d="M774 -14q-298 0 -435 171t-88 482l132 831h259l-131 -824q-67 -424 302 -424q187 0 295.5 105t142.5 319l131 824h253l-132 -831q-50 -312 -240 -482.5t-489 -170.5z" />
    <glyph glyph-name="V" unicode="V" horiz-adv-x="1678" 
d="M1836 1470l-878 -1469h-238l-412 1469h280l313 -1117l670 1117h265z" />
    <glyph glyph-name="W" unicode="W" horiz-adv-x="2371" 
d="M1355 1068l-532 -1067h-259l-256 1469h268l188 -1086l549 1086h227l194 -1092l542 1092h253l-724 -1469h-253z" />
    <glyph glyph-name="X" unicode="X" horiz-adv-x="1717" 
d="M945 563l-493 -562h-302l670 753l-406 716h302l298 -521l460 521h290l-632 -710l435 -759h-303z" />
    <glyph glyph-name="Y" unicode="Y" horiz-adv-x="1723" 
d="M1071 510l-81 -509h-257l81 513l-431 956h282l321 -716l553 716h267z" />
    <glyph glyph-name="Z" unicode="Z" horiz-adv-x="1537" 
d="M1424 234l-37 -233h-1237l28 176l1024 1061h-840l37 232h1196l-28 -176l-1020 -1060h877z" />
    <glyph glyph-name="bracketleft" unicode="[" horiz-adv-x="840" 
d="M682 -174l-34 -216h-480l308 1944h480l-34 -216h-228l-240 -1512h228z" />
    <glyph glyph-name="backslash" unicode="\" horiz-adv-x="1008" 
d="M556 1756l377 -1956h-236l-376 1956h235z" />
    <glyph glyph-name="bracketright" unicode="]" horiz-adv-x="838" 
d="M854 1554l-308 -1944h-478l34 216h228l240 1512h-228l34 216h478z" />
    <glyph glyph-name="asciicircum" unicode="^" horiz-adv-x="1141" 
d="M702 921l-364 -634h-218l524 897h200l234 -897h-216z" />
    <glyph glyph-name="underscore" unicode="_" horiz-adv-x="1025" 
d="M1054 59l-29 -183h-1066l29 183h1066z" />
    <glyph glyph-name="grave" unicode="`" horiz-adv-x="1557" 
d="M931 1545l284 -321h-264l-360 321h340z" />
    <glyph glyph-name="a" unicode="a" horiz-adv-x="1287" 
d="M586 -14q-126 0 -221 40q-93 45 -135.5 126.5t-26.5 184.5q15 90 76 176q125 166 436 166h279l1 10q34 215 -208 215q-205 0 -265 -163l-199 122q63 131 193 201t308 70q234 0 344.5 -118.5t76.5 -332.5l-109 -688h-246l13 78q-137 -87 -317 -87zM639 203q205 0 305 165
l16 102h-275q-212 0 -233 -129q-11 -65 38.5 -101.5t148.5 -36.5z" />
    <glyph glyph-name="b" unicode="b" horiz-adv-x="1464" 
d="M743 -10q-149 0 -249 65q-48 29 -83 68l-19 -122h-242l233 1469h250l-74 -463q161 131 366 131q165 0 282 -73q120 -74 171 -204.5t25 -296.5q-25 -165 -122 -301q-97 -131 -237 -202t-301 -71zM762 216q94 0 179 42q84 45 138 124t70 182q18 109 -12 185
q-34 79 -102 120.5t-163 41.5q-89 0 -173 -44q-87 -44 -141 -122t-71 -181q-16 -101 17 -184q31 -78 98 -121t160 -43z" />
    <glyph glyph-name="c" unicode="c" horiz-adv-x="1367" 
d="M741 -10q-171 0 -292 73q-126 77 -181 208t-29 293q27 165 124 296q98 131 246 204.5t314 73.5t279 -69.5t153 -198.5l-215 -124q-32 81 -97.5 123t-156.5 42q-94 0 -181 -44t-141 -122t-71 -181q-17 -110 15 -186q33 -77 103 -119.5t165 -42.5q92 0 170.5 42.5
t135.5 122.5l176 -124q-82 -127 -218.5 -197t-298.5 -70z" />
    <glyph glyph-name="d" unicode="d" horiz-adv-x="1466" 
d="M718 -10q-166 0 -278 71q-122 76 -174.5 207t-26.5 296q27 167 123 300q98 131 238 202.5t300 71.5q141 0 248 -65q45 -28 76 -62l73 459h252l-233 -1469h-244l19 120q-157 -131 -373 -131zM770 216q91 0 175 42q85 46 139.5 125t70.5 181t-12 186q-35 77 -103 119
t-160 42q-89 0 -177 -44q-85 -45 -139 -123.5t-71 -179.5q-16 -105 15 -184q34 -79 101.5 -121.5t160.5 -42.5z" />
    <glyph glyph-name="e" unicode="e" horiz-adv-x="1423" 
d="M1361 558q-2 -19 -21 -86h-858q10 -121 93.5 -188.5t219.5 -67.5q193 0 330 144l118 -169q-92 -98 -218.5 -149.5t-273.5 -51.5q-179 0 -301 73q-127 76 -182 206.5t-29 294.5q25 162 122 296q95 132 235.5 205t298.5 73q162 0 278 -73t165.5 -205.5t22.5 -301.5z
M513 667h619q-1 38 -19 93q-64 157 -253 157q-93 0 -170 -40q-129 -70 -177 -210zM481 480v-4v4z" />
    <glyph glyph-name="f" unicode="f" horiz-adv-x="914" 
d="M626 911l-144 -910h-251l144 910h-181l35 217h181l14 92q28 174 145.5 273.5t295.5 99.5q79 0 142 -21.5t96 -60.5l-113 -207q-50 72 -150 72q-144 0 -169 -159l-14 -89h311l-35 -217h-307z" />
    <glyph glyph-name="g" unicode="g" horiz-adv-x="1487" 
d="M647 -404q-179 0 -303.5 65t-182.5 189l229 163q54 -181 296 -181q328 0 418 329q-163 -116 -375 -116q-160 0 -279 71q-122 71 -176.5 196t-29.5 281q26 161 123 288q96 123 235 190t300 67q144 0 253 -59q51 -27 89 -65l13 87h254l-135 -852q-49 -312 -239.5 -482.5
t-489.5 -170.5zM786 272q99 0 184 41q84 41 137 114t68 166q15 98 -16 165q-69 153 -272 153q-98 0 -182 -39q-85 -42 -139 -114.5t-68 -164.5q-16 -98 17 -167q33 -74 103.5 -114t167.5 -40z" />
    <glyph glyph-name="h" unicode="h" horiz-adv-x="1372" 
d="M492 581l-92 -580h-250l233 1469h250l-71 -450q154 118 367 118q138 0 235 -53q104 -56 144.5 -168.5t15.5 -272.5l-102 -643h-252l99 622q44 283 -215 283q-94 0 -173 -38q-156 -76 -189 -287z" />
    <glyph glyph-name="i" unicode="i" horiz-adv-x="619" 
d="M512 1276q-68 0 -107 44t-29 110q11 66 63.5 110.5t121.5 44.5q68 0 107 -43t28 -108q-10 -69 -62.5 -113.5t-121.5 -44.5zM613 1128l-179 -1127h-249l179 1127h249z" />
    <glyph glyph-name="j" unicode="j" horiz-adv-x="516" 
d="M479 1276q-68 0 -107 44t-29 110q11 66 63.5 110.5t121.5 44.5q68 0 107 -43t28 -108q-10 -69 -62.5 -113.5t-121.5 -44.5zM-31 -402q-117 0 -186 40l100 204q37 -23 109 -23q131 0 157 159l182 1150h251l-182 -1146q-29 -180 -143 -282t-288 -102z" />
    <glyph glyph-name="k" unicode="k" horiz-adv-x="1443" 
d="M449 309l-49 -308h-250l233 1469h250l-133 -839l622 497h317l-559 -473l413 -654h-311l-314 484z" />
    <glyph glyph-name="l" unicode="l" horiz-adv-x="550" 
d="M633 1470l-233 -1469h-250l233 1469h250z" />
    <glyph glyph-name="m" unicode="m" horiz-adv-x="2132" 
d="M492 581l-92 -580h-250l179 1127h242l-18 -112q150 122 359 122q123 0 212.5 -45.5t133.5 -130.5q83 84 197 130t240 46q133 0 231 -53q103 -56 143.5 -169t14.5 -272l-102 -643h-252l99 622q44 283 -203 283q-89 0 -160 -37q-148 -75 -183 -288l-92 -580h-252l99 622
q44 283 -203 283q-87 0 -158 -37q-152 -78 -185 -288z" />
    <glyph glyph-name="n" unicode="n" horiz-adv-x="1372" 
d="M492 581l-92 -580h-250l179 1127h242l-19 -115q154 125 377 125q138 0 235 -53q104 -56 144.5 -168.5t15.5 -272.5l-102 -643h-252l99 622q44 283 -215 283q-94 0 -173 -38q-156 -76 -189 -287z" />
    <glyph glyph-name="o" unicode="o" 
d="M734 -10q-169 0 -289 73q-123 77 -177 209t-29 292q27 165 124 296q99 133 243.5 205.5t309.5 72.5q167 0 288 -73q125 -75 177.5 -205t26.5 -296q-26 -165 -121 -297q-97 -131 -243 -204t-310 -73zM770 216q93 0 179 42q83 45 136.5 124.5t69.5 181.5t-12 186
q-33 77 -101 119t-162 42q-89 0 -177 -44q-85 -45 -139 -123.5t-71 -179.5q-16 -105 15 -184q34 -79 101.5 -121.5t160.5 -42.5z" />
    <glyph glyph-name="p" unicode="p" horiz-adv-x="1464" 
d="M419 118l-81 -508h-250l241 1518h242l-20 -124q158 134 374 134q165 0 282 -73q120 -74 171 -204.5t25 -296.5q-25 -165 -122 -301q-97 -131 -237 -202t-301 -71q-145 0 -245 65q-44 26 -79 63zM762 216q94 0 179 42q84 45 138 124t70 182q18 109 -12 185
q-34 79 -102 120.5t-163 41.5q-89 0 -173 -44q-87 -44 -141 -122t-71 -181q-16 -101 17 -184q31 -78 98 -121t160 -43z" />
    <glyph glyph-name="q" unicode="q" horiz-adv-x="1466" 
d="M1495 1128l-241 -1518h-252l81 507q-160 -127 -365 -127q-166 0 -278 71q-122 76 -174.5 207t-26.5 296q27 167 123 300q98 131 238 202.5t300 71.5q145 0 252 -65q47 -29 79 -66l20 121h244zM770 216q91 0 175 42q85 46 139.5 125t70.5 181t-12 186q-35 77 -103 119
t-160 42q-89 0 -177 -44q-85 -45 -139 -123.5t-71 -179.5q-16 -105 15 -184q34 -79 101.5 -121.5t160.5 -42.5z" />
    <glyph glyph-name="r" unicode="r" horiz-adv-x="932" 
d="M489 562l-89 -561h-250l179 1127h242l-20 -121q158 141 411 130l-40 -253q-37 10 -50 10h-21q-148 0 -242.5 -86.5t-119.5 -245.5z" />
    <glyph glyph-name="s" unicode="s" horiz-adv-x="1119" 
d="M551 -10q-141 0 -267.5 40.5t-186.5 106.5l139 204q57 -57 158.5 -92t207.5 -35q225 0 243 116q7 48 -39 72.5t-183 46.5q-75 12 -127 24t-110 37t-90.5 59t-49 90t-4.5 129q17 103 88 187q74 79 187.5 121t253.5 42q127 0 241 -33t167 -86l-142 -202q-116 98 -303 98
q-106 0 -169.5 -31.5t-72.5 -87.5q-8 -51 40 -78.5t181 -48.5q76 -13 126 -24.5t109.5 -36.5t92 -58t50 -88t6.5 -127q-16 -106 -94 -187q-149 -158 -452 -158z" />
    <glyph glyph-name="t" unicode="t" horiz-adv-x="916" 
d="M597 -10q-176 0 -257 95t-53 268l88 558h-181l35 217h181l37 233h251l-37 -233h307l-35 -217h-307l-87 -551q-12 -73 17 -111.5t97 -38.5q102 0 174 72l53 -195q-105 -97 -283 -97z" />
    <glyph glyph-name="u" unicode="u" horiz-adv-x="1364" 
d="M638 -10q-149 0 -244 52q-108 55 -150.5 168t-17.5 273l103 645h252l-99 -622q-23 -141 31.5 -213.5t182.5 -72.5q90 0 168 38q152 77 184 288l93 582h252l-179 -1127h-240l18 113q-152 -124 -354 -124z" />
    <glyph glyph-name="v" unicode="v" horiz-adv-x="1221" 
d="M1400 1128l-672 -1127h-235l-314 1127h265l218 -814l485 814h253z" />
    <glyph glyph-name="w" unicode="w" horiz-adv-x="1872" 
d="M1058 760l-413 -759h-227l-239 1127h245l165 -798l429 798h203l168 -802l426 802h236l-600 -1127h-226z" />
    <glyph glyph-name="x" unicode="x" horiz-adv-x="1274" 
d="M699 391l-361 -390h-288l534 576l-335 551h290l221 -366l335 366h285l-514 -551l358 -576h-294z" />
    <glyph glyph-name="y" unicode="y" horiz-adv-x="1221" 
d="M1400 1128l-977 -1634h-257l324 538l-311 1096h265l224 -812l479 812h253z" />
    <glyph glyph-name="z" unicode="z" horiz-adv-x="1253" 
d="M1138 218l-35 -217h-953l26 164l718 746h-588l35 217h925l-27 -168l-717 -742h616z" />
    <glyph glyph-name="braceleft" unicode="{" horiz-adv-x="890" 
d="M732 -174l-34 -216h-119q-162 0 -234 84t-46 244l74 463q6 38 -6.5 55.5t-44.5 17.5h-100l35 218h100q62 0 73 71l73 465q53 326 384 326h119l-34 -216h-81q-119 0 -140 -129l-70 -442q-21 -134 -104 -184q67 -54 46 -186l-70 -442q-21 -129 98 -129h81z" />
    <glyph glyph-name="bar" unicode="|" horiz-adv-x="722" 
d="M726 1554l-308 -1944h-238l308 1944h238z" />
    <glyph glyph-name="braceright" unicode="}" horiz-adv-x="887" 
d="M185 -390h-117l34 216h77q65 0 100.5 31t45.5 98l70 442q20 133 101 186q-64 50 -43 184l70 442q11 67 -14 98t-90 31h-77l34 216h117q165 0 237 -83t47 -243l-73 -465q-6 -37 5.5 -54t43.5 -17h98l-35 -218h-98q-61 0 -71 -73l-74 -463q-25 -159 -125 -243.5t-263 -84.5
z" />
    <glyph glyph-name="asciitilde" unicode="~" horiz-adv-x="1333" 
d="M956 535q-56 0 -104 20t-81.5 49t-62.5 58t-60 49t-62 20q-57 0 -96 -47.5t-50 -133.5h-185q26 181 121.5 284.5t236.5 103.5q56 0 104 -20t80.5 -49t61.5 -58t60.5 -49t62.5 -20q59 0 97 48.5t48 136.5h185q-27 -184 -121.5 -288t-234.5 -104z" />
    <glyph glyph-name="exclamdown" unicode="&#xa1;" horiz-adv-x="724" 
d="M495 821q-68 0 -108 46t-30 111q11 66 66 113t122 47t105.5 -46t27.5 -114q-11 -66 -63.5 -111.5t-119.5 -45.5zM576 681l-117 -991h-288l196 991h209z" />
    <glyph glyph-name="cent" unicode="&#xa2;" horiz-adv-x="1274" 
d="M774 -6l-37 -235h-186l38 238q-106 19 -184 66q-127 77 -182 208t-29 293q27 165 124 296q81 109 197 178t253 92l38 240h186l-38 -237q138 -16 229 -83t127 -180l-214 -124q-53 126 -178 155l-107 -675q131 27 227 155l176 -124q-74 -112 -188.5 -180t-251.5 -83z
M626 232l105 663q-44 -13 -71 -28q-87 -44 -141.5 -122t-71.5 -181q-16 -108 16 -186q44 -108 163 -146z" />
    <glyph glyph-name="sterling" unicode="&#xa3;" horiz-adv-x="1571" 
d="M1410 234l-37 -233h-1238l37 233h219l65 407h-219l30 190h219l16 101q26 166 121 293q94 127 245 193.5t345 66.5q268 0 415 -118l-127 -223q-106 105 -345 105q-347 0 -397 -315l-16 -103h536l-30 -190h-536l-65 -407h762z" />
    <glyph glyph-name="currency" unicode="&#xa4;" horiz-adv-x="1555" 
d="M496 203l-256 -218l-124 161l242 209q-78 147 -51 318q26 170 149 314l-174 207l175 162l184 -213q161 93 331 93q167 0 300 -92l250 212l125 -162l-238 -203q77 -141 50 -318q-30 -179 -154 -319l176 -208l-176 -161l-185 216q-157 -88 -326 -88q-170 0 -298 90z
M828 330q101 0 190 48q94 51 154 128.5t74 166.5q15 98 -22 173q-41 82 -116 127.5t-171 45.5q-99 0 -186 -46q-93 -50 -153 -129t-74 -171q-16 -91 20 -171q40 -80 115 -126t169 -46z" />
    <glyph glyph-name="yen" unicode="&#xa5;" horiz-adv-x="1599" 
d="M966 237l-38 -236h-258l38 236h-424l27 173h424l17 106h-424l27 173h338l-437 781h284l386 -693l606 693h278l-683 -781h336l-27 -173h-426l-17 -106h426l-27 -173h-426z" />
    <glyph glyph-name="brokenbar" unicode="&#xa6;" horiz-adv-x="558" 
d="M644 1554l-121 -762h-238l121 762h238zM457 374l-121 -764h-238l121 764h238z" />
    <glyph glyph-name="section" unicode="&#xa7;" horiz-adv-x="1186" 
d="M525 -212q-72 0 -159 15l-2 1q-189 46 -266 134l119 204q51 -63 149 -102t201 -39q105 0 166.5 36t72.5 102q4 28 -5 50t-24.5 36t-47.5 27.5t-58 21t-72 18.5q-75 18 -121 31.5t-103.5 42t-87 62.5t-45.5 90t-5 128q27 166 172 265q-73 79 -52 213q18 113 92 190
q72 81 190 124.5t265 43.5q113 0 230.5 -36t159.5 -84l-118 -202q-115 108 -320 108q-245 0 -267 -138q-8 -54 37.5 -86t173.5 -63q91 -21 149 -43t117 -62t81 -104.5t8 -153.5q-12 -76 -56 -142.5t-113 -115.5q72 -81 51 -217q-16 -104 -86 -187l-1 -1
q-74 -80 -183.5 -123.5t-241.5 -43.5zM790 465q120 45 138 151q4 29 -5 51.5t-23.5 37t-48 29t-57 21.5t-72.5 21l-110 29q-129 -39 -146 -147q-10 -61 35 -95.5t175 -66.5q43 -11 114 -31z" />
    <glyph glyph-name="dieresis" unicode="&#xa8;" horiz-adv-x="1445" 
d="M734 1259q-55 0 -86.5 38t-23.5 94q9 56 53 94.5t99 38.5q56 0 88 -38.5t23 -94.5q-8 -55 -52.5 -93.5t-100.5 -38.5zM1110 1259q-55 0 -87.5 38t-24.5 94q9 56 53.5 94.5t100.5 38.5q55 0 86.5 -38.5t22.5 -94.5q-8 -55 -52 -93.5t-99 -38.5z" />
    <glyph glyph-name="copyright" unicode="&#xa9;" horiz-adv-x="1788" 
d="M890 -5q-151 0 -278 55.5t-215 160.5q-86 103 -119 238.5t-9 287.5q23 149 100.5 284.5t198.5 240.5q120 104 265 159t296 55q153 0 281 -55t214 -157q176 -215 127 -524q-24 -152 -101 -289t-197 -240q-123 -105 -267.5 -160.5t-295.5 -55.5zM914 143q165 0 312.5 78
t246.5 215t125 304q26 165 -29 300t-177 211.5t-287 76.5q-252 0 -450 -172q-192 -170 -232 -419q-20 -125 7.5 -235t92.5 -189t166.5 -124.5t224.5 -45.5zM960 291q-128 0 -225 58q-97 56 -138.5 157.5t-20.5 230.5t94 231q76 101 189 156.5t242 55.5q121 0 209 -53
t124 -147l-180 -117q-42 121 -186 121q-106 0 -184.5 -69t-95.5 -178q-18 -110 38 -180t163 -70q143 0 224 120l144 -113q-66 -95 -172 -149t-225 -54z" />
    <glyph glyph-name="ordfeminine" unicode="&#xaa;" horiz-adv-x="724" 
d="M612 1564q160 0 232 -74t50 -216l-65 -411h-186l7 44q-87 -51 -206 -51q-128 0 -196 59.5t-52 158.5q16 104 104.5 160t233.5 56h167q7 58 -24.5 84.5t-105.5 26.5q-65 0 -130 -23.5t-112 -63.5l-62 141q60 50 154 79.5t191 29.5zM669 1088l9 56h-150q-130 0 -141 -64
q-5 -34 22.5 -51.5t87.5 -17.5q115 0 172 77z" />
    <glyph glyph-name="guillemotleft" unicode="&#xab;" horiz-adv-x="1035" 
d="M398 564l241 -413h-249l-249 413l380 416h248zM786 564l241 -413h-249l-249 413l380 416h248z" />
    <glyph glyph-name="logicalnot" unicode="&#xac;" horiz-adv-x="1278" 
d="M1254 846l-91 -576h-229l57 359h-733l34 217h962z" />
    <glyph glyph-name="uni00AD" unicode="&#xad;" horiz-adv-x="789" 
d="M803 696l-35 -224h-599l35 224h599z" />
    <glyph glyph-name="registered" unicode="&#xae;" horiz-adv-x="1660" 
d="M1560 1264q176 -215 127 -524q-24 -152 -101 -289t-197 -240q-123 -105 -267.5 -160.5t-295.5 -55.5t-277.5 55.5t-215.5 160.5q-86 103 -119 238.5t-9 287.5q23 149 100 284.5t199 240.5q120 104 264.5 159t296.5 55q153 0 281 -55t214 -157zM1284 305h22l-7 13
q195 171 234 422q20 124 -7.5 233t-93 187t-167 123t-224.5 45q-251 0 -451 -172q-193 -171 -232 -419q-27 -167 28 -303t177 -213.5t287 -77.5q240 0 434 162zM1357 865q-14 -89 -64.5 -156t-131.5 -104l138 -287q-5 -6 -15 -13h-184l-127 257h-176l-41 -257h-194l137 864
h351q163 0 246 -82t61 -222z" />
    <glyph glyph-name="macron" unicode="&#xaf;" horiz-adv-x="1403" 
d="M1292 1474l-28 -179h-715l28 179h715z" />
    <glyph glyph-name="degree" unicode="&#xb0;" horiz-adv-x="992" 
d="M616 769q-100 0 -175 48q-75 49 -109 130.5t-19 178.5q16 97 77 180q60 82 150 129t189 47q100 0 177 -47q76 -47 110.5 -129.5t18.5 -179.5q-15 -95 -76 -181q-64 -83 -154.5 -129.5t-188.5 -46.5zM646 936q78 0 140.5 54.5t75.5 133.5q13 85 -31 139.5t-124 54.5
q-86 0 -148 -54t-75 -140q-13 -82 32.5 -135t129.5 -53z" />
    <glyph glyph-name="plusminus" unicode="&#xb1;" horiz-adv-x="1374" 
d="M916 725l-56 -351h-228l56 351h-367l34 217h367l56 351h228l-56 -351h367l-34 -217h-367zM1203 218l-35 -217h-962l35 217h962z" />
    <glyph glyph-name="uni00B2" unicode="&#xb2;" horiz-adv-x="856" 
d="M926 834l-27 -174h-732l20 132l437 334q84 68 106 101q27 34 31 61q8 45 -33 71.5t-123 26.5q-160 0 -242 -102l-128 111q143 169 407 169q164 0 251 -72.5t67 -194.5q-11 -74 -57.5 -135.5t-151.5 -142.5l-237 -185h412z" />
    <glyph glyph-name="uni00B3" unicode="&#xb3;" horiz-adv-x="828" 
d="M508 650q-124 0 -225.5 34.5t-141.5 91.5l111 160q31 -49 108.5 -78t175.5 -29q194 0 211 107q8 52 -35 80t-135 28h-123l22 134l222 202h-428l27 174h705l-20 -130l-243 -225q112 -21 166.5 -90.5t38.5 -172.5q-12 -78 -68 -145q-118 -141 -368 -141z" />
    <glyph glyph-name="acute" unicode="&#xb4;" horiz-adv-x="1557" 
d="M1456 1545l-462 -321h-264l386 321h340z" />
    <glyph glyph-name="paragraph" unicode="&#xb6;" horiz-adv-x="1425" 
d="M964 1345l-245 -1545h-219l155 976q-105 4 -192 48q-98 51 -140 139t-24 202q20 125 93 210q72 87 186.5 133t257.5 46h637l-278 -1754h-219l245 1545h-257z" />
    <glyph glyph-name="periodcentered" unicode="&#xb7;" horiz-adv-x="701" 
d="M420 416q-70 0 -110.5 49t-29.5 120q10 70 66 117.5t127 47.5t108.5 -46t26.5 -119q-12 -73 -65 -121t-123 -48z" />
    <glyph glyph-name="cedilla" unicode="&#xb8;" horiz-adv-x="1409" 
d="M588 -450q-129 0 -207 62l88 151q61 -48 145 -48q85 0 92 52q4 26 -14 38t-64 12h-93l107 255h168l-49 -120q76 -15 113 -65.5t25 -125.5q-15 -96 -100 -153.5t-211 -57.5z" />
    <glyph glyph-name="uni00B9" unicode="&#xb9;" horiz-adv-x="626" 
d="M430 654l107 650l-128 -137l-138 111l260 276h247l-142 -900h-206z" />
    <glyph glyph-name="ordmasculine" unicode="&#xba;" horiz-adv-x="870" 
d="M570 856q-105 0 -189 45q-82 48 -118.5 129.5t-20.5 180.5q15 99 79 185l1 1q63 80 157.5 123.5t202.5 43.5q111 0 193 -43q81 -47 117 -128t20 -182q-17 -103 -77 -183q-62 -81 -158.5 -126.5t-206.5 -45.5zM597 1030q87 0 148.5 50t74.5 131q13 83 -32 132.5t-133 49.5
q-86 0 -147 -50.5t-74 -131.5q-13 -79 33 -130t130 -51z" />
    <glyph glyph-name="guillemotright" unicode="&#xbb;" horiz-adv-x="1033" 
d="M682 564l-377 -413h-249l371 413l-239 416h248zM1070 564l-377 -413h-249l371 413l-239 416h248z" />
    <glyph glyph-name="questiondown" unicode="&#xbf;" horiz-adv-x="1238" 
d="M711 821q-67 0 -105.5 45.5t-28.5 111.5q10 67 64 113.5t120 46.5q68 0 107 -46t28 -114q-10 -67 -63.5 -112t-121.5 -45zM551 -325q-155 0 -256 44q-110 47 -160 133.5t-32 200.5t80 193t165 156q100 77 127 104q75 75 82 175h260q-11 -108 -67.5 -192.5t-176.5 -173.5
q-50 -38 -75.5 -58.5t-58.5 -52.5t-50 -63.5t-22 -66.5q-12 -75 53 -123t181 -48q239 0 381 171l171 -140q-110 -127 -263.5 -193t-338.5 -66z" />
    <glyph glyph-name="Agrave" unicode="&#xc0;" horiz-adv-x="1870" 
d="M1116 1848l284 -320h-264l-361 320h341zM652 387l-230 -386h-272l899 1469h236l435 -1469h-277l-108 386h-683zM1274 606l-157 559l-334 -559h491z" />
    <glyph glyph-name="Aacute" unicode="&#xc1;" horiz-adv-x="1870" 
d="M1679 1848l-462 -320h-264l386 320h340zM652 387l-230 -386h-272l899 1469h236l435 -1469h-277l-108 386h-683zM1274 606l-157 559l-334 -559h491z" />
    <glyph glyph-name="Acircumflex" unicode="&#xc2;" horiz-adv-x="1870" 
d="M1199 1674l-198 -146h-257l380 320h207l277 -320h-256zM652 387l-230 -386h-272l899 1469h236l435 -1469h-277l-108 386h-683zM1274 606l-157 559l-334 -559h491z" />
    <glyph glyph-name="Atilde" unicode="&#xc3;" horiz-adv-x="1870" 
d="M1319 1535q-37 0 -70.5 14t-56.5 33.5t-42.5 39.5t-39.5 34t-38 14q-36 0 -61 -32t-34 -93h-165q19 139 93.5 221t181.5 82q45 0 85.5 -21.5t64 -47.5t49.5 -47.5t46 -21.5q38 0 64 33.5t29 87.5h165q-13 -131 -89.5 -213.5t-181.5 -82.5zM652 387l-230 -386h-272
l899 1469h236l435 -1469h-277l-108 386h-683zM1274 606l-157 559l-334 -559h491z" />
    <glyph glyph-name="Adieresis" unicode="&#xc4;" horiz-adv-x="1870" 
d="M993 1562q-55 0 -86.5 38.5t-23.5 94.5q9 56 52.5 94t99.5 38t88.5 -38t23.5 -94q-8 -55 -53 -94t-101 -39zM1369 1562q-55 0 -87 38.5t-24 94.5q9 56 53 94t100 38t87.5 -38t22.5 -94q-8 -55 -52.5 -94t-99.5 -39zM652 387l-230 -386h-272l899 1469h236l435 -1469h-277
l-108 386h-683zM1274 606l-157 559l-334 -559h491z" />
    <glyph glyph-name="Aring" unicode="&#xc5;" horiz-adv-x="1870" 
d="M1176 1543q-104 0 -166 72t-46 174q17 103 102.5 177t188.5 74q106 0 168.5 -73t45.5 -178q-16 -102 -102 -174t-191 -72zM1199 1685q46 0 79.5 29t40.5 75q8 47 -16 76t-71 29q-45 0 -78 -29t-40 -76t16.5 -75.5t68.5 -28.5zM652 387l-230 -386h-272l899 1469h236
l435 -1469h-277l-108 386h-683zM1274 606l-157 559l-334 -559h491z" />
    <glyph glyph-name="AE" unicode="&#xc6;" horiz-adv-x="2380" 
d="M2213 633h-708l-63 -399h825l-37 -233h-1082l61 386h-497l-287 -386h-275l1109 1469h1176l-37 -232h-797l-60 -377h708zM1244 606l99 623l-466 -623h367z" />
    <glyph glyph-name="Ccedilla" unicode="&#xc7;" horiz-adv-x="1653" 
d="M772 -450q-127 0 -207 62l89 151q61 -48 144 -48q86 0 93 52q4 26 -14 38t-65 12h-93l75 178q-247 35 -388 205q-93 104 -128.5 241.5t-10.5 295.5q51 322 309 537q122 103 272.5 157t314.5 54q181 0 318.5 -64t217.5 -185l-198 -166q-126 179 -368 179
q-227 0 -399.5 -145t-207.5 -367q-35 -224 90.5 -369.5t353.5 -145.5q244 0 425 181l146 -166q-114 -115 -263.5 -179.5t-317.5 -70.5l-14 -35q76 -15 113 -66t25 -125q-15 -96 -100.5 -153.5t-211.5 -57.5z" />
    <glyph glyph-name="Egrave" unicode="&#xc8;" 
d="M862 1848l284 -320h-264l-361 320h341zM1351 234l-37 -233h-1164l233 1469h1169l-37 -232h-910l-62 -390h824l-36 -230h-824l-61 -384h905z" />
    <glyph glyph-name="Eacute" unicode="&#xc9;" 
d="M1425 1848l-463 -320h-264l386 320h341zM1351 234l-37 -233h-1164l233 1469h1169l-37 -232h-910l-62 -390h824l-36 -230h-824l-61 -384h905z" />
    <glyph glyph-name="Ecircumflex" unicode="&#xca;" 
d="M945 1674l-199 -146h-256l379 320h208l277 -320h-256zM1351 234l-37 -233h-1164l233 1469h1169l-37 -232h-910l-62 -390h824l-36 -230h-824l-61 -384h905z" />
    <glyph glyph-name="Edieresis" unicode="&#xcb;" 
d="M739 1562q-55 0 -86.5 38.5t-23.5 94.5q9 56 52.5 94t99.5 38t88 -38t23 -94q-8 -55 -52.5 -94t-100.5 -39zM1115 1562q-55 0 -87 38.5t-24 94.5q9 56 53 94t100 38t87.5 -38t22.5 -94q-8 -55 -52.5 -94t-99.5 -39zM1351 234l-37 -233h-1164l233 1469h1169l-37 -232h-910
l-62 -390h824l-36 -230h-824l-61 -384h905z" />
    <glyph glyph-name="Igrave" unicode="&#xcc;" horiz-adv-x="976" 
d="M784 1848l284 -320h-264l-361 320h341zM964 1470l-233 -1469h-259l233 1469h259z" />
    <glyph glyph-name="Iacute" unicode="&#xcd;" horiz-adv-x="976" 
d="M1119 1848l-463 -320h-264l386 320h341zM735 1470l-233 -1469h-259l233 1469h259z" />
    <glyph glyph-name="Icircumflex" unicode="&#xce;" horiz-adv-x="1164" 
d="M847 1674l-199 -146h-256l379 320h208l277 -320h-256zM944 1470l-233 -1469h-260l233 1469h260z" />
    <glyph glyph-name="Idieresis" unicode="&#xcf;" horiz-adv-x="938" 
d="M528 1562q-55 0 -86.5 38.5t-23.5 94.5q9 56 52.5 94t99.5 38t88 -38t23 -94q-8 -55 -52.5 -94t-100.5 -39zM904 1562q-55 0 -87 38.5t-24 94.5q9 56 53 94t100 38t87.5 -38t22.5 -94q-8 -55 -52.5 -94t-99.5 -39zM831 1470l-233 -1469h-260l233 1469h260z" />
    <glyph glyph-name="Eth" unicode="&#xd0;" horiz-adv-x="1923" 
d="M982 1h-624l102 640h-208l34 217h208l97 612h624q227 0 397 -91q167 -95 239.5 -261.5t38.5 -380.5t-159 -385v-1q-131 -167 -326 -258.5t-423 -91.5zM1116 641h-397l-65 -407h353q165 0 300 64q132 63 216 177t107 262t-26 262q-49 116 -161.5 177.5t-276.5 61.5h-353
l-60 -380h397z" />
    <glyph glyph-name="Ntilde" unicode="&#xd1;" horiz-adv-x="1571" 
d="M1169 1535q-46 0 -86 21t-63.5 46.5t-50 46.5t-47.5 21q-37 0 -62 -32t-34 -93h-164q19 139 93.5 221t181.5 82q45 0 85 -21.5t64 -47.5t50 -47.5t46 -21.5q37 0 63.5 33.5t28.5 87.5h166q-14 -131 -90 -213.5t-181 -82.5zM568 1001l-159 -1000h-259l233 1469h208
l646 -999l158 999h259l-233 -1469h-207z" />
    <glyph glyph-name="Ograve" unicode="&#xd2;" horiz-adv-x="1859" 
d="M1113 1848l284 -320h-264l-361 320h341zM930 -14q-162 0 -297.5 55.5t-226.5 159.5q-93 104 -128.5 240.5t-10.5 295.5q51 319 308 535q124 104 276 158.5t316 54.5q163 0 296.5 -54t225.5 -157q92 -104 127 -241t10 -296q-52 -327 -307 -538q-253 -213 -589 -213z
M967 222q146 0 275.5 66.5t215.5 184.5t109 264q34 220 -90.5 366t-346.5 146q-148 0 -278.5 -66t-216.5 -183.5t-109 -262.5q-35 -223 90 -369t351 -146z" />
    <glyph glyph-name="Oacute" unicode="&#xd3;" horiz-adv-x="1859" 
d="M1677 1848l-463 -320h-264l386 320h341zM930 -14q-162 0 -297.5 55.5t-226.5 159.5q-93 104 -128.5 240.5t-10.5 295.5q51 319 308 535q124 104 276 158.5t316 54.5q163 0 296.5 -54t225.5 -157q92 -104 127 -241t10 -296q-52 -327 -307 -538q-253 -213 -589 -213z
M967 222q146 0 275.5 66.5t215.5 184.5t109 264q34 220 -90.5 366t-346.5 146q-148 0 -278.5 -66t-216.5 -183.5t-109 -262.5q-35 -223 90 -369t351 -146z" />
    <glyph glyph-name="Ocircumflex" unicode="&#xd4;" horiz-adv-x="1859" 
d="M1197 1674l-199 -146h-256l379 320h207l278 -320h-257zM930 -14q-162 0 -297.5 55.5t-226.5 159.5q-93 104 -128.5 240.5t-10.5 295.5q51 319 308 535q124 104 276 158.5t316 54.5q163 0 296.5 -54t225.5 -157q92 -104 127 -241t10 -296q-52 -327 -307 -538
q-253 -213 -589 -213zM967 222q146 0 275.5 66.5t215.5 184.5t109 264q34 220 -90.5 366t-346.5 146q-148 0 -278.5 -66t-216.5 -183.5t-109 -262.5q-35 -223 90 -369t351 -146z" />
    <glyph glyph-name="Otilde" unicode="&#xd5;" horiz-adv-x="1859" 
d="M1317 1535q-46 0 -86.5 21t-63.5 46.5t-49.5 46.5t-47.5 21q-37 0 -62 -32t-34 -93h-164q19 139 93 221t181 82q37 0 70 -14t56.5 -34.5t43.5 -41t39.5 -34.5t35.5 -14q38 0 64.5 33.5t28.5 87.5h165q-13 -131 -89 -213.5t-181 -82.5zM930 -14q-162 0 -297.5 55.5
t-226.5 159.5q-93 104 -128.5 240.5t-10.5 295.5q51 319 308 535q124 104 276 158.5t316 54.5q163 0 296.5 -54t225.5 -157q92 -104 127 -241t10 -296q-52 -327 -307 -538q-253 -213 -589 -213zM967 222q146 0 275.5 66.5t215.5 184.5t109 264q34 220 -90.5 366t-346.5 146
q-148 0 -278.5 -66t-216.5 -183.5t-109 -262.5q-35 -223 90 -369t351 -146z" />
    <glyph glyph-name="Odieresis" unicode="&#xd6;" horiz-adv-x="1859" 
d="M990 1562q-54 0 -85.5 38.5t-23.5 94.5q9 56 52.5 94t98.5 38q56 0 88.5 -38t23.5 -94q-8 -55 -53 -94t-101 -39zM1367 1562q-55 0 -87.5 38.5t-24.5 94.5q9 56 53.5 94t100.5 38q55 0 86.5 -38t22.5 -94q-8 -55 -52 -94t-99 -39zM930 -14q-162 0 -297.5 55.5
t-226.5 159.5q-93 104 -128.5 240.5t-10.5 295.5q51 319 308 535q124 104 276 158.5t316 54.5q163 0 296.5 -54t225.5 -157q92 -104 127 -241t10 -296q-52 -327 -307 -538q-253 -213 -589 -213zM967 222q146 0 275.5 66.5t215.5 184.5t109 264q34 220 -90.5 366t-346.5 146
q-148 0 -278.5 -66t-216.5 -183.5t-109 -262.5q-35 -223 90 -369t351 -146z" />
    <glyph glyph-name="multiply" unicode="&#xd7;" horiz-adv-x="1232" 
d="M929 315l-222 267l-308 -267l-120 159l302 263l-220 260l171 159l224 -267l306 267l124 -159l-302 -260l219 -263z" />
    <glyph glyph-name="Oslash" unicode="&#xd8;" horiz-adv-x="1859" 
d="M576 66l-180 -207h-227l267 308q-26 28 -30 34q-93 104 -128.5 240.5t-10.5 295.5q51 319 308 535q124 104 276 158.5t316 54.5q199 0 353 -80l180 207h228l-268 -307l12 -12q12 -12 17 -20q92 -103 127 -240t10 -296q-52 -327 -307 -538q-253 -213 -589 -213
q-199 0 -354 80zM615 371l729 832q-98 46 -214 46q-148 0 -278.5 -66t-216.5 -183.5t-109 -262.5q-35 -223 89 -366zM967 222q146 0 275.5 66.5t215.5 184.5t109 264q34 216 -87 362l-728 -833q99 -44 215 -44z" />
    <glyph glyph-name="Ugrave" unicode="&#xd9;" horiz-adv-x="1552" 
d="M960 1848l284 -320h-264l-361 320h341zM774 -14q-298 0 -435 171t-88 482l132 831h259l-131 -824q-67 -424 302 -424q187 0 295.5 105t142.5 319l131 824h253l-132 -831q-50 -312 -240 -482.5t-489 -170.5z" />
    <glyph glyph-name="Uacute" unicode="&#xda;" horiz-adv-x="1552" 
d="M1523 1848l-463 -320h-264l386 320h341zM774 -14q-298 0 -435 171t-88 482l132 831h259l-131 -824q-67 -424 302 -424q187 0 295.5 105t142.5 319l131 824h253l-132 -831q-50 -312 -240 -482.5t-489 -170.5z" />
    <glyph glyph-name="Ucircumflex" unicode="&#xdb;" horiz-adv-x="1552" 
d="M1043 1674l-199 -146h-256l379 320h208l277 -320h-256zM774 -14q-298 0 -435 171t-88 482l132 831h259l-131 -824q-67 -424 302 -424q187 0 295.5 105t142.5 319l131 824h253l-132 -831q-50 -312 -240 -482.5t-489 -170.5z" />
    <glyph glyph-name="Udieresis" unicode="&#xdc;" horiz-adv-x="1552" 
d="M837 1562q-55 0 -86.5 38.5t-23.5 94.5q9 56 52.5 94t99.5 38t88 -38t23 -94q-8 -55 -52.5 -94t-100.5 -39zM1213 1562q-55 0 -87 38.5t-24 94.5q9 56 53 94t100 38t87.5 -38t22.5 -94q-8 -55 -52.5 -94t-99.5 -39zM774 -14q-298 0 -435 171t-88 482l132 831h259
l-131 -824q-67 -424 302 -424q187 0 295.5 105t142.5 319l131 824h253l-132 -831q-50 -312 -240 -482.5t-489 -170.5z" />
    <glyph glyph-name="Yacute" unicode="&#xdd;" horiz-adv-x="1723" 
d="M1607 1848l-463 -320h-264l386 320h341zM1071 510l-81 -509h-257l81 513l-431 956h282l321 -716l553 716h267z" />
    <glyph glyph-name="Thorn" unicode="&#xde;" horiz-adv-x="1498" 
d="M449 253l-40 -252h-259l233 1469h259l-28 -173h321q190 0 319 -62q131 -65 186.5 -182.5t30.5 -275.5q-26 -161 -120 -280q-194 -244 -581 -244h-321zM892 1063h-315l-91 -578h315q178 0 283 74t127 214q23 143 -58 216.5t-261 73.5z" />
    <glyph glyph-name="germandbls" unicode="&#xdf;" horiz-adv-x="1450" 
d="M784 -10q-172 0 -258 44l76 220q80 -38 208 -38q88 0 151 28q135 56 158 197q17 105 -51.5 165.5t-206.5 60.5h-144l35 221q151 -5 247 59.5t115 182.5q16 100 -41.5 154.5t-176.5 54.5q-138 0 -223 -76t-108 -221l-165 -1041h-250l163 1025q29 180 116 299
q88 118 217 179.5t286 61.5q153 0 253 -55q103 -57 149.5 -154t27.5 -217q-15 -93 -66.5 -175t-132.5 -141q14 -5 30 -14q106 -53 151 -149t25 -224q-23 -143 -106 -241q-80 -99 -205 -152.5t-274 -53.5z" />
    <glyph glyph-name="agrave" unicode="&#xe0;" horiz-adv-x="1287" 
d="M798 1545l284 -321h-264l-360 321h340zM586 -14q-126 0 -221 40q-93 45 -135.5 126.5t-26.5 184.5q15 90 76 176q125 166 436 166h279l1 10q34 215 -208 215q-205 0 -265 -163l-199 122q63 131 193 201t308 70q234 0 344.5 -118.5t76.5 -332.5l-109 -688h-246l13 78
q-137 -87 -317 -87zM639 203q205 0 305 165l16 102h-275q-212 0 -233 -129q-11 -65 38.5 -101.5t148.5 -36.5z" />
    <glyph glyph-name="aacute" unicode="&#xe1;" horiz-adv-x="1287" 
d="M1362 1545l-463 -321h-264l386 321h341zM586 -14q-126 0 -221 40q-93 45 -135.5 126.5t-26.5 184.5q15 90 76 176q125 166 436 166h279l1 10q34 215 -208 215q-205 0 -265 -163l-199 122q63 131 193 201t308 70q234 0 344.5 -118.5t76.5 -332.5l-109 -688h-246l13 78
q-137 -87 -317 -87zM639 203q205 0 305 165l16 102h-275q-212 0 -233 -129q-11 -65 38.5 -101.5t148.5 -36.5z" />
    <glyph glyph-name="acircumflex" unicode="&#xe2;" horiz-adv-x="1287" 
d="M882 1371l-199 -147h-256l379 321h207l278 -321h-257zM586 -14q-126 0 -221 40q-93 45 -135.5 126.5t-26.5 184.5q15 90 76 176q125 166 436 166h279l1 10q34 215 -208 215q-205 0 -265 -163l-199 122q63 131 193 201t308 70q234 0 344.5 -118.5t76.5 -332.5l-109 -688
h-246l13 78q-137 -87 -317 -87zM639 203q205 0 305 165l16 102h-275q-212 0 -233 -129q-11 -65 38.5 -101.5t148.5 -36.5z" />
    <glyph glyph-name="atilde" unicode="&#xe3;" horiz-adv-x="1287" 
d="M1002 1232q-46 0 -86.5 21t-64 46t-50 46t-47.5 21q-77 0 -95 -124h-164q19 139 93.5 221t181.5 82q45 0 85 -21.5t64 -47.5t49.5 -47.5t45.5 -21.5q38 0 64.5 33.5t28.5 87.5h166q-14 -131 -90 -213.5t-181 -82.5zM586 -14q-126 0 -221 40q-93 45 -135.5 126.5
t-26.5 184.5q15 90 76 176q125 166 436 166h279l1 10q34 215 -208 215q-205 0 -265 -163l-199 122q63 131 193 201t308 70q234 0 344.5 -118.5t76.5 -332.5l-109 -688h-246l13 78q-137 -87 -317 -87zM639 203q205 0 305 165l16 102h-275q-212 0 -233 -129
q-11 -65 38.5 -101.5t148.5 -36.5z" />
    <glyph glyph-name="adieresis" unicode="&#xe4;" horiz-adv-x="1287" 
d="M676 1259q-55 0 -86.5 38t-23.5 94q9 56 53 94.5t99 38.5q56 0 88 -38.5t23 -94.5q-8 -55 -52.5 -93.5t-100.5 -38.5zM1052 1259q-55 0 -87.5 38t-24.5 94q9 56 53.5 94.5t100.5 38.5q55 0 86.5 -38.5t22.5 -94.5q-8 -55 -52 -93.5t-99 -38.5zM586 -14q-126 0 -221 40
q-93 45 -135.5 126.5t-26.5 184.5q15 90 76 176q125 166 436 166h279l1 10q34 215 -208 215q-205 0 -265 -163l-199 122q63 131 193 201t308 70q234 0 344.5 -118.5t76.5 -332.5l-109 -688h-246l13 78q-137 -87 -317 -87zM639 203q205 0 305 165l16 102h-275
q-212 0 -233 -129q-11 -65 38.5 -101.5t148.5 -36.5z" />
    <glyph glyph-name="aring" unicode="&#xe5;" horiz-adv-x="1287" 
d="M853 1199q-104 0 -166.5 72.5t-46.5 173.5q17 103 103 177.5t189 74.5q106 0 168 -73.5t45 -178.5q-17 -102 -102 -174t-190 -72zM875 1341q45 0 79 29.5t42 74.5q8 47 -16.5 76.5t-70.5 29.5t-78.5 -29.5t-40.5 -76.5q-8 -46 15.5 -75t69.5 -29zM586 -14q-126 0 -221 40
q-93 45 -135.5 126.5t-26.5 184.5q15 90 76 176q125 166 436 166h279l1 10q34 215 -208 215q-205 0 -265 -163l-199 122q63 131 193 201t308 70q234 0 344.5 -118.5t76.5 -332.5l-109 -688h-246l13 78q-137 -87 -317 -87zM639 203q205 0 305 165l16 102h-275
q-212 0 -233 -129q-11 -65 38.5 -101.5t148.5 -36.5z" />
    <glyph glyph-name="ae" unicode="&#xe6;" horiz-adv-x="2165" 
d="M592 -10q-203 0 -308 95.5t-80 255.5q13 85 72 163q124 167 437 167h279l2 12q18 113 -38 171.5t-181 58.5q-103 0 -203.5 -36t-165.5 -97l-80 198q98 76 229.5 118t271.5 42q285 0 376 -168q88 81 199.5 124.5t231.5 43.5q161 0 277.5 -72.5t168 -202.5t25.5 -293
q-11 -71 -33 -95h-853q3 -57 22 -96v-1q32 -78 107 -120t182 -42q194 0 332 144l120 -168q-92 -99 -218.5 -150.5t-275.5 -51.5q-134 0 -235 40q-131 50 -201 153q-18 -21 -36 -38q-167 -155 -424 -155zM1252 671h618q-1 51 -21 99q-33 69 -100 108t-152 39q-76 0 -159 -37
q-135 -68 -186 -209zM640 195q129 0 213 64t102 176l6 40h-271q-218 0 -237 -130q-11 -71 37.5 -110.5t149.5 -39.5z" />
    <glyph glyph-name="ccedilla" unicode="&#xe7;" horiz-adv-x="1367" 
d="M578 -450q-127 0 -207 62l89 151q61 -48 144 -48q86 0 93 52q4 26 -14 38t-65 12h-93l79 186q-85 18 -155 60q-126 77 -181 208t-29 293q27 165 124 296q98 131 246 204.5t314 73.5t279 -69.5t153 -198.5l-215 -124q-32 81 -97.5 123t-156.5 42q-94 0 -181 -44t-141 -122
t-71 -181q-17 -110 15 -186q33 -77 103 -119.5t165 -42.5q92 0 170.5 42.5t135.5 122.5l176 -124q-79 -123 -208 -192.5t-283 -74.5l-15 -38q76 -15 113 -66t25 -125q-15 -96 -100.5 -153.5t-211.5 -57.5z" />
    <glyph glyph-name="egrave" unicode="&#xe8;" horiz-adv-x="1423" 
d="M506 1545h340l284 -321h-264zM1361 558q-2 -19 -21 -86h-858q10 -121 93.5 -188.5t219.5 -67.5q193 0 330 144l118 -169q-92 -98 -218.5 -149.5t-273.5 -51.5q-179 0 -301 73q-127 76 -182 206.5t-29 294.5q25 162 122 296q95 132 235.5 205t298.5 73q162 0 278 -73
t165.5 -205.5t22.5 -301.5zM513 667h619q-1 38 -19 93q-64 157 -253 157q-93 0 -170 -40q-129 -70 -177 -210zM481 480v-4v4z" />
    <glyph glyph-name="eacute" unicode="&#xe9;" horiz-adv-x="1423" 
d="M683 1224l386 321h341l-463 -321h-264zM1361 558q-2 -19 -21 -86h-858q10 -121 93.5 -188.5t219.5 -67.5q193 0 330 144l118 -169q-92 -98 -218.5 -149.5t-273.5 -51.5q-179 0 -301 73q-127 76 -182 206.5t-29 294.5q25 162 122 296q95 132 235.5 205t298.5 73
q162 0 278 -73t165.5 -205.5t22.5 -301.5zM513 667h619q-1 38 -19 93q-64 157 -253 157q-93 0 -170 -40q-129 -70 -177 -210zM481 480v-4v4z" />
    <glyph glyph-name="ecircumflex" unicode="&#xea;" horiz-adv-x="1423" 
d="M1339 1224h-257l-152 147l-199 -147h-256l379 321h207zM1361 558q-2 -19 -21 -86h-858q10 -121 93.5 -188.5t219.5 -67.5q193 0 330 144l118 -169q-92 -98 -218.5 -149.5t-273.5 -51.5q-179 0 -301 73q-127 76 -182 206.5t-29 294.5q25 162 122 296q95 132 235.5 205
t298.5 73q162 0 278 -73t165.5 -205.5t22.5 -301.5zM513 667h619q-1 38 -19 93q-64 157 -253 157q-93 0 -170 -40q-129 -70 -177 -210zM481 480v-4v4z" />
    <glyph glyph-name="edieresis" unicode="&#xeb;" horiz-adv-x="1423" 
d="M724 1259q-55 0 -86.5 38t-23.5 94q9 56 53 94.5t99 38.5q56 0 88 -38.5t23 -94.5q-8 -55 -52.5 -93.5t-100.5 -38.5zM1100 1259q-55 0 -87.5 38t-24.5 94q9 56 53.5 94.5t100.5 38.5q55 0 86.5 -38.5t22.5 -94.5q-8 -55 -52 -93.5t-99 -38.5zM1361 558q-2 -19 -21 -86
h-858q10 -121 93.5 -188.5t219.5 -67.5q193 0 330 144l118 -169q-92 -98 -218.5 -149.5t-273.5 -51.5q-179 0 -301 73q-127 76 -182 206.5t-29 294.5q25 162 122 296q95 132 235.5 205t298.5 73q162 0 278 -73t165.5 -205.5t22.5 -301.5zM513 667h619q-1 38 -19 93
q-64 157 -253 157q-93 0 -170 -40q-129 -70 -177 -210zM481 480v-4v4z" />
    <glyph glyph-name="igrave" unicode="&#xec;" horiz-adv-x="976" 
d="M736 1545l284 -321h-264l-361 321h341zM906 1128l-179 -1127h-249l179 1127h249z" />
    <glyph glyph-name="iacute" unicode="&#xed;" horiz-adv-x="976" 
d="M1071 1545l-463 -321h-264l386 321h341zM677 1128l-179 -1127h-249l179 1127h249z" />
    <glyph glyph-name="icircumflex" unicode="&#xee;" horiz-adv-x="1045" 
d="M738 1362l-155 -138h-239l319 321h208l218 -321h-240zM826 1128l-179 -1127h-250l179 1127h250z" />
    <glyph glyph-name="idieresis" unicode="&#xef;" horiz-adv-x="845" 
d="M479 1261q-54 0 -85.5 37.5t-23.5 92.5q9 55 52.5 93t97.5 38q55 0 85.5 -37.5t21.5 -93.5q-8 -55 -50.5 -92.5t-97.5 -37.5zM767 1261q-55 0 -86 37.5t-23 92.5q9 56 52 93.5t98 37.5q54 0 85 -38t22 -93q-8 -55 -51 -92.5t-97 -37.5zM727 1128l-179 -1127h-250
l179 1127h250z" />
    <glyph glyph-name="eth" unicode="&#xf0;" horiz-adv-x="1479" 
d="M1435 1496l44 -182l-109 -41q127 -207 74 -548q-34 -221 -138 -390q-104 -171 -262 -260t-358 -89q-156 0 -263 58q-118 62 -169.5 171.5t-29.5 250.5q22 144 114 254q88 107 220 165.5t286 58.5q126 0 215 -43q72 -36 144 -101q19 162 -15 268q-25 66 -63 111l-583 -219
l-48 180l406 154q-41 7 -93 7q-176 0 -324 -56l-6 223q159 54 365 54q222 0 368 -90l21 -12zM917 245q73 36 119.5 94t57.5 127q10 67 -17 130q-66 127 -249 127q-142 0 -236.5 -69.5t-113.5 -187.5l-2 -11q-12 -115 58.5 -181.5t199.5 -66.5q104 0 183 38z" />
    <glyph glyph-name="ntilde" unicode="&#xf1;" horiz-adv-x="1372" 
d="M1023 1232q-37 0 -70.5 14t-56.5 33.5t-43.5 39t-40 33.5t-37.5 14q-77 0 -95 -124h-164q19 139 93.5 221t181.5 82q45 0 85 -21.5t64 -47.5t50 -47.5t46 -21.5q38 0 64 33.5t29 87.5h165q-14 -131 -90 -213.5t-181 -82.5zM492 581l-92 -580h-250l179 1127h242l-19 -115
q154 125 377 125q138 0 235 -53q104 -56 144.5 -168.5t15.5 -272.5l-102 -643h-252l99 622q44 283 -215 283q-94 0 -173 -38q-156 -76 -189 -287z" />
    <glyph glyph-name="ograve" unicode="&#xf2;" 
d="M868 1545l284 -321h-264l-361 321h341zM734 -10q-169 0 -289 73q-123 77 -177 209t-29 292q27 165 124 296q99 133 243.5 205.5t309.5 72.5q167 0 288 -73q125 -75 177.5 -205t26.5 -296q-26 -165 -121 -297q-97 -131 -243 -204t-310 -73zM770 216q93 0 179 42
q83 45 136.5 124.5t69.5 181.5t-12 186q-33 77 -101 119t-162 42q-89 0 -177 -44q-85 -45 -139 -123.5t-71 -179.5q-16 -105 15 -184q34 -79 101.5 -121.5t160.5 -42.5z" />
    <glyph glyph-name="oacute" unicode="&#xf3;" 
d="M1431 1545l-463 -321h-264l386 321h341zM734 -10q-169 0 -289 73q-123 77 -177 209t-29 292q27 165 124 296q99 133 243.5 205.5t309.5 72.5q167 0 288 -73q125 -75 177.5 -205t26.5 -296q-26 -165 -121 -297q-97 -131 -243 -204t-310 -73zM770 216q93 0 179 42
q83 45 136.5 124.5t69.5 181.5t-12 186q-33 77 -101 119t-162 42q-89 0 -177 -44q-85 -45 -139 -123.5t-71 -179.5q-16 -105 15 -184q34 -79 101.5 -121.5t160.5 -42.5z" />
    <glyph glyph-name="ocircumflex" unicode="&#xf4;" 
d="M951 1371l-199 -147h-256l379 321h208l277 -321h-256zM734 -10q-169 0 -289 73q-123 77 -177 209t-29 292q27 165 124 296q99 133 243.5 205.5t309.5 72.5q167 0 288 -73q125 -75 177.5 -205t26.5 -296q-26 -165 -121 -297q-97 -131 -243 -204t-310 -73zM770 216
q93 0 179 42q83 45 136.5 124.5t69.5 181.5t-12 186q-33 77 -101 119t-162 42q-89 0 -177 -44q-85 -45 -139 -123.5t-71 -179.5q-16 -105 15 -184q34 -79 101.5 -121.5t160.5 -42.5z" />
    <glyph glyph-name="otilde" unicode="&#xf5;" 
d="M1071 1232q-37 0 -70.5 14t-56.5 33.5t-43.5 39t-40 33.5t-37.5 14q-77 0 -95 -124h-164q19 139 93.5 221t181.5 82q45 0 85 -21.5t64 -47.5t50 -47.5t46 -21.5q38 0 64 33.5t29 87.5h165q-14 -131 -90 -213.5t-181 -82.5zM734 -10q-169 0 -289 73q-123 77 -177 209
t-29 292q27 165 124 296q99 133 243.5 205.5t309.5 72.5q167 0 288 -73q125 -75 177.5 -205t26.5 -296q-26 -165 -121 -297q-97 -131 -243 -204t-310 -73zM770 216q93 0 179 42q83 45 136.5 124.5t69.5 181.5t-12 186q-33 77 -101 119t-162 42q-89 0 -177 -44
q-85 -45 -139 -123.5t-71 -179.5q-16 -105 15 -184q34 -79 101.5 -121.5t160.5 -42.5z" />
    <glyph glyph-name="odieresis" unicode="&#xf6;" 
d="M745 1259q-55 0 -86.5 38t-23.5 94q9 56 53 94.5t99 38.5q56 0 88 -38.5t23 -94.5q-8 -55 -52.5 -93.5t-100.5 -38.5zM1121 1259q-55 0 -87 38t-24 94q9 56 53 94.5t100 38.5t87.5 -38.5t22.5 -94.5q-8 -55 -52.5 -93.5t-99.5 -38.5zM734 -10q-169 0 -289 73
q-123 77 -177 209t-29 292q27 165 124 296q99 133 243.5 205.5t309.5 72.5q167 0 288 -73q125 -75 177.5 -205t26.5 -296q-26 -165 -121 -297q-97 -131 -243 -204t-310 -73zM770 216q93 0 179 42q83 45 136.5 124.5t69.5 181.5t-12 186q-33 77 -101 119t-162 42
q-89 0 -177 -44q-85 -45 -139 -123.5t-71 -179.5q-16 -105 15 -184q34 -79 101.5 -121.5t160.5 -42.5z" />
    <glyph glyph-name="divide" unicode="&#xf7;" horiz-adv-x="1376" 
d="M845 982q-60 0 -95.5 44t-25.5 106q11 65 58.5 107.5t109.5 42.5q61 0 95.5 -43t24.5 -107q-10 -62 -59 -106t-108 -44zM1302 842l-34 -215h-962l34 215h962zM719 189q-61 0 -96 43.5t-24 108.5q10 64 57.5 106t109.5 42q60 0 95.5 -42.5t25.5 -105.5q-10 -64 -59 -108
t-109 -44z" />
    <glyph glyph-name="oslash" unicode="&#xf8;" 
d="M489 40l-149 -183h-189l217 267q-83 82 -116 195t-13 245q27 165 124 296q99 133 243.5 205.5t309.5 72.5q136 0 241 -48l144 175h188l-209 -257q83 -79 116.5 -193.5t11.5 -250.5q-26 -165 -121 -297q-97 -131 -243 -204t-310 -73q-139 0 -245 50zM536 329l459 563
q-50 19 -115 19q-89 0 -177 -44q-85 -45 -139 -123.5t-71 -179.5q-16 -105 15 -184q6 -15 28 -51zM770 216q93 0 179 42q83 45 136.5 124.5t69.5 181.5q16 103 -12 185q-15 31 -31 54l-460 -566q52 -21 118 -21z" />
    <glyph glyph-name="ugrave" unicode="&#xf9;" horiz-adv-x="1364" 
d="M818 1545l284 -321h-264l-361 321h341zM638 -10q-149 0 -244 52q-108 55 -150.5 168t-17.5 273l103 645h252l-99 -622q-23 -141 31.5 -213.5t182.5 -72.5q90 0 168 38q152 77 184 288l93 582h252l-179 -1127h-240l18 113q-152 -124 -354 -124z" />
    <glyph glyph-name="uacute" unicode="&#xfa;" horiz-adv-x="1364" 
d="M1381 1545l-463 -321h-264l386 321h341zM638 -10q-149 0 -244 52q-108 55 -150.5 168t-17.5 273l103 645h252l-99 -622q-23 -141 31.5 -213.5t182.5 -72.5q90 0 168 38q152 77 184 288l93 582h252l-179 -1127h-240l18 113q-152 -124 -354 -124z" />
    <glyph glyph-name="ucircumflex" unicode="&#xfb;" horiz-adv-x="1364" 
d="M901 1371l-199 -147h-256l379 321h208l277 -321h-256zM638 -10q-149 0 -244 52q-108 55 -150.5 168t-17.5 273l103 645h252l-99 -622q-23 -141 31.5 -213.5t182.5 -72.5q90 0 168 38q152 77 184 288l93 582h252l-179 -1127h-240l18 113q-152 -124 -354 -124z" />
    <glyph glyph-name="udieresis" unicode="&#xfc;" horiz-adv-x="1364" 
d="M695 1259q-55 0 -86.5 38t-23.5 94q9 56 53 94.5t99 38.5q56 0 88 -38.5t23 -94.5q-8 -55 -52.5 -93.5t-100.5 -38.5zM1071 1259q-55 0 -87 38t-24 94q9 56 53 94.5t100 38.5t87.5 -38.5t22.5 -94.5q-8 -55 -52.5 -93.5t-99.5 -38.5zM638 -10q-149 0 -244 52
q-108 55 -150.5 168t-17.5 273l103 645h252l-99 -622q-23 -141 31.5 -213.5t182.5 -72.5q90 0 168 38q152 77 184 288l93 582h252l-179 -1127h-240l18 113q-152 -124 -354 -124z" />
    <glyph glyph-name="yacute" unicode="&#xfd;" horiz-adv-x="1521" 
d="M1431 1545l-463 -321h-264l386 321h341zM1550 1128l-977 -1634h-257l324 538l-311 1096h265l224 -812l479 812h253z" />
    <glyph glyph-name="thorn" unicode="&#xfe;" horiz-adv-x="1464" 
d="M419 118l-81 -508h-250l308 1944h250l-86 -542q156 126 365 126q165 0 282 -73q120 -74 171 -204.5t25 -296.5q-25 -165 -122 -301q-97 -131 -237 -202t-301 -71q-145 0 -245 65q-44 26 -79 63zM762 216q94 0 179 42q84 45 138 124t70 182q18 109 -12 185
q-34 79 -102 120.5t-163 41.5q-89 0 -173 -44q-87 -44 -141 -122t-71 -181q-16 -101 17 -184q31 -78 98 -121t160 -43z" />
    <glyph glyph-name="ydieresis" unicode="&#xff;" horiz-adv-x="1521" 
d="M744 1259q-55 0 -86 38t-23 94q9 56 52.5 94.5t98.5 38.5q56 0 88.5 -38.5t23.5 -94.5q-8 -55 -53 -93.5t-101 -38.5zM1121 1259q-55 0 -87.5 38t-24.5 94q9 56 53.5 94.5t100.5 38.5q55 0 86.5 -38.5t22.5 -94.5q-8 -55 -52 -93.5t-99 -38.5zM1550 1128l-977 -1634h-257
l324 538l-311 1096h265l224 -812l479 812h253z" />
    <glyph glyph-name="Amacron" unicode="&#x100;" horiz-adv-x="1870" 
d="M1572 1777l-28 -178h-714l28 178h714zM652 387l-230 -386h-272l899 1469h236l435 -1469h-277l-108 386h-683zM1274 606l-157 559l-334 -559h491z" />
    <glyph glyph-name="amacron" unicode="&#x101;" horiz-adv-x="1287" 
d="M1255 1474l-28 -179h-714l28 179h714zM586 -14q-126 0 -221 40q-93 45 -135.5 126.5t-26.5 184.5q15 90 76 176q125 166 436 166h279l1 10q34 215 -208 215q-205 0 -265 -163l-199 122q63 131 193 201t308 70q234 0 344.5 -118.5t76.5 -332.5l-109 -688h-246l13 78
q-137 -87 -317 -87zM639 203q205 0 305 165l16 102h-275q-212 0 -233 -129q-11 -65 38.5 -101.5t148.5 -36.5z" />
    <glyph glyph-name="Abreve" unicode="&#x102;" horiz-adv-x="1870" 
d="M1174 1516q-163 0 -248 92.5t-54 239.5h189q-19 -70 21 -115.5t119 -45.5q82 0 137 46t54 115h190q-16 -147 -130.5 -239.5t-277.5 -92.5zM652 387l-230 -386h-272l899 1469h236l435 -1469h-277l-108 386h-683zM1274 606l-157 559l-334 -559h491z" />
    <glyph glyph-name="abreve" unicode="&#x103;" horiz-adv-x="1287" 
d="M857 1213q-163 0 -248 92.5t-54 239.5h189q-19 -70 20.5 -115.5t119.5 -45.5q81 0 136.5 46t54.5 115h190q-16 -147 -130.5 -239.5t-277.5 -92.5zM586 -14q-126 0 -221 40q-93 45 -135.5 126.5t-26.5 184.5q15 90 76 176q125 166 436 166h279l1 10q34 215 -208 215
q-205 0 -265 -163l-199 122q63 131 193 201t308 70q234 0 344.5 -118.5t76.5 -332.5l-109 -688h-246l13 78q-137 -87 -317 -87zM639 203q205 0 305 165l16 102h-275q-212 0 -233 -129q-11 -65 38.5 -101.5t148.5 -36.5z" />
    <glyph glyph-name="Aogonek" unicode="&#x104;" horiz-adv-x="1904" 
d="M1468 -450q-123 0 -187 63.5t-48 168.5q5 25 11 43q32 116 188 216l-97 346h-683l-230 -386h-272l899 1469h236l432 -1454q-132 -55 -176 -88q-99 -63 -109 -132q-6 -34 16 -54.5t66 -20.5q79 0 146 47l33 -152q-92 -66 -225 -66zM1274 606l-157 559l-334 -559h491z" />
    <glyph glyph-name="aogonek" unicode="&#x105;" horiz-adv-x="1337" 
d="M901 -450q-123 0 -187 63.5t-48 168.5q8 42 30 87q48 103 205 195l2 9q-137 -87 -317 -87q-126 0 -221 40q-93 45 -135.5 126.5t-26.5 184.5q15 90 76 176q125 166 436 166h279l1 10q34 215 -208 215q-205 0 -265 -163l-199 122q63 131 193 201t308 70
q234 0 344.5 -118.5t76.5 -332.5l-109 -688h-34q-84 -36 -128 -67q-99 -63 -109 -132q-6 -34 16 -54.5t66 -20.5q79 0 146 47l33 -152q-92 -66 -225 -66zM639 203q205 0 305 165l16 102h-275q-212 0 -233 -129q-11 -65 38.5 -101.5t148.5 -36.5z" />
    <glyph glyph-name="Cacute" unicode="&#x106;" horiz-adv-x="1653" 
d="M1658 1848l-463 -320h-264l386 320h341zM924 -14q-165 0 -297.5 55t-220.5 159q-93 104 -128.5 241.5t-10.5 295.5q51 322 309 537q122 103 272.5 157t314.5 54q181 0 318.5 -64t217.5 -185l-198 -166q-126 179 -368 179q-227 0 -399.5 -145t-207.5 -367
q-35 -224 90.5 -369.5t353.5 -145.5q244 0 425 181l146 -166q-119 -121 -278.5 -186t-338.5 -65z" />
    <glyph glyph-name="cacute" unicode="&#x107;" horiz-adv-x="1367" 
d="M1402 1545l-463 -321h-264l386 321h341zM741 -10q-171 0 -292 73q-126 77 -181 208t-29 293q27 165 124 296q98 131 246 204.5t314 73.5t279 -69.5t153 -198.5l-215 -124q-32 81 -97.5 123t-156.5 42q-94 0 -181 -44t-141 -122t-71 -181q-17 -110 15 -186
q33 -77 103 -119.5t165 -42.5q92 0 170.5 42.5t135.5 122.5l176 -124q-82 -127 -218.5 -197t-298.5 -70z" />
    <glyph glyph-name="Ccircumflex" unicode="&#x108;" horiz-adv-x="1653" 
d="M1177 1674l-198 -146h-257l380 320h207l277 -320h-256zM924 -14q-165 0 -297.5 55t-220.5 159q-93 104 -128.5 241.5t-10.5 295.5q51 322 309 537q122 103 272.5 157t314.5 54q181 0 318.5 -64t217.5 -185l-198 -166q-126 179 -368 179q-227 0 -399.5 -145t-207.5 -367
q-35 -224 90.5 -369.5t353.5 -145.5q244 0 425 181l146 -166q-119 -121 -278.5 -186t-338.5 -65z" />
    <glyph glyph-name="ccircumflex" unicode="&#x109;" horiz-adv-x="1367" 
d="M922 1371l-199 -147h-256l379 321h208l277 -321h-256zM741 -10q-171 0 -292 73q-126 77 -181 208t-29 293q27 165 124 296q98 131 246 204.5t314 73.5t279 -69.5t153 -198.5l-215 -124q-32 81 -97.5 123t-156.5 42q-94 0 -181 -44t-141 -122t-71 -181q-17 -110 15 -186
q33 -77 103 -119.5t165 -42.5q92 0 170.5 42.5t135.5 122.5l176 -124q-82 -127 -218.5 -197t-298.5 -70z" />
    <glyph glyph-name="Cdotaccent" unicode="&#x10a;" horiz-adv-x="1653" 
d="M1160 1564q-61 0 -97.5 43.5t-26.5 104.5q10 62 60 105t111 43q62 0 98 -43t26 -105t-60 -105t-111 -43zM924 -14q-165 0 -297.5 55t-220.5 159q-93 104 -128.5 241.5t-10.5 295.5q51 322 309 537q122 103 272.5 157t314.5 54q181 0 318.5 -64t217.5 -185l-198 -166
q-126 179 -368 179q-227 0 -399.5 -145t-207.5 -367q-35 -224 90.5 -369.5t353.5 -145.5q244 0 425 181l146 -166q-119 -121 -278.5 -186t-338.5 -65z" />
    <glyph glyph-name="cdotaccent" unicode="&#x10b;" horiz-adv-x="1367" 
d="M905 1261q-62 0 -98.5 43.5t-26.5 104.5t59.5 104t111.5 43t98.5 -42.5t26.5 -104.5t-60 -105t-111 -43zM741 -10q-171 0 -292 73q-126 77 -181 208t-29 293q27 165 124 296q98 131 246 204.5t314 73.5t279 -69.5t153 -198.5l-215 -124q-32 81 -97.5 123t-156.5 42
q-94 0 -181 -44t-141 -122t-71 -181q-17 -110 15 -186q33 -77 103 -119.5t165 -42.5q92 0 170.5 42.5t135.5 122.5l176 -124q-82 -127 -218.5 -197t-298.5 -70z" />
    <glyph glyph-name="Ccaron" unicode="&#x10c;" horiz-adv-x="1653" 
d="M1637 1848l-379 -320h-207l-278 320h257l152 -145l199 145h256zM924 -14q-165 0 -297.5 55t-220.5 159q-93 104 -128.5 241.5t-10.5 295.5q51 322 309 537q122 103 272.5 157t314.5 54q181 0 318.5 -64t217.5 -185l-198 -166q-126 179 -368 179q-227 0 -399.5 -145
t-207.5 -367q-35 -224 90.5 -369.5t353.5 -145.5q244 0 425 181l146 -166q-119 -121 -278.5 -186t-338.5 -65z" />
    <glyph glyph-name="ccaron" unicode="&#x10d;" horiz-adv-x="1367" 
d="M1382 1545l-379 -321h-208l-277 321h256l153 -145l199 145h256zM741 -10q-171 0 -292 73q-126 77 -181 208t-29 293q27 165 124 296q98 131 246 204.5t314 73.5t279 -69.5t153 -198.5l-215 -124q-32 81 -97.5 123t-156.5 42q-94 0 -181 -44t-141 -122t-71 -181
q-17 -110 15 -186q33 -77 103 -119.5t165 -42.5q92 0 170.5 42.5t135.5 122.5l176 -124q-82 -127 -218.5 -197t-298.5 -70z" />
    <glyph glyph-name="Dcaron" unicode="&#x10e;" horiz-adv-x="1715" 
d="M1456 1846l-378 -320h-208l-278 320h256l153 -145l199 145h256zM774 1h-624l233 1469h624q228 0 398 -91q167 -95 239 -261.5t38 -380.5q-35 -216 -159 -385v-1q-131 -167 -326 -258.5t-423 -91.5zM959 1238h-354l-159 -1004h354q165 0 300 64q132 63 216 177t107 262
t-26 262q-49 116 -161.5 177.5t-276.5 61.5z" />
    <glyph glyph-name="dcaron" unicode="&#x10f;" horiz-adv-x="1805" 
d="M1912 1622l-99 -448h-190l71 448h218zM718 -10q-166 0 -278 71q-122 76 -174.5 207t-26.5 296q27 167 123 300q98 131 238 202.5t300 71.5q141 0 248 -65q45 -28 76 -62l73 459h252l-233 -1469h-244l19 120q-157 -131 -373 -131zM770 216q91 0 175 42q85 46 139.5 125
t70.5 181t-12 186q-35 77 -103 119t-160 42q-89 0 -177 -44q-85 -45 -139 -123.5t-71 -179.5q-16 -105 15 -184q34 -79 101.5 -121.5t160.5 -42.5z" />
    <glyph glyph-name="Dcroat" unicode="&#x110;" horiz-adv-x="1923" 
d="M982 1h-624l102 640h-208l34 217h208l97 612h624q227 0 397 -91q167 -95 239.5 -261.5t38.5 -380.5t-159 -385v-1q-131 -167 -326 -258.5t-423 -91.5zM1116 641h-397l-65 -407h353q165 0 300 64q132 63 216 177t107 262t-26 262q-49 116 -161.5 177.5t-276.5 61.5h-353
l-60 -380h397z" />
    <glyph glyph-name="dcroat" unicode="&#x111;" horiz-adv-x="1648" 
d="M718 -10q-166 0 -278 71q-122 76 -174.5 207t-26.5 296q27 167 123 300q98 131 238 202.5t300 71.5q141 0 248 -65q45 -28 76 -62l32 202h-422l31 196h422l10 61h252l-10 -61h182l-31 -196h-182l-192 -1212h-244l19 120q-157 -131 -373 -131zM770 216q91 0 175 42
q85 46 139.5 125t70.5 181t-12 186q-35 77 -103 119t-160 42q-89 0 -177 -44q-85 -45 -139 -123.5t-71 -179.5q-16 -105 15 -184q34 -79 101.5 -121.5t160.5 -42.5z" />
    <glyph glyph-name="Emacron" unicode="&#x112;" 
d="M1318 1777l-28 -178h-714l28 178h714zM1351 234l-37 -233h-1164l233 1469h1169l-37 -232h-910l-62 -390h824l-36 -230h-824l-61 -384h905z" />
    <glyph glyph-name="emacron" unicode="&#x113;" horiz-adv-x="1423" 
d="M561 1295l28 179h714l-28 -179h-714zM1361 558q-2 -19 -21 -86h-858q10 -121 93.5 -188.5t219.5 -67.5q193 0 330 144l118 -169q-92 -98 -218.5 -149.5t-273.5 -51.5q-179 0 -301 73q-127 76 -182 206.5t-29 294.5q25 162 122 296q95 132 235.5 205t298.5 73
q162 0 278 -73t165.5 -205.5t22.5 -301.5zM513 667h619q-1 38 -19 93q-64 157 -253 157q-93 0 -170 -40q-129 -70 -177 -210zM481 480v-4v4z" />
    <glyph glyph-name="Ebreve" unicode="&#x114;" 
d="M920 1516q-163 0 -248 92.5t-54 239.5h189q-19 -70 21 -115.5t119 -45.5q82 0 137 46t54 115h190q-16 -147 -130.5 -239.5t-277.5 -92.5zM1351 234l-37 -233h-1164l233 1469h1169l-37 -232h-910l-62 -390h824l-36 -230h-824l-61 -384h905z" />
    <glyph glyph-name="ebreve" unicode="&#x115;" horiz-adv-x="1423" 
d="M905 1213q-163 0 -248 92.5t-54 239.5h189q-19 -70 20.5 -115.5t119.5 -45.5q81 0 136.5 46t54.5 115h190q-16 -147 -130.5 -239.5t-277.5 -92.5zM1361 558q-2 -19 -21 -86h-858q10 -121 93.5 -188.5t219.5 -67.5q193 0 330 144l118 -169q-92 -98 -218.5 -149.5
t-273.5 -51.5q-179 0 -301 73q-127 76 -182 206.5t-29 294.5q25 162 122 296q95 132 235.5 205t298.5 73q162 0 278 -73t165.5 -205.5t22.5 -301.5zM513 667h619q-1 38 -19 93q-64 157 -253 157q-93 0 -170 -40q-129 -70 -177 -210zM481 480v-4v4z" />
    <glyph glyph-name="Edotaccent" unicode="&#x116;" 
d="M928 1564q-61 0 -98 43.5t-27 104.5t60 104.5t112 43.5t98 -43t26 -105t-60 -105t-111 -43zM1351 234l-37 -233h-1164l233 1469h1169l-37 -232h-910l-62 -390h824l-36 -230h-824l-61 -384h905z" />
    <glyph glyph-name="edotaccent" unicode="&#x117;" horiz-adv-x="1423" 
d="M913 1261q-62 0 -98.5 43.5t-26.5 104.5q10 62 59.5 104.5t111.5 42.5t98.5 -43t26.5 -104t-60 -104.5t-111 -43.5zM1361 558q-2 -19 -21 -86h-858q10 -121 93.5 -188.5t219.5 -67.5q193 0 330 144l118 -169q-92 -98 -218.5 -149.5t-273.5 -51.5q-179 0 -301 73
q-127 76 -182 206.5t-29 294.5q25 162 122 296q95 132 235.5 205t298.5 73q162 0 278 -73t165.5 -205.5t22.5 -301.5zM513 667h619q-1 38 -19 93q-64 157 -253 157q-93 0 -170 -40q-129 -70 -177 -210zM481 480v-4v4z" />
    <glyph glyph-name="Eogonek" unicode="&#x118;" 
d="M997 -450q-123 0 -187 63.5t-48 168.5q10 60 50 122q31 49 93 97h-755l233 1469h1169l-37 -232h-910l-62 -390h824l-36 -230h-824l-61 -384h905l-37 -233h-103q-98 -43 -141 -73q-99 -63 -109 -132q-6 -34 16 -54.5t66 -20.5q79 0 146 47l33 -152q-92 -66 -225 -66z" />
    <glyph glyph-name="eogonek" unicode="&#x119;" horiz-adv-x="1423" 
d="M1361 558q-2 -19 -21 -86h-858q10 -121 93.5 -188.5t219.5 -67.5q193 0 330 144l117 -166q-25 -37 -66 -62q-36 -26 -43 -34q-114 -85 -157 -129q-98 -94 -110 -167q-7 -39 14.5 -60t68.5 -21q36 0 79.5 15t63.5 35l37 -155q-100 -66 -226 -66q-121 0 -185.5 66
t-47.5 174q15 101 97 200h-16q-179 0 -301 73q-127 76 -182 206.5t-29 294.5q25 162 122 296q95 132 235.5 205t298.5 73q162 0 278 -73t165.5 -205.5t22.5 -301.5zM513 667h619q-1 38 -19 93q-64 157 -253 157q-93 0 -170 -40q-129 -70 -177 -210zM481 480v-4v4z" />
    <glyph glyph-name="Ecaron" unicode="&#x11a;" 
d="M1405 1848l-379 -320h-208l-277 320h256l153 -145l199 145h256zM1351 234l-37 -233h-1164l233 1469h1169l-37 -232h-910l-62 -390h824l-36 -230h-824l-61 -384h905z" />
    <glyph glyph-name="ecaron" unicode="&#x11b;" horiz-adv-x="1423" 
d="M1133 1545h257l-380 -321h-207l-277 321h256l153 -145zM1361 558q-2 -19 -21 -86h-858q10 -121 93.5 -188.5t219.5 -67.5q193 0 330 144l118 -169q-92 -98 -218.5 -149.5t-273.5 -51.5q-179 0 -301 73q-127 76 -182 206.5t-29 294.5q25 162 122 296q95 132 235.5 205
t298.5 73q162 0 278 -73t165.5 -205.5t22.5 -301.5zM513 667h619q-1 38 -19 93q-64 157 -253 157q-93 0 -170 -40q-129 -70 -177 -210zM481 480v-4v4z" />
    <glyph glyph-name="Gcircumflex" unicode="&#x11c;" horiz-adv-x="1668" 
d="M1176 1674l-199 -146h-256l379 320h207l278 -320h-257zM930 -14q-166 0 -300.5 54.5t-223.5 158.5q-191 211 -139 538q25 158 104.5 295.5t206.5 241.5q122 103 274 157t318 54q186 0 325 -63t219 -184l-190 -164q-135 175 -383 175q-232 0 -406 -144.5t-209 -367.5
q-36 -224 91.5 -369.5t358.5 -145.5q171 0 317 78l50 318h-455l36 230h704l-105 -668q-118 -92 -273.5 -143t-319.5 -51z" />
    <glyph glyph-name="gcircumflex" unicode="&#x11d;" horiz-adv-x="1487" 
d="M974 1371l-199 -147h-256l379 321h208l277 -321h-256zM647 -404q-179 0 -303.5 65t-182.5 189l229 163q54 -181 296 -181q328 0 418 329q-163 -116 -375 -116q-160 0 -279 71q-122 71 -176.5 196t-29.5 281q26 161 123 288q96 123 235 190t300 67q144 0 253 -59
q51 -27 89 -65l13 87h254l-135 -852q-49 -312 -239.5 -482.5t-489.5 -170.5zM786 272q99 0 184 41q84 41 137 114t68 166q15 98 -16 165q-69 153 -272 153q-98 0 -182 -39q-85 -42 -139 -114.5t-68 -164.5q-16 -98 17 -167q33 -74 103.5 -114t167.5 -40z" />
    <glyph glyph-name="Gbreve" unicode="&#x11e;" horiz-adv-x="1668" 
d="M1151 1516q-163 0 -248.5 92.5t-54.5 239.5h189q-19 -70 21 -115.5t120 -45.5q81 0 136.5 46t54.5 115h190q-17 -147 -131 -239.5t-277 -92.5zM930 -14q-166 0 -300.5 54.5t-223.5 158.5q-191 211 -139 538q25 158 104.5 295.5t206.5 241.5q122 103 274 157t318 54
q186 0 325 -63t219 -184l-190 -164q-135 175 -383 175q-232 0 -406 -144.5t-209 -367.5q-36 -224 91.5 -369.5t358.5 -145.5q171 0 317 78l50 318h-455l36 230h704l-105 -668q-118 -92 -273.5 -143t-319.5 -51z" />
    <glyph glyph-name="gbreve" unicode="&#x11f;" horiz-adv-x="1487" 
d="M949 1213q-163 0 -248 92.5t-54 239.5h189q-19 -70 20.5 -115.5t119.5 -45.5q81 0 136.5 46t54.5 115h190q-16 -147 -130.5 -239.5t-277.5 -92.5zM647 -404q-179 0 -303.5 65t-182.5 189l229 163q54 -181 296 -181q328 0 418 329q-163 -116 -375 -116q-160 0 -279 71
q-122 71 -176.5 196t-29.5 281q26 161 123 288q96 123 235 190t300 67q144 0 253 -59q51 -27 89 -65l13 87h254l-135 -852q-49 -312 -239.5 -482.5t-489.5 -170.5zM786 272q99 0 184 41q84 41 137 114t68 166q15 98 -16 165q-69 153 -272 153q-98 0 -182 -39
q-85 -42 -139 -114.5t-68 -164.5q-16 -98 17 -167q33 -74 103.5 -114t167.5 -40z" />
    <glyph glyph-name="Gdotaccent" unicode="&#x120;" horiz-adv-x="1668" 
d="M1159 1564q-62 0 -98.5 43.5t-26.5 104.5q10 62 60 105t112 43q61 0 97 -43t26 -105q-10 -61 -59.5 -104.5t-110.5 -43.5zM930 -14q-166 0 -300.5 54.5t-223.5 158.5q-191 211 -139 538q25 158 104.5 295.5t206.5 241.5q122 103 274 157t318 54q186 0 325 -63t219 -184
l-190 -164q-135 175 -383 175q-232 0 -406 -144.5t-209 -367.5q-36 -224 91.5 -369.5t358.5 -145.5q171 0 317 78l50 318h-455l36 230h704l-105 -668q-118 -92 -273.5 -143t-319.5 -51z" />
    <glyph glyph-name="gdotaccent" unicode="&#x121;" horiz-adv-x="1487" 
d="M957 1261q-62 0 -98.5 43.5t-26.5 104.5q10 62 59.5 104.5t111.5 42.5t98.5 -43t26.5 -104q-10 -62 -60 -105t-111 -43zM647 -404q-179 0 -303.5 65t-182.5 189l229 163q54 -181 296 -181q328 0 418 329q-163 -116 -375 -116q-160 0 -279 71q-122 71 -176.5 196
t-29.5 281q26 161 123 288q96 123 235 190t300 67q144 0 253 -59q51 -27 89 -65l13 87h254l-135 -852q-49 -312 -239.5 -482.5t-489.5 -170.5zM786 272q99 0 184 41q84 41 137 114t68 166q15 98 -16 165q-69 153 -272 153q-98 0 -182 -39q-85 -42 -139 -114.5t-68 -164.5
q-16 -98 17 -167q33 -74 103.5 -114t167.5 -40z" />
    <glyph glyph-name="Hcircumflex" unicode="&#x124;" horiz-adv-x="1571" 
d="M1049 1674l-199 -146h-256l379 320h207l278 -320h-257zM509 631l-100 -630h-259l233 1469h259l-96 -607h753l96 607h259l-233 -1469h-259l100 630h-753z" />
    <glyph glyph-name="hcircumflex" unicode="&#x125;" horiz-adv-x="1679" 
d="M861 1759l-200 -147h-256l379 321h208l277 -321h-256zM799 581l-92 -580h-250l233 1469h250l-71 -450q154 118 367 118q138 0 235 -53q104 -56 144.5 -168.5t15.5 -272.5l-102 -643h-252l99 622q44 283 -215 283q-94 0 -173 -38q-156 -76 -189 -287z" />
    <glyph glyph-name="Hbar" unicode="&#x126;" horiz-adv-x="1984" 
d="M717 631l-100 -630h-259l164 1037h-208l35 217h208l34 215h259l-34 -215h752l34 215h260l-34 -215h205l-35 -217h-205l-164 -1037h-260l100 630h-752zM1533 1038h-752l-27 -175h752z" />
    <glyph glyph-name="hbar" unicode="&#x127;" horiz-adv-x="1556" 
d="M676 581l-92 -580h-249l192 1212h-185l31 196h185l10 61h249l-10 -61h423l-31 -196h-423l-30 -193q154 118 368 118q137 0 234 -53q104 -56 144.5 -168.5t15.5 -272.5l-102 -643h-252l99 622q44 283 -215 283q-94 0 -173 -38q-156 -76 -189 -287z" />
    <glyph glyph-name="Itilde" unicode="&#x128;" horiz-adv-x="1034" 
d="M902 1535q-46 0 -86 21t-63.5 46.5t-50 46.5t-47.5 21q-37 0 -62 -32t-34 -93h-164q19 139 93.5 221t181.5 82q45 0 85 -21.5t64 -47.5t50 -47.5t46 -21.5q38 0 64 33.5t29 87.5h165q-14 -131 -90 -213.5t-181 -82.5zM879 1470l-233 -1469h-260l233 1469h260z" />
    <glyph glyph-name="itilde" unicode="&#x129;" horiz-adv-x="934" 
d="M783 1232q-42 0 -78 21t-55.5 46t-40.5 46t-37 21q-45 0 -57 -124h-167q17 143 81 223t162 80q35 0 65 -14t50 -33.5t36.5 -39.5t31 -34t27.5 -14q45 0 57 118h167q-16 -138 -80.5 -217t-161.5 -79zM771 1128l-179 -1127h-250l179 1127h250z" />
    <glyph glyph-name="Imacron" unicode="&#x12a;" horiz-adv-x="895" 
d="M1026 1777l-28 -178h-595l28 178h595zM809 1470l-233 -1469h-259l233 1469h259z" />
    <glyph glyph-name="imacron" unicode="&#x12b;" horiz-adv-x="895" 
d="M978 1474l-28 -179h-595l28 179h595zM752 1128l-179 -1127h-250l179 1127h250z" />
    <glyph glyph-name="Ibreve" unicode="&#x12c;" horiz-adv-x="1011" 
d="M745 1516q-163 0 -248 92.5t-54 239.5h189q-19 -70 21 -115.5t119 -45.5q82 0 137.5 46t54.5 115h190q-17 -147 -131.5 -239.5t-277.5 -92.5zM867 1470l-233 -1469h-259l233 1469h259z" />
    <glyph glyph-name="ibreve" unicode="&#x12d;" horiz-adv-x="911" 
d="M647 1213q-143 0 -214 93t-37 239h184q-21 -76 4 -118.5t90 -42.5q66 0 105 42.5t42 118.5h184q-13 -146 -113.5 -239t-244.5 -93zM759 1128l-179 -1127h-249l179 1127h249z" />
    <glyph glyph-name="Iogonek" unicode="&#x12e;" horiz-adv-x="691" 
d="M310 -450q-104 0 -158 62t-38 163q20 117 116 226h-26l233 1469h259l-230 -1452q-137 -114 -154 -222q-5 -33 8.5 -54t39.5 -21q20 0 37.5 8t51.5 32l30 -150q-67 -61 -169 -61z" />
    <glyph glyph-name="iogonek" unicode="&#x12f;" horiz-adv-x="691" 
d="M540 1276q-68 0 -106.5 44t-28.5 110q11 66 63.5 110.5t120.5 44.5q69 0 108 -43t28 -108q-10 -69 -62.5 -113.5t-122.5 -44.5zM310 -450q-104 0 -158 62t-38 163q20 117 116 226h-16l179 1127h249l-176 -1110q-137 -114 -154 -222q-5 -33 8.5 -54t39.5 -21q20 0 37.5 8
t51.5 32l30 -150q-67 -61 -169 -61z" />
    <glyph glyph-name="Idotaccent" unicode="&#x130;" horiz-adv-x="596" 
d="M546 1564q-62 0 -98.5 43.5t-26.5 104.5q10 62 60 105t112 43t98 -43t26 -105t-60 -105t-111 -43zM660 1470l-233 -1469h-260l233 1469h260z" />
    <glyph glyph-name="dotlessi" unicode="&#x131;" horiz-adv-x="550" 
d="M579 1128l-179 -1127h-250l179 1127h250z" />
    <glyph glyph-name="IJ" unicode="&#x132;" horiz-adv-x="1442" 
d="M668 -14q-147 0 -276.5 42t-218.5 120l138 214q74 -67 177.5 -103.5t220.5 -36.5q359 0 425 417l132 831h259l-130 -822q-35 -217 -136 -363t-251.5 -222.5t-339.5 -76.5zM674 1470l-134 -847h-259l134 847h259z" />
    <glyph glyph-name="ij" unicode="&#x133;" horiz-adv-x="1191" 
d="M512 1276q-68 0 -107 44t-29 110q11 66 63.5 110.5t121.5 44.5q68 0 107 -43t28 -108q-10 -69 -62.5 -113.5t-121.5 -44.5zM1084 1276q-68 0 -107 44t-29 110t63.5 110.5t121.5 44.5t107 -43t28 -108q-10 -69 -62.5 -113.5t-121.5 -44.5zM613 1128l-179 -1127h-249
l179 1127h249zM574 -402q-117 0 -186 40l100 204q37 -23 109 -23q131 0 157 159l182 1150h251l-182 -1146q-29 -180 -143 -282t-288 -102z" />
    <glyph glyph-name="Jcircumflex" unicode="&#x134;" horiz-adv-x="1550" 
d="M943 1674l-198 -146h-257l380 320h207l277 -320h-256zM772 -14q-303 0 -438.5 177.5t-78.5 500.5h259q-38 -224 35.5 -333t261.5 -109t296 104.5t142 319.5l131 824h253l-132 -831q-50 -312 -239.5 -482.5t-489.5 -170.5z" />
    <glyph glyph-name="jcircumflex" unicode="&#x135;" horiz-adv-x="1110" 
d="M803 1362l-155 -138h-239l320 321h207l218 -321h-239zM279 -402q-117 0 -186 40l101 204q36 -23 109 -23q130 0 156 159l182 1150h252l-182 -1146q-29 -180 -143 -282t-289 -102z" />
    <glyph glyph-name="kgreenlandic" unicode="&#x138;" horiz-adv-x="1443" 
d="M449 309l-49 -308h-250l179 1127h250l-79 -497l622 497h317l-559 -473l413 -654h-311l-314 484z" />
    <glyph glyph-name="Lacute" unicode="&#x139;" horiz-adv-x="1557" 
d="M1119 1848l-463 -320h-264l386 320h341zM1444 234l-37 -233h-1164l233 1469h259l-196 -1236h905z" />
    <glyph glyph-name="lacute" unicode="&#x13a;" horiz-adv-x="976" 
d="M1138 1973l-462 -321h-264l385 321h341zM731 1470l-233 -1469h-249l233 1469h249z" />
    <glyph glyph-name="Lcaron" unicode="&#x13d;" horiz-adv-x="1464" 
d="M1284 1537l-99 -447h-190l70 447h219zM1351 234l-37 -233h-1164l233 1469h259l-196 -1236h905z" />
    <glyph glyph-name="lcaron" unicode="&#x13e;" horiz-adv-x="892" 
d="M999 1622l-100 -448h-190l71 448h219zM633 1470l-233 -1469h-250l233 1469h250z" />
    <glyph glyph-name="Ldot" unicode="&#x13f;" horiz-adv-x="1464" 
d="M1351 234l-37 -233h-1164l233 1469h259l-196 -1236h905zM984 667q-63 0 -100.5 45.5t-27.5 108.5q10 64 61 109t115 45q63 0 99.5 -44.5t26.5 -109.5q-10 -64 -61 -109t-113 -45z" />
    <glyph glyph-name="ldot" unicode="&#x140;" horiz-adv-x="917" 
d="M633 1470l-233 -1469h-250l233 1469h250zM719 608q-62 0 -97.5 41.5t-25.5 102.5q10 59 59.5 101.5t109.5 42.5q59 0 95 -42.5t26 -101.5q-10 -61 -58.5 -102.5t-108.5 -41.5z" />
    <glyph glyph-name="Lslash" unicode="&#x141;" horiz-adv-x="1684" 
d="M1571 234l-37 -233h-1164l89 560l-108 -74l-99 158l247 169l104 656h260l-73 -458l225 153l101 -159l-366 -247l-83 -525h904z" />
    <glyph glyph-name="lslash" unicode="&#x142;" horiz-adv-x="1000" 
d="M738 720l-114 -719h-250l84 530l-115 -79l-96 162l251 172l109 684h250l-78 -494l118 79l94 -163z" />
    <glyph glyph-name="Nacute" unicode="&#x143;" horiz-adv-x="1571" 
d="M1529 1848l-463 -320h-264l386 320h341zM568 1001l-159 -1000h-259l233 1469h208l646 -999l158 999h259l-233 -1469h-207z" />
    <glyph glyph-name="nacute" unicode="&#x144;" horiz-adv-x="1372" 
d="M1383 1545l-463 -321h-264l386 321h341zM492 581l-92 -580h-250l179 1127h242l-19 -115q154 125 377 125q138 0 235 -53q104 -56 144.5 -168.5t15.5 -272.5l-102 -643h-252l99 622q44 283 -215 283q-94 0 -173 -38q-156 -76 -189 -287z" />
    <glyph glyph-name="Ncaron" unicode="&#x147;" horiz-adv-x="1571" 
d="M1509 1848l-380 -320h-207l-277 320h256l153 -145l198 145h257zM568 1001l-159 -1000h-259l233 1469h208l646 -999l158 999h259l-233 -1469h-207z" />
    <glyph glyph-name="ncaron" unicode="&#x148;" horiz-adv-x="1372" 
d="M1363 1545l-379 -321h-208l-277 321h256l153 -145l199 145h256zM492 581l-92 -580h-250l179 1127h242l-19 -115q154 125 377 125q138 0 235 -53q104 -56 144.5 -168.5t15.5 -272.5l-102 -643h-252l99 622q44 283 -215 283q-94 0 -173 -38q-156 -76 -189 -287z" />
    <glyph glyph-name="napostrophe" unicode="&#x149;" horiz-adv-x="1648" 
d="M638 1247l-151 -301h-183l128 314q-35 21 -51 58t-9 83q11 71 65.5 118t125.5 47q70 0 107.5 -46.5t26.5 -118.5q-9 -56 -59 -154zM768 581l-92 -580h-249l179 1127h242l-19 -115q154 125 377 125q137 0 235 -53q103 -56 143.5 -169t15.5 -272l-102 -643h-251l99 622
q22 140 -33 211.5t-183 71.5q-94 0 -173 -38q-156 -76 -189 -287z" />
    <glyph glyph-name="Eng" unicode="&#x14a;" horiz-adv-x="1571" 
d="M893 -402q-122 0 -218 48.5t-151 137.5l164 198q80 -154 242 -154q195 0 242 237l-604 936l-159 -1000h-259l233 1469h208l646 -999l158 999h259l-215 -1356q-82 -516 -546 -516z" />
    <glyph glyph-name="eng" unicode="&#x14b;" horiz-adv-x="1372" 
d="M787 -402q-80 0 -147 23t-104 62l119 209q47 -73 155 -73q132 0 157 159l102 645q44 283 -215 283q-94 0 -173 -38q-156 -76 -189 -287l-92 -580h-250l179 1127h242l-19 -115q154 125 377 125q138 0 235 -53q104 -56 144.5 -168.5t15.5 -272.5l-105 -662
q-28 -180 -143 -282t-289 -102z" />
    <glyph glyph-name="Omacron" unicode="&#x14c;" horiz-adv-x="1859" 
d="M1570 1777l-28 -178h-714l28 178h714zM930 -14q-162 0 -297.5 55.5t-226.5 159.5q-93 104 -128.5 240.5t-10.5 295.5q51 319 308 535q124 104 276 158.5t316 54.5q163 0 296.5 -54t225.5 -157q92 -104 127 -241t10 -296q-52 -327 -307 -538q-253 -213 -589 -213zM967 222
q146 0 275.5 66.5t215.5 184.5t109 264q34 220 -90.5 366t-346.5 146q-148 0 -278.5 -66t-216.5 -183.5t-109 -262.5q-35 -223 90 -369t351 -146z" />
    <glyph glyph-name="omacron" unicode="&#x14d;" 
d="M1324 1474l-28 -179h-714l28 179h714zM734 -10q-169 0 -289 73q-123 77 -177 209t-29 292q27 165 124 296q99 133 243.5 205.5t309.5 72.5q167 0 288 -73q125 -75 177.5 -205t26.5 -296q-26 -165 -121 -297q-97 -131 -243 -204t-310 -73zM770 216q93 0 179 42
q83 45 136.5 124.5t69.5 181.5t-12 186q-33 77 -101 119t-162 42q-89 0 -177 -44q-85 -45 -139 -123.5t-71 -179.5q-16 -105 15 -184q34 -79 101.5 -121.5t160.5 -42.5z" />
    <glyph glyph-name="Obreve" unicode="&#x14e;" horiz-adv-x="1859" 
d="M1172 1516q-163 0 -248.5 92.5t-54.5 239.5h190q-19 -70 20.5 -115.5t119.5 -45.5q81 0 136.5 46t54.5 115h190q-17 -147 -131 -239.5t-277 -92.5zM930 -14q-162 0 -297.5 55.5t-226.5 159.5q-93 104 -128.5 240.5t-10.5 295.5q51 319 308 535q124 104 276 158.5
t316 54.5q163 0 296.5 -54t225.5 -157q92 -104 127 -241t10 -296q-52 -327 -307 -538q-253 -213 -589 -213zM967 222q146 0 275.5 66.5t215.5 184.5t109 264q34 220 -90.5 366t-346.5 146q-148 0 -278.5 -66t-216.5 -183.5t-109 -262.5q-35 -223 90 -369t351 -146z" />
    <glyph glyph-name="obreve" unicode="&#x14f;" 
d="M926 1213q-163 0 -248 92.5t-54 239.5h189q-19 -70 20.5 -115.5t119.5 -45.5q81 0 136.5 46t54.5 115h190q-16 -147 -130.5 -239.5t-277.5 -92.5zM734 -10q-169 0 -289 73q-123 77 -177 209t-29 292q27 165 124 296q99 133 243.5 205.5t309.5 72.5q167 0 288 -73
q125 -75 177.5 -205t26.5 -296q-26 -165 -121 -297q-97 -131 -243 -204t-310 -73zM770 216q93 0 179 42q83 45 136.5 124.5t69.5 181.5t-12 186q-33 77 -101 119t-162 42q-89 0 -177 -44q-85 -45 -139 -123.5t-71 -179.5q-16 -105 15 -184q34 -79 101.5 -121.5t160.5 -42.5z
" />
    <glyph glyph-name="Ohungarumlaut" unicode="&#x150;" horiz-adv-x="1859" 
d="M1416 1848l-323 -320h-231l270 320h284zM1764 1848l-320 -320h-231l271 320h280zM930 -14q-162 0 -297.5 55.5t-226.5 159.5q-93 104 -128.5 240.5t-10.5 295.5q51 319 308 535q124 104 276 158.5t316 54.5q163 0 296.5 -54t225.5 -157q92 -104 127 -241t10 -296
q-52 -327 -307 -538q-253 -213 -589 -213zM967 222q146 0 275.5 66.5t215.5 184.5t109 264q34 220 -90.5 366t-346.5 146q-148 0 -278.5 -66t-216.5 -183.5t-109 -262.5q-35 -223 90 -369t351 -146z" />
    <glyph glyph-name="ohungarumlaut" unicode="&#x151;" 
d="M1170 1545l-323 -321h-231l271 321h283zM1518 1545l-319 -321h-232l271 321h280zM734 -10q-169 0 -289 73q-123 77 -177 209t-29 292q27 165 124 296q99 133 243.5 205.5t309.5 72.5q167 0 288 -73q125 -75 177.5 -205t26.5 -296q-26 -165 -121 -297q-97 -131 -243 -204
t-310 -73zM770 216q93 0 179 42q83 45 136.5 124.5t69.5 181.5t-12 186q-33 77 -101 119t-162 42q-89 0 -177 -44q-85 -45 -139 -123.5t-71 -179.5q-16 -105 15 -184q34 -79 101.5 -121.5t160.5 -42.5z" />
    <glyph glyph-name="OE" unicode="&#x152;" horiz-adv-x="2416" 
d="M2303 234l-37 -233h-1325q-226 0 -396 91q-167 96 -240 263t-39 378q34 217 164 388q127 167 321 258t423 91h1298l-37 -232h-797l-60 -377h711l-36 -228h-711l-63 -399h824zM990 234h232l159 1004h-232q-165 0 -298 -65q-133 -63 -218 -177t-108 -263q-23 -148 27 -260
q51 -115 164 -177t274 -62z" />
    <glyph glyph-name="oe" unicode="&#x153;" horiz-adv-x="2337" 
d="M2088 1065q116 -73 165 -205t22 -302l-4 -29q-8 -42 -20 -57h-851q7 -120 89.5 -188t219.5 -68q204 0 331 145l119 -170q-190 -201 -492 -201q-177 0 -298 73q-93 58 -144 145q-94 -105 -221 -161.5t-270 -56.5q-169 0 -289 73q-124 78 -178 209t-28 292q27 165 124 296
q99 133 243.5 205.5t309.5 72.5q166 0 284 -73q85 -55 136 -140q92 103 214.5 158t260.5 55q163 0 277 -73zM1430 667h619q0 37 -18 93q-33 76 -98.5 116.5t-156.5 40.5q-93 0 -169 -40q-129 -68 -177 -210zM949 258q83 45 136.5 124.5t69.5 181.5t-12 186q-33 77 -101 119
t-162 42q-89 0 -177 -44q-85 -45 -139 -123.5t-71 -179.5q-16 -105 15 -184q34 -79 101.5 -121.5t160.5 -42.5t179 42z" />
    <glyph glyph-name="Racute" unicode="&#x154;" horiz-adv-x="1548" 
d="M1462 1848l-463 -320h-264l386 320h341zM477 429l-68 -428h-259l233 1469h626q195 0 318 -60q131 -63 187 -182t30 -278q-24 -158 -119 -279q-111 -136 -288 -197l261 -473h-290l-233 428h-398zM966 1238h-361l-91 -576h361q179 0 283.5 73.5t126.5 214.5q23 140 -59 214
t-260 74z" />
    <glyph glyph-name="racute" unicode="&#x155;" horiz-adv-x="1069" 
d="M1164 1545l-463 -321h-264l386 321h341zM489 562l-89 -561h-250l179 1127h242l-20 -121q158 141 411 130l-40 -253q-37 10 -50 10h-21q-148 0 -242.5 -86.5t-119.5 -245.5z" />
    <glyph glyph-name="Rcaron" unicode="&#x158;" horiz-adv-x="1548" 
d="M1442 1848l-380 -320h-207l-277 320h256l153 -145l198 145h257zM477 429l-68 -428h-259l233 1469h626q195 0 318 -60q131 -63 187 -182t30 -278q-24 -158 -119 -279q-111 -136 -288 -197l261 -473h-290l-233 428h-398zM966 1238h-361l-91 -576h361q179 0 283.5 73.5
t126.5 214.5q23 140 -59 214t-260 74z" />
    <glyph glyph-name="rcaron" unicode="&#x159;" horiz-adv-x="1164" 
d="M1259 1545l-379 -321h-208l-277 321h256l153 -145l199 145h256zM604 562l-89 -561h-250l179 1127h242l-20 -121q156 141 411 130l-40 -253q-37 10 -50 10h-21q-148 0 -242.5 -86.5t-119.5 -245.5z" />
    <glyph glyph-name="Sacute" unicode="&#x15a;" horiz-adv-x="1451" 
d="M1497 1848l-463 -320h-264l386 320h341zM723 -14q-172 0 -321.5 55t-222.5 145l135 211q65 -83 187.5 -133t257.5 -50q118 0 193 27q139 49 157 161q9 61 -22 96q-62 67 -259 113q-97 23 -156.5 40.5t-134 52.5t-113 78t-59.5 112.5t-7 158.5q18 118 96 217
q82 105 221 160t319 55q138 0 264.5 -38.5t204.5 -104.5l-126 -216q-151 131 -379 131q-112 0 -190 -29q-136 -51 -154 -165q-10 -63 24 -98q60 -66 257 -110q200 -51 282 -90q166 -78 191 -220q10 -58 -1 -129q-18 -117 -97 -213q-84 -106 -224.5 -161.5t-322.5 -55.5z" />
    <glyph glyph-name="sacute" unicode="&#x15b;" horiz-adv-x="1269" 
d="M1334 1545l-462 -321h-264l386 321h340zM626 -10q-141 0 -267.5 40.5t-186.5 106.5l139 204q57 -57 158.5 -92t207.5 -35q225 0 243 116q7 48 -39 72.5t-183 46.5q-75 12 -127 24t-110 37t-90.5 59t-49 90t-4.5 129q17 103 88 187q74 79 187.5 121t253.5 42
q127 0 241 -33t167 -86l-142 -202q-116 98 -303 98q-106 0 -169.5 -31.5t-72.5 -87.5q-8 -51 40 -78.5t181 -48.5q76 -13 126 -24.5t109.5 -36.5t92 -58t50 -88t6.5 -127q-16 -106 -94 -187q-149 -158 -452 -158z" />
    <glyph glyph-name="Scircumflex" unicode="&#x15c;" horiz-adv-x="1451" 
d="M1016 1674l-198 -146h-257l380 320h207l277 -320h-256zM723 -14q-172 0 -321.5 55t-222.5 145l135 211q65 -83 187.5 -133t257.5 -50q118 0 193 27q139 49 157 161q9 61 -22 96q-62 67 -259 113q-97 23 -156.5 40.5t-134 52.5t-113 78t-59.5 112.5t-7 158.5
q18 118 96 217q82 105 221 160t319 55q138 0 264.5 -38.5t204.5 -104.5l-126 -216q-151 131 -379 131q-112 0 -190 -29q-136 -51 -154 -165q-10 -63 24 -98q60 -66 257 -110q200 -51 282 -90q166 -78 191 -220q10 -58 -1 -129q-18 -117 -97 -213q-84 -106 -224.5 -161.5
t-322.5 -55.5z" />
    <glyph glyph-name="scircumflex" unicode="&#x15d;" horiz-adv-x="1269" 
d="M854 1371l-198 -147h-257l380 321h207l277 -321h-256zM626 -10q-141 0 -267.5 40.5t-186.5 106.5l139 204q57 -57 158.5 -92t207.5 -35q225 0 243 116q7 48 -39 72.5t-183 46.5q-75 12 -127 24t-110 37t-90.5 59t-49 90t-4.5 129q17 103 88 187q74 79 187.5 121t253.5 42
q127 0 241 -33t167 -86l-142 -202q-116 98 -303 98q-106 0 -169.5 -31.5t-72.5 -87.5q-8 -51 40 -78.5t181 -48.5q76 -13 126 -24.5t109.5 -36.5t92 -58t50 -88t6.5 -127q-16 -106 -94 -187q-149 -158 -452 -158z" />
    <glyph glyph-name="Scedilla" unicode="&#x15e;" horiz-adv-x="1451" 
d="M630 -450q-128 0 -206 62l88 151q61 -48 144 -48q86 0 93 52q4 26 -14 38t-64 12h-94l73 171q-153 11 -280 64.5t-191 133.5l135 211q65 -83 187.5 -133t257.5 -50q118 0 193 27q139 49 157 161q9 61 -22 96q-62 67 -259 113q-97 23 -156.5 40.5t-134 52.5t-113 78
t-59.5 112.5t-7 158.5q18 118 96 217q82 105 221 160t319 55q138 0 264.5 -38.5t204.5 -104.5l-126 -216q-151 131 -379 131q-112 0 -190 -29q-136 -51 -154 -165q-10 -63 24 -98q60 -66 257 -110q200 -51 282 -90q166 -78 191 -220q10 -58 -1 -129q-18 -117 -97 -213
q-150 -185 -450 -213l-15 -38q75 -15 112 -65.5t25 -125.5q-15 -96 -100.5 -153.5t-211.5 -57.5z" />
    <glyph glyph-name="scedilla" unicode="&#x15f;" horiz-adv-x="1269" 
d="M516 -450q-127 0 -207 62l89 151q61 -48 144 -48q86 0 93 52q4 26 -14 38t-65 12h-93l75 177q-118 12 -218 51t-148 92l139 204q57 -57 158.5 -92t207.5 -35q225 0 243 116q7 48 -39 72.5t-183 46.5q-75 12 -127 24t-110 37t-90.5 59t-49 90t-4.5 129q17 103 88 187
q74 79 187.5 121t253.5 42q127 0 241 -33t167 -86l-142 -202q-116 98 -303 98q-106 0 -169.5 -31.5t-72.5 -87.5q-8 -51 40 -78.5t181 -48.5q76 -13 126 -24.5t109.5 -36.5t92 -58t50 -88t6.5 -127q-16 -106 -94 -187q-128 -136 -371 -154l-17 -42q76 -15 113 -66t25 -125
q-15 -96 -100.5 -153.5t-211.5 -57.5z" />
    <glyph glyph-name="Scaron" unicode="&#x160;" horiz-adv-x="1451" 
d="M1476 1848l-379 -320h-207l-278 320h257l152 -145l199 145h256zM723 -14q-172 0 -321.5 55t-222.5 145l135 211q65 -83 187.5 -133t257.5 -50q118 0 193 27q139 49 157 161q9 61 -22 96q-62 67 -259 113q-97 23 -156.5 40.5t-134 52.5t-113 78t-59.5 112.5t-7 158.5
q18 118 96 217q82 105 221 160t319 55q138 0 264.5 -38.5t204.5 -104.5l-126 -216q-151 131 -379 131q-112 0 -190 -29q-136 -51 -154 -165q-10 -63 24 -98q60 -66 257 -110q200 -51 282 -90q166 -78 191 -220q10 -58 -1 -129q-18 -117 -97 -213q-84 -106 -224.5 -161.5
t-322.5 -55.5z" />
    <glyph glyph-name="scaron" unicode="&#x161;" horiz-adv-x="1269" 
d="M1314 1545l-379 -321h-207l-278 321h257l152 -145l199 145h256zM626 -10q-141 0 -267.5 40.5t-186.5 106.5l139 204q57 -57 158.5 -92t207.5 -35q225 0 243 116q7 48 -39 72.5t-183 46.5q-75 12 -127 24t-110 37t-90.5 59t-49 90t-4.5 129q17 103 88 187q74 79 187.5 121
t253.5 42q127 0 241 -33t167 -86l-142 -202q-116 98 -303 98q-106 0 -169.5 -31.5t-72.5 -87.5q-8 -51 40 -78.5t181 -48.5q76 -13 126 -24.5t109.5 -36.5t92 -58t50 -88t6.5 -127q-16 -106 -94 -187q-149 -158 -452 -158z" />
    <glyph glyph-name="Tcaron" unicode="&#x164;" horiz-adv-x="1525" 
d="M1488 1848l-380 -320h-207l-277 320h256l153 -145l198 145h257zM1087 1238l-196 -1237h-257l196 1237h-484l37 232h1225l-37 -232h-484z" />
    <glyph glyph-name="tcaron" unicode="&#x165;" horiz-adv-x="1116" 
d="M1161 1601l-90 -398h-186l63 398h213zM697 -10q-176 0 -257 95t-53 268l88 558h-181l35 217h181l37 233h251l-37 -233h307l-35 -217h-307l-87 -551q-12 -73 17 -111.5t97 -38.5q102 0 174 72l53 -195q-105 -97 -283 -97z" />
    <glyph glyph-name="Tbar" unicode="&#x166;" horiz-adv-x="1525" 
d="M987 606l-96 -605h-257l96 605h-303l34 217h303l66 415h-484l37 232h1225l-37 -232h-484l-66 -415h304l-34 -217h-304z" />
    <glyph glyph-name="tbar" unicode="&#x167;" horiz-adv-x="1116" 
d="M697 -10q-176 0 -257 95t-53 268l26 163h-158l30 194h158l32 201h-181l35 217h181l37 233h251l-37 -233h307l-35 -217h-307l-32 -201h284l-30 -194h-284l-25 -156q-12 -73 17 -111.5t97 -38.5q102 0 174 72l53 -195q-105 -97 -283 -97z" />
    <glyph glyph-name="Utilde" unicode="&#x168;" horiz-adv-x="1552" 
d="M1163 1535q-37 0 -70.5 14t-56.5 33.5t-42.5 39.5t-39.5 34t-38 14q-76 0 -96 -125h-164q19 139 93.5 221t181.5 82q45 0 85 -21.5t64 -47.5t50 -47.5t46 -21.5q38 0 64 33.5t29 87.5h165q-14 -131 -90 -213.5t-181 -82.5zM774 -14q-298 0 -435 171t-88 482l132 831h259
l-131 -824q-67 -424 302 -424q187 0 295.5 105t142.5 319l131 824h253l-132 -831q-50 -312 -240 -482.5t-489 -170.5z" />
    <glyph glyph-name="utilde" unicode="&#x169;" horiz-adv-x="1364" 
d="M1021 1232q-37 0 -70.5 14t-56.5 33.5t-43.5 39t-40 33.5t-37.5 14q-77 0 -95 -124h-164q19 139 93.5 221t181.5 82q45 0 85 -21.5t64 -47.5t50 -47.5t46 -21.5q38 0 64 33.5t29 87.5h165q-14 -131 -90 -213.5t-181 -82.5zM638 -10q-149 0 -244 52q-108 55 -150.5 168
t-17.5 273l103 645h252l-99 -622q-23 -141 31.5 -213.5t182.5 -72.5q90 0 168 38q152 77 184 288l93 582h252l-179 -1127h-240l18 113q-152 -124 -354 -124z" />
    <glyph glyph-name="Umacron" unicode="&#x16a;" horiz-adv-x="1552" 
d="M1416 1777l-28 -178h-714l28 178h714zM774 -14q-298 0 -435 171t-88 482l132 831h259l-131 -824q-67 -424 302 -424q187 0 295.5 105t142.5 319l131 824h253l-132 -831q-50 -312 -240 -482.5t-489 -170.5z" />
    <glyph glyph-name="umacron" unicode="&#x16b;" horiz-adv-x="1364" 
d="M1274 1474l-28 -179h-714l28 179h714zM638 -10q-149 0 -244 52q-108 55 -150.5 168t-17.5 273l103 645h252l-99 -622q-23 -141 31.5 -213.5t182.5 -72.5q90 0 168 38q152 77 184 288l93 582h252l-179 -1127h-240l18 113q-152 -124 -354 -124z" />
    <glyph glyph-name="Ubreve" unicode="&#x16c;" horiz-adv-x="1552" 
d="M1018 1516q-163 0 -248 92.5t-54 239.5h189q-19 -70 20.5 -115.5t119.5 -45.5q82 0 137 46t54 115h190q-16 -147 -130.5 -239.5t-277.5 -92.5zM774 -14q-298 0 -435 171t-88 482l132 831h259l-131 -824q-67 -424 302 -424q187 0 295.5 105t142.5 319l131 824h253
l-132 -831q-50 -312 -240 -482.5t-489 -170.5z" />
    <glyph glyph-name="ubreve" unicode="&#x16d;" horiz-adv-x="1364" 
d="M876 1213q-163 0 -248 92.5t-54 239.5h189q-19 -70 20.5 -115.5t119.5 -45.5q81 0 136.5 46t54.5 115h190q-16 -147 -130.5 -239.5t-277.5 -92.5zM638 -10q-149 0 -244 52q-108 55 -150.5 168t-17.5 273l103 645h252l-99 -622q-23 -141 31.5 -213.5t182.5 -72.5
q90 0 168 38q152 77 184 288l93 582h252l-179 -1127h-240l18 113q-152 -124 -354 -124z" />
    <glyph glyph-name="Uring" unicode="&#x16e;" horiz-adv-x="1552" 
d="M1020 1543q-104 0 -166 72t-46 174q17 103 102.5 177t188.5 74q106 0 168.5 -73t45.5 -178q-16 -102 -102 -174t-191 -72zM1043 1685q46 0 79.5 29t40.5 75q8 47 -16 76t-71 29q-45 0 -78.5 -29t-40.5 -76q-7 -46 17 -75t69 -29zM774 -14q-298 0 -435 171t-88 482
l132 831h259l-131 -824q-67 -424 302 -424q187 0 295.5 105t142.5 319l131 824h253l-132 -831q-50 -312 -240 -482.5t-489 -170.5z" />
    <glyph glyph-name="uring" unicode="&#x16f;" horiz-adv-x="1364" 
d="M872 1199q-104 0 -166 72.5t-46 173.5q17 103 102.5 177.5t188.5 74.5q106 0 168 -73.5t45 -178.5q-17 -102 -102 -174t-190 -72zM894 1341q46 0 79.5 29.5t41.5 74.5q8 47 -16.5 76.5t-70.5 29.5q-45 0 -78.5 -29.5t-40.5 -76.5q-8 -46 16 -75t69 -29zM638 -10
q-149 0 -244 52q-108 55 -150.5 168t-17.5 273l103 645h252l-99 -622q-23 -141 31.5 -213.5t182.5 -72.5q90 0 168 38q152 77 184 288l93 582h252l-179 -1127h-240l18 113q-152 -124 -354 -124z" />
    <glyph glyph-name="Uhungarumlaut" unicode="&#x170;" horiz-adv-x="1552" 
d="M1262 1848l-323 -320h-231l271 320h283zM1611 1848l-320 -320h-232l271 320h281zM774 -14q-298 0 -435 171t-88 482l132 831h259l-131 -824q-67 -424 302 -424q187 0 295.5 105t142.5 319l131 824h253l-132 -831q-50 -312 -240 -482.5t-489 -170.5z" />
    <glyph glyph-name="uhungarumlaut" unicode="&#x171;" horiz-adv-x="1373" 
d="M1120 1545l-323 -321h-231l271 321h283zM1468 1545l-319 -321h-232l271 321h280zM638 -10q-149 0 -244 52q-108 55 -150.5 168t-17.5 273l103 645h252l-99 -622q-23 -141 31.5 -213.5t182.5 -72.5q90 0 168 38q152 77 184 288l93 582h252l-179 -1127h-240l18 113
q-152 -124 -354 -124z" />
    <glyph glyph-name="Uogonek" unicode="&#x172;" horiz-adv-x="1552" 
d="M751 -450q-123 0 -187 63.5t-48 168.5q11 62 52 122q31 48 79 90q-232 35 -335.5 202.5t-60.5 442.5l132 831h259l-131 -824q-67 -424 302 -424q187 0 295.5 105t142.5 319l131 824h253l-132 -831q-37 -238 -159.5 -395t-322.5 -226l-53 -18q-238 -91 -255 -204
q-5 -34 17.5 -54.5t66.5 -20.5q36 0 80 15t64 35l36 -155q-97 -66 -226 -66z" />
    <glyph glyph-name="uogonek" unicode="&#x173;" horiz-adv-x="1414" 
d="M978 -450q-123 0 -187 63.5t-48 168.5q10 60 50 122q59 89 191 162l8 48q-152 -124 -354 -124q-149 0 -244 52q-108 55 -150.5 168t-17.5 273l103 645h252l-99 -622q-23 -141 31.5 -213.5t182.5 -72.5q90 0 168 38q152 77 184 288l93 582h252l-177 -1116
q-123 -53 -165 -84q-99 -63 -109 -132q-6 -35 16 -55t66 -20q79 0 146 47l33 -152q-42 -31 -103 -48.5t-122 -17.5z" />
    <glyph glyph-name="Wcircumflex" unicode="&#x174;" horiz-adv-x="2521" 
d="M1526 1674l-198 -146h-257l380 320h207l277 -320h-256zM1430 1068l-532 -1067h-259l-256 1469h268l188 -1086l549 1086h227l194 -1092l542 1092h253l-724 -1469h-253z" />
    <glyph glyph-name="wcircumflex" unicode="&#x175;" horiz-adv-x="2172" 
d="M1297 1367l-200 -147h-256l379 321h208l277 -321h-256zM1208 760l-413 -759h-227l-239 1127h245l165 -798l429 798h203l168 -802l426 802h236l-600 -1127h-226z" />
    <glyph glyph-name="Ycircumflex" unicode="&#x176;" horiz-adv-x="1723" 
d="M1126 1674l-198 -146h-257l380 320h207l277 -320h-256zM1071 510l-81 -509h-257l81 513l-431 956h282l321 -716l553 716h267z" />
    <glyph glyph-name="ycircumflex" unicode="&#x177;" horiz-adv-x="1521" 
d="M951 1371l-199 -147h-256l379 321h207l278 -321h-257zM1550 1128l-977 -1634h-257l324 538l-311 1096h265l224 -812l479 812h253z" />
    <glyph glyph-name="Ydieresis" unicode="&#x178;" horiz-adv-x="1723" 
d="M920 1562q-55 0 -86 38.5t-23 94.5q9 56 52.5 94t98.5 38q56 0 88.5 -38t23.5 -94q-8 -55 -53 -94t-101 -39zM1297 1562q-55 0 -87.5 38.5t-24.5 94.5q9 56 53.5 94t100.5 38q55 0 86.5 -38t22.5 -94q-8 -55 -52 -94t-99 -39zM1071 510l-81 -509h-257l81 513l-431 956
h282l321 -716l553 716h267z" />
    <glyph glyph-name="Zacute" unicode="&#x179;" horiz-adv-x="1537" 
d="M1516 1848l-463 -320h-264l386 320h341zM1424 234l-37 -233h-1237l28 176l1024 1061h-840l37 232h1196l-28 -176l-1020 -1060h877z" />
    <glyph glyph-name="zacute" unicode="&#x17a;" horiz-adv-x="1253" 
d="M1324 1545l-463 -321h-264l386 321h341zM1138 218l-35 -217h-953l26 164l718 746h-588l35 217h925l-27 -168l-717 -742h616z" />
    <glyph glyph-name="Zdotaccent" unicode="&#x17b;" horiz-adv-x="1537" 
d="M1018 1564q-61 0 -97.5 43.5t-26.5 104.5q10 62 60 105t111 43q62 0 98 -43t26 -105t-60 -105t-111 -43zM1424 234l-37 -233h-1237l28 176l1024 1061h-840l37 232h1196l-28 -176l-1020 -1060h877z" />
    <glyph glyph-name="zdotaccent" unicode="&#x17c;" horiz-adv-x="1253" 
d="M826 1261q-61 0 -97.5 43.5t-26.5 104.5q10 62 59.5 104.5t110.5 42.5q62 0 98.5 -42.5t26.5 -104.5t-60 -105t-111 -43zM1138 218l-35 -217h-953l26 164l718 746h-588l35 217h925l-27 -168l-717 -742h616z" />
    <glyph glyph-name="Zcaron" unicode="&#x17d;" horiz-adv-x="1537" 
d="M1495 1848l-379 -320h-207l-278 320h257l152 -145l199 145h256zM1424 234l-37 -233h-1237l28 176l1024 1061h-840l37 232h1196l-28 -176l-1020 -1060h877z" />
    <glyph glyph-name="zcaron" unicode="&#x17e;" horiz-adv-x="1253" 
d="M1303 1545l-379 -321h-207l-278 321h257l152 -145l199 145h256zM1138 218l-35 -217h-953l26 164l718 746h-588l35 217h925l-27 -168l-717 -742h616z" />
    <glyph glyph-name="longs" unicode="&#x17f;" horiz-adv-x="1116" 
d="M773 1192l-189 -1191h-251l144 910h-183l35 217h183l10 66q28 173 145.5 272.5t295.5 99.5q165 0 238 -82l-116 -207q-49 72 -147 72q-140 0 -165 -157z" />
    <glyph glyph-name="florin" unicode="&#x192;" horiz-adv-x="971" 
d="M20 -402q-81 0 -149 24t-101 65l134 204q41 -72 143 -72q139 0 185 163l255 902h-183l60 217h185l25 95q49 173 174.5 271.5t297.5 98.5q85 0 149.5 -24t89.5 -65l-139 -211q-7 37 -42.5 58t-88.5 21q-152 0 -196 -161l-24 -83h308l-57 -217h-308l-258 -915
q-48 -172 -171 -271.5t-289 -99.5z" />
    <glyph glyph-name="Ohorn" unicode="&#x1a0;" horiz-adv-x="1859" 
d="M930 -14q-162 0 -297.5 55.5t-226.5 159.5q-93 104 -128.5 240.5t-10.5 295.5q25 158 104.5 295.5t206.5 241.5q122 102 275 156.5t319 54.5q133 0 214 -13q78 -14 170 -14q162 0 182 118q11 68 -35 137l188 73q58 -101 40 -216q-17 -106 -85 -178t-177 -100
q32 -34 55 -66q71 -100 97.5 -226t4.5 -263q-52 -327 -307 -538q-253 -213 -589 -213zM967 222q146 0 275.5 66.5t215.5 184.5t109 264q23 144 -26 261.5t-157 184t-254 66.5q-148 0 -278.5 -66t-216.5 -183.5t-109 -262.5q-35 -222 90.5 -368.5t350.5 -146.5z" />
    <glyph glyph-name="ohorn" unicode="&#x1a1;" 
d="M734 -10q-169 0 -289 73q-124 78 -178 209t-28 292q27 165 124 296q99 132 244.5 205t310.5 73q30 0 123.5 -7t118.5 -7q59 0 96 28.5t45 79.5q10 68 -37 140l187 67q29 -41 40.5 -98.5t2.5 -114.5q-14 -89 -65 -152q-44 -60 -123 -97q142 -162 102 -413
q-26 -165 -121 -297q-97 -131 -243 -204t-310 -73zM770 216q91 0 175 42q85 46 139.5 125t70.5 181t-12 186q-33 77 -101 119t-162 42q-89 0 -177 -44q-85 -45 -139 -123.5t-71 -179.5q-16 -105 15 -184q34 -79 101.5 -121.5t160.5 -42.5z" />
    <glyph glyph-name="Uhorn" unicode="&#x1af;" horiz-adv-x="1757" 
d="M774 -14q-298 0 -435 171t-88 482l132 831h259l-131 -824q-67 -424 302 -424q187 0 295.5 105t142.5 319l131 824h96v2h65q101 0 116 102q14 88 -42 138l194 68q66 -77 44 -212q-17 -111 -83.5 -187.5t-167.5 -102.5l-101 -639q-50 -312 -240 -482.5t-489 -170.5z" />
    <glyph glyph-name="uhorn" unicode="&#x1b0;" horiz-adv-x="1539" 
d="M638 -10q-149 0 -244 52q-108 55 -150.5 168t-17.5 273l103 645h252l-99 -622q-23 -141 31.5 -213.5t182.5 -72.5q90 0 168 38q152 77 184 288l93 582h129q99 0 116 102q14 88 -42 138l193 68q67 -76 46 -212q-16 -99 -74 -173t-145 -106l-150 -944h-240l18 113
q-152 -124 -354 -124z" />
    <glyph glyph-name="Gcaron" unicode="&#x1e6;" horiz-adv-x="1668" 
d="M1636 1848l-380 -320h-207l-277 320h256l153 -145l198 145h257zM930 -14q-166 0 -300.5 54.5t-223.5 158.5q-191 211 -139 538q25 158 104.5 295.5t206.5 241.5q122 103 274 157t318 54q186 0 325 -63t219 -184l-190 -164q-135 175 -383 175q-232 0 -406 -144.5
t-209 -367.5q-36 -224 91.5 -369.5t358.5 -145.5q171 0 317 78l50 318h-455l36 230h704l-105 -668q-118 -92 -273.5 -143t-319.5 -51z" />
    <glyph glyph-name="gcaron" unicode="&#x1e7;" horiz-adv-x="1487" 
d="M1434 1545l-379 -321h-208l-277 321h256l153 -145l199 145h256zM647 -404q-179 0 -303.5 65t-182.5 189l229 163q54 -181 296 -181q328 0 418 329q-163 -116 -375 -116q-160 0 -279 71q-122 71 -176.5 196t-29.5 281q26 161 123 288q96 123 235 190t300 67q144 0 253 -59
q51 -27 89 -65l13 87h254l-135 -852q-49 -312 -239.5 -482.5t-489.5 -170.5zM786 272q99 0 184 41q84 41 137 114t68 166q15 98 -16 165q-69 153 -272 153q-98 0 -182 -39q-85 -42 -139 -114.5t-68 -164.5q-16 -98 17 -167q33 -74 103.5 -114t167.5 -40z" />
    <glyph glyph-name="Aringacute" unicode="&#x1fa;" horiz-adv-x="1870" 
d="M1176 1543q-104 0 -166 72t-46 174q17 103 102.5 177t188.5 74q54 0 100 -23l201 176l128 -122l-226 -162q21 -63 11 -120q-16 -102 -102 -174t-191 -72zM1199 1685q46 0 79.5 29t40.5 75q8 47 -16 76t-71 29q-45 0 -78 -29t-40 -76t16.5 -75.5t68.5 -28.5zM652 387
l-230 -386h-272l899 1469h236l435 -1469h-277l-108 386h-683zM1274 606l-157 559l-334 -559h491z" />
    <glyph glyph-name="aringacute" unicode="&#x1fb;" horiz-adv-x="1287" 
d="M853 1199q-104 0 -166.5 72.5t-46.5 173.5q17 103 103 177.5t189 74.5q51 0 100 -23l200 175l128 -122l-225 -162q20 -57 10 -120q-17 -102 -102 -174t-190 -72zM875 1341q45 0 79 29.5t42 74.5q8 47 -16.5 76.5t-70.5 29.5t-78.5 -29.5t-40.5 -76.5q-8 -46 15.5 -75
t69.5 -29zM586 -14q-126 0 -221 40q-93 45 -135.5 126.5t-26.5 184.5q15 90 76 176q125 166 436 166h279l1 10q34 215 -208 215q-205 0 -265 -163l-199 122q63 131 193 201t308 70q234 0 344.5 -118.5t76.5 -332.5l-109 -688h-246l13 78q-137 -87 -317 -87zM639 203
q205 0 305 165l16 102h-275q-212 0 -233 -129q-11 -65 38.5 -101.5t148.5 -36.5z" />
    <glyph glyph-name="AEacute" unicode="&#x1fc;" horiz-adv-x="2380" 
d="M1295 1528l386 320h340l-462 -320h-264zM2213 633h-708l-63 -399h825l-37 -233h-1082l61 386h-497l-287 -386h-275l1109 1469h1176l-37 -232h-797l-60 -377h708zM1244 606l99 623l-466 -623h367z" />
    <glyph glyph-name="aeacute" unicode="&#x1fd;" horiz-adv-x="2165" 
d="M1708 1545l-463 -321h-264l386 321h341zM592 -10q-203 0 -308 95.5t-80 255.5q13 85 72 163q124 167 437 167h279l2 12q18 113 -38 171.5t-181 58.5q-103 0 -203.5 -36t-165.5 -97l-80 198q98 76 229.5 118t271.5 42q285 0 376 -168q88 81 199.5 124.5t231.5 43.5
q161 0 277.5 -72.5t168 -202.5t25.5 -293q-11 -71 -33 -95h-853q3 -57 22 -96v-1q32 -78 107 -120t182 -42q194 0 332 144l120 -168q-92 -99 -218.5 -150.5t-275.5 -51.5q-134 0 -235 40q-131 50 -201 153q-18 -21 -36 -38q-167 -155 -424 -155zM1252 671h618q-1 51 -21 99
q-33 69 -100 108t-152 39q-76 0 -159 -37q-135 -68 -186 -209zM640 195q129 0 213 64t102 176l6 40h-271q-218 0 -237 -130q-11 -71 37.5 -110.5t149.5 -39.5z" />
    <glyph glyph-name="Oslashacute" unicode="&#x1fe;" horiz-adv-x="1859" 
d="M1677 1848l-463 -320h-264l386 320h341zM576 66l-180 -207h-227l267 308q-26 28 -30 34q-93 104 -128.5 240.5t-10.5 295.5q51 319 308 535q124 104 276 158.5t316 54.5q199 0 353 -80l180 207h228l-268 -307l12 -12q12 -12 17 -20q92 -103 127 -240t10 -296
q-52 -327 -307 -538q-253 -213 -589 -213q-199 0 -354 80zM615 371l729 832q-98 46 -214 46q-148 0 -278.5 -66t-216.5 -183.5t-109 -262.5q-35 -223 89 -366zM967 222q146 0 275.5 66.5t215.5 184.5t109 264q34 216 -87 362l-728 -833q99 -44 215 -44z" />
    <glyph glyph-name="oslashacute" unicode="&#x1ff;" 
d="M1427 1545l-463 -321h-264l386 321h341zM489 40l-149 -183h-189l217 267q-83 82 -116 195t-13 245q27 165 124 296q99 133 243.5 205.5t309.5 72.5q136 0 241 -48l144 175h188l-209 -257q83 -79 116.5 -193.5t11.5 -250.5q-26 -165 -121 -297q-97 -131 -243 -204
t-310 -73q-139 0 -245 50zM536 329l459 563q-50 19 -115 19q-89 0 -177 -44q-85 -45 -139 -123.5t-71 -179.5q-16 -105 15 -184q6 -15 28 -51zM770 216q93 0 179 42q83 45 136.5 124.5t69.5 181.5q16 103 -12 185q-15 31 -31 54l-460 -566q52 -21 118 -21z" />
    <glyph glyph-name="circumflex" unicode="&#x2c6;" horiz-adv-x="1544" 
d="M989 1371l-198 -147h-257l380 321h207l277 -321h-256z" />
    <glyph glyph-name="caron" unicode="&#x2c7;" horiz-adv-x="1544" 
d="M1449 1545l-379 -321h-207l-278 321h257l152 -145l199 145h256z" />
    <glyph glyph-name="breve" unicode="&#x2d8;" horiz-adv-x="1415" 
d="M899 1213q-163 0 -247.5 92.5t-54.5 239.5h189q-19 -70 21 -115.5t119 -45.5q82 0 137 46t54 115h191q-16 -147 -131 -239.5t-278 -92.5z" />
    <glyph glyph-name="dotaccent" unicode="&#x2d9;" horiz-adv-x="1448" 
d="M924 1261q-62 0 -98.5 43.5t-26.5 104.5q10 62 59.5 104.5t111.5 42.5t98.5 -42.5t26.5 -104.5t-60 -105t-111 -43z" />
    <glyph glyph-name="ring" unicode="&#x2da;" horiz-adv-x="1375" 
d="M875 1199q-104 0 -166 72.5t-46 173.5q17 103 102.5 177.5t188.5 74.5q106 0 168.5 -73.5t45.5 -178.5q-17 -102 -102.5 -174t-190.5 -72zM897 1341q46 0 79.5 29.5t41.5 74.5q8 47 -16 76.5t-71 29.5q-45 0 -78 -29.5t-40 -76.5q-8 -46 15.5 -75t68.5 -29z" />
    <glyph glyph-name="ogonek" unicode="&#x2db;" horiz-adv-x="1400" 
d="M524 -450q-123 0 -187 63.5t-48 168.5q10 60 50 122q88 132 326 224l127 -104q-151 -64 -195 -96q-99 -63 -109 -132q-6 -34 16 -54.5t66 -20.5q79 0 146 47l33 -152q-92 -66 -225 -66z" />
    <glyph glyph-name="tilde" unicode="&#x2dc;" horiz-adv-x="1422" 
d="M1048 1232q-46 0 -86 21t-63.5 46t-50 46t-48.5 21q-76 0 -94 -124h-165q19 139 93.5 221t181.5 82q45 0 85 -21.5t64 -47.5t50 -47.5t46 -21.5q38 0 64 33.5t29 87.5h165q-13 -131 -89.5 -213.5t-181.5 -82.5z" />
    <glyph glyph-name="hungarumlaut" unicode="&#x2dd;" horiz-adv-x="1516" 
d="M1204 1545l-323 -321h-231l271 321h283zM1553 1545l-320 -321h-232l271 321h281z" />
    <glyph glyph-name="gravecomb" unicode="&#x300;" horiz-adv-x="0" 
d="M-290 1545l284 -321h-264l-361 321h341z" />
    <glyph glyph-name="acutecomb" unicode="&#x301;" horiz-adv-x="0" 
d="M45 1545l-463 -321h-264l386 321h341z" />
    <glyph glyph-name="tildecomb" unicode="&#x303;" horiz-adv-x="0" 
d="M-230 1232q-37 0 -70.5 14t-56.5 33.5t-43.5 39t-40 33.5t-37.5 14q-77 0 -95 -124h-164q19 139 93.5 221t181.5 82q45 0 85 -21.5t64 -47.5t50 -47.5t46 -21.5q38 0 64 33.5t29 87.5h165q-14 -131 -90 -213.5t-181 -82.5z" />
    <glyph glyph-name="hookabovecomb" unicode="&#x309;" horiz-adv-x="0" 
d="M776 1200l-87 125q141 54 151 124q5 31 -12 49t-52 18q-69 0 -139 -54l-51 142q45 36 107.5 56.5t125.5 20.5q104 0 160 -59.5t41 -155.5q-28 -178 -244 -266z" />
    <glyph glyph-name="dotbelowcomb" unicode="&#x323;" horiz-adv-x="0" 
d="M490 -394q-56 0 -88.5 37.5t-24.5 92.5q9 56 53.5 94.5t100.5 38.5t88 -38.5t23 -94.5q-8 -55 -52 -92.5t-100 -37.5z" />
    <glyph glyph-name="pi" unicode="&#x3c0;" horiz-adv-x="1527" 
d="M863 911l-247 -910h-253l248 910h-56q-181 0 -205 -149q-13 -72 45 -178l-209 -61q-39 47 -56 120.5t-5 148.5q17 103 77 173q60 78 156.5 120.5t210.5 42.5h1125l-37 -217h-297l-144 -910h-250l144 910h-247z" />
    <glyph glyph-name="Wgrave" unicode="&#x1e80;" horiz-adv-x="2521" 
d="M1443 1848l284 -320h-264l-361 320h341zM1430 1068l-532 -1067h-259l-256 1469h268l188 -1086l549 1086h227l194 -1092l542 1092h253l-724 -1469h-253z" />
    <glyph glyph-name="wgrave" unicode="&#x1e81;" horiz-adv-x="2172" 
d="M1213 1541l284 -321h-264l-361 321h341zM1208 760l-413 -759h-227l-239 1127h245l165 -798l429 798h203l168 -802l426 802h236l-600 -1127h-226z" />
    <glyph glyph-name="Wacute" unicode="&#x1e82;" horiz-adv-x="2521" 
d="M2007 1848l-463 -320h-264l386 320h341zM1430 1068l-532 -1067h-259l-256 1469h268l188 -1086l549 1086h227l194 -1092l542 1092h253l-724 -1469h-253z" />
    <glyph glyph-name="wacute" unicode="&#x1e83;" horiz-adv-x="2172" 
d="M1776 1541l-463 -321h-264l386 321h341zM1208 760l-413 -759h-227l-239 1127h245l165 -798l429 798h203l168 -802l426 802h236l-600 -1127h-226z" />
    <glyph glyph-name="Wdieresis" unicode="&#x1e84;" horiz-adv-x="2521" 
d="M1320 1562q-55 0 -86 38.5t-23 94.5q9 56 52.5 94t98.5 38q56 0 88.5 -38t23.5 -94q-8 -55 -53 -94t-101 -39zM1697 1562q-55 0 -87.5 38.5t-24.5 94.5q9 56 53.5 94t100.5 38q55 0 86.5 -38t22.5 -94q-8 -55 -52.5 -94t-98.5 -39zM1430 1068l-532 -1067h-259l-256 1469
h268l188 -1086l549 1086h227l194 -1092l542 1092h253l-724 -1469h-253z" />
    <glyph glyph-name="wdieresis" unicode="&#x1e85;" horiz-adv-x="2172" 
d="M1091 1255q-55 0 -87 38.5t-23 93.5q9 56 53 94.5t99 38.5q56 0 88 -38.5t23 -94.5q-9 -55 -53.5 -93.5t-99.5 -38.5zM1467 1255q-55 0 -87.5 38.5t-23.5 93.5q9 56 53 94.5t100 38.5t87.5 -38.5t22.5 -94.5q-9 -55 -53 -93.5t-99 -38.5zM1208 760l-413 -759h-227
l-239 1127h245l165 -798l429 798h203l168 -802l426 802h236l-600 -1127h-226z" />
    <glyph glyph-name="Ygrave" unicode="&#x1ef2;" horiz-adv-x="1723" 
d="M1043 1848l284 -320h-264l-361 320h341zM1071 510l-81 -509h-257l81 513l-431 956h282l321 -716l553 716h267z" />
    <glyph glyph-name="ygrave" unicode="&#x1ef3;" horiz-adv-x="1521" 
d="M867 1545l284 -321h-264l-361 321h341zM1550 1128l-977 -1634h-257l324 538l-311 1096h265l224 -812l479 812h253z" />
    <glyph glyph-name="uni2010" unicode="&#x2010;" horiz-adv-x="789" 
d="M803 696l-35 -224h-599l35 224h599z" />
    <glyph glyph-name="figuredash" unicode="&#x2012;" horiz-adv-x="1491" 
d="M1520 842l-30 -192h-1281l30 192h1281z" />
    <glyph glyph-name="endash" unicode="&#x2013;" horiz-adv-x="1066" 
d="M1174 679l-31 -192h-1066l31 192h1066z" />
    <glyph glyph-name="emdash" unicode="&#x2014;" horiz-adv-x="2074" 
d="M2182 679l-31 -192h-2074l31 192h2074z" />
    <glyph glyph-name="uni2015" unicode="&#x2015;" horiz-adv-x="2074" 
d="M2182 679l-31 -192h-2074l31 192h2074z" />
    <glyph glyph-name="quoteleft" unicode="&#x2018;" horiz-adv-x="640" 
d="M470 934q-71 0 -110.5 48t-28.5 119q9 55 62 152l151 301h183l-126 -312q72 -42 56 -141q-11 -71 -64.5 -119t-122.5 -48z" />
    <glyph glyph-name="quoteright" unicode="&#x2019;" horiz-adv-x="638" 
d="M645 1247l-151 -301h-183l128 314q-35 21 -51 58t-9 83q11 71 65.5 118t125.5 47q70 0 107 -46.5t26 -118.5q-10 -59 -58 -154z" />
    <glyph glyph-name="quotesinglbase" unicode="&#x201a;" horiz-adv-x="638" 
d="M445 2l-147 -298h-184l127 310q-35 20 -50.5 58t-8.5 85q11 71 66 119t125 48q69 0 106.5 -47t26.5 -120q-12 -70 -61 -155z" />
    <glyph glyph-name="quotedblleft" unicode="&#x201c;" horiz-adv-x="1020" 
d="M470 934q-71 0 -110.5 48t-28.5 119q9 55 62 152l151 301h183l-126 -312q72 -42 56 -141q-11 -71 -64.5 -119t-122.5 -48zM850 934q-71 0 -110.5 48t-28.5 119q8 51 62 152l151 301h184l-127 -312q72 -42 56 -141q-11 -71 -64.5 -119t-122.5 -48z" />
    <glyph glyph-name="quotedblright" unicode="&#x201d;" horiz-adv-x="1019" 
d="M645 1247l-151 -301h-183l128 314q-35 21 -51 58t-9 83q11 71 65.5 118t125.5 47q70 0 107 -46.5t26 -118.5q-10 -59 -58 -154zM1025 1247l-151 -301h-183l128 314q-35 21 -51 58t-9 83q11 71 65.5 118t125.5 47q70 0 107.5 -46.5t26.5 -118.5q-9 -56 -59 -154z" />
    <glyph glyph-name="quotedblbase" unicode="&#x201e;" horiz-adv-x="1019" 
d="M445 2l-147 -298h-184l127 310q-35 20 -50.5 58t-8.5 85q11 71 66 119t125 48q69 0 106.5 -47t26.5 -120q-12 -70 -61 -155zM825 2l-147 -298h-184l127 310q-35 20 -50.5 58t-8.5 85q11 71 66 119t125 48q69 0 107 -47t27 -120q-11 -68 -62 -155z" />
    <glyph glyph-name="dagger" unicode="&#x2020;" horiz-adv-x="1407" 
d="M935 760l-182 -1150h-249l182 1150h-405l36 226h405l77 484h249l-77 -484h411l-36 -226h-411z" />
    <glyph glyph-name="daggerdbl" unicode="&#x2021;" horiz-adv-x="1122" 
d="M697 93l-77 -483h-250l77 483h-405l36 229h405l69 438h-405l36 226h405l77 484h250l-77 -484h411l-36 -226h-411l-69 -438h411l-36 -229h-411z" />
    <glyph glyph-name="bullet" unicode="&#x2022;" horiz-adv-x="1048" 
d="M601 372q-90 0 -141.5 62t-37.5 153q13 87 85.5 149t160.5 62q87 0 138.5 -61.5t37.5 -149.5q-15 -92 -84 -153.5t-159 -61.5z" />
    <glyph glyph-name="ellipsis" unicode="&#x2026;" horiz-adv-x="1605" 
d="M347 -10q-70 0 -110.5 48.5t-29.5 118.5t67 118.5t126 48.5q68 0 107 -48t28 -119t-65.5 -119t-122.5 -48zM815 -10q-70 0 -110.5 48.5t-29.5 118.5t67 118.5t126 48.5q69 0 108 -48t28 -119t-65.5 -119t-123.5 -48zM1282 -10q-70 0 -110.5 48.5t-29.5 118.5t67 118.5
t126 48.5q68 0 107 -48t28 -119t-65.5 -119t-122.5 -48z" />
    <glyph glyph-name="perthousand" unicode="&#x2030;" horiz-adv-x="2646" 
d="M610 654q-103 0 -178 53q-74 54 -103.5 147.5t-10.5 214.5q19 120 79 214q59 95 149.5 147t194.5 52q107 0 180 -53q72 -52 100.5 -145.5t9.5 -214.5q-20 -123 -78 -214q-59 -96 -148.5 -148.5t-194.5 -52.5zM1800 1470l-1236 -1469h-226l1237 1469h225zM637 827
q80 0 134.5 63.5t72.5 178.5q18 114 -16.5 177t-114.5 63q-79 0 -134 -63.5t-73 -176.5t17.5 -177.5t113.5 -64.5zM1397 -10q-105 0 -177 52q-152 111 -112 360q18 121 77 215q59 95 149.5 147.5t193.5 52.5q106 0 180 -52l1 -1q73 -54 101.5 -148t9.5 -214
q-19 -118 -77 -214q-61 -94 -151.5 -146t-194.5 -52zM2138 -10q-105 0 -179 52q-74 55 -103.5 148t-10.5 212q17 115 79 216q62 95 152 147t193 52q105 0 180 -52l1 -1q71 -55 99.5 -148.5t9.5 -213.5q-18 -110 -76 -213l-1 -1q-61 -95 -150.5 -146.5t-193.5 -51.5z
M1425 162q80 0 134.5 63.5t72.5 176.5t-17.5 177.5t-113.5 64.5t-133.5 -64.5t-73.5 -177.5t17 -176.5t114 -63.5zM2166 162q79 0 133 63.5t72 176.5q18 114 -16.5 178t-112.5 64t-133.5 -64.5t-73.5 -177.5t17 -176.5t114 -63.5z" />
    <glyph glyph-name="minute" unicode="&#x2032;" horiz-adv-x="569" 
d="M632 1470l-110 -601h-200l81 601h229z" />
    <glyph glyph-name="second" unicode="&#x2033;" horiz-adv-x="934" 
d="M632 1470l-110 -601h-200l81 601h229zM997 1470l-111 -601h-195l79 601h227z" />
    <glyph glyph-name="guilsinglleft" unicode="&#x2039;" horiz-adv-x="862" 
d="M486 564l241 -413h-248l-249 413l380 416h247z" />
    <glyph glyph-name="guilsinglright" unicode="&#x203a;" horiz-adv-x="861" 
d="M803 564l-377 -413h-249l372 413l-240 416h248z" />
    <glyph glyph-name="fraction" unicode="&#x2044;" horiz-adv-x="640" 
d="M1167 1470l-1236 -1469h-224l1236 1469h224z" />
    <glyph glyph-name="colonmonetary" unicode="&#x20a1;" horiz-adv-x="1434" 
d="M1329 1158l-384 -933q203 21 360 178l145 -166q-118 -121 -277.5 -186t-339.5 -65h13l-94 -227h-182l101 241q-49 9 -112 30l-109 -271h-183l144 351q-54 41 -96 89q-93 105 -128 242.5t-10 295.5q51 320 308 537q215 180 491 208l97 230h182l-96 -230q50 -4 116 -19
l101 249h183l-128 -309q111 -63 177 -167l-197 -166q-43 57 -82 88zM767 233l411 999q-45 14 -115 17l-402 -980q50 -26 106 -36zM519 375l351 851q-170 -50 -288 -182.5t-146 -306.5q-35 -213 83 -362z" />
    <glyph glyph-name="franc" unicode="&#x20a3;" horiz-adv-x="1417" 
d="M568 237l-38 -236h-259l38 236h-207l27 173h207l168 1060h1052l-37 -232h-793l-69 -436h707l-37 -231h-707l-25 -161h448l-27 -173h-448z" />
    <glyph glyph-name="lira" unicode="&#x20a4;" horiz-adv-x="1377" 
d="M1183 681l-27 -169h-535l-44 -278h762l-37 -233h-1238l37 233h219l44 278h-219l27 169h219l17 109h-219l27 169h219l-4 -27q26 168 120 293q95 127 246 193.5t345 66.5q268 0 414 -118l-126 -223q-106 105 -345 105q-165 0 -264.5 -73t-127.5 -217h534l-27 -169h-535
l-17 -109h535z" />
    <glyph glyph-name="peseta" unicode="&#x20a7;" horiz-adv-x="3457" 
d="M607 429l-68 -428h-259l233 1469h626q195 0 318 -60q130 -63 186.5 -182t30.5 -278q-24 -159 -120 -279q-94 -118 -242.5 -180t-337.5 -62h-367zM2112 -10q-176 0 -257.5 95t-53.5 268l88 558h-181l35 217h181l37 233h251l-37 -233h308l-35 -217h-308l-87 -551
q-24 -150 115 -150q102 0 173 72l53 -195q-50 -46 -124 -71.5t-158 -25.5zM1096 1238h-361l-91 -576h361q179 0 283.5 73.5t126.5 214.5q23 140 -59 214t-260 74zM2885 -10q-141 0 -267.5 40.5t-186.5 106.5l140 204q57 -57 158.5 -92t207.5 -35q224 0 242 116
q7 48 -39 72.5t-183 46.5q-75 12 -127 24t-109.5 37t-90 59t-49 90t-4.5 129q17 103 88 187q74 79 187.5 121t253.5 42q127 0 240.5 -33t167.5 -86l-142 -202q-117 98 -303 98q-106 0 -169.5 -31.5t-72.5 -87.5q-8 -51 40 -78.5t181 -48.5q76 -13 126 -24.5t109.5 -36.5
t92 -58t50 -88t6.5 -127q-16 -106 -94 -187q-149 -158 -453 -158z" />
    <glyph glyph-name="dong" unicode="&#x20ab;" horiz-adv-x="1461" 
d="M682 -10q-166 0 -279 71q-122 76 -174 207t-26 296q27 167 123 300q97 131 237 202.5t301 71.5q140 0 247 -65q45 -27 77 -62l34 213h-425l27 171h425l25 159h251l-25 -159h182l-27 -171h-182l-194 -1223h-244l19 120q-157 -131 -372 -131zM733 216q91 0 175 42
q86 46 140 125t70 181t-12 186q-34 77 -102.5 119t-160.5 42q-89 0 -177 -44q-84 -45 -139 -124t-71 -179q-16 -105 15 -184q35 -79 102 -121.5t160 -42.5zM1266 -97l-27 -171h-1125l27 171h1125z" />
    <glyph glyph-name="Euro" unicode="&#x20ac;" horiz-adv-x="1644" 
d="M1041 -14q-162 0 -295.5 55t-222.5 158q-116 132 -142 313h-236l27 169h207q4 36 7 56q2 17 10 53h-207l27 169h236q85 184 241 314q121 103 272 157.5t313 54.5q184 0 322 -64t216 -185l-196 -166q-131 179 -370 179q-163 0 -302 -77t-222 -213h628l-27 -169h-669
q-5 -17 -11 -53q-5 -31 -6 -56h669l-27 -169h-628q40 -136 154.5 -213t277.5 -77q241 0 428 181l143 -166q-118 -121 -277 -186t-340 -65z" />
    <glyph glyph-name="trademark" unicode="&#x2122;" horiz-adv-x="2056" 
d="M777 1293l-114 -718h-201l114 718h-305l28 177h812l-28 -177h-306zM1311 1086l-81 -511h-196l142 895h163l270 -548l437 548h163l-140 -895h-196l80 520l-337 -420h-98z" />
    <glyph glyph-name="estimated" unicode="&#x212e;" horiz-adv-x="1888" 
d="M1880 733l-7 -44h-1292l-58 -367q-1 -9 7 -30q62 -93 175.5 -145t255.5 -52t282 62t250 173h189q-134 -154 -335 -244.5t-404 -90.5q-162 0 -302.5 56t-240.5 161q-99 105 -141 240t-19 281q24 150 108 286.5t218 241.5q134 104 292.5 159.5t319.5 55.5
q162 0 303.5 -55.5t242.5 -159.5q98 -107 138.5 -243.5t17.5 -284.5zM668 1177q-11 -11 -14 -28l-58 -364h948l59 372q3 12 -9 24l-1 2q-79 94 -189.5 143.5t-239.5 49.5q-263 0 -496 -199z" />
    <glyph glyph-name="arrowleft" unicode="&#x2190;" horiz-adv-x="1107" 
d="M502 479l163 -341h-243l-230 443l371 445h243l-272 -341h619l-32 -206h-619z" />
    <glyph glyph-name="arrowup" unicode="&#x2191;" horiz-adv-x="1099" 
d="M773 747l-100 -634h-213l100 634l-366 -215l37 235l486 300l393 -300l-37 -235z" />
    <glyph glyph-name="arrowright" unicode="&#x2192;" horiz-adv-x="1108" 
d="M1100 583l-369 -447h-242l271 343h-620l32 206h619l-163 340h243z" />
    <glyph glyph-name="arrowdown" unicode="&#x2193;" horiz-adv-x="1101" 
d="M1091 634l-37 -235l-486 -302l-395 302l37 235l302 -217l100 634h211l-100 -634z" />
    <glyph glyph-name="arrowboth" unicode="&#x2194;" horiz-adv-x="1549" 
d="M504 479l167 -341h-245l-228 443l369 445h245l-274 -341h689l-162 341h243l227 -445l-368 -443h-243l271 341h-691z" />
    <glyph glyph-name="arrowupdn" unicode="&#x2195;" horiz-adv-x="1101" 
d="M1084 611l-37 -233l-484 -305l-393 305l37 233l300 -215l104 656l-366 -215l37 234l485 306l394 -306l-37 -234l-300 215l-104 -656z" />
    <glyph glyph-name="partialdiff" unicode="&#x2202;" horiz-adv-x="1577" 
d="M1268 1430q150 -94 207 -273.5t17 -431.5q-36 -224 -134 -390q-106 -171 -264.5 -260t-357.5 -89q-151 0 -261 58q-119 61 -171 170.5t-30 251.5q23 148 112 254q89 107 221.5 165.5t284.5 58.5q124 0 217 -43q72 -35 143 -104q18 154 -17 261q-80 237 -384 237
q-183 0 -322 -52l-7 222q149 57 367 57q234 0 379 -92zM965 245q73 35 119.5 93t57.5 128q12 74 -17 130q-31 62 -94.5 94.5t-152.5 32.5q-142 0 -237.5 -70t-114.5 -187l-2 -10q-9 -118 60.5 -183.5t199.5 -65.5q106 0 181 38z" />
    <glyph glyph-name="emptyset" unicode="&#x2205;" horiz-adv-x="1288" 
d="M419 332l-201 -160l-81 108l196 159q-63 121 -41 263q21 133 102 236q82 106 198.5 166.5t240.5 60.5q127 0 225 -62q21 -12 45 -34l192 156l78 -110l-187 -154q60 -114 37 -259q-19 -126 -98 -233q-82 -110 -199 -172t-241 -62q-129 0 -226 65q-14 10 -40 32zM501 565
q0 3 -2 7l440 364q-58 39 -137 39q-75 0 -142 -37q-71 -38 -117.5 -100.5t-58.5 -135.5q-11 -76 17 -137zM715 426q80 0 144 38q149 83 175 240q11 75 -15 135l4 -10l-442 -362q54 -41 134 -41z" />
    <glyph glyph-name="product" unicode="&#x220f;" horiz-adv-x="1831" 
d="M733 1228l-256 -1618h-259l295 1860h1271l-295 -1860h-259l256 1618h-753z" />
    <glyph glyph-name="summation" unicode="&#x2211;" horiz-adv-x="1424" 
d="M1317 -156l-37 -234h-1236l28 177l776 756l-510 751l28 176h1196l-37 -232h-833l422 -618l-25 -159l-644 -617h872z" />
    <glyph glyph-name="minus" unicode="&#x2212;" horiz-adv-x="1376" 
d="M1302 842l-34 -215h-962l34 215h962z" />
    <glyph glyph-name="radical" unicode="&#x221a;" horiz-adv-x="1733" 
d="M1959 1554l-975 -1944h-240l-213 1019h-273l34 217h456l173 -871l795 1579h243z" />
    <glyph glyph-name="infinity" unicode="&#x221e;" horiz-adv-x="1977" 
d="M1828 1107q91 -57 131 -154t21 -215q-20 -126 -90 -217q-76 -101 -182.5 -156t-225.5 -55q-114 0 -200 37q-129 60 -218 229l12 -25q-99 -123 -214 -182t-267 -59q-120 0 -211 56q-93 58 -132.5 155t-20.5 216q19 116 89 218v1q74 98 181.5 151.5t228.5 53.5
q117 0 201 -35q130 -64 215 -227l-11 22q102 122 217.5 181t264.5 59q127 0 211 -54zM786 549q100 50 204 187q-35 71 -55 103q-83 115 -227 115q-97 0 -172.5 -62.5t-89.5 -154.5q-15 -94 40 -156.5t153 -62.5q82 0 147 31zM1503 518q98 0 172.5 63t89.5 157
q15 93 -40 154.5t-153 61.5q-76 0 -145 -32q-103 -52 -205 -185q27 -58 57 -101q78 -118 224 -118z" />
    <glyph glyph-name="integral" unicode="&#x222b;" horiz-adv-x="855" 
d="M126 -402q-76 0 -145.5 23.5t-110.5 62.5l117 208q45 -73 147 -73q139 0 165 159l193 1221q27 171 140.5 272t279.5 101q183 0 258 -89l-120 -206q-38 72 -145 72q-141 0 -165 -155l-193 -1222q-28 -173 -140.5 -273.5t-280.5 -100.5z" />
    <glyph glyph-name="approxequal" unicode="&#x2248;" horiz-adv-x="1333" 
d="M993 769q-55 0 -103 20.5t-81 49.5t-62.5 58t-61 49.5t-62.5 20.5q-56 0 -95 -48t-51 -134h-185q27 182 122.5 285.5t235.5 103.5q54 0 101.5 -20.5t80.5 -49t63 -57.5t61.5 -49.5t62.5 -20.5q58 0 97 48t48 134h185q-26 -182 -121 -286t-235 -104zM918 297
q-55 0 -103 20t-81 49t-62.5 58t-61 49t-62.5 20q-56 0 -95.5 -48t-50.5 -133h-185q27 181 122.5 284.5t235.5 103.5q54 0 101.5 -20.5t80.5 -49.5t63 -58t61.5 -49.5t62.5 -20.5q58 0 96.5 49t48.5 136h185q-26 -183 -121 -286.5t-235 -103.5z" />
    <glyph glyph-name="notequal" unicode="&#x2260;" horiz-adv-x="1489" 
d="M732 389l-167 -240h-228l166 240h-178l34 217h295l184 259h-438l34 217h556l167 240h227l-167 -240h179l-34 -217h-296l-182 -259h437l-34 -217h-555z" />
    <glyph glyph-name="lessequal" unicode="&#x2264;" horiz-adv-x="1393" 
d="M666 819l602 -243l-36 -226l-904 363l33 211l1020 363l-36 -227zM1212 218l-35 -217h-962l35 217h962z" />
    <glyph glyph-name="greaterequal" unicode="&#x2265;" horiz-adv-x="1400" 
d="M1327 924l-33 -211l-1020 -363l36 226l684 243l-607 241l36 227zM1216 218l-35 -217h-962l35 217h962z" />
    <glyph glyph-name="uni27E8" unicode="&#x27e8;" horiz-adv-x="632" 
d="M368 583l168 -973h-235l-185 973l493 971h235z" />
    <glyph glyph-name="uni27E9" unicode="&#x27e9;" horiz-adv-x="634" 
d="M704 583l-493 -973h-237l479 973l-171 971h237z" />
    <glyph glyph-name="uniF8FF" unicode="&#xf8ff;" horiz-adv-x="2480" 
d="M1228 -176q-190 0 -363.5 75t-298.5 201t-199.5 300t-74.5 364q0 191 74.5 364.5t200.5 299t299.5 200t363.5 74.5t363.5 -74.5t299.5 -200.5t200.5 -299.5t74.5 -363.5q0 -192 -74.5 -366t-200 -299.5t-299.5 -200t-366 -74.5zM1230 -64q168 0 321 65.5t263.5 176
t176 263.5t65.5 321q0 135 -41.5 261t-117.5 227.5t-177 178t-226.5 118.5t-259.5 43q-169 0 -322.5 -65t-264.5 -175.5t-177 -263t-66 -320.5q0 -169 65 -322.5t175.5 -264.5t263.5 -177t322 -66zM964 294h-2q26 26 40 38q27 24 42 74q61 168 76 214q44 130 96 220v4
q-3 -4 -9 -11t-9 -11q-4 -4 -9.5 -10.5t-8.5 -9.5q-35 -51 -52 -96q-5 -10 -14 -10q-167 6 -296 114l-98 92q-4 4 -7.5 8.5t-7.5 10t-7 9.5l18 -6q84 -34 166 -46q58 -6 120 4q60 14 80 20q1 0 26 10l-27 13.5t-28.5 14.5t-22.5 15t-22 21h30q71 3 126 32q106 65 230 102
q48 15 96 18q8 0 34 1.5t40 0.5q93 -3 148 -56q8 -7 16 -16t17.5 -20.5t14.5 -17.5q-2 -2 -2 -4l-8 4q-76 29 -139.5 6t-104.5 -90q-12 -21 -42 -94q-6 -15 -35 -82.5t-45 -103.5q-50 -104 -108 -172q-42 -51 -110 -96q-76 -58 -196 -92q-1 0 -3 -1t-3 -1zM1526 -342v-72
h-24v72h-8v16h8v14q3 24 34 24h10v-18q-17 3 -20 -8v-12h20v-16h-20zM694 -418q-18 0 -28 13.5t-10 34.5q0 23 12 35.5t30 12.5q13 0 22 -6l6 -8v44h22v-122h-22v14l-6 -10q-12 -8 -26 -8zM962 -316q-12 0 -12 12t12 12q14 0 14 -12t-14 -12zM1808 -400v-16h-14
q-26 0 -26 18v56h-14v16h14v22h24v-22h18v-16h-18v-48q3 -12 16 -10zM808 -418q-19 0 -31.5 12.5t-12.5 35.5q0 21 12.5 34.5t33.5 13.5q19 0 30.5 -13t11.5 -33q0 -4 -2 -8h-62q2 -24 20 -24q17 0 20 16h22q-3 -16 -14.5 -25t-27.5 -9zM900 -418q-34 0 -40 30h24
q3 -14 16 -14q14 0 14 10q0 8 -22 16q-28 7 -28 26q0 12 10 20t26 8q15 0 24.5 -8t9.5 -20h-22q-3 12 -14 12q-12 0 -12 -10q0 -8 22 -14q28 -9 28 -28q0 -28 -36 -28zM1036 -450q-41 0 -44 30v2h22v-2q4 -14 22 -14q21 0 24 22v14l-6 -12q-12 -4 -24 -4q-18 0 -29 11.5
t-11 32.5q0 23 12.5 35.5t31.5 12.5q14 0 20 -6l6 -8v12h24v-68q0 -12 -2 -18q0 -40 -46 -40zM1126 -374v-40h-22v90h22v-16l8 12q12 6 22 6q29 0 32 -26q2 -6 2 -16v-50h-26v58q0 18 -16 18q-9 0 -15.5 -9t-6.5 -27zM1248 -418q-21 0 -32.5 13.5t-11.5 34.5t11.5 34.5
t32.5 13.5q22 0 35 -13.5t13 -34.5t-13 -34.5t-35 -13.5zM1430 -418q-11 0 -19.5 7.5t-8.5 20.5q0 30 50 30h4v2v8q0 12 -12 12q-18 0 -18 -16h-22q0 15 11.5 23.5t28.5 8.5q32 0 36 -26v-44v-22h-22l-2 12l-4 -10q-9 -6 -22 -6zM1598 -418q-22 0 -34 13t-12 35t12 35t34 13
t34 -13t12 -35t-12 -35t-34 -13zM1682 -374v-40h-22v90h22v-16l8 12q9 6 22 6q26 0 32 -26v-16v-50h-24v58q-4 18 -16 18q-22 0 -22 -36zM1858 -418q-37 0 -40 30h22q3 -14 18 -14q12 0 12 10q0 5 -3.5 8t-16.5 8q-28 6 -28 26q0 12 9.5 20t24.5 8q31 0 38 -28h-26
q0 12 -14 12q-8 0 -8 -10q0 -9 18 -14q30 -10 30 -28q0 -28 -36 -28zM1986 -418q-19 0 -30.5 12.5t-11.5 35.5q0 22 12.5 35t31.5 13q40 0 40 -34h-22q-3 18 -18 18q-22 0 -22 -32q0 -30 22 -30q15 0 18 16h22q-3 -34 -42 -34zM2086 -418q-23 0 -35.5 13t-12.5 35t12.5 35
t35.5 13q21 0 32.5 -13.5t11.5 -34.5t-11.5 -34.5t-32.5 -13.5zM2168 -368v-46h-22v90h22v-14l8 10q9 6 18 6q21 0 28 -18l8 12q9 6 20 6t19.5 -7t8.5 -15q2 -6 2 -18v-52h-22v46q0 3 -1 7.5t-1 6.5q0 16 -16 16t-16 -30v-46h-22v60q-3 16 -16 16q-18 0 -18 -30zM270 -348
l-14 -66h-26l-30 90h28l14 -72l14 70h28l16 -70l16 72h24l-28 -90h-26zM412 -348l-18 -66h-26l-28 90h26l16 -72l16 70h28l14 -70l16 72h24l-28 -90h-26zM550 -348l-14 -66h-28l-28 90h26l16 -72l14 70h28l16 -70l16 72h24l-28 -90h-26zM974 -324v-90h-22v90h22zM1396 -324
l-34 -90h-28l-32 90h24l22 -74l22 74h26zM702 -400q24 0 24 30v2q0 30 -22 30q-24 0 -24 -32q0 -30 22 -30zM788 -362h40q-3 24 -20 24t-20 -24zM1036 -398q24 0 24 28v2q0 30 -24 30q-22 0 -22 -30t22 -30zM1248 -400q24 0 24 30q0 32 -24 32q-22 0 -22 -32q0 -30 22 -30z
M1598 -400q24 0 24 30q0 32 -24 32q-22 0 -22 -32q0 -30 22 -30zM2086 -400q22 0 22 30q0 32 -22 32q-24 0 -24 -32q0 -30 24 -30zM1438 -400q8 0 13 5t5 13v8q-30 3 -30 -16q0 -10 12 -10zM630 -418q-12 0 -12 14t12 14q14 0 14 -14t-14 -14zM1918 -418q-14 0 -14 14t14 14
t14 -14t-14 -14z" />
    <glyph glyph-name="tildecomb_acutecomb" horiz-adv-x="0" 
d="M1196 1796l-417 -286h-240l341 286h316zM847 1236q-54 0 -102 27t-86 53.5t-67 26.5q-38 0 -56.5 -22.5t-25.5 -77.5h-164q11 120 84 192.5t180 72.5q42 0 81.5 -17t64 -37.5t54 -37.5t54.5 -17q75 0 79 100h163q-10 -118 -82 -190.5t-177 -72.5z" />
    <glyph glyph-name="_Fontastica" horiz-adv-x="1459" 
d="M356 512v-312h-180q-3 0 -4.5 2t-1.5 4v2v1082h812v-160h-626v-450h626v-168h-626zM1288 1290v-1090h-810v170h626v442h-626v172h626v306h184zM828 34q-35 0 -56 18l12 26q22 -18 44 -18q10 0 12 2q4 0 4 8q0 4 -4 6q-12 8 -20 8q-10 5 -22 8l-5 3q-5 3 -7 7q-6 9 -6 18
q0 19 14.5 29.5t33.5 10.5q24 0 48 -14l-12 -26q-18 12 -36 12q-14 0 -14 -8q0 -10 22 -16q21 -5 22 -6q2 -1 7 -5t7 -5q4 -12 4 -20q0 -38 -48 -38zM338 32q-29 0 -47.5 18t-18.5 46q0 27 18.5 44.5t47.5 17.5q27 0 45.5 -17.5t18.5 -44.5t-18 -45.5t-46 -18.5zM1110 32
q-26 0 -44 18.5t-18 45.5t18.5 44.5t45.5 17.5q28 0 48 -20l-18 -22q-13 16 -30 16q-13 0 -23.5 -10t-10.5 -28q0 -7 6 -16q9 -18 28 -18q16 0 30 14l20 -18q-24 -24 -52 -24zM206 78v-42h-30v120h90v-24h-60v-28h54v-26h-54zM448 108v-72h-30v120h28l56 -72v72h30v-120h-28
zM612 130v-94h-30v94h-38v26h104v-26h-36zM676 56l-8 -20h-32l52 120h32l52 -120h-34l-10 20h-52zM952 130v-94h-34v94h-34v26h102v-26h-34zM1030 156v-120h-30v120h30zM1200 56l-8 -20h-32l52 120h32l52 -120h-34l-8 20h-54zM338 60q14 0 23 10.5t9 23.5q0 8 -4 20
q-6 18 -28 18q-15 0 -24.5 -10.5t-9.5 -25.5q0 -14 10 -25t24 -11zM718 80l-14 44l-18 -44h32zM1244 80l-16 44l-18 -44h34z" />
    <glyph glyph-name="_VendorID" horiz-adv-x="1122" 
d="M779 756q-104 0 -168.5 53.5t-53.5 126.5h74q-16 -43 29 -77.5t119 -34.5q62 0 105 26.5t43 65.5q0 68 -156 90q-99 15 -149.5 55t-50.5 99q0 66 58 109t144 43q96 0 158 -51t50 -123h-74q18 40 -24 73t-110 33q-56 0 -94 -24t-38 -58q0 -67 140 -86q106 -15 161 -56
t55 -104q0 -70 -62 -115t-156 -45zM189 1000v-234h-70v536h414v-70h-344v-164h324v-68h-324zM779 126q-102 0 -167.5 53.5t-54.5 128.5h74q-16 -43 29 -77.5t119 -34.5q62 0 105 25.5t43 64.5q0 71 -152 92q-100 15 -152 54.5t-52 99.5q0 66 58.5 109t145.5 43q96 0 157 -51
t49 -123h-74q18 40 -23.5 73t-108.5 33q-56 0 -95 -24t-39 -60q0 -62 138 -84q218 -30 218 -162q0 -69 -62 -114.5t-156 -45.5zM189 370v-232h-70v534h414v-68h-344v-164h324v-70h-324zM305 34q-7 0 -12.5 6.5t-5.5 15.5q0 22 20 22q8 0 10 -2l4 -4v22h10v-58h-10v6l-4 -4
q-4 -4 -12 -4zM699 70v-34h-12v34h-4v6h4v8q0 10 16 10h4v-8q-8 3 -8 -4v-6h8v-6h-8zM433 82q-6 0 -6 6q0 4 6 4t6 -4q0 -6 -6 -6zM831 42v-8h-6q-12 0 -12 10v26h-8v6h8v12h10v-12h8v-6h-8v-24q3 -6 8 -4zM105 66l-6 -30h-12l-14 42h12l8 -34l6 32h14l6 -32l8 34h12
l-14 -42h-12zM173 66l-8 -30h-14l-12 42h12l6 -34l8 32h14l6 -32l8 34h12l-14 -42h-12zM237 66l-6 -30h-14l-12 42h12l6 -34l8 32h14l6 -32l8 34h12l-14 -42h-12zM359 34q-20 0 -20 22t22 22q20 0 20 -22l-2 -2h-30q2 -12 10 -12q7 0 10 8h10q-3 -16 -20 -16zM403 34
q-17 0 -20 14h12q0 -8 8 -8q6 0 6 6q0 3 -10 8q-14 4 -14 12q0 12 18 12q16 0 16 -12h-10q-3 6 -8 6q-4 0 -4 -6q0 -4 10 -6q12 -3 12 -14q0 -12 -16 -12zM437 78v-42h-10v42h10zM467 18q-20 0 -20 14v2h10v-2q0 -6 10 -6q9 0 12 10v6l-4 -4q-2 -2 -10 -2q-20 0 -20 20
q0 22 20 22q8 0 10 -2l4 -4v6h10v-32v-8q0 -20 -22 -20zM509 54v-18h-10v42h10v-8l4 6q4 2 10 2q13 0 16 -12v-6v-24h-12v28q0 8 -8 8q-10 0 -10 -18zM567 34q-22 0 -22 22t22 22t22 -22t-22 -22zM637 78l-16 -42h-14l-14 42h10l12 -34l10 34h12zM653 34q-14 0 -14 12
q0 14 24 14h2v2v4q0 6 -6 6q-8 0 -8 -8h-10q0 14 18 14q15 0 18 -12v-30h-10l-2 4l-2 -4q-4 -2 -10 -2zM731 34q-9 0 -14.5 6.5t-5.5 15.5q0 22 20 22q22 0 22 -22t-22 -22zM771 54v-18h-10v42h10v-8l4 6q4 2 10 2q13 0 16 -12v-6v-24h-12v28q0 8 -8 8q-10 0 -10 -18z
M855 34q-17 0 -20 14h12q0 -8 8 -8q6 0 6 6q0 1 -10 8q-14 4 -14 12q0 12 16 12q15 0 18 -12h-12q0 6 -6 6q-4 0 -4 -6q0 -3 8 -6q14 -3 14 -14q0 -12 -16 -12zM915 34q-20 0 -20 22t22 22q18 0 18 -16h-10q-3 10 -8 10q-12 0 -12 -16q0 -14 12 -14q5 0 8 8h10
q-3 -16 -20 -16zM961 34q-22 0 -22 22t22 22t22 -22t-22 -22zM1001 56v-20h-10v42h10v-6l4 4q2 2 8 2q11 0 14 -8l4 6q2 2 8 2q14 0 14 -10v-32h-10v20v8q0 8 -8 8t-8 -16v-20h-10v28q0 8 -8 8t-8 -16zM309 42q12 0 12 14v2q0 14 -12 14q-10 0 -10 -16q0 -14 10 -14zM349 60
h20q-4 12 -10 12q-7 0 -10 -12zM467 42q12 0 12 14v2q0 14 -12 14q-10 0 -10 -16q0 -14 10 -14zM567 42q10 0 10 14q0 16 -10 16t-10 -16q0 -14 10 -14zM731 42q12 0 12 14q0 16 -12 16q-10 0 -10 -16q0 -14 10 -14zM961 42q12 0 12 14q0 16 -12 16q-10 0 -10 -16
q0 -14 10 -14zM657 42q8 0 8 8v4q-14 4 -14 -6q0 -6 6 -6zM275 34q-6 0 -6 6q0 8 6 8q8 0 8 -8q0 -6 -8 -6zM883 34q-6 0 -6 6q0 8 6 8t6 -8q0 -6 -6 -6z" />
    <glyph glyph-name="_Designova" horiz-adv-x="1656" 
d="M826 28q-127 0 -242.5 50t-199.5 134t-134 200.5t-50 243.5q1 128 51 243.5t134 199.5t200 133.5t243 49.5t243.5 -49.5t200.5 -133.5t134 -200t50 -243q0 -171 -84.5 -315.5t-229.5 -228.5t-316 -84zM828 102q149 0 276.5 74t201.5 201.5t74 276.5q0 113 -43.5 215.5
t-117 176.5t-175.5 118t-214 44q-113 0 -215.5 -43.5t-176.5 -117.5t-118 -176t-44 -215t43.5 -215.5t117.5 -176.5t176 -118t215 -44zM650 342h-2l26 24q19 16 30 50q8 24 25 72t25 72q32 90 64 146v2q-8 -8 -12 -14q-8 -8 -10 -14q-23 -29 -36 -64q-6 -6 -10 -6
q-114 6 -198 76q-10 10 -32 31t-32 31q-3 3 -8 9t-8 9q8 0 12 -4q53 -21 112 -30q45 -3 80 2q36 8 52 14q3 0 6 1t6.5 2.5t5.5 2.5q-6 4 -17.5 9.5t-18 9.5t-15.5 10.5t-15 14.5h20q41 0 84 20q74 46 154 70q33 10 64 10q5 0 23 1.5t27 0.5q64 -4 98 -38q7 -5 32 -36v-2
q-2 2 -6 2q-52 20 -94 4.5t-70 -58.5q-6 -11 -15 -33.5t-13 -30.5q-6 -12 -24 -56.5t-30 -67.5q-33 -69 -72 -116q-20 -27 -72 -64q-49 -37 -132 -62h-4z" />
    </font>
</defs>
</svg>
