<?xml version="1.0" standalone="no"?>
<!DOCTYPE svg PUBLIC "-//W3C//DTD SVG 1.1//EN" "http://www.w3.org/Graphics/SVG/1.1/DTD/svg11.dtd" >
<svg xmlns="http://www.w3.org/2000/svg" xmlns:xlink="http://www.w3.org/1999/xlink" version="1.1">
<metadata>
Created by FontForge 20170731 at Sun May  7 16:18:53 2023
 By Aleksey,,,
Copyright (c) 2023 by Designova. All rights reserved.
</metadata>
<defs>
<font id="Optika-Medium" horiz-adv-x="1458" >
  <font-face 
    font-family="Optika Medium"
    font-weight="500"
    font-stretch="normal"
    units-per-em="2048"
    panose-1="0 0 6 0 0 0 0 0 0 0"
    ascent="1638"
    descent="-410"
    x-height="1114"
    cap-height="1470"
    bbox="-904 -528 3448 2212"
    underline-thickness="50"
    underline-position="-150"
    unicode-range="U+000D-F8FF"
  />
<missing-glyph horiz-adv-x="1464" 
d="M1264 1470v-1470h-1064v1470h1064zM1096 1324h-728v-1176h728v1176z" />
    <glyph glyph-name=".notdef" horiz-adv-x="1464" 
d="M1264 1470v-1470h-1064v1470h1064zM1096 1324h-728v-1176h728v1176z" />
    <glyph glyph-name=".null" horiz-adv-x="0" 
 />
    <glyph glyph-name="nonmarkingreturn" horiz-adv-x="682" 
 />
    <glyph glyph-name="CR" unicode="&#xd;" horiz-adv-x="564" 
 />
    <glyph glyph-name="space" unicode=" " horiz-adv-x="564" 
 />
    <glyph glyph-name="exclam" unicode="!" horiz-adv-x="677" 
d="M460 1470l-40 -1006h-160l-38 1006h238zM342 -12q-58 0 -99 39t-41 95q0 58 40.5 96t99.5 38q58 0 96 -38t38 -96q0 -56 -38 -95t-96 -39z" />
    <glyph glyph-name="quotedbl" unicode="&#x22;" horiz-adv-x="1006" 
d="M401 1470l-14 -566h-150l-12 566h176zM781 1470l-14 -566h-150l-12 566h176z" />
    <glyph glyph-name="numbersign" unicode="#" horiz-adv-x="1418" 
d="M466 378l-46 -378h-150l46 378h-290v154h310l52 406h-294v154h312l48 378h148l-46 -378h394l46 378h150l-46 -378h290v-154h-310l-50 -406h292v-154h-310l-46 -378h-150l46 378h-396zM932 938h-394l-54 -406h398z" />
    <glyph glyph-name="dollar" unicode="$" horiz-adv-x="1388" 
d="M772 -14v-238h-134v238q-153 7 -290 56.5t-220 125.5l78 164q77 -69 192.5 -115t239.5 -53v484q-87 21 -148.5 41t-127.5 54t-106 75.5t-66 104.5t-26 143q0 114 60 210q114 183 414 206v240h134v-238q250 -10 428 -128l-70 -168q-164 108 -358 118v-490
q64 -15 109.5 -28t100 -33t92.5 -41.5t75.5 -52.5t60 -67.5t36.5 -85t14 -106.5q0 -113 -60 -206q-57 -88 -165 -143t-263 -67zM638 850v454q-76 -10 -116 -28q-152 -60 -152 -200q0 -80 50 -124q67 -62 218 -102zM772 618v-452q78 6 126 26q156 58 156 196q0 74 -48 122
q-70 64 -234 108z" />
    <glyph glyph-name="percent" unicode="%" horiz-adv-x="1912" 
d="M491 680q-97 0 -178 50q-79 51 -121.5 142t-42.5 210t44 210q42 90 120 140t178 50q104 0 180 -50q77 -50 118.5 -140.5t41.5 -209.5q0 -120 -42 -210q-42 -91 -119.5 -141.5t-178.5 -50.5zM1539 1470l-1004 -1470h-162l1004 1470h162zM491 800q96 0 151 75t55 207
t-55 206t-151 74q-95 0 -150.5 -74.5t-55.5 -205.5q0 -130 55.5 -206t150.5 -76zM1421 -12q-102 0 -178 50q-78 51 -120 141t-42 209q0 120 42 210q42 91 120 141.5t178 50.5q99 0 180 -50q77 -52 119.5 -142.5t42.5 -209.5q0 -117 -42 -210q-44 -91 -121.5 -140.5
t-178.5 -49.5zM1421 108q95 0 150.5 74.5t55.5 205.5q0 130 -55.5 206t-150.5 76t-150.5 -75.5t-55.5 -206.5t55.5 -205.5t150.5 -74.5z" />
    <glyph glyph-name="ampersand" unicode="&#x26;" horiz-adv-x="1442" 
d="M1223 308l198 -196l-114 -136l-196 196q-194 -188 -490 -188q-149 0 -266 48q-117 49 -183.5 135.5t-66.5 198.5q0 95 44 180q75 135 314 274q-62 59 -98 110q-78 106 -78 222q0 100 50 176q48 74 137.5 114t208.5 40q110 0 194 -36q172 -80 172 -270q0 -82 -40 -156
q-61 -108 -274 -228l364 -360q60 112 90 266l162 -54q-38 -190 -128 -336zM623 906q49 26 124 74q71 50 101.5 95.5t30.5 98.5q0 72 -52 117t-144 45q-98 0 -154 -48.5t-56 -129.5q0 -60 34.5 -115.5t115.5 -136.5zM633 152q140 0 254 60q68 39 104 78l-418 416
q-77 -44 -138 -88q-70 -56 -101 -111.5t-31 -120.5q0 -68 42 -122q41 -53 115.5 -82.5t172.5 -29.5z" />
    <glyph glyph-name="quotesingle" unicode="'" horiz-adv-x="536" 
d="M356 1470l-14 -566h-150l-12 566h176z" />
    <glyph glyph-name="parenleft" unicode="(" horiz-adv-x="766" 
d="M655 -408h-190q-121 192 -185.5 444t-64.5 540t64.5 541t185.5 441h190q-244 -430 -244 -982q0 -554 244 -984z" />
    <glyph glyph-name="parenright" unicode=")" horiz-adv-x="769" 
d="M301 -408h-190q244 425 244 984q0 557 -244 982h190q124 -186 188 -438t64 -544q0 -291 -64 -542.5t-188 -441.5z" />
    <glyph glyph-name="asterisk" unicode="*" horiz-adv-x="986" 
d="M553 1060l4 -286h-126l2 286l-254 -148l-66 114l252 142l-252 138l66 118l254 -150l-2 284h126l-4 -284l256 150l64 -118l-250 -138l250 -142l-64 -114z" />
    <glyph glyph-name="plus" unicode="+" horiz-adv-x="1346" 
d="M762 652v-376h-178v376h-382v164h382v378h178v-378h382v-164h-382z" />
    <glyph glyph-name="comma" unicode="," horiz-adv-x="623" 
d="M375 -18l-98 -292h-132l78 310q-41 14 -65.5 49t-24.5 83q0 62 41.5 103t100.5 41q61 0 98.5 -41t37.5 -103q0 -63 -36 -150z" />
    <glyph glyph-name="hyphen" unicode="-" horiz-adv-x="856" 
d="M711 664v-174h-564v174h564z" />
    <glyph glyph-name="period" unicode="." horiz-adv-x="655" 
d="M331 -12q-60 0 -102 41t-42 103t42 103t102 41q58 0 98 -41t40 -103t-40 -103t-98 -41z" />
    <glyph glyph-name="slash" unicode="/" horiz-adv-x="961" 
d="M917 1768l-692 -1978h-182l692 1978h182z" />
    <glyph glyph-name="zero" unicode="0" horiz-adv-x="1500" 
d="M752 -16q-173 0 -308 88q-139 91 -216.5 260.5t-77.5 403.5q0 237 80 406q79 168 213.5 256t308.5 88t306 -88q139 -89 215.5 -258t76.5 -404q0 -243 -78 -408q-75 -167 -211.5 -255.5t-308.5 -88.5zM752 170q113 0 204 64q88 65 136 192t48 310q0 186 -48 312
q-50 125 -137.5 188.5t-202.5 63.5q-116 0 -204 -64q-188 -134 -188 -500q0 -186 52 -314q47 -124 135 -188t205 -64z" />
    <glyph glyph-name="one" unicode="1" horiz-adv-x="810" 
d="M656 1470v-1470h-198l2 1270l-188 -241l-147 105l263 336h268z" />
    <glyph glyph-name="two" unicode="2" horiz-adv-x="1404" 
d="M1254 182v-182h-1056v142l598 578q80 77 120 134q66 100 66 202q0 115 -81.5 179.5t-232.5 64.5q-242 0 -376 -160l-142 124q82 107 223.5 164.5t314.5 57.5q152 0 266 -48q114 -50 176 -142.5t62 -217.5q0 -65 -20 -142q-41 -144 -222 -320l-450 -434h754z" />
    <glyph glyph-name="three" unicode="3" horiz-adv-x="1396" 
d="M690 -16q-156 0 -301.5 48t-238.5 130l98 166q76 -71 194 -114.5t248 -43.5q163 0 254.5 69.5t91.5 190.5q0 120 -89.5 188t-272.5 68h-118v148l370 454h-708v182h970v-142l-384 -476q215 -19 328.5 -132t113.5 -288q0 -121 -60 -226q-134 -222 -496 -222z" />
    <glyph glyph-name="four" unicode="4" horiz-adv-x="1600" 
d="M1170 362v-362h-204v362h-816v146l752 962h268v-928h280v-180h-280zM974 542v728l-566 -728h566z" />
    <glyph glyph-name="five" unicode="5" horiz-adv-x="1396" 
d="M690 -16q-156 0 -301.5 48t-238.5 130l96 166q77 -71 194.5 -114.5t247.5 -43.5q165 0 256.5 71t91.5 191q0 87 -40 144q-80 126 -406 126h-334l78 768h830v-182h-654l-38 -404h162q223 0 356 -56q256 -109 256 -386q0 -119 -60 -230q-64 -108 -188.5 -168t-307.5 -60z
" />
    <glyph glyph-name="six" unicode="6" horiz-adv-x="1440" 
d="M768 -16q-198 0 -334 86q-139 86 -211.5 249.5t-72.5 396.5q0 248 90 422q86 170 243.5 259t362.5 89q231 0 366 -86l-80 -164q-99 70 -282 70q-230 0 -360 -141.5t-130 -412.5v-54q35 47 56 64q133 130 370 130q146 0 260 -54q115 -57 179.5 -156.5t64.5 -233.5
q0 -143 -70 -246q-68 -106 -186 -162t-266 -56zM760 154q98 0 170 36q74 37 115 100.5t41 147.5q0 132 -90 208t-246 76q-102 0 -178 -38t-118 -102t-42 -146q0 -78 40 -138q41 -67 119.5 -105.5t188.5 -38.5z" />
    <glyph glyph-name="seven" unicode="7" horiz-adv-x="1408" 
d="M1258 1328l-594 -1328h-224l582 1288h-872v182h1108v-142z" />
    <glyph glyph-name="eight" unicode="8" horiz-adv-x="1468" 
d="M732 -16q-184 0 -308 52q-131 53 -202.5 151t-71.5 229t70 222q65 89 186 134q-99 48 -151.5 129t-52.5 187q0 121 68 214q66 89 185.5 136.5t276.5 47.5q160 0 280 -48q122 -49 188 -138t66 -212q0 -117 -64 -202q-50 -68 -142 -114q126 -48 192 -139.5t66 -216.5
q0 -131 -72 -230q-71 -98 -203.5 -150t-310.5 -52zM732 844q153 0 240.5 63t87.5 173t-89.5 173t-238.5 63q-148 0 -235 -63t-87 -173t85.5 -173t236.5 -63zM732 154q176 0 276 71.5t100 196.5q0 122 -100 192t-276 70q-174 0 -273 -70t-99 -192q0 -125 99 -196.5t273 -71.5
z" />
    <glyph glyph-name="nine" unicode="9" horiz-adv-x="1436" 
d="M592 -16q-231 0 -366 86l80 164q105 -70 284 -70q227 0 356.5 141.5t129.5 412.5v50q-25 -35 -50 -58q-138 -132 -374 -132q-144 0 -258 54q-115 57 -179.5 156.5t-64.5 233.5q0 145 70 248q67 104 185 160t265 56q202 0 338 -86q278 -174 278 -646q0 -252 -88 -422
q-87 -172 -241.5 -260t-364.5 -88zM688 748q102 0 178 38q77 38 119.5 102.5t42.5 145.5q0 80 -40 140q-41 66 -120 104t-190 38q-94 0 -168 -34q-156 -80 -156 -250q0 -132 90 -208t244 -76z" />
    <glyph glyph-name="colon" unicode=":" horiz-adv-x="655" 
d="M331 836q-60 0 -102 41t-42 103t42 103t102 41q58 0 98 -41t40 -103t-40 -103t-98 -41zM331 -12q-60 0 -102 41t-42 103t42 103t102 41q58 0 98 -41t40 -103t-40 -103t-98 -41z" />
    <glyph glyph-name="semicolon" unicode=";" horiz-adv-x="601" 
d="M277 836q-60 0 -102 41t-42 103t42 103t102 41q58 0 98 -41t40 -103t-40 -103t-98 -41zM379 -18l-98 -292h-132l78 310q-41 14 -65.5 49t-24.5 83q0 62 41.5 103t100.5 41q61 0 98.5 -41t37.5 -103q0 -63 -36 -150z" />
    <glyph glyph-name="less" unicode="&#x3c;" horiz-adv-x="1386" 
d="M418 736l746 -288v-174l-942 370v182l942 372v-176z" />
    <glyph glyph-name="equal" unicode="=" horiz-adv-x="1469" 
d="M1205 1066v-166h-942v166h942zM1205 570v-166h-942v166h942z" />
    <glyph glyph-name="greater" unicode="&#x3e;" horiz-adv-x="1386" 
d="M1164 826v-182l-942 -370v174l748 288l-748 286v176z" />
    <glyph glyph-name="question" unicode="?" horiz-adv-x="1212" 
d="M745 464h-210q0 186 186 342q46 39 70.5 62t55 60t44.5 74.5t14 79.5q0 102 -80.5 164t-219.5 62q-246 0 -376 -166l-154 110q187 234 544 234q155 0 264 -44q113 -46 173.5 -129.5t60.5 -198.5q0 -114 -47.5 -194t-136.5 -160q-48 -42 -72 -65t-56 -62.5t-46 -80.5
t-14 -88zM643 -12q-58 0 -97 39t-39 95q0 58 38.5 96t97.5 38t96.5 -38t37.5 -96q0 -56 -38 -95t-96 -39z" />
    <glyph glyph-name="at" unicode="@" horiz-adv-x="2140" 
d="M1069 -424q-216 0 -396.5 70t-313.5 200q-132 129 -203 305.5t-71 382.5q0 205 71.5 380t204.5 304q132 129 314.5 197.5t401.5 68.5q431 0 706 -256q132 -124 202 -294t70 -372q0 -180 -44 -306q-44 -129 -128 -198.5t-202 -69.5q-101 0 -167 52t-85 150
q-132 -202 -398 -202q-153 0 -264 70q-117 72 -183.5 194t-66.5 276q0 155 66 278q68 122 184 189t264 67q143 0 254 -60q75 -45 130 -118v170h182v-756q0 -79 33 -114.5t87 -35.5q60 0 108 48q88 97 88 364q0 353 -232 570q-231 216 -604 216q-370 0 -606 -226
q-113 -110 -172.5 -260t-59.5 -326q0 -180 59 -330.5t171 -259.5q231 -228 600 -228q223 0 404 92l48 -134q-93 -47 -215 -72.5t-237 -25.5zM1061 152q106 0 184 46q82 44 128 130t46 200q0 120 -46 200q-46 83 -127.5 127.5t-184.5 44.5q-110 0 -186 -44q-82 -45 -127 -130
t-45 -198q0 -118 46 -198q45 -85 126 -131.5t186 -46.5z" />
    <glyph glyph-name="A" unicode="A" horiz-adv-x="1692" 
d="M467 402l-176 -402h-216l666 1470h208l668 -1470h-222l-176 402h-752zM1145 570l-302 686l-302 -686h604z" />
    <glyph glyph-name="B" unicode="B" horiz-adv-x="1564" 
d="M852 0h-702v1470h670q276 0 420 -99.5t144 -282.5q0 -118 -55.5 -201.5t-154.5 -128.5q-2 -1 -7 -2t-7 -2q16 -4 44 -16q99 -47 154.5 -133.5t55.5 -208.5q0 -191 -143 -293.5t-419 -102.5zM812 1306h-452v-472h452q360 0 360 238q0 234 -360 234zM844 660h-484v-490h484
q358 0 358 244q0 246 -358 246z" />
    <glyph glyph-name="C" unicode="C" horiz-adv-x="1638" 
d="M928 -16q-340 0 -554 214q-107 103 -165.5 239.5t-58.5 298.5q0 323 224 538q218 212 556 212q172 0 315.5 -57.5t242.5 -170.5l-136 -132q-165 174 -414 174t-413.5 -160t-164.5 -404q0 -245 164 -405.5t414 -160.5t414 176l136 -132q-100 -112 -244 -171t-316 -59z" />
    <glyph glyph-name="D" unicode="D" horiz-adv-x="1714" 
d="M770 0h-620v1470h620q232 0 416 -92q181 -94 279.5 -260t98.5 -382q0 -214 -98 -386q-103 -166 -283.5 -258t-412.5 -92zM758 1288h-398v-1106h398q179 0 316 70q133 70 206.5 195t73.5 289q0 162 -74 288q-75 126 -208.5 195t-313.5 69z" />
    <glyph glyph-name="E" unicode="E" 
d="M1302 182v-182h-1152v1470h1158v-182h-948v-466h858v-180h-858v-460h942z" />
    <glyph glyph-name="F" unicode="F" 
d="M360 642v-642h-210v1470h1158v-182h-948v-466h858v-180h-858z" />
    <glyph glyph-name="G" unicode="G" horiz-adv-x="1654" 
d="M934 -16q-343 0 -560 214q-224 211 -224 538q0 325 226 538q218 212 562 212q364 0 566 -226l-130 -130q-173 170 -428 170q-167 0 -301 -72t-209.5 -201t-75.5 -291t75.5 -291.5t209 -202t299.5 -72.5q195 0 346 94v378h-474v180h674v-652q-106 -91 -251 -138.5
t-305 -47.5z" />
    <glyph glyph-name="H" unicode="H" horiz-adv-x="1564" 
d="M360 656v-656h-210v1470h210v-632h844v632h210v-1470h-210v656h-844z" />
    <glyph glyph-name="I" unicode="I" horiz-adv-x="510" 
d="M360 1470v-1470h-210v1470h210z" />
    <glyph glyph-name="J" unicode="J" horiz-adv-x="1542" 
d="M770 -16q-292 0 -455.5 166t-164.5 480h210q6 -460 412 -460q416 0 416 472v828h204v-836q0 -316 -163 -483t-459 -167z" />
    <glyph glyph-name="K" unicode="K" horiz-adv-x="1588" 
d="M360 380v-380h-210v1470h210v-822l798 822h240l-628 -662l668 -808h-246l-562 654z" />
    <glyph glyph-name="L" unicode="L" horiz-adv-x="1452" 
d="M1302 182v-182h-1152v1470h210v-1288h942z" />
    <glyph glyph-name="M" unicode="M" horiz-adv-x="1866" 
d="M352 1064v-1064h-202v1470h172l614 -1034l604 1034h172l4 -1470h-202l-2 1072l-532 -894h-96z" />
    <glyph glyph-name="N" unicode="N" horiz-adv-x="1564" 
d="M360 1096v-1096h-210v1470h172l882 -1096v1096h210v-1470h-172z" />
    <glyph glyph-name="O" unicode="O" horiz-adv-x="1864" 
d="M934 -16q-166 0 -310 56.5t-250 159.5q-108 102 -166 238.5t-58 297.5q0 321 224 536q106 103 249 158.5t311 55.5q337 0 558 -212q222 -213 222 -538q0 -329 -222 -538q-220 -214 -558 -214zM934 170q160 0 290.5 73t205 203t74.5 290t-74.5 289t-205 202t-290.5 73
q-162 0 -293.5 -73t-206 -202t-74.5 -289q0 -244 164 -405t410 -161z" />
    <glyph glyph-name="P" unicode="P" horiz-adv-x="1536" 
d="M360 446v-446h-210v1470h622q195 0 330 -60q137 -62 210.5 -178t73.5 -274q0 -157 -74 -274q-74 -115 -211.5 -176.5t-328.5 -61.5h-412zM766 1288h-406v-660h406q200 0 305 85.5t105 244.5t-105 244.5t-305 85.5z" />
    <glyph glyph-name="Q" unicode="Q" horiz-adv-x="1936" 
d="M1482 186l304 -294l-124 -126l-326 316q-178 -98 -402 -98q-166 0 -310 56.5t-250 159.5q-108 102 -166 238.5t-58 297.5q0 321 224 536q106 103 249 158.5t311 55.5q337 0 558 -212q222 -213 222 -538q0 -329 -222 -538zM934 170q160 0 290.5 73t205 203t74.5 290
t-74.5 289t-205 202t-290.5 73q-162 0 -293.5 -73t-206 -202t-74.5 -289q0 -244 164 -405t410 -161z" />
    <glyph glyph-name="R" unicode="R" horiz-adv-x="1536" 
d="M360 446v-446h-210v1470h622q195 0 330 -60q137 -62 210.5 -178t73.5 -274q0 -157 -74 -274q-98 -150 -290 -206l340 -478h-228l-314 446h-460zM766 1288h-406v-660h406q200 0 305 85.5t105 244.5t-105 244.5t-305 85.5z" />
    <glyph glyph-name="S" unicode="S" horiz-adv-x="1432" 
d="M712 -16q-167 0 -320 50.5t-242 133.5l78 164q86 -76 217 -123t267 -47q130 0 208 30q156 58 156 196q0 74 -48 122q-83 75 -302 124q-56 13 -94 22t-88.5 24t-84.5 28.5t-74.5 34t-67.5 42t-54 51t-42.5 63t-25 76t-9.5 91.5q0 114 60 210q63 99 189 154.5t313 55.5
q130 0 256 -34t218 -96l-70 -168q-180 120 -404 120q-125 0 -204 -32q-152 -60 -152 -200q0 -80 50 -124q46 -43 118.5 -70.5t181.5 -51.5q79 -19 119.5 -30t108.5 -32.5t104 -41.5t82 -52.5t69 -69.5t40 -88.5t17 -113.5q0 -113 -60 -206q-64 -100 -192.5 -156t-317.5 -56z
" />
    <glyph glyph-name="T" unicode="T" horiz-adv-x="1516" 
d="M862 1288v-1288h-208v1288h-504v182h1216v-182h-504z" />
    <glyph glyph-name="U" unicode="U" horiz-adv-x="1544" 
d="M772 -16q-294 0 -458 167.5t-164 482.5v836h210v-828q0 -240 106.5 -356t307.5 -116q416 0 416 472v828h204v-836q0 -316 -163.5 -483t-458.5 -167z" />
    <glyph glyph-name="V" unicode="V" horiz-adv-x="1650" 
d="M1575 1470l-646 -1470h-208l-646 1470h226l530 -1208l534 1208h210z" />
    <glyph glyph-name="W" unicode="W" horiz-adv-x="2380" 
d="M1191 1174l-400 -1174h-226l-490 1470h216l396 -1194l414 1194h194l404 -1202l406 1202h200l-492 -1470h-220z" />
    <glyph glyph-name="X" unicode="X" horiz-adv-x="1658" 
d="M826 606l-436 -606h-240l552 754l-520 716h240l412 -564l408 564h228l-518 -710l556 -760h-242z" />
    <glyph glyph-name="Y" unicode="Y" horiz-adv-x="1676" 
d="M942 508v-508h-208v512l-584 958h224l470 -774l474 774h208z" />
    <glyph glyph-name="Z" unicode="Z" horiz-adv-x="1528" 
d="M1378 182v-182h-1228v142l924 1146h-908v182h1186v-142l-920 -1146h946z" />
    <glyph glyph-name="bracketleft" unicode="[" horiz-adv-x="800" 
d="M670 -242v-166h-440v1966h440v-166h-238v-1634h238z" />
    <glyph glyph-name="backslash" unicode="\" horiz-adv-x="962" 
d="M225 1768l694 -1978h-182l-694 1978h182z" />
    <glyph glyph-name="bracketright" unicode="]" horiz-adv-x="798" 
d="M568 1558v-1966h-438v166h238v1634h-238v166h438z" />
    <glyph glyph-name="asciicircum" unicode="^" horiz-adv-x="1091" 
d="M531 1006l-294 -708h-162l372 874h168l368 -874h-160z" />
    <glyph glyph-name="underscore" unicode="_" horiz-adv-x="1009" 
d="M1029 0v-130h-1050v130h1050z" />
    <glyph glyph-name="grave" unicode="`" horiz-adv-x="1424" 
d="M602 1548l286 -274h-190l-352 274h256z" />
    <glyph glyph-name="a" unicode="a" horiz-adv-x="1268" 
d="M576 -16q-127 0 -224 40q-98 43 -150 120t-52 176q0 85 46 168q94 158 400 158h320v40q0 254 -282 254q-214 0 -268 -154l-172 96q46 115 159.5 176.5t280.5 61.5q230 0 357 -114.5t127 -325.5v-686h-196v116q-126 -126 -346 -126zM596 150q236 0 320 196v142h-316
q-252 0 -252 -164q0 -81 65.5 -127.5t182.5 -46.5z" />
    <glyph glyph-name="b" unicode="b" horiz-adv-x="1452" 
d="M740 -12q-148 0 -256 64q-84 45 -142 124v-176h-192v1470h200v-528q146 182 390 182q164 0 290 -72q128 -72 200 -200t72 -296q0 -165 -74 -298q-74 -129 -200 -199.5t-288 -70.5zM722 164q107 0 194 48q86 50 134 139t48 205q0 121 -48 208q-51 88 -136 136t-192 48
q-100 0 -188 -50q-88 -49 -137 -137t-49 -205q0 -114 52 -206q48 -88 132.5 -137t189.5 -49z" />
    <glyph glyph-name="c" unicode="c" horiz-adv-x="1342" 
d="M738 -12q-170 0 -302 72q-135 76 -210.5 204.5t-75.5 291.5t76 294q76 129 210 201.5t302 72.5q154 0 272 -60.5t182 -177.5l-154 -98q-53 79 -131.5 119.5t-170.5 40.5q-105 0 -196 -50q-88 -49 -137 -137t-49 -205q0 -120 50 -208q51 -87 137.5 -135.5t194.5 -48.5
q197 0 302 160l154 -98q-64 -114 -183 -176t-271 -62z" />
    <glyph glyph-name="d" unicode="d" horiz-adv-x="1454" 
d="M714 -12q-165 0 -288 70q-130 73 -203 202t-73 296q0 165 74 298q74 128 201.5 199t288.5 71q138 0 254 -64q76 -41 134 -114v524h202v-1470h-194v174q-138 -186 -396 -186zM730 164q106 0 190 48q87 50 135.5 139.5t48.5 204.5t-48 208q-51 87 -136 135.5t-190 48.5
q-101 0 -192 -50q-85 -50 -134.5 -137.5t-49.5 -204.5q0 -118 50 -206q51 -89 135.5 -137.5t190.5 -48.5z" />
    <glyph glyph-name="e" unicode="e" horiz-adv-x="1410" 
d="M748 -12q-177 0 -312 72q-136 76 -211 204t-75 292q0 161 74 294q73 129 199.5 201.5t284.5 72.5q163 0 286 -72q126 -71 196 -201t70 -301q0 -6 -6 -60h-902q9 -84 48 -142q51 -87 144 -135.5t212 -48.5q198 0 320 134l112 -130q-156 -180 -440 -180zM352 634h714
q-6 71 -42 140q-47 85 -128.5 132.5t-187.5 47.5q-103 0 -186 -46q-71 -43 -116 -114t-54 -160z" />
    <glyph glyph-name="f" unicode="f" horiz-adv-x="882" 
d="M440 948v-948h-202v948h-188v166h188v126q0 166 96.5 262t271.5 96q145 0 226 -64l-60 -154q-64 52 -156 52q-180 0 -180 -196v-122h324v-166h-320z" />
    <glyph glyph-name="g" unicode="g" horiz-adv-x="1476" 
d="M704 -422q-347 0 -508 228l162 130q101 -172 348 -172q404 0 416 448q-70 -82 -177 -124t-229 -42q-160 0 -288 70q-130 69 -204 191.5t-74 278.5q0 159 76 284q74 121 201 187.5t289 66.5q141 0 260 -58q87 -44 146 -114v134h204v-858q0 -316 -163 -483t-459 -167z
M738 222q109 0 198 46q88 47 136 129.5t48 188.5q0 107 -48 188q-52 83 -137.5 128.5t-196.5 45.5q-107 0 -198 -44q-88 -47 -137 -130t-49 -188q0 -108 50 -190t137 -128t197 -46z" />
    <glyph glyph-name="h" unicode="h" horiz-adv-x="1356" 
d="M350 574v-574h-200v1470h200v-514q64 80 165.5 124t228.5 44q136 0 240 -52q222 -111 222 -432v-640h-202v618q0 160 -78 242t-222 82q-107 0 -188 -42q-166 -88 -166 -326z" />
    <glyph glyph-name="i" unicode="i" horiz-adv-x="572" 
d="M286 1328q-58 0 -97 37t-39 93q0 57 38.5 94.5t97.5 37.5t97.5 -36.5t38.5 -91.5q0 -58 -37.5 -96t-98.5 -38zM386 1114v-1114h-200v1114h200z" />
    <glyph glyph-name="j" unicode="j" horiz-adv-x="474" 
d="M258 1328q-58 0 -97 37t-39 93q0 57 38.5 94.5t97.5 37.5t97.5 -36.5t38.5 -91.5q0 -58 -37.5 -96t-98.5 -38zM4 -420q-97 0 -164 28l52 156q42 -14 100 -14q80 0 123 50.5t43 145.5v1168h202v-1164q0 -173 -92.5 -271.5t-263.5 -98.5z" />
    <glyph glyph-name="k" unicode="k" horiz-adv-x="1398" 
d="M350 304v-304h-200v1470h200v-912l608 556h244l-470 -460l516 -654h-248l-418 518z" />
    <glyph glyph-name="l" unicode="l" horiz-adv-x="500" 
d="M350 1470v-1470h-200v1470h200z" />
    <glyph glyph-name="m" unicode="m" horiz-adv-x="2148" 
d="M350 574v-574h-200v1114h192v-166q59 83 159 129.5t225 46.5q130 0 232 -52.5t156 -153.5q64 96 176 151t252 55q132 0 236 -52q220 -112 220 -432v-640h-202v618q0 160 -75 242t-213 82q-101 0 -176 -42q-158 -87 -158 -326v-574h-202v618q0 161 -73.5 242.5
t-214.5 81.5q-99 0 -174 -42q-160 -90 -160 -326z" />
    <glyph glyph-name="n" unicode="n" horiz-adv-x="1356" 
d="M350 574v-574h-200v1114h192v-168q62 85 166.5 131.5t235.5 46.5q136 0 240 -52q222 -111 222 -432v-640h-202v618q0 160 -78 242t-222 82q-107 0 -188 -42q-166 -88 -166 -326z" />
    <glyph glyph-name="o" unicode="o" 
d="M730 -12q-169 0 -298 72q-132 76 -207 205.5t-75 290.5q0 163 76 294q76 129 207 201.5t297 72.5t298 -72q133 -73 206.5 -201t73.5 -295q0 -161 -74 -294q-76 -129 -208 -201.5t-296 -72.5zM730 164q107 0 194 48q85 50 132.5 139t47.5 205q0 115 -48 208
q-50 87 -135 135.5t-191 48.5q-101 0 -192 -50q-85 -50 -134.5 -137.5t-49.5 -204.5q0 -118 50 -206q51 -89 135.5 -137.5t190.5 -48.5z" />
    <glyph glyph-name="p" unicode="p" horiz-adv-x="1452" 
d="M350 168v-576h-200v1522h192v-178q69 92 171 140t227 48q164 0 290 -72q128 -72 200 -200t72 -296q0 -165 -74 -298q-74 -129 -200 -199.5t-288 -70.5q-144 0 -252 64q-82 46 -138 116zM722 164q107 0 194 48q86 50 134 139t48 205q0 121 -48 208q-51 88 -136 136
t-192 48q-100 0 -188 -50q-88 -49 -137 -137t-49 -205q0 -114 52 -206q48 -88 132.5 -137t189.5 -49z" />
    <glyph glyph-name="q" unicode="q" horiz-adv-x="1454" 
d="M1304 1114v-1522h-202v576q-70 -89 -169.5 -134.5t-218.5 -45.5q-165 0 -288 70q-130 73 -203 202t-73 296q0 165 74 298q74 128 201.5 199t288.5 71q142 0 258 -64q79 -41 138 -122v176h194zM730 164q106 0 190 48q87 50 135.5 139.5t48.5 204.5t-48 208
q-51 87 -136 135.5t-190 48.5q-101 0 -192 -50q-85 -50 -134.5 -137.5t-49.5 -204.5q0 -118 50 -206q51 -89 135.5 -137.5t190.5 -48.5z" />
    <glyph glyph-name="r" unicode="r" horiz-adv-x="898" 
d="M350 554v-554h-200v1114h192v-188q53 96 157 147t249 51v-196q-8 2 -24 2h-22q-164 0 -258 -97.5t-94 -278.5z" />
    <glyph glyph-name="s" unicode="s" horiz-adv-x="1092" 
d="M535 -12q-135 0 -261.5 36.5t-198.5 93.5l84 160q73 -51 179 -83.5t213 -32.5q264 0 264 150q0 27 -9.5 48t-31.5 36t-43 25.5t-58.5 19.5t-62.5 13.5t-71 11.5q-80 12 -133.5 24t-114 36t-96.5 56t-60 85t-24 123q0 98 56 176q58 76 162.5 117t245.5 41q114 0 226 -27
t180 -75l-86 -158q-136 88 -322 88q-128 0 -195 -42t-67 -112q0 -28 10 -50t31.5 -38t43.5 -27.5t58 -20.5t63 -14t70 -12q56 -9 95 -16.5t87.5 -21t81.5 -29t67 -39.5t54 -53t32.5 -69.5t12.5 -89.5q0 -101 -60 -176q-123 -154 -422 -154z" />
    <glyph glyph-name="t" unicode="t" horiz-adv-x="884" 
d="M592 -12q-170 0 -262 90t-92 258v612h-188v166h188v242h202v-242h320v-166h-320v-604q0 -90 45.5 -138t128.5 -48q97 0 158 52l62 -144q-87 -78 -242 -78z" />
    <glyph glyph-name="u" unicode="u" horiz-adv-x="1348" 
d="M630 -12q-149 0 -250 52q-230 110 -230 432v642h202v-618q0 -162 78 -245t222 -83q105 0 184 44q160 88 160 326v576h202v-1114h-190v168q-61 -87 -159.5 -133.5t-218.5 -46.5z" />
    <glyph glyph-name="v" unicode="v" horiz-adv-x="1180" 
d="M1180 1114l-488 -1114h-204l-488 1114h210l382 -894l390 894h198z" />
    <glyph glyph-name="w" unicode="w" horiz-adv-x="1864" 
d="M934 844l-326 -844h-194l-414 1114h192l324 -888l336 888h170l328 -892l332 892h182l-416 -1114h-194z" />
    <glyph glyph-name="x" unicode="x" horiz-adv-x="1200" 
d="M600 426l-326 -426h-224l438 570l-418 544h226l306 -402l304 402h220l-420 -544l444 -570h-230z" />
    <glyph glyph-name="y" unicode="y" horiz-adv-x="1180" 
d="M1180 1114l-722 -1642h-202l236 530l-492 1112h210l388 -892l384 892h198z" />
    <glyph glyph-name="z" unicode="z" horiz-adv-x="1232" 
d="M1082 166v-166h-932v130l658 818h-646v166h904v-134l-658 -814h674z" />
    <glyph glyph-name="braceleft" unicode="{" horiz-adv-x="855" 
d="M725 -242v-166h-94q-157 0 -236.5 79t-79.5 233v482q0 106 -94 106h-74v168h74q94 0 94 104v484q0 310 316 310h94v-166h-54q-154 0 -154 -164v-460q0 -84 -27.5 -128t-88.5 -64q61 -20 88.5 -65t27.5 -129v-460q0 -80 39 -122t115 -42h54z" />
    <glyph glyph-name="bar" unicode="|" horiz-adv-x="672" 
d="M430 1558v-1966h-188v1966h188z" />
    <glyph glyph-name="braceright" unicode="}" horiz-adv-x="852" 
d="M222 -408h-92v166h50q160 0 160 164v460q0 86 26.5 131t87.5 63q-61 20 -87.5 63t-26.5 129v460q0 164 -160 164h-50v166h92q320 0 320 -310v-484q0 -104 92 -104h72v-168h-72q-92 0 -92 -106v-482q0 -153 -81.5 -232.5t-238.5 -79.5z" />
    <glyph glyph-name="asciitilde" unicode="~" horiz-adv-x="1314" 
d="M870 556q-53 0 -103 21t-88.5 51t-74.5 60t-75 51t-77 21q-67 0 -107 -50t-45 -138h-132q4 170 79.5 257t198.5 87q53 0 102.5 -21t87.5 -51t74 -60t75 -51t77 -21q70 0 110 51.5t42 140.5h132q-4 -172 -78.5 -260t-197.5 -88z" />
    <glyph glyph-name="exclamdown" unicode="&#xa1;" horiz-adv-x="677" 
d="M342 854q-58 0 -99 39t-41 95t41 96t99 40t96 -40t38 -96t-38 -95t-96 -39zM420 648l40 -972h-238l38 972h160z" />
    <glyph glyph-name="cent" unicode="&#xa2;" horiz-adv-x="1248" 
d="M743 -10v-242h-134v244q-118 15 -218 68q-135 76 -210.5 204.5t-75.5 291.5t76 294q66 113 176.5 182.5t251.5 87.5v246h134v-244q287 -22 404 -236l-154 -98q-91 135 -250 154v-774q158 19 250 156l154 -98q-60 -105 -164.5 -166t-239.5 -70zM609 172v766
q-58 -9 -114 -40q-88 -49 -137 -137t-49 -205q0 -120 50 -208q83 -144 250 -176z" />
    <glyph glyph-name="sterling" unicode="&#xa3;" horiz-adv-x="1557" 
d="M1365 182v-182h-1230v182h228v484h-228v138h228v136q0 164 74 290q73 124 211.5 190t334.5 66q257 0 414 -104l-70 -174q-133 92 -364 92q-193 0 -292.5 -92t-99.5 -266v-138h558v-138h-558v-484h794z" />
    <glyph glyph-name="currency" unicode="&#xa4;" horiz-adv-x="1528" 
d="M433 218l-226 -222l-114 124l216 216q-116 148 -116 334q0 184 114 330l-214 214l114 124l222 -218q151 106 334 106q179 0 332 -104l220 216l116 -124l-212 -210q114 -149 114 -334q0 -189 -118 -336l216 -214l-116 -124l-224 220q-148 -100 -328 -100t-330 102z
M763 282q114 0 204 54q94 56 149 143t55 191q0 108 -56 196q-59 90 -150.5 142t-201.5 52q-115 0 -202 -52q-94 -55 -148 -144t-54 -194q0 -107 54 -194q57 -89 149.5 -141.5t200.5 -52.5z" />
    <glyph glyph-name="yen" unicode="&#xa5;" horiz-adv-x="1547" 
d="M877 246v-246h-208v246h-442v120h442v170h-442v120h380l-584 814h222l532 -744l532 744h216l-582 -814h378v-120h-444v-170h444v-120h-444z" />
    <glyph glyph-name="brokenbar" unicode="&#xa6;" horiz-adv-x="508" 
d="M348 1558v-734h-188v734h188zM348 328v-736h-188v736h188z" />
    <glyph glyph-name="section" unicode="&#xa7;" horiz-adv-x="1154" 
d="M542 -222q-74 0 -164 16q-178 41 -270 118l66 154q67 -55 169.5 -90.5t206.5 -35.5q121 0 188.5 45.5t67.5 128.5q0 35 -15.5 63.5t-37 46t-61 33.5t-69.5 24.5t-81 20.5q-43 10 -72 17t-67.5 18.5t-64.5 22.5t-57 26.5t-51.5 33t-41 40.5t-32 49.5t-19 60t-7.5 72.5
q0 178 156 274q-110 74 -110 224q0 105 58 180q58 77 166.5 119.5t255.5 42.5q97 0 212.5 -29t177.5 -75l-66 -154q-138 96 -338 96q-139 0 -212.5 -45t-73.5 -129q0 -34 15.5 -61t37.5 -44.5t61 -33.5t71.5 -24.5t82.5 -20.5q76 -18 127 -33t108.5 -43t91.5 -62.5
t56.5 -88.5t22.5 -123q0 -84 -40.5 -152.5t-111.5 -113.5q108 -79 108 -228q0 -100 -54 -178q-58 -77 -158 -119.5t-232 -42.5zM706 422q68 23 108 71.5t40 116.5q0 26 -8 48.5t-19.5 39t-33.5 31.5t-40 24.5t-51 20t-53.5 16.5t-58.5 16l-126 32q-72 -20 -115 -67.5
t-43 -116.5q0 -37 15 -66t37.5 -48t61 -36t71 -26.5t83.5 -21.5q64 -14 132 -34z" />
    <glyph glyph-name="dieresis" unicode="&#xa8;" horiz-adv-x="1412" 
d="M510 1310q-44 0 -75 31t-31 77q0 47 31 77.5t75 30.5q46 0 77 -30.5t31 -77.5q0 -46 -31.5 -77t-76.5 -31zM902 1310q-45 0 -76.5 31t-31.5 77q0 47 31 77.5t77 30.5q44 0 75 -30.5t31 -77.5q0 -46 -31 -77t-75 -31z" />
    <glyph glyph-name="copyright" unicode="&#xa9;" horiz-adv-x="1790" 
d="M892 -6q-312 0 -528 216q-102 102 -157 237t-55 289q0 153 56.5 288t159.5 238q102 102 237.5 158t290.5 56q156 0 292 -55t238 -157q210 -213 210 -524q0 -155 -56 -291.5t-158 -238.5q-219 -216 -530 -216zM892 88q136 0 255.5 51t204.5 138t134.5 207.5t49.5 255.5
q0 179 -82.5 326t-229.5 231.5t-328 84.5q-136 0 -255 -49t-207 -139q-182 -185 -182 -458q0 -135 49 -255t133.5 -206.5t203.5 -136.5t254 -50zM916 302q-124 0 -230 56q-102 55 -158 152.5t-56 225.5q0 129 56 226q57 98 159 152t229 54q110 0 199.5 -45t140.5 -125
l-120 -86q-75 112 -222 112q-122 0 -202 -80.5t-80 -207.5q0 -128 80 -209t202 -81q147 0 222 112l120 -84q-52 -80 -141 -126t-199 -46z" />
    <glyph glyph-name="ordfeminine" unicode="&#xaa;" horiz-adv-x="692" 
d="M290 890q-126 0 -195 55.5t-69 142.5q0 89 70 141.5t216 52.5h204v18q0 158 -184 158q-132 0 -230 -74l-56 94q54 43 136 66.5t166 23.5q152 0 232 -68t80 -204v-398h-134v84q-30 -41 -91.5 -66.5t-144.5 -25.5zM320 992q142 0 196 102v96h-186q-166 0 -166 -96
q0 -50 40.5 -76t115.5 -26z" />
    <glyph glyph-name="guillemotleft" unicode="&#xab;" horiz-adv-x="976" 
d="M244 556l296 -400h-184l-304 400l304 404h184zM648 556l296 -400h-184l-304 400l304 404h184z" />
    <glyph glyph-name="logicalnot" unicode="&#xac;" horiz-adv-x="1258" 
d="M1100 820v-540h-178v374h-764v166h942z" />
    <glyph glyph-name="uni00AD" unicode="&#xad;" horiz-adv-x="754" 
d="M658 664v-174h-564v174h564z" />
    <glyph glyph-name="registered" unicode="&#xae;" horiz-adv-x="1662" 
d="M828 -6q-312 0 -528 216q-102 102 -157 237t-55 289q0 153 56.5 288t159.5 238q102 102 237.5 158t290.5 56q156 0 292 -55t238 -157q210 -213 210 -524q0 -155 -56 -291.5t-158 -238.5q-219 -216 -530 -216zM828 88q136 0 255.5 51t204.5 138t134.5 207.5t49.5 255.5
q0 179 -82.5 326t-229.5 231.5t-328 84.5q-136 0 -255 -49t-207 -139q-182 -185 -182 -458q0 -135 49 -255t133.5 -206.5t203.5 -136.5t254 -50zM674 584v-268h-142v840h336q158 0 249 -77.5t91 -208.5q0 -94 -45.5 -160t-130.5 -98l190 -296h-144l-174 268h-230zM858 1036
h-186v-334h186q101 0 156.5 43.5t55.5 124.5q0 79 -55.5 122.5t-156.5 43.5z" />
    <glyph glyph-name="macron" unicode="&#xaf;" horiz-adv-x="1372" 
d="M1028 1474v-126h-684v126h684z" />
    <glyph glyph-name="degree" unicode="&#xb0;" horiz-adv-x="962" 
d="M479 800q-96 0 -174 46q-79 46 -124.5 123.5t-45.5 172.5q0 92 46 172q45 79 124 123.5t174 44.5q99 0 178 -44q79 -45 124.5 -123.5t45.5 -172.5t-46 -174q-47 -78 -126.5 -123t-175.5 -45zM483 914q94 0 159 65.5t65 160.5q0 100 -64 166t-160 66q-101 0 -165.5 -65
t-64.5 -167q0 -98 65 -162t165 -64z" />
    <glyph glyph-name="plusminus" unicode="&#xb1;" horiz-adv-x="1354" 
d="M766 754v-366h-178v366h-382v166h382v366h178v-366h382v-166h-382zM1148 166v-166h-942v166h942z" />
    <glyph glyph-name="uni00B2" unicode="&#xb2;" horiz-adv-x="816" 
d="M754 808v-122h-702v94l390 340q76 70 100 112q26 46 26 78q0 59 -53.5 95.5t-156.5 36.5q-159 0 -240 -94l-104 80q115 140 354 140q164 0 255 -69.5t91 -178.5q0 -67 -33 -125.5t-129 -142.5l-276 -244h478z" />
    <glyph glyph-name="uni00B3" unicode="&#xb3;" horiz-adv-x="794" 
d="M384 676q-114 0 -213.5 29t-152.5 77l60 112q50 -42 132 -67t174 -25q115 0 173.5 37.5t58.5 104.5q0 66 -56.5 104t-167.5 38h-98v98l236 252h-484v122h674v-94l-248 -268q140 -10 215 -78.5t75 -173.5q0 -74 -42 -134q-92 -134 -336 -134z" />
    <glyph glyph-name="acute" unicode="&#xb4;" horiz-adv-x="1424" 
d="M1078 1548l-352 -274h-190l286 274h256z" />
    <glyph glyph-name="paragraph" unicode="&#xb6;" horiz-adv-x="1412" 
d="M718 1400v-1610h-168v1016q-120 0 -226 48q-100 49 -155 133t-55 195q0 121 58 202q57 85 162.5 129.5t245.5 44.5h634v-1768h-168v1610h-328z" />
    <glyph glyph-name="periodcentered" unicode="&#xb7;" horiz-adv-x="655" 
d="M331 432q-59 0 -101.5 42t-42.5 104t42 102t102 40q61 0 99.5 -39.5t38.5 -102.5t-38.5 -104.5t-99.5 -41.5z" />
    <glyph glyph-name="cedilla" unicode="&#xb8;" horiz-adv-x="1362" 
d="M630 -470q-110 0 -188 46l44 102q66 -36 144 -36q118 0 118 84q0 82 -120 82h-58l54 206h114l-30 -120q87 -7 134.5 -54.5t47.5 -119.5q0 -87 -70.5 -138.5t-189.5 -51.5z" />
    <glyph glyph-name="uni00B9" unicode="&#xb9;" horiz-adv-x="589" 
d="M291 1559h206v-874h-151v720l-144 -187l-112 81z" />
    <glyph glyph-name="ordmasculine" unicode="&#xba;" horiz-adv-x="842" 
d="M420 890q-102 0 -190 44q-85 45 -132.5 123t-47.5 173q0 97 48 178q48 76 132 118t190 42q110 0 194 -42q85 -44 131.5 -121t46.5 -175q0 -99 -46 -174q-47 -78 -132.5 -122t-193.5 -44zM420 1012q103 0 167.5 61t64.5 157q0 99 -64 159.5t-168 60.5q-101 0 -165.5 -61
t-64.5 -159q0 -95 65 -156.5t165 -61.5z" />
    <glyph glyph-name="guillemotright" unicode="&#xbb;" horiz-adv-x="974" 
d="M518 556l-302 -400h-184l296 400l-296 404h184zM922 556l-302 -400h-184l296 400l-296 404h184z" />
    <glyph glyph-name="questiondown" unicode="&#xbf;" horiz-adv-x="1210" 
d="M571 854q-58 0 -97 39t-39 95t39 96t97 40q60 0 98 -39.5t38 -96.5t-38 -95.5t-98 -38.5zM593 -340q-153 0 -262 44q-114 45 -175 127.5t-61 192.5q0 111 47 186.5t139 153.5q88 77 112 104q72 82 72 180h210q0 -103 -48 -178.5t-136 -149.5q-47 -40 -70.5 -62t-55.5 -59
t-46 -74.5t-14 -78.5q0 -89 82 -148.5t220 -59.5q248 0 376 166l152 -110q-183 -234 -542 -234z" />
    <glyph glyph-name="Agrave" unicode="&#xc0;" horiz-adv-x="1842" 
d="M792 1864l286 -274h-190l-352 274h256zM542 402l-176 -402h-216l666 1470h208l668 -1470h-222l-176 402h-752zM1220 570l-302 686l-302 -686h604z" />
    <glyph glyph-name="Aacute" unicode="&#xc1;" horiz-adv-x="1842" 
d="M1304 1864l-352 -274h-190l286 274h256zM542 402l-176 -402h-216l666 1470h208l668 -1470h-222l-176 402h-752zM1220 570l-302 686l-302 -686h604z" />
    <glyph glyph-name="Acircumflex" unicode="&#xc2;" horiz-adv-x="1842" 
d="M920 1752l-194 -162h-182l280 274h192l280 -274h-182zM542 402l-176 -402h-216l666 1470h208l668 -1470h-222l-176 402h-752zM1220 570l-302 686l-302 -686h604z" />
    <glyph glyph-name="Atilde" unicode="&#xc3;" horiz-adv-x="1842" 
d="M1068 1598q-42 0 -83.5 22t-70 48t-63 48t-63.5 22q-47 0 -75.5 -34.5t-32.5 -95.5h-112q5 119 59.5 187.5t146.5 68.5q41 0 83 -22.5t70.5 -49.5t62.5 -49.5t62 -22.5q47 0 77 34.5t31 91.5h112q-2 -112 -57.5 -180t-146.5 -68zM542 402l-176 -402h-216l666 1470h208
l668 -1470h-222l-176 402h-752zM1220 570l-302 686l-302 -686h604z" />
    <glyph glyph-name="Adieresis" unicode="&#xc4;" horiz-adv-x="1842" 
d="M724 1626q-44 0 -75 31t-31 77q0 47 31 77.5t75 30.5q46 0 77 -30.5t31 -77.5q0 -46 -31.5 -77t-76.5 -31zM1116 1626q-45 0 -76.5 31t-31.5 77q0 47 31 77.5t77 30.5q44 0 75 -30.5t31 -77.5q0 -46 -31 -77t-75 -31zM542 402l-176 -402h-216l666 1470h208l668 -1470
h-222l-176 402h-752zM1220 570l-302 686l-302 -686h604z" />
    <glyph glyph-name="Aring" unicode="&#xc5;" horiz-adv-x="1842" 
d="M918 1606q-96 0 -164 66.5t-68 159.5q0 95 68 163.5t164 68.5q98 0 166 -68t68 -164q0 -93 -68.5 -159.5t-165.5 -66.5zM918 1694q61 0 99.5 39.5t38.5 98.5q0 62 -38.5 101t-99.5 39q-59 0 -97.5 -39t-38.5 -101q0 -59 37.5 -98.5t98.5 -39.5zM542 402l-176 -402h-216
l666 1470h208l668 -1470h-222l-176 402h-752zM1220 570l-302 686l-302 -686h604z" />
    <glyph glyph-name="AE" unicode="&#xc6;" horiz-adv-x="2384" 
d="M602 402l-236 -402h-216l876 1470h1178v-182h-830v-452h738v-178h-738v-476h860v-182h-1068v402h-564zM1166 1288h-42l-422 -718h464v718z" />
    <glyph glyph-name="Ccedilla" unicode="&#xc7;" horiz-adv-x="1638" 
d="M938 170q250 0 414 176l136 -132q-99 -109 -239 -168t-307 -62l-22 -90q87 -7 134.5 -54.5t47.5 -119.5q0 -87 -70.5 -138.5t-189.5 -51.5q-110 0 -188 46l44 102q66 -36 144 -36q118 0 118 84q0 82 -120 82h-58l48 182q-275 27 -456 208q-107 103 -165.5 239.5
t-58.5 298.5q0 323 224 538q218 212 556 212q172 0 315.5 -57.5t242.5 -170.5l-136 -132q-165 174 -414 174t-413.5 -160t-164.5 -404q0 -245 164 -405.5t414 -160.5z" />
    <glyph glyph-name="Egrave" unicode="&#xc8;" 
d="M544 1864l286 -274h-190l-352 274h256zM1302 182v-182h-1152v1470h1158v-182h-948v-466h858v-180h-858v-460h942z" />
    <glyph glyph-name="Eacute" unicode="&#xc9;" 
d="M1056 1864l-352 -274h-190l286 274h256zM1302 182v-182h-1152v1470h1158v-182h-948v-466h858v-180h-858v-460h942z" />
    <glyph glyph-name="Ecircumflex" unicode="&#xca;" 
d="M672 1752l-194 -162h-182l280 274h192l280 -274h-182zM1302 182v-182h-1152v1470h1158v-182h-948v-466h858v-180h-858v-460h942z" />
    <glyph glyph-name="Edieresis" unicode="&#xcb;" 
d="M476 1626q-44 0 -75 31t-31 77q0 47 31 77.5t75 30.5q46 0 77 -30.5t31 -77.5q0 -46 -31.5 -77t-76.5 -31zM868 1626q-45 0 -76.5 31t-31.5 77q0 47 31 77.5t77 30.5q44 0 75 -30.5t31 -77.5q0 -46 -31 -77t-75 -31zM1302 182v-182h-1152v1470h1158v-182h-948v-466h858
v-180h-858v-460h942z" />
    <glyph glyph-name="Igrave" unicode="&#xcc;" horiz-adv-x="842" 
d="M406 1864l286 -274h-190l-352 274h256zM638 1470v-1470h-210v1470h210z" />
    <glyph glyph-name="Iacute" unicode="&#xcd;" horiz-adv-x="842" 
d="M692 1864l-352 -274h-190l286 274h256zM412 1470v-1470h-210v1470h210z" />
    <glyph glyph-name="Icircumflex" unicode="&#xce;" horiz-adv-x="1052" 
d="M526 1752l-194 -162h-182l280 274h192l280 -274h-182zM630 1470v-1470h-210v1470h210z" />
    <glyph glyph-name="Idieresis" unicode="&#xcf;" horiz-adv-x="904" 
d="M256 1626q-44 0 -75 31t-31 77q0 47 31 77.5t75 30.5q46 0 77 -30.5t31 -77.5q0 -46 -31.5 -77t-76.5 -31zM648 1626q-45 0 -76.5 31t-31.5 77q0 47 31 77.5t77 30.5q44 0 75 -30.5t31 -77.5q0 -46 -31 -77t-75 -31zM556 1470v-1470h-210v1470h210z" />
    <glyph glyph-name="Eth" unicode="&#xd0;" horiz-adv-x="1930" 
d="M1402 1378q181 -94 279.5 -260t98.5 -382q0 -214 -98 -386q-103 -166 -283.5 -258t-412.5 -92h-620v666h-216v166h216v638h620q232 0 416 -92zM1290 252q133 70 206.5 195t73.5 289q0 162 -74 288q-75 126 -208.5 195t-313.5 69h-398v-456h414v-166h-414v-484h398
q179 0 316 70z" />
    <glyph glyph-name="Ntilde" unicode="&#xd1;" horiz-adv-x="1564" 
d="M928 1598q-42 0 -83.5 22t-70 48t-63 48t-63.5 22q-47 0 -75.5 -34.5t-32.5 -95.5h-112q5 119 59.5 187.5t146.5 68.5q41 0 83 -22.5t70.5 -49.5t62.5 -49.5t62 -22.5q47 0 77 34.5t31 91.5h112q-2 -112 -57.5 -180t-146.5 -68zM360 1096v-1096h-210v1470h172l882 -1096
v1096h210v-1470h-172z" />
    <glyph glyph-name="Ograve" unicode="&#xd2;" horiz-adv-x="1864" 
d="M806 1864l286 -274h-190l-352 274h256zM934 -16q-166 0 -310 56.5t-250 159.5q-108 102 -166 238.5t-58 297.5q0 321 224 536q106 103 249 158.5t311 55.5q337 0 558 -212q222 -213 222 -538q0 -329 -222 -538q-220 -214 -558 -214zM934 170q160 0 290.5 73t205 203
t74.5 290t-74.5 289t-205 202t-290.5 73q-162 0 -293.5 -73t-206 -202t-74.5 -289q0 -244 164 -405t410 -161z" />
    <glyph glyph-name="Oacute" unicode="&#xd3;" horiz-adv-x="1864" 
d="M1318 1864l-352 -274h-190l286 274h256zM934 -16q-166 0 -310 56.5t-250 159.5q-108 102 -166 238.5t-58 297.5q0 321 224 536q106 103 249 158.5t311 55.5q337 0 558 -212q222 -213 222 -538q0 -329 -222 -538q-220 -214 -558 -214zM934 170q160 0 290.5 73t205 203
t74.5 290t-74.5 289t-205 202t-290.5 73q-162 0 -293.5 -73t-206 -202t-74.5 -289q0 -244 164 -405t410 -161z" />
    <glyph glyph-name="Ocircumflex" unicode="&#xd4;" horiz-adv-x="1864" 
d="M934 1752l-194 -162h-182l280 274h192l280 -274h-182zM934 -16q-166 0 -310 56.5t-250 159.5q-108 102 -166 238.5t-58 297.5q0 321 224 536q106 103 249 158.5t311 55.5q337 0 558 -212q222 -213 222 -538q0 -329 -222 -538q-220 -214 -558 -214zM934 170
q160 0 290.5 73t205 203t74.5 290t-74.5 289t-205 202t-290.5 73q-162 0 -293.5 -73t-206 -202t-74.5 -289q0 -244 164 -405t410 -161z" />
    <glyph glyph-name="Otilde" unicode="&#xd5;" horiz-adv-x="1864" 
d="M1082 1598q-42 0 -83.5 22t-70 48t-63 48t-63.5 22q-47 0 -75.5 -34.5t-32.5 -95.5h-112q5 119 59.5 187.5t146.5 68.5q41 0 83 -22.5t70.5 -49.5t62.5 -49.5t62 -22.5q47 0 77 34.5t31 91.5h112q-2 -112 -57.5 -180t-146.5 -68zM934 -16q-166 0 -310 56.5t-250 159.5
q-108 102 -166 238.5t-58 297.5q0 321 224 536q106 103 249 158.5t311 55.5q337 0 558 -212q222 -213 222 -538q0 -329 -222 -538q-220 -214 -558 -214zM934 170q160 0 290.5 73t205 203t74.5 290t-74.5 289t-205 202t-290.5 73q-162 0 -293.5 -73t-206 -202t-74.5 -289
q0 -244 164 -405t410 -161z" />
    <glyph glyph-name="Odieresis" unicode="&#xd6;" horiz-adv-x="1864" 
d="M738 1626q-44 0 -75 31t-31 77q0 47 31 77.5t75 30.5q46 0 77 -30.5t31 -77.5q0 -46 -31.5 -77t-76.5 -31zM1130 1626q-45 0 -76.5 31t-31.5 77q0 47 31 77.5t77 30.5q44 0 75 -30.5t31 -77.5q0 -46 -31 -77t-75 -31zM934 -16q-166 0 -310 56.5t-250 159.5
q-108 102 -166 238.5t-58 297.5q0 321 224 536q106 103 249 158.5t311 55.5q337 0 558 -212q222 -213 222 -538q0 -329 -222 -538q-220 -214 -558 -214zM934 170q160 0 290.5 73t205 203t74.5 290t-74.5 289t-205 202t-290.5 73q-162 0 -293.5 -73t-206 -202t-74.5 -289
q0 -244 164 -405t410 -161z" />
    <glyph glyph-name="multiply" unicode="&#xd7;" horiz-adv-x="1183" 
d="M865 340l-274 278l-276 -278l-112 122l272 274l-272 272l112 122l276 -278l274 278l114 -122l-272 -272l272 -274z" />
    <glyph glyph-name="Oslash" unicode="&#xd8;" horiz-adv-x="1864" 
d="M1492 1274q222 -213 222 -538q0 -329 -222 -538q-220 -214 -558 -214q-215 0 -390 92l-160 -224h-164l212 296q-30 24 -58 52q-108 102 -166 238.5t-58 297.5q0 321 224 536q106 103 249 158.5t311 55.5q215 0 390 -92l160 224h164l-212 -296q27 -19 56 -48zM360 736
q0 -129 49.5 -239.5t138.5 -186.5l662 924q-129 66 -276 66q-162 0 -293.5 -73t-206 -202t-74.5 -289zM934 170q160 0 290.5 73t205 203t74.5 290q0 127 -48.5 236.5t-135.5 187.5l-662 -926q128 -64 276 -64z" />
    <glyph glyph-name="Ugrave" unicode="&#xd9;" horiz-adv-x="1544" 
d="M646 1864l286 -274h-190l-352 274h256zM772 -16q-294 0 -458 167.5t-164 482.5v836h210v-828q0 -240 106.5 -356t307.5 -116q416 0 416 472v828h204v-836q0 -316 -163.5 -483t-458.5 -167z" />
    <glyph glyph-name="Uacute" unicode="&#xda;" horiz-adv-x="1544" 
d="M1158 1864l-352 -274h-190l286 274h256zM772 -16q-294 0 -458 167.5t-164 482.5v836h210v-828q0 -240 106.5 -356t307.5 -116q416 0 416 472v828h204v-836q0 -316 -163.5 -483t-458.5 -167z" />
    <glyph glyph-name="Ucircumflex" unicode="&#xdb;" horiz-adv-x="1544" 
d="M774 1752l-194 -162h-182l280 274h192l280 -274h-182zM772 -16q-294 0 -458 167.5t-164 482.5v836h210v-828q0 -240 106.5 -356t307.5 -116q416 0 416 472v828h204v-836q0 -316 -163.5 -483t-458.5 -167z" />
    <glyph glyph-name="Udieresis" unicode="&#xdc;" horiz-adv-x="1544" 
d="M578 1626q-44 0 -75 31t-31 77q0 47 31 77.5t75 30.5q46 0 77 -30.5t31 -77.5q0 -46 -31.5 -77t-76.5 -31zM970 1626q-45 0 -76.5 31t-31.5 77q0 47 31 77.5t77 30.5q44 0 75 -30.5t31 -77.5q0 -46 -31 -77t-75 -31zM772 -16q-294 0 -458 167.5t-164 482.5v836h210v-828
q0 -240 106.5 -356t307.5 -116q416 0 416 472v828h204v-836q0 -316 -163.5 -483t-458.5 -167z" />
    <glyph glyph-name="Yacute" unicode="&#xdd;" horiz-adv-x="1676" 
d="M1222 1864l-352 -274h-190l286 274h256zM942 508v-508h-208v512l-584 958h224l470 -774l474 774h208z" />
    <glyph glyph-name="Thorn" unicode="&#xde;" horiz-adv-x="1488" 
d="M360 262v-262h-210v1470h210v-180h364q190 0 330 -62q138 -64 211 -178t73 -272q0 -156 -74 -276q-154 -240 -540 -240h-364zM718 1106h-358v-662h358q200 0 305 85.5t105 244.5q0 161 -105 246.5t-305 85.5z" />
    <glyph glyph-name="germandbls" unicode="&#xdf;" horiz-adv-x="1438" 
d="M782 -12q-148 0 -242 34l32 170q78 -28 200 -28q97 0 164 32q71 30 110.5 90t39.5 142q0 125 -91.5 195.5t-244.5 70.5h-120v170q158 1 248 77.5t90 204.5q0 114 -76.5 181t-215.5 67q-154 0 -240 -87t-86 -253v-1054h-200v1038q0 178 68 296q68 117 186 176.5t272 59.5
q152 0 260 -54q109 -55 168.5 -149t59.5 -211q0 -110 -52.5 -198t-139.5 -142q50 -13 88 -30q109 -51 168.5 -142.5t59.5 -219.5q0 -138 -66 -234q-64 -98 -178.5 -150t-261.5 -52z" />
    <glyph glyph-name="agrave" unicode="&#xe0;" horiz-adv-x="1268" 
d="M528 1548l286 -274h-190l-352 274h256zM576 -16q-127 0 -224 40q-98 43 -150 120t-52 176q0 85 46 168q94 158 400 158h320v40q0 254 -282 254q-214 0 -268 -154l-172 96q46 115 159.5 176.5t280.5 61.5q230 0 357 -114.5t127 -325.5v-686h-196v116q-126 -126 -346 -126z
M596 150q236 0 320 196v142h-316q-252 0 -252 -164q0 -81 65.5 -127.5t182.5 -46.5z" />
    <glyph glyph-name="aacute" unicode="&#xe1;" horiz-adv-x="1268" 
d="M1040 1548l-352 -274h-190l286 274h256zM576 -16q-127 0 -224 40q-98 43 -150 120t-52 176q0 85 46 168q94 158 400 158h320v40q0 254 -282 254q-214 0 -268 -154l-172 96q46 115 159.5 176.5t280.5 61.5q230 0 357 -114.5t127 -325.5v-686h-196v116q-126 -126 -346 -126
zM596 150q236 0 320 196v142h-316q-252 0 -252 -164q0 -81 65.5 -127.5t182.5 -46.5z" />
    <glyph glyph-name="acircumflex" unicode="&#xe2;" horiz-adv-x="1268" 
d="M656 1436l-194 -162h-182l280 274h192l280 -274h-182zM576 -16q-127 0 -224 40q-98 43 -150 120t-52 176q0 85 46 168q94 158 400 158h320v40q0 254 -282 254q-214 0 -268 -154l-172 96q46 115 159.5 176.5t280.5 61.5q230 0 357 -114.5t127 -325.5v-686h-196v116
q-126 -126 -346 -126zM596 150q236 0 320 196v142h-316q-252 0 -252 -164q0 -81 65.5 -127.5t182.5 -46.5z" />
    <glyph glyph-name="atilde" unicode="&#xe3;" horiz-adv-x="1268" 
d="M804 1282q-42 0 -83.5 22t-70 48t-63 48t-63.5 22q-47 0 -75.5 -34.5t-32.5 -95.5h-112q5 119 59.5 187.5t146.5 68.5q41 0 83 -22.5t70.5 -49.5t62.5 -49.5t62 -22.5q47 0 77 34.5t31 91.5h112q-2 -112 -57.5 -180t-146.5 -68zM576 -16q-127 0 -224 40q-98 43 -150 120
t-52 176q0 85 46 168q94 158 400 158h320v40q0 254 -282 254q-214 0 -268 -154l-172 96q46 115 159.5 176.5t280.5 61.5q230 0 357 -114.5t127 -325.5v-686h-196v116q-126 -126 -346 -126zM596 150q236 0 320 196v142h-316q-252 0 -252 -164q0 -81 65.5 -127.5t182.5 -46.5z
" />
    <glyph glyph-name="adieresis" unicode="&#xe4;" horiz-adv-x="1268" 
d="M460 1310q-44 0 -75 31t-31 77q0 47 31 77.5t75 30.5q46 0 77 -30.5t31 -77.5q0 -46 -31.5 -77t-76.5 -31zM852 1310q-45 0 -76.5 31t-31.5 77q0 47 31 77.5t77 30.5q44 0 75 -30.5t31 -77.5q0 -46 -31 -77t-75 -31zM576 -16q-127 0 -224 40q-98 43 -150 120t-52 176
q0 85 46 168q94 158 400 158h320v40q0 254 -282 254q-214 0 -268 -154l-172 96q46 115 159.5 176.5t280.5 61.5q230 0 357 -114.5t127 -325.5v-686h-196v116q-126 -126 -346 -126zM596 150q236 0 320 196v142h-316q-252 0 -252 -164q0 -81 65.5 -127.5t182.5 -46.5z" />
    <glyph glyph-name="aring" unicode="&#xe5;" horiz-adv-x="1268" 
d="M654 1248q-96 0 -164 66.5t-68 159.5q0 95 68 163.5t164 68.5q98 0 166 -68t68 -164q0 -93 -68.5 -159.5t-165.5 -66.5zM654 1336q61 0 99.5 39.5t38.5 98.5q0 62 -38.5 101t-99.5 39q-59 0 -97.5 -39t-38.5 -101q0 -59 37.5 -98.5t98.5 -39.5zM576 -16q-127 0 -224 40
q-98 43 -150 120t-52 176q0 85 46 168q94 158 400 158h320v40q0 254 -282 254q-214 0 -268 -154l-172 96q46 115 159.5 176.5t280.5 61.5q230 0 357 -114.5t127 -325.5v-686h-196v116q-126 -126 -346 -126zM596 150q236 0 320 196v142h-316q-252 0 -252 -164
q0 -81 65.5 -127.5t182.5 -46.5z" />
    <glyph glyph-name="ae" unicode="&#xe6;" horiz-adv-x="2182" 
d="M582 -12q-201 0 -316.5 92t-115.5 244q0 84 44 154q93 160 402 160h320v42q0 129 -76 199.5t-220 70.5q-100 0 -195.5 -32t-160.5 -88l-84 150q86 70 206 107t252 37q310 0 414 -196q73 93 183.5 144.5t242.5 51.5q242 0 398 -158t156 -404q0 -50 -6 -68h-906
q10 -84 48 -146q50 -88 141.5 -136t212.5 -48q197 0 322 134l114 -130q-156 -180 -442 -180q-133 0 -242 40q-157 57 -248 184q-19 -38 -50 -72q-141 -152 -394 -152zM1122 638h714q-8 78 -48 148q-50 80 -133 124t-179 44q-85 0 -172 -42q-75 -39 -123.5 -109.5
t-58.5 -164.5zM598 142q148 0 233 76.5t85 203.5v72h-312q-256 0 -256 -166q0 -87 66 -136.5t184 -49.5z" />
    <glyph glyph-name="ccedilla" unicode="&#xe7;" horiz-adv-x="1342" 
d="M736 164q197 0 302 160l154 -98q-64 -114 -182 -176t-268 -62l-24 -94q87 -7 134.5 -54.5t47.5 -119.5q0 -87 -70.5 -138.5t-189.5 -51.5q-110 0 -188 46l44 102q66 -36 144 -36q118 0 118 84q0 82 -120 82h-58l50 188q-105 15 -194 64q-135 76 -210.5 204.5t-75.5 291.5
t76 294q76 129 210 201.5t302 72.5q154 0 272 -60.5t182 -177.5l-154 -98q-53 79 -131.5 119.5t-170.5 40.5q-105 0 -196 -50q-88 -49 -137 -137t-49 -205q0 -120 50 -208q51 -87 137.5 -135.5t194.5 -48.5z" />
    <glyph glyph-name="egrave" unicode="&#xe8;" horiz-adv-x="1410" 
d="M578 1548l286 -274h-190l-352 274h256zM748 -12q-177 0 -312 72q-136 76 -211 204t-75 292q0 161 74 294q73 129 199.5 201.5t284.5 72.5q163 0 286 -72q126 -71 196 -201t70 -301q0 -6 -6 -60h-902q9 -84 48 -142q51 -87 144 -135.5t212 -48.5q198 0 320 134l112 -130
q-156 -180 -440 -180zM352 634h714q-6 71 -42 140q-47 85 -128.5 132.5t-187.5 47.5q-103 0 -186 -46q-71 -43 -116 -114t-54 -160z" />
    <glyph glyph-name="eacute" unicode="&#xe9;" horiz-adv-x="1410" 
d="M1090 1548l-352 -274h-190l286 274h256zM748 -12q-177 0 -312 72q-136 76 -211 204t-75 292q0 161 74 294q73 129 199.5 201.5t284.5 72.5q163 0 286 -72q126 -71 196 -201t70 -301q0 -6 -6 -60h-902q9 -84 48 -142q51 -87 144 -135.5t212 -48.5q198 0 320 134l112 -130
q-156 -180 -440 -180zM352 634h714q-6 71 -42 140q-47 85 -128.5 132.5t-187.5 47.5q-103 0 -186 -46q-71 -43 -116 -114t-54 -160z" />
    <glyph glyph-name="ecircumflex" unicode="&#xea;" horiz-adv-x="1410" 
d="M706 1436l-194 -162h-182l280 274h192l280 -274h-182zM748 -12q-177 0 -312 72q-136 76 -211 204t-75 292q0 161 74 294q73 129 199.5 201.5t284.5 72.5q163 0 286 -72q126 -71 196 -201t70 -301q0 -6 -6 -60h-902q9 -84 48 -142q51 -87 144 -135.5t212 -48.5
q198 0 320 134l112 -130q-156 -180 -440 -180zM352 634h714q-6 71 -42 140q-47 85 -128.5 132.5t-187.5 47.5q-103 0 -186 -46q-71 -43 -116 -114t-54 -160z" />
    <glyph glyph-name="edieresis" unicode="&#xeb;" horiz-adv-x="1410" 
d="M510 1310q-44 0 -75 31t-31 77q0 47 31 77.5t75 30.5q46 0 77 -30.5t31 -77.5q0 -46 -31.5 -77t-76.5 -31zM902 1310q-45 0 -76.5 31t-31.5 77q0 47 31 77.5t77 30.5q44 0 75 -30.5t31 -77.5q0 -46 -31 -77t-75 -31zM748 -12q-177 0 -312 72q-136 76 -211 204t-75 292
q0 161 74 294q73 129 199.5 201.5t284.5 72.5q163 0 286 -72q126 -71 196 -201t70 -301q0 -6 -6 -60h-902q9 -84 48 -142q51 -87 144 -135.5t212 -48.5q198 0 320 134l112 -130q-156 -180 -440 -180zM352 634h714q-6 71 -42 140q-47 85 -128.5 132.5t-187.5 47.5
q-103 0 -186 -46q-71 -43 -116 -114t-54 -160z" />
    <glyph glyph-name="igrave" unicode="&#xec;" horiz-adv-x="842" 
d="M406 1548l286 -274h-190l-352 274h256zM634 1114v-1114h-200v1114h200z" />
    <glyph glyph-name="iacute" unicode="&#xed;" horiz-adv-x="842" 
d="M692 1548l-352 -274h-190l286 274h256zM408 1114v-1114h-200v1114h200z" />
    <glyph glyph-name="icircumflex" unicode="&#xee;" horiz-adv-x="948" 
d="M474 1430l-152 -156h-172l230 274h188l230 -274h-172zM574 1114v-1114h-200v1114h200z" />
    <glyph glyph-name="idieresis" unicode="&#xef;" horiz-adv-x="808" 
d="M254 1312q-44 0 -74 30.5t-30 75.5t30 75.5t74 30.5q45 0 74.5 -30.5t29.5 -75.5t-29.5 -75.5t-74.5 -30.5zM554 1312q-45 0 -74.5 30.5t-29.5 75.5t29.5 75.5t74.5 30.5q44 0 74 -30.5t30 -75.5t-30 -75.5t-74 -30.5zM504 1114v-1114h-200v1114h200z" />
    <glyph glyph-name="eth" unicode="&#xf0;" horiz-adv-x="1468" 
d="M680 -16q-154 0 -270 58q-122 59 -191 164.5t-69 247.5q0 143 72 248q69 105 190 162.5t274 57.5q124 0 220 -42q137 -62 206 -180q2 22 2 68q0 199 -62 326q-40 77 -104 138l-562 -224l-56 132l458 186q-93 28 -198 28q-165 0 -306 -48l-32 172q148 46 338 46
q224 0 384 -90q16 -8 34 -20l186 74l54 -134l-118 -46q188 -210 188 -584q0 -224 -76 -394q-76 -168 -218 -257t-344 -89zM694 154q116 0 198 44q79 41 121.5 109t42.5 147q0 80 -44 152q-47 70 -125.5 108t-180.5 38q-162 0 -257 -81.5t-95 -216.5q0 -93 44 -158
q42 -68 119 -105t177 -37z" />
    <glyph glyph-name="ntilde" unicode="&#xf1;" horiz-adv-x="1356" 
d="M826 1282q-42 0 -83.5 22t-70 48t-63 48t-63.5 22q-47 0 -75.5 -34.5t-32.5 -95.5h-112q5 119 59.5 187.5t146.5 68.5q41 0 83 -22.5t70.5 -49.5t62.5 -49.5t62 -22.5q47 0 77 34.5t31 91.5h112q-2 -112 -57.5 -180t-146.5 -68zM350 574v-574h-200v1114h192v-168
q62 85 166.5 131.5t235.5 46.5q136 0 240 -52q222 -111 222 -432v-640h-202v618q0 160 -78 242t-222 82q-107 0 -188 -42q-166 -88 -166 -326z" />
    <glyph glyph-name="ograve" unicode="&#xf2;" 
d="M600 1548l286 -274h-190l-352 274h256zM730 -12q-169 0 -298 72q-132 76 -207 205.5t-75 290.5q0 163 76 294q76 129 207 201.5t297 72.5t298 -72q133 -73 206.5 -201t73.5 -295q0 -161 -74 -294q-76 -129 -208 -201.5t-296 -72.5zM730 164q107 0 194 48q85 50 132.5 139
t47.5 205q0 115 -48 208q-50 87 -135 135.5t-191 48.5q-101 0 -192 -50q-85 -50 -134.5 -137.5t-49.5 -204.5q0 -118 50 -206q51 -89 135.5 -137.5t190.5 -48.5z" />
    <glyph glyph-name="oacute" unicode="&#xf3;" 
d="M1112 1548l-352 -274h-190l286 274h256zM730 -12q-169 0 -298 72q-132 76 -207 205.5t-75 290.5q0 163 76 294q76 129 207 201.5t297 72.5t298 -72q133 -73 206.5 -201t73.5 -295q0 -161 -74 -294q-76 -129 -208 -201.5t-296 -72.5zM730 164q107 0 194 48
q85 50 132.5 139t47.5 205q0 115 -48 208q-50 87 -135 135.5t-191 48.5q-101 0 -192 -50q-85 -50 -134.5 -137.5t-49.5 -204.5q0 -118 50 -206q51 -89 135.5 -137.5t190.5 -48.5z" />
    <glyph glyph-name="ocircumflex" unicode="&#xf4;" 
d="M728 1436l-194 -162h-182l280 274h192l280 -274h-182zM730 -12q-169 0 -298 72q-132 76 -207 205.5t-75 290.5q0 163 76 294q76 129 207 201.5t297 72.5t298 -72q133 -73 206.5 -201t73.5 -295q0 -161 -74 -294q-76 -129 -208 -201.5t-296 -72.5zM730 164q107 0 194 48
q85 50 132.5 139t47.5 205q0 115 -48 208q-50 87 -135 135.5t-191 48.5q-101 0 -192 -50q-85 -50 -134.5 -137.5t-49.5 -204.5q0 -118 50 -206q51 -89 135.5 -137.5t190.5 -48.5z" />
    <glyph glyph-name="otilde" unicode="&#xf5;" 
d="M876 1282q-42 0 -83.5 22t-70 48t-63 48t-63.5 22q-47 0 -75.5 -34.5t-32.5 -95.5h-112q5 119 59.5 187.5t146.5 68.5q41 0 83 -22.5t70.5 -49.5t62.5 -49.5t62 -22.5q47 0 77 34.5t31 91.5h112q-2 -112 -57.5 -180t-146.5 -68zM730 -12q-169 0 -298 72
q-132 76 -207 205.5t-75 290.5q0 163 76 294q76 129 207 201.5t297 72.5t298 -72q133 -73 206.5 -201t73.5 -295q0 -161 -74 -294q-76 -129 -208 -201.5t-296 -72.5zM730 164q107 0 194 48q85 50 132.5 139t47.5 205q0 115 -48 208q-50 87 -135 135.5t-191 48.5
q-101 0 -192 -50q-85 -50 -134.5 -137.5t-49.5 -204.5q0 -118 50 -206q51 -89 135.5 -137.5t190.5 -48.5z" />
    <glyph glyph-name="odieresis" unicode="&#xf6;" 
d="M532 1310q-44 0 -75 31t-31 77q0 47 31 77.5t75 30.5q46 0 77 -30.5t31 -77.5q0 -46 -31.5 -77t-76.5 -31zM924 1310q-45 0 -76.5 31t-31.5 77q0 47 31 77.5t77 30.5q44 0 75 -30.5t31 -77.5q0 -46 -31 -77t-75 -31zM730 -12q-169 0 -298 72q-132 76 -207 205.5
t-75 290.5q0 163 76 294q76 129 207 201.5t297 72.5t298 -72q133 -73 206.5 -201t73.5 -295q0 -161 -74 -294q-76 -129 -208 -201.5t-296 -72.5zM730 164q107 0 194 48q85 50 132.5 139t47.5 205q0 115 -48 208q-50 87 -135 135.5t-191 48.5q-101 0 -192 -50
q-85 -50 -134.5 -137.5t-49.5 -204.5q0 -118 50 -206q51 -89 135.5 -137.5t190.5 -48.5z" />
    <glyph glyph-name="divide" unicode="&#xf7;" horiz-adv-x="1356" 
d="M679 1022q-50 0 -85 37t-35 89q0 55 34.5 90.5t85.5 35.5q50 0 85 -35.5t35 -90.5q0 -51 -35.5 -88.5t-84.5 -37.5zM1149 816v-164h-942v164h942zM679 196q-51 0 -85.5 36.5t-34.5 91.5q0 54 34.5 89t85.5 35q50 0 85 -35.5t35 -88.5q0 -55 -35 -91.5t-85 -36.5z" />
    <glyph glyph-name="oslash" unicode="&#xf8;" 
d="M1126 1256h124l-160 -244q104 -76 161 -193t57 -263q0 -161 -74 -294q-76 -129 -208 -201.5t-296 -72.5q-154 0 -274 60l-130 -198h-126l166 254q-102 80 -159 196t-57 256q0 163 76 294q76 129 207 201.5t297 72.5q148 0 270 -58zM404 350q29 -49 68 -88l426 650
q-75 36 -168 36q-101 0 -192 -50q-85 -50 -134.5 -137.5t-49.5 -204.5q0 -118 50 -206zM924 212q85 50 132.5 139t47.5 205q0 115 -48 208q-29 49 -70 90l-428 -652q79 -38 172 -38q107 0 194 48z" />
    <glyph glyph-name="ugrave" unicode="&#xf9;" horiz-adv-x="1348" 
d="M548 1548l286 -274h-190l-352 274h256zM630 -12q-149 0 -250 52q-230 110 -230 432v642h202v-618q0 -162 78 -245t222 -83q105 0 184 44q160 88 160 326v576h202v-1114h-190v168q-61 -87 -159.5 -133.5t-218.5 -46.5z" />
    <glyph glyph-name="uacute" unicode="&#xfa;" horiz-adv-x="1348" 
d="M1060 1548l-352 -274h-190l286 274h256zM630 -12q-149 0 -250 52q-230 110 -230 432v642h202v-618q0 -162 78 -245t222 -83q105 0 184 44q160 88 160 326v576h202v-1114h-190v168q-61 -87 -159.5 -133.5t-218.5 -46.5z" />
    <glyph glyph-name="ucircumflex" unicode="&#xfb;" horiz-adv-x="1348" 
d="M676 1436l-194 -162h-182l280 274h192l280 -274h-182zM630 -12q-149 0 -250 52q-230 110 -230 432v642h202v-618q0 -162 78 -245t222 -83q105 0 184 44q160 88 160 326v576h202v-1114h-190v168q-61 -87 -159.5 -133.5t-218.5 -46.5z" />
    <glyph glyph-name="udieresis" unicode="&#xfc;" horiz-adv-x="1348" 
d="M480 1310q-44 0 -75 31t-31 77q0 47 31 77.5t75 30.5q46 0 77 -30.5t31 -77.5q0 -46 -31.5 -77t-76.5 -31zM872 1310q-45 0 -76.5 31t-31.5 77q0 47 31 77.5t77 30.5q44 0 75 -30.5t31 -77.5q0 -46 -31 -77t-75 -31zM630 -12q-149 0 -250 52q-230 110 -230 432v642h202
v-618q0 -162 78 -245t222 -83q105 0 184 44q160 88 160 326v576h202v-1114h-190v168q-61 -87 -159.5 -133.5t-218.5 -46.5z" />
    <glyph glyph-name="yacute" unicode="&#xfd;" horiz-adv-x="1480" 
d="M1096 1548l-352 -274h-190l286 274h256zM1330 1114l-722 -1642h-202l236 530l-492 1112h210l388 -892l384 892h198z" />
    <glyph glyph-name="thorn" unicode="&#xfe;" horiz-adv-x="1452" 
d="M350 168v-576h-200v1966h200v-610q143 176 390 176q164 0 290 -72q128 -72 200 -200t72 -296q0 -165 -74 -298q-74 -129 -200 -199.5t-288 -70.5q-144 0 -252 64q-82 46 -138 116zM722 164q107 0 194 48q86 50 134 139t48 205q0 121 -48 208q-51 88 -136 136t-192 48
q-100 0 -188 -50q-88 -49 -137 -137t-49 -205q0 -114 52 -206q48 -88 132.5 -137t189.5 -49z" />
    <glyph glyph-name="ydieresis" unicode="&#xff;" horiz-adv-x="1480" 
d="M516 1310q-44 0 -75 31t-31 77q0 47 31 77.5t75 30.5q46 0 77 -30.5t31 -77.5q0 -46 -31.5 -77t-76.5 -31zM908 1310q-45 0 -76.5 31t-31.5 77q0 47 31 77.5t77 30.5q44 0 75 -30.5t31 -77.5q0 -46 -31 -77t-75 -31zM1330 1114l-722 -1642h-202l236 530l-492 1112h210
l388 -892l384 892h198z" />
    <glyph glyph-name="Amacron" unicode="&#x100;" horiz-adv-x="1842" 
d="M1262 1790v-126h-684v126h684zM542 402l-176 -402h-216l666 1470h208l668 -1470h-222l-176 402h-752zM1220 570l-302 686l-302 -686h604z" />
    <glyph glyph-name="amacron" unicode="&#x101;" horiz-adv-x="1268" 
d="M998 1474v-126h-684v126h684zM576 -16q-127 0 -224 40q-98 43 -150 120t-52 176q0 85 46 168q94 158 400 158h320v40q0 254 -282 254q-214 0 -268 -154l-172 96q46 115 159.5 176.5t280.5 61.5q230 0 357 -114.5t127 -325.5v-686h-196v116q-126 -126 -346 -126zM596 150
q236 0 320 196v142h-316q-252 0 -252 -164q0 -81 65.5 -127.5t182.5 -46.5z" />
    <glyph glyph-name="Abreve" unicode="&#x102;" horiz-adv-x="1842" 
d="M920 1578q-146 0 -241 78t-99 208h136q4 -76 62 -122t142 -46q85 0 144 46t60 122h136q-4 -130 -99 -208t-241 -78zM542 402l-176 -402h-216l666 1470h208l668 -1470h-222l-176 402h-752zM1220 570l-302 686l-302 -686h604z" />
    <glyph glyph-name="abreve" unicode="&#x103;" horiz-adv-x="1268" 
d="M656 1262q-146 0 -241 78t-99 208h136q4 -76 62 -122t142 -46q85 0 144 46t60 122h136q-4 -130 -99 -208t-241 -78zM576 -16q-127 0 -224 40q-98 43 -150 120t-52 176q0 85 46 168q94 158 400 158h320v40q0 254 -282 254q-214 0 -268 -154l-172 96q46 115 159.5 176.5
t280.5 61.5q230 0 357 -114.5t127 -325.5v-686h-196v116q-126 -126 -346 -126zM596 150q236 0 320 196v142h-316q-252 0 -252 -164q0 -81 65.5 -127.5t182.5 -46.5z" />
    <glyph glyph-name="Aogonek" unicode="&#x104;" horiz-adv-x="1888" 
d="M1700 -318l38 -102q-78 -50 -188 -50q-117 0 -184.5 58t-67.5 154q0 55 28 114q43 80 144 144l-176 402h-752l-176 -402h-216l666 1470h208l668 -1470q-107 -50 -146 -82q-104 -73 -104 -162q0 -50 35.5 -79t92.5 -29q66 0 130 34zM1220 570l-302 686l-302 -686h604z" />
    <glyph glyph-name="aogonek" unicode="&#x105;" horiz-adv-x="1314" 
d="M1126 -318l38 -102q-78 -50 -188 -50q-117 0 -184.5 58t-67.5 154q0 55 28 114q45 86 170 162v92q-126 -126 -346 -126q-127 0 -224 40q-98 43 -150 120t-52 176q0 85 46 168q94 158 400 158h320v40q0 254 -282 254q-214 0 -268 -154l-172 96q46 115 159.5 176.5
t280.5 61.5q230 0 357 -114.5t127 -325.5v-686h-12q-94 -44 -134 -76q-104 -73 -104 -162q0 -50 35.5 -79t92.5 -29q66 0 130 34zM916 346v142h-316q-252 0 -252 -164q0 -81 65.5 -127.5t182.5 -46.5q236 0 320 196z" />
    <glyph glyph-name="Cacute" unicode="&#x106;" horiz-adv-x="1638" 
d="M1298 1864l-352 -274h-190l286 274h256zM928 -16q-340 0 -554 214q-107 103 -165.5 239.5t-58.5 298.5q0 323 224 538q218 212 556 212q172 0 315.5 -57.5t242.5 -170.5l-136 -132q-165 174 -414 174t-413.5 -160t-164.5 -404q0 -245 164 -405.5t414 -160.5t414 176
l136 -132q-100 -112 -244 -171t-316 -59z" />
    <glyph glyph-name="cacute" unicode="&#x107;" horiz-adv-x="1342" 
d="M1082 1548l-352 -274h-190l286 274h256zM738 -12q-170 0 -302 72q-135 76 -210.5 204.5t-75.5 291.5t76 294q76 129 210 201.5t302 72.5q154 0 272 -60.5t182 -177.5l-154 -98q-53 79 -131.5 119.5t-170.5 40.5q-105 0 -196 -50q-88 -49 -137 -137t-49 -205
q0 -120 50 -208q51 -87 137.5 -135.5t194.5 -48.5q197 0 302 160l154 -98q-64 -114 -183 -176t-271 -62z" />
    <glyph glyph-name="Ccircumflex" unicode="&#x108;" horiz-adv-x="1638" 
d="M914 1752l-194 -162h-182l280 274h192l280 -274h-182zM928 -16q-340 0 -554 214q-107 103 -165.5 239.5t-58.5 298.5q0 323 224 538q218 212 556 212q172 0 315.5 -57.5t242.5 -170.5l-136 -132q-165 174 -414 174t-413.5 -160t-164.5 -404q0 -245 164 -405.5t414 -160.5
t414 176l136 -132q-100 -112 -244 -171t-316 -59z" />
    <glyph glyph-name="ccircumflex" unicode="&#x109;" horiz-adv-x="1342" 
d="M698 1436l-194 -162h-182l280 274h192l280 -274h-182zM738 -12q-170 0 -302 72q-135 76 -210.5 204.5t-75.5 291.5t76 294q76 129 210 201.5t302 72.5q154 0 272 -60.5t182 -177.5l-154 -98q-53 79 -131.5 119.5t-170.5 40.5q-105 0 -196 -50q-88 -49 -137 -137t-49 -205
q0 -120 50 -208q51 -87 137.5 -135.5t194.5 -48.5q197 0 302 160l154 -98q-64 -114 -183 -176t-271 -62z" />
    <glyph glyph-name="Cdotaccent" unicode="&#x10a;" horiz-adv-x="1638" 
d="M914 1628q-52 0 -88 36.5t-36 87.5q0 52 36 88t88 36t88 -36t36 -88q0 -51 -36 -87.5t-88 -36.5zM928 -16q-340 0 -554 214q-107 103 -165.5 239.5t-58.5 298.5q0 323 224 538q218 212 556 212q172 0 315.5 -57.5t242.5 -170.5l-136 -132q-165 174 -414 174t-413.5 -160
t-164.5 -404q0 -245 164 -405.5t414 -160.5t414 176l136 -132q-100 -112 -244 -171t-316 -59z" />
    <glyph glyph-name="cdotaccent" unicode="&#x10b;" horiz-adv-x="1342" 
d="M698 1312q-52 0 -88 36.5t-36 87.5q0 52 36 88t88 36t88 -36t36 -88q0 -51 -36 -87.5t-88 -36.5zM738 -12q-170 0 -302 72q-135 76 -210.5 204.5t-75.5 291.5t76 294q76 129 210 201.5t302 72.5q154 0 272 -60.5t182 -177.5l-154 -98q-53 79 -131.5 119.5t-170.5 40.5
q-105 0 -196 -50q-88 -49 -137 -137t-49 -205q0 -120 50 -208q51 -87 137.5 -135.5t194.5 -48.5q197 0 302 160l154 -98q-64 -114 -183 -176t-271 -62z" />
    <glyph glyph-name="Ccaron" unicode="&#x10c;" horiz-adv-x="1638" 
d="M1290 1864l-280 -274h-192l-280 274h182l194 -160l194 160h182zM928 -16q-340 0 -554 214q-107 103 -165.5 239.5t-58.5 298.5q0 323 224 538q218 212 556 212q172 0 315.5 -57.5t242.5 -170.5l-136 -132q-165 174 -414 174t-413.5 -160t-164.5 -404q0 -245 164 -405.5
t414 -160.5t414 176l136 -132q-100 -112 -244 -171t-316 -59z" />
    <glyph glyph-name="ccaron" unicode="&#x10d;" horiz-adv-x="1342" 
d="M1074 1548l-280 -274h-192l-280 274h182l194 -160l194 160h182zM738 -12q-170 0 -302 72q-135 76 -210.5 204.5t-75.5 291.5t76 294q76 129 210 201.5t302 72.5q154 0 272 -60.5t182 -177.5l-154 -98q-53 79 -131.5 119.5t-170.5 40.5q-105 0 -196 -50q-88 -49 -137 -137
t-49 -205q0 -120 50 -208q51 -87 137.5 -135.5t194.5 -48.5q197 0 302 160l154 -98q-64 -114 -183 -176t-271 -62z" />
    <glyph glyph-name="Dcaron" unicode="&#x10e;" horiz-adv-x="1714" 
d="M1102 1862l-280 -274h-192l-280 274h182l194 -160l194 160h182zM770 0h-620v1470h620q232 0 416 -92q181 -94 279.5 -260t98.5 -382q0 -214 -98 -386q-103 -166 -283.5 -258t-412.5 -92zM758 1288h-398v-1106h398q179 0 316 70q133 70 206.5 195t73.5 289q0 162 -74 288
q-75 126 -208.5 195t-313.5 69z" />
    <glyph glyph-name="dcaron" unicode="&#x10f;" horiz-adv-x="1806" 
d="M1656 1628l-26 -406h-140v406h166zM714 -12q-165 0 -288 70q-130 73 -203 202t-73 296q0 165 74 298q74 128 201.5 199t288.5 71q138 0 254 -64q76 -41 134 -114v524h202v-1470h-194v174q-138 -186 -396 -186zM730 164q106 0 190 48q87 50 135.5 139.5t48.5 204.5
t-48 208q-51 87 -136 135.5t-190 48.5q-101 0 -192 -50q-85 -50 -134.5 -137.5t-49.5 -204.5q0 -118 50 -206q51 -89 135.5 -137.5t190.5 -48.5z" />
    <glyph glyph-name="Dcroat" unicode="&#x110;" horiz-adv-x="1930" 
d="M1402 1378q181 -94 279.5 -260t98.5 -382q0 -214 -98 -386q-103 -166 -283.5 -258t-412.5 -92h-620v666h-216v166h216v638h620q232 0 416 -92zM1290 252q133 70 206.5 195t73.5 289q0 162 -74 288q-75 126 -208.5 195t-313.5 69h-398v-456h414v-166h-414v-484h398
q179 0 316 70z" />
    <glyph glyph-name="dcroat" unicode="&#x111;" horiz-adv-x="1644" 
d="M1304 1470v-64h190v-144h-190v-1262h-194v174q-138 -186 -396 -186q-165 0 -288 70q-130 73 -203 202t-73 296q0 165 74 298q74 128 201.5 199t288.5 71q138 0 254 -64q76 -41 134 -114v316h-440v144h440v64h202zM920 212q87 50 135.5 139.5t48.5 204.5t-48 208
q-51 87 -136 135.5t-190 48.5q-101 0 -192 -50q-85 -50 -134.5 -137.5t-49.5 -204.5q0 -118 50 -206q51 -89 135.5 -137.5t190.5 -48.5t190 48z" />
    <glyph glyph-name="Emacron" unicode="&#x112;" 
d="M1014 1790v-126h-684v126h684zM1302 182v-182h-1152v1470h1158v-182h-948v-466h858v-180h-858v-460h942z" />
    <glyph glyph-name="emacron" unicode="&#x113;" horiz-adv-x="1410" 
d="M1048 1474v-126h-684v126h684zM748 -12q-177 0 -312 72q-136 76 -211 204t-75 292q0 161 74 294q73 129 199.5 201.5t284.5 72.5q163 0 286 -72q126 -71 196 -201t70 -301q0 -6 -6 -60h-902q9 -84 48 -142q51 -87 144 -135.5t212 -48.5q198 0 320 134l112 -130
q-156 -180 -440 -180zM352 634h714q-6 71 -42 140q-47 85 -128.5 132.5t-187.5 47.5q-103 0 -186 -46q-71 -43 -116 -114t-54 -160z" />
    <glyph glyph-name="Ebreve" unicode="&#x114;" 
d="M672 1578q-146 0 -241 78t-99 208h136q4 -76 62 -122t142 -46q85 0 144 46t60 122h136q-4 -130 -99 -208t-241 -78zM1302 182v-182h-1152v1470h1158v-182h-948v-466h858v-180h-858v-460h942z" />
    <glyph glyph-name="ebreve" unicode="&#x115;" horiz-adv-x="1410" 
d="M706 1262q-146 0 -241 78t-99 208h136q4 -76 62 -122t142 -46q85 0 144 46t60 122h136q-4 -130 -99 -208t-241 -78zM748 -12q-177 0 -312 72q-136 76 -211 204t-75 292q0 161 74 294q73 129 199.5 201.5t284.5 72.5q163 0 286 -72q126 -71 196 -201t70 -301q0 -6 -6 -60
h-902q9 -84 48 -142q51 -87 144 -135.5t212 -48.5q198 0 320 134l112 -130q-156 -180 -440 -180zM352 634h714q-6 71 -42 140q-47 85 -128.5 132.5t-187.5 47.5q-103 0 -186 -46q-71 -43 -116 -114t-54 -160z" />
    <glyph glyph-name="Edotaccent" unicode="&#x116;" 
d="M672 1628q-52 0 -88 36.5t-36 87.5q0 52 36 88t88 36t88 -36t36 -88q0 -51 -36 -87.5t-88 -36.5zM1302 182v-182h-1152v1470h1158v-182h-948v-466h858v-180h-858v-460h942z" />
    <glyph glyph-name="edotaccent" unicode="&#x117;" horiz-adv-x="1410" 
d="M706 1312q-52 0 -88 36.5t-36 87.5q0 52 36 88t88 36t88 -36t36 -88q0 -51 -36 -87.5t-88 -36.5zM748 -12q-177 0 -312 72q-136 76 -211 204t-75 292q0 161 74 294q73 129 199.5 201.5t284.5 72.5q163 0 286 -72q126 -71 196 -201t70 -301q0 -6 -6 -60h-902
q9 -84 48 -142q51 -87 144 -135.5t212 -48.5q198 0 320 134l112 -130q-156 -180 -440 -180zM352 634h714q-6 71 -42 140q-47 85 -128.5 132.5t-187.5 47.5q-103 0 -186 -46q-71 -43 -116 -114t-54 -160z" />
    <glyph glyph-name="Eogonek" unicode="&#x118;" 
d="M150 1470h1158v-182h-948v-466h858v-180h-858v-460h942v-182h-84q-107 -50 -146 -82q-104 -73 -104 -162q0 -50 35.5 -79t92.5 -29q66 0 130 34l38 -102q-78 -50 -188 -50q-117 0 -184.5 58t-67.5 154q0 55 28 114q38 75 142 144h-844v1470z" />
    <glyph glyph-name="eogonek" unicode="&#x119;" horiz-adv-x="1410" 
d="M978 -470q-115 0 -183.5 60.5t-68.5 159.5q0 126 104 242q-52 -4 -82 -4q-177 0 -312 72q-136 76 -211 204t-75 292q0 161 74 294q73 129 199.5 201.5t284.5 72.5q163 0 286 -72q126 -71 196 -201t70 -301q0 -6 -6 -60h-902q9 -84 48 -142q51 -87 144 -135.5t212 -48.5
q198 0 320 134l112 -130q-16 -22 -38 -38q-29 -20 -44 -38q-99 -83 -144 -136q-94 -108 -94 -194q0 -56 36 -85t94 -29q68 0 128 34l40 -102q-81 -50 -188 -50zM352 634h714q-6 71 -42 140q-47 85 -128.5 132.5t-187.5 47.5q-103 0 -186 -46q-71 -43 -116 -114t-54 -160z
" />
    <glyph glyph-name="Ecaron" unicode="&#x11a;" 
d="M1048 1864l-280 -274h-192l-280 274h182l194 -160l194 160h182zM1302 182v-182h-1152v1470h1158v-182h-948v-466h858v-180h-858v-460h942z" />
    <glyph glyph-name="ecaron" unicode="&#x11b;" horiz-adv-x="1410" 
d="M1082 1548l-280 -274h-192l-280 274h182l194 -160l194 160h182zM748 -12q-177 0 -312 72q-136 76 -211 204t-75 292q0 161 74 294q73 129 199.5 201.5t284.5 72.5q163 0 286 -72q126 -71 196 -201t70 -301q0 -6 -6 -60h-902q9 -84 48 -142q51 -87 144 -135.5t212 -48.5
q198 0 320 134l112 -130q-156 -180 -440 -180zM352 634h714q-6 71 -42 140q-47 85 -128.5 132.5t-187.5 47.5q-103 0 -186 -46q-71 -43 -116 -114t-54 -160z" />
    <glyph glyph-name="Gcircumflex" unicode="&#x11c;" horiz-adv-x="1654" 
d="M912 1752l-194 -162h-182l280 274h192l280 -274h-182zM934 -16q-343 0 -560 214q-224 211 -224 538q0 325 226 538q218 212 562 212q364 0 566 -226l-130 -130q-173 170 -428 170q-167 0 -301 -72t-209.5 -201t-75.5 -291t75.5 -291.5t209 -202t299.5 -72.5q195 0 346 94
v378h-474v180h674v-652q-106 -91 -251 -138.5t-305 -47.5z" />
    <glyph glyph-name="gcircumflex" unicode="&#x11d;" horiz-adv-x="1476" 
d="M752 1436l-194 -162h-182l280 274h192l280 -274h-182zM704 -422q-347 0 -508 228l162 130q101 -172 348 -172q404 0 416 448q-70 -82 -177 -124t-229 -42q-160 0 -288 70q-130 69 -204 191.5t-74 278.5q0 159 76 284q74 121 201 187.5t289 66.5q141 0 260 -58
q87 -44 146 -114v134h204v-858q0 -316 -163 -483t-459 -167zM738 222q109 0 198 46q88 47 136 129.5t48 188.5q0 107 -48 188q-52 83 -137.5 128.5t-196.5 45.5q-107 0 -198 -44q-88 -47 -137 -130t-49 -188q0 -108 50 -190t137 -128t197 -46z" />
    <glyph glyph-name="Gbreve" unicode="&#x11e;" horiz-adv-x="1654" 
d="M912 1578q-146 0 -241 78t-99 208h136q4 -76 62 -122t142 -46q85 0 144 46t60 122h136q-4 -130 -99 -208t-241 -78zM934 -16q-343 0 -560 214q-224 211 -224 538q0 325 226 538q218 212 562 212q364 0 566 -226l-130 -130q-173 170 -428 170q-167 0 -301 -72t-209.5 -201
t-75.5 -291t75.5 -291.5t209 -202t299.5 -72.5q195 0 346 94v378h-474v180h674v-652q-106 -91 -251 -138.5t-305 -47.5z" />
    <glyph glyph-name="gbreve" unicode="&#x11f;" horiz-adv-x="1476" 
d="M752 1262q-146 0 -241 78t-99 208h136q4 -76 62 -122t142 -46q85 0 144 46t60 122h136q-4 -130 -99 -208t-241 -78zM704 -422q-347 0 -508 228l162 130q101 -172 348 -172q404 0 416 448q-70 -82 -177 -124t-229 -42q-160 0 -288 70q-130 69 -204 191.5t-74 278.5
q0 159 76 284q74 121 201 187.5t289 66.5q141 0 260 -58q87 -44 146 -114v134h204v-858q0 -316 -163 -483t-459 -167zM738 222q109 0 198 46q88 47 136 129.5t48 188.5q0 107 -48 188q-52 83 -137.5 128.5t-196.5 45.5q-107 0 -198 -44q-88 -47 -137 -130t-49 -188
q0 -108 50 -190t137 -128t197 -46z" />
    <glyph glyph-name="Gdotaccent" unicode="&#x120;" horiz-adv-x="1654" 
d="M912 1628q-52 0 -88 36.5t-36 87.5q0 52 36 88t88 36t88 -36t36 -88q0 -51 -36 -87.5t-88 -36.5zM934 -16q-343 0 -560 214q-224 211 -224 538q0 325 226 538q218 212 562 212q364 0 566 -226l-130 -130q-173 170 -428 170q-167 0 -301 -72t-209.5 -201t-75.5 -291
t75.5 -291.5t209 -202t299.5 -72.5q195 0 346 94v378h-474v180h674v-652q-106 -91 -251 -138.5t-305 -47.5z" />
    <glyph glyph-name="gdotaccent" unicode="&#x121;" horiz-adv-x="1476" 
d="M752 1312q-52 0 -88 36.5t-36 87.5q0 52 36 88t88 36t88 -36t36 -88q0 -51 -36 -87.5t-88 -36.5zM704 -422q-347 0 -508 228l162 130q101 -172 348 -172q404 0 416 448q-70 -82 -177 -124t-229 -42q-160 0 -288 70q-130 69 -204 191.5t-74 278.5q0 159 76 284
q74 121 201 187.5t289 66.5q141 0 260 -58q87 -44 146 -114v134h204v-858q0 -316 -163 -483t-459 -167zM738 222q109 0 198 46q88 47 136 129.5t48 188.5q0 107 -48 188q-52 83 -137.5 128.5t-196.5 45.5q-107 0 -198 -44q-88 -47 -137 -130t-49 -188q0 -108 50 -190
t137 -128t197 -46z" />
    <glyph glyph-name="Hcircumflex" unicode="&#x124;" horiz-adv-x="1564" 
d="M780 1752l-194 -162h-182l280 274h192l280 -274h-182zM360 656v-656h-210v1470h210v-632h844v632h210v-1470h-210v656h-844z" />
    <glyph glyph-name="hcircumflex" unicode="&#x125;" horiz-adv-x="1632" 
d="M526 1840l-194 -162h-182l280 274h192l280 -274h-182zM626 574v-574h-200v1470h200v-514q64 80 165.5 124t228.5 44q136 0 240 -52q222 -111 222 -432v-640h-202v618q0 160 -78 242t-222 82q-107 0 -188 -42q-166 -88 -166 -326z" />
    <glyph glyph-name="Hbar" unicode="&#x126;" horiz-adv-x="1994" 
d="M1630 1470v-224h214v-166h-214v-1080h-210v656h-844v-656h-210v1080h-216v166h216v224h210v-224h844v224h210zM576 1080v-242h844v242h-844z" />
    <glyph glyph-name="hbar" unicode="&#x127;" horiz-adv-x="1548" 
d="M1176 1072q222 -111 222 -432v-640h-202v618q0 160 -78 242t-222 82q-107 0 -188 -42q-166 -88 -166 -326v-574h-200v1262h-192v144h192v64h200v-64h440v-144h-440v-306q64 80 165.5 124t228.5 44q136 0 240 -52z" />
    <glyph glyph-name="Itilde" unicode="&#x128;" horiz-adv-x="1004" 
d="M650 1598q-42 0 -83.5 22t-70 48t-63 48t-63.5 22q-47 0 -75.5 -34.5t-32.5 -95.5h-112q5 119 59.5 187.5t146.5 68.5q41 0 83 -22.5t70.5 -49.5t62.5 -49.5t62 -22.5q47 0 77 34.5t31 91.5h112q-2 -112 -57.5 -180t-146.5 -68zM606 1470v-1470h-210v1470h210z" />
    <glyph glyph-name="itilde" unicode="&#x129;" horiz-adv-x="900" 
d="M576 1282q-38 0 -74.5 22t-60.5 48t-53.5 48t-53.5 22q-70 0 -70 -130h-114q0 124 45.5 190t128.5 66q38 0 75.5 -22t61.5 -48t52.5 -48t52.5 -22q70 0 70 122h114q0 -117 -46 -182.5t-128 -65.5zM550 1114v-1114h-200v1114h200z" />
    <glyph glyph-name="Imacron" unicode="&#x12a;" horiz-adv-x="860" 
d="M710 1790v-126h-560v126h560zM534 1470v-1470h-210v1470h210z" />
    <glyph glyph-name="imacron" unicode="&#x12b;" horiz-adv-x="860" 
d="M710 1474v-126h-560v126h560zM530 1114v-1114h-200v1114h200z" />
    <glyph glyph-name="Ibreve" unicode="&#x12c;" horiz-adv-x="980" 
d="M490 1578q-146 0 -241 78t-99 208h136q4 -76 62 -122t142 -46q85 0 144 46t60 122h136q-4 -130 -99 -208t-241 -78zM594 1470v-1470h-210v1470h210z" />
    <glyph glyph-name="ibreve" unicode="&#x12d;" horiz-adv-x="876" 
d="M438 1262q-127 0 -207.5 78t-80.5 208h130q0 -78 42.5 -123t115.5 -45t115.5 45t42.5 123h130q0 -130 -80.5 -208t-207.5 -78zM538 1114v-1114h-200v1114h200z" />
    <glyph glyph-name="Iogonek" unicode="&#x12e;" horiz-adv-x="642" 
d="M456 -328l36 -100q-51 -42 -132 -42q-95 0 -152.5 55.5t-57.5 148.5q0 142 118 266h-62v1470h210v-1470q-124 -122 -124 -244q0 -48 26.5 -78t65.5 -30q36 0 72 24z" />
    <glyph glyph-name="iogonek" unicode="&#x12f;" horiz-adv-x="642" 
d="M316 1328q-58 0 -97 37t-39 93q0 57 38.5 94.5t97.5 37.5t97.5 -36.5t38.5 -91.5q0 -58 -37.5 -96t-98.5 -38zM456 -328l36 -100q-51 -42 -132 -42q-95 0 -152.5 55.5t-57.5 148.5q0 142 118 266h-52v1114h200v-1114q-124 -122 -124 -244q0 -48 26.5 -78t65.5 -30
q36 0 72 24z" />
    <glyph glyph-name="Idotaccent" unicode="&#x130;" horiz-adv-x="548" 
d="M274 1628q-52 0 -88 36.5t-36 87.5q0 52 36 88t88 36t88 -36t36 -88q0 -51 -36 -87.5t-88 -36.5zM378 1470v-1470h-210v1470h210z" />
    <glyph glyph-name="dotlessi" unicode="&#x131;" horiz-adv-x="500" 
d="M350 1114v-1114h-200v1114h200z" />
    <glyph glyph-name="IJ" unicode="&#x132;" horiz-adv-x="1422" 
d="M654 -16q-145 0 -275 39.5t-229 108.5l82 168q186 -130 426 -130q198 0 301 115t103 349v836h210v-826q0 -217 -78 -364q-76 -146 -213.5 -221t-326.5 -75zM386 1470v-822h-210v822h210z" />
    <glyph glyph-name="ij" unicode="&#x133;" horiz-adv-x="1168" 
d="M286 1328q-58 0 -97 37t-39 93q0 57 38.5 94.5t97.5 37.5t97.5 -36.5t38.5 -91.5q0 -58 -37.5 -96t-98.5 -38zM882 1328q-58 0 -97 37t-39 93q0 57 38.5 94.5t97.5 37.5t97.5 -36.5t38.5 -91.5q0 -58 -37.5 -96t-98.5 -38zM386 1114v-1114h-200v1114h200zM628 -420
q-97 0 -164 28l52 156q42 -14 100 -14q80 0 123 50.5t43 145.5v1168h202v-1164q0 -173 -92.5 -271.5t-263.5 -98.5z" />
    <glyph glyph-name="Jcircumflex" unicode="&#x134;" horiz-adv-x="1542" 
d="M670 1752l-194 -162h-182l280 274h192l280 -274h-182zM770 -16q-292 0 -455.5 166t-164.5 480h210q6 -460 412 -460q416 0 416 472v828h204v-836q0 -316 -163 -483t-459 -167z" />
    <glyph glyph-name="jcircumflex" unicode="&#x135;" horiz-adv-x="1042" 
d="M568 1430l-152 -156h-172l230 274h188l230 -274h-172zM314 -420q-97 0 -164 28l52 156q42 -14 100 -14q80 0 123 50.5t43 145.5v1168h202v-1164q0 -173 -92.5 -271.5t-263.5 -98.5z" />
    <glyph glyph-name="kgreenlandic" unicode="&#x138;" horiz-adv-x="1398" 
d="M350 304v-304h-200v1114h200v-556l608 556h244l-470 -460l516 -654h-248l-418 518z" />
    <glyph glyph-name="Lacute" unicode="&#x139;" horiz-adv-x="1504" 
d="M692 1864l-352 -274h-190l286 274h256zM1354 182v-182h-1152v1470h210v-1288h942z" />
    <glyph glyph-name="lacute" unicode="&#x13a;" horiz-adv-x="842" 
d="M692 1994l-352 -274h-190l286 274h256zM408 1470v-1470h-200v1470h200z" />
    <glyph glyph-name="Lcaron" unicode="&#x13d;" horiz-adv-x="1452" 
d="M1016 1540l-26 -406h-140v406h166zM1302 182v-182h-1152v1470h210v-1288h942z" />
    <glyph glyph-name="lcaron" unicode="&#x13e;" horiz-adv-x="854" 
d="M704 1628l-26 -406h-140v406h166zM350 1470v-1470h-200v1470h200z" />
    <glyph glyph-name="Ldot" unicode="&#x13f;" horiz-adv-x="1452" 
d="M1302 182v-182h-1152v1470h210v-1288h942zM878 694q-52 0 -90 37.5t-38 92.5q0 56 38 93t90 37q53 0 89.5 -37t36.5 -93q0 -55 -36.5 -92.5t-89.5 -37.5z" />
    <glyph glyph-name="ldot" unicode="&#x140;" horiz-adv-x="882" 
d="M350 1470v-1470h-200v1470h200zM612 632q-51 0 -86.5 34.5t-35.5 85.5q0 48 36 84t86 36t85 -35.5t35 -84.5q0 -51 -34.5 -85.5t-85.5 -34.5z" />
    <glyph glyph-name="Lslash" unicode="&#x141;" horiz-adv-x="1670" 
d="M906 1022l-328 -248v-592h942v-182h-1152v614l-126 -96l-92 118l218 166v668h210v-508l234 178z" />
    <glyph glyph-name="lslash" unicode="&#x142;" horiz-adv-x="946" 
d="M572 924l134 102l90 -122l-224 -170v-734h-200v582l-132 -100l-90 120l222 170v698h200v-546z" />
    <glyph glyph-name="Nacute" unicode="&#x143;" horiz-adv-x="1564" 
d="M1164 1864l-352 -274h-190l286 274h256zM360 1096v-1096h-210v1470h172l882 -1096v1096h210v-1470h-172z" />
    <glyph glyph-name="nacute" unicode="&#x144;" horiz-adv-x="1356" 
d="M1062 1548l-352 -274h-190l286 274h256zM350 574v-574h-200v1114h192v-168q62 85 166.5 131.5t235.5 46.5q136 0 240 -52q222 -111 222 -432v-640h-202v618q0 160 -78 242t-222 82q-107 0 -188 -42q-166 -88 -166 -326z" />
    <glyph glyph-name="Ncaron" unicode="&#x147;" horiz-adv-x="1564" 
d="M1156 1864l-280 -274h-192l-280 274h182l194 -160l194 160h182zM360 1096v-1096h-210v1470h172l882 -1096v1096h210v-1470h-172z" />
    <glyph glyph-name="ncaron" unicode="&#x148;" horiz-adv-x="1356" 
d="M1054 1548l-280 -274h-192l-280 274h182l194 -160l194 160h182zM350 574v-574h-200v1114h192v-168q62 85 166.5 131.5t235.5 46.5q136 0 240 -52q222 -111 222 -432v-640h-202v618q0 160 -78 242t-222 82q-107 0 -188 -42q-166 -88 -166 -326z" />
    <glyph glyph-name="napostrophe" unicode="&#x149;" horiz-adv-x="1644" 
d="M394 1278l-100 -294h-132l78 314q-41 14 -65.5 49t-24.5 81q0 63 41 102.5t101 39.5q61 0 98.5 -40t37.5 -102q0 -56 -34 -150zM638 574v-574h-200v1114h192v-168q62 85 166.5 131.5t235.5 46.5q136 0 240 -52q222 -111 222 -432v-640h-202v618q0 160 -78 242t-222 82
q-107 0 -188 -42q-166 -88 -166 -326z" />
    <glyph glyph-name="Eng" unicode="&#x14a;" horiz-adv-x="1564" 
d="M960 -420q-113 0 -211 43t-167 123l102 152q112 -138 276 -138q238 0 244 286l-844 1050v-1096h-210v1470h172l882 -1096v1096h210v-1382q0 -508 -454 -508z" />
    <glyph glyph-name="eng" unicode="&#x14b;" horiz-adv-x="1356" 
d="M850 -420q-150 0 -240 68l64 154q61 -52 164 -52q81 0 123.5 50t42.5 146v672q0 160 -78 242t-222 82q-107 0 -188 -42q-166 -88 -166 -326v-574h-200v1114h192v-168q62 85 166.5 131.5t235.5 46.5q136 0 240 -52q222 -111 222 -432v-690q0 -173 -92.5 -271.5
t-263.5 -98.5z" />
    <glyph glyph-name="Omacron" unicode="&#x14c;" horiz-adv-x="1864" 
d="M1276 1790v-126h-684v126h684zM934 -16q-166 0 -310 56.5t-250 159.5q-108 102 -166 238.5t-58 297.5q0 321 224 536q106 103 249 158.5t311 55.5q337 0 558 -212q222 -213 222 -538q0 -329 -222 -538q-220 -214 -558 -214zM934 170q160 0 290.5 73t205 203t74.5 290
t-74.5 289t-205 202t-290.5 73q-162 0 -293.5 -73t-206 -202t-74.5 -289q0 -244 164 -405t410 -161z" />
    <glyph glyph-name="omacron" unicode="&#x14d;" 
d="M1070 1474v-126h-684v126h684zM730 -12q-169 0 -298 72q-132 76 -207 205.5t-75 290.5q0 163 76 294q76 129 207 201.5t297 72.5t298 -72q133 -73 206.5 -201t73.5 -295q0 -161 -74 -294q-76 -129 -208 -201.5t-296 -72.5zM730 164q107 0 194 48q85 50 132.5 139
t47.5 205q0 115 -48 208q-50 87 -135 135.5t-191 48.5q-101 0 -192 -50q-85 -50 -134.5 -137.5t-49.5 -204.5q0 -118 50 -206q51 -89 135.5 -137.5t190.5 -48.5z" />
    <glyph glyph-name="Obreve" unicode="&#x14e;" horiz-adv-x="1864" 
d="M934 1578q-146 0 -241 78t-99 208h136q4 -76 62 -122t142 -46q85 0 144 46t60 122h136q-4 -130 -99 -208t-241 -78zM934 -16q-166 0 -310 56.5t-250 159.5q-108 102 -166 238.5t-58 297.5q0 321 224 536q106 103 249 158.5t311 55.5q337 0 558 -212q222 -213 222 -538
q0 -329 -222 -538q-220 -214 -558 -214zM934 170q160 0 290.5 73t205 203t74.5 290t-74.5 289t-205 202t-290.5 73q-162 0 -293.5 -73t-206 -202t-74.5 -289q0 -244 164 -405t410 -161z" />
    <glyph glyph-name="obreve" unicode="&#x14f;" 
d="M728 1262q-146 0 -241 78t-99 208h136q4 -76 62 -122t142 -46q85 0 144 46t60 122h136q-4 -130 -99 -208t-241 -78zM730 -12q-169 0 -298 72q-132 76 -207 205.5t-75 290.5q0 163 76 294q76 129 207 201.5t297 72.5t298 -72q133 -73 206.5 -201t73.5 -295
q0 -161 -74 -294q-76 -129 -208 -201.5t-296 -72.5zM730 164q107 0 194 48q85 50 132.5 139t47.5 205q0 115 -48 208q-50 87 -135 135.5t-191 48.5q-101 0 -192 -50q-85 -50 -134.5 -137.5t-49.5 -204.5q0 -118 50 -206q51 -89 135.5 -137.5t190.5 -48.5z" />
    <glyph glyph-name="Ohungarumlaut" unicode="&#x150;" horiz-adv-x="1864" 
d="M1068 1864l-232 -274h-170l188 274h214zM1432 1864l-230 -274h-170l188 274h212zM934 -16q-166 0 -310 56.5t-250 159.5q-108 102 -166 238.5t-58 297.5q0 321 224 536q106 103 249 158.5t311 55.5q337 0 558 -212q222 -213 222 -538q0 -329 -222 -538
q-220 -214 -558 -214zM934 170q160 0 290.5 73t205 203t74.5 290t-74.5 289t-205 202t-290.5 73q-162 0 -293.5 -73t-206 -202t-74.5 -289q0 -244 164 -405t410 -161z" />
    <glyph glyph-name="ohungarumlaut" unicode="&#x151;" 
d="M862 1548l-232 -274h-170l188 274h214zM1226 1548l-230 -274h-170l188 274h212zM730 -12q-169 0 -298 72q-132 76 -207 205.5t-75 290.5q0 163 76 294q76 129 207 201.5t297 72.5t298 -72q133 -73 206.5 -201t73.5 -295q0 -161 -74 -294q-76 -129 -208 -201.5t-296 -72.5
zM730 164q107 0 194 48q85 50 132.5 139t47.5 205q0 115 -48 208q-50 87 -135 135.5t-191 48.5q-101 0 -192 -50q-85 -50 -134.5 -137.5t-49.5 -204.5q0 -118 50 -206q51 -89 135.5 -137.5t190.5 -48.5z" />
    <glyph glyph-name="OE" unicode="&#x152;" horiz-adv-x="2444" 
d="M2294 182v-182h-1350q-230 0 -414 92q-180 94 -280 259.5t-100 380.5q0 220 102 388q101 167 280 258.5t412 91.5h1322v-182h-830v-452h740v-178h-740v-476h858zM956 182h272v1106h-272q-177 0 -314 -70q-135 -70 -208.5 -195.5t-73.5 -290.5q0 -160 74 -286
q76 -126 210.5 -195t311.5 -69z" />
    <glyph glyph-name="oe" unicode="&#x153;" horiz-adv-x="2362" 
d="M730 -12q-169 0 -298 72q-133 76 -207.5 205t-74.5 291q0 163 76 294q76 129 207 201.5t297 72.5t292 -72q114 -66 180 -174q73 117 191.5 181.5t268.5 64.5q163 0 286 -72q126 -71 195 -201t69 -301v-30q0 -20 -2 -30h-902q9 -82 46 -142q50 -87 142.5 -135.5
t211.5 -48.5q206 0 322 134l112 -130q-156 -180 -440 -180q-176 0 -308 72q-121 69 -190 178q-73 -118 -195.5 -184t-278.5 -66zM1308 634h714q-6 71 -42 140q-49 86 -130.5 133t-187.5 47q-104 0 -184 -46q-72 -42 -116.5 -113t-53.5 -161zM730 164q107 0 194 48
q85 50 132.5 139t47.5 205q0 115 -48 208q-50 87 -135 135.5t-191 48.5q-101 0 -192 -50q-85 -50 -134.5 -137.5t-49.5 -204.5q0 -118 50 -206q51 -89 135.5 -137.5t190.5 -48.5z" />
    <glyph glyph-name="Racute" unicode="&#x154;" horiz-adv-x="1536" 
d="M1094 1864l-352 -274h-190l286 274h256zM360 446v-446h-210v1470h622q195 0 330 -60q137 -62 210.5 -178t73.5 -274q0 -157 -74 -274q-98 -150 -290 -206l340 -478h-228l-314 446h-460zM766 1288h-406v-660h406q200 0 305 85.5t105 244.5t-105 244.5t-305 85.5z" />
    <glyph glyph-name="racute" unicode="&#x155;" horiz-adv-x="984" 
d="M834 1548l-352 -274h-190l286 274h256zM350 554v-554h-200v1114h192v-188q53 96 157 147t249 51v-196q-8 2 -24 2h-22q-164 0 -258 -97.5t-94 -278.5z" />
    <glyph glyph-name="Rcaron" unicode="&#x158;" horiz-adv-x="1536" 
d="M1086 1864l-280 -274h-192l-280 274h182l194 -160l194 160h182zM360 446v-446h-210v1470h622q195 0 330 -60q137 -62 210.5 -178t73.5 -274q0 -157 -74 -274q-98 -150 -290 -206l340 -478h-228l-314 446h-460zM766 1288h-406v-660h406q200 0 305 85.5t105 244.5
t-105 244.5t-305 85.5z" />
    <glyph glyph-name="rcaron" unicode="&#x159;" horiz-adv-x="1052" 
d="M902 1548l-280 -274h-192l-280 274h182l194 -160l194 160h182zM426 554v-554h-200v1114h192v-188q53 96 157 147t249 51v-196q-8 2 -24 2h-22q-164 0 -258 -97.5t-94 -278.5z" />
    <glyph glyph-name="Sacute" unicode="&#x15a;" horiz-adv-x="1432" 
d="M1124 1864l-352 -274h-190l286 274h256zM712 -16q-167 0 -320 50.5t-242 133.5l78 164q86 -76 217 -123t267 -47q130 0 208 30q156 58 156 196q0 74 -48 122q-83 75 -302 124q-56 13 -94 22t-88.5 24t-84.5 28.5t-74.5 34t-67.5 42t-54 51t-42.5 63t-25 76t-9.5 91.5
q0 114 60 210q63 99 189 154.5t313 55.5q130 0 256 -34t218 -96l-70 -168q-180 120 -404 120q-125 0 -204 -32q-152 -60 -152 -200q0 -80 50 -124q46 -43 118.5 -70.5t181.5 -51.5q79 -19 119.5 -30t108.5 -32.5t104 -41.5t82 -52.5t69 -69.5t40 -88.5t17 -113.5
q0 -113 -60 -206q-64 -100 -192.5 -156t-317.5 -56z" />
    <glyph glyph-name="sacute" unicode="&#x15b;" horiz-adv-x="1242" 
d="M1004 1548l-352 -274h-190l286 274h256zM610 -12q-135 0 -261.5 36.5t-198.5 93.5l84 160q73 -51 179 -83.5t213 -32.5q264 0 264 150q0 27 -9.5 48t-31.5 36t-43 25.5t-58.5 19.5t-62.5 13.5t-71 11.5q-80 12 -133.5 24t-114 36t-96.5 56t-60 85t-24 123q0 98 56 176
q58 76 162.5 117t245.5 41q114 0 226 -27t180 -75l-86 -158q-136 88 -322 88q-128 0 -195 -42t-67 -112q0 -28 10 -50t31.5 -38t43.5 -27.5t58 -20.5t63 -14t70 -12q56 -9 95 -16.5t87.5 -21t81.5 -29t67 -39.5t54 -53t32.5 -69.5t12.5 -89.5q0 -101 -60 -176
q-123 -154 -422 -154z" />
    <glyph glyph-name="Scircumflex" unicode="&#x15c;" horiz-adv-x="1432" 
d="M740 1752l-194 -162h-182l280 274h192l280 -274h-182zM712 -16q-167 0 -320 50.5t-242 133.5l78 164q86 -76 217 -123t267 -47q130 0 208 30q156 58 156 196q0 74 -48 122q-83 75 -302 124q-56 13 -94 22t-88.5 24t-84.5 28.5t-74.5 34t-67.5 42t-54 51t-42.5 63t-25 76
t-9.5 91.5q0 114 60 210q63 99 189 154.5t313 55.5q130 0 256 -34t218 -96l-70 -168q-180 120 -404 120q-125 0 -204 -32q-152 -60 -152 -200q0 -80 50 -124q46 -43 118.5 -70.5t181.5 -51.5q79 -19 119.5 -30t108.5 -32.5t104 -41.5t82 -52.5t69 -69.5t40 -88.5t17 -113.5
q0 -113 -60 -206q-64 -100 -192.5 -156t-317.5 -56z" />
    <glyph glyph-name="scircumflex" unicode="&#x15d;" horiz-adv-x="1242" 
d="M620 1436l-194 -162h-182l280 274h192l280 -274h-182zM610 -12q-135 0 -261.5 36.5t-198.5 93.5l84 160q73 -51 179 -83.5t213 -32.5q264 0 264 150q0 27 -9.5 48t-31.5 36t-43 25.5t-58.5 19.5t-62.5 13.5t-71 11.5q-80 12 -133.5 24t-114 36t-96.5 56t-60 85t-24 123
q0 98 56 176q58 76 162.5 117t245.5 41q114 0 226 -27t180 -75l-86 -158q-136 88 -322 88q-128 0 -195 -42t-67 -112q0 -28 10 -50t31.5 -38t43.5 -27.5t58 -20.5t63 -14t70 -12q56 -9 95 -16.5t87.5 -21t81.5 -29t67 -39.5t54 -53t32.5 -69.5t12.5 -89.5q0 -101 -60 -176
q-123 -154 -422 -154z" />
    <glyph glyph-name="Scedilla" unicode="&#x15e;" horiz-adv-x="1432" 
d="M742 830q79 -19 119.5 -30t108.5 -32.5t104 -41.5t82 -52.5t69 -69.5t40 -88.5t17 -113.5q0 -113 -60 -206q-121 -187 -432 -210l-24 -92q87 -7 134.5 -54.5t47.5 -119.5q0 -87 -70.5 -138.5t-189.5 -51.5q-110 0 -188 46l44 102q66 -36 144 -36q118 0 118 84
q0 82 -120 82h-58l46 176q-157 6 -298.5 56t-225.5 128l78 164q86 -76 217 -123t267 -47q130 0 208 30q156 58 156 196q0 74 -48 122q-83 75 -302 124q-56 13 -94 22t-88.5 24t-84.5 28.5t-74.5 34t-67.5 42t-54 51t-42.5 63t-25 76t-9.5 91.5q0 114 60 210q63 99 189 154.5
t313 55.5q130 0 256 -34t218 -96l-70 -168q-180 120 -404 120q-125 0 -204 -32q-152 -60 -152 -200q0 -80 50 -124q46 -43 118.5 -70.5t181.5 -51.5z" />
    <glyph glyph-name="scedilla" unicode="&#x15f;" horiz-adv-x="1242" 
d="M662 636q56 -9 95 -16.5t87.5 -21t81.5 -29t67 -39.5t54 -53t32.5 -69.5t12.5 -89.5q0 -101 -60 -176q-109 -137 -362 -152l-24 -96q87 -7 134.5 -54.5t47.5 -119.5q0 -87 -70.5 -138.5t-189.5 -51.5q-110 0 -188 46l44 102q66 -36 144 -36q118 0 118 84q0 82 -120 82
h-58l48 182q-123 7 -232.5 42.5t-173.5 85.5l84 160q73 -51 179 -83.5t213 -32.5q264 0 264 150q0 27 -9.5 48t-31.5 36t-43 25.5t-58.5 19.5t-62.5 13.5t-71 11.5q-80 12 -133.5 24t-114 36t-96.5 56t-60 85t-24 123q0 98 56 176q58 76 162.5 117t245.5 41q114 0 226 -27
t180 -75l-86 -158q-136 88 -322 88q-128 0 -195 -42t-67 -112q0 -28 10 -50t31.5 -38t43.5 -27.5t58 -20.5t63 -14t70 -12z" />
    <glyph glyph-name="Scaron" unicode="&#x160;" horiz-adv-x="1432" 
d="M1116 1864l-280 -274h-192l-280 274h182l194 -160l194 160h182zM712 -16q-167 0 -320 50.5t-242 133.5l78 164q86 -76 217 -123t267 -47q130 0 208 30q156 58 156 196q0 74 -48 122q-83 75 -302 124q-56 13 -94 22t-88.5 24t-84.5 28.5t-74.5 34t-67.5 42t-54 51
t-42.5 63t-25 76t-9.5 91.5q0 114 60 210q63 99 189 154.5t313 55.5q130 0 256 -34t218 -96l-70 -168q-180 120 -404 120q-125 0 -204 -32q-152 -60 -152 -200q0 -80 50 -124q46 -43 118.5 -70.5t181.5 -51.5q79 -19 119.5 -30t108.5 -32.5t104 -41.5t82 -52.5t69 -69.5
t40 -88.5t17 -113.5q0 -113 -60 -206q-64 -100 -192.5 -156t-317.5 -56z" />
    <glyph glyph-name="scaron" unicode="&#x161;" horiz-adv-x="1242" 
d="M996 1548l-280 -274h-192l-280 274h182l194 -160l194 160h182zM610 -12q-135 0 -261.5 36.5t-198.5 93.5l84 160q73 -51 179 -83.5t213 -32.5q264 0 264 150q0 27 -9.5 48t-31.5 36t-43 25.5t-58.5 19.5t-62.5 13.5t-71 11.5q-80 12 -133.5 24t-114 36t-96.5 56t-60 85
t-24 123q0 98 56 176q58 76 162.5 117t245.5 41q114 0 226 -27t180 -75l-86 -158q-136 88 -322 88q-128 0 -195 -42t-67 -112q0 -28 10 -50t31.5 -38t43.5 -27.5t58 -20.5t63 -14t70 -12q56 -9 95 -16.5t87.5 -21t81.5 -29t67 -39.5t54 -53t32.5 -69.5t12.5 -89.5
q0 -101 -60 -176q-123 -154 -422 -154z" />
    <glyph glyph-name="Tcaron" unicode="&#x164;" horiz-adv-x="1516" 
d="M1134 1864l-280 -274h-192l-280 274h182l194 -160l194 160h182zM862 1288v-1288h-208v1288h-504v182h1216v-182h-504z" />
    <glyph glyph-name="tcaron" unicode="&#x165;" horiz-adv-x="1084" 
d="M876 1606l-24 -354h-136v354h160zM692 -12q-170 0 -262 90t-92 258v612h-188v166h188v242h202v-242h320v-166h-320v-604q0 -90 45.5 -138t128.5 -48q97 0 158 52l62 -144q-87 -78 -242 -78z" />
    <glyph glyph-name="Tbar" unicode="&#x166;" horiz-adv-x="1516" 
d="M150 1470h1216v-182h-504v-492h316v-166h-316v-630h-208v630h-316v166h316v492h-504v182z" />
    <glyph glyph-name="tbar" unicode="&#x167;" horiz-adv-x="1084" 
d="M872 210l62 -144q-87 -78 -242 -78q-170 0 -262 90t-92 258v200h-164v142h164v270h-188v166h188v242h202v-242h320v-166h-320v-270h296v-142h-296v-192q0 -90 45.5 -138t128.5 -48q97 0 158 52z" />
    <glyph glyph-name="Utilde" unicode="&#x168;" horiz-adv-x="1544" 
d="M922 1598q-42 0 -83.5 22t-70 48t-63 48t-63.5 22q-47 0 -75.5 -34.5t-32.5 -95.5h-112q5 119 59.5 187.5t146.5 68.5q41 0 83 -22.5t70.5 -49.5t62.5 -49.5t62 -22.5q47 0 77 34.5t31 91.5h112q-2 -112 -57.5 -180t-146.5 -68zM772 -16q-294 0 -458 167.5t-164 482.5
v836h210v-828q0 -240 106.5 -356t307.5 -116q416 0 416 472v828h204v-836q0 -316 -163.5 -483t-458.5 -167z" />
    <glyph glyph-name="utilde" unicode="&#x169;" horiz-adv-x="1348" 
d="M824 1282q-42 0 -83.5 22t-70 48t-63 48t-63.5 22q-47 0 -75.5 -34.5t-32.5 -95.5h-112q5 119 59.5 187.5t146.5 68.5q41 0 83 -22.5t70.5 -49.5t62.5 -49.5t62 -22.5q47 0 77 34.5t31 91.5h112q-2 -112 -57.5 -180t-146.5 -68zM630 -12q-149 0 -250 52
q-230 110 -230 432v642h202v-618q0 -162 78 -245t222 -83q105 0 184 44q160 88 160 326v576h202v-1114h-190v168q-61 -87 -159.5 -133.5t-218.5 -46.5z" />
    <glyph glyph-name="Umacron" unicode="&#x16a;" horiz-adv-x="1544" 
d="M1116 1790v-126h-684v126h684zM772 -16q-294 0 -458 167.5t-164 482.5v836h210v-828q0 -240 106.5 -356t307.5 -116q416 0 416 472v828h204v-836q0 -316 -163.5 -483t-458.5 -167z" />
    <glyph glyph-name="umacron" unicode="&#x16b;" horiz-adv-x="1348" 
d="M1018 1474v-126h-684v126h684zM630 -12q-149 0 -250 52q-230 110 -230 432v642h202v-618q0 -162 78 -245t222 -83q105 0 184 44q160 88 160 326v576h202v-1114h-190v168q-61 -87 -159.5 -133.5t-218.5 -46.5z" />
    <glyph glyph-name="Ubreve" unicode="&#x16c;" horiz-adv-x="1544" 
d="M774 1578q-146 0 -241 78t-99 208h136q4 -76 62 -122t142 -46q85 0 144 46t60 122h136q-4 -130 -99 -208t-241 -78zM772 -16q-294 0 -458 167.5t-164 482.5v836h210v-828q0 -240 106.5 -356t307.5 -116q416 0 416 472v828h204v-836q0 -316 -163.5 -483t-458.5 -167z" />
    <glyph glyph-name="ubreve" unicode="&#x16d;" horiz-adv-x="1348" 
d="M676 1262q-146 0 -241 78t-99 208h136q4 -76 62 -122t142 -46q85 0 144 46t60 122h136q-4 -130 -99 -208t-241 -78zM630 -12q-149 0 -250 52q-230 110 -230 432v642h202v-618q0 -162 78 -245t222 -83q105 0 184 44q160 88 160 326v576h202v-1114h-190v168
q-61 -87 -159.5 -133.5t-218.5 -46.5z" />
    <glyph glyph-name="Uring" unicode="&#x16e;" horiz-adv-x="1544" 
d="M772 1606q-96 0 -164 66.5t-68 159.5q0 95 68 163.5t164 68.5q98 0 166 -68t68 -164q0 -93 -68.5 -159.5t-165.5 -66.5zM772 1694q61 0 99.5 39.5t38.5 98.5q0 62 -38.5 101t-99.5 39q-59 0 -97.5 -39t-38.5 -101q0 -59 37.5 -98.5t98.5 -39.5zM772 -16
q-294 0 -458 167.5t-164 482.5v836h210v-828q0 -240 106.5 -356t307.5 -116q416 0 416 472v828h204v-836q0 -316 -163.5 -483t-458.5 -167z" />
    <glyph glyph-name="uring" unicode="&#x16f;" horiz-adv-x="1348" 
d="M674 1248q-96 0 -164 66.5t-68 159.5q0 95 68 163.5t164 68.5q98 0 166 -68t68 -164q0 -93 -68.5 -159.5t-165.5 -66.5zM674 1336q61 0 99.5 39.5t38.5 98.5q0 62 -38.5 101t-99.5 39q-59 0 -97.5 -39t-38.5 -101q0 -59 37.5 -98.5t98.5 -39.5zM630 -12q-149 0 -250 52
q-230 110 -230 432v642h202v-618q0 -162 78 -245t222 -83q105 0 184 44q160 88 160 326v576h202v-1114h-190v168q-61 -87 -159.5 -133.5t-218.5 -46.5z" />
    <glyph glyph-name="Uhungarumlaut" unicode="&#x170;" horiz-adv-x="1544" 
d="M908 1864l-232 -274h-170l188 274h214zM1272 1864l-230 -274h-170l188 274h212zM772 -16q-294 0 -458 167.5t-164 482.5v836h210v-828q0 -240 106.5 -356t307.5 -116q416 0 416 472v828h204v-836q0 -316 -163.5 -483t-458.5 -167z" />
    <glyph glyph-name="uhungarumlaut" unicode="&#x171;" horiz-adv-x="1348" 
d="M810 1548l-232 -274h-170l188 274h214zM1174 1548l-230 -274h-170l188 274h212zM630 -12q-149 0 -250 52q-230 110 -230 432v642h202v-618q0 -162 78 -245t222 -83q105 0 184 44q160 88 160 326v576h202v-1114h-190v168q-61 -87 -159.5 -133.5t-218.5 -46.5z" />
    <glyph glyph-name="Uogonek" unicode="&#x172;" horiz-adv-x="1544" 
d="M820 -470q-117 0 -184.5 58t-67.5 154q0 57 30 114q31 68 114 130q-266 15 -414 182.5t-148 465.5v836h210v-828q0 -240 106.5 -356t307.5 -116q416 0 416 472v828h204v-836q0 -480 -380 -618q-125 -43 -190 -90q-114 -77 -114 -170q0 -50 36.5 -79t93.5 -29q68 0 128 34
l40 -102q-81 -50 -188 -50z" />
    <glyph glyph-name="uogonek" unicode="&#x173;" horiz-adv-x="1394" 
d="M1206 -318l38 -102q-78 -50 -188 -50q-117 0 -184.5 58t-67.5 154q0 55 28 114q46 92 176 164v148q-61 -87 -159.5 -133.5t-218.5 -46.5q-149 0 -250 52q-230 110 -230 432v642h202v-618q0 -162 78 -245t222 -83q105 0 184 44q160 88 160 326v576h202v-1114
q-107 -50 -146 -82q-104 -73 -104 -162q0 -50 35.5 -79t92.5 -29q66 0 130 34z" />
    <glyph glyph-name="Wcircumflex" unicode="&#x174;" horiz-adv-x="2530" 
d="M1266 1752l-194 -162h-182l280 274h192l280 -274h-182zM1266 1174l-400 -1174h-226l-490 1470h216l396 -1194l414 1194h194l404 -1202l406 1202h200l-492 -1470h-220z" />
    <glyph glyph-name="wcircumflex" unicode="&#x175;" horiz-adv-x="2164" 
d="M1076 1432l-194 -162h-182l280 274h192l280 -274h-182zM1084 844l-326 -844h-194l-414 1114h192l324 -888l336 888h170l328 -892l332 892h182l-416 -1114h-194z" />
    <glyph glyph-name="Ycircumflex" unicode="&#x176;" horiz-adv-x="1676" 
d="M838 1752l-194 -162h-182l280 274h192l280 -274h-182zM942 508v-508h-208v512l-584 958h224l470 -774l474 774h208z" />
    <glyph glyph-name="ycircumflex" unicode="&#x177;" horiz-adv-x="1480" 
d="M712 1436l-194 -162h-182l280 274h192l280 -274h-182zM1330 1114l-722 -1642h-202l236 530l-492 1112h210l388 -892l384 892h198z" />
    <glyph glyph-name="Ydieresis" unicode="&#x178;" horiz-adv-x="1676" 
d="M642 1626q-44 0 -75 31t-31 77q0 47 31 77.5t75 30.5q46 0 77 -30.5t31 -77.5q0 -46 -31.5 -77t-76.5 -31zM1034 1626q-45 0 -76.5 31t-31.5 77q0 47 31 77.5t77 30.5q44 0 75 -30.5t31 -77.5q0 -46 -31 -77t-75 -31zM942 508v-508h-208v512l-584 958h224l470 -774
l474 774h208z" />
    <glyph glyph-name="Zacute" unicode="&#x179;" horiz-adv-x="1528" 
d="M1150 1864l-352 -274h-190l286 274h256zM1378 182v-182h-1228v142l924 1146h-908v182h1186v-142l-920 -1146h946z" />
    <glyph glyph-name="zacute" unicode="&#x17a;" horiz-adv-x="1232" 
d="M1000 1548l-352 -274h-190l286 274h256zM1082 166v-166h-932v130l658 818h-646v166h904v-134l-658 -814h674z" />
    <glyph glyph-name="Zdotaccent" unicode="&#x17b;" horiz-adv-x="1528" 
d="M766 1628q-52 0 -88 36.5t-36 87.5q0 52 36 88t88 36t88 -36t36 -88q0 -51 -36 -87.5t-88 -36.5zM1378 182v-182h-1228v142l924 1146h-908v182h1186v-142l-920 -1146h946z" />
    <glyph glyph-name="zdotaccent" unicode="&#x17c;" horiz-adv-x="1232" 
d="M616 1312q-52 0 -88 36.5t-36 87.5q0 52 36 88t88 36t88 -36t36 -88q0 -51 -36 -87.5t-88 -36.5zM1082 166v-166h-932v130l658 818h-646v166h904v-134l-658 -814h674z" />
    <glyph glyph-name="Zcaron" unicode="&#x17d;" horiz-adv-x="1528" 
d="M1142 1864l-280 -274h-192l-280 274h182l194 -160l194 160h182zM1378 182v-182h-1228v142l924 1146h-908v182h1186v-142l-920 -1146h946z" />
    <glyph glyph-name="zcaron" unicode="&#x17e;" horiz-adv-x="1232" 
d="M992 1548l-280 -274h-192l-280 274h182l194 -160l194 160h182zM1082 166v-166h-932v130l658 818h-646v166h904v-134l-658 -814h674z" />
    <glyph glyph-name="longs" unicode="&#x17f;" horiz-adv-x="1084" 
d="M542 1210v-1210h-202v948h-190v166h190v98q0 166 96.5 262t271.5 96q145 0 226 -64l-62 -154q-64 52 -154 52q-176 0 -176 -194z" />
    <glyph glyph-name="florin" unicode="&#x192;" horiz-adv-x="950" 
d="M58 -420q-152 0 -238 70l76 152q58 -52 154 -52q82 0 133 50.5t63 145.5l120 974h-190l20 166h192l14 126q20 166 125 262t275 96q157 0 228 -68l-78 -154q-52 52 -146 52q-89 0 -142.5 -49.5t-65.5 -144.5l-14 -120h322l-18 -166h-320l-122 -980q-20 -167 -122.5 -263.5
t-265.5 -96.5z" />
    <glyph glyph-name="Ohorn" unicode="&#x1a0;" horiz-adv-x="1864" 
d="M934 -16q-166 0 -310 56.5t-250 159.5q-108 102 -166 238.5t-58 297.5q0 325 226 538q105 102 250 157t314 55q133 0 220 -14q90 -14 184 -14q200 0 200 152q0 65 -42 130l126 52q58 -92 58 -188q0 -114 -68.5 -185t-197.5 -87q61 -43 114 -106q180 -206 180 -490
q0 -329 -222 -538q-220 -214 -558 -214zM934 170q161 0 291.5 73.5t204.5 203t74 289.5q0 240 -163 402t-407 162q-162 0 -293.5 -73t-206 -202t-74.5 -289t74.5 -289.5t206 -203t293.5 -73.5z" />
    <glyph glyph-name="ohorn" unicode="&#x1a1;" 
d="M730 -12q-169 0 -298 72q-133 76 -207.5 205t-74.5 291q0 163 76 294q76 129 208 201.5t298 72.5q30 0 128 -7t126 -7q79 0 119.5 40t40.5 102q0 66 -44 132l126 48q60 -83 60 -186q0 -84 -38 -142q-47 -78 -144 -108q96 -78 149 -190.5t53 -249.5q0 -161 -74 -294
q-76 -129 -208 -201.5t-296 -72.5zM730 164q106 0 190 48q87 50 135.5 139.5t48.5 204.5t-48 208q-50 87 -135 135.5t-191 48.5q-101 0 -192 -50q-85 -50 -134.5 -137.5t-49.5 -204.5q0 -118 50 -206q51 -89 135.5 -137.5t190.5 -48.5z" />
    <glyph glyph-name="Uhorn" unicode="&#x1af;" horiz-adv-x="1758" 
d="M1608 1602q0 -110 -56.5 -184.5t-157.5 -93.5v-690q0 -316 -163.5 -483t-458.5 -167q-294 0 -458 167.5t-164 482.5v836h210v-828q0 -240 106.5 -356t307.5 -116q416 0 416 472v828h100v2h38q66 0 100 37.5t34 98.5q0 77 -42 132l128 48q60 -72 60 -186z" />
    <glyph glyph-name="uhorn" unicode="&#x1b0;" horiz-adv-x="1530" 
d="M1380 1244q0 -101 -47.5 -172t-134.5 -98v-974h-190v168q-61 -87 -159.5 -133.5t-218.5 -46.5q-149 0 -250 52q-230 110 -230 432v642h202v-618q0 -162 78 -245t222 -83q105 0 184 44q160 88 160 326v576h104q66 0 100 37.5t34 98.5q0 77 -42 132l128 48q60 -72 60 -186z
" />
    <glyph glyph-name="Gcaron" unicode="&#x1e6;" horiz-adv-x="1654" 
d="M1288 1864l-280 -274h-192l-280 274h182l194 -160l194 160h182zM934 -16q-343 0 -560 214q-224 211 -224 538q0 325 226 538q218 212 562 212q364 0 566 -226l-130 -130q-173 170 -428 170q-167 0 -301 -72t-209.5 -201t-75.5 -291t75.5 -291.5t209 -202t299.5 -72.5
q195 0 346 94v378h-474v180h674v-652q-106 -91 -251 -138.5t-305 -47.5z" />
    <glyph glyph-name="gcaron" unicode="&#x1e7;" horiz-adv-x="1476" 
d="M1128 1548l-280 -274h-192l-280 274h182l194 -160l194 160h182zM704 -422q-347 0 -508 228l162 130q101 -172 348 -172q404 0 416 448q-70 -82 -177 -124t-229 -42q-160 0 -288 70q-130 69 -204 191.5t-74 278.5q0 159 76 284q74 121 201 187.5t289 66.5q141 0 260 -58
q87 -44 146 -114v134h204v-858q0 -316 -163 -483t-459 -167zM738 222q109 0 198 46q88 47 136 129.5t48 188.5q0 107 -48 188q-52 83 -137.5 128.5t-196.5 45.5q-107 0 -198 -44q-88 -47 -137 -130t-49 -188q0 -108 50 -190t137 -128t197 -46z" />
    <glyph glyph-name="Aringacute" unicode="&#x1fa;" horiz-adv-x="1842" 
d="M918 1606q-96 0 -164 66.5t-68 159.5q0 95 68 163.5t164 68.5q57 0 114 -30l176 178l104 -86l-200 -162q40 -63 40 -132q0 -93 -68.5 -159.5t-165.5 -66.5zM918 1694q61 0 99.5 39.5t38.5 98.5q0 62 -38.5 101t-99.5 39q-59 0 -97.5 -39t-38.5 -101q0 -59 37.5 -98.5
t98.5 -39.5zM542 402l-176 -402h-216l666 1470h208l668 -1470h-222l-176 402h-752zM1220 570l-302 686l-302 -686h604z" />
    <glyph glyph-name="aringacute" unicode="&#x1fb;" horiz-adv-x="1268" 
d="M654 1248q-96 0 -164 66.5t-68 159.5q0 95 68 163.5t164 68.5q57 0 114 -30l176 178l104 -86l-200 -162q40 -63 40 -132q0 -93 -68.5 -159.5t-165.5 -66.5zM654 1336q61 0 99.5 39.5t38.5 98.5q0 62 -38.5 101t-99.5 39q-59 0 -97.5 -39t-38.5 -101q0 -59 37.5 -98.5
t98.5 -39.5zM576 -16q-127 0 -224 40q-98 43 -150 120t-52 176q0 85 46 168q94 158 400 158h320v40q0 254 -282 254q-214 0 -268 -154l-172 96q46 115 159.5 176.5t280.5 61.5q230 0 357 -114.5t127 -325.5v-686h-196v116q-126 -126 -346 -126zM596 150q236 0 320 196v142
h-316q-252 0 -252 -164q0 -81 65.5 -127.5t182.5 -46.5z" />
    <glyph glyph-name="AEacute" unicode="&#x1fc;" horiz-adv-x="2384" 
d="M1654 1864l-352 -274h-190l286 274h256zM602 402l-236 -402h-216l876 1470h1178v-182h-830v-452h738v-178h-738v-476h860v-182h-1068v402h-564zM1166 1288h-42l-422 -718h464v718z" />
    <glyph glyph-name="aeacute" unicode="&#x1fd;" horiz-adv-x="2182" 
d="M1400 1548l-352 -274h-190l286 274h256zM582 -12q-201 0 -316.5 92t-115.5 244q0 84 44 154q93 160 402 160h320v42q0 129 -76 199.5t-220 70.5q-100 0 -195.5 -32t-160.5 -88l-84 150q86 70 206 107t252 37q310 0 414 -196q73 93 183.5 144.5t242.5 51.5q242 0 398 -158
t156 -404q0 -50 -6 -68h-906q10 -84 48 -146q50 -88 141.5 -136t212.5 -48q197 0 322 134l114 -130q-156 -180 -442 -180q-133 0 -242 40q-157 57 -248 184q-19 -38 -50 -72q-141 -152 -394 -152zM1122 638h714q-8 78 -48 148q-50 80 -133 124t-179 44q-85 0 -172 -42
q-75 -39 -123.5 -109.5t-58.5 -164.5zM598 142q148 0 233 76.5t85 203.5v72h-312q-256 0 -256 -166q0 -87 66 -136.5t184 -49.5z" />
    <glyph glyph-name="Oslashacute" unicode="&#x1fe;" horiz-adv-x="1864" 
d="M776 1590l286 274h256l-352 -274h-190zM1492 1274q222 -213 222 -538q0 -329 -222 -538q-220 -214 -558 -214q-215 0 -390 92l-160 -224h-164l212 296q-30 24 -58 52q-108 102 -166 238.5t-58 297.5q0 321 224 536q106 103 249 158.5t311 55.5q215 0 390 -92l160 224h164
l-212 -296q27 -19 56 -48zM360 736q0 -129 49.5 -239.5t138.5 -186.5l662 924q-129 66 -276 66q-162 0 -293.5 -73t-206 -202t-74.5 -289zM934 170q160 0 290.5 73t205 203t74.5 290q0 127 -48.5 236.5t-135.5 187.5l-662 -926q128 -64 276 -64z" />
    <glyph glyph-name="oslashacute" unicode="&#x1ff;" 
d="M566 1274l286 274h256l-352 -274h-190zM1126 1256h124l-160 -244q104 -76 161 -193t57 -263q0 -161 -74 -294q-76 -129 -208 -201.5t-296 -72.5q-154 0 -274 60l-130 -198h-126l166 254q-102 80 -159 196t-57 256q0 163 76 294q76 129 207 201.5t297 72.5q148 0 270 -58z
M404 350q29 -49 68 -88l426 650q-75 36 -168 36q-101 0 -192 -50q-85 -50 -134.5 -137.5t-49.5 -204.5q0 -118 50 -206zM924 212q85 50 132.5 139t47.5 205q0 115 -48 208q-29 49 -70 90l-428 -652q79 -38 172 -38q107 0 194 48z" />
    <glyph glyph-name="circumflex" unicode="&#x2c6;" horiz-adv-x="1432" 
d="M716 1436l-194 -162h-182l280 274h192l280 -274h-182z" />
    <glyph glyph-name="caron" unicode="&#x2c7;" horiz-adv-x="1432" 
d="M1092 1548l-280 -274h-192l-280 274h182l194 -160l194 160h182z" />
    <glyph glyph-name="breve" unicode="&#x2d8;" horiz-adv-x="1384" 
d="M692 1262q-146 0 -241 78t-99 208h136q4 -76 62 -122t142 -46q85 0 144 46t60 122h136q-4 -130 -99 -208t-241 -78z" />
    <glyph glyph-name="dotaccent" unicode="&#x2d9;" horiz-adv-x="1400" 
d="M700 1312q-52 0 -88 36.5t-36 87.5q0 52 36 88t88 36t88 -36t36 -88q0 -51 -36 -87.5t-88 -36.5z" />
    <glyph glyph-name="ring" unicode="&#x2da;" horiz-adv-x="1336" 
d="M666 1248q-96 0 -164 66.5t-68 159.5q0 95 68 163.5t164 68.5q98 0 166 -68t68 -164q0 -93 -68.5 -159.5t-165.5 -66.5zM666 1336q61 0 99.5 39.5t38.5 98.5q0 62 -38.5 101t-99.5 39q-59 0 -97.5 -39t-38.5 -101q0 -59 37.5 -98.5t98.5 -39.5z" />
    <glyph glyph-name="ogonek" unicode="&#x2db;" horiz-adv-x="1354" 
d="M576 -470q-117 0 -184.5 58t-67.5 154q0 55 28 114q63 123 272 212l94 -68q-107 -50 -146 -82q-104 -73 -104 -162q0 -50 35.5 -79t92.5 -29q66 0 130 34l38 -102q-78 -50 -188 -50z" />
    <glyph glyph-name="tilde" unicode="&#x2dc;" horiz-adv-x="1392" 
d="M844 1282q-42 0 -83.5 22t-70 48t-63 48t-63.5 22q-47 0 -75.5 -34.5t-32.5 -95.5h-112q5 119 59.5 187.5t146.5 68.5q41 0 83 -22.5t70.5 -49.5t62.5 -49.5t62 -22.5q47 0 77 34.5t31 91.5h112q-2 -112 -57.5 -180t-146.5 -68z" />
    <glyph glyph-name="hungarumlaut" unicode="&#x2dd;" horiz-adv-x="1430" 
d="M858 1548l-232 -274h-170l188 274h214zM1222 1548l-230 -274h-170l188 274h212z" />
    <glyph glyph-name="gravecomb" unicode="&#x300;" horiz-adv-x="0" 
d="M-486 1548l286 -274h-190l-352 274h256z" />
    <glyph glyph-name="acutecomb" unicode="&#x301;" horiz-adv-x="0" 
d="M-200 1548l-352 -274h-190l286 274h256z" />
    <glyph glyph-name="tildecomb" unicode="&#x303;" horiz-adv-x="0" 
d="M-404 1282q-42 0 -83.5 22t-70 48t-63 48t-63.5 22q-47 0 -75.5 -34.5t-32.5 -95.5h-112q5 119 59.5 187.5t146.5 68.5q41 0 83 -22.5t70.5 -49.5t62.5 -49.5t62 -22.5q47 0 77 34.5t31 91.5h112q-2 -112 -57.5 -180t-146.5 -68z" />
    <glyph glyph-name="hookabovecomb" unicode="&#x309;" horiz-adv-x="0" 
d="M616 1256l-70 82q118 58 118 140q0 45 -29.5 72.5t-78.5 27.5q-68 0 -126 -40l-48 94q78 58 192 58q96 0 155 -53.5t59 -140.5q0 -158 -172 -240z" />
    <glyph glyph-name="dotbelowcomb" unicode="&#x323;" horiz-adv-x="0" 
d="M576 -412q-44 0 -76 30t-32 76q0 47 31.5 77.5t76.5 30.5t76.5 -30.5t31.5 -77.5q0 -46 -32 -76t-76 -30z" />
    <glyph glyph-name="pi" unicode="&#x3c0;" horiz-adv-x="1530" 
d="M692 948l-108 -948h-202l108 948h-92q-107 0 -163.5 -46.5t-56.5 -139.5q0 -70 60 -168l-152 -46q-42 47 -64 114t-22 132q0 95 46 164q46 73 131 114.5t199 41.5h1142l-2 -166h-310v-948h-200v948h-314z" />
    <glyph glyph-name="Wgrave" unicode="&#x1e80;" horiz-adv-x="2530" 
d="M1138 1864l286 -274h-190l-352 274h256zM1266 1174l-400 -1174h-226l-490 1470h216l396 -1194l414 1194h194l404 -1202l406 1202h200l-492 -1470h-220z" />
    <glyph glyph-name="wgrave" unicode="&#x1e81;" horiz-adv-x="2164" 
d="M948 1544l286 -274h-190l-352 274h256zM1084 844l-326 -844h-194l-414 1114h192l324 -888l336 888h170l328 -892l332 892h182l-416 -1114h-194z" />
    <glyph glyph-name="Wacute" unicode="&#x1e82;" horiz-adv-x="2530" 
d="M1650 1864l-352 -274h-190l286 274h256zM1266 1174l-400 -1174h-226l-490 1470h216l396 -1194l414 1194h194l404 -1202l406 1202h200l-492 -1470h-220z" />
    <glyph glyph-name="wacute" unicode="&#x1e83;" horiz-adv-x="2164" 
d="M1460 1544l-352 -274h-190l286 274h256zM1084 844l-326 -844h-194l-414 1114h192l324 -888l336 888h170l328 -892l332 892h182l-416 -1114h-194z" />
    <glyph glyph-name="Wdieresis" unicode="&#x1e84;" horiz-adv-x="2530" 
d="M1070 1626q-44 0 -75 31t-31 77q0 47 31 77.5t75 30.5q46 0 77 -30.5t31 -77.5q0 -46 -31.5 -77t-76.5 -31zM1462 1626q-45 0 -76.5 31t-31.5 77q0 47 31 77.5t77 30.5q44 0 75 -30.5t31 -77.5q0 -46 -31 -77t-75 -31zM1266 1174l-400 -1174h-226l-490 1470h216
l396 -1194l414 1194h194l404 -1202l406 1202h200l-492 -1470h-220z" />
    <glyph glyph-name="wdieresis" unicode="&#x1e85;" horiz-adv-x="2164" 
d="M880 1306q-44 0 -75 31t-31 77q0 47 31 77.5t75 30.5q46 0 77 -30.5t31 -77.5q0 -46 -31.5 -77t-76.5 -31zM1272 1306q-45 0 -76.5 31t-31.5 77q0 47 31 77.5t77 30.5q44 0 75 -30.5t31 -77.5q0 -46 -31 -77t-75 -31zM1084 844l-326 -844h-194l-414 1114h192l324 -888
l336 888h170l328 -892l332 892h182l-416 -1114h-194z" />
    <glyph glyph-name="Ygrave" unicode="&#x1ef2;" horiz-adv-x="1676" 
d="M710 1864l286 -274h-190l-352 274h256zM942 508v-508h-208v512l-584 958h224l470 -774l474 774h208z" />
    <glyph glyph-name="ygrave" unicode="&#x1ef3;" horiz-adv-x="1480" 
d="M584 1548l286 -274h-190l-352 274h256zM1330 1114l-722 -1642h-202l236 530l-492 1112h210l388 -892l384 892h198z" />
    <glyph glyph-name="uni2010" unicode="&#x2010;" horiz-adv-x="754" 
d="M658 664v-174h-564v174h564z" />
    <glyph glyph-name="figuredash" unicode="&#x2012;" horiz-adv-x="1484" 
d="M1380 816v-140h-1274v140h1274z" />
    <glyph glyph-name="endash" unicode="&#x2013;" horiz-adv-x="1050" 
d="M1050 646v-140h-1050v140h1050z" />
    <glyph glyph-name="emdash" unicode="&#x2014;" horiz-adv-x="2100" 
d="M2100 646v-140h-2100v140h2100z" />
    <glyph glyph-name="uni2015" unicode="&#x2015;" horiz-adv-x="2100" 
d="M2100 646v-140h-2100v140h2100z" />
    <glyph glyph-name="quoteleft" unicode="&#x2018;" horiz-adv-x="594" 
d="M299 972q-61 0 -101.5 41t-40.5 103q0 50 38 148l100 294h132l-78 -312q88 -33 88 -130q0 -63 -39.5 -103.5t-98.5 -40.5z" />
    <glyph glyph-name="quoteright" unicode="&#x2019;" horiz-adv-x="592" 
d="M401 1278l-100 -294h-132l78 314q-41 14 -65.5 49t-24.5 81q0 63 41 102.5t101 39.5q61 0 98.5 -40t37.5 -102q0 -56 -34 -150z" />
    <glyph glyph-name="quotesinglbase" unicode="&#x201a;" horiz-adv-x="592" 
d="M399 -18l-98 -292h-132l78 310q-41 14 -65.5 49t-24.5 83q0 62 41.5 103t100.5 41q61 0 98.5 -41t37.5 -103q0 -63 -36 -150z" />
    <glyph glyph-name="quotedblleft" unicode="&#x201c;" horiz-adv-x="990" 
d="M299 972q-61 0 -101.5 41t-40.5 103q0 50 38 148l100 294h132l-78 -312q88 -33 88 -130q0 -63 -39.5 -103.5t-98.5 -40.5zM695 972q-61 0 -101.5 41t-40.5 103q0 50 38 148l100 294h132l-78 -312q88 -33 88 -130q0 -63 -39.5 -103.5t-98.5 -40.5z" />
    <glyph glyph-name="quotedblright" unicode="&#x201d;" horiz-adv-x="988" 
d="M401 1278l-100 -294h-132l78 314q-41 14 -65.5 49t-24.5 81q0 63 41 102.5t101 39.5q61 0 98.5 -40t37.5 -102q0 -56 -34 -150zM797 1278l-100 -294h-132l78 314q-41 14 -65.5 49t-24.5 81q0 63 41 102.5t101 39.5q61 0 98.5 -40t37.5 -102q0 -56 -34 -150z" />
    <glyph glyph-name="quotedblbase" unicode="&#x201e;" horiz-adv-x="988" 
d="M399 -18l-98 -292h-132l78 310q-41 14 -65.5 49t-24.5 83q0 62 41.5 103t100.5 41q61 0 98.5 -41t37.5 -103q0 -63 -36 -150zM795 -18l-98 -292h-132l78 310q-41 14 -65.5 49t-24.5 83q0 62 41.5 103t100.5 41q61 0 98.5 -41t37.5 -103q0 -63 -36 -150z" />
    <glyph glyph-name="dagger" unicode="&#x2020;" horiz-adv-x="1392" 
d="M783 790v-1198h-200v1198h-422v176h422v504h200v-504h428v-176h-428z" />
    <glyph glyph-name="daggerdbl" unicode="&#x2021;" horiz-adv-x="1106" 
d="M649 96v-504h-200v504h-422v178h422v516h-422v176h422v504h200v-504h428v-176h-428v-516h428v-178h-428z" />
    <glyph glyph-name="bullet" unicode="&#x2022;" horiz-adv-x="1006" 
d="M521 386q-80 0 -136 55.5t-56 138.5q0 79 56.5 134.5t135.5 55.5q78 0 133 -55.5t55 -134.5q0 -85 -54 -139.5t-134 -54.5z" />
    <glyph glyph-name="ellipsis" unicode="&#x2026;" horiz-adv-x="1598" 
d="M326 -12q-60 0 -102 41t-42 103t42 103t102 41q58 0 98 -41t40 -103t-40 -103t-98 -41zM814 -12q-60 0 -102 41t-42 103t42 103t102 41q58 0 98 -41t40 -103t-40 -103t-98 -41zM1300 -12q-60 0 -102 41t-42 103t42 103t102 41q58 0 98 -41t40 -103t-40 -103t-98 -41z" />
    <glyph glyph-name="perthousand" unicode="&#x2030;" horiz-adv-x="2684" 
d="M491 680q-97 0 -178 50q-79 51 -121.5 142t-42.5 210t44 210q42 90 120 140t178 50q104 0 180 -50q77 -50 118.5 -140.5t41.5 -209.5q0 -120 -42 -210q-42 -91 -119.5 -141.5t-178.5 -50.5zM1539 1470l-1004 -1470h-162l1004 1470h162zM491 800q96 0 151 75t55 207
t-55 206t-151 74q-95 0 -150.5 -74.5t-55.5 -205.5q0 -130 55.5 -206t150.5 -76zM1421 -12q-102 0 -178 50q-78 51 -120 141t-42 209q0 120 42 210q42 91 120 141.5t178 50.5q99 0 180 -50q77 -52 119.5 -142.5t42.5 -209.5q0 -117 -42 -210q-44 -91 -121.5 -140.5
t-178.5 -49.5zM2193 -12q-101 0 -180 50q-78 52 -121 141.5t-43 208.5q0 118 44 212q44 90 121.5 140t178.5 50q99 0 180 -50q76 -52 118 -142.5t42 -209.5q0 -110 -42 -210q-44 -91 -120.5 -140.5t-177.5 -49.5zM1421 108q95 0 150.5 74.5t55.5 205.5q0 130 -55.5 206
t-150.5 76t-150.5 -75.5t-55.5 -206.5t55.5 -205.5t150.5 -74.5zM2193 108q95 0 149.5 74.5t54.5 205.5t-55 206.5t-149 75.5q-95 0 -150.5 -75.5t-55.5 -206.5t55.5 -205.5t150.5 -74.5z" />
    <glyph glyph-name="minute" unicode="&#x2032;" horiz-adv-x="516" 
d="M346 1470l-14 -566h-150l-12 566h176z" />
    <glyph glyph-name="second" unicode="&#x2033;" horiz-adv-x="896" 
d="M346 1470l-14 -566h-150l-12 566h176zM726 1470l-14 -566h-146l-14 566h174z" />
    <glyph glyph-name="guilsinglleft" unicode="&#x2039;" horiz-adv-x="788" 
d="M333 556l296 -400h-184l-304 400l304 404h184z" />
    <glyph glyph-name="guilsinglright" unicode="&#x203a;" horiz-adv-x="786" 
d="M639 556l-302 -400h-184l296 400l-296 404h184z" />
    <glyph glyph-name="fraction" unicode="&#x2044;" horiz-adv-x="577" 
d="M871 1470l-1004 -1470h-160l1004 1470h160z" />
    <glyph glyph-name="colonmonetary" unicode="&#x20a1;" horiz-adv-x="1420" 
d="M524 40l-72 -292h-128l88 348q-66 43 -128 102q-107 103 -165.5 239.5t-58.5 298.5q0 320 224 538q196 189 480 210l62 238h128l-62 -238q93 -3 184 -28l66 266h128l-78 -308q120 -59 206 -156l-136 -132q-60 63 -120 96l-266 -1052q231 9 386 176l136 -132
q-100 -112 -244 -171t-316 -59h-10l-60 -236h-128l64 246q-88 11 -180 46zM750 176l278 1096q-78 28 -180 28h-2l-270 -1068q84 -42 174 -56zM464 302l250 986q-197 -42 -320.5 -193t-123.5 -359q0 -132 51 -243t143 -191z" />
    <glyph glyph-name="franc" unicode="&#x20a3;" horiz-adv-x="1410" 
d="M490 246v-246h-210v246h-216v120h216v1104h1036v-182h-826v-514h736v-180h-736v-228h466v-120h-466z" />
    <glyph glyph-name="lira" unicode="&#x20a4;" horiz-adv-x="1364" 
d="M1294 182v-182h-1230v182h228v350h-228v116h228v174h-228v116h228v2q0 164 74 290q73 124 211.5 190t334.5 66q257 0 414 -104l-70 -174q-133 92 -364 92q-193 0 -292.5 -92t-99.5 -266v-4h558v-116h-558v-174h558v-116h-558v-350h794z" />
    <glyph glyph-name="peseta" unicode="&#x20a7;" horiz-adv-x="3526" 
d="M490 446v-446h-210v1470h622q195 0 330 -60q137 -62 210.5 -178t73.5 -274q0 -157 -74 -274q-74 -115 -211.5 -176.5t-328.5 -61.5h-412zM2160 -12q-170 0 -262 90t-92 258v612h-188v166h188v242h202v-242h320v-166h-320v-604q0 -90 45.5 -138t128.5 -48q97 0 158 52
l62 -144q-87 -78 -242 -78zM896 1288h-406v-660h406q200 0 305 85.5t105 244.5t-105 244.5t-305 85.5zM2966 -12q-135 0 -261.5 36.5t-198.5 93.5l84 160q73 -51 179 -83.5t213 -32.5q264 0 264 150q0 27 -9.5 48t-31.5 36t-43 25.5t-58.5 19.5t-62.5 13.5t-71 11.5
q-80 12 -133.5 24t-114 36t-96.5 56t-60 85t-24 123q0 98 56 176q58 76 162.5 117t245.5 41q114 0 226 -27t180 -75l-86 -158q-136 88 -322 88q-128 0 -195 -42t-67 -112q0 -28 10 -50t31.5 -38t43.5 -27.5t58 -20.5t63 -14t70 -12q56 -9 95 -16.5t87.5 -21t81.5 -29
t67 -39.5t54 -53t32.5 -69.5t12.5 -89.5q0 -101 -60 -176q-123 -154 -422 -154z" />
    <glyph glyph-name="dong" unicode="&#x20ab;" 
d="M678 -12q-166 0 -288 70q-130 73 -203 202t-73 296q0 165 74 298q74 128 201.5 199t288.5 71q138 0 254 -64q76 -41 134 -114v328h-442v118h442v166h202v-166h190v-118h-190v-1274h-194v174q-138 -186 -396 -186zM694 164q106 0 190 48q87 50 135.5 139.5t48.5 204.5
t-48 208q-51 87 -136 135.5t-190 48.5q-101 0 -192 -50q-85 -50 -134.5 -137.5t-49.5 -204.5q0 -118 50 -206q51 -89 135.5 -137.5t190.5 -48.5zM1270 -162v-118h-1112v118h1112z" />
    <glyph glyph-name="Euro" unicode="&#x20ac;" horiz-adv-x="1638" 
d="M1054 -16q-164 0 -306.5 55t-247.5 159q-144 137 -198 334h-238v116h218q-4 56 -4 88q0 30 4 86h-218v116h238q54 195 198 336q106 103 248 157.5t306 54.5q175 0 318.5 -57.5t241.5 -170.5l-134 -132q-168 174 -416 174q-193 0 -338 -98t-204 -264h668v-116h-694
q-6 -42 -6 -86q0 -46 6 -88h694v-116h-668q59 -166 204 -264t338 -98q249 0 416 176l134 -132q-99 -112 -243 -171t-317 -59z" />
    <glyph glyph-name="trademark" unicode="&#x2122;" horiz-adv-x="2076" 
d="M534 1346v-748h-150v748h-318v124h786v-124h-318zM1124 1200v-602h-144v872h124l388 -596l380 596h124l2 -872h-144l-2 612l-328 -508h-70z" />
    <glyph glyph-name="estimated" unicode="&#x212e;" horiz-adv-x="1896" 
d="M948 -6q-167 0 -316.5 57t-265.5 161q-115 102 -178.5 236.5t-63.5 283.5q0 153 63.5 288.5t178.5 239.5q116 103 266 159.5t316 56.5q167 0 317.5 -57t266.5 -159q114 -104 177 -239.5t63 -288.5v-16h-1334q-12 0 -12 -8v-404q0 -16 18 -48q85 -105 220 -161.5
t286 -56.5q155 0 294 66t236 178h120q-112 -131 -286 -209.5t-366 -78.5zM438 756h1022q14 0 14 12v406q0 27 -24 48q-99 99 -227.5 154.5t-272.5 55.5q-143 0 -272.5 -57t-231.5 -159q-20 -20 -20 -50v-398q0 -12 12 -12z" />
    <glyph glyph-name="arrowleft" unicode="&#x2190;" horiz-adv-x="1080" 
d="M348 498l226 -356h-182l-292 432l292 434h182l-226 -356h670v-154h-670z" />
    <glyph glyph-name="arrowup" unicode="&#x2191;" horiz-adv-x="1076" 
d="M618 802v-686h-162v686l-346 -224v174l426 292l430 -292v-174z" />
    <glyph glyph-name="arrowright" unicode="&#x2192;" horiz-adv-x="1082" 
d="M982 576l-292 -436h-182l226 358h-670v154h670l-226 354h182z" />
    <glyph glyph-name="arrowdown" unicode="&#x2193;" horiz-adv-x="1078" 
d="M968 574v-174l-426 -294l-432 294v174l350 -226v686h160v-686z" />
    <glyph glyph-name="arrowboth" unicode="&#x2194;" horiz-adv-x="1532" 
d="M350 498l230 -356h-184l-290 432l290 434h184l-228 -356h828l-226 356h182l290 -434l-290 -432h-182l226 356h-830z" />
    <glyph glyph-name="arrowupdn" unicode="&#x2195;" horiz-adv-x="1078" 
d="M964 550v-172l-424 -296l-430 296v172l348 -224v794l-346 -224v172l426 298l430 -298v-172l-348 224v-794z" />
    <glyph glyph-name="partialdiff" unicode="&#x2202;" horiz-adv-x="1566" 
d="M730 -16q-152 0 -268 58q-124 58 -193 163.5t-69 248.5q0 146 70 248q71 105 192 162.5t272 57.5q123 0 222 -42q133 -61 206 -180q2 22 2 68q0 185 -64 316q-129 264 -466 264q-169 0 -304 -44l-32 172q138 48 338 48q236 0 396 -92q165 -94 249.5 -274t84.5 -434
q0 -226 -72 -394q-78 -167 -220.5 -256.5t-343.5 -89.5zM744 154q117 0 196 44q80 41 122 108.5t42 147.5q0 85 -44 152q-45 70 -124 108t-180 38q-162 0 -258 -82t-96 -216q0 -91 46 -158q42 -68 118.5 -105t177.5 -37z" />
    <glyph glyph-name="emptyset" unicode="&#x2205;" horiz-adv-x="1251" 
d="M333 354l-178 -164l-62 68l174 164q-94 126 -94 278q0 130 62 230q63 102 166.5 162t227.5 60q125 0 230 -60q26 -14 70 -50l170 160l60 -70l-168 -158q92 -117 92 -274q0 -123 -60 -228q-63 -105 -166.5 -166.5t-227.5 -61.5q-127 0 -230 62l-21 15t-25 18t-20 15z
M373 518l452 430q-82 66 -196 66q-89 0 -158 -42q-72 -43 -115 -115t-43 -157q0 -88 44 -158q5 -11 16 -24zM629 382q90 0 160 44q74 45 115 116.5t41 159.5q0 84 -42 156l-12 22l-456 -428q83 -70 194 -70z" />
    <glyph glyph-name="product" unicode="&#x220f;" horiz-adv-x="1824" 
d="M490 1278v-1686h-210v1878h1264v-1878h-210v1686h-844z" />
    <glyph glyph-name="summation" unicode="&#x2211;" horiz-adv-x="1416" 
d="M1334 -224v-184h-1228v144l692 798l-664 794v142h1186v-182h-902l576 -684v-144l-606 -684h946z" />
    <glyph glyph-name="minus" unicode="&#x2212;" horiz-adv-x="1356" 
d="M1149 816v-164h-942v164h942z" />
    <glyph glyph-name="radical" unicode="&#x221a;" horiz-adv-x="1726" 
d="M1706 1558l-674 -1966h-208l-390 1062h-276v166h424l346 -968l588 1706h190z" />
    <glyph glyph-name="infinity" unicode="&#x221e;" horiz-adv-x="1990" 
d="M534 322q-118 0 -214 54q-97 56 -151.5 149.5t-54.5 210.5q0 112 54 214q56 94 151.5 146t214.5 52q117 0 204 -34q138 -62 250 -228l8 -12q43 65 85 110.5t97 85t125 59t155 19.5q124 0 214 -52q96 -55 150 -148t54 -210q0 -122 -54 -212q-56 -96 -151 -150t-213 -54
q-115 0 -202 36q-137 59 -252 228l-8 12q-43 -66 -83.5 -111.5t-95.5 -85.5t-125.5 -59.5t-157.5 -19.5zM546 478q90 0 162 36q108 58 202 222q-55 87 -86 126q-113 130 -278 130q-114 0 -191 -73.5t-77 -182.5q0 -111 77 -184.5t191 -73.5zM1446 478q113 0 189.5 74
t76.5 186q0 110 -76.5 182t-189.5 72q-88 0 -160 -36q-109 -58 -204 -220q44 -73 88 -124q111 -134 276 -134z" />
    <glyph glyph-name="integral" unicode="&#x222b;" horiz-adv-x="826" 
d="M166 -420q-147 0 -246 70l62 152q61 -52 156 -52q83 0 128.5 50.5t45.5 145.5v1272q0 164 92 261t254 97q161 0 248 -70l-64 -152q-59 50 -154 50q-84 0 -130 -49.5t-46 -142.5v-1272q0 -167 -91.5 -263.5t-254.5 -96.5z" />
    <glyph glyph-name="approxequal" unicode="&#x2248;" horiz-adv-x="1314" 
d="M870 800q-52 0 -101.5 21t-88 51.5t-75 61t-76 51.5t-77.5 21q-67 0 -107 -51t-45 -139h-132q4 170 79.5 258t198.5 88q51 0 100.5 -21t87.5 -51.5t74.5 -61t76 -51.5t77.5 -21q70 0 110 51.5t42 138.5h132q-4 -169 -79 -257.5t-197 -88.5zM870 308q-52 0 -101.5 21
t-88 51t-75 60t-76 51t-77.5 21q-67 0 -107 -51t-45 -137h-132q4 169 79.5 256.5t198.5 87.5q51 0 100.5 -21t87.5 -51.5t74.5 -61t76 -51.5t77.5 -21q70 0 110 52t42 140h132q-4 -170 -78.5 -258t-197.5 -88z" />
    <glyph glyph-name="notequal" unicode="&#x2260;" horiz-adv-x="1469" 
d="M639 404l-134 -250h-170l134 250h-206v166h296l182 330h-478v166h568l134 250h168l-134 -250h206v-166h-296l-180 -330h476v-166h-566z" />
    <glyph glyph-name="lessequal" unicode="&#x2264;" horiz-adv-x="1373" 
d="M435 822l722 -274v-172l-942 356v178l942 356v-172zM1157 166v-166h-942v166h942z" />
    <glyph glyph-name="greaterequal" unicode="&#x2265;" horiz-adv-x="1380" 
d="M1161 910v-178l-942 -356v172l726 274l-726 272v172zM1161 166v-166h-942v166h942z" />
    <glyph glyph-name="uni27E8" unicode="&#x27e8;" horiz-adv-x="582" 
d="M222 576l326 -984h-182l-342 984l342 982h182z" />
    <glyph glyph-name="uni27E9" unicode="&#x27e9;" horiz-adv-x="584" 
d="M562 576l-342 -984h-184l328 984l-328 982h184z" />
    <glyph glyph-name="uniF8FF" unicode="&#xf8ff;" horiz-adv-x="2480" 
d="M1228 -176q-190 0 -363.5 75t-298.5 201t-199.5 300t-74.5 364q0 191 74.5 364.5t200.5 299t299.5 200t363.5 74.5t363.5 -74.5t299.5 -200.5t200.5 -299.5t74.5 -363.5q0 -192 -74.5 -366t-200 -299.5t-299.5 -200t-366 -74.5zM1230 -64q168 0 321 65.5t263.5 176
t176 263.5t65.5 321q0 135 -41.5 261t-117.5 227.5t-177 178t-226.5 118.5t-259.5 43q-169 0 -322.5 -65t-264.5 -175.5t-177 -263t-66 -320.5q0 -169 65 -322.5t175.5 -264.5t263.5 -177t322 -66zM964 294h-2q26 26 40 38q27 24 42 74q61 168 76 214q44 130 96 220v4
q-3 -4 -9 -11t-9 -11q-4 -4 -9.5 -10.5t-8.5 -9.5q-35 -51 -52 -96q-5 -10 -14 -10q-167 6 -296 114l-98 92q-4 4 -7.5 8.5t-7.5 10t-7 9.5l18 -6q84 -34 166 -46q58 -6 120 4q60 14 80 20q1 0 26 10l-27 13.5t-28.5 14.5t-22.5 15t-22 21h30q71 3 126 32q106 65 230 102
q48 15 96 18q8 0 34 1.5t40 0.5q93 -3 148 -56q8 -7 16 -16t17.5 -20.5t14.5 -17.5q-2 -2 -2 -4l-8 4q-76 29 -139.5 6t-104.5 -90q-12 -21 -42 -94q-6 -15 -35 -82.5t-45 -103.5q-50 -104 -108 -172q-42 -51 -110 -96q-76 -58 -196 -92q-1 0 -3 -1t-3 -1zM1526 -342v-72
h-24v72h-8v16h8v14q3 24 34 24h10v-18q-17 3 -20 -8v-12h20v-16h-20zM694 -418q-18 0 -28 13.5t-10 34.5q0 23 12 35.5t30 12.5q13 0 22 -6l6 -8v44h22v-122h-22v14l-6 -10q-12 -8 -26 -8zM962 -316q-12 0 -12 12t12 12q14 0 14 -12t-14 -12zM1808 -400v-16h-14
q-26 0 -26 18v56h-14v16h14v22h24v-22h18v-16h-18v-48q3 -12 16 -10zM808 -418q-19 0 -31.5 12.5t-12.5 35.5q0 21 12.5 34.5t33.5 13.5q19 0 30.5 -13t11.5 -33q0 -4 -2 -8h-62q2 -24 20 -24q17 0 20 16h22q-3 -16 -14.5 -25t-27.5 -9zM900 -418q-34 0 -40 30h24
q3 -14 16 -14q14 0 14 10q0 8 -22 16q-28 7 -28 26q0 12 10 20t26 8q15 0 24.5 -8t9.5 -20h-22q-3 12 -14 12q-12 0 -12 -10q0 -8 22 -14q28 -9 28 -28q0 -28 -36 -28zM1036 -450q-41 0 -44 30v2h22v-2q4 -14 22 -14q21 0 24 22v14l-6 -12q-12 -4 -24 -4q-18 0 -29 11.5
t-11 32.5q0 23 12.5 35.5t31.5 12.5q14 0 20 -6l6 -8v12h24v-68q0 -12 -2 -18q0 -40 -46 -40zM1126 -374v-40h-22v90h22v-16l8 12q12 6 22 6q29 0 32 -26q2 -6 2 -16v-50h-26v58q0 18 -16 18q-9 0 -15.5 -9t-6.5 -27zM1248 -418q-21 0 -32.5 13.5t-11.5 34.5t11.5 34.5
t32.5 13.5q22 0 35 -13.5t13 -34.5t-13 -34.5t-35 -13.5zM1430 -418q-11 0 -19.5 7.5t-8.5 20.5q0 30 50 30h4v2v8q0 12 -12 12q-18 0 -18 -16h-22q0 15 11.5 23.5t28.5 8.5q32 0 36 -26v-44v-22h-22l-2 12l-4 -10q-9 -6 -22 -6zM1598 -418q-22 0 -34 13t-12 35t12 35t34 13
t34 -13t12 -35t-12 -35t-34 -13zM1682 -374v-40h-22v90h22v-16l8 12q9 6 22 6q26 0 32 -26v-16v-50h-24v58q-4 18 -16 18q-22 0 -22 -36zM1858 -418q-37 0 -40 30h22q3 -14 18 -14q12 0 12 10q0 5 -3.5 8t-16.5 8q-28 6 -28 26q0 12 9.5 20t24.5 8q31 0 38 -28h-26
q0 12 -14 12q-8 0 -8 -10q0 -9 18 -14q30 -10 30 -28q0 -28 -36 -28zM1986 -418q-19 0 -30.5 12.5t-11.5 35.5q0 22 12.5 35t31.5 13q40 0 40 -34h-22q-3 18 -18 18q-22 0 -22 -32q0 -30 22 -30q15 0 18 16h22q-3 -34 -42 -34zM2086 -418q-23 0 -35.5 13t-12.5 35t12.5 35
t35.5 13q21 0 32.5 -13.5t11.5 -34.5t-11.5 -34.5t-32.5 -13.5zM2168 -368v-46h-22v90h22v-14l8 10q9 6 18 6q21 0 28 -18l8 12q9 6 20 6t19.5 -7t8.5 -15q2 -6 2 -18v-52h-22v46q0 3 -1 7.5t-1 6.5q0 16 -16 16t-16 -30v-46h-22v60q-3 16 -16 16q-18 0 -18 -30zM270 -348
l-14 -66h-26l-30 90h28l14 -72l14 70h28l16 -70l16 72h24l-28 -90h-26zM412 -348l-18 -66h-26l-28 90h26l16 -72l16 70h28l14 -70l16 72h24l-28 -90h-26zM550 -348l-14 -66h-28l-28 90h26l16 -72l14 70h28l16 -70l16 72h24l-28 -90h-26zM974 -324v-90h-22v90h22zM1396 -324
l-34 -90h-28l-32 90h24l22 -74l22 74h26zM702 -400q24 0 24 30v2q0 30 -22 30q-24 0 -24 -32q0 -30 22 -30zM788 -362h40q-3 24 -20 24t-20 -24zM1036 -398q24 0 24 28v2q0 30 -24 30q-22 0 -22 -30t22 -30zM1248 -400q24 0 24 30q0 32 -24 32q-22 0 -22 -32q0 -30 22 -30z
M1598 -400q24 0 24 30q0 32 -24 32q-22 0 -22 -32q0 -30 22 -30zM2086 -400q22 0 22 30q0 32 -22 32q-24 0 -24 -32q0 -30 24 -30zM1438 -400q8 0 13 5t5 13v8q-30 3 -30 -16q0 -10 12 -10zM630 -418q-12 0 -12 14t12 14q14 0 14 -14t-14 -14zM1918 -418q-14 0 -14 14t14 14
t14 -14t-14 -14z" />
    <glyph glyph-name="tildecomb_acutecomb" horiz-adv-x="0" 
d="M898 1810l-310 -238h-166l246 238h230zM714 1286q-49 0 -101 28t-99 56t-84 28q-92 0 -98 -104h-112q1 101 56 158.5t146 57.5q38 0 79 -18t70 -39t65.5 -39t67.5 -18q46 0 71 27t27 77h110q-1 -99 -55 -156.5t-143 -57.5z" />
    <glyph glyph-name="_Fontastica" horiz-adv-x="1459" 
d="M356 512v-312h-180q-3 0 -4.5 2t-1.5 4v2v1082h812v-160h-626v-450h626v-168h-626zM1288 1290v-1090h-810v170h626v442h-626v172h626v306h184zM828 34q-35 0 -56 18l12 26q22 -18 44 -18q10 0 12 2q4 0 4 8q0 4 -4 6q-12 8 -20 8q-10 5 -22 8l-5 3q-5 3 -7 7q-6 9 -6 18
q0 19 14.5 29.5t33.5 10.5q24 0 48 -14l-12 -26q-18 12 -36 12q-14 0 -14 -8q0 -10 22 -16q21 -5 22 -6q2 -1 7 -5t7 -5q4 -12 4 -20q0 -38 -48 -38zM338 32q-29 0 -47.5 18t-18.5 46q0 27 18.5 44.5t47.5 17.5q27 0 45.5 -17.5t18.5 -44.5t-18 -45.5t-46 -18.5zM1110 32
q-26 0 -44 18.5t-18 45.5t18.5 44.5t45.5 17.5q28 0 48 -20l-18 -22q-13 16 -30 16q-13 0 -23.5 -10t-10.5 -28q0 -7 6 -16q9 -18 28 -18q16 0 30 14l20 -18q-24 -24 -52 -24zM206 78v-42h-30v120h90v-24h-60v-28h54v-26h-54zM448 108v-72h-30v120h28l56 -72v72h30v-120h-28
zM612 130v-94h-30v94h-38v26h104v-26h-36zM676 56l-8 -20h-32l52 120h32l52 -120h-34l-10 20h-52zM952 130v-94h-34v94h-34v26h102v-26h-34zM1030 156v-120h-30v120h30zM1200 56l-8 -20h-32l52 120h32l52 -120h-34l-8 20h-54zM338 60q14 0 23 10.5t9 23.5q0 8 -4 20
q-6 18 -28 18q-15 0 -24.5 -10.5t-9.5 -25.5q0 -14 10 -25t24 -11zM718 80l-14 44l-18 -44h32zM1244 80l-16 44l-18 -44h34z" />
    <glyph glyph-name="_VendorID" horiz-adv-x="1122" 
d="M779 756q-104 0 -168.5 53.5t-53.5 126.5h74q-16 -43 29 -77.5t119 -34.5q62 0 105 26.5t43 65.5q0 68 -156 90q-99 15 -149.5 55t-50.5 99q0 66 58 109t144 43q96 0 158 -51t50 -123h-74q18 40 -24 73t-110 33q-56 0 -94 -24t-38 -58q0 -67 140 -86q106 -15 161 -56
t55 -104q0 -70 -62 -115t-156 -45zM189 1000v-234h-70v536h414v-70h-344v-164h324v-68h-324zM779 126q-102 0 -167.5 53.5t-54.5 128.5h74q-16 -43 29 -77.5t119 -34.5q62 0 105 25.5t43 64.5q0 71 -152 92q-100 15 -152 54.5t-52 99.5q0 66 58.5 109t145.5 43q96 0 157 -51
t49 -123h-74q18 40 -23.5 73t-108.5 33q-56 0 -95 -24t-39 -60q0 -62 138 -84q218 -30 218 -162q0 -69 -62 -114.5t-156 -45.5zM189 370v-232h-70v534h414v-68h-344v-164h324v-70h-324zM305 34q-7 0 -12.5 6.5t-5.5 15.5q0 22 20 22q8 0 10 -2l4 -4v22h10v-58h-10v6l-4 -4
q-4 -4 -12 -4zM699 70v-34h-12v34h-4v6h4v8q0 10 16 10h4v-8q-8 3 -8 -4v-6h8v-6h-8zM433 82q-6 0 -6 6q0 4 6 4t6 -4q0 -6 -6 -6zM831 42v-8h-6q-12 0 -12 10v26h-8v6h8v12h10v-12h8v-6h-8v-24q3 -6 8 -4zM105 66l-6 -30h-12l-14 42h12l8 -34l6 32h14l6 -32l8 34h12
l-14 -42h-12zM173 66l-8 -30h-14l-12 42h12l6 -34l8 32h14l6 -32l8 34h12l-14 -42h-12zM237 66l-6 -30h-14l-12 42h12l6 -34l8 32h14l6 -32l8 34h12l-14 -42h-12zM359 34q-20 0 -20 22t22 22q20 0 20 -22l-2 -2h-30q2 -12 10 -12q7 0 10 8h10q-3 -16 -20 -16zM403 34
q-17 0 -20 14h12q0 -8 8 -8q6 0 6 6q0 3 -10 8q-14 4 -14 12q0 12 18 12q16 0 16 -12h-10q-3 6 -8 6q-4 0 -4 -6q0 -4 10 -6q12 -3 12 -14q0 -12 -16 -12zM437 78v-42h-10v42h10zM467 18q-20 0 -20 14v2h10v-2q0 -6 10 -6q9 0 12 10v6l-4 -4q-2 -2 -10 -2q-20 0 -20 20
q0 22 20 22q8 0 10 -2l4 -4v6h10v-32v-8q0 -20 -22 -20zM509 54v-18h-10v42h10v-8l4 6q4 2 10 2q13 0 16 -12v-6v-24h-12v28q0 8 -8 8q-10 0 -10 -18zM567 34q-22 0 -22 22t22 22t22 -22t-22 -22zM637 78l-16 -42h-14l-14 42h10l12 -34l10 34h12zM653 34q-14 0 -14 12
q0 14 24 14h2v2v4q0 6 -6 6q-8 0 -8 -8h-10q0 14 18 14q15 0 18 -12v-30h-10l-2 4l-2 -4q-4 -2 -10 -2zM731 34q-9 0 -14.5 6.5t-5.5 15.5q0 22 20 22q22 0 22 -22t-22 -22zM771 54v-18h-10v42h10v-8l4 6q4 2 10 2q13 0 16 -12v-6v-24h-12v28q0 8 -8 8q-10 0 -10 -18z
M855 34q-17 0 -20 14h12q0 -8 8 -8q6 0 6 6q0 1 -10 8q-14 4 -14 12q0 12 16 12q15 0 18 -12h-12q0 6 -6 6q-4 0 -4 -6q0 -3 8 -6q14 -3 14 -14q0 -12 -16 -12zM915 34q-20 0 -20 22t22 22q18 0 18 -16h-10q-3 10 -8 10q-12 0 -12 -16q0 -14 12 -14q5 0 8 8h10
q-3 -16 -20 -16zM961 34q-22 0 -22 22t22 22t22 -22t-22 -22zM1001 56v-20h-10v42h10v-6l4 4q2 2 8 2q11 0 14 -8l4 6q2 2 8 2q14 0 14 -10v-32h-10v20v8q0 8 -8 8t-8 -16v-20h-10v28q0 8 -8 8t-8 -16zM309 42q12 0 12 14v2q0 14 -12 14q-10 0 -10 -16q0 -14 10 -14zM349 60
h20q-4 12 -10 12q-7 0 -10 -12zM467 42q12 0 12 14v2q0 14 -12 14q-10 0 -10 -16q0 -14 10 -14zM567 42q10 0 10 14q0 16 -10 16t-10 -16q0 -14 10 -14zM731 42q12 0 12 14q0 16 -12 16q-10 0 -10 -16q0 -14 10 -14zM961 42q12 0 12 14q0 16 -12 16q-10 0 -10 -16
q0 -14 10 -14zM657 42q8 0 8 8v4q-14 4 -14 -6q0 -6 6 -6zM275 34q-6 0 -6 6q0 8 6 8q8 0 8 -8q0 -6 -8 -6zM883 34q-6 0 -6 6q0 8 6 8t6 -8q0 -6 -6 -6z" />
    <glyph glyph-name="_Designova" horiz-adv-x="1656" 
d="M826 28q-127 0 -242.5 50t-199.5 134t-134 200.5t-50 243.5q1 128 51 243.5t134 199.5t200 133.5t243 49.5t243.5 -49.5t200.5 -133.5t134 -200t50 -243q0 -171 -84.5 -315.5t-229.5 -228.5t-316 -84zM828 102q149 0 276.5 74t201.5 201.5t74 276.5q0 113 -43.5 215.5
t-117 176.5t-175.5 118t-214 44q-113 0 -215.5 -43.5t-176.5 -117.5t-118 -176t-44 -215t43.5 -215.5t117.5 -176.5t176 -118t215 -44zM650 342h-2l26 24q19 16 30 50q8 24 25 72t25 72q32 90 64 146v2q-8 -8 -12 -14q-8 -8 -10 -14q-23 -29 -36 -64q-6 -6 -10 -6
q-114 6 -198 76q-10 10 -32 31t-32 31q-3 3 -8 9t-8 9q8 0 12 -4q53 -21 112 -30q45 -3 80 2q36 8 52 14q3 0 6 1t6.5 2.5t5.5 2.5q-6 4 -17.5 9.5t-18 9.5t-15.5 10.5t-15 14.5h20q41 0 84 20q74 46 154 70q33 10 64 10q5 0 23 1.5t27 0.5q64 -4 98 -38q7 -5 32 -36v-2
q-2 2 -6 2q-52 20 -94 4.5t-70 -58.5q-6 -11 -15 -33.5t-13 -30.5q-6 -12 -24 -56.5t-30 -67.5q-33 -69 -72 -116q-20 -27 -72 -64q-49 -37 -132 -62h-4z" />
    </font>
</defs>
</svg>
