<?xml version="1.0" standalone="no"?>
<!DOCTYPE svg PUBLIC "-//W3C//DTD SVG 1.1//EN" "http://www.w3.org/Graphics/SVG/1.1/DTD/svg11.dtd" >
<svg xmlns="http://www.w3.org/2000/svg" xmlns:xlink="http://www.w3.org/1999/xlink" version="1.1">
<metadata>
Created by FontForge 20170731 at Sun May  7 16:12:06 2023
 By Aleksey,,,
Copyright (c) 2023 by Designova. All rights reserved.
</metadata>
<defs>
<font id="Optika-BlackItalic" horiz-adv-x="1632" >
  <font-face 
    font-family="Optika Black"
    font-weight="900"
    font-style="italic"
    font-stretch="normal"
    units-per-em="2048"
    panose-1="0 0 10 0 0 0 0 0 0 0"
    ascent="1638"
    descent="-410"
    x-height="1148"
    cap-height="1470"
    bbox="-868 -528 3922 2312"
    underline-thickness="50"
    underline-position="-150"
    unicode-range="U+000D-F8FF"
  />
<missing-glyph horiz-adv-x="1364" 
d="M1447 1470l-233 -1470h-1064l233 1470h1064zM1256 1324h-728l-187 -1176h728z" />
    <glyph glyph-name=".notdef" horiz-adv-x="1364" 
d="M1447 1470l-233 -1470h-1064l233 1470h1064zM1256 1324h-728l-187 -1176h728z" />
    <glyph glyph-name=".null" horiz-adv-x="0" 
 />
    <glyph glyph-name="nonmarkingreturn" horiz-adv-x="682" 
 />
    <glyph glyph-name="CR" unicode="&#xd;" horiz-adv-x="530" 
 />
    <glyph glyph-name="space" unicode=" " horiz-adv-x="530" 
 />
    <glyph glyph-name="exclam" unicode="!" horiz-adv-x="871" 
d="M953 1470l-240 -908h-378l50 908h568zM433 -22q-120 0 -187.5 74.5t-50.5 179.5q17 106 106.5 176t210.5 70q123 0 188.5 -70t48.5 -176t-105.5 -180t-210.5 -74z" />
    <glyph glyph-name="quotedbl" unicode="&#x22;" horiz-adv-x="1242" 
d="M806 1470l-132 -630h-336l70 630h398zM1300 1470l-132 -630h-336l70 630h398z" />
    <glyph glyph-name="numbersign" unicode="#" horiz-adv-x="1452" 
d="M612 288l-82 -288h-336l82 288h-254l49 314h294l72 266h-254l50 314h294l82 288h336l-82 -288h208l82 288h336l-82 -288h254l-50 -314h-294l-72 -266h254l-49 -314h-294l-82 -288h-336l82 288h-208zM981 868h-208l-72 -266h208z" />
    <glyph glyph-name="dollar" unicode="$" horiz-adv-x="1480" 
d="M911 -18l-37 -234h-296l35 222q-155 10 -292 49.5t-224 98.5l215 360q160 -100 361 -128l33 206q-9 0 -23 4q-84 18 -147 39t-124 57t-97.5 82t-52.5 115t-2 155q21 136 117 250q158 191 478 236l36 228h296l-36 -224q247 -26 407 -122l-207 -360q-138 75 -261 98
l-33 -208q81 -17 144.5 -38.5t123 -57.5t96 -82t52 -114t2.5 -152q-21 -138 -115 -246q-155 -187 -449 -234zM774 984l16 104q-32 -22 -36 -54q-5 -31 20 -50z" />
    <glyph glyph-name="percent" unicode="%" horiz-adv-x="2056" 
d="M595 672q-109 0 -192 48q-82 49 -117.5 141.5t-15.5 220.5q22 136 88 222q65 91 160 139.5t207 48.5q106 0 192 -50q83 -49 118.5 -140.5t14.5 -219.5q-20 -132 -85 -224q-65 -91 -160.5 -138.5t-209.5 -47.5zM1940 1470l-1237 -1470h-354l1237 1470h354zM631 898
q35 0 73 40q31 37 48 144q17 106 -3 144q-23 38 -60 38q-36 0 -68 -38q-36 -39 -53 -144q-16 -104 8 -144q20 -40 55 -40zM1564 -22q-115 0 -193 50q-83 48 -119 140t-16 220q21 132 90 224q64 90 159 138t208 48q111 0 193 -48q81 -51 116.5 -143t15.5 -219
q-20 -134 -85 -222q-66 -92 -161.5 -140t-207.5 -48zM1600 206q39 0 70 40q34 34 50 142q18 105 -4 146q-24 38 -58 38t-70 -38q-34 -41 -52 -146q-15 -105 6 -142q23 -40 58 -40z" />
    <glyph glyph-name="ampersand" unicode="&#x26;" horiz-adv-x="1540" 
d="M664 -34q-173 0 -307 58q-131 54 -195 151.5t-45 216.5q19 120 91 218q86 116 262 206q-4 5 -12.5 19t-14.5 21q-73 122 -54 242q18 116 101 208q82 90 208.5 140t283.5 50q139 0 249 -44q102 -47 149 -132t29 -196q-17 -103 -79 -184q-82 -101 -232 -176l135 -132
q47 75 87 192l361 -114q-68 -184 -190 -332l119 -118l-299 -288l-133 136q-241 -142 -514 -142zM875 984l7 6q119 60 129 124q5 34 -14.5 54t-61.5 20q-48 0 -79 -23.5t-36 -60.5q-4 -28 9.5 -54t45.5 -66zM756 320q83 0 171 34l-233 232q-92 -60 -104 -140
q-9 -57 37.5 -91.5t128.5 -34.5z" />
    <glyph glyph-name="quotesingle" unicode="'" horiz-adv-x="658" 
d="M761 1470l-132 -630h-336l70 630h398z" />
    <glyph glyph-name="parenleft" unicode="(" horiz-adv-x="960" 
d="M834 -408h-454q-104 190 -136.5 442.5t12.5 541.5q45 286 158 539t278 443h454q-180 -250 -282.5 -488.5t-143.5 -493.5q-41 -252 -13.5 -493t127.5 -491z" />
    <glyph glyph-name="parenright" unicode=")" horiz-adv-x="961" 
d="M450 -408h-454q181 248 283 486.5t143 497.5q42 249 15 491.5t-129 490.5h454q106 -189 138 -441.5t-14 -540.5q-46 -289 -158 -542.5t-278 -441.5z" />
    <glyph glyph-name="asterisk" unicode="*" horiz-adv-x="1094" 
d="M824 900l-30 -224h-282l44 224l-226 -126l-107 236l219 108l-185 106l181 236l186 -126l28 224h282l-42 -224l226 126l107 -236l-217 -106l183 -108l-181 -236z" />
    <glyph glyph-name="plus" unicode="+" horiz-adv-x="1374" 
d="M964 556l-53 -336h-378l53 336h-346l57 358h346l53 336h378l-53 -336h346l-57 -358h-346z" />
    <glyph glyph-name="comma" unicode="," horiz-adv-x="799" 
d="M551 -24l-195 -312h-294l162 354q-60 32 -87 92.5t-14 141.5q19 122 108.5 195t211.5 73q121 0 187 -73t47 -195q-9 -56 -36.5 -117t-89.5 -159z" />
    <glyph glyph-name="hyphen" unicode="-" horiz-adv-x="822" 
d="M851 786l-56 -358h-630l56 358h630z" />
    <glyph glyph-name="period" unicode="." horiz-adv-x="827" 
d="M412 -22q-119 0 -186.5 77.5t-48.5 196.5q19 120 109.5 194t210.5 74q119 0 186 -74t48 -194q-19 -119 -110 -196.5t-209 -77.5z" />
    <glyph glyph-name="slash" unicode="/" horiz-adv-x="1101" 
d="M1387 1768l-1007 -1978h-420l1007 1978h420z" />
    <glyph glyph-name="zero" unicode="0" horiz-adv-x="1532" 
d="M761 -34q-198 0 -330 90q-139 91 -195.5 265t-18.5 415t153 414q111 172 274.5 263t359.5 91q194 0 334 -90q137 -92 193 -265.5t18 -412.5q-40 -252 -150 -416q-113 -172 -277 -263t-361 -91zM824 364q50 0 91 32q93 73 136 340q22 148 15 224q-18 146 -125 146
q-47 0 -91 -32q-47 -38 -81.5 -127.5t-53.5 -210.5q-21 -125 -12 -224q18 -148 121 -148z" />
    <glyph glyph-name="one" unicode="1" horiz-adv-x="1171" 
d="M1071 0h-482l144 936l-174 -211l-306 238l431 507h620z" />
    <glyph glyph-name="two" unicode="2" horiz-adv-x="1464" 
d="M1425 384l-61 -384h-1178l48 304l610 492q134 111 148 202q9 56 -23 86t-103 30q-66 0 -130.5 -36t-106.5 -102l-345 188q110 158 286 249t406 91q171 0 299 -58q126 -56 185 -160t37 -242q-9 -63 -40 -144q-61 -147 -286 -324l-240 -192h494z" />
    <glyph glyph-name="three" unicode="3" horiz-adv-x="1452" 
d="M675 -34q-155 0 -305 34.5t-254 97.5l225 366q165 -106 378 -106q87 0 143.5 28.5t65.5 83.5q9 51 -28 76.5t-129 25.5h-196l48 304l251 220h-524l59 374h1096l-48 -304l-318 -278q165 -41 238.5 -151.5t48.5 -266.5q-19 -122 -108 -242q-94 -121 -256.5 -191.5
t-386.5 -70.5z" />
    <glyph glyph-name="four" unicode="4" horiz-adv-x="1638" 
d="M1384 252l-40 -252h-482l40 252h-762l50 316l767 902h620l-132 -834h194l-61 -384h-194zM979 636l47 300l-247 -300h200z" />
    <glyph glyph-name="five" unicode="5" horiz-adv-x="1452" 
d="M675 -34q-155 0 -304 34.5t-255 97.5l225 366q165 -106 378 -106q86 0 143.5 29.5t66.5 84.5q9 59 -43 82.5t-162 23.5h-426l215 892h976l-59 -374h-570l-33 -144h76q215 0 340 -64q230 -121 186 -404q-22 -136 -110 -248q-94 -126 -256 -198t-388 -72z" />
    <glyph glyph-name="six" unicode="6" horiz-adv-x="1502" 
d="M801 -34q-209 0 -353 82q-151 83 -213.5 244.5t-25.5 395.5q42 261 174 442q130 181 329.5 277.5t441.5 96.5q131 0 247.5 -30.5t190.5 -85.5l-235 -346q-99 78 -254 78q-128 0 -221 -64t-136 -186q126 82 303 82q134 0 241 -58q108 -61 159.5 -167t28.5 -247
q-24 -153 -121 -272q-99 -116 -244.5 -179t-311.5 -63zM821 308q69 0 117 40.5t59 109.5t-24 110.5t-104 41.5q-65 0 -114.5 -42.5t-59.5 -109.5q-11 -67 24.5 -108.5t101.5 -41.5z" />
    <glyph glyph-name="seven" unicode="7" horiz-adv-x="1458" 
d="M1530 1086l-662 -1086h-542l664 1086h-718l61 384h1258z" />
    <glyph glyph-name="eight" unicode="8" horiz-adv-x="1520" 
d="M755 -34q-195 0 -333 60q-141 56 -208 162.5t-45 247.5q22 143 125 244q62 61 129 94q-129 112 -100 290q21 138 113 234q94 98 239.5 152t322.5 54q171 0 306 -54q131 -56 191.5 -154.5t39.5 -231.5q-21 -134 -114 -224q-36 -36 -78 -62q181 -124 146 -342
q-23 -145 -123 -246q-101 -108 -258.5 -166t-352.5 -58zM905 918q52 0 90.5 34.5t47.5 91.5q9 60 -18 93t-80 33t-91 -33t-47 -93q-9 -58 18.5 -92t79.5 -34zM808 300q71 0 123 42t63 112q11 69 -27.5 110.5t-110.5 41.5t-123.5 -41t-62.5 -111t28 -112t110 -42z" />
    <glyph glyph-name="nine" unicode="9" horiz-adv-x="1502" 
d="M581 -34q-131 0 -247.5 30.5t-190.5 85.5l235 346q99 -78 253 -78q128 0 222 64t138 186q-132 -82 -305 -82q-134 0 -238 60q-110 59 -162 165.5t-29 246.5q24 155 123 272q97 115 243 178.5t311 63.5q204 0 358 -80q148 -85 209.5 -246t24.5 -396q-41 -261 -174 -440
q-130 -183 -328 -279.5t-443 -96.5zM867 862q66 0 114.5 41.5t58.5 108.5q11 69 -23.5 109.5t-102.5 40.5q-66 0 -115.5 -41.5t-60.5 -108.5q-10 -68 26.5 -109t102.5 -41z" />
    <glyph glyph-name="colon" unicode=":" horiz-adv-x="827" 
d="M514 626q-119 0 -186 77.5t-48 196.5q18 120 109 194t211 74q119 0 185.5 -74t48.5 -194q-19 -119 -110.5 -196.5t-209.5 -77.5zM412 -22q-119 0 -186.5 77.5t-48.5 196.5q19 120 109.5 194t210.5 74q119 0 186 -74t48 -194q-19 -119 -110 -196.5t-209 -77.5z" />
    <glyph glyph-name="semicolon" unicode=";" horiz-adv-x="773" 
d="M460 626q-119 0 -186 77.5t-48 196.5q18 120 109 194t211 74q119 0 185.5 -74t48.5 -194q-19 -119 -110.5 -196.5t-209.5 -77.5zM551 -24l-195 -312h-294l162 354q-60 32 -87 92.5t-14 141.5q19 122 108.5 195t211.5 73q121 0 187 -73t47 -195q-9 -56 -36.5 -117
t-89.5 -159z" />
    <glyph glyph-name="less" unicode="&#x3c;" horiz-adv-x="1414" 
d="M723 736l601 -220l-57 -356l-1008 388l59 374l1131 388l-56 -356z" />
    <glyph glyph-name="equal" unicode="=" horiz-adv-x="1497" 
d="M1471 1186l-57 -356h-1070l57 356h1070zM1384 640l-56 -356h-1070l56 356h1070z" />
    <glyph glyph-name="greater" unicode="&#x3e;" horiz-adv-x="1414" 
d="M1388 922l-59 -374l-1132 -388l57 356l671 220l-602 218l56 356z" />
    <glyph glyph-name="question" unicode="?" horiz-adv-x="1302" 
d="M1010 562h-434q24 148 182 278q98 79 128 115t35 65q7 48 -29.5 74t-97.5 26q-68 0 -132.5 -38.5t-107.5 -105.5l-345 188q110 159 289 249.5t421 90.5q162 0 289 -44q125 -48 184.5 -138.5t39.5 -219.5q-17 -105 -73 -181t-148 -149q-13 -10 -52 -39t-55 -42.5
t-41 -37.5t-37 -45.5t-16 -45.5zM702 -22q-120 0 -187.5 74.5t-50.5 179.5q17 106 106.5 176t210.5 70q122 0 188 -70t49 -176t-106 -180t-210 -74z" />
    <glyph glyph-name="at" unicode="@" horiz-adv-x="2126" 
d="M1003 -442q-233 0 -413 72.5t-299 207.5q-116 132 -160 309.5t-12 384.5q32 202 133 378t260 308q163 135 368 208.5t439 73.5q224 0 399.5 -69.5t291.5 -196.5q113 -127 158.5 -291.5t15.5 -352.5q-30 -198 -119 -336q-87 -134 -209.5 -203t-259.5 -69q-119 0 -196.5 46
t-106.5 136q-119 -182 -349 -182q-114 0 -204 62q-96 65 -139 184t-18 276q26 164 106 280q81 114 192.5 177t227.5 63q137 0 208 -64q10 -7 34 -36l13 82h404l-95 -600q-9 -60 9.5 -88t54.5 -28q31 0 58 26q61 51 94 268q47 285 -119 468q-168 180 -494 180
q-322 0 -551 -198q-112 -96 -184 -225t-96 -277q-24 -152 6 -281.5t110 -224.5q166 -200 484 -200q227 0 439 92l47 -258q-102 -47 -245 -74.5t-283 -27.5zM1112 310q69 0 119 53t64 141q14 87 -19.5 139.5t-102.5 52.5t-117.5 -52.5t-62.5 -139.5q-14 -89 18 -141.5
t101 -52.5z" />
    <glyph glyph-name="A" unicode="A" horiz-adv-x="1822" 
d="M693 300l-164 -300h-504l875 1470h488l409 -1470h-512l-68 300h-524zM1137 658l-74 324l-178 -324h252z" />
    <glyph glyph-name="B" unicode="B" horiz-adv-x="1648" 
d="M928 0h-828l233 1470h818q293 0 427 -109t106 -285q-16 -110 -93 -198q-62 -71 -159 -120l9 -4q113 -49 151.5 -138t17.5 -222q-30 -191 -205 -292.5t-477 -101.5zM1030 1124h-266l-36 -230h266q162 0 179 110q9 57 -26.5 88.5t-116.5 31.5zM976 568h-300l-35 -222h300
q83 0 126.5 25t52.5 81q18 116 -144 116z" />
    <glyph glyph-name="C" unicode="C" horiz-adv-x="1680" 
d="M915 -34q-175 0 -315.5 55.5t-236.5 158.5q-200 221 -146 556q52 333 321 554q268 214 620 214q215 0 370.5 -75.5t243.5 -218.5l-359 -280q-106 172 -292 172q-156 0 -267 -100t-137 -266q-27 -167 52 -267.5t235 -100.5q185 0 348 172l269 -280q-133 -142 -313 -218
t-393 -76z" />
    <glyph glyph-name="D" unicode="D" horiz-adv-x="1754" 
d="M824 0h-724l233 1470h724q244 0 418 -88q176 -91 253.5 -256t42.5 -388q-37 -229 -169 -394q-131 -166 -332 -255t-446 -89zM976 1084h-208l-111 -698h208q104 0 190 40q87 39 142.5 119t73.5 193q17 111 -14 188q-64 158 -281 158z" />
    <glyph glyph-name="E" unicode="E" horiz-adv-x="1438" 
d="M1395 374l-59 -374h-1236l233 1470h1238l-59 -374h-752l-30 -184h666l-56 -358h-666l-29 -180h750z" />
    <glyph glyph-name="F" unicode="F" horiz-adv-x="1438" 
d="M674 554l-88 -554h-486l233 1470h1238l-59 -374h-752l-30 -184h666l-56 -358h-666z" />
    <glyph glyph-name="G" unicode="G" horiz-adv-x="1704" 
d="M917 -34q-176 0 -317 55.5t-237 158.5q-200 221 -146 556q26 168 108.5 308.5t212.5 245.5q271 214 632 214q217 0 377 -73t250 -211l-360 -280q-113 162 -304 162q-164 0 -277 -98.5t-139 -267.5q-26 -165 54 -266.5t239 -101.5q97 0 186 36l17 106h-200l56 358h630
l-113 -714q-146 -89 -325 -138.5t-344 -49.5z" />
    <glyph glyph-name="H" unicode="H" horiz-adv-x="1648" 
d="M680 530l-84 -530h-496l233 1470h496l-85 -534h458l85 534h494l-233 -1470h-494l84 530h-458z" />
    <glyph glyph-name="I" unicode="I" horiz-adv-x="696" 
d="M829 1470l-233 -1470h-496l233 1470h496z" />
    <glyph glyph-name="J" unicode="J" 
d="M811 -34q-339 0 -498.5 183t-107.5 513h496q-41 -294 177 -294q110 0 179 73t94 235l126 794h488l-128 -808q-52 -330 -269.5 -513t-556.5 -183z" />
    <glyph glyph-name="K" unicode="K" horiz-adv-x="1740" 
d="M644 364l-58 -364h-486l233 1470h486l-85 -534l569 534h540l-690 -646l487 -824h-574l-291 488z" />
    <glyph glyph-name="L" unicode="L" horiz-adv-x="1436" 
d="M1395 374l-59 -374h-1236l233 1470h486l-174 -1096h750z" />
    <glyph glyph-name="M" unicode="M" horiz-adv-x="1964" 
d="M654 646l-102 -646h-452l233 1470h408l354 -784l590 784h408l-229 -1470h-452l102 670l-405 -538h-218z" />
    <glyph glyph-name="N" unicode="N" horiz-adv-x="1648" 
d="M688 668l-106 -668h-482l233 1470h408l452 -668l106 668h482l-233 -1470h-406z" />
    <glyph glyph-name="O" unicode="O" horiz-adv-x="1860" 
d="M927 -34q-178 0 -321.5 56.5t-240.5 161.5q-201 224 -148 552q51 328 323 552q130 104 291 160t337 56q363 0 560 -216q201 -220 149 -552q-54 -332 -324 -552q-129 -105 -289.5 -161.5t-336.5 -56.5zM988 368q146 0 254 101t135 267q25 164 -50.5 265t-221.5 101
q-145 0 -254 -101t-134 -265q-27 -165 49.5 -266.5t221.5 -101.5z" />
    <glyph glyph-name="P" unicode="P" horiz-adv-x="1614" 
d="M653 362l-57 -362h-496l233 1470h744q201 0 345 -68q140 -68 202 -193t35 -293q-27 -170 -128 -294q-104 -126 -265 -193t-365 -67h-248zM984 1088h-216l-54 -344h216q100 0 158 45t71 127q13 81 -31 126.5t-144 45.5z" />
    <glyph glyph-name="Q" unicode="Q" horiz-adv-x="1976" 
d="M1642 266l233 -274l-324 -290l-283 324q-167 -60 -341 -60q-178 0 -321.5 56.5t-240.5 161.5q-201 224 -148 552q51 328 323 552q130 104 291 160t337 56q363 0 560 -216q201 -220 149 -552q-43 -272 -235 -470zM988 368q146 0 254 101t135 267q25 164 -50.5 265
t-221.5 101q-145 0 -254 -101t-134 -265q-27 -165 49.5 -266.5t221.5 -101.5z" />
    <glyph glyph-name="R" unicode="R" horiz-adv-x="1614" 
d="M653 362l-57 -362h-496l233 1470h744q201 0 345 -68q140 -68 202 -193t35 -293q-27 -170 -128 -294q-105 -125 -252 -188l229 -434h-528l-187 362h-140zM984 1088h-216l-54 -344h216q100 0 158 45t71 127q13 81 -31 126.5t-144 45.5z" />
    <glyph glyph-name="S" unicode="S" horiz-adv-x="1524" 
d="M735 -34q-182 0 -348.5 41.5t-267.5 110.5l215 360q98 -62 221 -98t243 -36q193 0 205 80q7 39 -34 64q-11 6 -25 12t-33 11.5t-32.5 9.5t-40.5 10t-40 9t-47 10t-46 10q-84 18 -147 39t-124 57t-97.5 82t-52.5 115t-2 155q21 136 117 250q96 116 260.5 181t386.5 65
q152 0 291.5 -32.5t242.5 -95.5l-207 -360q-196 110 -393 110q-90 0 -143.5 -24t-60.5 -68q-6 -37 34 -60q25 -13 73.5 -26t79.5 -19.5t114 -22.5q81 -17 144.5 -38.5t123.5 -57.5t96.5 -82t52.5 -114t3 -152q-21 -138 -115 -246q-98 -117 -262 -183.5t-385 -66.5z" />
    <glyph glyph-name="T" unicode="T" horiz-adv-x="1558" 
d="M1198 1086l-172 -1086h-496l172 1086h-430l61 384h1358l-61 -384h-432z" />
    <glyph glyph-name="U" unicode="U" 
d="M811 -34q-339 0 -498.5 183t-107.5 513l128 808h494l-126 -794q-48 -308 177 -308q110 0 179 73t94 235l126 794h488l-128 -808q-52 -330 -270 -513t-556 -183z" />
    <glyph glyph-name="V" unicode="V" horiz-adv-x="1780" 
d="M1988 1470l-855 -1470h-486l-389 1470h534l214 -858l496 858h486z" />
    <glyph glyph-name="W" unicode="W" horiz-adv-x="2540" 
d="M1399 786l-374 -786h-530l-237 1470h510l123 -836l403 836h456l122 -846l406 846h470l-703 -1470h-532z" />
    <glyph glyph-name="X" unicode="X" horiz-adv-x="1834" 
d="M974 392l-310 -392h-564l648 742l-397 728h556l191 -370l303 370h534l-623 -710l422 -760h-568z" />
    <glyph glyph-name="Y" unicode="Y" horiz-adv-x="1804" 
d="M1235 534l-85 -534h-496l86 540l-407 930h522l219 -508l383 508h480z" />
    <glyph glyph-name="Z" unicode="Z" horiz-adv-x="1550" 
d="M1511 384l-61 -384h-1350l48 304l796 782h-652l61 384h1296l-48 -304l-796 -782h706z" />
    <glyph glyph-name="bracketleft" unicode="[" horiz-adv-x="980" 
d="M892 -50l-57 -358h-720l312 1966h720l-57 -356h-246l-198 -1252h246z" />
    <glyph glyph-name="backslash" unicode="\" horiz-adv-x="1100" 
d="M695 1768l379 -1978h-420l-381 1978h422z" />
    <glyph glyph-name="bracketright" unicode="]" horiz-adv-x="980" 
d="M1047 1558l-312 -1966h-720l57 358h244l198 1252h-244l57 356h720z" />
    <glyph glyph-name="asciicircum" unicode="^" horiz-adv-x="1233" 
d="M731 820l-304 -528h-356l529 886h374l247 -886h-356z" />
    <glyph glyph-name="underscore" unicode="_" horiz-adv-x="909" 
d="M979 0l-40 -252h-1050l40 252h1050z" />
    <glyph glyph-name="grave" unicode="`" horiz-adv-x="1510" 
d="M1003 1610l223 -336h-314l-361 336h452z" />
    <glyph glyph-name="a" unicode="a" horiz-adv-x="1404" 
d="M637 -6q-150 0 -263 44q-119 48 -176 136t-39 200q15 96 92 188q156 186 531 186h212q4 56 -43 94t-108 38q-176 0 -225 -94l-300 164q86 114 234 174t340 60q281 0 420.5 -126t103.5 -350l-112 -706h-374l7 44q-136 -52 -300 -52zM709 286q189 0 280 126l8 48h-256
q-106 0 -151.5 -20t-51.5 -62q-7 -44 36 -68t135 -24z" />
    <glyph glyph-name="b" unicode="b" horiz-adv-x="1520" 
d="M863 -22q-157 0 -244 64q-21 14 -54 52l-15 -94h-450l233 1470h474l-63 -398q122 98 307 98q151 0 265 -72q118 -72 171 -207t24 -315q-28 -183 -126 -318q-96 -133 -233 -206.5t-289 -73.5zM807 348q85 0 146.5 62t77.5 166t-25.5 164t-126.5 60t-145.5 -60t-76.5 -164
q-16 -105 25 -166.5t125 -61.5z" />
    <glyph glyph-name="c" unicode="c" horiz-adv-x="1444" 
d="M775 -22q-195 0 -338 76q-143 77 -208 213t-38 309q27 170 137 308q109 135 274.5 210.5t360.5 75.5q209 0 344.5 -90.5t167.5 -249.5l-396 -182q-44 152 -176 152q-88 0 -151 -60t-79 -164q-17 -107 26.5 -167.5t131.5 -60.5q133 0 224 152l340 -180q-83 -160 -247 -251
t-373 -91z" />
    <glyph glyph-name="d" unicode="d" horiz-adv-x="1522" 
d="M653 -22q-146 0 -265 74q-119 76 -172 210t-25 314q30 183 127 318q97 132 234.5 204t288.5 72q149 0 236 -64q15 -10 39 -34l63 398h476l-233 -1470h-452l15 94q-122 -116 -332 -116zM823 348q85 0 146.5 62t77.5 166t-25.5 164t-126.5 60q-84 0 -145 -60t-77 -164
t25.5 -166t124.5 -62z" />
    <glyph glyph-name="e" unicode="e" horiz-adv-x="1484" 
d="M793 -22q-213 0 -354 78q-146 78 -210.5 213.5t-37.5 306.5q27 169 135 308q107 135 267.5 210.5t343.5 75.5q166 0 304 -68q138 -70 201 -203.5t33 -322.5q-7 -47 -26 -112h-794q13 -66 66 -100t141 -34q77 0 131 19.5t123 64.5l208 -250q-203 -186 -531 -186zM680 694
h370q-2 71 -44.5 111.5t-115.5 40.5q-74 0 -128.5 -40.5t-81.5 -111.5z" />
    <glyph glyph-name="f" unicode="f" horiz-adv-x="954" 
d="M757 790l-125 -790h-474l125 790h-158l55 346h162l18 114q32 204 189.5 325t391.5 121q183 0 273 -56l-167 -330q-51 28 -103 28q-91 0 -122 -88l-18 -114h244l-55 -346h-236z" />
    <glyph glyph-name="g" unicode="g" horiz-adv-x="1544" 
d="M745 -436q-369 -9 -574 128l213 296q59 -45 163.5 -75t197.5 -33q240 6 331 186q-146 -64 -316 -64q-208 0 -322 74l-24 14q-129 84 -187 213.5t-33 288.5q25 161 136 304q109 133 271 206.5t345 73.5q170 0 301 -68q3 -2 10.5 -5t10.5 -5l8 52h350l-143 -904
q-49 -309 -241.5 -487.5t-496.5 -194.5zM863 362q119 0 206.5 63t103.5 163q16 102 -50 163t-188 61q-119 0 -208.5 -62t-105.5 -162q-16 -99 53.5 -162.5t188.5 -63.5z" />
    <glyph glyph-name="h" unicode="h" horiz-adv-x="1468" 
d="M660 540l-86 -540h-474l233 1470h474l-66 -414q150 114 342 114q131 0 230 -52q214 -116 159 -462l-104 -656h-476l91 574q30 196 -109 196q-86 0 -141 -57.5t-73 -172.5z" />
    <glyph glyph-name="i" unicode="i" horiz-adv-x="772" 
d="M581 1232q-128 0 -196 68t-52 172q17 105 106 173.5t218 68.5t197.5 -64.5t52.5 -167.5q-17 -111 -107 -180.5t-219 -69.5zM806 1148l-182 -1148h-474l182 1148h474z" />
    <glyph glyph-name="j" unicode="j" horiz-adv-x="700" 
d="M578 1228q-128 0 -196 68t-51 172q16 105 105.5 173.5t218.5 68.5t197.5 -64.5t51.5 -167.5q-17 -111 -107 -180.5t-219 -69.5zM50 -428q-87 0 -178.5 15t-140.5 41l166 330q48 -28 140 -28q44 0 76 33.5t43 100.5l172 1082h474l-173 -1088q-36 -224 -189.5 -355
t-389.5 -131z" />
    <glyph glyph-name="k" unicode="k" horiz-adv-x="1602" 
d="M617 270l-43 -270h-474l233 1470h474l-104 -656l383 334h560l-553 -496l409 -652h-574l-222 352z" />
    <glyph glyph-name="l" unicode="l" horiz-adv-x="674" 
d="M807 1470l-233 -1470h-474l233 1470h474z" />
    <glyph glyph-name="m" unicode="m" horiz-adv-x="2178" 
d="M663 560l-89 -560h-474l182 1148h450l-17 -106q149 128 346 128q116 0 202 -43t131 -131q83 83 188.5 128.5t222.5 45.5q130 0 226 -52q206 -115 151 -462l-104 -656h-476l91 574q30 196 -97 196q-71 0 -118 -53.5t-63 -156.5l-89 -560h-476l91 574q16 104 -8.5 150
t-88.5 46q-71 0 -118 -53.5t-63 -156.5z" />
    <glyph glyph-name="n" unicode="n" horiz-adv-x="1468" 
d="M660 540l-86 -540h-474l182 1148h450l-18 -114q154 136 369 136q131 0 230 -52q214 -116 159 -462l-104 -656h-476l91 574q30 196 -109 196q-86 0 -141 -57.5t-73 -172.5z" />
    <glyph glyph-name="o" unicode="o" horiz-adv-x="1536" 
d="M765 -22q-197 0 -332 78q-141 78 -205 212.5t-37 307.5q27 169 135 308q109 135 271.5 210.5t355.5 75.5q194 0 334 -76q141 -76 204.5 -210.5t35.5 -307.5q-27 -172 -133 -310q-108 -135 -272 -211.5t-357 -76.5zM823 348q84 0 145 62t77 166t-24.5 164t-125.5 60
t-145.5 -60t-76.5 -164q-16 -105 25 -166.5t125 -61.5z" />
    <glyph glyph-name="p" unicode="p" horiz-adv-x="1520" 
d="M587 80l-78 -488h-474l247 1556h450l-15 -94q122 116 334 116q151 0 265 -72q118 -74 171 -209t24 -315q-30 -183 -126 -318q-96 -133 -233 -205.5t-289 -72.5q-151 0 -236 66q-14 10 -40 36zM807 348q85 0 146.5 61t77.5 165t-25.5 165t-126.5 61t-145.5 -61t-76.5 -165
t24.5 -165t125.5 -61z" />
    <glyph glyph-name="q" unicode="q" horiz-adv-x="1522" 
d="M1604 1148l-247 -1556h-476l77 486q-115 -100 -307 -100q-149 0 -263 72q-119 72 -172.5 207.5t-24.5 316.5q29 182 126 318q95 131 234 204.5t288 73.5q159 0 246 -64q31 -21 52 -50l15 92h452zM823 348q85 0 145.5 61t76.5 165t-24.5 165t-125.5 61t-145.5 -61
t-76.5 -165t24.5 -165t125.5 -61z" />
    <glyph glyph-name="r" unicode="r" horiz-adv-x="1022" 
d="M655 510l-81 -510h-474l182 1148h450l-20 -124q149 146 395 146l-66 -420q-55 8 -103 8q-244 0 -283 -248z" />
    <glyph glyph-name="s" unicode="s" horiz-adv-x="1164" 
d="M542 -22q-144 0 -282.5 32t-219.5 82l179 314q74 -49 177.5 -76.5t206.5 -27.5q91 0 120 16q33 15 37 40q2 15 -13 26.5t-45 18t-58.5 10.5t-69.5 8t-61 7q-69 9 -122 23t-103 40.5t-79.5 63.5t-42.5 93.5t-2 129.5q18 107 99 196q83 92 223 144t328 52q132 0 254 -24
t199 -70l-179 -314q-137 84 -319 84q-87 0 -125 -16q-33 -14 -38 -38q-2 -15 11.5 -26.5t47 -19t57.5 -11t71.5 -8.5t61.5 -7q67 -10 119.5 -24.5t101.5 -41t78 -63.5t42 -94t1 -129q-16 -104 -94 -192q-82 -93 -224 -145.5t-337 -52.5z" />
    <glyph glyph-name="t" unicode="t" horiz-adv-x="952" 
d="M657 -22q-243 0 -354.5 117t-73.5 351l54 342h-158l55 346h158l43 276h474l-43 -276h236l-55 -346h-236l-54 -338q-8 -51 15 -81.5t66 -30.5q61 0 113 32l61 -330q-118 -62 -301 -62z" />
    <glyph glyph-name="u" unicode="u" horiz-adv-x="1460" 
d="M581 -22q-133 0 -237 58q-219 120 -163 478l101 634h476l-88 -552q-18 -117 11.5 -167.5t102.5 -50.5q76 0 128.5 60t70.5 172l85 538h474l-182 -1148h-450l17 110q-150 -132 -346 -132z" />
    <glyph glyph-name="v" unicode="v" horiz-adv-x="1316" 
d="M1548 1148l-644 -1148h-492l-280 1148h488l133 -614l345 614h450z" />
    <glyph glyph-name="w" unicode="w" horiz-adv-x="1976" 
d="M1076 532l-266 -532h-462l-216 1148h448l102 -606l302 606h404l101 -612l303 612h416l-580 -1148h-462z" />
    <glyph glyph-name="x" unicode="x" horiz-adv-x="1392" 
d="M729 246l-215 -246h-514l524 570l-330 578h536l125 -242l211 242h496l-511 -558l341 -590h-544z" />
    <glyph glyph-name="y" unicode="y" horiz-adv-x="1316" 
d="M1548 1148l-944 -1676h-462l287 522l-297 1154h488l141 -614l337 614h450z" />
    <glyph glyph-name="z" unicode="z" horiz-adv-x="1296" 
d="M1251 346l-55 -346h-1096l43 274l558 528h-458l55 346h1056l-43 -272l-558 -530h498z" />
    <glyph glyph-name="braceleft" unicode="{" horiz-adv-x="981" 
d="M893 -50l-57 -358h-154q-242 0 -347.5 116t-71.5 332l42 264q15 92 -75 92h-70l56 358h70q40 0 69 24t36 68l42 264q34 216 176.5 332t384.5 116h154l-57 -356h-20q-73 0 -117.5 -38t-55.5 -108l-31 -200q-18 -116 -61 -178q-55 -76 -154 -102q21 -6 30 -12
q68 -25 91 -89.5t5 -180.5l-32 -200q-11 -69 21.5 -106.5t105.5 -37.5h20z" />
    <glyph glyph-name="bar" unicode="|" horiz-adv-x="816" 
d="M871 1558l-312 -1966h-432l312 1966h432z" />
    <glyph glyph-name="braceright" unicode="}" horiz-adv-x="980" 
d="M169 -408h-154l57 358h20q73 0 117.5 37.5t55.5 106.5l32 200q17 112 62 180q49 71 152 102l-28 10q-67 27 -91 92t-6 178l31 200q11 70 -21.5 108t-105.5 38h-20l57 356h154q242 0 347.5 -116t71.5 -332l-42 -264q-7 -44 14 -68t61 -24h70l-56 -358h-70q-90 0 -105 -92
l-42 -264q-34 -216 -176.5 -332t-384.5 -116z" />
    <glyph glyph-name="asciitilde" unicode="~" horiz-adv-x="1370" 
d="M970 494q-44 0 -87.5 16.5t-77.5 39.5t-65.5 46t-63.5 39.5t-59 16.5q-45 0 -79 -35.5t-48 -98.5h-290q38 216 157 340t277 124q54 0 108.5 -24.5t91.5 -53.5t79 -53.5t74 -24.5q46 0 80.5 35t46.5 97h290q-36 -215 -155.5 -339.5t-278.5 -124.5z" />
    <glyph glyph-name="exclamdown" unicode="&#xa1;" horiz-adv-x="871" 
d="M542 670q-121 0 -188.5 71t-50.5 177t107.5 179t210.5 73q122 0 188 -72.5t48 -179.5q-17 -107 -104.5 -177.5t-210.5 -70.5zM717 586l-48 -910h-568l238 910h378z" />
    <glyph glyph-name="cent" unicode="&#xa2;" horiz-adv-x="1350" 
d="M857 -12l-38 -240h-296l39 246q-84 16 -170 60q-143 77 -208 213t-38 309q27 170 137 308q84 104 203 173.5t259 94.5l40 248h296l-38 -238q159 -26 260 -112.5t127 -219.5l-396 -182q-23 71 -56 104l-56 -356q38 29 88 104l340 -180q-69 -134 -197.5 -220t-295.5 -112z
M634 450l40 252q-34 -56 -46 -126q-11 -68 6 -126z" />
    <glyph glyph-name="sterling" unicode="&#xa3;" horiz-adv-x="1569" 
d="M1466 374l-59 -374h-1322l59 374h188l35 222h-188l44 278h188q38 196 141 330q228 300 709 300q266 0 422 -90l-201 -374q-106 62 -242 62q-282 0 -333 -228h440l-44 -278h-440l-35 -222h638z" />
    <glyph glyph-name="currency" unicode="&#xa4;" horiz-adv-x="1482" 
d="M553 190l-253 -220l-220 264l248 214q-36 106 -16 230q18 115 80 214l-175 208l304 262l172 -202q122 52 236 52q118 0 224 -52l236 202l220 -262l-241 -208q29 -93 10 -214q-20 -125 -88 -228l182 -216l-304 -264l-185 222q-112 -48 -223 -48q-105 0 -207 46zM818 512
q70 0 126.5 48.5t67.5 117.5q11 68 -30.5 118t-110.5 50t-124.5 -49.5t-66.5 -118.5t29 -117.5t109 -48.5z" />
    <glyph glyph-name="yen" unicode="&#xa5;" horiz-adv-x="1675" 
d="M1105 126l-20 -126h-496l20 126h-336l37 236h336l9 54h-336l37 236h252l-402 818h528l272 -540l444 540h486l-662 -818h250l-37 -236h-336l-9 -54h336l-37 -236h-336z" />
    <glyph glyph-name="brokenbar" unicode="&#xa6;" horiz-adv-x="652" 
d="M789 1558l-116 -734h-432l116 734h432zM594 328l-117 -736h-432l117 736h432z" />
    <glyph glyph-name="section" unicode="&#xa7;" horiz-adv-x="1208" 
d="M527 -232q-84 0 -183 16q-192 28 -305 98l180 314q73 -48 172.5 -76t183.5 -28q59 0 90.5 20t36.5 50q2 15 -2.5 26.5t-18.5 20.5t-27 15t-39 12t-42 9.5t-49 8.5t-47 8q-63 11 -111 25.5t-94 40.5t-73 60.5t-39 87t-2 118.5q27 166 161 272q-65 81 -44 216
q20 118 95 208q80 96 221 149t337 53q51 0 143 -10q196 -21 300 -86l-179 -312q-142 84 -337 84q-92 0 -121 -20q-36 -21 -40 -50q-2 -12 3.5 -22t20 -18t29 -14t39.5 -12t42.5 -9.5t46.5 -8.5t44 -8q79 -16 136 -39.5t104.5 -64t66 -105t4.5 -151.5q-22 -146 -151 -250
q61 -81 39 -218q-18 -115 -91 -208q-75 -96 -202 -149t-298 -53zM749 538q62 37 70 90q4 21 -9 37t-41.5 27t-57 18t-70.5 14q-57 -33 -67 -90q-3 -21 9 -36.5t41 -27t55 -18t70 -14.5z" />
    <glyph glyph-name="dieresis" unicode="&#xa8;" horiz-adv-x="1552" 
d="M741 1258q-81 0 -126.5 51.5t-32.5 132.5q13 83 75 135.5t143 52.5q82 0 127.5 -52.5t32.5 -135.5q-13 -82 -75 -133t-144 -51zM1209 1258q-82 0 -128 51t-33 133q13 83 75.5 135.5t144.5 52.5q81 0 126 -52.5t32 -135.5q-13 -81 -74.5 -132.5t-142.5 -51.5z" />
    <glyph glyph-name="copyright" unicode="&#xa9;" horiz-adv-x="1690" 
d="M841 -6q-155 0 -280.5 56t-211.5 160q-87 101 -121 236t-9 290q24 153 101.5 288t197.5 238q118 102 262.5 158t299.5 56q156 0 283 -55t213 -157q176 -212 127 -524q-24 -155 -102 -291.5t-196 -238.5q-253 -216 -564 -216zM870 178q234 0 415.5 162t219.5 400
q25 158 -23.5 284t-161 197t-269.5 71q-237 0 -416.5 -159t-217.5 -397q-25 -157 24 -284.5t161.5 -200.5t267.5 -73zM927 320q-131 0 -226 54q-95 55 -138 148.5t-24 213.5q17 117 92 216q73 94 184.5 146t242.5 52q140 0 230.5 -62.5t110.5 -173.5l-292 -136
q-22 84 -96 84q-46 0 -82.5 -35t-45.5 -91q-10 -57 16 -91.5t72 -34.5q74 0 123 84l248 -138q-55 -109 -166 -172.5t-249 -63.5z" />
    <glyph glyph-name="ordfeminine" unicode="&#xaa;" horiz-adv-x="732" 
d="M384 870q-129 0 -190 60.5t-46 153.5q32 206 370 206h112q-8 68 -127 68q-44 0 -96 -14t-90 -38l-69 196q72 37 166 57.5t180 20.5q198 0 289 -82t64 -252l-57 -364h-298l14 88q-68 -100 -222 -100zM510 1048q65 0 95 58l7 40h-66q-87 0 -94 -50q-4 -21 12 -34.5
t46 -13.5z" />
    <glyph glyph-name="guillemotleft" unicode="&#xab;" horiz-adv-x="1250" 
d="M525 576l212 -420h-420l-224 420l357 420h420zM1081 576l212 -420h-420l-224 420l357 420h420z" />
    <glyph glyph-name="logicalnot" unicode="&#xac;" horiz-adv-x="1286" 
d="M1323 914l-113 -714h-378l56 356h-692l57 358h1070z" />
    <glyph glyph-name="uni00AD" unicode="&#xad;" horiz-adv-x="720" 
d="M798 786l-56 -358h-630l56 358h630z" />
    <glyph glyph-name="registered" unicode="&#xae;" horiz-adv-x="1562" 
d="M777 -6q-155 0 -280.5 56t-211.5 160q-87 101 -121 236t-9 290q24 153 101.5 288t197.5 238q118 102 262.5 158t299.5 56q156 0 283 -55t213 -157q176 -212 127 -524q-24 -155 -102 -291.5t-196 -238.5q-253 -216 -564 -216zM806 178q234 0 415.5 162t219.5 400
q25 158 -23.5 284t-161 197t-269.5 71q-237 0 -416.5 -159t-217.5 -397q-25 -157 24 -284.5t161.5 -200.5t267.5 -73zM820 542l-32 -202h-302l125 790h376q174 0 260.5 -79.5t64.5 -214.5q-23 -145 -131.5 -219.5t-286.5 -74.5h-74zM934 922h-54l-27 -172h54q43 0 69 23
t32 63q7 40 -12 63t-62 23zM1127 638h-306l145 -298h308z" />
    <glyph glyph-name="macron" unicode="&#xaf;" horiz-adv-x="1470" 
d="M1424 1566l-39 -248h-882l39 248h882z" />
    <glyph glyph-name="degree" unicode="&#xb0;" horiz-adv-x="960" 
d="M595 732q-104 0 -188 52q-83 50 -122.5 137t-23.5 193q19 110 85 192q68 88 166 138t204 50q108 0 191 -52q83 -50 122 -136.5t22 -191.5q-17 -109 -82 -194q-69 -88 -167.5 -138t-206.5 -50zM630 952q69 0 121.5 46.5t63.5 115.5q11 68 -27 114t-107 46q-67 0 -120 -46
t-64 -114q-11 -69 27.5 -115.5t105.5 -46.5z" />
    <glyph glyph-name="plusminus" unicode="&#xb1;" horiz-adv-x="1382" 
d="M1009 812l-51 -318h-378l51 318h-346l53 338h346l51 320h378l-51 -320h346l-53 -338h-346zM1283 358l-57 -358h-1070l57 358h1070z" />
    <glyph glyph-name="uni00B2" unicode="&#xb2;" horiz-adv-x="804" 
d="M939 926l-38 -240h-768l30 192l379 284q59 49 73 68q19 30 21 46q4 27 -14.5 42.5t-60.5 15.5q-98 0 -154 -78l-226 114q64 95 178 151.5t269 56.5q176 0 269 -74.5t73 -201.5q-11 -68 -56 -130.5t-156 -147.5l-129 -98h310z" />
    <glyph glyph-name="uni00B3" unicode="&#xb3;" horiz-adv-x="804" 
d="M481 664q-111 0 -217.5 24.5t-176.5 65.5l147 228q60 -35 135.5 -54.5t142.5 -19.5q122 0 131 60q4 21 -16 38q-18 12 -78 12h-150l30 190l151 116h-352l37 234h752l-31 -192l-197 -148q106 -25 153.5 -90.5t32.5 -159.5q-11 -73 -68 -144q-131 -160 -426 -160z" />
    <glyph glyph-name="acute" unicode="&#xb4;" horiz-adv-x="1510" 
d="M1469 1610l-467 -336h-314l329 336h452z" />
    <glyph glyph-name="paragraph" unicode="&#xb6;" horiz-adv-x="1610" 
d="M1107 1232l-228 -1442h-384l144 910q-129 3 -223 56q-101 54 -147.5 150t-25.5 224q21 129 106 226q83 97 214.5 149.5t293.5 52.5h852l-280 -1768h-382l228 1442h-168z" />
    <glyph glyph-name="periodcentered" unicode="&#xb7;" horiz-adv-x="827" 
d="M468 334q-123 0 -188.5 76.5t-45.5 199.5q19 122 108 196t212 74q125 0 189 -73.5t45 -196.5q-20 -125 -108 -200.5t-212 -75.5z" />
    <glyph glyph-name="cedilla" unicode="&#xb8;" horiz-adv-x="1376" 
d="M518 -504q-53 0 -109.5 12.5t-89.5 31.5l86 174q72 -24 122 -24q59 0 80 14q26 14 30 36q3 19 -16 28q-17 14 -64 14h-86l94 240h244l-50 -132q90 -11 125.5 -58.5t25.5 -109.5q-16 -104 -122.5 -165t-269.5 -61z" />
    <glyph glyph-name="uni00B9" unicode="&#xb9;" horiz-adv-x="767" 
d="M536 1558h436l-139 -873h-340l77 498l-122 -149l-216 167z" />
    <glyph glyph-name="ordmasculine" unicode="&#xba;" horiz-adv-x="852" 
d="M566 870q-130 0 -215 46q-90 44 -131.5 125.5t-25.5 182.5q16 104 83 186q69 81 172.5 125.5t226.5 44.5q122 0 215 -44q89 -48 130 -128t25 -184q-17 -104 -83 -182q-69 -83 -171 -127.5t-226 -44.5zM600 1100q47 0 84 32.5t46 91.5q9 60 -16.5 92t-73.5 32t-84.5 -32
t-45.5 -92q-9 -59 17 -91.5t73 -32.5z" />
    <glyph glyph-name="guillemotright" unicode="&#xbb;" horiz-adv-x="1250" 
d="M783 576l-356 -420h-420l344 420l-211 420h420zM1339 576l-356 -420h-420l344 420l-211 420h420z" />
    <glyph glyph-name="questiondown" unicode="&#xbf;" horiz-adv-x="1300" 
d="M703 670q-121 0 -188.5 71t-50.5 177t107.5 179t210.5 73q122 0 188 -72.5t48 -179.5q-17 -107 -104.5 -177.5t-210.5 -70.5zM563 -354q-168 0 -287 44q-127 46 -186 136.5t-38 219.5q17 106 72.5 182t148.5 148q16 12 52.5 39.5t54.5 42.5t42 38t36 44.5t16 45.5h432
q-24 -147 -178 -276q-40 -32 -56.5 -45.5t-46.5 -41.5t-44 -50.5t-18 -44.5q-7 -46 28.5 -72t96.5 -26q67 0 132 38.5t108 103.5l345 -186q-110 -159 -289 -249.5t-421 -90.5z" />
    <glyph glyph-name="Agrave" unicode="&#xc0;" horiz-adv-x="1972" 
d="M1235 1926l223 -336h-314l-361 336h452zM768 300l-164 -300h-504l875 1470h488l409 -1470h-512l-68 300h-524zM1212 658l-74 324l-178 -324h252z" />
    <glyph glyph-name="Aacute" unicode="&#xc1;" horiz-adv-x="1972" 
d="M1799 1926l-467 -336h-314l329 336h452zM768 300l-164 -300h-504l875 1470h488l409 -1470h-512l-68 300h-524zM1212 658l-74 324l-178 -324h252z" />
    <glyph glyph-name="Acircumflex" unicode="&#xc2;" horiz-adv-x="1972" 
d="M1263 1752l-201 -162h-294l321 336h404l215 -336h-294zM768 300l-164 -300h-504l875 1470h488l409 -1470h-512l-68 300h-524zM1212 658l-74 324l-178 -324h252z" />
    <glyph glyph-name="Atilde" unicode="&#xc3;" horiz-adv-x="1972" 
d="M1405 1570q-45 0 -90.5 19.5t-75.5 42.5t-64.5 42.5t-60.5 19.5q-40 0 -69 -27t-43 -77h-224q31 168 123 266t224 98q45 0 90.5 -19.5t76 -42.5t65 -42.5t59.5 -19.5q43 0 73 26t38 70h224q-27 -161 -120.5 -258.5t-225.5 -97.5zM768 300l-164 -300h-504l875 1470h488
l409 -1470h-512l-68 300h-524zM1212 658l-74 324l-178 -324h252z" />
    <glyph glyph-name="Adieresis" unicode="&#xc4;" horiz-adv-x="1972" 
d="M1001 1574q-81 0 -126.5 51.5t-32.5 132.5q13 83 75 135.5t143 52.5q82 0 127.5 -52.5t32.5 -135.5q-13 -82 -75 -133t-144 -51zM1469 1574q-82 0 -128 51t-33 133q13 83 75.5 135.5t144.5 52.5q81 0 126 -52.5t32 -135.5q-13 -81 -74.5 -132.5t-142.5 -51.5zM768 300
l-164 -300h-504l875 1470h488l409 -1470h-512l-68 300h-524zM1212 658l-74 324l-178 -324h252z" />
    <glyph glyph-name="Aring" unicode="&#xc5;" horiz-adv-x="1972" 
d="M1233 1562q-123 0 -195.5 81t-53.5 199q19 120 117 201t221 81t196 -81t54 -201q-19 -118 -117.5 -199t-221.5 -81zM1260 1730q50 0 87 31.5t45 80.5q8 51 -19 82.5t-77 31.5q-46 0 -85 -32t-47 -82q-8 -48 21 -80t75 -32zM768 300l-164 -300h-504l875 1470h488
l409 -1470h-512l-68 300h-524zM1212 658l-74 324l-178 -324h252z" />
    <glyph glyph-name="AE" unicode="&#xc6;" horiz-adv-x="2518" 
d="M802 300l-198 -300h-504l1009 1470h1516l-59 -374h-708l-28 -172h622l-56 -356h-622l-31 -194h734l-59 -374h-1222l48 300h-442zM1370 1096h-48l-288 -438h266z" />
    <glyph glyph-name="Ccedilla" unicode="&#xc7;" horiz-adv-x="1680" 
d="M1004 368q185 0 348 172l269 -280q-124 -132 -290 -207.5t-362 -84.5l-30 -78q90 -11 125.5 -58.5t25.5 -109.5q-16 -104 -122.5 -165t-269.5 -61q-53 0 -109.5 12.5t-89.5 31.5l86 174q72 -24 122 -24q59 0 80 14q26 14 30 36q3 19 -16 28q-17 14 -64 14h-86l78 202
q-224 44 -366 196q-200 221 -146 556q52 333 321 554q268 214 620 214q215 0 370.5 -75.5t243.5 -218.5l-359 -280q-106 172 -292 172q-156 0 -267 -100t-137 -266q-27 -167 52 -267.5t235 -100.5z" />
    <glyph glyph-name="Egrave" unicode="&#xc8;" horiz-adv-x="1438" 
d="M947 1926l223 -336h-314l-361 336h452zM1395 374l-59 -374h-1236l233 1470h1238l-59 -374h-752l-30 -184h666l-56 -358h-666l-29 -180h750z" />
    <glyph glyph-name="Eacute" unicode="&#xc9;" horiz-adv-x="1438" 
d="M1511 1926l-467 -336h-314l329 336h452zM1395 374l-59 -374h-1236l233 1470h1238l-59 -374h-752l-30 -184h666l-56 -358h-666l-29 -180h750z" />
    <glyph glyph-name="Ecircumflex" unicode="&#xca;" horiz-adv-x="1438" 
d="M975 1752l-201 -162h-294l321 336h404l215 -336h-294zM1395 374l-59 -374h-1236l233 1470h1238l-59 -374h-752l-30 -184h666l-56 -358h-666l-29 -180h750z" />
    <glyph glyph-name="Edieresis" unicode="&#xcb;" horiz-adv-x="1438" 
d="M713 1574q-81 0 -126.5 51.5t-32.5 132.5q13 83 75 135.5t143 52.5q82 0 127.5 -52.5t32.5 -135.5q-13 -82 -75 -133t-144 -51zM1181 1574q-82 0 -128 51t-33 133q13 83 75.5 135.5t144.5 52.5q81 0 126 -52.5t32 -135.5q-13 -81 -74.5 -132.5t-142.5 -51.5zM1395 374
l-59 -374h-1236l233 1470h1238l-59 -374h-752l-30 -184h666l-56 -358h-666l-29 -180h750z" />
    <glyph glyph-name="Igrave" unicode="&#xcc;" horiz-adv-x="956" 
d="M857 1926l223 -336h-314l-361 336h452zM1089 1470l-233 -1470h-496l233 1470h496z" />
    <glyph glyph-name="Iacute" unicode="&#xcd;" horiz-adv-x="956" 
d="M1161 1926l-467 -336h-314l329 336h452zM829 1470l-233 -1470h-496l233 1470h496z" />
    <glyph glyph-name="Icircumflex" unicode="&#xce;" horiz-adv-x="1140" 
d="M847 1752l-201 -162h-294l321 336h404l215 -336h-294zM1051 1470l-233 -1470h-496l233 1470h496z" />
    <glyph glyph-name="Idieresis" unicode="&#xcf;" horiz-adv-x="1044" 
d="M537 1574q-81 0 -126.5 51.5t-32.5 132.5q13 83 75 135.5t143 52.5q82 0 127.5 -52.5t32.5 -135.5q-13 -82 -75 -133t-144 -51zM1005 1574q-82 0 -128 51t-33 133q13 83 75.5 135.5t144.5 52.5q81 0 126 -52.5t32 -135.5q-13 -81 -74.5 -132.5t-142.5 -51.5zM1003 1470
l-233 -1470h-496l233 1470h496z" />
    <glyph glyph-name="Eth" unicode="&#xd0;" horiz-adv-x="1936" 
d="M1657 1382q176 -91 253.5 -256t42.5 -388q-37 -229 -169 -394q-131 -166 -332 -255t-446 -89h-724l95 602h-182l46 286h182l92 582h724q244 0 418 -88zM1237 426q87 39 142.5 119t73.5 193q17 111 -14 188q-64 158 -281 158h-208l-31 -196h310l-46 -286h-310l-34 -216
h208q104 0 190 40z" />
    <glyph glyph-name="Ntilde" unicode="&#xd1;" horiz-adv-x="1648" 
d="M1243 1570q-45 0 -90.5 19.5t-75.5 42.5t-64.5 42.5t-60.5 19.5q-40 0 -69 -27t-43 -77h-224q31 168 123 266t224 98q45 0 90.5 -19.5t76 -42.5t65 -42.5t59.5 -19.5q43 0 73 26t38 70h224q-27 -161 -120.5 -258.5t-225.5 -97.5zM688 668l-106 -668h-482l233 1470h408
l452 -668l106 668h482l-233 -1470h-406z" />
    <glyph glyph-name="Ograve" unicode="&#xd2;" horiz-adv-x="1860" 
d="M1179 1926l223 -336h-314l-361 336h452zM927 -34q-178 0 -321.5 56.5t-240.5 161.5q-201 224 -148 552q51 328 323 552q130 104 291 160t337 56q363 0 560 -216q201 -220 149 -552q-54 -332 -324 -552q-129 -105 -289.5 -161.5t-336.5 -56.5zM988 368q146 0 254 101
t135 267q25 164 -50.5 265t-221.5 101q-145 0 -254 -101t-134 -265q-27 -165 49.5 -266.5t221.5 -101.5z" />
    <glyph glyph-name="Oacute" unicode="&#xd3;" horiz-adv-x="1860" 
d="M1743 1926l-467 -336h-314l329 336h452zM927 -34q-178 0 -321.5 56.5t-240.5 161.5q-201 224 -148 552q51 328 323 552q130 104 291 160t337 56q363 0 560 -216q201 -220 149 -552q-54 -332 -324 -552q-129 -105 -289.5 -161.5t-336.5 -56.5zM988 368q146 0 254 101
t135 267q25 164 -50.5 265t-221.5 101q-145 0 -254 -101t-134 -265q-27 -165 49.5 -266.5t221.5 -101.5z" />
    <glyph glyph-name="Ocircumflex" unicode="&#xd4;" horiz-adv-x="1860" 
d="M1207 1752l-201 -162h-294l321 336h404l215 -336h-294zM927 -34q-178 0 -321.5 56.5t-240.5 161.5q-201 224 -148 552q51 328 323 552q130 104 291 160t337 56q363 0 560 -216q201 -220 149 -552q-54 -332 -324 -552q-129 -105 -289.5 -161.5t-336.5 -56.5zM988 368
q146 0 254 101t135 267q25 164 -50.5 265t-221.5 101q-145 0 -254 -101t-134 -265q-27 -165 49.5 -266.5t221.5 -101.5z" />
    <glyph glyph-name="Otilde" unicode="&#xd5;" horiz-adv-x="1860" 
d="M1349 1570q-45 0 -90.5 19.5t-75.5 42.5t-64.5 42.5t-60.5 19.5q-40 0 -69 -27t-43 -77h-224q31 168 123 266t224 98q45 0 90.5 -19.5t76 -42.5t65 -42.5t59.5 -19.5q43 0 73 26t38 70h224q-27 -161 -120.5 -258.5t-225.5 -97.5zM927 -34q-178 0 -321.5 56.5
t-240.5 161.5q-201 224 -148 552q51 328 323 552q130 104 291 160t337 56q363 0 560 -216q201 -220 149 -552q-54 -332 -324 -552q-129 -105 -289.5 -161.5t-336.5 -56.5zM988 368q146 0 254 101t135 267q25 164 -50.5 265t-221.5 101q-145 0 -254 -101t-134 -265
q-27 -165 49.5 -266.5t221.5 -101.5z" />
    <glyph glyph-name="Odieresis" unicode="&#xd6;" horiz-adv-x="1860" 
d="M945 1574q-81 0 -126.5 51.5t-32.5 132.5q13 83 75 135.5t143 52.5q82 0 127.5 -52.5t32.5 -135.5q-13 -82 -75 -133t-144 -51zM1413 1574q-82 0 -128 51t-33 133q13 83 75.5 135.5t144.5 52.5q81 0 126 -52.5t32 -135.5q-13 -81 -74.5 -132.5t-142.5 -51.5zM927 -34
q-178 0 -321.5 56.5t-240.5 161.5q-201 224 -148 552q51 328 323 552q130 104 291 160t337 56q363 0 560 -216q201 -220 149 -552q-54 -332 -324 -552q-129 -105 -289.5 -161.5t-336.5 -56.5zM988 368q146 0 254 101t135 267q25 164 -50.5 265t-221.5 101q-145 0 -254 -101
t-134 -265q-27 -165 49.5 -266.5t221.5 -101.5z" />
    <glyph glyph-name="multiply" unicode="&#xd7;" horiz-adv-x="1315" 
d="M601 1240l212 -252l-291 -252l-213 252zM1105 1240l212 -252l-291 -252l-213 252zM522 736l212 -252l-292 -252l-212 252zM1026 736l212 -252l-292 -252l-212 252z" />
    <glyph glyph-name="Oslash" unicode="&#xd8;" horiz-adv-x="1860" 
d="M1694 1324l34 -36q201 -220 149 -552q-54 -332 -324 -552q-129 -105 -289.5 -161.5t-336.5 -56.5q-199 0 -351 70l-159 -184h-272l256 296l-36 36q-201 224 -148 552q51 328 323 552q130 104 291 160t337 56q195 0 351 -68l157 182h272zM717 736q-18 -114 15 -206
l482 554q-48 18 -109 18q-145 0 -254 -101t-134 -265zM988 368q146 0 254 101t135 267q18 114 -16 204l-482 -554q48 -18 109 -18z" />
    <glyph glyph-name="Ugrave" unicode="&#xd9;" 
d="M1069 1926l223 -336h-314l-361 336h452zM811 -34q-339 0 -498.5 183t-107.5 513l128 808h494l-126 -794q-48 -308 177 -308q110 0 179 73t94 235l126 794h488l-128 -808q-52 -330 -270 -513t-556 -183z" />
    <glyph glyph-name="Uacute" unicode="&#xda;" 
d="M1633 1926l-467 -336h-314l329 336h452zM811 -34q-339 0 -498.5 183t-107.5 513l128 808h494l-126 -794q-48 -308 177 -308q110 0 179 73t94 235l126 794h488l-128 -808q-52 -330 -270 -513t-556 -183z" />
    <glyph glyph-name="Ucircumflex" unicode="&#xdb;" 
d="M1097 1752l-201 -162h-294l321 336h404l215 -336h-294zM811 -34q-339 0 -498.5 183t-107.5 513l128 808h494l-126 -794q-48 -308 177 -308q110 0 179 73t94 235l126 794h488l-128 -808q-52 -330 -270 -513t-556 -183z" />
    <glyph glyph-name="Udieresis" unicode="&#xdc;" 
d="M835 1574q-81 0 -126.5 51.5t-32.5 132.5q13 83 75 135.5t143 52.5q82 0 127.5 -52.5t32.5 -135.5q-13 -82 -75 -133t-144 -51zM1303 1574q-82 0 -128 51t-33 133q13 83 75.5 135.5t144.5 52.5q81 0 126 -52.5t32 -135.5q-13 -81 -74.5 -132.5t-142.5 -51.5zM811 -34
q-339 0 -498.5 183t-107.5 513l128 808h494l-126 -794q-48 -308 177 -308q110 0 179 73t94 235l126 794h488l-128 -808q-52 -330 -270 -513t-556 -183z" />
    <glyph glyph-name="Yacute" unicode="&#xdd;" horiz-adv-x="1804" 
d="M1715 1926l-467 -336h-314l329 336h452zM1235 534l-85 -534h-496l86 540l-407 930h522l219 -508l383 508h480z" />
    <glyph glyph-name="Thorn" unicode="&#xde;" horiz-adv-x="1578" 
d="M631 220l-35 -220h-496l233 1472h496l-22 -142h212q201 0 345 -68q141 -68 202.5 -193t34.5 -295q-27 -169 -129 -294q-103 -127 -263.5 -193.5t-365.5 -66.5h-212zM926 948h-180l-55 -346h180q100 0 158.5 45.5t71.5 126.5q13 83 -31 128.5t-144 45.5z" />
    <glyph glyph-name="germandbls" unicode="&#xdf;" horiz-adv-x="1550" 
d="M895 -22q-64 0 -137.5 10t-115.5 24l105 362q68 -26 134 -26q63 0 107 29t53 83q9 55 -26.5 82.5t-116.5 27.5h-108l57 356q75 5 125 44.5t60 103.5q10 63 -22 101.5t-94 38.5q-70 0 -116.5 -41t-58.5 -117l-167 -1056h-474l157 992q30 194 137 324q103 129 254.5 196.5
t323.5 67.5q188 0 314 -62q122 -63 175.5 -166.5t33.5 -231.5q-25 -164 -181 -288q122 -51 175.5 -149t31.5 -235q-24 -148 -108 -252q-86 -107 -218 -162.5t-300 -55.5z" />
    <glyph glyph-name="agrave" unicode="&#xe0;" horiz-adv-x="1404" 
d="M925 1610l223 -336h-314l-361 336h452zM637 -6q-150 0 -263 44q-119 48 -176 136t-39 200q15 96 92 188q156 186 531 186h212q4 56 -43 94t-108 38q-176 0 -225 -94l-300 164q86 114 234 174t340 60q281 0 420.5 -126t103.5 -350l-112 -706h-374l7 44q-136 -52 -300 -52z
M709 286q189 0 280 126l8 48h-256q-106 0 -151.5 -20t-51.5 -62q-7 -44 36 -68t135 -24z" />
    <glyph glyph-name="aacute" unicode="&#xe1;" horiz-adv-x="1404" 
d="M1489 1610l-467 -336h-314l329 336h452zM637 -6q-150 0 -263 44q-119 48 -176 136t-39 200q15 96 92 188q156 186 531 186h212q4 56 -43 94t-108 38q-176 0 -225 -94l-300 164q86 114 234 174t340 60q281 0 420.5 -126t103.5 -350l-112 -706h-374l7 44q-136 -52 -300 -52
zM709 286q189 0 280 126l8 48h-256q-106 0 -151.5 -20t-51.5 -62q-7 -44 36 -68t135 -24z" />
    <glyph glyph-name="acircumflex" unicode="&#xe2;" horiz-adv-x="1404" 
d="M953 1436l-201 -162h-294l321 336h404l215 -336h-294zM637 -6q-150 0 -263 44q-119 48 -176 136t-39 200q15 96 92 188q156 186 531 186h212q4 56 -43 94t-108 38q-176 0 -225 -94l-300 164q86 114 234 174t340 60q281 0 420.5 -126t103.5 -350l-112 -706h-374l7 44
q-136 -52 -300 -52zM709 286q189 0 280 126l8 48h-256q-106 0 -151.5 -20t-51.5 -62q-7 -44 36 -68t135 -24z" />
    <glyph glyph-name="atilde" unicode="&#xe3;" horiz-adv-x="1404" 
d="M1095 1254q-45 0 -90.5 19.5t-75.5 42.5t-64.5 42.5t-60.5 19.5q-40 0 -69 -27t-43 -77h-224q31 168 123 266t224 98q45 0 90.5 -19.5t76 -42.5t65 -42.5t59.5 -19.5q43 0 73 26t38 70h224q-27 -161 -120.5 -258.5t-225.5 -97.5zM637 -6q-150 0 -263 44q-119 48 -176 136
t-39 200q15 96 92 188q156 186 531 186h212q4 56 -43 94t-108 38q-176 0 -225 -94l-300 164q86 114 234 174t340 60q281 0 420.5 -126t103.5 -350l-112 -706h-374l7 44q-136 -52 -300 -52zM709 286q189 0 280 126l8 48h-256q-106 0 -151.5 -20t-51.5 -62q-7 -44 36 -68
t135 -24z" />
    <glyph glyph-name="adieresis" unicode="&#xe4;" horiz-adv-x="1404" 
d="M691 1258q-81 0 -126.5 51.5t-32.5 132.5q13 83 75 135.5t143 52.5q82 0 127.5 -52.5t32.5 -135.5q-13 -82 -75 -133t-144 -51zM1159 1258q-82 0 -128 51t-33 133q13 83 75.5 135.5t144.5 52.5q81 0 126 -52.5t32 -135.5q-13 -81 -74.5 -132.5t-142.5 -51.5zM637 -6
q-150 0 -263 44q-119 48 -176 136t-39 200q15 96 92 188q156 186 531 186h212q4 56 -43 94t-108 38q-176 0 -225 -94l-300 164q86 114 234 174t340 60q281 0 420.5 -126t103.5 -350l-112 -706h-374l7 44q-136 -52 -300 -52zM709 286q189 0 280 126l8 48h-256
q-106 0 -151.5 -20t-51.5 -62q-7 -44 36 -68t135 -24z" />
    <glyph glyph-name="aring" unicode="&#xe5;" horiz-adv-x="1404" 
d="M922 1240q-123 0 -195.5 81t-53.5 199q19 120 117 201t221 81t196 -81t54 -201q-19 -118 -117.5 -199t-221.5 -81zM949 1408q50 0 87 31.5t45 80.5q8 51 -19 82.5t-77 31.5q-46 0 -85 -32t-47 -82q-8 -48 21 -80t75 -32zM637 -6q-150 0 -263 44q-119 48 -176 136t-39 200
q15 96 92 188q156 186 531 186h212q4 56 -43 94t-108 38q-176 0 -225 -94l-300 164q86 114 234 174t340 60q281 0 420.5 -126t103.5 -350l-112 -706h-374l7 44q-136 -52 -300 -52zM709 286q189 0 280 126l8 48h-256q-106 0 -151.5 -20t-51.5 -62q-7 -44 36 -68t135 -24z" />
    <glyph glyph-name="ae" unicode="&#xe6;" horiz-adv-x="2214" 
d="M617 -22q-242 0 -365 102t-96 272q17 105 87 182q140 154 492 154h188q-5 128 -192 128q-82 0 -164.5 -23.5t-145.5 -66.5l-102 314q110 62 253 96t283 34q266 0 398 -126q191 126 422 126q255 0 410 -152q164 -164 121 -438q-11 -72 -27 -120h-796q27 -130 205 -130
q125 0 256 84l208 -250q-209 -186 -525 -186q-130 0 -241 36q-139 45 -218 138q-15 -17 -40 -38q-160 -136 -411 -136zM1409 688h360q-2 74 -42.5 116t-110.5 42q-72 0 -127 -42t-80 -116zM716 264q68 0 113 42t56 114l6 40h-118q-144 0 -159 -96q-8 -46 18.5 -73t83.5 -27z
" />
    <glyph glyph-name="ccedilla" unicode="&#xe7;" horiz-adv-x="1444" 
d="M831 348q133 0 224 152l340 -180q-77 -149 -225.5 -238.5t-340.5 -101.5l-34 -90q90 -11 125.5 -58.5t25.5 -109.5q-16 -104 -122.5 -165t-269.5 -61q-53 0 -109.5 12.5t-89.5 31.5l86 174q72 -24 122 -24q59 0 80 14q26 14 30 36q3 19 -16 28q-17 14 -64 14h-86l85 216
q-88 19 -155 56q-143 77 -208 213t-38 309q27 170 137 308q109 135 274.5 210.5t360.5 75.5q209 0 344.5 -90.5t167.5 -249.5l-396 -182q-44 152 -176 152q-88 0 -151 -60t-79 -164q-17 -107 26.5 -167.5t131.5 -60.5z" />
    <glyph glyph-name="egrave" unicode="&#xe8;" horiz-adv-x="1484" 
d="M941 1610l223 -336h-314l-361 336h452zM793 -22q-213 0 -354 78q-146 78 -210.5 213.5t-37.5 306.5q27 169 135 308q107 135 267.5 210.5t343.5 75.5q166 0 304 -68q138 -70 201 -203.5t33 -322.5q-7 -47 -26 -112h-794q13 -66 66 -100t141 -34q77 0 131 19.5t123 64.5
l208 -250q-203 -186 -531 -186zM680 694h370q-2 71 -44.5 111.5t-115.5 40.5q-74 0 -128.5 -40.5t-81.5 -111.5z" />
    <glyph glyph-name="eacute" unicode="&#xe9;" horiz-adv-x="1484" 
d="M1505 1610l-467 -336h-314l329 336h452zM793 -22q-213 0 -354 78q-146 78 -210.5 213.5t-37.5 306.5q27 169 135 308q107 135 267.5 210.5t343.5 75.5q166 0 304 -68q138 -70 201 -203.5t33 -322.5q-7 -47 -26 -112h-794q13 -66 66 -100t141 -34q77 0 131 19.5t123 64.5
l208 -250q-203 -186 -531 -186zM680 694h370q-2 71 -44.5 111.5t-115.5 40.5q-74 0 -128.5 -40.5t-81.5 -111.5z" />
    <glyph glyph-name="ecircumflex" unicode="&#xea;" horiz-adv-x="1484" 
d="M969 1436l-201 -162h-294l321 336h404l215 -336h-294zM793 -22q-213 0 -354 78q-146 78 -210.5 213.5t-37.5 306.5q27 169 135 308q107 135 267.5 210.5t343.5 75.5q166 0 304 -68q138 -70 201 -203.5t33 -322.5q-7 -47 -26 -112h-794q13 -66 66 -100t141 -34
q77 0 131 19.5t123 64.5l208 -250q-203 -186 -531 -186zM680 694h370q-2 71 -44.5 111.5t-115.5 40.5q-74 0 -128.5 -40.5t-81.5 -111.5z" />
    <glyph glyph-name="edieresis" unicode="&#xeb;" horiz-adv-x="1484" 
d="M707 1258q-81 0 -126.5 51.5t-32.5 132.5q13 83 75 135.5t143 52.5q82 0 127.5 -52.5t32.5 -135.5q-13 -82 -75 -133t-144 -51zM1175 1258q-82 0 -128 51t-33 133q13 83 75.5 135.5t144.5 52.5q81 0 126 -52.5t32 -135.5q-13 -81 -74.5 -132.5t-142.5 -51.5zM793 -22
q-213 0 -354 78q-146 78 -210.5 213.5t-37.5 306.5q27 169 135 308q107 135 267.5 210.5t343.5 75.5q166 0 304 -68q138 -70 201 -203.5t33 -322.5q-7 -47 -26 -112h-794q13 -66 66 -100t141 -34q77 0 131 19.5t123 64.5l208 -250q-203 -186 -531 -186zM680 694h370
q-2 71 -44.5 111.5t-115.5 40.5q-74 0 -128.5 -40.5t-81.5 -111.5z" />
    <glyph glyph-name="igrave" unicode="&#xec;" horiz-adv-x="946" 
d="M807 1610l223 -336h-314l-361 336h452zM1028 1148l-182 -1148h-474l182 1148h474z" />
    <glyph glyph-name="iacute" unicode="&#xed;" horiz-adv-x="944" 
d="M1099 1610l-467 -336h-314l329 336h452zM756 1148l-182 -1148h-474l182 1148h474z" />
    <glyph glyph-name="icircumflex" unicode="&#xee;" horiz-adv-x="1036" 
d="M742 1416l-146 -142h-294l273 336h396l167 -336h-294zM938 1148l-182 -1148h-474l182 1148h474z" />
    <glyph glyph-name="idieresis" unicode="&#xef;" horiz-adv-x="940" 
d="M473 1258q-75 0 -116.5 51.5t-28.5 132.5q13 83 71.5 135.5t132.5 52.5q75 0 115 -52t27 -136q-13 -82 -69 -133t-132 -51zM867 1258q-76 0 -117 51t-28 133q13 83 70.5 135.5t133.5 52.5q74 0 114.5 -52.5t27.5 -135.5q-13 -82 -70 -133t-131 -51zM890 1148l-182 -1148
h-474l182 1148h474z" />
    <glyph glyph-name="eth" unicode="&#xf0;" horiz-adv-x="1532" 
d="M703 -34q-174 0 -298 66q-131 64 -192 180t-37 268q23 144 111 248q86 106 214 165t268 59q103 0 184 -26q60 -19 112 -62q12 111 -11 194q-9 32 -30 64l-516 -176l-44 190l326 112q-52 4 -78 4q-139 0 -260 -38l10 342q168 36 334 36q274 0 461 -98q43 -25 82 -58
l208 72l43 -192l-114 -38q124 -219 68 -568q-37 -236 -153 -402q-116 -165 -293.5 -253.5t-394.5 -88.5zM793 308q70 0 122.5 41t63.5 109q10 67 -29 109.5t-109 42.5q-69 0 -121.5 -42t-62.5 -110q-11 -68 28 -109t108 -41z" />
    <glyph glyph-name="ntilde" unicode="&#xf1;" horiz-adv-x="1468" 
d="M1109 1254q-45 0 -90.5 19.5t-75.5 42.5t-64.5 42.5t-60.5 19.5q-40 0 -69 -27t-43 -77h-224q31 168 123 266t224 98q45 0 90.5 -19.5t76 -42.5t65 -42.5t59.5 -19.5q43 0 73 26t38 70h224q-27 -161 -120.5 -258.5t-225.5 -97.5zM660 540l-86 -540h-474l182 1148h450
l-18 -114q154 136 369 136q131 0 230 -52q214 -116 159 -462l-104 -656h-476l91 574q30 196 -109 196q-86 0 -141 -57.5t-73 -172.5z" />
    <glyph glyph-name="ograve" unicode="&#xf2;" horiz-adv-x="1536" 
d="M961 1610l223 -336h-314l-361 336h452zM765 -22q-197 0 -332 78q-141 78 -205 212.5t-37 307.5q27 169 135 308q109 135 271.5 210.5t355.5 75.5q194 0 334 -76q141 -76 204.5 -210.5t35.5 -307.5q-27 -172 -133 -310q-108 -135 -272 -211.5t-357 -76.5zM823 348
q84 0 145 62t77 166t-24.5 164t-125.5 60t-145.5 -60t-76.5 -164q-16 -105 25 -166.5t125 -61.5z" />
    <glyph glyph-name="oacute" unicode="&#xf3;" horiz-adv-x="1536" 
d="M1525 1610l-467 -336h-314l329 336h452zM765 -22q-197 0 -332 78q-141 78 -205 212.5t-37 307.5q27 169 135 308q109 135 271.5 210.5t355.5 75.5q194 0 334 -76q141 -76 204.5 -210.5t35.5 -307.5q-27 -172 -133 -310q-108 -135 -272 -211.5t-357 -76.5zM823 348
q84 0 145 62t77 166t-24.5 164t-125.5 60t-145.5 -60t-76.5 -164q-16 -105 25 -166.5t125 -61.5z" />
    <glyph glyph-name="ocircumflex" unicode="&#xf4;" horiz-adv-x="1536" 
d="M989 1436l-201 -162h-294l321 336h404l215 -336h-294zM765 -22q-197 0 -332 78q-141 78 -205 212.5t-37 307.5q27 169 135 308q109 135 271.5 210.5t355.5 75.5q194 0 334 -76q141 -76 204.5 -210.5t35.5 -307.5q-27 -172 -133 -310q-108 -135 -272 -211.5t-357 -76.5z
M823 348q84 0 145 62t77 166t-24.5 164t-125.5 60t-145.5 -60t-76.5 -164q-16 -105 25 -166.5t125 -61.5z" />
    <glyph glyph-name="otilde" unicode="&#xf5;" horiz-adv-x="1536" 
d="M1131 1254q-45 0 -90.5 19.5t-75.5 42.5t-64.5 42.5t-60.5 19.5q-40 0 -69 -27t-43 -77h-224q31 168 123 266t224 98q45 0 90.5 -19.5t76 -42.5t65 -42.5t59.5 -19.5q43 0 73 26t38 70h224q-27 -161 -120.5 -258.5t-225.5 -97.5zM765 -22q-197 0 -332 78
q-141 78 -205 212.5t-37 307.5q27 169 135 308q109 135 271.5 210.5t355.5 75.5q194 0 334 -76q141 -76 204.5 -210.5t35.5 -307.5q-27 -172 -133 -310q-108 -135 -272 -211.5t-357 -76.5zM823 348q84 0 145 62t77 166t-24.5 164t-125.5 60t-145.5 -60t-76.5 -164
q-16 -105 25 -166.5t125 -61.5z" />
    <glyph glyph-name="odieresis" unicode="&#xf6;" horiz-adv-x="1536" 
d="M727 1258q-81 0 -126.5 51.5t-32.5 132.5q13 83 75 135.5t143 52.5q82 0 127.5 -52.5t32.5 -135.5q-13 -82 -75 -133t-144 -51zM1195 1258q-82 0 -128 51t-33 133q13 83 75.5 135.5t144.5 52.5q81 0 126 -52.5t32 -135.5q-13 -81 -74.5 -132.5t-142.5 -51.5zM765 -22
q-197 0 -332 78q-141 78 -205 212.5t-37 307.5q27 169 135 308q109 135 271.5 210.5t355.5 75.5q194 0 334 -76q141 -76 204.5 -210.5t35.5 -307.5q-27 -172 -133 -310q-108 -135 -272 -211.5t-357 -76.5zM823 348q84 0 145 62t77 166t-24.5 164t-125.5 60t-145.5 -60
t-76.5 -164q-16 -105 25 -166.5t125 -61.5z" />
    <glyph glyph-name="divide" unicode="&#xf7;" horiz-adv-x="1384" 
d="M847 970q-101 0 -158.5 65.5t-41.5 166.5t93 163.5t179 62.5q101 0 157.5 -63t40.5 -163q-16 -101 -93 -166.5t-177 -65.5zM1372 914l-57 -358h-1070l57 358h1070zM700 42q-101 0 -158.5 65.5t-41.5 166.5t93 163.5t179 62.5q101 0 157.5 -63t40.5 -163
q-16 -101 -93 -166.5t-177 -65.5z" />
    <glyph glyph-name="oslash" unicode="&#xf8;" horiz-adv-x="1536" 
d="M1327 1282h200l-181 -224q111 -80 158.5 -204.5t22.5 -277.5q-27 -172 -133 -310q-108 -135 -272 -211.5t-357 -76.5q-142 0 -256 42l-134 -168h-200l196 244q-110 80 -157 203.5t-23 276.5q27 169 135 308q109 135 271.5 210.5t355.5 75.5q138 0 252 -40zM673 576
q-8 -52 -1 -106l264 326q-28 4 -41 4q-85 0 -145.5 -60t-76.5 -164zM823 348q84 0 145 62t77 166q10 57 -1 108l-266 -330q19 -6 45 -6z" />
    <glyph glyph-name="ugrave" unicode="&#xf9;" horiz-adv-x="1460" 
d="M929 1610l223 -336h-314l-361 336h452zM581 -22q-133 0 -237 58q-219 120 -163 478l101 634h476l-88 -552q-18 -117 11.5 -167.5t102.5 -50.5q76 0 128.5 60t70.5 172l85 538h474l-182 -1148h-450l17 110q-150 -132 -346 -132z" />
    <glyph glyph-name="uacute" unicode="&#xfa;" horiz-adv-x="1460" 
d="M1493 1610l-467 -336h-314l329 336h452zM581 -22q-133 0 -237 58q-219 120 -163 478l101 634h476l-88 -552q-18 -117 11.5 -167.5t102.5 -50.5q76 0 128.5 60t70.5 172l85 538h474l-182 -1148h-450l17 110q-150 -132 -346 -132z" />
    <glyph glyph-name="ucircumflex" unicode="&#xfb;" horiz-adv-x="1460" 
d="M957 1436l-201 -162h-294l321 336h404l215 -336h-294zM581 -22q-133 0 -237 58q-219 120 -163 478l101 634h476l-88 -552q-18 -117 11.5 -167.5t102.5 -50.5q76 0 128.5 60t70.5 172l85 538h474l-182 -1148h-450l17 110q-150 -132 -346 -132z" />
    <glyph glyph-name="udieresis" unicode="&#xfc;" horiz-adv-x="1460" 
d="M695 1258q-81 0 -126.5 51.5t-32.5 132.5q13 83 75 135.5t143 52.5q82 0 127.5 -52.5t32.5 -135.5q-13 -82 -75 -133t-144 -51zM1163 1258q-82 0 -128 51t-33 133q13 83 75.5 135.5t144.5 52.5q81 0 126 -52.5t32 -135.5q-13 -81 -74.5 -132.5t-142.5 -51.5zM581 -22
q-133 0 -237 58q-219 120 -163 478l101 634h476l-88 -552q-18 -117 11.5 -167.5t102.5 -50.5q76 0 128.5 60t70.5 172l85 538h474l-182 -1148h-450l17 110q-150 -132 -346 -132z" />
    <glyph glyph-name="yacute" unicode="&#xfd;" horiz-adv-x="1616" 
d="M1553 1610l-467 -336h-314l329 336h452zM1698 1148l-944 -1676h-462l287 522l-297 1154h488l141 -614l337 614h450z" />
    <glyph glyph-name="thorn" unicode="&#xfe;" horiz-adv-x="1520" 
d="M587 80l-78 -488h-474l312 1966h474l-76 -480q116 92 306 92q151 0 265 -72q118 -74 171 -209t24 -315q-30 -183 -126 -318q-96 -133 -232.5 -205.5t-287.5 -72.5q-153 0 -238 66q-14 10 -40 36zM807 348q85 0 146.5 61t77.5 165t-25.5 165t-126.5 61t-145.5 -61
t-76.5 -165t24.5 -165t125.5 -61z" />
    <glyph glyph-name="ydieresis" unicode="&#xff;" horiz-adv-x="1616" 
d="M755 1258q-81 0 -126.5 51.5t-32.5 132.5q13 83 75 135.5t143 52.5q82 0 127.5 -52.5t32.5 -135.5q-13 -82 -75 -133t-144 -51zM1223 1258q-82 0 -128 51t-33 133q13 83 75.5 135.5t144.5 52.5q81 0 126 -52.5t32 -135.5q-13 -81 -74.5 -132.5t-142.5 -51.5zM1698 1148
l-944 -1676h-462l287 522l-297 1154h488l141 -614l337 614h450z" />
    <glyph glyph-name="Amacron" unicode="&#x100;" horiz-adv-x="1972" 
d="M1726 1882l-39 -248h-882l39 248h882zM768 300l-164 -300h-504l875 1470h488l409 -1470h-512l-68 300h-524zM1212 658l-74 324l-178 -324h252z" />
    <glyph glyph-name="amacron" unicode="&#x101;" horiz-adv-x="1404" 
d="M1416 1566l-39 -248h-882l39 248h882zM637 -6q-150 0 -263 44q-119 48 -176 136t-39 200q15 96 92 188q156 186 531 186h212q4 56 -43 94t-108 38q-176 0 -225 -94l-300 164q86 114 234 174t340 60q281 0 420.5 -126t103.5 -350l-112 -706h-374l7 44q-136 -52 -300 -52z
M709 286q189 0 280 126l8 48h-256q-106 0 -151.5 -20t-51.5 -62q-7 -44 36 -68t135 -24z" />
    <glyph glyph-name="Abreve" unicode="&#x102;" horiz-adv-x="1972" 
d="M1235 1570q-191 0 -296 96t-86 260h282q-4 -57 33.5 -92.5t102.5 -35.5t114 35.5t62 92.5h282q-33 -164 -168.5 -260t-325.5 -96zM768 300l-164 -300h-504l875 1470h488l409 -1470h-512l-68 300h-524zM1212 658l-74 324l-178 -324h252z" />
    <glyph glyph-name="abreve" unicode="&#x103;" horiz-adv-x="1404" 
d="M925 1254q-191 0 -296 96t-86 260h282q-4 -57 33.5 -92.5t102.5 -35.5t114 35.5t62 92.5h282q-33 -164 -168.5 -260t-325.5 -96zM637 -6q-150 0 -263 44q-119 48 -176 136t-39 200q15 96 92 188q156 186 531 186h212q4 56 -43 94t-108 38q-176 0 -225 -94l-300 164
q86 114 234 174t340 60q281 0 420.5 -126t103.5 -350l-112 -706h-374l7 44q-136 -52 -300 -52zM709 286q189 0 280 126l8 48h-256q-106 0 -151.5 -20t-51.5 -62q-7 -44 36 -68t135 -24z" />
    <glyph glyph-name="Aogonek" unicode="&#x104;" horiz-adv-x="2024" 
d="M1827 -260l25 -196q-42 -21 -109.5 -34.5t-134.5 -13.5q-156 0 -233 69.5t-58 188.5q11 73 65 144q42 58 112 102h-134l-68 300h-524l-164 -300h-504l875 1470h488l409 -1470q-129 -53 -196 -101t-76 -103q-6 -38 18 -62t80 -24q63 0 129 30zM1212 658l-74 324l-178 -324
h252z" />
    <glyph glyph-name="aogonek" unicode="&#x105;" horiz-adv-x="1446" 
d="M1249 -260l25 -196q-42 -21 -109.5 -34.5t-134.5 -13.5q-156 0 -233 69.5t-58 188.5q11 73 65 144q49 64 128 112l5 36q-136 -52 -300 -52q-150 0 -263 44q-119 48 -176 136t-39 200q15 96 92 188q156 186 531 186h212q4 56 -43 94t-108 38q-176 0 -225 -94l-300 164
q86 114 234 174t340 60q281 0 420.5 -126t103.5 -350l-112 -706h-14l4 -2q-129 -53 -196 -101t-76 -103q-6 -38 18 -62t80 -24q63 0 129 30zM989 412l8 48h-256q-106 0 -151.5 -20t-51.5 -62q-7 -44 36 -68t135 -24q189 0 280 126z" />
    <glyph glyph-name="Cacute" unicode="&#x106;" horiz-adv-x="1680" 
d="M1731 1928l-467 -336h-314l329 336h452zM915 -34q-175 0 -315.5 55.5t-236.5 158.5q-200 221 -146 556q52 333 321 554q268 214 620 214q215 0 370.5 -75.5t243.5 -218.5l-359 -280q-106 172 -292 172q-156 0 -267 -100t-137 -266q-27 -167 52 -267.5t235 -100.5
q185 0 348 172l269 -280q-133 -142 -313 -218t-393 -76z" />
    <glyph glyph-name="cacute" unicode="&#x107;" horiz-adv-x="1444" 
d="M1499 1610l-467 -336h-314l329 336h452zM775 -22q-195 0 -338 76q-143 77 -208 213t-38 309q27 170 137 308q109 135 274.5 210.5t360.5 75.5q209 0 344.5 -90.5t167.5 -249.5l-396 -182q-44 152 -176 152q-88 0 -151 -60t-79 -164q-17 -107 26.5 -167.5t131.5 -60.5
q133 0 224 152l340 -180q-83 -160 -247 -251t-373 -91z" />
    <glyph glyph-name="Ccircumflex" unicode="&#x108;" horiz-adv-x="1680" 
d="M1196 1754l-202 -162h-294l321 336h404l215 -336h-294zM915 -34q-175 0 -315.5 55.5t-236.5 158.5q-200 221 -146 556q52 333 321 554q268 214 620 214q215 0 370.5 -75.5t243.5 -218.5l-359 -280q-106 172 -292 172q-156 0 -267 -100t-137 -266q-27 -167 52 -267.5
t235 -100.5q185 0 348 172l269 -280q-133 -142 -313 -218t-393 -76z" />
    <glyph glyph-name="ccircumflex" unicode="&#x109;" horiz-adv-x="1444" 
d="M963 1436l-201 -162h-294l321 336h404l215 -336h-294zM775 -22q-195 0 -338 76q-143 77 -208 213t-38 309q27 170 137 308q109 135 274.5 210.5t360.5 75.5q209 0 344.5 -90.5t167.5 -249.5l-396 -182q-44 152 -176 152q-88 0 -151 -60t-79 -164q-17 -107 26.5 -167.5
t131.5 -60.5q133 0 224 152l340 -180q-83 -160 -247 -251t-373 -91z" />
    <glyph glyph-name="Cdotaccent" unicode="&#x10a;" horiz-adv-x="1680" 
d="M1167 1572q-105 0 -161.5 67t-40.5 173q16 105 94.5 171.5t183.5 66.5t161.5 -66.5t40.5 -171.5q-16 -106 -94.5 -173t-183.5 -67zM915 -34q-175 0 -315.5 55.5t-236.5 158.5q-200 221 -146 556q52 333 321 554q268 214 620 214q215 0 370.5 -75.5t243.5 -218.5
l-359 -280q-106 172 -292 172q-156 0 -267 -100t-137 -266q-27 -167 52 -267.5t235 -100.5q185 0 348 172l269 -280q-133 -142 -313 -218t-393 -76z" />
    <glyph glyph-name="cdotaccent" unicode="&#x10b;" horiz-adv-x="1444" 
d="M935 1254q-105 0 -162 67t-40 173q16 105 94 171.5t183 66.5t162 -66.5t41 -171.5q-17 -106 -95 -173t-183 -67zM775 -22q-195 0 -338 76q-143 77 -208 213t-38 309q27 170 137 308q109 135 274.5 210.5t360.5 75.5q209 0 344.5 -90.5t167.5 -249.5l-396 -182
q-44 152 -176 152q-88 0 -151 -60t-79 -164q-17 -107 26.5 -167.5t131.5 -60.5q133 0 224 152l340 -180q-83 -160 -247 -251t-373 -91z" />
    <glyph glyph-name="Ccaron" unicode="&#x10c;" horiz-adv-x="1680" 
d="M1693 1928l-321 -336h-404l-215 336h294l151 -160l201 160h294zM915 -34q-175 0 -315.5 55.5t-236.5 158.5q-200 221 -146 556q52 333 321 554q268 214 620 214q215 0 370.5 -75.5t243.5 -218.5l-359 -280q-106 172 -292 172q-156 0 -267 -100t-137 -266
q-27 -167 52 -267.5t235 -100.5q185 0 348 172l269 -280q-133 -142 -313 -218t-393 -76z" />
    <glyph glyph-name="ccaron" unicode="&#x10d;" horiz-adv-x="1444" 
d="M1461 1610l-321 -336h-404l-215 336h294l151 -160l201 160h294zM775 -22q-195 0 -338 76q-143 77 -208 213t-38 309q27 170 137 308q109 135 274.5 210.5t360.5 75.5q209 0 344.5 -90.5t167.5 -249.5l-396 -182q-44 152 -176 152q-88 0 -151 -60t-79 -164
q-17 -107 26.5 -167.5t131.5 -60.5q133 0 224 152l340 -180q-83 -160 -247 -251t-373 -91z" />
    <glyph glyph-name="Dcaron" unicode="&#x10e;" horiz-adv-x="1754" 
d="M1509 1926l-321 -336h-404l-215 336h294l151 -160l201 160h294zM824 0h-724l233 1470h724q244 0 418 -88q176 -91 253.5 -256t42.5 -388q-37 -229 -169 -394q-131 -166 -332 -255t-446 -89zM976 1084h-208l-111 -698h208q104 0 190 40q87 39 142.5 119t73.5 193
q17 111 -14 188q-64 158 -281 158z" />
    <glyph glyph-name="dcaron" unicode="&#x10f;" horiz-adv-x="2006" 
d="M2170 1664l-134 -442h-268l70 442h332zM653 -22q-146 0 -265 74q-119 76 -172 210t-25 314q30 183 127 318q97 132 234.5 204t288.5 72q149 0 236 -64q15 -10 39 -34l63 398h476l-233 -1470h-452l15 94q-122 -116 -332 -116zM823 348q85 0 146.5 62t77.5 166t-25.5 164
t-126.5 60q-84 0 -145 -60t-77 -164t25.5 -166t124.5 -62z" />
    <glyph glyph-name="Dcroat" unicode="&#x110;" horiz-adv-x="1936" 
d="M1657 1382q176 -91 253.5 -256t42.5 -388q-37 -229 -169 -394q-131 -166 -332 -255t-446 -89h-724l95 602h-182l46 286h182l92 582h724q244 0 418 -88zM1237 426q87 39 142.5 119t73.5 193q17 111 -14 188q-64 158 -281 158h-208l-31 -196h310l-46 -286h-310l-34 -216
h208q104 0 190 40z" />
    <glyph glyph-name="dcroat" unicode="&#x111;" horiz-adv-x="1630" 
d="M1655 1470l-2 -12h108l-37 -230h-108l-194 -1228h-452l15 94q-122 -116 -332 -116q-146 0 -265 74q-119 76 -172 210t-25 314q30 183 127 318q97 132 234.5 204t288.5 72q149 0 236 -64q15 -10 39 -34l24 156h-316l37 230h316l2 12h476zM823 348q85 0 146.5 62t77.5 166
t-25.5 164t-126.5 60q-84 0 -145 -60t-77 -164t25.5 -166t124.5 -62z" />
    <glyph glyph-name="Emacron" unicode="&#x112;" horiz-adv-x="1438" 
d="M1438 1882l-39 -248h-882l39 248h882zM1395 374l-59 -374h-1236l233 1470h1238l-59 -374h-752l-30 -184h666l-56 -358h-666l-29 -180h750z" />
    <glyph glyph-name="emacron" unicode="&#x113;" horiz-adv-x="1484" 
d="M1432 1566l-39 -248h-882l39 248h882zM793 -22q-213 0 -354 78q-146 78 -210.5 213.5t-37.5 306.5q27 169 135 308q107 135 267.5 210.5t343.5 75.5q166 0 304 -68q138 -70 201 -203.5t33 -322.5q-7 -47 -26 -112h-794q13 -66 66 -100t141 -34q77 0 131 19.5t123 64.5
l208 -250q-203 -186 -531 -186zM680 694h370q-2 71 -44.5 111.5t-115.5 40.5q-74 0 -128.5 -40.5t-81.5 -111.5z" />
    <glyph glyph-name="Ebreve" unicode="&#x114;" horiz-adv-x="1438" 
d="M947 1570q-191 0 -296 96t-86 260h282q-4 -57 33.5 -92.5t102.5 -35.5t114 35.5t62 92.5h282q-33 -164 -168.5 -260t-325.5 -96zM1395 374l-59 -374h-1236l233 1470h1238l-59 -374h-752l-30 -184h666l-56 -358h-666l-29 -180h750z" />
    <glyph glyph-name="ebreve" unicode="&#x115;" horiz-adv-x="1484" 
d="M941 1254q-191 0 -296 96t-86 260h282q-4 -57 33.5 -92.5t102.5 -35.5t114 35.5t62 92.5h282q-33 -164 -168.5 -260t-325.5 -96zM793 -22q-213 0 -354 78q-146 78 -210.5 213.5t-37.5 306.5q27 169 135 308q107 135 267.5 210.5t343.5 75.5q166 0 304 -68
q138 -70 201 -203.5t33 -322.5q-7 -47 -26 -112h-794q13 -66 66 -100t141 -34q77 0 131 19.5t123 64.5l208 -250q-203 -186 -531 -186zM680 694h370q-2 71 -44.5 111.5t-115.5 40.5q-74 0 -128.5 -40.5t-81.5 -111.5z" />
    <glyph glyph-name="Edotaccent" unicode="&#x116;" horiz-adv-x="1438" 
d="M947 1570q-105 0 -162 67t-40 173q16 105 94 171.5t183 66.5t162 -66.5t41 -171.5q-17 -106 -95 -173t-183 -67zM1395 374l-59 -374h-1236l233 1470h1238l-59 -374h-752l-30 -184h666l-56 -358h-666l-29 -180h750z" />
    <glyph glyph-name="edotaccent" unicode="&#x117;" horiz-adv-x="1484" 
d="M941 1254q-105 0 -162 67t-40 173q16 105 94 171.5t183 66.5t162 -66.5t41 -171.5q-17 -106 -95 -173t-183 -67zM793 -22q-213 0 -354 78q-146 78 -210.5 213.5t-37.5 306.5q27 169 135 308q107 135 267.5 210.5t343.5 75.5q166 0 304 -68q138 -70 201 -203.5t33 -322.5
q-7 -47 -26 -112h-794q13 -66 66 -100t141 -34q77 0 131 19.5t123 64.5l208 -250q-203 -186 -531 -186zM680 694h370q-2 71 -44.5 111.5t-115.5 40.5q-74 0 -128.5 -40.5t-81.5 -111.5z" />
    <glyph glyph-name="Eogonek" unicode="&#x118;" horiz-adv-x="1474" 
d="M1277 -260l25 -196q-42 -21 -109.5 -34.5t-134.5 -13.5q-156 0 -233 69.5t-58 188.5q11 73 65 144q42 58 112 102h-844l233 1470h1238l-59 -374h-752l-30 -184h666l-56 -358h-666l-29 -180h750l-59 -374h-14q-129 -53 -196 -101t-76 -103q-6 -38 18 -62t80 -24
q63 0 129 30z" />
    <glyph glyph-name="eogonek" unicode="&#x119;" horiz-adv-x="1484" 
d="M950 -504q-156 0 -233 71t-57 193q21 127 143 218h-10q-213 0 -354 78q-146 78 -210.5 213.5t-37.5 306.5q27 169 135 308q107 135 267.5 210.5t343.5 75.5q166 0 304 -68q138 -70 201 -203.5t33 -322.5q-7 -47 -26 -112h-794q13 -66 66 -100t141 -34q77 0 131 19.5
t123 64.5l210 -250q-47 -41 -104 -78q-102 -57 -166 -110q-98 -80 -109 -162q-8 -46 18.5 -75t80.5 -29q59 0 125 30l25 -196q-41 -21 -110 -34.5t-136 -13.5zM680 694h370q-2 71 -44.5 111.5t-115.5 40.5q-74 0 -128.5 -40.5t-81.5 -111.5z" />
    <glyph glyph-name="Ecaron" unicode="&#x11a;" horiz-adv-x="1438" 
d="M1473 1926l-321 -336h-404l-215 336h294l151 -160l201 160h294zM1395 374l-59 -374h-1236l233 1470h1238l-59 -374h-752l-30 -184h666l-56 -358h-666l-29 -180h750z" />
    <glyph glyph-name="ecaron" unicode="&#x11b;" horiz-adv-x="1484" 
d="M1467 1610l-321 -336h-404l-215 336h294l151 -160l201 160h294zM793 -22q-213 0 -354 78q-146 78 -210.5 213.5t-37.5 306.5q27 169 135 308q107 135 267.5 210.5t343.5 75.5q166 0 304 -68q138 -70 201 -203.5t33 -322.5q-7 -47 -26 -112h-794q13 -66 66 -100t141 -34
q77 0 131 19.5t123 64.5l208 -250q-203 -186 -531 -186zM680 694h370q-2 71 -44.5 111.5t-115.5 40.5q-74 0 -128.5 -40.5t-81.5 -111.5z" />
    <glyph glyph-name="Gcircumflex" unicode="&#x11c;" horiz-adv-x="1704" 
d="M1208 1754l-202 -162h-294l321 336h404l215 -336h-294zM917 -34q-176 0 -317 55.5t-237 158.5q-200 221 -146 556q26 168 108.5 308.5t212.5 245.5q271 214 632 214q217 0 377 -73t250 -211l-360 -280q-113 162 -304 162q-164 0 -277 -98.5t-139 -267.5
q-26 -165 54 -266.5t239 -101.5q97 0 186 36l17 106h-200l56 358h630l-113 -714q-146 -89 -325 -138.5t-344 -49.5z" />
    <glyph glyph-name="gcircumflex" unicode="&#x11d;" horiz-adv-x="1544" 
d="M1029 1436l-201 -162h-294l321 336h404l215 -336h-294zM745 -436q-369 -9 -574 128l213 296q59 -45 163.5 -75t197.5 -33q240 6 331 186q-146 -64 -316 -64q-208 0 -322 74l-24 14q-129 84 -187 213.5t-33 288.5q25 161 136 304q109 133 271 206.5t345 73.5
q170 0 301 -68q3 -2 10.5 -5t10.5 -5l8 52h350l-143 -904q-49 -309 -241.5 -487.5t-496.5 -194.5zM863 362q119 0 206.5 63t103.5 163q16 102 -50 163t-188 61q-119 0 -208.5 -62t-105.5 -162q-16 -99 53.5 -162.5t188.5 -63.5z" />
    <glyph glyph-name="Gbreve" unicode="&#x11e;" horiz-adv-x="1704" 
d="M1179 1572q-190 0 -295 96t-87 260h282q-4 -57 33.5 -92.5t102.5 -35.5t114 35.5t62 92.5h282q-33 -164 -168 -260t-326 -96zM917 -34q-176 0 -317 55.5t-237 158.5q-200 221 -146 556q26 168 108.5 308.5t212.5 245.5q271 214 632 214q217 0 377 -73t250 -211l-360 -280
q-113 162 -304 162q-164 0 -277 -98.5t-139 -267.5q-26 -165 54 -266.5t239 -101.5q97 0 186 36l17 106h-200l56 358h630l-113 -714q-146 -89 -325 -138.5t-344 -49.5z" />
    <glyph glyph-name="gbreve" unicode="&#x11f;" horiz-adv-x="1544" 
d="M1001 1254q-191 0 -296 96t-86 260h282q-4 -57 33.5 -92.5t102.5 -35.5t114 35.5t62 92.5h282q-33 -164 -168.5 -260t-325.5 -96zM745 -436q-369 -9 -574 128l213 296q59 -45 163.5 -75t197.5 -33q240 6 331 186q-146 -64 -316 -64q-208 0 -322 74l-24 14
q-129 84 -187 213.5t-33 288.5q25 161 136 304q109 133 271 206.5t345 73.5q170 0 301 -68q3 -2 10.5 -5t10.5 -5l8 52h350l-143 -904q-49 -309 -241.5 -487.5t-496.5 -194.5zM863 362q119 0 206.5 63t103.5 163q16 102 -50 163t-188 61q-119 0 -208.5 -62t-105.5 -162
q-16 -99 53.5 -162.5t188.5 -63.5z" />
    <glyph glyph-name="Gdotaccent" unicode="&#x120;" horiz-adv-x="1704" 
d="M1179 1572q-105 0 -161.5 67t-40.5 173q16 105 94.5 171.5t183.5 66.5t161.5 -66.5t40.5 -171.5q-16 -106 -94.5 -173t-183.5 -67zM917 -34q-176 0 -317 55.5t-237 158.5q-200 221 -146 556q26 168 108.5 308.5t212.5 245.5q271 214 632 214q217 0 377 -73t250 -211
l-360 -280q-113 162 -304 162q-164 0 -277 -98.5t-139 -267.5q-26 -165 54 -266.5t239 -101.5q97 0 186 36l17 106h-200l56 358h630l-113 -714q-146 -89 -325 -138.5t-344 -49.5z" />
    <glyph glyph-name="gdotaccent" unicode="&#x121;" horiz-adv-x="1544" 
d="M1001 1254q-105 0 -162 67t-40 173q16 105 94 171.5t183 66.5t162 -66.5t41 -171.5q-17 -106 -95 -173t-183 -67zM745 -436q-369 -9 -574 128l213 296q59 -45 163.5 -75t197.5 -33q240 6 331 186q-146 -64 -316 -64q-208 0 -322 74l-24 14q-129 84 -187 213.5t-33 288.5
q25 161 136 304q109 133 271 206.5t345 73.5q170 0 301 -68q3 -2 10.5 -5t10.5 -5l8 52h350l-143 -904q-49 -309 -241.5 -487.5t-496.5 -194.5zM863 362q119 0 206.5 63t103.5 163q16 102 -50 163t-188 61q-119 0 -208.5 -62t-105.5 -162q-16 -99 53.5 -162.5t188.5 -63.5z
" />
    <glyph glyph-name="Hcircumflex" unicode="&#x124;" horiz-adv-x="1648" 
d="M1101 1752l-201 -162h-294l321 336h404l215 -336h-294zM680 530l-84 -530h-496l233 1470h496l-85 -534h458l85 534h494l-233 -1470h-494l84 530h-458z" />
    <glyph glyph-name="hcircumflex" unicode="&#x125;" horiz-adv-x="1702" 
d="M861 1840l-201 -162h-294l321 336h404l215 -336h-294zM894 540l-86 -540h-474l233 1470h474l-66 -414q150 114 342 114q131 0 230 -52q214 -116 159 -462l-104 -656h-476l91 574q30 196 -109 196q-86 0 -141 -57.5t-73 -172.5z" />
    <glyph glyph-name="Hbar" unicode="&#x126;" horiz-adv-x="2012" 
d="M1963 1470l-19 -120h182l-45 -286h-182l-169 -1064h-494l84 530h-458l-84 -530h-496l169 1064h-182l45 286h182l19 120h496l-19 -120h458l19 120h494zM947 1064l-21 -128h458l21 128h-458z" />
    <glyph glyph-name="hbar" unicode="&#x127;" horiz-adv-x="1574" 
d="M1419 1118q214 -116 159 -462l-104 -656h-476l91 574q30 196 -109 196q-86 0 -141 -57.5t-73 -172.5l-86 -540h-474l194 1228h-106l37 230h106l2 12h474l-2 -12h320l-37 -230h-320l-27 -172q150 114 342 114q131 0 230 -52z" />
    <glyph glyph-name="Itilde" unicode="&#x128;" horiz-adv-x="1120" 
d="M979 1570q-45 0 -90.5 19.5t-75.5 42.5t-64.5 42.5t-60.5 19.5q-40 0 -69 -27t-43 -77h-224q31 168 123 266t224 98q45 0 90.5 -19.5t76 -42.5t65 -42.5t59.5 -19.5q43 0 73 26t38 70h224q-27 -161 -120.5 -258.5t-225.5 -97.5zM1041 1470l-233 -1470h-496l233 1470h496z
" />
    <glyph glyph-name="itilde" unicode="&#x129;" horiz-adv-x="992" 
d="M849 1254q-40 0 -80.5 21t-67 46t-55.5 46t-48 21q-58 0 -76 -114h-220q28 181 104 272.5t195 91.5q40 0 80.5 -21t67 -46t55.5 -46t48 -21q58 0 75 106h220q-28 -175 -103.5 -265.5t-194.5 -90.5zM916 1148l-182 -1148h-474l182 1148h474z" />
    <glyph glyph-name="Imacron" unicode="&#x12a;" horiz-adv-x="914" 
d="M1112 1880l-40 -248h-714l40 248h714zM937 1470l-233 -1470h-496l233 1470h496z" />
    <glyph glyph-name="imacron" unicode="&#x12b;" horiz-adv-x="914" 
d="M1062 1566l-39 -248h-714l39 248h714zM876 1148l-182 -1148h-474l182 1148h474z" />
    <glyph glyph-name="Ibreve" unicode="&#x12c;" horiz-adv-x="1076" 
d="M787 1570q-191 0 -296 96t-86 260h282q-4 -57 33.5 -92.5t102.5 -35.5t114 35.5t62 92.5h282q-33 -164 -168.5 -260t-325.5 -96zM1019 1470l-233 -1470h-496l233 1470h496z" />
    <glyph glyph-name="ibreve" unicode="&#x12d;" horiz-adv-x="972" 
d="M685 1254q-167 0 -259 96.5t-71 259.5h272q-9 -59 15 -95.5t78 -36.5t90 36.5t45 95.5h272q-27 -163 -149.5 -259.5t-292.5 -96.5zM906 1148l-182 -1148h-474l182 1148h474z" />
    <glyph glyph-name="Iogonek" unicode="&#x12e;" horiz-adv-x="748" 
d="M552 -266l24 -190q-80 -48 -186 -48q-137 0 -208 71t-52 191q22 137 152 242h-182l233 1470h496l-233 -1470q-91 -52 -132 -97.5t-50 -102.5q-6 -39 13.5 -64.5t52.5 -25.5q40 0 72 24z" />
    <glyph glyph-name="iogonek" unicode="&#x12f;" horiz-adv-x="776" 
d="M583 1242q-129 0 -197 68t-51 172q17 105 106 173.5t218 68.5t197.5 -64.5t51.5 -167.5q-17 -111 -106.5 -180.5t-218.5 -69.5zM580 -266l24 -190q-80 -48 -186 -48q-137 0 -208 71t-52 191q22 137 152 242h-160l182 1148h474l-182 -1148q-91 -52 -132 -97.5t-50 -102.5
q-6 -39 13.5 -64.5t52.5 -25.5q40 0 72 24z" />
    <glyph glyph-name="Idotaccent" unicode="&#x130;" horiz-adv-x="696" 
d="M597 1570q-105 0 -162 67t-40 173q16 105 94 171.5t183 66.5t162 -66.5t41 -171.5q-17 -106 -95 -173t-183 -67zM829 1470l-233 -1470h-496l233 1470h496z" />
    <glyph glyph-name="dotlessi" unicode="&#x131;" horiz-adv-x="674" 
d="M756 1148l-182 -1148h-474l182 1148h474z" />
    <glyph glyph-name="IJ" unicode="&#x132;" horiz-adv-x="1558" 
d="M717 -34q-184 0 -337 47.5t-257 130.5l236 352q94 -64 199 -99t199 -35q137 0 211 70.5t98 223.5l129 814h496l-125 -788q-36 -227 -152 -390q-116 -158 -296 -242t-401 -84zM869 1470l-121 -764h-494l121 764h494z" />
    <glyph glyph-name="ij" unicode="&#x133;" horiz-adv-x="1474" 
d="M581 1232q-128 0 -196 68t-52 172q17 105 106 173.5t218 68.5t197.5 -64.5t52.5 -167.5q-17 -111 -107 -180.5t-219 -69.5zM1282 1228q-128 0 -196 68t-51 172q16 105 105.5 173.5t218.5 68.5t197.5 -64.5t51.5 -167.5q-17 -111 -107 -180.5t-219 -69.5zM806 1148
l-182 -1148h-474l182 1148h474zM754 -428q-87 0 -178.5 15t-140.5 41l166 330q48 -28 140 -28q44 0 76 33.5t43 100.5l172 1082h474l-173 -1088q-36 -224 -189.5 -355t-389.5 -131z" />
    <glyph glyph-name="Jcircumflex" unicode="&#x134;" 
d="M1031 1752l-201 -162h-294l321 336h404l215 -336h-294zM811 -34q-339 0 -498.5 183t-107.5 513h496q-41 -294 177 -294q110 0 179 73t94 235l126 794h488l-128 -808q-52 -330 -269.5 -513t-556.5 -183z" />
    <glyph glyph-name="jcircumflex" unicode="&#x135;" horiz-adv-x="1212" 
d="M918 1416l-146 -142h-294l273 336h396l167 -336h-294zM360 -428q-87 0 -178.5 15t-140.5 41l166 330q48 -28 140 -28q44 0 76 33.5t43 100.5l172 1082h474l-173 -1088q-36 -224 -189.5 -355t-389.5 -131z" />
    <glyph glyph-name="kgreenlandic" unicode="&#x138;" horiz-adv-x="1602" 
d="M617 270l-43 -270h-474l182 1148h474l-53 -334l383 334h560l-553 -496l409 -652h-574l-222 352z" />
    <glyph glyph-name="Lacute" unicode="&#x139;" horiz-adv-x="1436" 
d="M1161 1926l-467 -336h-314l329 336h452zM1395 374l-59 -374h-1236l233 1470h486l-174 -1096h750z" />
    <glyph glyph-name="lacute" unicode="&#x13a;" horiz-adv-x="944" 
d="M1164 2020l-467 -336h-314l329 336h452zM807 1470l-233 -1470h-474l233 1470h474z" />
    <glyph glyph-name="Lcaron" unicode="&#x13d;" horiz-adv-x="1436" 
d="M1450 1576l-134 -442h-268l70 442h332zM1395 374l-59 -374h-1236l233 1470h486l-174 -1096h750z" />
    <glyph glyph-name="lcaron" unicode="&#x13e;" horiz-adv-x="1152" 
d="M1316 1664l-134 -442h-268l70 442h332zM807 1470l-233 -1470h-474l233 1470h474z" />
    <glyph glyph-name="Ldot" unicode="&#x13f;" horiz-adv-x="1436" 
d="M1395 374l-59 -374h-1236l233 1470h486l-174 -1096h750zM1105 686q-105 0 -161 67t-39 173q17 105 93.5 171.5t181.5 66.5q106 0 163 -66.5t40 -171.5q-17 -107 -94.5 -173.5t-183.5 -66.5z" />
    <glyph glyph-name="ldot" unicode="&#x140;" horiz-adv-x="1184" 
d="M807 1470l-233 -1470h-474l233 1470h474zM957 562q-95 0 -145 60t-35 156q15 94 84 154t164 60q96 0 146.5 -59.5t35.5 -154.5q-15 -96 -84.5 -156t-165.5 -60z" />
    <glyph glyph-name="Lslash" unicode="&#x141;" horiz-adv-x="1674" 
d="M1360 1122l-400 -266l-77 -482h750l-59 -374h-1236l78 494l-100 -66l-115 210l266 176l104 656h486l-47 -296l237 158z" />
    <glyph glyph-name="lslash" unicode="&#x142;" horiz-adv-x="1172" 
d="M1000 1110l112 74l114 -210l-277 -184l-125 -790h-474l70 440l-114 -76l-115 210l279 186l113 710h474z" />
    <glyph glyph-name="Nacute" unicode="&#x143;" horiz-adv-x="1648" 
d="M1637 1926l-467 -336h-314l329 336h452zM688 668l-106 -668h-482l233 1470h408l452 -668l106 668h482l-233 -1470h-406z" />
    <glyph glyph-name="nacute" unicode="&#x144;" horiz-adv-x="1468" 
d="M1503 1610l-467 -336h-314l329 336h452zM660 540l-86 -540h-474l182 1148h450l-18 -114q154 136 369 136q131 0 230 -52q214 -116 159 -462l-104 -656h-476l91 574q30 196 -109 196q-86 0 -141 -57.5t-73 -172.5z" />
    <glyph glyph-name="Ncaron" unicode="&#x147;" horiz-adv-x="1648" 
d="M1599 1926l-321 -336h-404l-215 336h294l151 -160l201 160h294zM688 668l-106 -668h-482l233 1470h408l452 -668l106 668h482l-233 -1470h-406z" />
    <glyph glyph-name="ncaron" unicode="&#x148;" horiz-adv-x="1468" 
d="M1465 1610l-321 -336h-404l-215 336h294l151 -160l201 160h294zM660 540l-86 -540h-474l182 1148h450l-18 -114q154 136 369 136q131 0 230 -52q214 -116 159 -462l-104 -656h-476l91 574q30 196 -109 196q-86 0 -141 -57.5t-73 -172.5z" />
    <glyph glyph-name="napostrophe" unicode="&#x149;" horiz-adv-x="2020" 
d="M736 1036l-196 -314h-294l163 356q-61 32 -88 92t-14 140q20 123 109.5 196.5t211.5 73.5q121 0 187 -74t46 -196q-8 -56 -35.5 -117t-89.5 -157zM1212 540l-86 -540h-474l182 1148h450l-18 -114q154 136 369 136q131 0 230 -52q214 -116 159 -462l-104 -656h-476l91 574
q30 196 -109 196q-86 0 -141 -57.5t-73 -172.5z" />
    <glyph glyph-name="Eng" unicode="&#x14a;" horiz-adv-x="1648" 
d="M880 -428q-248 0 -397 106l281 332q64 -52 135 -52q141 0 180 136l-391 574l-106 -668h-482l233 1470h408l452 -668l106 668h482l-199 -1256q-53 -330 -227.5 -486t-474.5 -156z" />
    <glyph glyph-name="eng" unicode="&#x14b;" horiz-adv-x="1468" 
d="M798 -428q-177 0 -283 56l166 330q45 -28 102 -28q44 0 76 33.5t43 100.5l81 510q30 196 -109 196q-86 0 -141 -57.5t-73 -172.5l-86 -540h-474l182 1148h450l-18 -114q154 136 369 136q131 0 230 -52q214 -116 159 -462l-95 -598q-36 -224 -190 -355t-389 -131z" />
    <glyph glyph-name="Omacron" unicode="&#x14c;" horiz-adv-x="1860" 
d="M1670 1882l-39 -248h-882l39 248h882zM927 -34q-178 0 -321.5 56.5t-240.5 161.5q-201 224 -148 552q51 328 323 552q130 104 291 160t337 56q363 0 560 -216q201 -220 149 -552q-54 -332 -324 -552q-129 -105 -289.5 -161.5t-336.5 -56.5zM988 368q146 0 254 101
t135 267q25 164 -50.5 265t-221.5 101q-145 0 -254 -101t-134 -265q-27 -165 49.5 -266.5t221.5 -101.5z" />
    <glyph glyph-name="omacron" unicode="&#x14d;" horiz-adv-x="1536" 
d="M1452 1566l-39 -248h-882l39 248h882zM765 -22q-197 0 -332 78q-141 78 -205 212.5t-37 307.5q27 169 135 308q109 135 271.5 210.5t355.5 75.5q194 0 334 -76q141 -76 204.5 -210.5t35.5 -307.5q-27 -172 -133 -310q-108 -135 -272 -211.5t-357 -76.5zM823 348
q84 0 145 62t77 166t-24.5 164t-125.5 60t-145.5 -60t-76.5 -164q-16 -105 25 -166.5t125 -61.5z" />
    <glyph glyph-name="Obreve" unicode="&#x14e;" horiz-adv-x="1860" 
d="M1179 1570q-191 0 -296 96t-86 260h282q-4 -57 33.5 -92.5t102.5 -35.5t114 35.5t62 92.5h282q-33 -164 -168.5 -260t-325.5 -96zM927 -34q-178 0 -321.5 56.5t-240.5 161.5q-201 224 -148 552q51 328 323 552q130 104 291 160t337 56q363 0 560 -216q201 -220 149 -552
q-54 -332 -324 -552q-129 -105 -289.5 -161.5t-336.5 -56.5zM988 368q146 0 254 101t135 267q25 164 -50.5 265t-221.5 101q-145 0 -254 -101t-134 -265q-27 -165 49.5 -266.5t221.5 -101.5z" />
    <glyph glyph-name="obreve" unicode="&#x14f;" horiz-adv-x="1536" 
d="M961 1254q-191 0 -296 96t-86 260h282q-4 -57 33.5 -92.5t102.5 -35.5t114 35.5t62 92.5h282q-33 -164 -168.5 -260t-325.5 -96zM765 -22q-197 0 -332 78q-141 78 -205 212.5t-37 307.5q27 169 135 308q109 135 271.5 210.5t355.5 75.5q194 0 334 -76
q141 -76 204.5 -210.5t35.5 -307.5q-27 -172 -133 -310q-108 -135 -272 -211.5t-357 -76.5zM823 348q84 0 145 62t77 166t-24.5 164t-125.5 60t-145.5 -60t-76.5 -164q-16 -105 25 -166.5t125 -61.5z" />
    <glyph glyph-name="Ohungarumlaut" unicode="&#x150;" horiz-adv-x="1860" 
d="M1351 1926l-257 -336h-316l163 336h410zM1841 1926l-255 -336h-316l163 336h408zM927 -34q-178 0 -321.5 56.5t-240.5 161.5q-201 224 -148 552q51 328 323 552q130 104 291 160t337 56q363 0 560 -216q201 -220 149 -552q-54 -332 -324 -552q-129 -105 -289.5 -161.5
t-336.5 -56.5zM988 368q146 0 254 101t135 267q25 164 -50.5 265t-221.5 101q-145 0 -254 -101t-134 -265q-27 -165 49.5 -266.5t221.5 -101.5z" />
    <glyph glyph-name="ohungarumlaut" unicode="&#x151;" horiz-adv-x="1536" 
d="M1133 1610l-257 -336h-316l163 336h410zM1623 1610l-255 -336h-316l163 336h408zM765 -22q-197 0 -332 78q-141 78 -205 212.5t-37 307.5q27 169 135 308q109 135 271.5 210.5t355.5 75.5q194 0 334 -76q141 -76 204.5 -210.5t35.5 -307.5q-27 -172 -133 -310
q-108 -135 -272 -211.5t-357 -76.5zM823 348q84 0 145 62t77 166t-24.5 164t-125.5 60t-145.5 -60t-76.5 -164q-16 -105 25 -166.5t125 -61.5z" />
    <glyph glyph-name="OE" unicode="&#x152;" horiz-adv-x="2482" 
d="M2441 374l-59 -374h-1452q-246 0 -418 90q-176 90 -253.5 256t-41.5 392q36 225 168 390q131 164 332 253t446 89h1424l-59 -374h-708l-28 -172h622l-56 -356h-622l-31 -194h736zM1013 386h208l111 698h-208q-107 0 -191 -40q-87 -40 -143 -118t-73 -188
q-17 -109 13 -192q33 -78 106 -119t177 -41z" />
    <glyph glyph-name="oe" unicode="&#x153;" horiz-adv-x="2342" 
d="M757 -22q-191 0 -326 78q-140 78 -203.5 212.5t-36.5 307.5q27 169 135 308q109 135 270.5 210.5t348.5 75.5q186 0 314 -76q51 -31 89 -72q187 148 445 148q164 0 302 -68q138 -70 203 -203t36 -317q-12 -76 -27 -118h-804q32 -134 213 -134q68 0 125 20t125 64
l214 -250q-101 -90 -238 -138t-293 -48q-205 0 -340 78q-64 38 -98 76q-189 -154 -454 -154zM1532 694h368q-1 71 -42.5 111.5t-115.5 40.5t-129.5 -40.5t-80.5 -111.5zM823 348q84 0 145 62t77 166t-24.5 164t-125.5 60t-145.5 -60t-76.5 -164q-16 -105 25 -166.5
t125 -61.5z" />
    <glyph glyph-name="Racute" unicode="&#x154;" horiz-adv-x="1614" 
d="M1589 1926l-467 -336h-314l329 336h452zM653 362l-57 -362h-496l233 1470h744q201 0 345 -68q140 -68 202 -193t35 -293q-27 -170 -128 -294q-105 -125 -252 -188l229 -434h-528l-187 362h-140zM984 1088h-216l-54 -344h216q100 0 158 45t71 127q13 81 -31 126.5
t-144 45.5z" />
    <glyph glyph-name="racute" unicode="&#x155;" horiz-adv-x="1116" 
d="M1271 1610l-467 -336h-314l329 336h452zM655 510l-81 -510h-474l182 1148h450l-20 -124q149 146 395 146l-66 -420q-55 8 -103 8q-244 0 -283 -248z" />
    <glyph glyph-name="Rcaron" unicode="&#x158;" horiz-adv-x="1614" 
d="M1551 1926l-321 -336h-404l-215 336h294l151 -160l201 160h294zM653 362l-57 -362h-496l233 1470h744q201 0 345 -68q140 -68 202 -193t35 -293q-27 -170 -128 -294q-105 -125 -252 -188l229 -434h-528l-187 362h-140zM984 1088h-216l-54 -344h216q100 0 158 45t71 127
q13 81 -31 126.5t-144 45.5z" />
    <glyph glyph-name="rcaron" unicode="&#x159;" horiz-adv-x="1140" 
d="M1295 1610l-321 -336h-404l-215 336h294l151 -160l201 160h294zM717 510l-81 -510h-474l182 1148h450l-20 -124q149 146 395 146l-66 -420q-55 8 -103 8q-244 0 -283 -248z" />
    <glyph glyph-name="Sacute" unicode="&#x15a;" horiz-adv-x="1524" 
d="M1575 1926l-467 -336h-314l329 336h452zM735 -34q-182 0 -348.5 41.5t-267.5 110.5l215 360q98 -62 221 -98t243 -36q193 0 205 80q7 39 -34 64q-11 6 -25 12t-33 11.5t-32.5 9.5t-40.5 10t-40 9t-47 10t-46 10q-84 18 -147 39t-124 57t-97.5 82t-52.5 115t-2 155
q21 136 117 250q96 116 260.5 181t386.5 65q152 0 291.5 -32.5t242.5 -95.5l-207 -360q-196 110 -393 110q-90 0 -143.5 -24t-60.5 -68q-6 -37 34 -60q25 -13 73.5 -26t79.5 -19.5t114 -22.5q81 -17 144.5 -38.5t123.5 -57.5t96.5 -82t52.5 -114t3 -152q-21 -138 -115 -246
q-98 -117 -262 -183.5t-385 -66.5z" />
    <glyph glyph-name="sacute" unicode="&#x15b;" horiz-adv-x="1314" 
d="M1409 1610l-467 -336h-314l329 336h452zM617 -22q-144 0 -282.5 32t-219.5 82l179 314q74 -49 177.5 -76.5t206.5 -27.5q91 0 120 16q33 15 37 40q2 15 -13 26.5t-45 18t-58.5 10.5t-69.5 8t-61 7q-69 9 -122 23t-103 40.5t-79.5 63.5t-42.5 93.5t-2 129.5q18 107 99 196
q83 92 223 144t328 52q132 0 254 -24t199 -70l-179 -314q-137 84 -319 84q-87 0 -125 -16q-33 -14 -38 -38q-2 -15 11.5 -26.5t47 -19t57.5 -11t71.5 -8.5t61.5 -7q67 -10 119.5 -24.5t101.5 -41t78 -63.5t42 -94t1 -129q-16 -104 -94 -192q-82 -93 -224 -145.5t-337 -52.5z
" />
    <glyph glyph-name="Scircumflex" unicode="&#x15c;" horiz-adv-x="1524" 
d="M1039 1752l-201 -162h-294l321 336h404l215 -336h-294zM735 -34q-182 0 -348.5 41.5t-267.5 110.5l215 360q98 -62 221 -98t243 -36q193 0 205 80q7 39 -34 64q-11 6 -25 12t-33 11.5t-32.5 9.5t-40.5 10t-40 9t-47 10t-46 10q-84 18 -147 39t-124 57t-97.5 82t-52.5 115
t-2 155q21 136 117 250q96 116 260.5 181t386.5 65q152 0 291.5 -32.5t242.5 -95.5l-207 -360q-196 110 -393 110q-90 0 -143.5 -24t-60.5 -68q-6 -37 34 -60q25 -13 73.5 -26t79.5 -19.5t114 -22.5q81 -17 144.5 -38.5t123.5 -57.5t96.5 -82t52.5 -114t3 -152
q-21 -138 -115 -246q-98 -117 -262 -183.5t-385 -66.5z" />
    <glyph glyph-name="scircumflex" unicode="&#x15d;" horiz-adv-x="1314" 
d="M873 1436l-201 -162h-294l321 336h404l215 -336h-294zM617 -22q-144 0 -282.5 32t-219.5 82l179 314q74 -49 177.5 -76.5t206.5 -27.5q91 0 120 16q33 15 37 40q2 15 -13 26.5t-45 18t-58.5 10.5t-69.5 8t-61 7q-69 9 -122 23t-103 40.5t-79.5 63.5t-42.5 93.5t-2 129.5
q18 107 99 196q83 92 223 144t328 52q132 0 254 -24t199 -70l-179 -314q-137 84 -319 84q-87 0 -125 -16q-33 -14 -38 -38q-2 -15 11.5 -26.5t47 -19t57.5 -11t71.5 -8.5t61.5 -7q67 -10 119.5 -24.5t101.5 -41t78 -63.5t42 -94t1 -129q-16 -104 -94 -192
q-82 -93 -224 -145.5t-337 -52.5z" />
    <glyph glyph-name="Scedilla" unicode="&#x15e;" horiz-adv-x="1524" 
d="M1077 906q81 -17 144.5 -38.5t123.5 -57.5t96.5 -82t52.5 -114t3 -152q-21 -138 -115 -246q-82 -98 -212 -161.5t-302 -82.5l-31 -82q90 -11 125.5 -58.5t25.5 -109.5q-16 -104 -122.5 -165t-269.5 -61q-53 0 -109.5 12.5t-89.5 31.5l86 174q72 -24 122 -24q59 0 80 14
q26 14 30 36q3 19 -16 28q-17 14 -64 14h-86l74 188q-151 12 -284.5 51.5t-219.5 96.5l215 360q98 -62 221 -98t243 -36q193 0 205 80q7 39 -34 64q-11 6 -25 12t-33 11.5t-32.5 9.5t-40.5 10t-40 9t-47 10t-46 10q-84 18 -147 39t-124 57t-97.5 82t-52.5 115t-2 155
q21 136 117 250q96 116 260.5 181t386.5 65q152 0 291.5 -32.5t242.5 -95.5l-207 -360q-196 110 -393 110q-90 0 -143.5 -24t-60.5 -68q-6 -37 34 -60q25 -13 73.5 -26t79.5 -19.5t114 -22.5z" />
    <glyph glyph-name="scedilla" unicode="&#x15f;" horiz-adv-x="1314" 
d="M930 720q67 -10 119.5 -24.5t101.5 -41t78 -63.5t42 -94t1 -129q-16 -104 -94 -192q-139 -158 -420 -190l-37 -96q90 -11 125.5 -58.5t25.5 -109.5q-16 -104 -122.5 -165t-269.5 -61q-53 0 -109.5 12.5t-89.5 31.5l86 174q72 -24 122 -24q59 0 80 14q26 14 30 36
q3 19 -16 28q-17 14 -64 14h-86l78 200q-118 10 -224.5 39.5t-171.5 70.5l179 314q74 -49 177.5 -76.5t206.5 -27.5q91 0 120 16q33 15 37 40q2 15 -13 26.5t-45 18t-58.5 10.5t-69.5 8t-61 7q-69 9 -122 23t-103 40.5t-79.5 63.5t-42.5 93.5t-2 129.5q18 107 99 196
q83 92 223 144t328 52q132 0 254 -24t199 -70l-179 -314q-137 84 -319 84q-87 0 -125 -16q-33 -14 -38 -38q-2 -15 11.5 -26.5t47 -19t57.5 -11t71.5 -8.5t61.5 -7z" />
    <glyph glyph-name="Scaron" unicode="&#x160;" horiz-adv-x="1524" 
d="M1537 1926l-321 -336h-404l-215 336h294l151 -160l201 160h294zM735 -34q-182 0 -348.5 41.5t-267.5 110.5l215 360q98 -62 221 -98t243 -36q193 0 205 80q7 39 -34 64q-11 6 -25 12t-33 11.5t-32.5 9.5t-40.5 10t-40 9t-47 10t-46 10q-84 18 -147 39t-124 57t-97.5 82
t-52.5 115t-2 155q21 136 117 250q96 116 260.5 181t386.5 65q152 0 291.5 -32.5t242.5 -95.5l-207 -360q-196 110 -393 110q-90 0 -143.5 -24t-60.5 -68q-6 -37 34 -60q25 -13 73.5 -26t79.5 -19.5t114 -22.5q81 -17 144.5 -38.5t123.5 -57.5t96.5 -82t52.5 -114t3 -152
q-21 -138 -115 -246q-98 -117 -262 -183.5t-385 -66.5z" />
    <glyph glyph-name="scaron" unicode="&#x161;" horiz-adv-x="1314" 
d="M1371 1610l-321 -336h-404l-215 336h294l151 -160l201 160h294zM617 -22q-144 0 -282.5 32t-219.5 82l179 314q74 -49 177.5 -76.5t206.5 -27.5q91 0 120 16q33 15 37 40q2 15 -13 26.5t-45 18t-58.5 10.5t-69.5 8t-61 7q-69 9 -122 23t-103 40.5t-79.5 63.5t-42.5 93.5
t-2 129.5q18 107 99 196q83 92 223 144t328 52q132 0 254 -24t199 -70l-179 -314q-137 84 -319 84q-87 0 -125 -16q-33 -14 -38 -38q-2 -15 11.5 -26.5t47 -19t57.5 -11t71.5 -8.5t61.5 -7q67 -10 119.5 -24.5t101.5 -41t78 -63.5t42 -94t1 -129q-16 -104 -94 -192
q-82 -93 -224 -145.5t-337 -52.5z" />
    <glyph glyph-name="Tcaron" unicode="&#x164;" horiz-adv-x="1558" 
d="M1553 1926l-321 -336h-404l-215 336h294l151 -160l201 160h294zM1198 1086l-172 -1086h-496l172 1086h-430l61 384h1358l-61 -384h-432z" />
    <glyph glyph-name="tcaron" unicode="&#x165;" horiz-adv-x="1242" 
d="M1399 1620l-112 -442h-268l70 442h310zM757 -22q-243 0 -354.5 117t-73.5 351l54 342h-158l55 346h158l43 276h474l-43 -276h236l-55 -346h-236l-54 -338q-8 -51 15 -81.5t66 -30.5q61 0 113 32l61 -330q-118 -62 -301 -62z" />
    <glyph glyph-name="Tbar" unicode="&#x166;" horiz-adv-x="1558" 
d="M333 1470h1358l-61 -384h-432l-45 -282h246l-45 -286h-246l-82 -518h-496l82 518h-246l45 286h246l45 282h-430z" />
    <glyph glyph-name="tbar" unicode="&#x167;" horiz-adv-x="1152" 
d="M997 370l61 -330q-118 -62 -301 -62q-239 0 -350.5 113t-80.5 341h-130l37 230h130l20 126h-158l55 346h158l43 276h474l-43 -276h236l-55 -346h-236l-20 -126h210l-37 -230h-210q-1 -44 22 -69t62 -25q61 0 113 32z" />
    <glyph glyph-name="Utilde" unicode="&#x168;" 
d="M1239 1570q-45 0 -90.5 19.5t-75.5 42.5t-64.5 42.5t-60.5 19.5q-40 0 -69 -27t-43 -77h-224q31 168 123 266t224 98q45 0 90.5 -19.5t76 -42.5t65 -42.5t59.5 -19.5q43 0 73 26t38 70h224q-27 -161 -120.5 -258.5t-225.5 -97.5zM811 -34q-339 0 -498.5 183t-107.5 513
l128 808h494l-126 -794q-48 -308 177 -308q110 0 179 73t94 235l126 794h488l-128 -808q-52 -330 -270 -513t-556 -183z" />
    <glyph glyph-name="utilde" unicode="&#x169;" horiz-adv-x="1460" 
d="M1099 1254q-45 0 -90.5 19.5t-75.5 42.5t-64.5 42.5t-60.5 19.5q-40 0 -69 -27t-43 -77h-224q31 168 123 266t224 98q45 0 90.5 -19.5t76 -42.5t65 -42.5t59.5 -19.5q43 0 73 26t38 70h224q-27 -161 -120.5 -258.5t-225.5 -97.5zM581 -22q-133 0 -237 58
q-219 120 -163 478l101 634h476l-88 -552q-18 -117 11.5 -167.5t102.5 -50.5q76 0 128.5 60t70.5 172l85 538h474l-182 -1148h-450l17 110q-150 -132 -346 -132z" />
    <glyph glyph-name="Umacron" unicode="&#x16a;" 
d="M1560 1882l-39 -248h-882l39 248h882zM811 -34q-339 0 -498.5 183t-107.5 513l128 808h494l-126 -794q-48 -308 177 -308q110 0 179 73t94 235l126 794h488l-128 -808q-52 -330 -270 -513t-556 -183z" />
    <glyph glyph-name="umacron" unicode="&#x16b;" horiz-adv-x="1460" 
d="M1420 1566l-39 -248h-882l39 248h882zM581 -22q-133 0 -237 58q-219 120 -163 478l101 634h476l-88 -552q-18 -117 11.5 -167.5t102.5 -50.5q76 0 128.5 60t70.5 172l85 538h474l-182 -1148h-450l17 110q-150 -132 -346 -132z" />
    <glyph glyph-name="Ubreve" unicode="&#x16c;" 
d="M1069 1570q-191 0 -296 96t-86 260h282q-4 -57 33.5 -92.5t102.5 -35.5t114 35.5t62 92.5h282q-33 -164 -168.5 -260t-325.5 -96zM811 -34q-339 0 -498.5 183t-107.5 513l128 808h494l-126 -794q-48 -308 177 -308q110 0 179 73t94 235l126 794h488l-128 -808
q-52 -330 -270 -513t-556 -183z" />
    <glyph glyph-name="ubreve" unicode="&#x16d;" horiz-adv-x="1460" 
d="M929 1254q-191 0 -296 96t-86 260h282q-4 -57 33.5 -92.5t102.5 -35.5t114 35.5t62 92.5h282q-33 -164 -168.5 -260t-325.5 -96zM581 -22q-133 0 -237 58q-219 120 -163 478l101 634h476l-88 -552q-18 -117 11.5 -167.5t102.5 -50.5q76 0 128.5 60t70.5 172l85 538h474
l-182 -1148h-450l17 110q-150 -132 -346 -132z" />
    <glyph glyph-name="Uring" unicode="&#x16e;" 
d="M1067 1562q-123 0 -195.5 81t-53.5 199q19 120 117 201t221 81t196 -81t54 -201q-19 -118 -117.5 -199t-221.5 -81zM1094 1730q50 0 87 31.5t45 80.5q8 51 -19 82.5t-77 31.5q-46 0 -85 -32t-47 -82q-8 -48 21 -80t75 -32zM811 -34q-339 0 -498.5 183t-107.5 513l128 808
h494l-126 -794q-48 -308 177 -308q110 0 179 73t94 235l126 794h488l-128 -808q-52 -330 -270 -513t-556 -183z" />
    <glyph glyph-name="uring" unicode="&#x16f;" horiz-adv-x="1460" 
d="M926 1240q-123 0 -195.5 81t-53.5 199q19 120 117 201t221 81t196 -81t54 -201q-19 -118 -117.5 -199t-221.5 -81zM953 1408q50 0 87 31.5t45 80.5q8 51 -19 82.5t-77 31.5q-46 0 -85 -32t-47 -82q-8 -48 21 -80t75 -32zM581 -22q-133 0 -237 58q-219 120 -163 478
l101 634h476l-88 -552q-18 -117 11.5 -167.5t102.5 -50.5q76 0 128.5 60t70.5 172l85 538h474l-182 -1148h-450l17 110q-150 -132 -346 -132z" />
    <glyph glyph-name="Uhungarumlaut" unicode="&#x170;" 
d="M1241 1926l-257 -336h-316l163 336h410zM1731 1926l-255 -336h-316l163 336h408zM811 -34q-339 0 -498.5 183t-107.5 513l128 808h494l-126 -794q-48 -308 177 -308q110 0 179 73t94 235l126 794h488l-128 -808q-52 -330 -270 -513t-556 -183z" />
    <glyph glyph-name="uhungarumlaut" unicode="&#x171;" horiz-adv-x="1460" 
d="M1101 1610l-257 -336h-316l163 336h410zM1591 1610l-255 -336h-316l163 336h408zM581 -22q-133 0 -237 58q-219 120 -163 478l101 634h476l-88 -552q-18 -117 11.5 -167.5t102.5 -50.5q76 0 128.5 60t70.5 172l85 538h474l-182 -1148h-450l17 110q-150 -132 -346 -132z
" />
    <glyph glyph-name="Uogonek" unicode="&#x172;" 
d="M810 -504q-156 0 -232 69t-57 189q11 73 65 144q35 46 78 78q-265 39 -385 217.5t-74 468.5l128 808h494l-126 -794q-48 -308 177 -308q110 0 179 73t94 235l126 794h488l-128 -808q-40 -250 -173.5 -411t-335.5 -237q-115 -41 -187 -82q-126 -67 -137 -136
q-6 -38 18 -62t80 -24q63 0 129 30l25 -196q-42 -21 -110 -34.5t-136 -13.5z" />
    <glyph glyph-name="uogonek" unicode="&#x173;" horiz-adv-x="1512" 
d="M1315 -260l25 -196q-42 -21 -109.5 -34.5t-134.5 -13.5q-156 0 -233 69.5t-58 188.5q11 73 65 144q42 58 112 102h-72l17 110q-150 -132 -346 -132q-133 0 -237 58q-219 120 -163 478l101 634h476l-88 -552q-18 -117 11.5 -167.5t102.5 -50.5q76 0 128.5 60t70.5 172
l85 538h474l-182 -1148q-129 -53 -196 -101t-76 -103q-6 -38 18 -62t80 -24q63 0 129 30z" />
    <glyph glyph-name="Wcircumflex" unicode="&#x174;" horiz-adv-x="2690" 
d="M1621 1752l-201 -162h-294l321 336h404l215 -336h-294zM1474 786l-374 -786h-530l-237 1470h510l123 -836l403 836h456l122 -846l406 846h470l-703 -1470h-532z" />
    <glyph glyph-name="wcircumflex" unicode="&#x175;" horiz-adv-x="2276" 
d="M1365 1436l-201 -162h-294l321 336h404l215 -336h-294zM1226 532l-266 -532h-462l-216 1148h448l102 -606l302 606h404l101 -612l303 612h416l-580 -1148h-462z" />
    <glyph glyph-name="Ycircumflex" unicode="&#x176;" horiz-adv-x="1804" 
d="M1179 1752l-201 -162h-294l321 336h404l215 -336h-294zM1235 534l-85 -534h-496l86 540l-407 930h522l219 -508l383 508h480z" />
    <glyph glyph-name="ycircumflex" unicode="&#x177;" horiz-adv-x="1616" 
d="M1017 1436l-201 -162h-294l321 336h404l215 -336h-294zM1698 1148l-944 -1676h-462l287 522l-297 1154h488l141 -614l337 614h450z" />
    <glyph glyph-name="Ydieresis" unicode="&#x178;" horiz-adv-x="1804" 
d="M917 1574q-81 0 -126.5 51.5t-32.5 132.5q13 83 75 135.5t143 52.5q82 0 127.5 -52.5t32.5 -135.5q-13 -82 -75 -133t-144 -51zM1385 1574q-82 0 -128 51t-33 133q13 83 75.5 135.5t144.5 52.5q81 0 126 -52.5t32 -135.5q-13 -81 -74.5 -132.5t-142.5 -51.5zM1235 534
l-85 -534h-496l86 540l-407 930h522l219 -508l383 508h480z" />
    <glyph glyph-name="Zacute" unicode="&#x179;" horiz-adv-x="1550" 
d="M1589 1926l-467 -336h-314l329 336h452zM1511 384l-61 -384h-1350l48 304l796 782h-652l61 384h1296l-48 -304l-796 -782h706z" />
    <glyph glyph-name="zacute" unicode="&#x17a;" horiz-adv-x="1296" 
d="M1407 1610l-467 -336h-314l329 336h452zM1251 346l-55 -346h-1096l43 274l558 528h-458l55 346h1056l-43 -272l-558 -530h498z" />
    <glyph glyph-name="Zdotaccent" unicode="&#x17b;" horiz-adv-x="1550" 
d="M1025 1570q-105 0 -162 67t-40 173q16 105 94 171.5t183 66.5t162 -66.5t41 -171.5q-17 -106 -95 -173t-183 -67zM1511 384l-61 -384h-1350l48 304l796 782h-652l61 384h1296l-48 -304l-796 -782h706z" />
    <glyph glyph-name="zdotaccent" unicode="&#x17c;" horiz-adv-x="1296" 
d="M843 1254q-105 0 -162 67t-40 173q16 105 94 171.5t183 66.5t162 -66.5t41 -171.5q-17 -106 -95 -173t-183 -67zM1251 346l-55 -346h-1096l43 274l558 528h-458l55 346h1056l-43 -272l-558 -530h498z" />
    <glyph glyph-name="Zcaron" unicode="&#x17d;" horiz-adv-x="1550" 
d="M1551 1926l-321 -336h-404l-215 336h294l151 -160l201 160h294zM1511 384l-61 -384h-1350l48 304l796 782h-652l61 384h1296l-48 -304l-796 -782h706z" />
    <glyph glyph-name="zcaron" unicode="&#x17e;" horiz-adv-x="1296" 
d="M1369 1610l-321 -336h-404l-215 336h294l151 -160l201 160h294zM1251 346l-55 -346h-1096l43 274l558 528h-458l55 346h1056l-43 -272l-558 -530h498z" />
    <glyph glyph-name="longs" unicode="&#x17f;" horiz-adv-x="1150" 
d="M904 1088l-172 -1088h-476l117 740h-156l55 346h156l1 6q36 225 192 356.5t399 131.5q181 0 271 -58l-164 -330q-53 28 -104 28t-79.5 -31.5t-39.5 -100.5z" />
    <glyph glyph-name="florin" unicode="&#x192;" horiz-adv-x="986" 
d="M-12 -428q-177 0 -277 56l206 330q48 -28 100 -28q46 0 82.5 33.5t54.5 100.5l189 676h-158l97 346h160l1 6q63 227 234 357.5t415 130.5q181 0 265 -58l-204 -330q-52 28 -102 28q-52 0 -92.5 -33t-58.5 -99v-2h250l-97 -346h-236l-192 -682q-61 -224 -230.5 -355
t-406.5 -131z" />
    <glyph glyph-name="Ohorn" unicode="&#x1a0;" horiz-adv-x="1862" 
d="M925 -34q-175 0 -319 56.5t-241 161.5q-201 224 -148 552q51 329 325 552q272 216 648 216q111 0 204 -12q80 -16 156 -16q64 0 108 32.5t53 89.5q12 71 -23 120l283 94q62 -98 41 -232q-38 -240 -264 -330q32 -37 64 -88q103 -187 65 -426q-54 -332 -324 -552
q-269 -218 -628 -218zM988 368q146 0 254 101t135 267q25 164 -50.5 265t-221.5 101q-145 0 -254 -101t-134 -265q-27 -165 49.5 -266.5t221.5 -101.5z" />
    <glyph glyph-name="ohorn" unicode="&#x1a1;" horiz-adv-x="1536" 
d="M765 -22q-197 0 -332 78q-141 78 -205 212.5t-37 307.5q27 169 135 308q109 135 274 210.5t359 75.5q43 0 127.5 -11t115.5 -11q51 0 83 34.5t41 93.5q12 74 -27 120l285 96q65 -107 45 -234q-18 -112 -89 -200q-36 -47 -103 -90q128 -159 90 -392q-26 -169 -135 -310
q-110 -136 -272.5 -212t-354.5 -76zM823 348q84 0 145 62t77 166t-24.5 164t-125.5 60t-145.5 -60t-76.5 -164q-16 -105 25 -166.5t125 -61.5z" />
    <glyph glyph-name="Uhorn" unicode="&#x1af;" horiz-adv-x="1878" 
d="M2028 1580q-22 -139 -100.5 -234t-203.5 -136l-87 -548q-52 -330 -270 -513t-556 -183q-339 0 -498.5 183t-107.5 513l128 808h494l-126 -794q-48 -308 177 -308q110 0 179 73t94 235l126 794h314q45 0 85 36.5t49 91.5q12 78 -23 120l285 96q62 -101 41 -234z" />
    <glyph glyph-name="uhorn" unicode="&#x1b0;" horiz-adv-x="1666" 
d="M1765 1258q-20 -127 -87.5 -217t-174.5 -137l-143 -904h-450l17 110q-150 -132 -346 -132q-133 0 -237 58q-219 120 -163 478l101 634h476l-88 -552q-18 -117 11.5 -167.5t102.5 -50.5q76 0 128.5 60t70.5 172l85 538h260q45 0 85 36.5t49 91.5q12 78 -23 120l285 96
q62 -101 41 -234z" />
    <glyph glyph-name="Gcaron" unicode="&#x1e6;" horiz-adv-x="1704" 
d="M1705 1928l-321 -336h-404l-215 336h294l151 -160l201 160h294zM917 -34q-176 0 -317 55.5t-237 158.5q-200 221 -146 556q26 168 108.5 308.5t212.5 245.5q271 214 632 214q217 0 377 -73t250 -211l-360 -280q-113 162 -304 162q-164 0 -277 -98.5t-139 -267.5
q-26 -165 54 -266.5t239 -101.5q97 0 186 36l17 106h-200l56 358h630l-113 -714q-146 -89 -325 -138.5t-344 -49.5z" />
    <glyph glyph-name="gcaron" unicode="&#x1e7;" horiz-adv-x="1544" 
d="M1527 1610l-321 -336h-404l-215 336h294l151 -160l201 160h294zM745 -436q-369 -9 -574 128l213 296q59 -45 163.5 -75t197.5 -33q240 6 331 186q-146 -64 -316 -64q-208 0 -322 74l-24 14q-129 84 -187 213.5t-33 288.5q25 161 136 304q109 133 271 206.5t345 73.5
q170 0 301 -68q3 -2 10.5 -5t10.5 -5l8 52h350l-143 -904q-49 -309 -241.5 -487.5t-496.5 -194.5zM863 362q119 0 206.5 63t103.5 163q16 102 -50 163t-188 61q-119 0 -208.5 -62t-105.5 -162q-16 -99 53.5 -162.5t188.5 -63.5z" />
    <glyph glyph-name="Aringacute" unicode="&#x1fa;" horiz-adv-x="1972" 
d="M1233 1562q-123 0 -195.5 81t-53.5 199q19 120 117 201t221 81q47 0 94 -14l228 202l201 -170l-286 -168q23 -62 13 -132q-19 -118 -117.5 -199t-221.5 -81zM1260 1730q50 0 87 31.5t45 80.5q8 51 -19 82.5t-77 31.5q-46 0 -85 -32t-47 -82q-8 -48 21 -80t75 -32z
M768 300l-164 -300h-504l875 1470h488l409 -1470h-512l-68 300h-524zM1212 658l-74 324l-178 -324h252z" />
    <glyph glyph-name="aringacute" unicode="&#x1fb;" horiz-adv-x="1404" 
d="M922 1240q-123 0 -195.5 81t-53.5 199q19 120 117 201t221 81q47 0 94 -14l228 202l201 -170l-286 -168q23 -62 13 -132q-19 -118 -117.5 -199t-221.5 -81zM949 1408q50 0 87 31.5t45 80.5q8 51 -19 82.5t-77 31.5q-46 0 -85 -32t-47 -82q-8 -48 21 -80t75 -32zM637 -6
q-150 0 -263 44q-119 48 -176 136t-39 200q15 96 92 188q156 186 531 186h212q4 56 -43 94t-108 38q-176 0 -225 -94l-300 164q86 114 234 174t340 60q281 0 420.5 -126t103.5 -350l-112 -706h-374l7 44q-136 -52 -300 -52zM709 286q189 0 280 126l8 48h-256
q-106 0 -151.5 -20t-51.5 -62q-7 -44 36 -68t135 -24z" />
    <glyph glyph-name="AEacute" unicode="&#x1fc;" horiz-adv-x="2518" 
d="M2253 1926l-467 -336h-314l329 336h452zM802 300l-198 -300h-504l1009 1470h1516l-59 -374h-708l-28 -172h622l-56 -356h-622l-31 -194h734l-59 -374h-1222l48 300h-442zM1370 1096h-48l-288 -438h266z" />
    <glyph glyph-name="aeacute" unicode="&#x1fd;" horiz-adv-x="2214" 
d="M1819 1610l-467 -336h-314l329 336h452zM617 -22q-242 0 -365 102t-96 272q17 105 87 182q140 154 492 154h188q-5 128 -192 128q-82 0 -164.5 -23.5t-145.5 -66.5l-102 314q110 62 253 96t283 34q266 0 398 -126q191 126 422 126q255 0 410 -152q164 -164 121 -438
q-11 -72 -27 -120h-796q27 -130 205 -130q125 0 256 84l208 -250q-209 -186 -525 -186q-130 0 -241 36q-139 45 -218 138q-15 -17 -40 -38q-160 -136 -411 -136zM1409 688h360q-2 74 -42.5 116t-110.5 42q-72 0 -127 -42t-80 -116zM716 264q68 0 113 42t56 114l6 40h-118
q-144 0 -159 -96q-8 -46 18.5 -73t83.5 -27z" />
    <glyph glyph-name="Oslashacute" unicode="&#x1fe;" horiz-adv-x="1860" 
d="M962 1590l329 336h452l-467 -336h-314zM1694 1324l34 -36q201 -220 149 -552q-54 -332 -324 -552q-129 -105 -289.5 -161.5t-336.5 -56.5q-199 0 -351 70l-159 -184h-272l256 296l-36 36q-201 224 -148 552q51 328 323 552q130 104 291 160t337 56q195 0 351 -68l157 182
h272zM717 736q-18 -114 15 -206l482 554q-48 18 -109 18q-145 0 -254 -101t-134 -265zM988 368q146 0 254 101t135 267q18 114 -16 204l-482 -554q48 -18 109 -18z" />
    <glyph glyph-name="oslashacute" unicode="&#x1ff;" horiz-adv-x="1536" 
d="M738 1274l329 336h452l-467 -336h-314zM1327 1282h200l-181 -224q111 -80 158.5 -204.5t22.5 -277.5q-27 -172 -133 -310q-108 -135 -272 -211.5t-357 -76.5q-142 0 -256 42l-134 -168h-200l196 244q-110 80 -157 203.5t-23 276.5q27 169 135 308q109 135 271.5 210.5
t355.5 75.5q138 0 252 -40zM673 576q-8 -52 -1 -106l264 326q-28 4 -41 4q-85 0 -145.5 -60t-76.5 -164zM823 348q84 0 145 62t77 166q10 57 -1 108l-266 -330q19 -6 45 -6z" />
    <glyph glyph-name="circumflex" unicode="&#x2c6;" horiz-adv-x="1520" 
d="M987 1436l-201 -162h-294l321 336h404l215 -336h-294z" />
    <glyph glyph-name="caron" unicode="&#x2c7;" horiz-adv-x="1520" 
d="M1485 1610l-321 -336h-404l-215 336h294l151 -160l201 160h294z" />
    <glyph glyph-name="breve" unicode="&#x2d8;" horiz-adv-x="1480" 
d="M939 1254q-191 0 -296 96t-86 260h282q-4 -57 33.5 -92.5t102.5 -35.5t114 35.5t62 92.5h282q-33 -164 -168.5 -260t-325.5 -96z" />
    <glyph glyph-name="dotaccent" unicode="&#x2d9;" horiz-adv-x="1532" 
d="M965 1254q-105 0 -162 67t-40 173q16 105 94 171.5t183 66.5t162 -66.5t41 -171.5q-17 -106 -95 -173t-183 -67z" />
    <glyph glyph-name="ring" unicode="&#x2da;" horiz-adv-x="1358" 
d="M874 1240q-123 0 -195.5 81t-53.5 199q19 120 117 201t221 81t196 -81t54 -201q-19 -118 -117.5 -199t-221.5 -81zM901 1408q50 0 87 31.5t45 80.5q8 51 -19 82.5t-77 31.5q-46 0 -85 -32t-47 -82q-8 -48 21 -80t75 -32z" />
    <glyph glyph-name="ogonek" unicode="&#x2db;" horiz-adv-x="1382" 
d="M526 -504q-156 0 -233 69.5t-58 188.5q11 73 65 144q106 138 340 204l150 -102q-129 -53 -196 -101t-76 -103q-6 -38 18 -62t80 -24q63 0 129 30l25 -196q-42 -21 -109.5 -34.5t-134.5 -13.5z" />
    <glyph glyph-name="tilde" unicode="&#x2dc;" horiz-adv-x="1508" 
d="M1123 1254q-45 0 -90.5 19.5t-75.5 42.5t-64.5 42.5t-60.5 19.5q-40 0 -69 -27t-43 -77h-224q31 168 123 266t224 98q45 0 90.5 -19.5t76 -42.5t65 -42.5t59.5 -19.5q43 0 73 26t38 70h224q-27 -161 -120.5 -258.5t-225.5 -97.5z" />
    <glyph glyph-name="hungarumlaut" unicode="&#x2dd;" horiz-adv-x="1574" 
d="M1181 1610l-257 -336h-316l163 336h410zM1671 1610l-255 -336h-316l163 336h408z" />
    <glyph glyph-name="gravecomb" unicode="&#x300;" horiz-adv-x="0" 
d="M-171 1610l223 -336h-314l-361 336h452z" />
    <glyph glyph-name="acutecomb" unicode="&#x301;" horiz-adv-x="0" 
d="M105 1610l-467 -336h-314l329 336h452z" />
    <glyph glyph-name="tildecomb" unicode="&#x303;" horiz-adv-x="0" 
d="M-241 1254q-45 0 -90.5 19.5t-75.5 42.5t-64.5 42.5t-60.5 19.5q-40 0 -69 -27t-43 -77h-224q31 168 123 266t224 98q45 0 90.5 -19.5t76 -42.5t65 -42.5t59.5 -19.5q43 0 73 26t38 70h224q-27 -161 -120.5 -258.5t-225.5 -97.5z" />
    <glyph glyph-name="hookabovecomb" unicode="&#x309;" horiz-adv-x="0" 
d="M821 1254l-121 136q105 48 114 114q6 37 -14.5 58.5t-60.5 21.5q-56 0 -127 -42l-68 176q125 84 283 84q132 0 203 -72t53 -186q-16 -100 -81 -170.5t-181 -119.5z" />
    <glyph glyph-name="dotbelowcomb" unicode="&#x323;" horiz-adv-x="0" 
d="M469 -474q-82 0 -127 49.5t-32 132.5t74 134.5t143 51.5t128 -51.5t33 -134.5t-74.5 -132.5t-144.5 -49.5z" />
    <glyph glyph-name="pi" unicode="&#x3c0;" horiz-adv-x="1470" 
d="M950 822l-214 -822h-390l214 822h-26q-40 0 -68 -24t-33 -62q-8 -49 17 -132l-341 -108q-52 177 -30 318q15 97 77 174q64 76 159 118t207 42h1168l-52 -326h-222l-130 -822h-390l130 822h-76z" />
    <glyph glyph-name="Wgrave" unicode="&#x1e80;" horiz-adv-x="2690" 
d="M1593 1926l223 -336h-314l-361 336h452zM1474 786l-374 -786h-530l-237 1470h510l123 -836l403 836h456l122 -846l406 846h470l-703 -1470h-532z" />
    <glyph glyph-name="wgrave" unicode="&#x1e81;" horiz-adv-x="2276" 
d="M1337 1610l223 -336h-314l-361 336h452zM1226 532l-266 -532h-462l-216 1148h448l102 -606l302 606h404l101 -612l303 612h416l-580 -1148h-462z" />
    <glyph glyph-name="Wacute" unicode="&#x1e82;" horiz-adv-x="2690" 
d="M2157 1926l-467 -336h-314l329 336h452zM1474 786l-374 -786h-530l-237 1470h510l123 -836l403 836h456l122 -846l406 846h470l-703 -1470h-532z" />
    <glyph glyph-name="wacute" unicode="&#x1e83;" horiz-adv-x="2276" 
d="M1901 1610l-467 -336h-314l329 336h452zM1226 532l-266 -532h-462l-216 1148h448l102 -606l302 606h404l101 -612l303 612h416l-580 -1148h-462z" />
    <glyph glyph-name="Wdieresis" unicode="&#x1e84;" horiz-adv-x="2690" 
d="M1359 1574q-81 0 -126.5 51.5t-32.5 132.5q13 83 75 135.5t143 52.5q82 0 127.5 -52.5t32.5 -135.5q-13 -82 -75 -133t-144 -51zM1827 1574q-82 0 -128 51t-33 133q13 83 75.5 135.5t144.5 52.5q81 0 126 -52.5t32 -135.5q-13 -81 -74.5 -132.5t-142.5 -51.5zM1474 786
l-374 -786h-530l-237 1470h510l123 -836l403 836h456l122 -846l406 846h470l-703 -1470h-532z" />
    <glyph glyph-name="wdieresis" unicode="&#x1e85;" horiz-adv-x="2276" 
d="M1103 1258q-81 0 -126.5 51.5t-32.5 132.5q13 83 75 135.5t143 52.5q82 0 127.5 -52.5t32.5 -135.5q-13 -82 -75 -133t-144 -51zM1571 1258q-82 0 -128 51t-33 133q13 83 75.5 135.5t144.5 52.5q81 0 126 -52.5t32 -135.5q-13 -81 -74.5 -132.5t-142.5 -51.5zM1226 532
l-266 -532h-462l-216 1148h448l102 -606l302 606h404l101 -612l303 612h416l-580 -1148h-462z" />
    <glyph glyph-name="Ygrave" unicode="&#x1ef2;" horiz-adv-x="1804" 
d="M1151 1926l223 -336h-314l-361 336h452zM1235 534l-85 -534h-496l86 540l-407 930h522l219 -508l383 508h480z" />
    <glyph glyph-name="ygrave" unicode="&#x1ef3;" horiz-adv-x="1616" 
d="M989 1610l223 -336h-314l-361 336h452zM1698 1148l-944 -1676h-462l287 522l-297 1154h488l141 -614l337 614h450z" />
    <glyph glyph-name="uni2010" unicode="&#x2010;" horiz-adv-x="720" 
d="M798 786l-56 -358h-630l56 358h630z" />
    <glyph glyph-name="figuredash" unicode="&#x2012;" horiz-adv-x="1412" 
d="M1498 882l-43 -272h-1302l43 272h1302z" />
    <glyph glyph-name="endash" unicode="&#x2013;" horiz-adv-x="950" 
d="M1118 744l-44 -274h-1050l44 274h1050z" />
    <glyph glyph-name="emdash" unicode="&#x2014;" horiz-adv-x="2000" 
d="M2168 744l-44 -274h-2100l44 274h2100z" />
    <glyph glyph-name="uni2015" unicode="&#x2015;" horiz-adv-x="2000" 
d="M2168 744l-44 -274h-2100l44 274h2100z" />
    <glyph glyph-name="quoteleft" unicode="&#x2018;" horiz-adv-x="768" 
d="M496 702q-121 0 -187.5 74t-47.5 194q9 56 36.5 116.5t88.5 159.5l196 312h294l-160 -354q59 -31 85.5 -90.5t13.5 -143.5q-19 -120 -109 -194t-210 -74z" />
    <glyph glyph-name="quoteright" unicode="&#x2019;" horiz-adv-x="768" 
d="M743 1036l-196 -314h-294l163 356q-61 32 -88 92t-14 140q20 123 109.5 196.5t211.5 73.5q121 0 187 -74t46 -196q-8 -56 -35.5 -117t-89.5 -157z" />
    <glyph glyph-name="quotesinglbase" unicode="&#x201a;" horiz-adv-x="768" 
d="M575 -24l-195 -312h-294l162 354q-60 32 -87 92.5t-14 141.5q19 122 108.5 195t211.5 73q121 0 187 -73t47 -195q-9 -56 -36.5 -117t-89.5 -159z" />
    <glyph glyph-name="quotedblleft" unicode="&#x201c;" horiz-adv-x="1378" 
d="M496 702q-121 0 -187.5 74t-47.5 194q9 56 36.5 116.5t88.5 159.5l196 312h294l-160 -354q59 -31 85.5 -90.5t13.5 -143.5q-19 -120 -109 -194t-210 -74zM1106 702q-121 0 -187.5 74t-47.5 194q9 56 36.5 116.5t88.5 159.5l196 312h294l-160 -354q59 -31 85.5 -90.5
t13.5 -143.5q-19 -120 -109 -194t-210 -74z" />
    <glyph glyph-name="quotedblright" unicode="&#x201d;" horiz-adv-x="1378" 
d="M743 1036l-196 -314h-294l163 356q-61 32 -88 92t-14 140q20 123 109.5 196.5t211.5 73.5q121 0 187 -74t46 -196q-8 -56 -35.5 -117t-89.5 -157zM1353 1036l-196 -314h-294l163 356q-61 32 -88 92t-14 140q20 123 109.5 196.5t211.5 73.5q121 0 187 -74t46 -196
q-8 -56 -35.5 -117t-89.5 -157z" />
    <glyph glyph-name="quotedblbase" unicode="&#x201e;" horiz-adv-x="1378" 
d="M575 -24l-195 -312h-294l162 354q-60 32 -87 92.5t-14 141.5q19 122 108.5 195t211.5 73q121 0 187 -73t47 -195q-9 -56 -36.5 -117t-89.5 -159zM1185 -24l-195 -312h-294l162 354q-60 32 -87 92.5t-14 141.5q19 122 108.5 195t211.5 73q121 0 187 -73t47 -195
q-9 -56 -36.5 -117t-89.5 -159z" />
    <glyph glyph-name="dagger" unicode="&#x2020;" horiz-adv-x="1438" 
d="M1054 686l-174 -1094h-474l174 1094h-360l59 374h360l65 410h474l-65 -410h362l-59 -374h-362z" />
    <glyph glyph-name="daggerdbl" unicode="&#x2021;" horiz-adv-x="1152" 
d="M811 0l-65 -408h-474l65 408h-360l59 374h360l50 314h-360l59 374h360l65 408h474l-65 -408h362l-59 -374h-362l-50 -314h362l-59 -374h-362z" />
    <glyph glyph-name="bullet" unicode="&#x2022;" horiz-adv-x="1220" 
d="M663 250q-99 0 -167 46q-71 44 -104.5 124.5t-17.5 177.5q15 100 74 180q59 77 144 120.5t180 43.5q100 0 169 -44q74 -44 108 -122.5t19 -177.5q-16 -99 -76 -178q-60 -81 -146.5 -125.5t-182.5 -44.5z" />
    <glyph glyph-name="ellipsis" unicode="&#x2026;" horiz-adv-x="2094" 
d="M407 -22q-119 0 -186.5 77.5t-48.5 196.5q19 120 109.5 194t210.5 74q119 0 186 -74t48 -194q-19 -119 -110 -196.5t-209 -77.5zM1055 -22q-119 0 -186.5 77.5t-48.5 196.5q19 120 109.5 194t210.5 74q119 0 186 -74t48 -194q-19 -119 -110 -196.5t-209 -77.5zM1705 -22
q-119 0 -186.5 77.5t-48.5 196.5q19 120 109.5 194t210.5 74q119 0 186 -74t48 -194q-19 -119 -110 -196.5t-209 -77.5z" />
    <glyph glyph-name="perthousand" unicode="&#x2030;" horiz-adv-x="2892" 
d="M595 672q-109 0 -192 48q-82 49 -117.5 141.5t-15.5 220.5q22 136 88 222q65 91 160 139.5t207 48.5q106 0 192 -50q83 -49 118.5 -140.5t14.5 -219.5q-20 -132 -85 -224q-65 -91 -160.5 -138.5t-209.5 -47.5zM1940 1470l-1237 -1470h-354l1237 1470h354zM631 898
q35 0 73 40q31 37 48 144q17 106 -3 144q-23 38 -60 38q-36 0 -68 -38q-36 -39 -53 -144q-16 -104 8 -144q20 -40 55 -40zM1564 -22q-115 0 -193 50q-83 48 -119 140t-16 220q21 132 90 224q64 90 159 138t208 48q111 0 193 -48q81 -51 116.5 -143t15.5 -219
q-20 -134 -85 -222q-66 -92 -161.5 -140t-207.5 -48zM2398 -22q-115 0 -193 50q-83 48 -119 140t-16 220q21 132 90 224q64 90 159 138t208 48q111 0 191 -48q83 -51 118.5 -143t15.5 -219q-20 -134 -85 -222q-66 -92 -161.5 -140t-207.5 -48zM1600 206q39 0 70 40
q34 34 50 142q18 105 -4 146q-24 38 -58 38t-70 -38q-34 -41 -52 -146q-15 -105 6 -142q23 -40 58 -40zM2434 206q39 0 70 40q34 34 50 142q18 105 -4 146q-24 38 -58 38t-70 -38q-37 -45 -54 -146q-15 -102 8 -142t58 -40z" />
    <glyph glyph-name="minute" unicode="&#x2032;" horiz-adv-x="638" 
d="M751 1470l-132 -630h-336l70 630h398z" />
    <glyph glyph-name="second" unicode="&#x2033;" horiz-adv-x="1132" 
d="M751 1470l-132 -630h-336l70 630h398zM1245 1470l-132 -630h-336l68 630h400z" />
    <glyph glyph-name="guilsinglleft" unicode="&#x2039;" horiz-adv-x="910" 
d="M614 576l212 -420h-420l-224 420l357 420h420z" />
    <glyph glyph-name="guilsinglright" unicode="&#x203a;" horiz-adv-x="910" 
d="M904 576l-356 -420h-420l344 420l-211 420h420z" />
    <glyph glyph-name="fraction" unicode="&#x2044;" horiz-adv-x="671" 
d="M1248 1470l-1237 -1470h-354l1237 1470h354z" />
    <glyph glyph-name="colonmonetary" unicode="&#x20a1;" horiz-adv-x="1462" 
d="M568 2l-106 -254h-274l153 370q-21 15 -68 62q-200 221 -146 556q52 333 321 554q202 160 458 202l97 230h274l-92 -224q43 -4 61 -10l97 234h274l-133 -320q123 -72 198 -192l-359 -280l-19 32l-232 -560q92 35 190 138l269 -280q-120 -129 -282 -204t-354 -88l-93 -220
h-274l98 240q-45 10 -58 14zM791 388l295 710q-40 4 -55 4h-10l-283 -688q30 -19 53 -26z" />
    <glyph glyph-name="franc" unicode="&#x20a3;" horiz-adv-x="1440" 
d="M718 126l-20 -126h-496l20 126h-188l37 236h188l176 1108h1194l-59 -374h-698l-40 -252h612l-60 -374h-612l-17 -108h440l-37 -236h-440z" />
    <glyph glyph-name="lira" unicode="&#x20a4;" horiz-adv-x="1376" 
d="M1395 374l-59 -374h-1322l59 374h188l16 98h-188l37 236h188l9 54h-188l37 236h200q41 114 109 206q228 300 709 300q266 0 422 -90l-201 -374q-106 62 -242 62q-190 0 -275 -104h402l-37 -236h-440l-9 -54h440l-37 -236h-440l-16 -98h638z" />
    <glyph glyph-name="peseta" unicode="&#x20a7;" horiz-adv-x="3822" 
d="M783 362l-57 -362h-496l233 1470h744q201 0 345 -68q140 -68 202 -193t35 -293q-27 -170 -128 -294q-104 -126 -265 -193t-365 -67h-248zM2337 -22q-243 0 -354.5 117t-73.5 351l54 342h-158l55 346h158l43 276h474l-43 -276h236l-55 -346h-236l-54 -338q-8 -51 15 -81.5
t66 -30.5q61 0 113 32l61 -330q-118 -62 -301 -62zM3197 -22q-144 0 -282.5 32t-219.5 82l179 314q74 -49 177.5 -76.5t206.5 -27.5q91 0 120 16q33 15 37 40q2 15 -13 26.5t-45 18t-58.5 10.5t-69.5 8t-61 7q-69 9 -122 23t-103 40.5t-79.5 63.5t-42.5 93.5t-2 129.5
q18 107 99 196q83 92 223 144t328 52q132 0 254 -24t199 -70l-179 -314q-137 84 -319 84q-87 0 -125 -16q-33 -14 -38 -38q-2 -15 11.5 -26.5t47 -19t57.5 -11t71.5 -8.5t61.5 -7q67 -10 119.5 -24.5t101.5 -41t78 -63.5t42 -94t1 -129q-16 -104 -94 -192
q-82 -93 -224 -145.5t-337 -52.5zM1114 1088h-216l-54 -344h216q100 0 158 45t71 127q13 81 -31 126.5t-144 45.5z" />
    <glyph glyph-name="dong" unicode="&#x20ab;" horiz-adv-x="1442" 
d="M617 -22q-146 0 -265 74q-119 76 -172 210t-25 314q30 183 127 318q97 132 234.5 204t288.5 72q149 0 236 -64q15 -10 39 -34l24 156h-316l37 232h316l16 98h476l-16 -98h106l-37 -232h-106l-194 -1228h-452l15 94q-122 -116 -332 -116zM787 348q85 0 146.5 62t77.5 166
t-25.5 164t-126.5 60q-84 0 -145 -60t-77 -164t25.5 -166t124.5 -62zM1373 -80l-36 -230h-1276l36 230h1276z" />
    <glyph glyph-name="Euro" unicode="&#x20ac;" horiz-adv-x="1654" 
d="M1017 -34q-175 0 -316.5 55.5t-235.5 158.5q-113 122 -146 292h-230l37 236h188l9 54h-188l37 236h230q88 169 238 292q127 103 286 158.5t334 55.5q214 0 370 -75.5t242 -218.5l-357 -280q-106 172 -294 172q-156 0 -271 -104h360l-37 -236h-450l-9 -54h450l-37 -236
h-360q80 -104 237 -104q187 0 350 172l267 -280q-131 -141 -311.5 -217.5t-392.5 -76.5z" />
    <glyph glyph-name="trademark" unicode="&#x2122;" horiz-adv-x="2158" 
d="M819 1230l-100 -632h-336l100 632h-272l38 240h880l-38 -240h-272zM1442 958l-57 -360h-306l138 872h276l229 -450l363 450h272l-132 -872h-306l55 372l-237 -296h-148z" />
    <glyph glyph-name="estimated" unicode="&#x212e;" horiz-adv-x="1796" 
d="M897 -6q-167 0 -307.5 57t-239.5 161q-99 102 -141.5 236.5t-18.5 283.5q24 153 109 288.5t217 239.5q132 103 291 159.5t325 56.5q167 0 308.5 -57t241.5 -159q98 -104 139 -239.5t17 -288.5l-3 -16h-1334q-12 0 -13 -8l-64 -404q-3 -16 11 -48q68 -105 194 -161.5
t277 -56.5q155 0 304.5 66t264.5 178h120q-133 -131 -319.5 -209.5t-378.5 -78.5zM508 756h1022q13 0 16 12l64 406q5 27 -16 48q-83 99 -203 154.5t-264 55.5q-143 0 -281.5 -57t-256.5 -159q-24 -20 -28 -50l-63 -398q-3 -12 10 -12z" />
    <glyph glyph-name="arrowleft" unicode="&#x2190;" horiz-adv-x="1160" 
d="M644 428l150 -362h-398l-253 520l418 520h398l-267 -364h574l-50 -314h-572z" />
    <glyph glyph-name="arrowup" unicode="&#x2191;" horiz-adv-x="1160" 
d="M864 656l-97 -614h-360l97 614l-371 -196l54 342l573 336l467 -336l-54 -342z" />
    <glyph glyph-name="arrowright" unicode="&#x2192;" horiz-adv-x="1160" 
d="M1202 584l-418 -520h-398l268 364h-572l50 314h570l-151 362h398z" />
    <glyph glyph-name="arrowdown" unicode="&#x2193;" horiz-adv-x="1160" 
d="M1212 710l-54 -342l-573 -336l-467 336l54 342l309 -196l98 614h360l-98 -614z" />
    <glyph glyph-name="arrowboth" unicode="&#x2194;" horiz-adv-x="1896" 
d="M648 428l150 -362h-396l-253 520l418 520h396l-267 -364h740l-153 364h396l254 -520l-419 -520h-396l266 362h-736z" />
    <glyph glyph-name="arrowupdn" unicode="&#x2195;" horiz-adv-x="1160" 
d="M1204 658l-54 -342l-573 -338l-467 338l54 342l309 -196l90 570l-371 -196l55 342l573 336l467 -336l-55 -342l-309 196l-90 -570z" />
    <glyph glyph-name="partialdiff" unicode="&#x2202;" horiz-adv-x="1630" 
d="M753 -34q-171 0 -296 66q-132 64 -193.5 180t-37.5 268q23 147 109 248q87 106 215.5 165t268.5 59q101 0 182 -26q63 -20 112 -62q10 105 -15 174q-57 172 -322 172q-168 0 -283 -44l4 384q160 42 347 42q273 0 463 -98q377 -210 285 -784q-38 -241 -153 -402
q-117 -166 -292.5 -254t-393.5 -88zM843 308q69 0 122 41t64 109q10 67 -29.5 109.5t-108.5 42.5t-122.5 -42t-63.5 -110q-11 -67 29 -108.5t109 -41.5z" />
    <glyph glyph-name="emptyset" unicode="&#x2205;" horiz-adv-x="1323" 
d="M390 322l-207 -168l-96 124l204 166q-72 132 -47 296q23 146 116 264q92 122 225.5 191t283.5 69q155 0 263 -70q25 -13 47 -32l197 156l94 -124l-190 -152q77 -138 50 -302q-22 -142 -116 -266q-94 -121 -229 -191.5t-282 -70.5q-152 0 -263 72q-35 22 -50 38zM553 656
l367 296q-50 20 -97 20q-96 0 -176 -68t-95 -164q-6 -39 1 -84zM749 504q97 0 176.5 69t94.5 167q7 44 -2 88l-371 -298q42 -26 102 -26z" />
    <glyph glyph-name="product" unicode="&#x220f;" horiz-adv-x="1908" 
d="M894 1062l-233 -1470h-496l298 1878h1448l-298 -1878h-494l233 1470h-458z" />
    <glyph glyph-name="summation" unicode="&#x2211;" horiz-adv-x="1438" 
d="M1402 -24l-61 -384h-1350l49 306l695 636l-462 632l48 304h1296l-61 -384h-638l296 -402l-48 -304l-460 -404h696z" />
    <glyph glyph-name="minus" unicode="&#x2212;" horiz-adv-x="1384" 
d="M1372 914l-57 -358h-1070l57 358h1070z" />
    <glyph glyph-name="radical" unicode="&#x221a;" horiz-adv-x="1766" 
d="M2043 1558l-926 -1966h-490l-155 964h-276l57 358h628l87 -738l639 1382h436z" />
    <glyph glyph-name="infinity" unicode="&#x221e;" horiz-adv-x="2012" 
d="M595 256q-138 0 -240 64q-104 62 -150 170.5t-24 245.5q21 138 105 246q80 109 201 170.5t259 61.5q125 0 207 -34q131 -54 216 -176q103 100 220.5 155t268.5 55q135 0 236 -62q101 -64 146.5 -172t24.5 -244q-22 -136 -103 -246q-82 -111 -200 -172.5t-255 -61.5
q-120 0 -207 36q-139 58 -216 176q-105 -102 -221.5 -157t-267.5 -55zM679 576q123 0 260 160q-44 76 -92.5 117t-116.5 41q-63 0 -114 -45.5t-61 -112.5q-11 -67 25 -113.5t99 -46.5zM1515 576q66 0 115.5 45.5t60.5 114.5q11 68 -23.5 113t-101.5 45q-124 0 -257 -158
q41 -78 88.5 -119t117.5 -41z" />
    <glyph glyph-name="integral" unicode="&#x222b;" horiz-adv-x="852" 
d="M94 -428q-180 0 -283 56l164 330q48 -28 104 -28q44 0 76 33.5t43 100.5l165 1040q36 224 190 356t389 132q189 0 283 -56l-166 -330q-44 26 -102 26q-44 0 -76 -33t-43 -99l-165 -1042q-36 -224 -190 -355t-389 -131z" />
    <glyph glyph-name="approxequal" unicode="&#x2248;" horiz-adv-x="1370" 
d="M1013 762q-44 0 -87.5 16.5t-77.5 39.5t-65.5 46t-63.5 39.5t-59 16.5q-45 0 -79 -34.5t-48 -97.5h-290q38 216 156.5 340t276.5 124q54 0 108.5 -24.5t91.5 -54.5t79 -54.5t74 -24.5q46 0 81 35t46 97h290q-35 -215 -154.5 -339.5t-278.5 -124.5zM927 218
q-44 0 -87.5 16.5t-77.5 39.5t-65.5 46t-63.5 39.5t-59 16.5q-45 0 -79 -34.5t-48 -97.5h-290q38 216 156.5 340t276.5 124q54 0 108.5 -24.5t91.5 -54.5t79 -54.5t74 -24.5q46 0 81 35t46 97h290q-35 -215 -154.5 -339.5t-278.5 -124.5z" />
    <glyph glyph-name="notequal" unicode="&#x2260;" horiz-adv-x="1497" 
d="M754 284l-141 -210h-378l141 210h-118l56 356h298l126 190h-394l57 356h574l141 210h378l-141 -210h118l-57 -356h-298l-126 -190h394l-56 -356h-574z" />
    <glyph glyph-name="lessequal" unicode="&#x2264;" horiz-adv-x="1401" 
d="M829 946l527 -184l-56 -352l-1014 352l58 366l1125 352l-55 -352zM1292 358l-57 -358h-1070l57 358h1070z" />
    <glyph glyph-name="greaterequal" unicode="&#x2265;" horiz-adv-x="1408" 
d="M1418 1128l-58 -366l-1126 -352l56 352l585 184l-527 182l55 352zM1296 358l-57 -358h-1070l57 358h1070z" />
    <glyph glyph-name="uni27E8" unicode="&#x27e8;" horiz-adv-x="758" 
d="M527 576l182 -984h-440l-204 984l516 982h440z" />
    <glyph glyph-name="uni27E9" unicode="&#x27e9;" horiz-adv-x="758" 
d="M877 576l-518 -984h-438l494 984l-182 982h438z" />
    <glyph glyph-name="uniF8FF" unicode="&#xf8ff;" horiz-adv-x="2380" 
d="M1178 -176q-190 0 -363.5 75t-298.5 201t-199.5 300t-74.5 364q0 191 74.5 364.5t200.5 299t299.5 200t363.5 74.5t363.5 -74.5t299.5 -200.5t200.5 -299.5t74.5 -363.5q0 -192 -74.5 -366t-200 -299.5t-299.5 -200t-366 -74.5zM1180 -64q168 0 321 65.5t263.5 176
t176 263.5t65.5 321q0 135 -41.5 261t-117.5 227.5t-177 178t-226.5 118.5t-259.5 43q-169 0 -322.5 -65t-264.5 -175.5t-177 -263t-66 -320.5q0 -169 65 -322.5t175.5 -264.5t263.5 -177t322 -66zM914 294h-2q26 26 40 38q27 24 42 74q61 168 76 214q44 130 96 220v4
q-3 -4 -9 -11t-9 -11q-4 -4 -9.5 -10.5t-8.5 -9.5q-35 -51 -52 -96q-5 -10 -14 -10q-167 6 -296 114l-98 92q-4 4 -7.5 8.5t-7.5 10t-7 9.5l18 -6q84 -34 166 -46q58 -6 120 4q60 14 80 20q1 0 26 10l-27 13.5t-28.5 14.5t-22.5 15t-22 21h30q71 3 126 32q106 65 230 102
q48 15 96 18q8 0 34 1.5t40 0.5q93 -3 148 -56q8 -7 16 -16t17.5 -20.5t14.5 -17.5q-2 -2 -2 -4l-8 4q-76 29 -139.5 6t-104.5 -90q-12 -21 -42 -94q-6 -15 -35 -82.5t-45 -103.5q-50 -104 -108 -172q-42 -51 -110 -96q-76 -58 -196 -92q-1 0 -3 -1t-3 -1zM1476 -342v-72
h-24v72h-8v16h8v14q3 24 34 24h10v-18q-17 3 -20 -8v-12h20v-16h-20zM644 -418q-18 0 -28 13.5t-10 34.5q0 23 12 35.5t30 12.5q13 0 22 -6l6 -8v44h22v-122h-22v14l-6 -10q-12 -8 -26 -8zM912 -316q-12 0 -12 12t12 12q14 0 14 -12t-14 -12zM1758 -400v-16h-14
q-26 0 -26 18v56h-14v16h14v22h24v-22h18v-16h-18v-48q3 -12 16 -10zM758 -418q-19 0 -31.5 12.5t-12.5 35.5q0 21 12.5 34.5t33.5 13.5q19 0 30.5 -13t11.5 -33q0 -4 -2 -8h-62q2 -24 20 -24q17 0 20 16h22q-3 -16 -14.5 -25t-27.5 -9zM850 -418q-34 0 -40 30h24
q3 -14 16 -14q14 0 14 10q0 8 -22 16q-28 7 -28 26q0 12 10 20t26 8q15 0 24.5 -8t9.5 -20h-22q-3 12 -14 12q-12 0 -12 -10q0 -8 22 -14q28 -9 28 -28q0 -28 -36 -28zM986 -450q-41 0 -44 30v2h22v-2q4 -14 22 -14q21 0 24 22v14l-6 -12q-12 -4 -24 -4q-18 0 -29 11.5
t-11 32.5q0 23 12.5 35.5t31.5 12.5q14 0 20 -6l6 -8v12h24v-68q0 -12 -2 -18q0 -40 -46 -40zM1076 -374v-40h-22v90h22v-16l8 12q12 6 22 6q29 0 32 -26q2 -6 2 -16v-50h-26v58q0 18 -16 18q-9 0 -15.5 -9t-6.5 -27zM1198 -418q-21 0 -32.5 13.5t-11.5 34.5t11.5 34.5
t32.5 13.5q22 0 35 -13.5t13 -34.5t-13 -34.5t-35 -13.5zM1380 -418q-11 0 -19.5 7.5t-8.5 20.5q0 30 50 30h4v2v8q0 12 -12 12q-18 0 -18 -16h-22q0 15 11.5 23.5t28.5 8.5q32 0 36 -26v-44v-22h-22l-2 12l-4 -10q-9 -6 -22 -6zM1548 -418q-22 0 -34 13t-12 35t12 35t34 13
t34 -13t12 -35t-12 -35t-34 -13zM1632 -374v-40h-22v90h22v-16l8 12q9 6 22 6q26 0 32 -26v-16v-50h-24v58q-4 18 -16 18q-22 0 -22 -36zM1808 -418q-37 0 -40 30h22q3 -14 18 -14q12 0 12 10q0 5 -3.5 8t-16.5 8q-28 6 -28 26q0 12 9.5 20t24.5 8q31 0 38 -28h-26
q0 12 -14 12q-8 0 -8 -10q0 -9 18 -14q30 -10 30 -28q0 -28 -36 -28zM1936 -418q-19 0 -30.5 12.5t-11.5 35.5q0 22 12.5 35t31.5 13q40 0 40 -34h-22q-3 18 -18 18q-22 0 -22 -32q0 -30 22 -30q15 0 18 16h22q-3 -34 -42 -34zM2036 -418q-23 0 -35.5 13t-12.5 35t12.5 35
t35.5 13q21 0 32.5 -13.5t11.5 -34.5t-11.5 -34.5t-32.5 -13.5zM2118 -368v-46h-22v90h22v-14l8 10q9 6 18 6q21 0 28 -18l8 12q9 6 20 6t19.5 -7t8.5 -15q2 -6 2 -18v-52h-22v46q0 3 -1 7.5t-1 6.5q0 16 -16 16t-16 -30v-46h-22v60q-3 16 -16 16q-18 0 -18 -30zM220 -348
l-14 -66h-26l-30 90h28l14 -72l14 70h28l16 -70l16 72h24l-28 -90h-26zM362 -348l-18 -66h-26l-28 90h26l16 -72l16 70h28l14 -70l16 72h24l-28 -90h-26zM500 -348l-14 -66h-28l-28 90h26l16 -72l14 70h28l16 -70l16 72h24l-28 -90h-26zM924 -324v-90h-22v90h22zM1346 -324
l-34 -90h-28l-32 90h24l22 -74l22 74h26zM652 -400q24 0 24 30v2q0 30 -22 30q-24 0 -24 -32q0 -30 22 -30zM738 -362h40q-3 24 -20 24t-20 -24zM986 -398q24 0 24 28v2q0 30 -24 30q-22 0 -22 -30t22 -30zM1198 -400q24 0 24 30q0 32 -24 32q-22 0 -22 -32q0 -30 22 -30z
M1548 -400q24 0 24 30q0 32 -24 32q-22 0 -22 -32q0 -30 22 -30zM2036 -400q22 0 22 30q0 32 -22 32q-24 0 -24 -32q0 -30 24 -30zM1388 -400q8 0 13 5t5 13v8q-30 3 -30 -16q0 -10 12 -10zM580 -418q-12 0 -12 14t12 14q14 0 14 -14t-14 -14zM1868 -418q-14 0 -14 14t14 14
t14 -14t-14 -14z" />
    <glyph glyph-name="tildecomb_acutecomb" horiz-adv-x="0" 
d="M1264 1932l-395 -274h-314l257 274h452zM871 1254q-46 0 -101.5 26t-101.5 52t-71 26q-36 0 -63.5 -23.5t-38.5 -62.5h-232q24 149 114.5 231.5t225.5 82.5q47 0 103 -26.5t103 -53t71 -26.5q38 0 67.5 26t36.5 60h226q-23 -146 -111 -229t-228 -83z" />
    <glyph glyph-name="_Fontastica" horiz-adv-x="1359" 
d="M306 512v-312h-180q-3 0 -4.5 2t-1.5 4v2v1082h812v-160h-626v-450h626v-168h-626zM1238 1290v-1090h-810v170h626v442h-626v172h626v306h184zM778 34q-35 0 -56 18l12 26q22 -18 44 -18q10 0 12 2q4 0 4 8q0 4 -4 6q-12 8 -20 8q-10 5 -22 8l-5 3q-5 3 -7 7q-6 9 -6 18
q0 19 14.5 29.5t33.5 10.5q24 0 48 -14l-12 -26q-18 12 -36 12q-14 0 -14 -8q0 -10 22 -16q21 -5 22 -6q2 -1 7 -5t7 -5q4 -12 4 -20q0 -38 -48 -38zM288 32q-29 0 -47.5 18t-18.5 46q0 27 18.5 44.5t47.5 17.5q27 0 45.5 -17.5t18.5 -44.5t-18 -45.5t-46 -18.5zM1060 32
q-26 0 -44 18.5t-18 45.5t18.5 44.5t45.5 17.5q28 0 48 -20l-18 -22q-13 16 -30 16q-13 0 -23.5 -10t-10.5 -28q0 -7 6 -16q9 -18 28 -18q16 0 30 14l20 -18q-24 -24 -52 -24zM156 78v-42h-30v120h90v-24h-60v-28h54v-26h-54zM398 108v-72h-30v120h28l56 -72v72h30v-120h-28
zM562 130v-94h-30v94h-38v26h104v-26h-36zM626 56l-8 -20h-32l52 120h32l52 -120h-34l-10 20h-52zM902 130v-94h-34v94h-34v26h102v-26h-34zM980 156v-120h-30v120h30zM1150 56l-8 -20h-32l52 120h32l52 -120h-34l-8 20h-54zM288 60q14 0 23 10.5t9 23.5q0 8 -4 20
q-6 18 -28 18q-15 0 -24.5 -10.5t-9.5 -25.5q0 -14 10 -25t24 -11zM668 80l-14 44l-18 -44h32zM1194 80l-16 44l-18 -44h34z" />
    <glyph glyph-name="_VendorID" horiz-adv-x="1022" 
d="M729 756q-104 0 -168.5 53.5t-53.5 126.5h74q-16 -43 29 -77.5t119 -34.5q62 0 105 26.5t43 65.5q0 68 -156 90q-99 15 -149.5 55t-50.5 99q0 66 58 109t144 43q96 0 158 -51t50 -123h-74q18 40 -24 73t-110 33q-56 0 -94 -24t-38 -58q0 -67 140 -86q106 -15 161 -56
t55 -104q0 -70 -62 -115t-156 -45zM139 1000v-234h-70v536h414v-70h-344v-164h324v-68h-324zM729 126q-102 0 -167.5 53.5t-54.5 128.5h74q-16 -43 29 -77.5t119 -34.5q62 0 105 25.5t43 64.5q0 71 -152 92q-100 15 -152 54.5t-52 99.5q0 66 58.5 109t145.5 43q96 0 157 -51
t49 -123h-74q18 40 -23.5 73t-108.5 33q-56 0 -95 -24t-39 -60q0 -62 138 -84q218 -30 218 -162q0 -69 -62 -114.5t-156 -45.5zM139 370v-232h-70v534h414v-68h-344v-164h324v-70h-324zM255 34q-7 0 -12.5 6.5t-5.5 15.5q0 22 20 22q8 0 10 -2l4 -4v22h10v-58h-10v6l-4 -4
q-4 -4 -12 -4zM649 70v-34h-12v34h-4v6h4v8q0 10 16 10h4v-8q-8 3 -8 -4v-6h8v-6h-8zM383 82q-6 0 -6 6q0 4 6 4t6 -4q0 -6 -6 -6zM781 42v-8h-6q-12 0 -12 10v26h-8v6h8v12h10v-12h8v-6h-8v-24q3 -6 8 -4zM55 66l-6 -30h-12l-14 42h12l8 -34l6 32h14l6 -32l8 34h12l-14 -42
h-12zM123 66l-8 -30h-14l-12 42h12l6 -34l8 32h14l6 -32l8 34h12l-14 -42h-12zM187 66l-6 -30h-14l-12 42h12l6 -34l8 32h14l6 -32l8 34h12l-14 -42h-12zM309 34q-20 0 -20 22t22 22q20 0 20 -22l-2 -2h-30q2 -12 10 -12q7 0 10 8h10q-3 -16 -20 -16zM353 34q-17 0 -20 14
h12q0 -8 8 -8q6 0 6 6q0 3 -10 8q-14 4 -14 12q0 12 18 12q16 0 16 -12h-10q-3 6 -8 6q-4 0 -4 -6q0 -4 10 -6q12 -3 12 -14q0 -12 -16 -12zM387 78v-42h-10v42h10zM417 18q-20 0 -20 14v2h10v-2q0 -6 10 -6q9 0 12 10v6l-4 -4q-2 -2 -10 -2q-20 0 -20 20q0 22 20 22
q8 0 10 -2l4 -4v6h10v-32v-8q0 -20 -22 -20zM459 54v-18h-10v42h10v-8l4 6q4 2 10 2q13 0 16 -12v-6v-24h-12v28q0 8 -8 8q-10 0 -10 -18zM517 34q-22 0 -22 22t22 22t22 -22t-22 -22zM587 78l-16 -42h-14l-14 42h10l12 -34l10 34h12zM603 34q-14 0 -14 12q0 14 24 14h2v2v4
q0 6 -6 6q-8 0 -8 -8h-10q0 14 18 14q15 0 18 -12v-30h-10l-2 4l-2 -4q-4 -2 -10 -2zM681 34q-9 0 -14.5 6.5t-5.5 15.5q0 22 20 22q22 0 22 -22t-22 -22zM721 54v-18h-10v42h10v-8l4 6q4 2 10 2q13 0 16 -12v-6v-24h-12v28q0 8 -8 8q-10 0 -10 -18zM805 34q-17 0 -20 14h12
q0 -8 8 -8q6 0 6 6q0 1 -10 8q-14 4 -14 12q0 12 16 12q15 0 18 -12h-12q0 6 -6 6q-4 0 -4 -6q0 -3 8 -6q14 -3 14 -14q0 -12 -16 -12zM865 34q-20 0 -20 22t22 22q18 0 18 -16h-10q-3 10 -8 10q-12 0 -12 -16q0 -14 12 -14q5 0 8 8h10q-3 -16 -20 -16zM911 34q-22 0 -22 22
t22 22t22 -22t-22 -22zM951 56v-20h-10v42h10v-6l4 4q2 2 8 2q11 0 14 -8l4 6q2 2 8 2q14 0 14 -10v-32h-10v20v8q0 8 -8 8t-8 -16v-20h-10v28q0 8 -8 8t-8 -16zM259 42q12 0 12 14v2q0 14 -12 14q-10 0 -10 -16q0 -14 10 -14zM299 60h20q-4 12 -10 12q-7 0 -10 -12zM417 42
q12 0 12 14v2q0 14 -12 14q-10 0 -10 -16q0 -14 10 -14zM517 42q10 0 10 14q0 16 -10 16t-10 -16q0 -14 10 -14zM681 42q12 0 12 14q0 16 -12 16q-10 0 -10 -16q0 -14 10 -14zM911 42q12 0 12 14q0 16 -12 16q-10 0 -10 -16q0 -14 10 -14zM607 42q8 0 8 8v4q-14 4 -14 -6
q0 -6 6 -6zM225 34q-6 0 -6 6q0 8 6 8q8 0 8 -8q0 -6 -8 -6zM833 34q-6 0 -6 6q0 8 6 8t6 -8q0 -6 -6 -6z" />
    <glyph glyph-name="_Designova" horiz-adv-x="1556" 
d="M776 28q-127 0 -242.5 50t-199.5 134t-134 200.5t-50 243.5q1 128 51 243.5t134 199.5t200 133.5t243 49.5t243.5 -49.5t200.5 -133.5t134 -200t50 -243q0 -171 -84.5 -315.5t-229.5 -228.5t-316 -84zM778 102q149 0 276.5 74t201.5 201.5t74 276.5q0 113 -43.5 215.5
t-117 176.5t-175.5 118t-214 44q-113 0 -215.5 -43.5t-176.5 -117.5t-118 -176t-44 -215t43.5 -215.5t117.5 -176.5t176 -118t215 -44zM600 342h-2l26 24q19 16 30 50q8 24 25 72t25 72q32 90 64 146v2q-8 -8 -12 -14q-8 -8 -10 -14q-23 -29 -36 -64q-6 -6 -10 -6
q-114 6 -198 76q-10 10 -32 31t-32 31q-3 3 -8 9t-8 9q8 0 12 -4q53 -21 112 -30q45 -3 80 2q36 8 52 14l18 6q-6 4 -17.5 9.5t-18 9.5t-15.5 10.5t-15 14.5h20q41 0 84 20q74 46 154 70q33 10 64 10q5 0 23 1.5t27 0.5q64 -4 98 -38q7 -5 32 -36v-2q-2 2 -6 2
q-52 20 -94 4.5t-70 -58.5q-6 -11 -15 -33.5t-13 -30.5q-6 -12 -24 -56.5t-30 -67.5q-33 -69 -72 -116q-20 -27 -72 -64q-49 -37 -132 -62h-4z" />
    </font>
</defs>
</svg>
