<?xml version="1.0" standalone="no"?>
<!DOCTYPE svg PUBLIC "-//W3C//DTD SVG 1.1//EN" "http://www.w3.org/Graphics/SVG/1.1/DTD/svg11.dtd" >
<svg xmlns="http://www.w3.org/2000/svg" xmlns:xlink="http://www.w3.org/1999/xlink" version="1.1">
<metadata>
Created by FontForge 20170731 at Sun May  7 16:11:51 2023
 By Aleksey,,,
Copyright (c) 2023 by Designova. All rights reserved.
</metadata>
<defs>
<font id="Optika-Black" horiz-adv-x="1632" >
  <font-face 
    font-family="Optika Black"
    font-weight="900"
    font-stretch="normal"
    units-per-em="2048"
    panose-1="0 0 10 0 0 0 0 0 0 0"
    ascent="1638"
    descent="-410"
    x-height="1148"
    cap-height="1470"
    bbox="-1070 -528 3794 2312"
    underline-thickness="50"
    underline-position="-150"
    unicode-range="U+000D-F8FF"
  />
<missing-glyph horiz-adv-x="1364" 
d="M1214 1470v-1470h-1064v1470h1064zM1046 1324h-728v-1176h728v1176z" />
    <glyph glyph-name=".notdef" horiz-adv-x="1364" 
d="M1214 1470v-1470h-1064v1470h1064zM1046 1324h-728v-1176h728v1176z" />
    <glyph glyph-name=".null" horiz-adv-x="0" 
 />
    <glyph glyph-name="nonmarkingreturn" horiz-adv-x="682" 
 />
    <glyph glyph-name="CR" unicode="&#xd;" horiz-adv-x="530" 
 />
    <glyph glyph-name="space" unicode=" " horiz-adv-x="530" 
 />
    <glyph glyph-name="exclam" unicode="!" horiz-adv-x="871" 
d="M720 1470l-96 -908h-378l-94 908h568zM436 -22q-120 0 -199 74.5t-79 179.5q0 106 78.5 176t199.5 70q123 0 199.5 -70t76.5 -176t-77 -180t-199 -74z" />
    <glyph glyph-name="quotedbl" unicode="&#x22;" horiz-adv-x="1242" 
d="M573 1470l-32 -630h-336l-30 630h398zM1067 1470l-32 -630h-336l-30 630h398z" />
    <glyph glyph-name="numbersign" unicode="#" horiz-adv-x="1452" 
d="M566 288l-36 -288h-336l36 288h-254v314h294l30 266h-254v314h294l36 288h336l-36 -288h208l36 288h336l-36 -288h254v-314h-294l-30 -266h254v-314h-294l-36 -288h-336l36 288h-208zM844 868h-208l-30 -266h208z" />
    <glyph glyph-name="dollar" unicode="$" horiz-adv-x="1480" 
d="M914 -18v-234h-296v222q-157 10 -300.5 49.5t-239.5 98.5l158 360q175 -100 382 -128v206q-8 0 -24 4q-86 18 -152.5 39t-133.5 57t-110.5 82t-70.5 115t-27 155q0 136 78 250q128 191 440 236v228h296v-224q252 -26 426 -122l-150 -360q-150 75 -276 98v-208
q84 -17 150.5 -38.5t132 -57.5t109 -82t70 -114t26.5 -152q0 -138 -76 -246q-126 -187 -412 -234zM618 984v104q-28 -22 -28 -54q0 -30 28 -50z" />
    <glyph glyph-name="percent" unicode="%" horiz-adv-x="2056" 
d="M489 672q-110 0 -200 48q-89 49 -139.5 142t-50.5 220q0 135 52 222q51 91 138.5 139.5t199.5 48.5q106 0 200 -50q91 -49 140.5 -140.5t49.5 -219.5q0 -133 -50 -224q-51 -91 -139 -138.5t-201 -47.5zM1707 1470l-1004 -1470h-354l1004 1470h354zM489 898q35 0 66 40
q26 38 26 144t-26 144q-29 38 -66 38q-36 0 -62 -38q-30 -39 -30 -144t30 -144q28 -40 62 -40zM1567 -22q-115 0 -200 50q-91 48 -141.5 140t-50.5 220q0 131 54 224q49 90 137 138t201 48q110 0 200 -48q90 -51 140 -143t50 -219q0 -134 -50 -222q-52 -92 -140 -140
t-200 -48zM1567 206q38 0 64 40q28 34 28 142q0 107 -28 146q-29 38 -64 38q-32 0 -64 -38q-28 -44 -28 -146q0 -105 28 -142q29 -40 64 -40z" />
    <glyph glyph-name="ampersand" unicode="&#x26;" horiz-adv-x="1540" 
d="M669 -34q-173 0 -316 58q-139 54 -218.5 151.5t-79.5 216.5q0 118 56 218q69 116 230 206q-2 2 -14.5 17.5t-19.5 22.5q-92 123 -92 242q0 115 68 208q67 90 186 140t276 50q140 0 256 -44q109 -47 169.5 -132t60.5 -196q0 -102 -50 -184q-67 -102 -204 -176l156 -132
q37 79 56 192l380 -114q-40 -186 -138 -332l138 -118l-254 -288l-154 136q-219 -142 -492 -142zM719 984l6 6q110 60 110 124q0 34 -23 54t-65 20q-48 0 -75 -23.5t-27 -60.5q0 -27 17.5 -53t56.5 -67zM705 320q83 0 166 34l-270 232q-82 -60 -82 -140q0 -56 52 -91t134 -35
z" />
    <glyph glyph-name="quotesingle" unicode="'" horiz-adv-x="658" 
d="M528 1470l-32 -630h-336l-30 630h398z" />
    <glyph glyph-name="parenleft" unicode="(" horiz-adv-x="960" 
d="M899 -408h-454q-134 190 -207 444t-73 540t72.5 539t207.5 443h454q-140 -250 -205 -488.5t-65 -493.5q0 -256 65 -495t205 -489z" />
    <glyph glyph-name="parenright" unicode=")" horiz-adv-x="961" 
d="M515 -408h-454q141 248 205.5 487t64.5 497t-64 496t-206 486h454q136 -189 208 -441.5t72 -540.5q0 -289 -72 -542t-208 -442z" />
    <glyph glyph-name="asterisk" unicode="*" horiz-adv-x="1094" 
d="M681 900l6 -224h-282l8 224l-206 -126l-144 236l202 108l-202 106l144 236l206 -126l-8 224h282l-6 -224l206 126l144 -236l-200 -106l200 -108l-144 -236z" />
    <glyph glyph-name="plus" unicode="+" horiz-adv-x="1374" 
d="M876 556v-336h-378v336h-346v358h346v336h378v-336h346v-358h-346z" />
    <glyph glyph-name="comma" unicode="," horiz-adv-x="799" 
d="M555 -24l-146 -312h-294l106 354q-65 32 -101.5 92.5t-36.5 141.5q0 122 78 195t200 73q121 0 198.5 -73t77.5 -195q0 -56 -18 -117t-64 -159z" />
    <glyph glyph-name="hyphen" unicode="-" horiz-adv-x="822" 
d="M727 786v-358h-630v358h630z" />
    <glyph glyph-name="period" unicode="." horiz-adv-x="827" 
d="M415 -22q-119 0 -198.5 77.5t-79.5 196.5q0 120 79 194t199 74q119 0 197.5 -74t78.5 -194q0 -119 -79 -196.5t-197 -77.5z" />
    <glyph glyph-name="slash" unicode="/" horiz-adv-x="1101" 
d="M1107 1768l-694 -1978h-420l694 1978h420z" />
    <glyph glyph-name="zero" unicode="0" horiz-adv-x="1532" 
d="M766 -34q-197 0 -344 90q-154 91 -238 265t-84 415t88 414q84 172 233 263t345 91q195 0 348 -90q151 -92 234.5 -265.5t83.5 -412.5q0 -251 -84 -416q-85 -172 -235 -263t-347 -91zM766 364q51 0 86 32q82 73 82 340q0 147 -20 224q-41 146 -148 146q-48 0 -86 -32
q-82 -76 -82 -338q0 -128 24 -224q41 -148 144 -148z" />
    <glyph glyph-name="one" unicode="1" horiz-adv-x="1171" 
d="M1071 0h-482l-4 936l-141 -211l-344 238l351 507h620v-1470z" />
    <glyph glyph-name="two" unicode="2" horiz-adv-x="1464" 
d="M1364 384v-384h-1178v304l532 492q116 110 116 202q0 116 -144 116q-67 0 -125.5 -36t-90.5 -102l-374 188q85 158 246.5 249t391.5 91q171 0 308 -58q135 -56 210.5 -160t75.5 -242q0 -69 -18 -144q-37 -147 -234 -324l-210 -192h494z" />
    <glyph glyph-name="three" unicode="3" horiz-adv-x="1452" 
d="M680 -34q-155 0 -310 34.5t-270 97.5l168 366q180 -106 394 -106q87 0 139.5 28.5t52.5 83.5q0 51 -41 76.5t-133 25.5h-196v304l216 220h-524v374h1096v-304l-274 -278q171 -41 262.5 -151.5t91.5 -266.5q0 -123 -70 -242q-75 -121 -226.5 -191.5t-375.5 -70.5z" />
    <glyph glyph-name="four" unicode="4" horiz-adv-x="1638" 
d="M1344 252v-252h-482v252h-762v316l624 902h620v-834h194v-384h-194zM878 636v300l-200 -300h200z" />
    <glyph glyph-name="five" unicode="5" horiz-adv-x="1452" 
d="M680 -34q-155 0 -309.5 34.5t-270.5 97.5l168 366q180 -106 394 -106q86 0 139 29.5t53 84.5q0 59 -56 82.5t-166 23.5h-426l74 892h976v-374h-570l-10 -144h76q216 0 350 -64q250 -121 250 -404q0 -137 -70 -248q-74 -126 -225 -198t-377 -72z" />
    <glyph glyph-name="six" unicode="6" horiz-adv-x="1502" 
d="M806 -34q-208 0 -366 82q-164 83 -252 244.5t-88 395.5q0 261 104 442q102 181 286 277.5t426 96.5q131 0 252 -30.5t204 -85.5l-180 -346q-112 78 -266 78q-128 0 -211 -64t-107 -186q114 82 290 82q134 0 250 -58q118 -61 186 -167t68 -247q0 -155 -78 -272
q-81 -116 -216.5 -179t-301.5 -63zM772 308q69 0 110.5 40.5t41.5 109.5t-41.5 110.5t-110.5 41.5q-65 0 -107.5 -42.5t-42.5 -109.5t42 -108.5t108 -41.5z" />
    <glyph glyph-name="seven" unicode="7" horiz-adv-x="1458" 
d="M1358 1086l-490 -1086h-542l492 1086h-718v384h1258v-384z" />
    <glyph glyph-name="eight" unicode="8" horiz-adv-x="1520" 
d="M760 -34q-195 0 -342 60q-150 56 -234 162.5t-84 247.5q0 143 86 244q55 62 114 94q-146 112 -146 290q0 138 76 234q79 98 216 152t314 54q171 0 314 -54q140 -56 216 -154.5t76 -231.5q0 -134 -78 -224q-29 -35 -68 -62q200 -124 200 -342q0 -144 -84 -246
q-84 -108 -232.5 -166t-343.5 -58zM760 918q52 0 85 34t33 92q0 60 -32.5 93t-85.5 33t-85.5 -33t-32.5 -93q0 -58 33 -92t85 -34zM760 300q71 0 116.5 42t45.5 112q0 69 -45 110.5t-117 41.5t-117 -41.5t-45 -110.5q0 -70 45.5 -112t116.5 -42z" />
    <glyph glyph-name="nine" unicode="9" horiz-adv-x="1502" 
d="M586 -34q-131 0 -252 30.5t-204 85.5l180 346q112 -78 266 -78q127 0 211 64t109 186q-120 -82 -292 -82q-134 0 -248 60q-119 59 -187.5 165.5t-68.5 246.5q0 156 80 272q79 115 215 178.5t301 63.5q204 0 370 -80q161 -85 248.5 -246t87.5 -396q0 -262 -104 -440
q-102 -183 -284.5 -279.5t-427.5 -96.5zM730 862q66 0 108 41.5t42 108.5q0 69 -41 109.5t-109 40.5q-67 0 -109.5 -41.5t-42.5 -108.5q0 -68 43 -109t109 -41z" />
    <glyph glyph-name="colon" unicode=":" horiz-adv-x="827" 
d="M415 626q-119 0 -198.5 77.5t-79.5 196.5q0 120 79 194t199 74q119 0 197.5 -74t78.5 -194q0 -119 -79 -196.5t-197 -77.5zM415 -22q-119 0 -198.5 77.5t-79.5 196.5q0 120 79 194t199 74q119 0 197.5 -74t78.5 -194q0 -119 -79 -196.5t-197 -77.5z" />
    <glyph glyph-name="semicolon" unicode=";" horiz-adv-x="773" 
d="M361 626q-119 0 -198.5 77.5t-79.5 196.5q0 120 79 194t199 74q119 0 197.5 -74t78.5 -194q0 -119 -79 -196.5t-197 -77.5zM555 -24l-146 -312h-294l106 354q-65 32 -101.5 92.5t-36.5 141.5q0 122 78 195t200 73q121 0 198.5 -73t77.5 -195q0 -56 -18 -117t-64 -159z
" />
    <glyph glyph-name="less" unicode="&#x3c;" horiz-adv-x="1414" 
d="M606 736l636 -220v-356l-1070 388v374l1070 388v-356z" />
    <glyph glyph-name="equal" unicode="=" horiz-adv-x="1497" 
d="M1283 1186v-356h-1070v356h1070zM1283 640v-356h-1070v356h1070z" />
    <glyph glyph-name="greater" unicode="&#x3e;" horiz-adv-x="1414" 
d="M1242 922v-374l-1070 -388v356l636 220l-636 218v356z" />
    <glyph glyph-name="question" unicode="?" horiz-adv-x="1302" 
d="M921 562h-434q0 148 138 278q80 75 104 106q30 42 30 74q0 48 -40.5 74t-101.5 26q-68 0 -126.5 -38.5t-91.5 -105.5l-374 188q85 159 249.5 249.5t406.5 90.5q161 0 296 -44q133 -48 206.5 -138.5t73.5 -219.5q0 -104 -43.5 -180t-124.5 -150q-12 -11 -38.5 -33t-40 -34
t-34 -32.5t-30 -35.5t-17.5 -35t-8 -40zM705 -22q-120 0 -199 74.5t-79 179.5q0 106 78.5 176t199.5 70q122 0 199 -70t77 -176t-77.5 -180t-198.5 -74z" />
    <glyph glyph-name="at" unicode="@" horiz-adv-x="2126" 
d="M1073 -442q-463 0 -756 280q-137 132 -209.5 310t-72.5 384q0 202 73 378t211 308q141 135 334.5 208.5t427.5 73.5q224 0 411 -69.5t323 -196.5q133 -127 204.5 -292t71.5 -352q0 -201 -66 -336q-66 -134 -177.5 -203t-248.5 -69q-245 0 -332 182q-89 -182 -320 -182
q-114 0 -214 62q-106 65 -168 184t-62 276q0 165 62 280q62 114 164 177t218 63q137 0 218 -64q11 -7 40 -36v82h404v-600q0 -60 23 -88t59 -28q31 0 54 26q52 49 52 268q0 286 -194 468q-196 180 -522 180q-322 0 -520 -198q-97 -97 -148.5 -225.5t-51.5 -276.5
q0 -310 196 -506q197 -200 516 -200q226 0 424 92l88 -258q-95 -47 -233.5 -74.5t-278.5 -27.5zM1063 310q69 0 110.5 53t41.5 141q0 87 -41.5 139.5t-110.5 52.5t-109.5 -52.5t-40.5 -139.5q0 -89 40.5 -141.5t109.5 -52.5z" />
    <glyph glyph-name="A" unicode="A" horiz-adv-x="1822" 
d="M645 300l-116 -300h-504l642 1470h488l642 -1470h-512l-116 300h-524zM1033 658l-126 324l-126 -324h252z" />
    <glyph glyph-name="B" unicode="B" horiz-adv-x="1648" 
d="M928 0h-828v1470h818q293 0 444.5 -109t151.5 -285q0 -111 -62 -198q-50 -70 -140 -120l10 -4q120 -49 173 -138t53 -222q0 -191 -159 -292.5t-461 -101.5zM852 1124h-266v-230h266q162 0 162 110q0 57 -40.5 88.5t-121.5 31.5zM886 568h-300v-222h300q83 0 122.5 25
t39.5 81q0 116 -162 116z" />
    <glyph glyph-name="C" unicode="C" horiz-adv-x="1680" 
d="M920 -34q-353 0 -586 214q-112 106 -173 247t-61 309q0 166 61 307t173 247q233 214 586 214q215 0 382.5 -75.5t277.5 -218.5l-314 -280q-134 172 -320 172q-156 0 -251 -100t-95 -266q0 -168 95 -268t251 -100q186 0 320 172l314 -280q-111 -142 -279 -218t-381 -76z
" />
    <glyph glyph-name="D" unicode="D" horiz-adv-x="1754" 
d="M824 0h-724v1470h724q244 0 432 -88q190 -91 294 -256t104 -388q0 -227 -106 -394q-105 -166 -292 -255t-432 -89zM804 1084h-208v-698h208q104 0 184 40q80 39 123 119t43 193q0 112 -44 188q-88 158 -306 158z" />
    <glyph glyph-name="E" unicode="E" horiz-adv-x="1438" 
d="M1336 374v-374h-1236v1470h1238v-374h-752v-184h666v-358h-666v-180h750z" />
    <glyph glyph-name="F" unicode="F" horiz-adv-x="1438" 
d="M586 554v-554h-486v1470h1238v-374h-752v-184h666v-358h-666z" />
    <glyph glyph-name="G" unicode="G" horiz-adv-x="1704" 
d="M922 -34q-355 0 -588 214q-112 106 -173 247t-61 309q0 339 234 554q236 214 598 214q217 0 388.5 -73t283.5 -211l-316 -280q-138 162 -330 162q-164 0 -261 -98.5t-97 -267.5q0 -165 96.5 -266.5t255.5 -101.5q97 0 180 36v106h-200v358h630v-714
q-132 -89 -303.5 -138.5t-336.5 -49.5z" />
    <glyph glyph-name="H" unicode="H" horiz-adv-x="1648" 
d="M596 530v-530h-496v1470h496v-534h458v534h494v-1470h-494v530h-458z" />
    <glyph glyph-name="I" unicode="I" horiz-adv-x="696" 
d="M596 1470v-1470h-496v1470h496z" />
    <glyph glyph-name="J" unicode="J" 
d="M816 -34q-339 0 -527.5 183t-188.5 513h496q5 -294 224 -294q110 0 167 73t57 235v794h488v-808q0 -330 -188.5 -513t-527.5 -183z" />
    <glyph glyph-name="K" unicode="K" horiz-adv-x="1740" 
d="M586 364v-364h-486v1470h486v-534l484 534h540l-588 -646l618 -824h-574l-368 488z" />
    <glyph glyph-name="L" unicode="L" horiz-adv-x="1436" 
d="M1336 374v-374h-1236v1470h486v-1096h750z" />
    <glyph glyph-name="M" unicode="M" horiz-adv-x="1964" 
d="M552 646v-646h-452v1470h408l478 -784l466 784h408l4 -1470h-452l-4 670l-320 -538h-218z" />
    <glyph glyph-name="N" unicode="N" horiz-adv-x="1648" 
d="M582 668v-668h-482v1470h408l558 -668v668h482v-1470h-406z" />
    <glyph glyph-name="O" unicode="O" horiz-adv-x="1860" 
d="M932 -34q-178 0 -330 56.5t-266 161.5q-113 107 -174.5 247.5t-61.5 304.5q0 329 236 552q113 104 265.5 160t328.5 56q362 0 594 -216q236 -220 236 -552q0 -164 -61 -305t-175 -247q-112 -105 -264 -161.5t-328 -56.5zM930 368q146 0 238 101.5t92 266.5q0 164 -92 265
t-238 101q-145 0 -237.5 -101t-92.5 -265q0 -165 92.5 -266.5t237.5 -101.5z" />
    <glyph glyph-name="P" unicode="P" horiz-adv-x="1614" 
d="M596 362v-362h-496v1470h744q201 0 356 -68q151 -68 232.5 -193t81.5 -293q0 -169 -82 -294q-83 -126 -233.5 -193t-354.5 -67h-248zM812 1088h-216v-344h216q100 0 151 45t51 127q0 81 -51 126.5t-151 45.5z" />
    <glyph glyph-name="Q" unicode="Q" horiz-adv-x="1976" 
d="M1600 266l276 -274l-278 -290l-334 324q-158 -60 -332 -60q-178 0 -330 56.5t-266 161.5q-113 107 -174.5 247.5t-61.5 304.5q0 329 236 552q113 104 265.5 160t328.5 56q362 0 594 -216q236 -220 236 -552q0 -273 -160 -470zM930 368q146 0 238 101.5t92 266.5
q0 164 -92 265t-238 101q-145 0 -237.5 -101t-92.5 -265q0 -165 92.5 -266.5t237.5 -101.5z" />
    <glyph glyph-name="R" unicode="R" horiz-adv-x="1614" 
d="M596 362v-362h-496v1470h744q201 0 356 -68q151 -68 232.5 -193t81.5 -293q0 -169 -82 -294q-84 -125 -222 -188l298 -434h-528l-244 362h-140zM812 1088h-216v-344h216q100 0 151 45t51 127q0 81 -51 126.5t-151 45.5z" />
    <glyph glyph-name="S" unicode="S" horiz-adv-x="1524" 
d="M740 -34q-182 0 -354.5 41.5t-285.5 110.5l158 360q108 -62 237 -98t249 -36q192 0 192 80q0 39 -44 64q-13 6 -27.5 12t-34.5 11.5t-34.5 9.5t-42.5 10t-41 9t-48 10t-48 10q-86 18 -152.5 39t-133.5 57t-110.5 82t-70.5 115t-27 155q0 136 78 250q77 116 231.5 181
t376.5 65q325 0 554 -128l-150 -360q-214 110 -410 110q-90 0 -140 -24t-50 -68q0 -37 44 -60q27 -13 77.5 -26t83 -19.5t117.5 -22.5q84 -17 151 -38.5t132.5 -57.5t109 -82t70.5 -114t27 -152q0 -138 -76 -246q-80 -117 -233.5 -183.5t-374.5 -66.5z" />
    <glyph glyph-name="T" unicode="T" horiz-adv-x="1558" 
d="M1026 1086v-1086h-496v1086h-430v384h1358v-384h-432z" />
    <glyph glyph-name="U" unicode="U" 
d="M816 -34q-339 0 -527.5 183t-188.5 513v808h494v-794q0 -308 226 -308q110 0 167 73t57 235v794h488v-808q0 -330 -189 -513t-527 -183z" />
    <glyph glyph-name="V" unicode="V" horiz-adv-x="1780" 
d="M1755 1470l-622 -1470h-486l-622 1470h534l350 -858l360 858h486z" />
    <glyph glyph-name="W" unicode="W" horiz-adv-x="2540" 
d="M1275 786l-250 -786h-530l-470 1470h510l256 -836l270 836h456l256 -846l272 846h470l-470 -1470h-532z" />
    <glyph glyph-name="X" unicode="X" horiz-adv-x="1834" 
d="M912 392l-248 -392h-564l530 742l-512 728h556l250 -370l244 370h534l-510 -710l542 -760h-568z" />
    <glyph glyph-name="Y" unicode="Y" horiz-adv-x="1804" 
d="M1150 534v-534h-496v540l-554 930h522l300 -508l302 508h480z" />
    <glyph glyph-name="Z" unicode="Z" horiz-adv-x="1550" 
d="M1450 384v-384h-1350v304l672 782h-652v384h1296v-304l-672 -782h706z" />
    <glyph glyph-name="bracketleft" unicode="[" horiz-adv-x="980" 
d="M900 -50v-358h-720v1966h720v-356h-246v-1252h246z" />
    <glyph glyph-name="backslash" unicode="\" horiz-adv-x="1100" 
d="M415 1768l692 -1978h-420l-694 1978h422z" />
    <glyph glyph-name="bracketright" unicode="]" horiz-adv-x="980" 
d="M800 1558v-1966h-720v358h244v1252h-244v356h720z" />
    <glyph glyph-name="asciicircum" unicode="^" horiz-adv-x="1233" 
d="M601 820l-220 -528h-356l388 886h374l388 -886h-356z" />
    <glyph glyph-name="underscore" unicode="_" horiz-adv-x="909" 
d="M979 0v-252h-1050v252h1050z" />
    <glyph glyph-name="grave" unicode="`" horiz-adv-x="1510" 
d="M748 1610l276 -336h-314l-414 336h452z" />
    <glyph glyph-name="a" unicode="a" horiz-adv-x="1404" 
d="M638 -6q-151 0 -270 44q-127 48 -197.5 136t-70.5 200q0 97 62 188q126 186 502 186h212q-6 56 -58.5 94t-113.5 38q-177 0 -210 -94l-326 164q67 114 205.5 174t330.5 60q281 0 440.5 -126t159.5 -350v-706h-374v44q-128 -52 -292 -52zM664 286q189 0 260 126v48h-256
q-106 0 -148 -20t-42 -62q0 -92 186 -92z" />
    <glyph glyph-name="b" unicode="b" horiz-adv-x="1520" 
d="M866 -22q-156 0 -254 64q-24 14 -62 52v-94h-450v1470h474v-398q107 98 292 98q150 0 276 -72q130 -72 204 -207t74 -315q0 -184 -76 -318q-75 -133 -200.5 -206.5t-277.5 -73.5zM752 348q85 0 136.5 62t51.5 166t-51.5 164t-136.5 60t-135.5 -60t-50.5 -164
q0 -105 51 -166.5t135 -61.5z" />
    <glyph glyph-name="c" unicode="c" horiz-adv-x="1444" 
d="M778 -22q-195 0 -350 76q-155 77 -241.5 213t-86.5 309q0 171 88 308q88 135 241.5 210.5t348.5 75.5q209 0 359 -90.5t207 -249.5l-368 -182q-68 152 -200 152q-88 0 -141 -60t-53 -164q0 -107 53 -167.5t141 -60.5q132 0 200 152l368 -180q-57 -160 -207 -251t-359 -91
z" />
    <glyph glyph-name="d" unicode="d" horiz-adv-x="1522" 
d="M656 -22q-147 0 -276 74q-131 76 -205.5 210t-74.5 314q0 181 76 318q76 132 202.5 204t277.5 72q148 0 246 -64q16 -10 44 -34v398h476v-1470h-452v94q-104 -116 -314 -116zM768 348q85 0 136.5 62t51.5 166t-51.5 164t-136.5 60q-84 0 -135 -60t-51 -164t51.5 -166
t134.5 -62z" />
    <glyph glyph-name="e" unicode="e" horiz-adv-x="1484" 
d="M796 -22q-213 0 -366 78q-158 78 -244 213.5t-86 306.5q0 170 86 308q86 135 234.5 210.5t331.5 75.5q166 0 314 -68q149 -70 233.5 -203.5t84.5 -322.5q0 -44 -8 -112h-794q22 -65 81 -99.5t147 -34.5q76 0 127 19t113 65l248 -250q-174 -186 -502 -186zM570 694h370
q-14 71 -62.5 111.5t-121.5 40.5q-74 0 -122.5 -40.5t-63.5 -111.5z" />
    <glyph glyph-name="f" unicode="f" horiz-adv-x="954" 
d="M632 790v-790h-474v790h-158v346h162v114q0 204 138 325t372 121q184 0 282 -56l-114 -330q-56 28 -108 28q-90 0 -108 -88v-114h244v-346h-236z" />
    <glyph glyph-name="g" unicode="g" horiz-adv-x="1544" 
d="M814 -436q-368 -9 -594 128l166 296q67 -45 175.5 -75t202.5 -33q238 6 302 186q-137 -64 -306 -64q-208 0 -334 74l-26 14q-143 83 -221.5 213t-78.5 289q0 163 88 304q88 133 238.5 206.5t333.5 73.5q170 0 312 -68q3 -2 11 -5t11 -5v52h350v-904q0 -309 -164.5 -487.5
t-465.5 -194.5zM806 362q119 0 196.5 63t77.5 163q0 102 -76 163t-198 61q-119 0 -198.5 -62t-79.5 -162q0 -99 79.5 -162.5t198.5 -63.5z" />
    <glyph glyph-name="h" unicode="h" horiz-adv-x="1468" 
d="M574 540v-540h-474v1470h474v-414q132 114 324 114q131 0 238 -52q232 -116 232 -462v-656h-476v574q0 196 -140 196q-86 0 -132 -57.5t-46 -172.5z" />
    <glyph glyph-name="i" unicode="i" horiz-adv-x="772" 
d="M386 1232q-128 0 -207 68t-79 172q0 105 78.5 173.5t207.5 68.5t207.5 -64.5t78.5 -167.5q0 -111 -78.5 -180.5t-207.5 -69.5zM624 1148v-1148h-474v1148h474z" />
    <glyph glyph-name="j" unicode="j" horiz-adv-x="700" 
d="M384 1228q-128 0 -207 68t-79 172q0 105 78.5 173.5t207.5 68.5t207.5 -64.5t78.5 -167.5q0 -111 -78.5 -180.5t-207.5 -69.5zM118 -428q-87 0 -181 15t-147 41l114 330q53 -28 144 -28q44 0 71 33.5t27 100.5v1082h474v-1088q0 -224 -133 -355t-369 -131z" />
    <glyph glyph-name="k" unicode="k" horiz-adv-x="1602" 
d="M574 270v-270h-474v1470h474v-656l330 334h560l-474 -496l512 -652h-574l-278 352z" />
    <glyph glyph-name="l" unicode="l" horiz-adv-x="674" 
d="M574 1470v-1470h-474v1470h474z" />
    <glyph glyph-name="m" unicode="m" horiz-adv-x="2178" 
d="M574 560v-560h-474v1148h450v-106q128 128 326 128q244 0 360 -174q146 174 384 174q130 0 234 -52q224 -115 224 -462v-656h-476v574q0 196 -128 196q-71 0 -109.5 -53.5t-38.5 -156.5v-560h-476v574q0 103 -32 149.5t-96 46.5q-71 0 -109.5 -53.5t-38.5 -156.5z" />
    <glyph glyph-name="n" unicode="n" horiz-adv-x="1468" 
d="M574 540v-540h-474v1148h450v-114q133 136 348 136q131 0 238 -52q232 -116 232 -462v-656h-476v574q0 196 -140 196q-86 0 -132 -57.5t-46 -172.5z" />
    <glyph glyph-name="o" unicode="o" horiz-adv-x="1536" 
d="M768 -22q-197 0 -344 78q-153 78 -238.5 212.5t-85.5 307.5q0 170 86 308q88 135 239 210.5t343 75.5q194 0 346 -76q153 -76 237.5 -210.5t84.5 -307.5q0 -172 -84 -310q-87 -135 -239 -211.5t-345 -76.5zM768 348q84 0 135 61.5t51 166.5q0 104 -50.5 164t-135.5 60
t-135.5 -60t-50.5 -164q0 -105 51 -166.5t135 -61.5z" />
    <glyph glyph-name="p" unicode="p" horiz-adv-x="1520" 
d="M574 80v-488h-474v1556h450v-94q104 116 316 116q150 0 276 -72q130 -74 204 -209t74 -315q0 -184 -76 -318q-75 -133 -200.5 -205.5t-277.5 -72.5q-150 0 -246 66q-15 9 -46 36zM752 348q85 0 136.5 61t51.5 165t-51.5 165t-136.5 61t-135.5 -61t-50.5 -165t50.5 -165
t135.5 -61z" />
    <glyph glyph-name="q" unicode="q" horiz-adv-x="1522" 
d="M1422 1148v-1556h-476v486q-100 -100 -292 -100q-148 0 -274 72q-131 72 -205.5 207.5t-74.5 316.5t76 318q75 131 202 204.5t276 73.5q158 0 256 -64q35 -22 60 -50v92h452zM768 348q85 0 135.5 61t50.5 165t-50.5 165t-135.5 61t-135.5 -61t-50.5 -165t50.5 -165
t135.5 -61z" />
    <glyph glyph-name="r" unicode="r" horiz-adv-x="1022" 
d="M574 510v-510h-474v1148h450v-124q125 146 372 146v-420q-56 8 -104 8q-244 0 -244 -248z" />
    <glyph glyph-name="s" unicode="s" horiz-adv-x="1164" 
d="M545 -22q-144 0 -287 32t-233 82l130 314q81 -49 189 -76.5t211 -27.5q91 0 118 16q30 15 30 40q0 15 -16.5 26.5t-48 18t-61 10.5t-71 8t-61.5 7q-70 9 -125.5 23t-109.5 40.5t-89.5 63.5t-57.5 93.5t-22 129.5q0 106 68 196q68 92 200 144t320 52q132 0 257.5 -24
t210.5 -70l-130 -314q-150 84 -332 84q-87 0 -122 -16q-32 -15 -32 -38q0 -15 15.5 -26.5t50 -19t59 -11t73 -8.5t62.5 -7q69 -10 123.5 -24.5t107.5 -41t88.5 -63.5t57 -94t21.5 -129q0 -105 -64 -192q-67 -93 -201 -145.5t-329 -52.5z" />
    <glyph glyph-name="t" unicode="t" horiz-adv-x="952" 
d="M660 -22q-243 0 -372.5 116.5t-129.5 351.5v342h-158v346h158v276h474v-276h236v-346h-236v-338q0 -51 27.5 -81.5t70.5 -30.5q61 0 108 32l114 -330q-109 -62 -292 -62z" />
    <glyph glyph-name="u" unicode="u" horiz-adv-x="1460" 
d="M584 -22q-133 0 -246 58q-238 121 -238 478v634h476v-552q0 -117 37.5 -167.5t110.5 -50.5q76 0 119 60t43 172v538h474v-1148h-450v110q-129 -132 -326 -132z" />
    <glyph glyph-name="v" unicode="v" horiz-adv-x="1316" 
d="M1366 1148l-462 -1148h-492l-462 1148h488l230 -614l248 614h450z" />
    <glyph glyph-name="w" unicode="w" horiz-adv-x="1976" 
d="M992 532l-182 -532h-462l-398 1148h448l198 -606l206 606h404l198 -612l206 612h416l-398 -1148h-462z" />
    <glyph glyph-name="x" unicode="x" horiz-adv-x="1392" 
d="M690 246l-176 -246h-514l434 570l-422 578h536l164 -242l172 242h496l-422 -558l434 -590h-544z" />
    <glyph glyph-name="y" unicode="y" horiz-adv-x="1316" 
d="M1366 1148l-678 -1676h-462l204 522l-480 1154h488l238 -614l240 614h450z" />
    <glyph glyph-name="z" unicode="z" horiz-adv-x="1296" 
d="M1196 346v-346h-1096v274l474 528h-458v346h1056v-272l-474 -530h498z" />
    <glyph glyph-name="braceleft" unicode="{" horiz-adv-x="981" 
d="M901 -50v-358h-154q-242 0 -366 116t-124 332v264q0 92 -90 92h-70v358h70q40 0 65 24t25 68v264q0 216 124 332t366 116h154v-356h-20q-73 0 -111.5 -38t-38.5 -108v-200q0 -117 -32 -178q-43 -76 -138 -102q23 -7 32 -12q72 -26 105 -90.5t33 -179.5v-200
q0 -69 38.5 -106.5t111.5 -37.5h20z" />
    <glyph glyph-name="bar" unicode="|" horiz-adv-x="816" 
d="M624 1558v-1966h-432v1966h432z" />
    <glyph glyph-name="braceright" unicode="}" horiz-adv-x="980" 
d="M234 -408h-154v358h20q73 0 111.5 37.5t38.5 106.5v200q0 112 34 180q39 72 136 102l-30 10q-71 27 -105.5 92t-34.5 178v200q0 70 -38.5 108t-111.5 38h-20v356h154q242 0 366 -116t124 -332v-264q0 -44 25 -68t65 -24h70v-358h-70q-90 0 -90 -92v-264q0 -216 -124 -332
t-366 -116z" />
    <glyph glyph-name="asciitilde" unicode="~" horiz-adv-x="1370" 
d="M892 494q-44 0 -90 16.5t-84 39.5t-73 46t-69.5 39.5t-61.5 16.5q-45 0 -73.5 -35.5t-32.5 -98.5h-290q4 216 103 340t257 124q54 0 112.5 -24.5t100 -53.5t87.5 -53.5t78 -24.5q46 0 75.5 35t30.5 97h290q-1 -215 -101 -339.5t-259 -124.5z" />
    <glyph glyph-name="exclamdown" unicode="&#xa1;" horiz-adv-x="871" 
d="M436 670q-121 0 -199.5 71t-78.5 177t79 179t199 73q122 0 199 -72.5t77 -179.5t-76.5 -177.5t-199.5 -70.5zM624 586l96 -910h-568l94 910h378z" />
    <glyph glyph-name="cent" unicode="&#xa2;" horiz-adv-x="1350" 
d="M859 -12v-240h-296v246q-85 16 -180 60q-155 77 -241.5 213t-86.5 309q0 171 88 308q68 104 176 173.5t244 94.5v248h296v-238q162 -26 277 -112.5t163 -219.5l-368 -182q-34 72 -72 104v-356q35 30 72 104l368 -180q-48 -134 -162.5 -220t-277.5 -112zM563 450v252
q-26 -58 -26 -126q0 -71 26 -126z" />
    <glyph glyph-name="sterling" unicode="&#xa3;" horiz-adv-x="1569" 
d="M1407 374v-374h-1322v374h188v222h-188v278h188q6 193 88 330q89 147 256.5 223.5t405.5 76.5q266 0 436 -90l-142 -374q-116 62 -252 62q-282 0 -296 -228h440v-278h-440v-222h638z" />
    <glyph glyph-name="currency" unicode="&#xa4;" horiz-adv-x="1482" 
d="M523 190l-218 -220l-262 264l214 214q-52 104 -52 230q0 116 46 214l-208 208l262 262l204 -202q114 52 228 52q118 0 232 -52l204 202l262 -262l-208 -208q44 -94 44 -214q0 -124 -52 -228l216 -216l-262 -264l-220 222q-106 -48 -216 -48q-106 0 -214 46zM737 512
q70 0 119 48.5t49 117.5q0 68 -49.5 118t-118.5 50t-116.5 -49.5t-47.5 -118.5t47.5 -117.5t116.5 -48.5z" />
    <glyph glyph-name="yen" unicode="&#xa5;" horiz-adv-x="1675" 
d="M1085 126v-126h-496v126h-336v236h336v54h-336v236h252l-532 818h528l358 -540l358 540h486l-532 -818h250v-236h-336v-54h336v-236h-336z" />
    <glyph glyph-name="brokenbar" unicode="&#xa6;" horiz-adv-x="652" 
d="M542 1558v-734h-432v734h432zM542 328v-736h-432v736h432z" />
    <glyph glyph-name="section" unicode="&#xa7;" horiz-adv-x="1208" 
d="M564 -232q-84 0 -186 16q-196 28 -320 98l130 314q80 -48 184 -76t188 -28q59 0 87.5 20t28.5 50q0 15 -6.5 26.5t-22 20.5t-29 15t-41 12t-43.5 9.5t-50 8.5t-48 8q-65 11 -115.5 25.5t-100.5 40.5t-82.5 60.5t-53 87t-20.5 118.5q0 166 118 272q-78 81 -78 216
q0 116 62 208q65 96 197.5 149t328.5 53q51 0 144 -10q199 -21 314 -86l-130 -312q-155 84 -350 84q-92 0 -118 -20q-32 -20 -32 -50q0 -12 7 -22t23 -18t31.5 -14t41 -12t43.5 -9.5t48.5 -8.5t45.5 -8q81 -16 142 -39.5t115 -64t82.5 -105t28.5 -151.5q0 -147 -112 -250
q74 -80 74 -218q0 -115 -58 -208q-60 -96 -178.5 -149t-289.5 -53zM664 538q56 37 56 90q0 39 -51.5 60t-142.5 36q-52 -34 -52 -90q0 -21 14.5 -36.5t45 -27t58 -18t72.5 -14.5z" />
    <glyph glyph-name="dieresis" unicode="&#xa8;" horiz-adv-x="1552" 
d="M542 1258q-81 0 -134.5 51.5t-53.5 132.5q0 83 53.5 135.5t134.5 52.5q82 0 136 -52.5t54 -135.5q0 -82 -54 -133t-136 -51zM1010 1258q-82 0 -136 51t-54 133q0 83 54 135.5t136 52.5q81 0 134.5 -52.5t53.5 -135.5q0 -81 -53.5 -132.5t-134.5 -51.5z" />
    <glyph glyph-name="copyright" unicode="&#xa9;" horiz-adv-x="1690" 
d="M842 -6q-155 0 -289.5 56t-236.5 160q-103 101 -158.5 236t-55.5 290q0 153 56.5 288t159.5 238q102 102 237.5 158t290.5 56q156 0 292 -55t238 -157q210 -213 210 -524q0 -155 -56 -291.5t-158 -238.5q-219 -216 -530 -216zM842 178q154 0 279.5 74t196 203t70.5 285
q0 241 -152 396.5t-390 155.5q-237 0 -391.5 -159t-154.5 -397q0 -157 69.5 -284.5t193.5 -200.5t279 -73zM876 320q-132 0 -234 54q-104 55 -162 148.5t-58 213.5q0 118 58 216q59 94 162 146t234 52q140 0 240.5 -62.5t137.5 -173.5l-270 -136q-36 84 -110 84
q-46 0 -77 -35t-31 -91q0 -57 31 -91.5t77 -34.5q75 0 110 84l270 -138q-38 -109 -138.5 -172.5t-239.5 -63.5z" />
    <glyph glyph-name="ordfeminine" unicode="&#xaa;" horiz-adv-x="732" 
d="M246 870q-128 0 -199 60.5t-71 153.5q0 206 338 206h112q-19 68 -138 68q-44 0 -93.5 -14t-84.5 -38l-100 196q66 37 157 57.5t177 20.5q406 0 406 -334v-364h-298v88q-52 -100 -206 -100zM344 1048q64 0 86 58v40h-66q-86 0 -86 -50q0 -21 18 -34.5t48 -13.5z" />
    <glyph glyph-name="guillemotleft" unicode="&#xab;" horiz-adv-x="1250" 
d="M434 576l278 -420h-420l-290 420l290 420h420zM990 576l278 -420h-420l-290 420l290 420h420z" />
    <glyph glyph-name="logicalnot" unicode="&#xac;" horiz-adv-x="1286" 
d="M1178 914v-714h-378v356h-692v358h1070z" />
    <glyph glyph-name="uni00AD" unicode="&#xad;" horiz-adv-x="720" 
d="M674 786v-358h-630v358h630z" />
    <glyph glyph-name="registered" unicode="&#xae;" horiz-adv-x="1562" 
d="M778 -6q-155 0 -289.5 56t-236.5 160q-103 101 -158.5 236t-55.5 290q0 153 56.5 288t159.5 238q102 102 237.5 158t290.5 56q156 0 292 -55t238 -157q210 -213 210 -524q0 -155 -56 -291.5t-158 -238.5q-219 -216 -530 -216zM778 178q154 0 279.5 74t196 203t70.5 285
q0 241 -152 396.5t-390 155.5q-237 0 -391.5 -159t-154.5 -397q0 -157 69.5 -284.5t193.5 -200.5t279 -73zM734 542v-202h-302v790h376q174 0 273 -79.5t99 -214.5q0 -145 -97 -219.5t-275 -74.5h-74zM788 922h-54v-172h54q43 0 65.5 23t22.5 63t-22.5 63t-65.5 23z
M1026 638h-306l192 -298h308z" />
    <glyph glyph-name="macron" unicode="&#xaf;" horiz-adv-x="1470" 
d="M1176 1566v-248h-882v248h882z" />
    <glyph glyph-name="degree" unicode="&#xb0;" horiz-adv-x="960" 
d="M479 732q-104 0 -196 52q-92 50 -145 137t-53 193q0 108 54 192q54 88 144 138t196 50q108 0 200 -52q90 -50 143 -136.5t53 -191.5q0 -108 -52 -194q-55 -88 -145.5 -138t-198.5 -50zM479 952q69 0 114.5 46.5t45.5 115.5q0 68 -45.5 114t-114.5 46q-67 0 -112.5 -46
t-45.5 -114q0 -69 45.5 -115.5t112.5 -46.5z" />
    <glyph glyph-name="plusminus" unicode="&#xb1;" horiz-adv-x="1382" 
d="M880 812v-318h-378v318h-346v338h346v320h378v-320h346v-338h-346zM1226 358v-358h-1070v358h1070z" />
    <glyph glyph-name="uni00B2" unicode="&#xb2;" horiz-adv-x="804" 
d="M792 926v-240h-768v192l334 284q50 47 62 68q14 28 14 46q0 58 -84 58q-98 0 -142 -78l-244 114q49 95 154 151.5t260 56.5q176 0 281 -74.5t105 -201.5q0 -68 -35 -130.5t-133 -147.5l-114 -98h310z" />
    <glyph glyph-name="uni00B3" unicode="&#xb3;" horiz-adv-x="804" 
d="M376 664q-112 0 -222 24.5t-186 65.5l110 228q66 -35 144.5 -54.5t145.5 -19.5q122 0 122 60q0 22 -22 38q-21 12 -80 12h-150v190l132 116h-352v234h752v-192l-174 -148q110 -25 168 -90.5t58 -159.5q0 -73 -46 -144q-106 -160 -400 -160z" />
    <glyph glyph-name="acute" unicode="&#xb4;" horiz-adv-x="1510" 
d="M1214 1610l-414 -336h-314l276 336h452z" />
    <glyph glyph-name="paragraph" unicode="&#xb6;" horiz-adv-x="1610" 
d="M912 1232v-1442h-384v910q-129 3 -232 56q-109 54 -170.5 150t-61.5 224q0 129 70 226q68 97 191 149.5t285 52.5h852v-1768h-382v1442h-168z" />
    <glyph glyph-name="periodcentered" unicode="&#xb7;" horiz-adv-x="827" 
d="M415 334q-122 0 -200 76t-78 200q0 122 77.5 196t200.5 74q125 0 200.5 -73.5t75.5 -196.5q0 -124 -75.5 -200t-200.5 -76z" />
    <glyph glyph-name="cedilla" unicode="&#xb8;" horiz-adv-x="1376" 
d="M598 -504q-53 0 -111.5 12.5t-94.5 31.5l58 174q77 -24 126 -24q58 0 78 14q24 15 24 36q0 19 -20 28q-20 14 -66 14h-86l56 240h244l-30 -132q92 -11 135 -58.5t43 -109.5q0 -104 -96.5 -165t-259.5 -61z" />
    <glyph glyph-name="uni00B9" unicode="&#xb9;" horiz-adv-x="767" 
d="M289 1558h436v-873h-340l-2 498l-99 -149l-242 167z" />
    <glyph glyph-name="ordmasculine" unicode="&#xba;" horiz-adv-x="852" 
d="M428 870q-130 0 -222 46q-96 44 -151 125t-55 183q0 105 54 186q56 81 152.5 125.5t219.5 44.5q121 0 222 -44q97 -48 150.5 -128t53.5 -184t-54 -182q-56 -83 -151 -127.5t-219 -44.5zM426 1100q47 0 78.5 32.5t31.5 91.5q0 60 -31 92t-79 32t-79 -32t-31 -92
q0 -59 31.5 -91.5t78.5 -32.5z" />
    <glyph glyph-name="guillemotright" unicode="&#xbb;" horiz-adv-x="1250" 
d="M692 576l-290 -420h-420l278 420l-278 420h420zM1248 576l-290 -420h-420l278 420l-278 420h420z" />
    <glyph glyph-name="questiondown" unicode="&#xbf;" horiz-adv-x="1300" 
d="M597 670q-121 0 -199.5 71t-78.5 177t79 179t199 73q122 0 199 -72.5t77 -179.5t-76.5 -177.5t-199.5 -70.5zM619 -354q-168 0 -294 44q-134 46 -207 136.5t-73 219.5q0 73 24 136t57.5 105t86.5 89q14 12 46.5 39.5t48 42.5t36 38t29 44.5t8.5 45.5h432
q0 -146 -134 -276q-36 -32 -49.5 -45.5t-39.5 -41.5t-36.5 -50.5t-10.5 -44.5q0 -46 39.5 -72t100.5 -26q67 0 126 38.5t92 103.5l374 -186q-85 -159 -249.5 -249.5t-406.5 -90.5z" />
    <glyph glyph-name="Agrave" unicode="&#xc0;" horiz-adv-x="1972" 
d="M930 1926l276 -336h-314l-414 336h452zM720 300l-116 -300h-504l642 1470h488l642 -1470h-512l-116 300h-524zM1108 658l-126 324l-126 -324h252z" />
    <glyph glyph-name="Aacute" unicode="&#xc1;" horiz-adv-x="1972" 
d="M1494 1926l-414 -336h-314l276 336h452zM720 300l-116 -300h-504l642 1470h488l642 -1470h-512l-116 300h-524zM1108 658l-126 324l-126 -324h252z" />
    <glyph glyph-name="Acircumflex" unicode="&#xc2;" horiz-adv-x="1972" 
d="M986 1752l-176 -162h-294l268 336h404l268 -336h-294zM720 300l-116 -300h-504l642 1470h488l642 -1470h-512l-116 300h-524zM1108 658l-126 324l-126 -324h252z" />
    <glyph glyph-name="Atilde" unicode="&#xc3;" horiz-adv-x="1972" 
d="M1156 1570q-57 0 -117.5 31t-110.5 62t-82 31q-40 0 -65 -27t-31 -77h-224q5 168 81.5 266t208.5 98q45 0 93.5 -19.5t82.5 -42.5t71.5 -42.5t62.5 -19.5q43 0 68.5 26t27.5 70h224q-2 -161 -80 -258.5t-210 -97.5zM720 300l-116 -300h-504l642 1470h488l642 -1470h-512
l-116 300h-524zM1108 658l-126 324l-126 -324h252z" />
    <glyph glyph-name="Adieresis" unicode="&#xc4;" horiz-adv-x="1972" 
d="M752 1574q-81 0 -134.5 51.5t-53.5 132.5q0 83 53.5 135.5t134.5 52.5q82 0 136 -52.5t54 -135.5q0 -82 -54 -133t-136 -51zM1220 1574q-82 0 -136 51t-54 133q0 83 54 135.5t136 52.5q81 0 134.5 -52.5t53.5 -135.5q0 -81 -53.5 -132.5t-134.5 -51.5zM720 300l-116 -300
h-504l642 1470h488l642 -1470h-512l-116 300h-524zM1108 658l-126 324l-126 -324h252z" />
    <glyph glyph-name="Aring" unicode="&#xc5;" horiz-adv-x="1972" 
d="M986 1562q-123 0 -208.5 81t-85.5 199q0 120 85.5 201t208.5 81t208.5 -81t85.5 -201q0 -118 -85.5 -199t-208.5 -81zM986 1730q50 0 82 31.5t32 80.5q0 51 -32 82.5t-82 31.5q-46 0 -80 -32t-34 -82q0 -48 34 -80t80 -32zM720 300l-116 -300h-504l642 1470h488
l642 -1470h-512l-116 300h-524zM1108 658l-126 324l-126 -324h252z" />
    <glyph glyph-name="AE" unicode="&#xc6;" horiz-adv-x="2518" 
d="M754 300l-150 -300h-504l776 1470h1516v-374h-708v-172h622v-356h-622v-194h734v-374h-1222v300h-442zM1196 1096h-48l-218 -438h266v438z" />
    <glyph glyph-name="Ccedilla" unicode="&#xc7;" horiz-adv-x="1680" 
d="M946 368q186 0 320 172l314 -280q-103 -132 -257.5 -207.5t-348.5 -84.5l-18 -78q92 -11 135 -58.5t43 -109.5q0 -104 -96.5 -165t-259.5 -61q-53 0 -111.5 12.5t-94.5 31.5l58 174q77 -24 126 -24q58 0 78 14q24 15 24 36q0 19 -20 28q-20 14 -66 14h-86l46 202
q-231 44 -398 196q-112 106 -173 247t-61 309q0 166 61 307t173 247q233 214 586 214q215 0 382.5 -75.5t277.5 -218.5l-314 -280q-134 172 -320 172q-156 0 -251 -100t-95 -266q0 -168 95 -268t251 -100z" />
    <glyph glyph-name="Egrave" unicode="&#xc8;" horiz-adv-x="1438" 
d="M642 1926l276 -336h-314l-414 336h452zM1336 374v-374h-1236v1470h1238v-374h-752v-184h666v-358h-666v-180h750z" />
    <glyph glyph-name="Eacute" unicode="&#xc9;" horiz-adv-x="1438" 
d="M1206 1926l-414 -336h-314l276 336h452zM1336 374v-374h-1236v1470h1238v-374h-752v-184h666v-358h-666v-180h750z" />
    <glyph glyph-name="Ecircumflex" unicode="&#xca;" horiz-adv-x="1438" 
d="M698 1752l-176 -162h-294l268 336h404l268 -336h-294zM1336 374v-374h-1236v1470h1238v-374h-752v-184h666v-358h-666v-180h750z" />
    <glyph glyph-name="Edieresis" unicode="&#xcb;" horiz-adv-x="1438" 
d="M464 1574q-81 0 -134.5 51.5t-53.5 132.5q0 83 53.5 135.5t134.5 52.5q82 0 136 -52.5t54 -135.5q0 -82 -54 -133t-136 -51zM932 1574q-82 0 -136 51t-54 133q0 83 54 135.5t136 52.5q81 0 134.5 -52.5t53.5 -135.5q0 -81 -53.5 -132.5t-134.5 -51.5zM1336 374v-374
h-1236v1470h1238v-374h-752v-184h666v-358h-666v-180h750z" />
    <glyph glyph-name="Igrave" unicode="&#xcc;" horiz-adv-x="956" 
d="M552 1926l276 -336h-314l-414 336h452zM856 1470v-1470h-496v1470h496z" />
    <glyph glyph-name="Iacute" unicode="&#xcd;" horiz-adv-x="956" 
d="M856 1926l-414 -336h-314l276 336h452zM596 1470v-1470h-496v1470h496z" />
    <glyph glyph-name="Icircumflex" unicode="&#xce;" horiz-adv-x="1140" 
d="M570 1752l-176 -162h-294l268 336h404l268 -336h-294zM818 1470v-1470h-496v1470h496z" />
    <glyph glyph-name="Idieresis" unicode="&#xcf;" horiz-adv-x="1044" 
d="M288 1574q-81 0 -134.5 51.5t-53.5 132.5q0 83 53.5 135.5t134.5 52.5q82 0 136 -52.5t54 -135.5q0 -82 -54 -133t-136 -51zM756 1574q-82 0 -136 51t-54 133q0 83 54 135.5t136 52.5q81 0 134.5 -52.5t53.5 -135.5q0 -81 -53.5 -132.5t-134.5 -51.5zM770 1470v-1470
h-496v1470h496z" />
    <glyph glyph-name="Eth" unicode="&#xd0;" horiz-adv-x="1936" 
d="M1438 1382q190 -91 294 -256t104 -388q0 -227 -106 -394q-105 -166 -292 -255t-432 -89h-724v602h-182v286h182v582h724q244 0 432 -88zM1170 426q80 39 123 119t43 193q0 112 -44 188q-88 158 -306 158h-208v-196h310v-286h-310v-216h208q104 0 184 40z" />
    <glyph glyph-name="Ntilde" unicode="&#xd1;" horiz-adv-x="1648" 
d="M994 1570q-57 0 -117.5 31t-110.5 62t-82 31q-40 0 -65 -27t-31 -77h-224q5 168 81.5 266t208.5 98q45 0 93.5 -19.5t82.5 -42.5t71.5 -42.5t62.5 -19.5q43 0 68.5 26t27.5 70h224q-2 -161 -80 -258.5t-210 -97.5zM582 668v-668h-482v1470h408l558 -668v668h482v-1470
h-406z" />
    <glyph glyph-name="Ograve" unicode="&#xd2;" horiz-adv-x="1860" 
d="M874 1926l276 -336h-314l-414 336h452zM932 -34q-178 0 -330 56.5t-266 161.5q-113 107 -174.5 247.5t-61.5 304.5q0 329 236 552q113 104 265.5 160t328.5 56q362 0 594 -216q236 -220 236 -552q0 -164 -61 -305t-175 -247q-112 -105 -264 -161.5t-328 -56.5zM930 368
q146 0 238 101.5t92 266.5q0 164 -92 265t-238 101q-145 0 -237.5 -101t-92.5 -265q0 -165 92.5 -266.5t237.5 -101.5z" />
    <glyph glyph-name="Oacute" unicode="&#xd3;" horiz-adv-x="1860" 
d="M1438 1926l-414 -336h-314l276 336h452zM932 -34q-178 0 -330 56.5t-266 161.5q-113 107 -174.5 247.5t-61.5 304.5q0 329 236 552q113 104 265.5 160t328.5 56q362 0 594 -216q236 -220 236 -552q0 -164 -61 -305t-175 -247q-112 -105 -264 -161.5t-328 -56.5zM930 368
q146 0 238 101.5t92 266.5q0 164 -92 265t-238 101q-145 0 -237.5 -101t-92.5 -265q0 -165 92.5 -266.5t237.5 -101.5z" />
    <glyph glyph-name="Ocircumflex" unicode="&#xd4;" horiz-adv-x="1860" 
d="M930 1752l-176 -162h-294l268 336h404l268 -336h-294zM932 -34q-178 0 -330 56.5t-266 161.5q-113 107 -174.5 247.5t-61.5 304.5q0 329 236 552q113 104 265.5 160t328.5 56q362 0 594 -216q236 -220 236 -552q0 -164 -61 -305t-175 -247q-112 -105 -264 -161.5
t-328 -56.5zM930 368q146 0 238 101.5t92 266.5q0 164 -92 265t-238 101q-145 0 -237.5 -101t-92.5 -265q0 -165 92.5 -266.5t237.5 -101.5z" />
    <glyph glyph-name="Otilde" unicode="&#xd5;" horiz-adv-x="1860" 
d="M1100 1570q-57 0 -117.5 31t-110.5 62t-82 31q-40 0 -65 -27t-31 -77h-224q5 168 81.5 266t208.5 98q45 0 93.5 -19.5t82.5 -42.5t71.5 -42.5t62.5 -19.5q43 0 68.5 26t27.5 70h224q-2 -161 -80 -258.5t-210 -97.5zM932 -34q-178 0 -330 56.5t-266 161.5
q-113 107 -174.5 247.5t-61.5 304.5q0 329 236 552q113 104 265.5 160t328.5 56q362 0 594 -216q236 -220 236 -552q0 -164 -61 -305t-175 -247q-112 -105 -264 -161.5t-328 -56.5zM930 368q146 0 238 101.5t92 266.5q0 164 -92 265t-238 101q-145 0 -237.5 -101t-92.5 -265
q0 -165 92.5 -266.5t237.5 -101.5z" />
    <glyph glyph-name="Odieresis" unicode="&#xd6;" horiz-adv-x="1860" 
d="M696 1574q-81 0 -134.5 51.5t-53.5 132.5q0 83 53.5 135.5t134.5 52.5q82 0 136 -52.5t54 -135.5q0 -82 -54 -133t-136 -51zM1164 1574q-82 0 -136 51t-54 133q0 83 54 135.5t136 52.5q81 0 134.5 -52.5t53.5 -135.5q0 -81 -53.5 -132.5t-134.5 -51.5zM932 -34
q-178 0 -330 56.5t-266 161.5q-113 107 -174.5 247.5t-61.5 304.5q0 329 236 552q113 104 265.5 160t328.5 56q362 0 594 -216q236 -220 236 -552q0 -164 -61 -305t-175 -247q-112 -105 -264 -161.5t-328 -56.5zM930 368q146 0 238 101.5t92 266.5q0 164 -92 265t-238 101
q-145 0 -237.5 -101t-92.5 -265q0 -165 92.5 -266.5t237.5 -101.5z" />
    <glyph glyph-name="multiply" unicode="&#xd7;" horiz-adv-x="1315" 
d="M405 1240l252 -252l-252 -252l-252 252zM909 1240l252 -252l-252 -252l-252 252zM405 736l252 -252l-252 -252l-252 252zM909 736l252 -252l-252 -252l-252 252z" />
    <glyph glyph-name="Oslash" unicode="&#xd8;" horiz-adv-x="1860" 
d="M1484 1324l40 -36q236 -220 236 -552q0 -164 -61 -305t-175 -247q-112 -105 -264 -161.5t-328 -56.5q-198 0 -362 70l-130 -184h-272l210 296l-42 36q-113 107 -174.5 247.5t-61.5 304.5q0 329 236 552q113 104 265.5 160t328.5 56q195 0 362 -68l128 182h272zM600 736
q0 -113 48 -206l394 554q-51 18 -112 18q-145 0 -237.5 -101t-92.5 -265zM930 368q146 0 238 101.5t92 266.5q0 114 -48 204l-394 -554q51 -18 112 -18z" />
    <glyph glyph-name="Ugrave" unicode="&#xd9;" 
d="M764 1926l276 -336h-314l-414 336h452zM816 -34q-339 0 -527.5 183t-188.5 513v808h494v-794q0 -308 226 -308q110 0 167 73t57 235v794h488v-808q0 -330 -189 -513t-527 -183z" />
    <glyph glyph-name="Uacute" unicode="&#xda;" 
d="M1328 1926l-414 -336h-314l276 336h452zM816 -34q-339 0 -527.5 183t-188.5 513v808h494v-794q0 -308 226 -308q110 0 167 73t57 235v794h488v-808q0 -330 -189 -513t-527 -183z" />
    <glyph glyph-name="Ucircumflex" unicode="&#xdb;" 
d="M820 1752l-176 -162h-294l268 336h404l268 -336h-294zM816 -34q-339 0 -527.5 183t-188.5 513v808h494v-794q0 -308 226 -308q110 0 167 73t57 235v794h488v-808q0 -330 -189 -513t-527 -183z" />
    <glyph glyph-name="Udieresis" unicode="&#xdc;" 
d="M586 1574q-81 0 -134.5 51.5t-53.5 132.5q0 83 53.5 135.5t134.5 52.5q82 0 136 -52.5t54 -135.5q0 -82 -54 -133t-136 -51zM1054 1574q-82 0 -136 51t-54 133q0 83 54 135.5t136 52.5q81 0 134.5 -52.5t53.5 -135.5q0 -81 -53.5 -132.5t-134.5 -51.5zM816 -34
q-339 0 -527.5 183t-188.5 513v808h494v-794q0 -308 226 -308q110 0 167 73t57 235v794h488v-808q0 -330 -189 -513t-527 -183z" />
    <glyph glyph-name="Yacute" unicode="&#xdd;" horiz-adv-x="1804" 
d="M1410 1926l-414 -336h-314l276 336h452zM1150 534v-534h-496v540l-554 930h522l300 -508l302 508h480z" />
    <glyph glyph-name="Thorn" unicode="&#xde;" horiz-adv-x="1578" 
d="M596 220v-220h-496v1472h496v-142h212q201 0 356 -68q151 -68 232.5 -193t81.5 -295q0 -169 -82 -294q-83 -126 -233 -193t-355 -67h-212zM776 948h-180v-346h180q100 0 151 45.5t51 126.5q0 83 -51 128.5t-151 45.5z" />
    <glyph glyph-name="germandbls" unicode="&#xdf;" horiz-adv-x="1550" 
d="M898 -22q-64 0 -138.5 10t-119.5 24l48 362q72 -26 138 -26q63 0 102.5 29t39.5 83q0 110 -160 110h-108v356q74 5 118 44.5t44 103.5q0 63 -38 101.5t-100 38.5q-70 0 -110 -41t-40 -117v-1056h-474v992q0 194 86 324q82 129 223 196.5t313 67.5q188 0 324 -62
q131 -63 201.5 -166.5t70.5 -231.5q0 -165 -136 -288q130 -51 199 -149t69 -235q0 -147 -68 -252q-69 -107 -192.5 -162.5t-291.5 -55.5z" />
    <glyph glyph-name="agrave" unicode="&#xe0;" horiz-adv-x="1404" 
d="M670 1610l276 -336h-314l-414 336h452zM638 -6q-151 0 -270 44q-127 48 -197.5 136t-70.5 200q0 97 62 188q126 186 502 186h212q-6 56 -58.5 94t-113.5 38q-177 0 -210 -94l-326 164q67 114 205.5 174t330.5 60q281 0 440.5 -126t159.5 -350v-706h-374v44
q-128 -52 -292 -52zM664 286q189 0 260 126v48h-256q-106 0 -148 -20t-42 -62q0 -92 186 -92z" />
    <glyph glyph-name="aacute" unicode="&#xe1;" horiz-adv-x="1404" 
d="M1234 1610l-414 -336h-314l276 336h452zM638 -6q-151 0 -270 44q-127 48 -197.5 136t-70.5 200q0 97 62 188q126 186 502 186h212q-6 56 -58.5 94t-113.5 38q-177 0 -210 -94l-326 164q67 114 205.5 174t330.5 60q281 0 440.5 -126t159.5 -350v-706h-374v44
q-128 -52 -292 -52zM664 286q189 0 260 126v48h-256q-106 0 -148 -20t-42 -62q0 -92 186 -92z" />
    <glyph glyph-name="acircumflex" unicode="&#xe2;" horiz-adv-x="1404" 
d="M726 1436l-176 -162h-294l268 336h404l268 -336h-294zM638 -6q-151 0 -270 44q-127 48 -197.5 136t-70.5 200q0 97 62 188q126 186 502 186h212q-6 56 -58.5 94t-113.5 38q-177 0 -210 -94l-326 164q67 114 205.5 174t330.5 60q281 0 440.5 -126t159.5 -350v-706h-374v44
q-128 -52 -292 -52zM664 286q189 0 260 126v48h-256q-106 0 -148 -20t-42 -62q0 -92 186 -92z" />
    <glyph glyph-name="atilde" unicode="&#xe3;" horiz-adv-x="1404" 
d="M896 1254q-57 0 -117.5 31t-110.5 62t-82 31q-40 0 -65 -27t-31 -77h-224q5 168 81.5 266t208.5 98q45 0 93.5 -19.5t82.5 -42.5t71.5 -42.5t62.5 -19.5q43 0 68.5 26t27.5 70h224q-2 -161 -80 -258.5t-210 -97.5zM638 -6q-151 0 -270 44q-127 48 -197.5 136t-70.5 200
q0 97 62 188q126 186 502 186h212q-6 56 -58.5 94t-113.5 38q-177 0 -210 -94l-326 164q67 114 205.5 174t330.5 60q281 0 440.5 -126t159.5 -350v-706h-374v44q-128 -52 -292 -52zM664 286q189 0 260 126v48h-256q-106 0 -148 -20t-42 -62q0 -92 186 -92z" />
    <glyph glyph-name="adieresis" unicode="&#xe4;" horiz-adv-x="1404" 
d="M492 1258q-81 0 -134.5 51.5t-53.5 132.5q0 83 53.5 135.5t134.5 52.5q82 0 136 -52.5t54 -135.5q0 -82 -54 -133t-136 -51zM960 1258q-82 0 -136 51t-54 133q0 83 54 135.5t136 52.5q81 0 134.5 -52.5t53.5 -135.5q0 -81 -53.5 -132.5t-134.5 -51.5zM638 -6
q-151 0 -270 44q-127 48 -197.5 136t-70.5 200q0 97 62 188q126 186 502 186h212q-6 56 -58.5 94t-113.5 38q-177 0 -210 -94l-326 164q67 114 205.5 174t330.5 60q281 0 440.5 -126t159.5 -350v-706h-374v44q-128 -52 -292 -52zM664 286q189 0 260 126v48h-256
q-106 0 -148 -20t-42 -62q0 -92 186 -92z" />
    <glyph glyph-name="aring" unicode="&#xe5;" horiz-adv-x="1404" 
d="M726 1240q-123 0 -208.5 81t-85.5 199q0 120 85.5 201t208.5 81t208.5 -81t85.5 -201q0 -118 -85.5 -199t-208.5 -81zM726 1408q50 0 82 31.5t32 80.5q0 51 -32 82.5t-82 31.5q-46 0 -80 -32t-34 -82q0 -48 34 -80t80 -32zM638 -6q-151 0 -270 44q-127 48 -197.5 136
t-70.5 200q0 97 62 188q126 186 502 186h212q-6 56 -58.5 94t-113.5 38q-177 0 -210 -94l-326 164q67 114 205.5 174t330.5 60q281 0 440.5 -126t159.5 -350v-706h-374v44q-128 -52 -292 -52zM664 286q189 0 260 126v48h-256q-106 0 -148 -20t-42 -62q0 -92 186 -92z" />
    <glyph glyph-name="ae" unicode="&#xe6;" horiz-adv-x="2214" 
d="M620 -22q-242 0 -381 102t-139 272q0 106 58 182q116 154 468 154h188q-26 128 -212 128q-82 0 -161 -23.5t-135 -66.5l-152 314q100 62 238 96t278 34q266 0 418 -126q170 126 402 126q255 0 434 -152q190 -164 190 -438q0 -75 -8 -120h-796q48 -130 226 -130
q125 0 242 84l248 -250q-180 -186 -496 -186q-129 0 -246 36q-147 45 -240 138q-12 -16 -34 -38q-139 -136 -390 -136zM1300 688h360q-14 74 -61 116t-117 42q-72 0 -120 -42t-62 -116zM674 264q68 0 106 42t38 114v40h-118q-144 0 -144 -96q0 -46 30.5 -73t87.5 -27z" />
    <glyph glyph-name="ccedilla" unicode="&#xe7;" horiz-adv-x="1444" 
d="M776 348q132 0 200 152l368 -180q-53 -149 -187.5 -238.5t-324.5 -101.5l-20 -90q92 -11 135 -58.5t43 -109.5q0 -104 -96.5 -165t-259.5 -61q-53 0 -111.5 12.5t-94.5 31.5l58 174q77 -24 126 -24q58 0 78 14q24 15 24 36q0 19 -20 28q-20 14 -66 14h-86l50 216
q-89 18 -164 56q-155 77 -241.5 213t-86.5 309q0 171 88 308q88 135 241.5 210.5t348.5 75.5q209 0 359 -90.5t207 -249.5l-368 -182q-68 152 -200 152q-88 0 -141 -60t-53 -164q0 -107 53 -167.5t141 -60.5z" />
    <glyph glyph-name="egrave" unicode="&#xe8;" horiz-adv-x="1484" 
d="M686 1610l276 -336h-314l-414 336h452zM796 -22q-213 0 -366 78q-158 78 -244 213.5t-86 306.5q0 170 86 308q86 135 234.5 210.5t331.5 75.5q166 0 314 -68q149 -70 233.5 -203.5t84.5 -322.5q0 -44 -8 -112h-794q22 -65 81 -99.5t147 -34.5q76 0 127 19t113 65
l248 -250q-174 -186 -502 -186zM570 694h370q-14 71 -62.5 111.5t-121.5 40.5q-74 0 -122.5 -40.5t-63.5 -111.5z" />
    <glyph glyph-name="eacute" unicode="&#xe9;" horiz-adv-x="1484" 
d="M1250 1610l-414 -336h-314l276 336h452zM796 -22q-213 0 -366 78q-158 78 -244 213.5t-86 306.5q0 170 86 308q86 135 234.5 210.5t331.5 75.5q166 0 314 -68q149 -70 233.5 -203.5t84.5 -322.5q0 -44 -8 -112h-794q22 -65 81 -99.5t147 -34.5q76 0 127 19t113 65
l248 -250q-174 -186 -502 -186zM570 694h370q-14 71 -62.5 111.5t-121.5 40.5q-74 0 -122.5 -40.5t-63.5 -111.5z" />
    <glyph glyph-name="ecircumflex" unicode="&#xea;" horiz-adv-x="1484" 
d="M742 1436l-176 -162h-294l268 336h404l268 -336h-294zM796 -22q-213 0 -366 78q-158 78 -244 213.5t-86 306.5q0 170 86 308q86 135 234.5 210.5t331.5 75.5q166 0 314 -68q149 -70 233.5 -203.5t84.5 -322.5q0 -44 -8 -112h-794q22 -65 81 -99.5t147 -34.5q76 0 127 19
t113 65l248 -250q-174 -186 -502 -186zM570 694h370q-14 71 -62.5 111.5t-121.5 40.5q-74 0 -122.5 -40.5t-63.5 -111.5z" />
    <glyph glyph-name="edieresis" unicode="&#xeb;" horiz-adv-x="1484" 
d="M508 1258q-81 0 -134.5 51.5t-53.5 132.5q0 83 53.5 135.5t134.5 52.5q82 0 136 -52.5t54 -135.5q0 -82 -54 -133t-136 -51zM976 1258q-82 0 -136 51t-54 133q0 83 54 135.5t136 52.5q81 0 134.5 -52.5t53.5 -135.5q0 -81 -53.5 -132.5t-134.5 -51.5zM796 -22
q-213 0 -366 78q-158 78 -244 213.5t-86 306.5q0 170 86 308q86 135 234.5 210.5t331.5 75.5q166 0 314 -68q149 -70 233.5 -203.5t84.5 -322.5q0 -44 -8 -112h-794q22 -65 81 -99.5t147 -34.5q76 0 127 19t113 65l248 -250q-174 -186 -502 -186zM570 694h370
q-14 71 -62.5 111.5t-121.5 40.5q-74 0 -122.5 -40.5t-63.5 -111.5z" />
    <glyph glyph-name="igrave" unicode="&#xec;" horiz-adv-x="946" 
d="M552 1610l276 -336h-314l-414 336h452zM846 1148v-1148h-474v1148h474z" />
    <glyph glyph-name="iacute" unicode="&#xed;" horiz-adv-x="944" 
d="M844 1610l-414 -336h-314l276 336h452zM574 1148v-1148h-474v1148h474z" />
    <glyph glyph-name="icircumflex" unicode="&#xee;" horiz-adv-x="1036" 
d="M518 1416l-124 -142h-294l220 336h396l220 -336h-294zM756 1148v-1148h-474v1148h474z" />
    <glyph glyph-name="idieresis" unicode="&#xef;" horiz-adv-x="940" 
d="M274 1258q-75 0 -124.5 51.5t-49.5 132.5q0 83 49.5 135.5t124.5 52.5t123.5 -52t48.5 -136q0 -82 -48 -133t-124 -51zM668 1258q-76 0 -125 51t-49 133q0 83 49 135.5t125 52.5q74 0 123 -52.5t49 -135.5q0 -82 -49 -133t-123 -51zM708 1148v-1148h-474v1148h474z" />
    <glyph glyph-name="eth" unicode="&#xf0;" horiz-adv-x="1532" 
d="M708 -34q-173 0 -308 66q-141 64 -220.5 180t-79.5 268q0 146 72 248q69 106 187.5 165t258.5 59q104 0 188 -26q62 -19 122 -62q-6 113 -42 194q-12 29 -40 64l-488 -176l-74 190l308 112q-52 4 -78 4q-140 0 -254 -38l-44 342q162 36 328 36q274 0 476 -98
q46 -25 92 -58l196 72l74 -192l-108 -38q158 -220 158 -568q0 -234 -90 -402q-90 -165 -253.5 -253.5t-380.5 -88.5zM744 308q70 0 116 41t46 109q0 67 -46 109.5t-116 42.5q-69 0 -114.5 -42t-45.5 -110t45.5 -109t114.5 -41z" />
    <glyph glyph-name="ntilde" unicode="&#xf1;" horiz-adv-x="1468" 
d="M910 1254q-57 0 -117.5 31t-110.5 62t-82 31q-40 0 -65 -27t-31 -77h-224q5 168 81.5 266t208.5 98q45 0 93.5 -19.5t82.5 -42.5t71.5 -42.5t62.5 -19.5q43 0 68.5 26t27.5 70h224q-2 -161 -80 -258.5t-210 -97.5zM574 540v-540h-474v1148h450v-114q133 136 348 136
q131 0 238 -52q232 -116 232 -462v-656h-476v574q0 196 -140 196q-86 0 -132 -57.5t-46 -172.5z" />
    <glyph glyph-name="ograve" unicode="&#xf2;" horiz-adv-x="1536" 
d="M706 1610l276 -336h-314l-414 336h452zM768 -22q-197 0 -344 78q-153 78 -238.5 212.5t-85.5 307.5q0 170 86 308q88 135 239 210.5t343 75.5q194 0 346 -76q153 -76 237.5 -210.5t84.5 -307.5q0 -172 -84 -310q-87 -135 -239 -211.5t-345 -76.5zM768 348q84 0 135 61.5
t51 166.5q0 104 -50.5 164t-135.5 60t-135.5 -60t-50.5 -164q0 -105 51 -166.5t135 -61.5z" />
    <glyph glyph-name="oacute" unicode="&#xf3;" horiz-adv-x="1536" 
d="M1270 1610l-414 -336h-314l276 336h452zM768 -22q-197 0 -344 78q-153 78 -238.5 212.5t-85.5 307.5q0 170 86 308q88 135 239 210.5t343 75.5q194 0 346 -76q153 -76 237.5 -210.5t84.5 -307.5q0 -172 -84 -310q-87 -135 -239 -211.5t-345 -76.5zM768 348q84 0 135 61.5
t51 166.5q0 104 -50.5 164t-135.5 60t-135.5 -60t-50.5 -164q0 -105 51 -166.5t135 -61.5z" />
    <glyph glyph-name="ocircumflex" unicode="&#xf4;" horiz-adv-x="1536" 
d="M762 1436l-176 -162h-294l268 336h404l268 -336h-294zM768 -22q-197 0 -344 78q-153 78 -238.5 212.5t-85.5 307.5q0 170 86 308q88 135 239 210.5t343 75.5q194 0 346 -76q153 -76 237.5 -210.5t84.5 -307.5q0 -172 -84 -310q-87 -135 -239 -211.5t-345 -76.5zM768 348
q84 0 135 61.5t51 166.5q0 104 -50.5 164t-135.5 60t-135.5 -60t-50.5 -164q0 -105 51 -166.5t135 -61.5z" />
    <glyph glyph-name="otilde" unicode="&#xf5;" horiz-adv-x="1536" 
d="M932 1254q-57 0 -117.5 31t-110.5 62t-82 31q-40 0 -65 -27t-31 -77h-224q5 168 81.5 266t208.5 98q45 0 93.5 -19.5t82.5 -42.5t71.5 -42.5t62.5 -19.5q43 0 68.5 26t27.5 70h224q-2 -161 -80 -258.5t-210 -97.5zM768 -22q-197 0 -344 78q-153 78 -238.5 212.5
t-85.5 307.5q0 170 86 308q88 135 239 210.5t343 75.5q194 0 346 -76q153 -76 237.5 -210.5t84.5 -307.5q0 -172 -84 -310q-87 -135 -239 -211.5t-345 -76.5zM768 348q84 0 135 61.5t51 166.5q0 104 -50.5 164t-135.5 60t-135.5 -60t-50.5 -164q0 -105 51 -166.5t135 -61.5z
" />
    <glyph glyph-name="odieresis" unicode="&#xf6;" horiz-adv-x="1536" 
d="M528 1258q-81 0 -134.5 51.5t-53.5 132.5q0 83 53.5 135.5t134.5 52.5q82 0 136 -52.5t54 -135.5q0 -82 -54 -133t-136 -51zM996 1258q-82 0 -136 51t-54 133q0 83 54 135.5t136 52.5q81 0 134.5 -52.5t53.5 -135.5q0 -81 -53.5 -132.5t-134.5 -51.5zM768 -22
q-197 0 -344 78q-153 78 -238.5 212.5t-85.5 307.5q0 170 86 308q88 135 239 210.5t343 75.5q194 0 346 -76q153 -76 237.5 -210.5t84.5 -307.5q0 -172 -84 -310q-87 -135 -239 -211.5t-345 -76.5zM768 348q84 0 135 61.5t51 166.5q0 104 -50.5 164t-135.5 60t-135.5 -60
t-50.5 -164q0 -105 51 -166.5t135 -61.5z" />
    <glyph glyph-name="divide" unicode="&#xf7;" horiz-adv-x="1384" 
d="M693 970q-101 0 -168.5 65.5t-67.5 166.5t67 163.5t169 62.5q101 0 167.5 -62.5t66.5 -163.5t-67 -166.5t-167 -65.5zM1227 914v-358h-1070v358h1070zM693 42q-101 0 -168.5 65.5t-67.5 166.5t67 163.5t169 62.5q101 0 167.5 -62.5t66.5 -163.5t-67 -166.5t-167 -65.5z
" />
    <glyph glyph-name="oslash" unicode="&#xf8;" horiz-adv-x="1536" 
d="M1124 1282h200l-146 -224q124 -80 191 -204.5t67 -277.5q0 -172 -84 -310q-87 -135 -239 -211.5t-345 -76.5q-142 0 -262 42l-108 -168h-200l158 244q-123 80 -189.5 203.5t-66.5 276.5q0 170 86 308q88 135 239 210.5t343 75.5q138 0 258 -40zM582 576q0 -55 16 -106
l212 326q-28 4 -42 4q-85 0 -135.5 -60t-50.5 -164zM768 348q84 0 135 61.5t51 166.5q0 60 -18 108l-214 -330q21 -6 46 -6z" />
    <glyph glyph-name="ugrave" unicode="&#xf9;" horiz-adv-x="1460" 
d="M674 1610l276 -336h-314l-414 336h452zM584 -22q-133 0 -246 58q-238 121 -238 478v634h476v-552q0 -117 37.5 -167.5t110.5 -50.5q76 0 119 60t43 172v538h474v-1148h-450v110q-129 -132 -326 -132z" />
    <glyph glyph-name="uacute" unicode="&#xfa;" horiz-adv-x="1460" 
d="M1238 1610l-414 -336h-314l276 336h452zM584 -22q-133 0 -246 58q-238 121 -238 478v634h476v-552q0 -117 37.5 -167.5t110.5 -50.5q76 0 119 60t43 172v538h474v-1148h-450v110q-129 -132 -326 -132z" />
    <glyph glyph-name="ucircumflex" unicode="&#xfb;" horiz-adv-x="1460" 
d="M730 1436l-176 -162h-294l268 336h404l268 -336h-294zM584 -22q-133 0 -246 58q-238 121 -238 478v634h476v-552q0 -117 37.5 -167.5t110.5 -50.5q76 0 119 60t43 172v538h474v-1148h-450v110q-129 -132 -326 -132z" />
    <glyph glyph-name="udieresis" unicode="&#xfc;" horiz-adv-x="1460" 
d="M496 1258q-81 0 -134.5 51.5t-53.5 132.5q0 83 53.5 135.5t134.5 52.5q82 0 136 -52.5t54 -135.5q0 -82 -54 -133t-136 -51zM964 1258q-82 0 -136 51t-54 133q0 83 54 135.5t136 52.5q81 0 134.5 -52.5t53.5 -135.5q0 -81 -53.5 -132.5t-134.5 -51.5zM584 -22
q-133 0 -246 58q-238 121 -238 478v634h476v-552q0 -117 37.5 -167.5t110.5 -50.5q76 0 119 60t43 172v538h474v-1148h-450v110q-129 -132 -326 -132z" />
    <glyph glyph-name="yacute" unicode="&#xfd;" horiz-adv-x="1616" 
d="M1298 1610l-414 -336h-314l276 336h452zM1516 1148l-678 -1676h-462l204 522l-480 1154h488l238 -614l240 614h450z" />
    <glyph glyph-name="thorn" unicode="&#xfe;" horiz-adv-x="1520" 
d="M574 80v-488h-474v1966h474v-480q101 92 292 92q150 0 276 -72q130 -74 204 -209t74 -315q0 -184 -76 -318q-75 -133 -200 -205.5t-276 -72.5q-152 0 -248 66q-15 9 -46 36zM752 348q85 0 136.5 61t51.5 165t-51.5 165t-136.5 61t-135.5 -61t-50.5 -165t50.5 -165
t135.5 -61z" />
    <glyph glyph-name="ydieresis" unicode="&#xff;" horiz-adv-x="1616" 
d="M556 1258q-81 0 -134.5 51.5t-53.5 132.5q0 83 53.5 135.5t134.5 52.5q82 0 136 -52.5t54 -135.5q0 -82 -54 -133t-136 -51zM1024 1258q-82 0 -136 51t-54 133q0 83 54 135.5t136 52.5q81 0 134.5 -52.5t53.5 -135.5q0 -81 -53.5 -132.5t-134.5 -51.5zM1516 1148
l-678 -1676h-462l204 522l-480 1154h488l238 -614l240 614h450z" />
    <glyph glyph-name="Amacron" unicode="&#x100;" horiz-adv-x="1972" 
d="M1428 1882v-248h-882v248h882zM720 300l-116 -300h-504l642 1470h488l642 -1470h-512l-116 300h-524zM1108 658l-126 324l-126 -324h252z" />
    <glyph glyph-name="amacron" unicode="&#x101;" horiz-adv-x="1404" 
d="M1168 1566v-248h-882v248h882zM638 -6q-151 0 -270 44q-127 48 -197.5 136t-70.5 200q0 97 62 188q126 186 502 186h212q-6 56 -58.5 94t-113.5 38q-177 0 -210 -94l-326 164q67 114 205.5 174t330.5 60q281 0 440.5 -126t159.5 -350v-706h-374v44q-128 -52 -292 -52z
M664 286q189 0 260 126v48h-256q-106 0 -148 -20t-42 -62q0 -92 186 -92z" />
    <glyph glyph-name="Abreve" unicode="&#x102;" horiz-adv-x="1972" 
d="M986 1570q-191 0 -311 96t-127 260h282q4 -57 47.5 -92.5t108.5 -35.5t108.5 35.5t47.5 92.5h282q-7 -164 -127 -260t-311 -96zM720 300l-116 -300h-504l642 1470h488l642 -1470h-512l-116 300h-524zM1108 658l-126 324l-126 -324h252z" />
    <glyph glyph-name="abreve" unicode="&#x103;" horiz-adv-x="1404" 
d="M726 1254q-191 0 -311 96t-127 260h282q4 -57 47.5 -92.5t108.5 -35.5t108.5 35.5t47.5 92.5h282q-7 -164 -127 -260t-311 -96zM638 -6q-151 0 -270 44q-127 48 -197.5 136t-70.5 200q0 97 62 188q126 186 502 186h212q-6 56 -58.5 94t-113.5 38q-177 0 -210 -94
l-326 164q67 114 205.5 174t330.5 60q281 0 440.5 -126t159.5 -350v-706h-374v44q-128 -52 -292 -52zM664 286q189 0 260 126v48h-256q-106 0 -148 -20t-42 -62q0 -92 186 -92z" />
    <glyph glyph-name="Aogonek" unicode="&#x104;" horiz-adv-x="2024" 
d="M1868 -260l56 -196q-38 -21 -103.5 -34.5t-132.5 -13.5q-156 0 -244 69.5t-88 188.5q0 75 42 144q33 57 96 102h-134l-116 300h-524l-116 -300h-504l642 1470h488l642 -1470q-121 -53 -180.5 -100.5t-59.5 -103.5q0 -38 28 -62t84 -24q64 0 124 30zM1108 658l-126 324
l-126 -324h252z" />
    <glyph glyph-name="aogonek" unicode="&#x105;" horiz-adv-x="1446" 
d="M1290 -260l56 -196q-38 -21 -103.5 -34.5t-132.5 -13.5q-156 0 -244 69.5t-88 188.5q0 75 42 144q41 66 110 112v36q-128 -52 -292 -52q-151 0 -270 44q-127 48 -197.5 136t-70.5 200q0 97 62 188q126 186 502 186h212q-6 56 -58.5 94t-113.5 38q-177 0 -210 -94
l-326 164q67 114 205.5 174t330.5 60q281 0 440.5 -126t159.5 -350v-706h-14l4 -2q-121 -53 -180.5 -100.5t-59.5 -103.5q0 -38 28 -62t84 -24q64 0 124 30zM924 412v48h-256q-106 0 -148 -20t-42 -62q0 -92 186 -92q189 0 260 126z" />
    <glyph glyph-name="Cacute" unicode="&#x106;" horiz-adv-x="1680" 
d="M1426 1928l-414 -336h-314l276 336h452zM920 -34q-353 0 -586 214q-112 106 -173 247t-61 309q0 166 61 307t173 247q233 214 586 214q215 0 382.5 -75.5t277.5 -218.5l-314 -280q-134 172 -320 172q-156 0 -251 -100t-95 -266q0 -168 95 -268t251 -100q186 0 320 172
l314 -280q-111 -142 -279 -218t-381 -76z" />
    <glyph glyph-name="cacute" unicode="&#x107;" horiz-adv-x="1444" 
d="M1244 1610l-414 -336h-314l276 336h452zM778 -22q-195 0 -350 76q-155 77 -241.5 213t-86.5 309q0 171 88 308q88 135 241.5 210.5t348.5 75.5q209 0 359 -90.5t207 -249.5l-368 -182q-68 152 -200 152q-88 0 -141 -60t-53 -164q0 -107 53 -167.5t141 -60.5
q132 0 200 152l368 -180q-57 -160 -207 -251t-359 -91z" />
    <glyph glyph-name="Ccircumflex" unicode="&#x108;" horiz-adv-x="1680" 
d="M918 1754l-176 -162h-294l268 336h404l268 -336h-294zM920 -34q-353 0 -586 214q-112 106 -173 247t-61 309q0 166 61 307t173 247q233 214 586 214q215 0 382.5 -75.5t277.5 -218.5l-314 -280q-134 172 -320 172q-156 0 -251 -100t-95 -266q0 -168 95 -268t251 -100
q186 0 320 172l314 -280q-111 -142 -279 -218t-381 -76z" />
    <glyph glyph-name="ccircumflex" unicode="&#x109;" horiz-adv-x="1444" 
d="M736 1436l-176 -162h-294l268 336h404l268 -336h-294zM778 -22q-195 0 -350 76q-155 77 -241.5 213t-86.5 309q0 171 88 308q88 135 241.5 210.5t348.5 75.5q209 0 359 -90.5t207 -249.5l-368 -182q-68 152 -200 152q-88 0 -141 -60t-53 -164q0 -107 53 -167.5t141 -60.5
q132 0 200 152l368 -180q-57 -160 -207 -251t-359 -91z" />
    <glyph glyph-name="Cdotaccent" unicode="&#x10a;" horiz-adv-x="1680" 
d="M918 1572q-105 0 -172.5 67t-67.5 173q0 105 67.5 171.5t172.5 66.5t172.5 -66.5t67.5 -171.5q0 -106 -67.5 -173t-172.5 -67zM920 -34q-353 0 -586 214q-112 106 -173 247t-61 309q0 166 61 307t173 247q233 214 586 214q215 0 382.5 -75.5t277.5 -218.5l-314 -280
q-134 172 -320 172q-156 0 -251 -100t-95 -266q0 -168 95 -268t251 -100q186 0 320 172l314 -280q-111 -142 -279 -218t-381 -76z" />
    <glyph glyph-name="cdotaccent" unicode="&#x10b;" horiz-adv-x="1444" 
d="M736 1254q-105 0 -172.5 67t-67.5 173q0 105 67.5 171.5t172.5 66.5t172.5 -66.5t67.5 -171.5q0 -106 -67.5 -173t-172.5 -67zM778 -22q-195 0 -350 76q-155 77 -241.5 213t-86.5 309q0 171 88 308q88 135 241.5 210.5t348.5 75.5q209 0 359 -90.5t207 -249.5l-368 -182
q-68 152 -200 152q-88 0 -141 -60t-53 -164q0 -107 53 -167.5t141 -60.5q132 0 200 152l368 -180q-57 -160 -207 -251t-359 -91z" />
    <glyph glyph-name="Ccaron" unicode="&#x10c;" horiz-adv-x="1680" 
d="M1388 1928l-268 -336h-404l-268 336h294l176 -160l176 160h294zM920 -34q-353 0 -586 214q-112 106 -173 247t-61 309q0 166 61 307t173 247q233 214 586 214q215 0 382.5 -75.5t277.5 -218.5l-314 -280q-134 172 -320 172q-156 0 -251 -100t-95 -266q0 -168 95 -268
t251 -100q186 0 320 172l314 -280q-111 -142 -279 -218t-381 -76z" />
    <glyph glyph-name="ccaron" unicode="&#x10d;" horiz-adv-x="1444" 
d="M1206 1610l-268 -336h-404l-268 336h294l176 -160l176 160h294zM778 -22q-195 0 -350 76q-155 77 -241.5 213t-86.5 309q0 171 88 308q88 135 241.5 210.5t348.5 75.5q209 0 359 -90.5t207 -249.5l-368 -182q-68 152 -200 152q-88 0 -141 -60t-53 -164q0 -107 53 -167.5
t141 -60.5q132 0 200 152l368 -180q-57 -160 -207 -251t-359 -91z" />
    <glyph glyph-name="Dcaron" unicode="&#x10e;" horiz-adv-x="1754" 
d="M1204 1926l-268 -336h-404l-268 336h294l176 -160l176 160h294zM824 0h-724v1470h724q244 0 432 -88q190 -91 294 -256t104 -388q0 -227 -106 -394q-105 -166 -292 -255t-432 -89zM804 1084h-208v-698h208q104 0 184 40q80 39 123 119t43 193q0 112 -44 188
q-88 158 -306 158z" />
    <glyph glyph-name="dcaron" unicode="&#x10f;" horiz-adv-x="2006" 
d="M1906 1664l-64 -442h-268v442h332zM656 -22q-147 0 -276 74q-131 76 -205.5 210t-74.5 314q0 181 76 318q76 132 202.5 204t277.5 72q148 0 246 -64q16 -10 44 -34v398h476v-1470h-452v94q-104 -116 -314 -116zM768 348q85 0 136.5 62t51.5 166t-51.5 164t-136.5 60
q-84 0 -135 -60t-51 -164t51.5 -166t134.5 -62z" />
    <glyph glyph-name="Dcroat" unicode="&#x110;" horiz-adv-x="1936" 
d="M1438 1382q190 -91 294 -256t104 -388q0 -227 -106 -394q-105 -166 -292 -255t-432 -89h-724v602h-182v286h182v582h724q244 0 432 -88zM1170 426q80 39 123 119t43 193q0 112 -44 188q-88 158 -306 158h-208v-196h310v-286h-310v-216h208q104 0 184 40z" />
    <glyph glyph-name="dcroat" unicode="&#x111;" horiz-adv-x="1630" 
d="M1422 1470v-12h108v-230h-108v-1228h-452v94q-104 -116 -314 -116q-147 0 -276 74q-131 76 -205.5 210t-74.5 314q0 181 76 318q76 132 202.5 204t277.5 72q148 0 246 -64q16 -10 44 -34v156h-316v230h316v12h476zM768 348q85 0 136.5 62t51.5 166t-51.5 164t-136.5 60
q-84 0 -135 -60t-51 -164t51.5 -166t134.5 -62z" />
    <glyph glyph-name="Emacron" unicode="&#x112;" horiz-adv-x="1438" 
d="M1140 1882v-248h-882v248h882zM1336 374v-374h-1236v1470h1238v-374h-752v-184h666v-358h-666v-180h750z" />
    <glyph glyph-name="emacron" unicode="&#x113;" horiz-adv-x="1484" 
d="M1184 1566v-248h-882v248h882zM796 -22q-213 0 -366 78q-158 78 -244 213.5t-86 306.5q0 170 86 308q86 135 234.5 210.5t331.5 75.5q166 0 314 -68q149 -70 233.5 -203.5t84.5 -322.5q0 -44 -8 -112h-794q22 -65 81 -99.5t147 -34.5q76 0 127 19t113 65l248 -250
q-174 -186 -502 -186zM570 694h370q-14 71 -62.5 111.5t-121.5 40.5q-74 0 -122.5 -40.5t-63.5 -111.5z" />
    <glyph glyph-name="Ebreve" unicode="&#x114;" horiz-adv-x="1438" 
d="M698 1570q-191 0 -311 96t-127 260h282q4 -57 47.5 -92.5t108.5 -35.5t108.5 35.5t47.5 92.5h282q-7 -164 -127 -260t-311 -96zM1336 374v-374h-1236v1470h1238v-374h-752v-184h666v-358h-666v-180h750z" />
    <glyph glyph-name="ebreve" unicode="&#x115;" horiz-adv-x="1484" 
d="M742 1254q-191 0 -311 96t-127 260h282q4 -57 47.5 -92.5t108.5 -35.5t108.5 35.5t47.5 92.5h282q-7 -164 -127 -260t-311 -96zM796 -22q-213 0 -366 78q-158 78 -244 213.5t-86 306.5q0 170 86 308q86 135 234.5 210.5t331.5 75.5q166 0 314 -68q149 -70 233.5 -203.5
t84.5 -322.5q0 -44 -8 -112h-794q22 -65 81 -99.5t147 -34.5q76 0 127 19t113 65l248 -250q-174 -186 -502 -186zM570 694h370q-14 71 -62.5 111.5t-121.5 40.5q-74 0 -122.5 -40.5t-63.5 -111.5z" />
    <glyph glyph-name="Edotaccent" unicode="&#x116;" horiz-adv-x="1438" 
d="M698 1570q-105 0 -172.5 67t-67.5 173q0 105 67.5 171.5t172.5 66.5t172.5 -66.5t67.5 -171.5q0 -106 -67.5 -173t-172.5 -67zM1336 374v-374h-1236v1470h1238v-374h-752v-184h666v-358h-666v-180h750z" />
    <glyph glyph-name="edotaccent" unicode="&#x117;" horiz-adv-x="1484" 
d="M742 1254q-105 0 -172.5 67t-67.5 173q0 105 67.5 171.5t172.5 66.5t172.5 -66.5t67.5 -171.5q0 -106 -67.5 -173t-172.5 -67zM796 -22q-213 0 -366 78q-158 78 -244 213.5t-86 306.5q0 170 86 308q86 135 234.5 210.5t331.5 75.5q166 0 314 -68q149 -70 233.5 -203.5
t84.5 -322.5q0 -44 -8 -112h-794q22 -65 81 -99.5t147 -34.5q76 0 127 19t113 65l248 -250q-174 -186 -502 -186zM570 694h370q-14 71 -62.5 111.5t-121.5 40.5q-74 0 -122.5 -40.5t-63.5 -111.5z" />
    <glyph glyph-name="Eogonek" unicode="&#x118;" horiz-adv-x="1474" 
d="M1318 -260l56 -196q-38 -21 -103.5 -34.5t-132.5 -13.5q-156 0 -244 69.5t-88 188.5q0 75 42 144q33 57 96 102h-844v1470h1238v-374h-752v-184h666v-358h-666v-180h750v-374h-14q-121 -53 -180.5 -100.5t-59.5 -103.5q0 -38 28 -62t84 -24q64 0 124 30z" />
    <glyph glyph-name="eogonek" unicode="&#x119;" horiz-adv-x="1484" 
d="M1030 -504q-156 0 -244 71t-88 193q0 60 28.5 117t79.5 101h-10q-213 0 -366 78q-158 78 -244 213.5t-86 306.5q0 170 86 308q86 135 234.5 210.5t331.5 75.5q166 0 314 -68q149 -70 233.5 -203.5t84.5 -322.5q0 -44 -8 -112h-794q22 -65 81 -99.5t147 -34.5q76 0 127 19
t113 65l250 -250q-44 -44 -92 -78q-93 -58 -148 -110q-84 -79 -84 -162q0 -46 31 -75t85 -29q60 0 120 30l56 -196q-38 -21 -104.5 -34.5t-133.5 -13.5zM570 694h370q-14 71 -62.5 111.5t-121.5 40.5q-74 0 -122.5 -40.5t-63.5 -111.5z" />
    <glyph glyph-name="Ecaron" unicode="&#x11a;" horiz-adv-x="1438" 
d="M1168 1926l-268 -336h-404l-268 336h294l176 -160l176 160h294zM1336 374v-374h-1236v1470h1238v-374h-752v-184h666v-358h-666v-180h750z" />
    <glyph glyph-name="ecaron" unicode="&#x11b;" horiz-adv-x="1484" 
d="M1212 1610l-268 -336h-404l-268 336h294l176 -160l176 160h294zM796 -22q-213 0 -366 78q-158 78 -244 213.5t-86 306.5q0 170 86 308q86 135 234.5 210.5t331.5 75.5q166 0 314 -68q149 -70 233.5 -203.5t84.5 -322.5q0 -44 -8 -112h-794q22 -65 81 -99.5t147 -34.5
q76 0 127 19t113 65l248 -250q-174 -186 -502 -186zM570 694h370q-14 71 -62.5 111.5t-121.5 40.5q-74 0 -122.5 -40.5t-63.5 -111.5z" />
    <glyph glyph-name="Gcircumflex" unicode="&#x11c;" horiz-adv-x="1704" 
d="M930 1754l-176 -162h-294l268 336h404l268 -336h-294zM922 -34q-355 0 -588 214q-112 106 -173 247t-61 309q0 339 234 554q236 214 598 214q217 0 388.5 -73t283.5 -211l-316 -280q-138 162 -330 162q-164 0 -261 -98.5t-97 -267.5q0 -165 96.5 -266.5t255.5 -101.5
q97 0 180 36v106h-200v358h630v-714q-132 -89 -303.5 -138.5t-336.5 -49.5z" />
    <glyph glyph-name="gcircumflex" unicode="&#x11d;" horiz-adv-x="1544" 
d="M802 1436l-176 -162h-294l268 336h404l268 -336h-294zM814 -436q-368 -9 -594 128l166 296q67 -45 175.5 -75t202.5 -33q238 6 302 186q-137 -64 -306 -64q-208 0 -334 74l-26 14q-143 83 -221.5 213t-78.5 289q0 163 88 304q88 133 238.5 206.5t333.5 73.5
q170 0 312 -68q3 -2 11 -5t11 -5v52h350v-904q0 -309 -164.5 -487.5t-465.5 -194.5zM806 362q119 0 196.5 63t77.5 163q0 102 -76 163t-198 61q-119 0 -198.5 -62t-79.5 -162q0 -99 79.5 -162.5t198.5 -63.5z" />
    <glyph glyph-name="Gbreve" unicode="&#x11e;" horiz-adv-x="1704" 
d="M930 1572q-191 0 -311 96t-127 260h282q4 -57 47.5 -92.5t108.5 -35.5t108.5 35.5t47.5 92.5h282q-7 -164 -127 -260t-311 -96zM922 -34q-355 0 -588 214q-112 106 -173 247t-61 309q0 339 234 554q236 214 598 214q217 0 388.5 -73t283.5 -211l-316 -280
q-138 162 -330 162q-164 0 -261 -98.5t-97 -267.5q0 -165 96.5 -266.5t255.5 -101.5q97 0 180 36v106h-200v358h630v-714q-132 -89 -303.5 -138.5t-336.5 -49.5z" />
    <glyph glyph-name="gbreve" unicode="&#x11f;" horiz-adv-x="1544" 
d="M802 1254q-191 0 -311 96t-127 260h282q4 -57 47.5 -92.5t108.5 -35.5t108.5 35.5t47.5 92.5h282q-7 -164 -127 -260t-311 -96zM814 -436q-368 -9 -594 128l166 296q67 -45 175.5 -75t202.5 -33q238 6 302 186q-137 -64 -306 -64q-208 0 -334 74l-26 14
q-143 83 -221.5 213t-78.5 289q0 163 88 304q88 133 238.5 206.5t333.5 73.5q170 0 312 -68q3 -2 11 -5t11 -5v52h350v-904q0 -309 -164.5 -487.5t-465.5 -194.5zM806 362q119 0 196.5 63t77.5 163q0 102 -76 163t-198 61q-119 0 -198.5 -62t-79.5 -162q0 -99 79.5 -162.5
t198.5 -63.5z" />
    <glyph glyph-name="Gdotaccent" unicode="&#x120;" horiz-adv-x="1704" 
d="M930 1572q-105 0 -172.5 67t-67.5 173q0 105 67.5 171.5t172.5 66.5t172.5 -66.5t67.5 -171.5q0 -106 -67.5 -173t-172.5 -67zM922 -34q-355 0 -588 214q-112 106 -173 247t-61 309q0 339 234 554q236 214 598 214q217 0 388.5 -73t283.5 -211l-316 -280
q-138 162 -330 162q-164 0 -261 -98.5t-97 -267.5q0 -165 96.5 -266.5t255.5 -101.5q97 0 180 36v106h-200v358h630v-714q-132 -89 -303.5 -138.5t-336.5 -49.5z" />
    <glyph glyph-name="gdotaccent" unicode="&#x121;" horiz-adv-x="1544" 
d="M802 1254q-105 0 -172.5 67t-67.5 173q0 105 67.5 171.5t172.5 66.5t172.5 -66.5t67.5 -171.5q0 -106 -67.5 -173t-172.5 -67zM814 -436q-368 -9 -594 128l166 296q67 -45 175.5 -75t202.5 -33q238 6 302 186q-137 -64 -306 -64q-208 0 -334 74l-26 14
q-143 83 -221.5 213t-78.5 289q0 163 88 304q88 133 238.5 206.5t333.5 73.5q170 0 312 -68q3 -2 11 -5t11 -5v52h350v-904q0 -309 -164.5 -487.5t-465.5 -194.5zM806 362q119 0 196.5 63t77.5 163q0 102 -76 163t-198 61q-119 0 -198.5 -62t-79.5 -162q0 -99 79.5 -162.5
t198.5 -63.5z" />
    <glyph glyph-name="Hcircumflex" unicode="&#x124;" horiz-adv-x="1648" 
d="M824 1752l-176 -162h-294l268 336h404l268 -336h-294zM596 530v-530h-496v1470h496v-534h458v534h494v-1470h-494v530h-458z" />
    <glyph glyph-name="hcircumflex" unicode="&#x125;" horiz-adv-x="1702" 
d="M570 1840l-176 -162h-294l268 336h404l268 -336h-294zM808 540v-540h-474v1470h474v-414q132 114 324 114q131 0 238 -52q232 -116 232 -462v-656h-476v574q0 196 -140 196q-86 0 -132 -57.5t-46 -172.5z" />
    <glyph glyph-name="Hbar" unicode="&#x126;" horiz-adv-x="2012" 
d="M1730 1470v-120h182v-286h-182v-1064h-494v530h-458v-530h-496v1064h-182v286h182v120h496v-120h458v120h494zM778 1064v-128h458v128h-458z" />
    <glyph glyph-name="hbar" unicode="&#x127;" horiz-adv-x="1574" 
d="M1242 1118q232 -116 232 -462v-656h-476v574q0 196 -140 196q-86 0 -132 -57.5t-46 -172.5v-540h-474v1228h-106v230h106v12h474v-12h320v-230h-320v-172q132 114 324 114q131 0 238 -52z" />
    <glyph glyph-name="Itilde" unicode="&#x128;" horiz-adv-x="1120" 
d="M730 1570q-57 0 -117.5 31t-110.5 62t-82 31q-40 0 -65 -27t-31 -77h-224q5 168 81.5 266t208.5 98q45 0 93.5 -19.5t82.5 -42.5t71.5 -42.5t62.5 -19.5q43 0 68.5 26t27.5 70h224q-2 -161 -80 -258.5t-210 -97.5zM808 1470v-1470h-496v1470h496z" />
    <glyph glyph-name="itilde" unicode="&#x129;" horiz-adv-x="992" 
d="M650 1254q-40 0 -83.5 21t-74.5 46t-63 46t-51 21q-58 0 -58 -114h-220q0 181 61.5 272.5t180.5 91.5q40 0 83.5 -21t74.5 -46t63 -46t51 -21q58 0 58 106h220q0 -175 -61.5 -265.5t-180.5 -90.5zM734 1148v-1148h-474v1148h474z" />
    <glyph glyph-name="Imacron" unicode="&#x12a;" horiz-adv-x="914" 
d="M814 1880v-248h-714v248h714zM704 1470v-1470h-496v1470h496z" />
    <glyph glyph-name="imacron" unicode="&#x12b;" horiz-adv-x="914" 
d="M814 1566v-248h-714v248h714zM694 1148v-1148h-474v1148h474z" />
    <glyph glyph-name="Ibreve" unicode="&#x12c;" horiz-adv-x="1076" 
d="M538 1570q-191 0 -311 96t-127 260h282q4 -57 47.5 -92.5t108.5 -35.5t108.5 35.5t47.5 92.5h282q-7 -164 -127 -260t-311 -96zM786 1470v-1470h-496v1470h496z" />
    <glyph glyph-name="ibreve" unicode="&#x12d;" horiz-adv-x="972" 
d="M486 1254q-167 0 -274.5 96.5t-111.5 259.5h272q0 -59 30 -95.5t84 -36.5t84 36.5t30 95.5h272q-1 -163 -108.5 -259.5t-277.5 -96.5zM724 1148v-1148h-474v1148h474z" />
    <glyph glyph-name="Iogonek" unicode="&#x12e;" horiz-adv-x="748" 
d="M594 -266l54 -190q-72 -48 -178 -48q-137 0 -219.5 71t-82.5 191q0 137 114 242h-182v1470h496v-1470q-83 -52 -116.5 -97.5t-33.5 -102.5q0 -39 23.5 -64.5t56.5 -25.5q41 0 68 24z" />
    <glyph glyph-name="iogonek" unicode="&#x12f;" horiz-adv-x="776" 
d="M386 1242q-128 0 -207 68t-79 172q0 105 78.5 173.5t207.5 68.5t207.5 -64.5t78.5 -167.5q0 -111 -78.5 -180.5t-207.5 -69.5zM622 -266l54 -190q-72 -48 -178 -48q-137 0 -219.5 71t-82.5 191q0 137 114 242h-160v1148h474v-1148q-83 -52 -116.5 -97.5t-33.5 -102.5
q0 -39 23.5 -64.5t56.5 -25.5q41 0 68 24z" />
    <glyph glyph-name="Idotaccent" unicode="&#x130;" horiz-adv-x="696" 
d="M348 1570q-105 0 -172.5 67t-67.5 173q0 105 67.5 171.5t172.5 66.5t172.5 -66.5t67.5 -171.5q0 -106 -67.5 -173t-172.5 -67zM596 1470v-1470h-496v1470h496z" />
    <glyph glyph-name="dotlessi" unicode="&#x131;" horiz-adv-x="674" 
d="M574 1148v-1148h-474v1148h474z" />
    <glyph glyph-name="IJ" unicode="&#x132;" horiz-adv-x="1558" 
d="M722 -34q-184 0 -344.5 47.5t-277.5 130.5l180 352q104 -64 215 -99t205 -35q136 0 199 70.5t63 223.5v814h496v-788q0 -228 -90 -390q-91 -158 -258 -242t-388 -84zM636 1470v-764h-494v764h494z" />
    <glyph glyph-name="ij" unicode="&#x133;" horiz-adv-x="1474" 
d="M386 1232q-128 0 -207 68t-79 172q0 105 78.5 173.5t207.5 68.5t207.5 -64.5t78.5 -167.5q0 -111 -78.5 -180.5t-207.5 -69.5zM1088 1228q-128 0 -207 68t-79 172q0 105 78.5 173.5t207.5 68.5t207.5 -64.5t78.5 -167.5q0 -111 -78.5 -180.5t-207.5 -69.5zM624 1148
v-1148h-474v1148h474zM822 -428q-87 0 -181 15t-147 41l114 330q53 -28 144 -28q44 0 71 33.5t27 100.5v1082h474v-1088q0 -224 -133 -355t-369 -131z" />
    <glyph glyph-name="Jcircumflex" unicode="&#x134;" 
d="M754 1752l-176 -162h-294l268 336h404l268 -336h-294zM816 -34q-339 0 -527.5 183t-188.5 513h496q5 -294 224 -294q110 0 167 73t57 235v794h488v-808q0 -330 -188.5 -513t-527.5 -183z" />
    <glyph glyph-name="jcircumflex" unicode="&#x135;" horiz-adv-x="1212" 
d="M694 1416l-124 -142h-294l220 336h396l220 -336h-294zM428 -428q-87 0 -181 15t-147 41l114 330q53 -28 144 -28q44 0 71 33.5t27 100.5v1082h474v-1088q0 -224 -133 -355t-369 -131z" />
    <glyph glyph-name="kgreenlandic" unicode="&#x138;" horiz-adv-x="1602" 
d="M574 270v-270h-474v1148h474v-334l330 334h560l-474 -496l512 -652h-574l-278 352z" />
    <glyph glyph-name="Lacute" unicode="&#x139;" horiz-adv-x="1436" 
d="M856 1926l-414 -336h-314l276 336h452zM1336 374v-374h-1236v1470h486v-1096h750z" />
    <glyph glyph-name="lacute" unicode="&#x13a;" horiz-adv-x="944" 
d="M844 2020l-414 -336h-314l276 336h452zM574 1470v-1470h-474v1470h474z" />
    <glyph glyph-name="Lcaron" unicode="&#x13d;" horiz-adv-x="1436" 
d="M1200 1576l-64 -442h-268v442h332zM1336 374v-374h-1236v1470h486v-1096h750z" />
    <glyph glyph-name="lcaron" unicode="&#x13e;" horiz-adv-x="1152" 
d="M1052 1664l-64 -442h-268v442h332zM574 1470v-1470h-474v1470h474z" />
    <glyph glyph-name="Ldot" unicode="&#x13f;" horiz-adv-x="1436" 
d="M1336 374v-374h-1236v1470h486v-1096h750zM996 686q-105 0 -171.5 67t-66.5 173q0 105 66.5 171.5t171.5 66.5q106 0 173 -66.5t67 -171.5q0 -106 -67 -173t-173 -67z" />
    <glyph glyph-name="ldot" unicode="&#x140;" horiz-adv-x="1184" 
d="M574 1470v-1470h-474v1470h474zM868 562q-95 0 -154.5 60t-59.5 156q0 94 60 154t154 60q96 0 156 -59.5t60 -154.5q0 -96 -60 -156t-156 -60z" />
    <glyph glyph-name="Lslash" unicode="&#x141;" horiz-adv-x="1674" 
d="M1182 1122l-358 -266v-482h750v-374h-1236v494l-90 -66l-148 210l238 176v656h486v-296l212 158z" />
    <glyph glyph-name="lslash" unicode="&#x142;" horiz-adv-x="1172" 
d="M824 1110l100 74l148 -210l-248 -184v-790h-474v440l-102 -76l-148 210l250 186v710h474v-360z" />
    <glyph glyph-name="Nacute" unicode="&#x143;" horiz-adv-x="1648" 
d="M1332 1926l-414 -336h-314l276 336h452zM582 668v-668h-482v1470h408l558 -668v668h482v-1470h-406z" />
    <glyph glyph-name="nacute" unicode="&#x144;" horiz-adv-x="1468" 
d="M1248 1610l-414 -336h-314l276 336h452zM574 540v-540h-474v1148h450v-114q133 136 348 136q131 0 238 -52q232 -116 232 -462v-656h-476v574q0 196 -140 196q-86 0 -132 -57.5t-46 -172.5z" />
    <glyph glyph-name="Ncaron" unicode="&#x147;" horiz-adv-x="1648" 
d="M1294 1926l-268 -336h-404l-268 336h294l176 -160l176 160h294zM582 668v-668h-482v1470h408l558 -668v668h482v-1470h-406z" />
    <glyph glyph-name="ncaron" unicode="&#x148;" horiz-adv-x="1468" 
d="M1210 1610l-268 -336h-404l-268 336h294l176 -160l176 160h294zM574 540v-540h-474v1148h450v-114q133 136 348 136q131 0 238 -52q232 -116 232 -462v-656h-476v574q0 196 -140 196q-86 0 -132 -57.5t-46 -172.5z" />
    <glyph glyph-name="napostrophe" unicode="&#x149;" horiz-adv-x="2020" 
d="M572 1036l-146 -314h-294l106 356q-65 32 -101.5 92t-36.5 140q0 123 78 196.5t200 73.5q121 0 198.5 -74t77.5 -196q0 -56 -18 -117t-64 -157zM1126 540v-540h-474v1148h450v-114q133 136 348 136q131 0 238 -52q232 -116 232 -462v-656h-476v574q0 196 -140 196
q-86 0 -132 -57.5t-46 -172.5z" />
    <glyph glyph-name="Eng" unicode="&#x14a;" horiz-adv-x="1648" 
d="M948 -428q-248 0 -414 106l228 332q73 -52 144 -52q140 0 158 136l-482 574v-668h-482v1470h408l558 -668v668h482v-1256q0 -330 -150 -486t-450 -156z" />
    <glyph glyph-name="eng" unicode="&#x14b;" horiz-adv-x="1468" 
d="M866 -428q-177 0 -292 56l114 330q50 -28 106 -28q44 0 71 33.5t27 100.5v510q0 196 -140 196q-86 0 -132 -57.5t-46 -172.5v-540h-474v1148h450v-114q133 136 348 136q131 0 238 -52q232 -116 232 -462v-598q0 -224 -133.5 -355t-368.5 -131z" />
    <glyph glyph-name="Omacron" unicode="&#x14c;" horiz-adv-x="1860" 
d="M1372 1882v-248h-882v248h882zM932 -34q-178 0 -330 56.5t-266 161.5q-113 107 -174.5 247.5t-61.5 304.5q0 329 236 552q113 104 265.5 160t328.5 56q362 0 594 -216q236 -220 236 -552q0 -164 -61 -305t-175 -247q-112 -105 -264 -161.5t-328 -56.5zM930 368
q146 0 238 101.5t92 266.5q0 164 -92 265t-238 101q-145 0 -237.5 -101t-92.5 -265q0 -165 92.5 -266.5t237.5 -101.5z" />
    <glyph glyph-name="omacron" unicode="&#x14d;" horiz-adv-x="1536" 
d="M1204 1566v-248h-882v248h882zM768 -22q-197 0 -344 78q-153 78 -238.5 212.5t-85.5 307.5q0 170 86 308q88 135 239 210.5t343 75.5q194 0 346 -76q153 -76 237.5 -210.5t84.5 -307.5q0 -172 -84 -310q-87 -135 -239 -211.5t-345 -76.5zM768 348q84 0 135 61.5t51 166.5
q0 104 -50.5 164t-135.5 60t-135.5 -60t-50.5 -164q0 -105 51 -166.5t135 -61.5z" />
    <glyph glyph-name="Obreve" unicode="&#x14e;" horiz-adv-x="1860" 
d="M930 1570q-191 0 -311 96t-127 260h282q4 -57 47.5 -92.5t108.5 -35.5t108.5 35.5t47.5 92.5h282q-7 -164 -127 -260t-311 -96zM932 -34q-178 0 -330 56.5t-266 161.5q-113 107 -174.5 247.5t-61.5 304.5q0 329 236 552q113 104 265.5 160t328.5 56q362 0 594 -216
q236 -220 236 -552q0 -164 -61 -305t-175 -247q-112 -105 -264 -161.5t-328 -56.5zM930 368q146 0 238 101.5t92 266.5q0 164 -92 265t-238 101q-145 0 -237.5 -101t-92.5 -265q0 -165 92.5 -266.5t237.5 -101.5z" />
    <glyph glyph-name="obreve" unicode="&#x14f;" horiz-adv-x="1536" 
d="M762 1254q-191 0 -311 96t-127 260h282q4 -57 47.5 -92.5t108.5 -35.5t108.5 35.5t47.5 92.5h282q-7 -164 -127 -260t-311 -96zM768 -22q-197 0 -344 78q-153 78 -238.5 212.5t-85.5 307.5q0 170 86 308q88 135 239 210.5t343 75.5q194 0 346 -76q153 -76 237.5 -210.5
t84.5 -307.5q0 -172 -84 -310q-87 -135 -239 -211.5t-345 -76.5zM768 348q84 0 135 61.5t51 166.5q0 104 -50.5 164t-135.5 60t-135.5 -60t-50.5 -164q0 -105 51 -166.5t135 -61.5z" />
    <glyph glyph-name="Ohungarumlaut" unicode="&#x150;" horiz-adv-x="1860" 
d="M1046 1926l-204 -336h-316l110 336h410zM1536 1926l-202 -336h-316l110 336h408zM932 -34q-178 0 -330 56.5t-266 161.5q-113 107 -174.5 247.5t-61.5 304.5q0 329 236 552q113 104 265.5 160t328.5 56q362 0 594 -216q236 -220 236 -552q0 -164 -61 -305t-175 -247
q-112 -105 -264 -161.5t-328 -56.5zM930 368q146 0 238 101.5t92 266.5q0 164 -92 265t-238 101q-145 0 -237.5 -101t-92.5 -265q0 -165 92.5 -266.5t237.5 -101.5z" />
    <glyph glyph-name="ohungarumlaut" unicode="&#x151;" horiz-adv-x="1536" 
d="M878 1610l-204 -336h-316l110 336h410zM1368 1610l-202 -336h-316l110 336h408zM768 -22q-197 0 -344 78q-153 78 -238.5 212.5t-85.5 307.5q0 170 86 308q88 135 239 210.5t343 75.5q194 0 346 -76q153 -76 237.5 -210.5t84.5 -307.5q0 -172 -84 -310
q-87 -135 -239 -211.5t-345 -76.5zM768 348q84 0 135 61.5t51 166.5q0 104 -50.5 164t-135.5 60t-135.5 -60t-50.5 -164q0 -105 51 -166.5t135 -61.5z" />
    <glyph glyph-name="OE" unicode="&#x152;" horiz-adv-x="2482" 
d="M2382 374v-374h-1452q-246 0 -432 90q-190 90 -294 256t-104 392q0 223 106 390q106 164 292.5 253t431.5 89h1424v-374h-708v-172h622v-356h-622v-194h736zM952 386h208v698h-208q-107 0 -184 -40q-80 -39 -124 -117.5t-44 -188.5t44 -192q45 -78 124.5 -119t183.5 -41z
" />
    <glyph glyph-name="oe" unicode="&#x153;" horiz-adv-x="2342" 
d="M760 -22q-191 0 -338 78q-152 78 -237 212.5t-85 307.5q0 170 86 308q88 135 237.5 210.5t336.5 75.5q186 0 326 -76q56 -31 100 -72q163 148 422 148q164 0 312 -68q150 -70 236 -203t86 -317q0 -73 -8 -118h-804q52 -134 234 -134q68 0 121.5 20t114.5 64l254 -250
q-87 -90 -216.5 -138t-285.5 -48q-205 0 -352 78q-70 38 -110 76q-163 -154 -430 -154zM1422 694h368q-12 71 -60 111.5t-122 40.5t-123 -40.5t-63 -111.5zM768 348q84 0 135 61.5t51 166.5q0 104 -50.5 164t-135.5 60t-135.5 -60t-50.5 -164q0 -105 51 -166.5t135 -61.5z
" />
    <glyph glyph-name="Racute" unicode="&#x154;" horiz-adv-x="1614" 
d="M1284 1926l-414 -336h-314l276 336h452zM596 362v-362h-496v1470h744q201 0 356 -68q151 -68 232.5 -193t81.5 -293q0 -169 -82 -294q-84 -125 -222 -188l298 -434h-528l-244 362h-140zM812 1088h-216v-344h216q100 0 151 45t51 127q0 81 -51 126.5t-151 45.5z" />
    <glyph glyph-name="racute" unicode="&#x155;" horiz-adv-x="1116" 
d="M1016 1610l-414 -336h-314l276 336h452zM574 510v-510h-474v1148h450v-124q125 146 372 146v-420q-56 8 -104 8q-244 0 -244 -248z" />
    <glyph glyph-name="Rcaron" unicode="&#x158;" horiz-adv-x="1614" 
d="M1246 1926l-268 -336h-404l-268 336h294l176 -160l176 160h294zM596 362v-362h-496v1470h744q201 0 356 -68q151 -68 232.5 -193t81.5 -293q0 -169 -82 -294q-84 -125 -222 -188l298 -434h-528l-244 362h-140zM812 1088h-216v-344h216q100 0 151 45t51 127
q0 81 -51 126.5t-151 45.5z" />
    <glyph glyph-name="rcaron" unicode="&#x159;" horiz-adv-x="1140" 
d="M1040 1610l-268 -336h-404l-268 336h294l176 -160l176 160h294zM636 510v-510h-474v1148h450v-124q125 146 372 146v-420q-56 8 -104 8q-244 0 -244 -248z" />
    <glyph glyph-name="Sacute" unicode="&#x15a;" horiz-adv-x="1524" 
d="M1270 1926l-414 -336h-314l276 336h452zM740 -34q-182 0 -354.5 41.5t-285.5 110.5l158 360q108 -62 237 -98t249 -36q192 0 192 80q0 39 -44 64q-13 6 -27.5 12t-34.5 11.5t-34.5 9.5t-42.5 10t-41 9t-48 10t-48 10q-86 18 -152.5 39t-133.5 57t-110.5 82t-70.5 115
t-27 155q0 136 78 250q77 116 231.5 181t376.5 65q325 0 554 -128l-150 -360q-214 110 -410 110q-90 0 -140 -24t-50 -68q0 -37 44 -60q27 -13 77.5 -26t83 -19.5t117.5 -22.5q84 -17 151 -38.5t132.5 -57.5t109 -82t70.5 -114t27 -152q0 -138 -76 -246
q-80 -117 -233.5 -183.5t-374.5 -66.5z" />
    <glyph glyph-name="sacute" unicode="&#x15b;" horiz-adv-x="1314" 
d="M1154 1610l-414 -336h-314l276 336h452zM620 -22q-144 0 -287 32t-233 82l130 314q81 -49 189 -76.5t211 -27.5q91 0 118 16q30 15 30 40q0 15 -16.5 26.5t-48 18t-61 10.5t-71 8t-61.5 7q-70 9 -125.5 23t-109.5 40.5t-89.5 63.5t-57.5 93.5t-22 129.5q0 106 68 196
q68 92 200 144t320 52q132 0 257.5 -24t210.5 -70l-130 -314q-150 84 -332 84q-87 0 -122 -16q-32 -15 -32 -38q0 -15 15.5 -26.5t50 -19t59 -11t73 -8.5t62.5 -7q69 -10 123.5 -24.5t107.5 -41t88.5 -63.5t57 -94t21.5 -129q0 -105 -64 -192q-67 -93 -201 -145.5
t-329 -52.5z" />
    <glyph glyph-name="Scircumflex" unicode="&#x15c;" horiz-adv-x="1524" 
d="M762 1752l-176 -162h-294l268 336h404l268 -336h-294zM740 -34q-182 0 -354.5 41.5t-285.5 110.5l158 360q108 -62 237 -98t249 -36q192 0 192 80q0 39 -44 64q-13 6 -27.5 12t-34.5 11.5t-34.5 9.5t-42.5 10t-41 9t-48 10t-48 10q-86 18 -152.5 39t-133.5 57t-110.5 82
t-70.5 115t-27 155q0 136 78 250q77 116 231.5 181t376.5 65q325 0 554 -128l-150 -360q-214 110 -410 110q-90 0 -140 -24t-50 -68q0 -37 44 -60q27 -13 77.5 -26t83 -19.5t117.5 -22.5q84 -17 151 -38.5t132.5 -57.5t109 -82t70.5 -114t27 -152q0 -138 -76 -246
q-80 -117 -233.5 -183.5t-374.5 -66.5z" />
    <glyph glyph-name="scircumflex" unicode="&#x15d;" horiz-adv-x="1314" 
d="M646 1436l-176 -162h-294l268 336h404l268 -336h-294zM620 -22q-144 0 -287 32t-233 82l130 314q81 -49 189 -76.5t211 -27.5q91 0 118 16q30 15 30 40q0 15 -16.5 26.5t-48 18t-61 10.5t-71 8t-61.5 7q-70 9 -125.5 23t-109.5 40.5t-89.5 63.5t-57.5 93.5t-22 129.5
q0 106 68 196q68 92 200 144t320 52q132 0 257.5 -24t210.5 -70l-130 -314q-150 84 -332 84q-87 0 -122 -16q-32 -15 -32 -38q0 -15 15.5 -26.5t50 -19t59 -11t73 -8.5t62.5 -7q69 -10 123.5 -24.5t107.5 -41t88.5 -63.5t57 -94t21.5 -129q0 -105 -64 -192
q-67 -93 -201 -145.5t-329 -52.5z" />
    <glyph glyph-name="Scedilla" unicode="&#x15e;" horiz-adv-x="1524" 
d="M934 906q84 -17 151 -38.5t132.5 -57.5t109 -82t70.5 -114t27 -152q0 -138 -76 -246q-141 -206 -476 -244l-18 -82q92 -11 135 -58.5t43 -109.5q0 -104 -96.5 -165t-259.5 -61q-53 0 -111.5 12.5t-94.5 31.5l58 174q77 -24 126 -24q58 0 78 14q24 15 24 36q0 19 -20 28
q-20 14 -66 14h-86l44 188q-154 12 -293.5 51.5t-234.5 96.5l158 360q108 -62 237 -98t249 -36q192 0 192 80q0 39 -44 64q-13 6 -27.5 12t-34.5 11.5t-34.5 9.5t-42.5 10t-41 9t-48 10t-48 10q-86 18 -152.5 39t-133.5 57t-110.5 82t-70.5 115t-27 155q0 136 78 250
q77 116 231.5 181t376.5 65q325 0 554 -128l-150 -360q-214 110 -410 110q-90 0 -140 -24t-50 -68q0 -37 44 -60q27 -13 77.5 -26t83 -19.5t117.5 -22.5z" />
    <glyph glyph-name="scedilla" unicode="&#x15f;" horiz-adv-x="1314" 
d="M816 720q69 -10 123.5 -24.5t107.5 -41t88.5 -63.5t57 -94t21.5 -129q0 -105 -64 -192q-113 -158 -390 -190l-22 -96q92 -11 135 -58.5t43 -109.5q0 -104 -96.5 -165t-259.5 -61q-53 0 -111.5 12.5t-94.5 31.5l58 174q77 -24 126 -24q58 0 78 14q24 15 24 36q0 19 -20 28
q-20 14 -66 14h-86l46 200q-120 10 -231 39.5t-183 70.5l130 314q81 -49 189 -76.5t211 -27.5q91 0 118 16q30 15 30 40q0 15 -16.5 26.5t-48 18t-61 10.5t-71 8t-61.5 7q-70 9 -125.5 23t-109.5 40.5t-89.5 63.5t-57.5 93.5t-22 129.5q0 106 68 196q68 92 200 144t320 52
q132 0 257.5 -24t210.5 -70l-130 -314q-150 84 -332 84q-87 0 -122 -16q-32 -15 -32 -38q0 -15 15.5 -26.5t50 -19t59 -11t73 -8.5t62.5 -7z" />
    <glyph glyph-name="Scaron" unicode="&#x160;" horiz-adv-x="1524" 
d="M1232 1926l-268 -336h-404l-268 336h294l176 -160l176 160h294zM740 -34q-182 0 -354.5 41.5t-285.5 110.5l158 360q108 -62 237 -98t249 -36q192 0 192 80q0 39 -44 64q-13 6 -27.5 12t-34.5 11.5t-34.5 9.5t-42.5 10t-41 9t-48 10t-48 10q-86 18 -152.5 39t-133.5 57
t-110.5 82t-70.5 115t-27 155q0 136 78 250q77 116 231.5 181t376.5 65q325 0 554 -128l-150 -360q-214 110 -410 110q-90 0 -140 -24t-50 -68q0 -37 44 -60q27 -13 77.5 -26t83 -19.5t117.5 -22.5q84 -17 151 -38.5t132.5 -57.5t109 -82t70.5 -114t27 -152q0 -138 -76 -246
q-80 -117 -233.5 -183.5t-374.5 -66.5z" />
    <glyph glyph-name="scaron" unicode="&#x161;" horiz-adv-x="1314" 
d="M1116 1610l-268 -336h-404l-268 336h294l176 -160l176 160h294zM620 -22q-144 0 -287 32t-233 82l130 314q81 -49 189 -76.5t211 -27.5q91 0 118 16q30 15 30 40q0 15 -16.5 26.5t-48 18t-61 10.5t-71 8t-61.5 7q-70 9 -125.5 23t-109.5 40.5t-89.5 63.5t-57.5 93.5
t-22 129.5q0 106 68 196q68 92 200 144t320 52q132 0 257.5 -24t210.5 -70l-130 -314q-150 84 -332 84q-87 0 -122 -16q-32 -15 -32 -38q0 -15 15.5 -26.5t50 -19t59 -11t73 -8.5t62.5 -7q69 -10 123.5 -24.5t107.5 -41t88.5 -63.5t57 -94t21.5 -129q0 -105 -64 -192
q-67 -93 -201 -145.5t-329 -52.5z" />
    <glyph glyph-name="Tcaron" unicode="&#x164;" horiz-adv-x="1558" 
d="M1248 1926l-268 -336h-404l-268 336h294l176 -160l176 160h294zM1026 1086v-1086h-496v1086h-430v384h1358v-384h-432z" />
    <glyph glyph-name="tcaron" unicode="&#x165;" horiz-adv-x="1242" 
d="M1142 1620l-42 -442h-268v442h310zM760 -22q-243 0 -372.5 116.5t-129.5 351.5v342h-158v346h158v276h474v-276h236v-346h-236v-338q0 -51 27.5 -81.5t70.5 -30.5q61 0 108 32l114 -330q-109 -62 -292 -62z" />
    <glyph glyph-name="Tbar" unicode="&#x166;" horiz-adv-x="1558" 
d="M100 1470h1358v-384h-432v-282h246v-286h-246v-518h-496v518h-246v286h246v282h-430v384z" />
    <glyph glyph-name="tbar" unicode="&#x167;" horiz-adv-x="1152" 
d="M938 370l114 -330q-109 -62 -292 -62q-239 0 -368.5 113t-133.5 341h-130v230h130v126h-158v346h158v276h474v-276h236v-346h-236v-126h210v-230h-210q6 -44 32.5 -69t65.5 -25q61 0 108 32z" />
    <glyph glyph-name="Utilde" unicode="&#x168;" 
d="M990 1570q-57 0 -117.5 31t-110.5 62t-82 31q-40 0 -65 -27t-31 -77h-224q5 168 81.5 266t208.5 98q45 0 93.5 -19.5t82.5 -42.5t71.5 -42.5t62.5 -19.5q43 0 68.5 26t27.5 70h224q-2 -161 -80 -258.5t-210 -97.5zM816 -34q-339 0 -527.5 183t-188.5 513v808h494v-794
q0 -308 226 -308q110 0 167 73t57 235v794h488v-808q0 -330 -189 -513t-527 -183z" />
    <glyph glyph-name="utilde" unicode="&#x169;" horiz-adv-x="1460" 
d="M900 1254q-57 0 -117.5 31t-110.5 62t-82 31q-40 0 -65 -27t-31 -77h-224q5 168 81.5 266t208.5 98q45 0 93.5 -19.5t82.5 -42.5t71.5 -42.5t62.5 -19.5q43 0 68.5 26t27.5 70h224q-2 -161 -80 -258.5t-210 -97.5zM584 -22q-133 0 -246 58q-238 121 -238 478v634h476
v-552q0 -117 37.5 -167.5t110.5 -50.5q76 0 119 60t43 172v538h474v-1148h-450v110q-129 -132 -326 -132z" />
    <glyph glyph-name="Umacron" unicode="&#x16a;" 
d="M1262 1882v-248h-882v248h882zM816 -34q-339 0 -527.5 183t-188.5 513v808h494v-794q0 -308 226 -308q110 0 167 73t57 235v794h488v-808q0 -330 -189 -513t-527 -183z" />
    <glyph glyph-name="umacron" unicode="&#x16b;" horiz-adv-x="1460" 
d="M1172 1566v-248h-882v248h882zM584 -22q-133 0 -246 58q-238 121 -238 478v634h476v-552q0 -117 37.5 -167.5t110.5 -50.5q76 0 119 60t43 172v538h474v-1148h-450v110q-129 -132 -326 -132z" />
    <glyph glyph-name="Ubreve" unicode="&#x16c;" 
d="M820 1570q-191 0 -311 96t-127 260h282q4 -57 47.5 -92.5t108.5 -35.5t108.5 35.5t47.5 92.5h282q-7 -164 -127 -260t-311 -96zM816 -34q-339 0 -527.5 183t-188.5 513v808h494v-794q0 -308 226 -308q110 0 167 73t57 235v794h488v-808q0 -330 -189 -513t-527 -183z" />
    <glyph glyph-name="ubreve" unicode="&#x16d;" horiz-adv-x="1460" 
d="M730 1254q-191 0 -311 96t-127 260h282q4 -57 47.5 -92.5t108.5 -35.5t108.5 35.5t47.5 92.5h282q-7 -164 -127 -260t-311 -96zM584 -22q-133 0 -246 58q-238 121 -238 478v634h476v-552q0 -117 37.5 -167.5t110.5 -50.5q76 0 119 60t43 172v538h474v-1148h-450v110
q-129 -132 -326 -132z" />
    <glyph glyph-name="Uring" unicode="&#x16e;" 
d="M820 1562q-123 0 -208.5 81t-85.5 199q0 120 85.5 201t208.5 81t208.5 -81t85.5 -201q0 -118 -85.5 -199t-208.5 -81zM820 1730q50 0 82 31.5t32 80.5q0 51 -32 82.5t-82 31.5q-46 0 -80 -32t-34 -82q0 -48 34 -80t80 -32zM816 -34q-339 0 -527.5 183t-188.5 513v808h494
v-794q0 -308 226 -308q110 0 167 73t57 235v794h488v-808q0 -330 -189 -513t-527 -183z" />
    <glyph glyph-name="uring" unicode="&#x16f;" horiz-adv-x="1460" 
d="M730 1240q-123 0 -208.5 81t-85.5 199q0 120 85.5 201t208.5 81t208.5 -81t85.5 -201q0 -118 -85.5 -199t-208.5 -81zM730 1408q50 0 82 31.5t32 80.5q0 51 -32 82.5t-82 31.5q-46 0 -80 -32t-34 -82q0 -48 34 -80t80 -32zM584 -22q-133 0 -246 58q-238 121 -238 478v634
h476v-552q0 -117 37.5 -167.5t110.5 -50.5q76 0 119 60t43 172v538h474v-1148h-450v110q-129 -132 -326 -132z" />
    <glyph glyph-name="Uhungarumlaut" unicode="&#x170;" 
d="M936 1926l-204 -336h-316l110 336h410zM1426 1926l-202 -336h-316l110 336h408zM816 -34q-339 0 -527.5 183t-188.5 513v808h494v-794q0 -308 226 -308q110 0 167 73t57 235v794h488v-808q0 -330 -189 -513t-527 -183z" />
    <glyph glyph-name="uhungarumlaut" unicode="&#x171;" horiz-adv-x="1460" 
d="M846 1610l-204 -336h-316l110 336h410zM1336 1610l-202 -336h-316l110 336h408zM584 -22q-133 0 -246 58q-238 121 -238 478v634h476v-552q0 -117 37.5 -167.5t110.5 -50.5q76 0 119 60t43 172v538h474v-1148h-450v110q-129 -132 -326 -132z" />
    <glyph glyph-name="Uogonek" unicode="&#x172;" 
d="M890 -504q-156 0 -243 69t-87 189q0 75 42 144q28 45 66 78q-271 39 -419.5 217.5t-148.5 468.5v808h494v-794q0 -308 226 -308q110 0 167 73t57 235v794h488v-808q0 -250 -107.5 -411t-298.5 -237q-107 -40 -174 -82q-116 -67 -116 -136q0 -38 28 -62t84 -24
q64 0 124 30l56 -196q-38 -21 -104 -34.5t-134 -13.5z" />
    <glyph glyph-name="uogonek" unicode="&#x173;" horiz-adv-x="1512" 
d="M1356 -260l56 -196q-38 -21 -103.5 -34.5t-132.5 -13.5q-156 0 -244 69.5t-88 188.5q0 75 42 144q33 57 96 102h-72v110q-129 -132 -326 -132q-133 0 -246 58q-238 121 -238 478v634h476v-552q0 -117 37.5 -167.5t110.5 -50.5q76 0 119 60t43 172v538h474v-1148
q-121 -53 -180.5 -100.5t-59.5 -103.5q0 -38 28 -62t84 -24q64 0 124 30z" />
    <glyph glyph-name="Wcircumflex" unicode="&#x174;" horiz-adv-x="2690" 
d="M1344 1752l-176 -162h-294l268 336h404l268 -336h-294zM1350 786l-250 -786h-530l-470 1470h510l256 -836l270 836h456l256 -846l272 846h470l-470 -1470h-532z" />
    <glyph glyph-name="wcircumflex" unicode="&#x175;" horiz-adv-x="2276" 
d="M1138 1436l-176 -162h-294l268 336h404l268 -336h-294zM1142 532l-182 -532h-462l-398 1148h448l198 -606l206 606h404l198 -612l206 612h416l-398 -1148h-462z" />
    <glyph glyph-name="Ycircumflex" unicode="&#x176;" horiz-adv-x="1804" 
d="M902 1752l-176 -162h-294l268 336h404l268 -336h-294zM1150 534v-534h-496v540l-554 930h522l300 -508l302 508h480z" />
    <glyph glyph-name="ycircumflex" unicode="&#x177;" horiz-adv-x="1616" 
d="M790 1436l-176 -162h-294l268 336h404l268 -336h-294zM1516 1148l-678 -1676h-462l204 522l-480 1154h488l238 -614l240 614h450z" />
    <glyph glyph-name="Ydieresis" unicode="&#x178;" horiz-adv-x="1804" 
d="M668 1574q-81 0 -134.5 51.5t-53.5 132.5q0 83 53.5 135.5t134.5 52.5q82 0 136 -52.5t54 -135.5q0 -82 -54 -133t-136 -51zM1136 1574q-82 0 -136 51t-54 133q0 83 54 135.5t136 52.5q81 0 134.5 -52.5t53.5 -135.5q0 -81 -53.5 -132.5t-134.5 -51.5zM1150 534v-534
h-496v540l-554 930h522l300 -508l302 508h480z" />
    <glyph glyph-name="Zacute" unicode="&#x179;" horiz-adv-x="1550" 
d="M1284 1926l-414 -336h-314l276 336h452zM1450 384v-384h-1350v304l672 782h-652v384h1296v-304l-672 -782h706z" />
    <glyph glyph-name="zacute" unicode="&#x17a;" horiz-adv-x="1296" 
d="M1152 1610l-414 -336h-314l276 336h452zM1196 346v-346h-1096v274l474 528h-458v346h1056v-272l-474 -530h498z" />
    <glyph glyph-name="Zdotaccent" unicode="&#x17b;" horiz-adv-x="1550" 
d="M776 1570q-105 0 -172.5 67t-67.5 173q0 105 67.5 171.5t172.5 66.5t172.5 -66.5t67.5 -171.5q0 -106 -67.5 -173t-172.5 -67zM1450 384v-384h-1350v304l672 782h-652v384h1296v-304l-672 -782h706z" />
    <glyph glyph-name="zdotaccent" unicode="&#x17c;" horiz-adv-x="1296" 
d="M644 1254q-105 0 -172.5 67t-67.5 173q0 105 67.5 171.5t172.5 66.5t172.5 -66.5t67.5 -171.5q0 -106 -67.5 -173t-172.5 -67zM1196 346v-346h-1096v274l474 528h-458v346h1056v-272l-474 -530h498z" />
    <glyph glyph-name="Zcaron" unicode="&#x17d;" horiz-adv-x="1550" 
d="M1246 1926l-268 -336h-404l-268 336h294l176 -160l176 160h294zM1450 384v-384h-1350v304l672 782h-652v384h1296v-304l-672 -782h706z" />
    <glyph glyph-name="zcaron" unicode="&#x17e;" horiz-adv-x="1296" 
d="M1114 1610l-268 -336h-404l-268 336h294l176 -160l176 160h294zM1196 346v-346h-1096v274l474 528h-458v346h1056v-272l-474 -530h498z" />
    <glyph glyph-name="longs" unicode="&#x17f;" horiz-adv-x="1150" 
d="M732 1088v-1088h-476v740h-156v346h156v6q0 225 135.5 356.5t378.5 131.5q181 0 280 -58l-112 -330q-56 28 -108 28q-51 0 -74.5 -31.5t-23.5 -100.5z" />
    <glyph glyph-name="florin" unicode="&#x192;" horiz-adv-x="986" 
d="M56 -428q-177 0 -286 56l154 330q53 -28 104 -28q46 0 77.5 33.5t38.5 100.5l82 676h-158l42 346h160v6q27 227 177.5 357.5t394.5 130.5q181 0 274 -58l-152 -330q-56 28 -106 28q-52 0 -87.5 -33t-42.5 -99v-2h250l-42 -346h-236l-84 -682q-26 -224 -174.5 -355
t-385.5 -131z" />
    <glyph glyph-name="Ohorn" unicode="&#x1a0;" horiz-adv-x="1862" 
d="M930 -34q-175 0 -327.5 56.5t-266.5 161.5q-113 107 -174.5 247.5t-61.5 304.5q0 330 238 552q238 216 614 216q110 0 206 -12q83 -16 158 -16q64 0 103 32.5t39 89.5q0 71 -42 120l268 94q78 -97 78 -232q0 -120 -55.5 -203.5t-156.5 -126.5q38 -38 78 -88
q132 -185 132 -426q0 -164 -61 -305t-175 -247q-234 -218 -594 -218zM930 368q146 0 238 101.5t92 266.5q0 164 -92 265t-238 101q-145 0 -237.5 -101t-92.5 -265q0 -165 92.5 -266.5t237.5 -101.5z" />
    <glyph glyph-name="ohorn" unicode="&#x1a1;" horiz-adv-x="1536" 
d="M768 -22q-197 0 -344 78q-153 78 -238.5 212.5t-85.5 307.5q0 170 86 308q88 135 241 210.5t347 75.5q43 0 129 -11t117 -11q51 0 77.5 34.5t26.5 93.5q0 74 -46 120l270 96q82 -106 82 -234q0 -111 -58 -200q-29 -47 -88 -90q152 -158 152 -392q0 -169 -86 -310
q-88 -136 -239 -212t-343 -76zM768 348q84 0 135 61.5t51 166.5q0 104 -50.5 164t-135.5 60t-135.5 -60t-50.5 -164q0 -105 51 -166.5t135 -61.5z" />
    <glyph glyph-name="Uhorn" unicode="&#x1af;" horiz-adv-x="1878" 
d="M1778 1580q0 -139 -63.5 -234t-182.5 -136v-548q0 -330 -189 -513t-527 -183q-339 0 -527.5 183t-188.5 513v808h494v-794q0 -308 226 -308q110 0 167 73t57 235v794h314q45 0 79.5 36.5t34.5 91.5q0 78 -42 120l270 96q78 -101 78 -234z" />
    <glyph glyph-name="uhorn" unicode="&#x1b0;" horiz-adv-x="1666" 
d="M1566 1258q0 -127 -53 -217t-153 -137v-904h-450v110q-129 -132 -326 -132q-133 0 -246 58q-238 121 -238 478v634h476v-552q0 -117 37.5 -167.5t110.5 -50.5q76 0 119 60t43 172v538h260q45 0 79.5 36.5t34.5 91.5q0 78 -42 120l270 96q78 -101 78 -234z" />
    <glyph glyph-name="Gcaron" unicode="&#x1e6;" horiz-adv-x="1704" 
d="M1400 1928l-268 -336h-404l-268 336h294l176 -160l176 160h294zM922 -34q-355 0 -588 214q-112 106 -173 247t-61 309q0 339 234 554q236 214 598 214q217 0 388.5 -73t283.5 -211l-316 -280q-138 162 -330 162q-164 0 -261 -98.5t-97 -267.5q0 -165 96.5 -266.5
t255.5 -101.5q97 0 180 36v106h-200v358h630v-714q-132 -89 -303.5 -138.5t-336.5 -49.5z" />
    <glyph glyph-name="gcaron" unicode="&#x1e7;" horiz-adv-x="1544" 
d="M1272 1610l-268 -336h-404l-268 336h294l176 -160l176 160h294zM814 -436q-368 -9 -594 128l166 296q67 -45 175.5 -75t202.5 -33q238 6 302 186q-137 -64 -306 -64q-208 0 -334 74l-26 14q-143 83 -221.5 213t-78.5 289q0 163 88 304q88 133 238.5 206.5t333.5 73.5
q170 0 312 -68q3 -2 11 -5t11 -5v52h350v-904q0 -309 -164.5 -487.5t-465.5 -194.5zM806 362q119 0 196.5 63t77.5 163q0 102 -76 163t-198 61q-119 0 -198.5 -62t-79.5 -162q0 -99 79.5 -162.5t198.5 -63.5z" />
    <glyph glyph-name="Aringacute" unicode="&#x1fa;" horiz-adv-x="1972" 
d="M986 1562q-123 0 -208.5 81t-85.5 199q0 120 85.5 201t208.5 81q47 0 96 -14l196 202l228 -170l-260 -168q34 -62 34 -132q0 -118 -85.5 -199t-208.5 -81zM986 1730q50 0 82 31.5t32 80.5q0 51 -32 82.5t-82 31.5q-46 0 -80 -32t-34 -82q0 -48 34 -80t80 -32zM720 300
l-116 -300h-504l642 1470h488l642 -1470h-512l-116 300h-524zM1108 658l-126 324l-126 -324h252z" />
    <glyph glyph-name="aringacute" unicode="&#x1fb;" horiz-adv-x="1404" 
d="M726 1240q-123 0 -208.5 81t-85.5 199q0 120 85.5 201t208.5 81q47 0 96 -14l196 202l228 -170l-260 -168q34 -62 34 -132q0 -118 -85.5 -199t-208.5 -81zM726 1408q50 0 82 31.5t32 80.5q0 51 -32 82.5t-82 31.5q-46 0 -80 -32t-34 -82q0 -48 34 -80t80 -32zM638 -6
q-151 0 -270 44q-127 48 -197.5 136t-70.5 200q0 97 62 188q126 186 502 186h212q-6 56 -58.5 94t-113.5 38q-177 0 -210 -94l-326 164q67 114 205.5 174t330.5 60q281 0 440.5 -126t159.5 -350v-706h-374v44q-128 -52 -292 -52zM664 286q189 0 260 126v48h-256
q-106 0 -148 -20t-42 -62q0 -92 186 -92z" />
    <glyph glyph-name="AEacute" unicode="&#x1fc;" horiz-adv-x="2518" 
d="M1948 1926l-414 -336h-314l276 336h452zM754 300l-150 -300h-504l776 1470h1516v-374h-708v-172h622v-356h-622v-194h734v-374h-1222v300h-442zM1196 1096h-48l-218 -438h266v438z" />
    <glyph glyph-name="aeacute" unicode="&#x1fd;" horiz-adv-x="2214" 
d="M1564 1610l-414 -336h-314l276 336h452zM620 -22q-242 0 -381 102t-139 272q0 106 58 182q116 154 468 154h188q-26 128 -212 128q-82 0 -161 -23.5t-135 -66.5l-152 314q100 62 238 96t278 34q266 0 418 -126q170 126 402 126q255 0 434 -152q190 -164 190 -438
q0 -75 -8 -120h-796q48 -130 226 -130q125 0 242 84l248 -250q-180 -186 -496 -186q-129 0 -246 36q-147 45 -240 138q-12 -16 -34 -38q-139 -136 -390 -136zM1300 688h360q-14 74 -61 116t-117 42q-72 0 -120 -42t-62 -116zM674 264q68 0 106 42t38 114v40h-118
q-144 0 -144 -96q0 -46 30.5 -73t87.5 -27z" />
    <glyph glyph-name="Oslashacute" unicode="&#x1fe;" horiz-adv-x="1860" 
d="M710 1590l276 336h452l-414 -336h-314zM1484 1324l40 -36q236 -220 236 -552q0 -164 -61 -305t-175 -247q-112 -105 -264 -161.5t-328 -56.5q-198 0 -362 70l-130 -184h-272l210 296l-42 36q-113 107 -174.5 247.5t-61.5 304.5q0 329 236 552q113 104 265.5 160t328.5 56
q195 0 362 -68l128 182h272zM600 736q0 -113 48 -206l394 554q-51 18 -112 18q-145 0 -237.5 -101t-92.5 -265zM930 368q146 0 238 101.5t92 266.5q0 114 -48 204l-394 -554q51 -18 112 -18z" />
    <glyph glyph-name="oslashacute" unicode="&#x1ff;" horiz-adv-x="1536" 
d="M536 1274l276 336h452l-414 -336h-314zM1124 1282h200l-146 -224q124 -80 191 -204.5t67 -277.5q0 -172 -84 -310q-87 -135 -239 -211.5t-345 -76.5q-142 0 -262 42l-108 -168h-200l158 244q-123 80 -189.5 203.5t-66.5 276.5q0 170 86 308q88 135 239 210.5t343 75.5
q138 0 258 -40zM582 576q0 -55 16 -106l212 326q-28 4 -42 4q-85 0 -135.5 -60t-50.5 -164zM768 348q84 0 135 61.5t51 166.5q0 60 -18 108l-214 -330q21 -6 46 -6z" />
    <glyph glyph-name="circumflex" unicode="&#x2c6;" horiz-adv-x="1520" 
d="M760 1436l-176 -162h-294l268 336h404l268 -336h-294z" />
    <glyph glyph-name="caron" unicode="&#x2c7;" horiz-adv-x="1520" 
d="M1230 1610l-268 -336h-404l-268 336h294l176 -160l176 160h294z" />
    <glyph glyph-name="breve" unicode="&#x2d8;" horiz-adv-x="1480" 
d="M740 1254q-191 0 -311 96t-127 260h282q4 -57 47.5 -92.5t108.5 -35.5t108.5 35.5t47.5 92.5h282q-7 -164 -127 -260t-311 -96z" />
    <glyph glyph-name="dotaccent" unicode="&#x2d9;" horiz-adv-x="1532" 
d="M766 1254q-105 0 -172.5 67t-67.5 173q0 105 67.5 171.5t172.5 66.5t172.5 -66.5t67.5 -171.5q0 -106 -67.5 -173t-172.5 -67z" />
    <glyph glyph-name="ring" unicode="&#x2da;" horiz-adv-x="1358" 
d="M678 1240q-123 0 -208.5 81t-85.5 199q0 120 85.5 201t208.5 81t208.5 -81t85.5 -201q0 -118 -85.5 -199t-208.5 -81zM678 1408q50 0 82 31.5t32 80.5q0 51 -32 82.5t-82 31.5q-46 0 -80 -32t-34 -82q0 -48 34 -80t80 -32z" />
    <glyph glyph-name="ogonek" unicode="&#x2db;" horiz-adv-x="1382" 
d="M606 -504q-156 0 -244 69.5t-88 188.5q0 75 42 144q84 138 308 204l166 -102q-121 -53 -180.5 -100.5t-59.5 -103.5q0 -38 28 -62t84 -24q64 0 124 30l56 -196q-38 -21 -103.5 -34.5t-132.5 -13.5z" />
    <glyph glyph-name="tilde" unicode="&#x2dc;" horiz-adv-x="1508" 
d="M924 1254q-57 0 -117.5 31t-110.5 62t-82 31q-40 0 -65 -27t-31 -77h-224q5 168 81.5 266t208.5 98q45 0 93.5 -19.5t82.5 -42.5t71.5 -42.5t62.5 -19.5q43 0 68.5 26t27.5 70h224q-2 -161 -80 -258.5t-210 -97.5z" />
    <glyph glyph-name="hungarumlaut" unicode="&#x2dd;" horiz-adv-x="1574" 
d="M926 1610l-204 -336h-316l110 336h410zM1416 1610l-202 -336h-316l110 336h408z" />
    <glyph glyph-name="gravecomb" unicode="&#x300;" horiz-adv-x="0" 
d="M-426 1610l276 -336h-314l-414 336h452z" />
    <glyph glyph-name="acutecomb" unicode="&#x301;" horiz-adv-x="0" 
d="M-150 1610l-414 -336h-314l276 336h452z" />
    <glyph glyph-name="tildecomb" unicode="&#x303;" horiz-adv-x="0" 
d="M-440 1254q-57 0 -117.5 31t-110.5 62t-82 31q-40 0 -65 -27t-31 -77h-224q5 168 81.5 266t208.5 98q45 0 93.5 -19.5t82.5 -42.5t71.5 -42.5t62.5 -19.5q43 0 68.5 26t27.5 70h224q-2 -161 -80 -258.5t-210 -97.5z" />
    <glyph glyph-name="hookabovecomb" unicode="&#x309;" horiz-adv-x="0" 
d="M622 1254l-142 136q56 27 76 54.5t20 59.5q0 37 -24 58.5t-64 21.5q-55 0 -120 -42l-96 176q111 84 270 84q132 0 214 -72t82 -186q0 -100 -53.5 -170.5t-162.5 -119.5z" />
    <glyph glyph-name="dotbelowcomb" unicode="&#x323;" horiz-adv-x="0" 
d="M544 -474q-82 0 -135 49.5t-53 132.5t53 134.5t135 51.5t136 -51.5t54 -134.5t-53.5 -132.5t-136.5 -49.5z" />
    <glyph glyph-name="pi" unicode="&#x3c0;" horiz-adv-x="1470" 
d="M820 822l-84 -822h-390l84 822h-26q-40 0 -64 -24t-24 -62q0 -48 38 -132l-324 -108q-80 178 -80 318q0 98 50 174q51 76 139.5 118t200.5 42h1168v-326h-222v-822h-390v822h-76z" />
    <glyph glyph-name="Wgrave" unicode="&#x1e80;" horiz-adv-x="2690" 
d="M1288 1926l276 -336h-314l-414 336h452zM1350 786l-250 -786h-530l-470 1470h510l256 -836l270 836h456l256 -846l272 846h470l-470 -1470h-532z" />
    <glyph glyph-name="wgrave" unicode="&#x1e81;" horiz-adv-x="2276" 
d="M1082 1610l276 -336h-314l-414 336h452zM1142 532l-182 -532h-462l-398 1148h448l198 -606l206 606h404l198 -612l206 612h416l-398 -1148h-462z" />
    <glyph glyph-name="Wacute" unicode="&#x1e82;" horiz-adv-x="2690" 
d="M1852 1926l-414 -336h-314l276 336h452zM1350 786l-250 -786h-530l-470 1470h510l256 -836l270 836h456l256 -846l272 846h470l-470 -1470h-532z" />
    <glyph glyph-name="wacute" unicode="&#x1e83;" horiz-adv-x="2276" 
d="M1646 1610l-414 -336h-314l276 336h452zM1142 532l-182 -532h-462l-398 1148h448l198 -606l206 606h404l198 -612l206 612h416l-398 -1148h-462z" />
    <glyph glyph-name="Wdieresis" unicode="&#x1e84;" horiz-adv-x="2690" 
d="M1110 1574q-81 0 -134.5 51.5t-53.5 132.5q0 83 53.5 135.5t134.5 52.5q82 0 136 -52.5t54 -135.5q0 -82 -54 -133t-136 -51zM1578 1574q-82 0 -136 51t-54 133q0 83 54 135.5t136 52.5q81 0 134.5 -52.5t53.5 -135.5q0 -81 -53.5 -132.5t-134.5 -51.5zM1350 786
l-250 -786h-530l-470 1470h510l256 -836l270 836h456l256 -846l272 846h470l-470 -1470h-532z" />
    <glyph glyph-name="wdieresis" unicode="&#x1e85;" horiz-adv-x="2276" 
d="M904 1258q-81 0 -134.5 51.5t-53.5 132.5q0 83 53.5 135.5t134.5 52.5q82 0 136 -52.5t54 -135.5q0 -82 -54 -133t-136 -51zM1372 1258q-82 0 -136 51t-54 133q0 83 54 135.5t136 52.5q81 0 134.5 -52.5t53.5 -135.5q0 -81 -53.5 -132.5t-134.5 -51.5zM1142 532
l-182 -532h-462l-398 1148h448l198 -606l206 606h404l198 -612l206 612h416l-398 -1148h-462z" />
    <glyph glyph-name="Ygrave" unicode="&#x1ef2;" horiz-adv-x="1804" 
d="M846 1926l276 -336h-314l-414 336h452zM1150 534v-534h-496v540l-554 930h522l300 -508l302 508h480z" />
    <glyph glyph-name="ygrave" unicode="&#x1ef3;" horiz-adv-x="1616" 
d="M734 1610l276 -336h-314l-414 336h452zM1516 1148l-678 -1676h-462l204 522l-480 1154h488l238 -614l240 614h450z" />
    <glyph glyph-name="uni2010" unicode="&#x2010;" horiz-adv-x="720" 
d="M674 786v-358h-630v358h630z" />
    <glyph glyph-name="figuredash" unicode="&#x2012;" horiz-adv-x="1412" 
d="M1358 882v-272h-1302v272h1302z" />
    <glyph glyph-name="endash" unicode="&#x2013;" horiz-adv-x="950" 
d="M1000 744v-274h-1050v274h1050z" />
    <glyph glyph-name="emdash" unicode="&#x2014;" horiz-adv-x="2000" 
d="M2050 744v-274h-2100v274h2100z" />
    <glyph glyph-name="uni2015" unicode="&#x2015;" horiz-adv-x="2000" 
d="M2050 744v-274h-2100v274h2100z" />
    <glyph glyph-name="quoteleft" unicode="&#x2018;" horiz-adv-x="768" 
d="M385 702q-121 0 -199.5 74t-78.5 194q0 56 18 116.5t64 159.5l146 312h294l-104 -354q64 -31 100 -90.5t36 -143.5q0 -120 -78 -194t-198 -74z" />
    <glyph glyph-name="quoteright" unicode="&#x2019;" horiz-adv-x="768" 
d="M579 1036l-146 -314h-294l106 356q-65 32 -101.5 92t-36.5 140q0 123 78 196.5t200 73.5q121 0 198.5 -74t77.5 -196q0 -56 -18 -117t-64 -157z" />
    <glyph glyph-name="quotesinglbase" unicode="&#x201a;" horiz-adv-x="768" 
d="M579 -24l-146 -312h-294l106 354q-65 32 -101.5 92.5t-36.5 141.5q0 122 78 195t200 73q121 0 198.5 -73t77.5 -195q0 -56 -18 -117t-64 -159z" />
    <glyph glyph-name="quotedblleft" unicode="&#x201c;" horiz-adv-x="1378" 
d="M385 702q-121 0 -199.5 74t-78.5 194q0 56 18 116.5t64 159.5l146 312h294l-104 -354q64 -31 100 -90.5t36 -143.5q0 -120 -78 -194t-198 -74zM995 702q-121 0 -199.5 74t-78.5 194q0 56 18 116.5t64 159.5l146 312h294l-104 -354q64 -31 100 -90.5t36 -143.5
q0 -120 -78 -194t-198 -74z" />
    <glyph glyph-name="quotedblright" unicode="&#x201d;" horiz-adv-x="1378" 
d="M579 1036l-146 -314h-294l106 356q-65 32 -101.5 92t-36.5 140q0 123 78 196.5t200 73.5q121 0 198.5 -74t77.5 -196q0 -56 -18 -117t-64 -157zM1189 1036l-146 -314h-294l106 356q-65 32 -101.5 92t-36.5 140q0 123 78 196.5t200 73.5q121 0 198.5 -74t77.5 -196
q0 -56 -18 -117t-64 -157z" />
    <glyph glyph-name="quotedblbase" unicode="&#x201e;" horiz-adv-x="1378" 
d="M579 -24l-146 -312h-294l106 354q-65 32 -101.5 92.5t-36.5 141.5q0 122 78 195t200 73q121 0 198.5 -73t77.5 -195q0 -56 -18 -117t-64 -159zM1189 -24l-146 -312h-294l106 354q-65 32 -101.5 92.5t-36.5 141.5q0 122 78 195t200 73q121 0 198.5 -73t77.5 -195
q0 -56 -18 -117t-64 -159z" />
    <glyph glyph-name="dagger" unicode="&#x2020;" horiz-adv-x="1438" 
d="M945 686v-1094h-474v1094h-360v374h360v410h474v-410h362v-374h-362z" />
    <glyph glyph-name="daggerdbl" unicode="&#x2021;" horiz-adv-x="1152" 
d="M811 0v-408h-474v408h-360v374h360v314h-360v374h360v408h474v-408h362v-374h-362v-314h362v-374h-362z" />
    <glyph glyph-name="bullet" unicode="&#x2022;" horiz-adv-x="1220" 
d="M623 250q-99 0 -174 46q-78 44 -124 124.5t-46 177.5q0 102 46 180q47 77 125 120.5t173 43.5q100 0 176 -44q81 -44 127.5 -122.5t46.5 -177.5q0 -100 -48 -178q-46 -81 -126 -125.5t-176 -44.5z" />
    <glyph glyph-name="ellipsis" unicode="&#x2026;" horiz-adv-x="2094" 
d="M410 -22q-119 0 -198.5 77.5t-79.5 196.5q0 120 79 194t199 74q119 0 197.5 -74t78.5 -194q0 -119 -79 -196.5t-197 -77.5zM1058 -22q-119 0 -198.5 77.5t-79.5 196.5q0 120 79 194t199 74q119 0 197.5 -74t78.5 -194q0 -119 -79 -196.5t-197 -77.5zM1708 -22
q-119 0 -198.5 77.5t-79.5 196.5q0 120 79 194t199 74q119 0 197.5 -74t78.5 -194q0 -119 -79 -196.5t-197 -77.5z" />
    <glyph glyph-name="perthousand" unicode="&#x2030;" horiz-adv-x="2892" 
d="M489 672q-110 0 -200 48q-89 49 -139.5 142t-50.5 220q0 135 52 222q51 91 138.5 139.5t199.5 48.5q106 0 200 -50q91 -49 140.5 -140.5t49.5 -219.5q0 -133 -50 -224q-51 -91 -139 -138.5t-201 -47.5zM1707 1470l-1004 -1470h-354l1004 1470h354zM489 898q35 0 66 40
q26 38 26 144t-26 144q-29 38 -66 38q-36 0 -62 -38q-30 -39 -30 -144t30 -144q28 -40 62 -40zM1567 -22q-115 0 -200 50q-91 48 -141.5 140t-50.5 220q0 131 54 224q49 90 137 138t201 48q110 0 200 -48q90 -51 140 -143t50 -219q0 -134 -50 -222q-52 -92 -140 -140
t-200 -48zM2401 -22q-115 0 -200 50q-91 48 -141.5 140t-50.5 220q0 131 54 224q49 90 137 138t201 48q111 0 198 -48q91 -51 141.5 -143t50.5 -219q0 -134 -50 -222q-52 -92 -140 -140t-200 -48zM1567 206q38 0 64 40q28 34 28 142q0 107 -28 146q-29 38 -64 38
q-32 0 -64 -38q-28 -44 -28 -146q0 -105 28 -142q29 -40 64 -40zM2401 206q38 0 64 40q28 34 28 142q0 107 -28 146q-29 38 -64 38q-32 0 -64 -38q-30 -47 -30 -146q0 -102 30 -142q29 -40 64 -40z" />
    <glyph glyph-name="minute" unicode="&#x2032;" horiz-adv-x="638" 
d="M518 1470l-32 -630h-336l-30 630h398z" />
    <glyph glyph-name="second" unicode="&#x2033;" horiz-adv-x="1132" 
d="M518 1470l-32 -630h-336l-30 630h398zM1012 1470l-32 -630h-336l-32 630h400z" />
    <glyph glyph-name="guilsinglleft" unicode="&#x2039;" horiz-adv-x="910" 
d="M523 576l278 -420h-420l-290 420l290 420h420z" />
    <glyph glyph-name="guilsinglright" unicode="&#x203a;" horiz-adv-x="910" 
d="M813 576l-290 -420h-420l278 420l-278 420h420z" />
    <glyph glyph-name="fraction" unicode="&#x2044;" horiz-adv-x="671" 
d="M1015 1470l-1004 -1470h-354l1004 1470h354z" />
    <glyph glyph-name="colonmonetary" unicode="&#x20a1;" horiz-adv-x="1462" 
d="M568 2l-66 -254h-274l94 370q-20 13 -78 62q-112 106 -173 247t-61 309q0 166 61 307t173 247q176 160 426 202l60 230h274l-56 -224q43 -4 62 -10l60 234h274l-82 -320q135 -72 228 -192l-314 -280l-24 32l-144 -560q88 36 168 138l314 -280q-99 -129 -249.5 -204
t-340.5 -88l-58 -220h-274l60 240q-45 9 -60 14zM730 388l182 710q-40 4 -56 4h-10l-174 -688q34 -19 58 -26z" />
    <glyph glyph-name="franc" unicode="&#x20a3;" horiz-adv-x="1440" 
d="M698 126v-126h-496v126h-188v236h188v1108h1194v-374h-698v-252h612v-374h-612v-108h440v-236h-440z" />
    <glyph glyph-name="lira" unicode="&#x20a4;" horiz-adv-x="1376" 
d="M1336 374v-374h-1322v374h188v98h-188v236h188v54h-188v236h200q24 116 76 206q89 147 256.5 223.5t405.5 76.5q266 0 436 -90l-142 -374q-116 62 -252 62q-190 0 -258 -104h402v-236h-440v-54h440v-236h-440v-98h638z" />
    <glyph glyph-name="peseta" unicode="&#x20a7;" horiz-adv-x="3822" 
d="M726 362v-362h-496v1470h744q201 0 356 -68q151 -68 232.5 -193t81.5 -293q0 -169 -82 -294q-83 -126 -233.5 -193t-354.5 -67h-248zM2340 -22q-243 0 -372.5 116.5t-129.5 351.5v342h-158v346h158v276h474v-276h236v-346h-236v-338q0 -51 27.5 -81.5t70.5 -30.5
q61 0 108 32l114 -330q-109 -62 -292 -62zM3200 -22q-144 0 -287 32t-233 82l130 314q81 -49 189 -76.5t211 -27.5q91 0 118 16q30 15 30 40q0 15 -16.5 26.5t-48 18t-61 10.5t-71 8t-61.5 7q-70 9 -125.5 23t-109.5 40.5t-89.5 63.5t-57.5 93.5t-22 129.5q0 106 68 196
q68 92 200 144t320 52q132 0 257.5 -24t210.5 -70l-130 -314q-150 84 -332 84q-87 0 -122 -16q-32 -15 -32 -38q0 -15 15.5 -26.5t50 -19t59 -11t73 -8.5t62.5 -7q69 -10 123.5 -24.5t107.5 -41t88.5 -63.5t57 -94t21.5 -129q0 -105 -64 -192q-67 -93 -201 -145.5
t-329 -52.5zM942 1088h-216v-344h216q100 0 151 45t51 127q0 81 -51 126.5t-151 45.5z" />
    <glyph glyph-name="dong" unicode="&#x20ab;" horiz-adv-x="1442" 
d="M620 -22q-146 0 -276 74q-131 76 -205.5 210t-74.5 314q0 181 76 318q76 132 202.5 204t277.5 72q148 0 246 -64q16 -10 44 -34v156h-316v232h316v98h476v-98h106v-232h-106v-1228h-452v94q-104 -116 -314 -116zM732 348q85 0 136.5 62t51.5 166t-51.5 164t-136.5 60
q-84 0 -135 -60t-51 -164t51.5 -166t134.5 -62zM1386 -80v-230h-1276v230h1276z" />
    <glyph glyph-name="Euro" unicode="&#x20ac;" horiz-adv-x="1654" 
d="M1022 -34q-175 0 -325 55.5t-261 158.5q-131 122 -192 292h-230v236h188v54h-188v236h230q61 170 192 292q111 103 261 158.5t325 55.5q214 0 382 -75.5t276 -218.5l-312 -280q-134 172 -322 172q-156 0 -254 -104h360v-236h-450v-54h450v-236h-360q98 -104 254 -104
q188 0 322 172l312 -280q-109 -141 -277.5 -217.5t-380.5 -76.5z" />
    <glyph glyph-name="trademark" unicode="&#x2122;" horiz-adv-x="2158" 
d="M624 1230v-632h-336v632h-272v240h880v-240h-272zM1290 958v-360h-306v872h276l300 -450l292 450h272l6 -872h-306l-4 372l-190 -296h-148z" />
    <glyph glyph-name="estimated" unicode="&#x212e;" horiz-adv-x="1796" 
d="M898 -6q-167 0 -316.5 57t-265.5 161q-115 102 -178.5 236.5t-63.5 283.5q0 153 63.5 288.5t178.5 239.5q116 103 266 159.5t316 56.5q167 0 317.5 -57t266.5 -159q115 -104 177.5 -239.5t62.5 -288.5v-16h-1334q-12 0 -12 -8v-404q0 -16 18 -48q85 -105 220 -161.5
t286 -56.5q155 0 294 66t236 178h120q-112 -131 -286 -209.5t-366 -78.5zM388 756h1022q14 0 14 12v406q0 27 -24 48q-99 99 -227.5 154.5t-272.5 55.5q-143 0 -272.5 -57t-231.5 -159q-20 -20 -20 -50v-398q0 -12 12 -12z" />
    <glyph glyph-name="arrowleft" unicode="&#x2190;" horiz-adv-x="1160" 
d="M576 428l208 -362h-398l-336 520l336 520h398l-210 -364h574v-314h-572z" />
    <glyph glyph-name="arrowup" unicode="&#x2191;" horiz-adv-x="1160" 
d="M760 656v-614h-360v614l-340 -196v342l520 336l520 -336v-342z" />
    <glyph glyph-name="arrowright" unicode="&#x2192;" horiz-adv-x="1160" 
d="M1110 584l-336 -520h-398l210 364h-572v314h570l-208 362h398z" />
    <glyph glyph-name="arrowdown" unicode="&#x2193;" horiz-adv-x="1160" 
d="M1100 710v-342l-520 -336l-520 336v342l340 -196v614h360v-614z" />
    <glyph glyph-name="arrowboth" unicode="&#x2194;" horiz-adv-x="1896" 
d="M580 428l208 -362h-396l-336 520l336 520h396l-210 -364h740l-210 364h396l336 -520l-336 -520h-396l208 362h-736z" />
    <glyph glyph-name="arrowupdn" unicode="&#x2195;" horiz-adv-x="1160" 
d="M1100 658v-342l-520 -338l-520 338v342l340 -196v570l-340 -196v342l520 336l520 -336v-342l-340 196v-570z" />
    <glyph glyph-name="partialdiff" unicode="&#x2202;" horiz-adv-x="1630" 
d="M758 -34q-171 0 -306 66q-142 64 -222 180t-80 268q0 149 70 248q70 106 189 165t259 59q102 0 186 -26q66 -19 122 -62q-6 102 -42 174q-85 172 -350 172q-167 0 -276 -44l-56 384q152 42 340 42q273 0 478 -98q410 -210 410 -784q0 -239 -90 -402q-90 -166 -252 -254
t-380 -88zM794 308q69 0 115.5 41t46.5 109q0 67 -46.5 109.5t-115.5 42.5t-115.5 -42t-46.5 -110t46.5 -109t115.5 -41z" />
    <glyph glyph-name="emptyset" unicode="&#x2205;" horiz-adv-x="1323" 
d="M339 322l-180 -168l-116 124l178 166q-94 132 -94 296q0 146 74 264q73 122 195.5 191t272.5 69q154 0 274 -70q28 -14 52 -32l172 156l114 -124l-166 -152q98 -136 98 -302q0 -143 -74 -266q-75 -121 -199 -191.5t-271 -70.5q-151 0 -274 72q-35 20 -56 38zM449 656
l320 296q-53 20 -100 20q-96 0 -165 -68t-69 -164q0 -42 14 -84zM669 504q97 0 165.5 69t68.5 167q0 43 -16 88l-324 -298q46 -26 106 -26z" />
    <glyph glyph-name="product" unicode="&#x220f;" horiz-adv-x="1908" 
d="M726 1062v-1470h-496v1878h1448v-1878h-494v1470h-458z" />
    <glyph glyph-name="summation" unicode="&#x2211;" horiz-adv-x="1438" 
d="M1406 -24v-384h-1350v306l594 636l-562 632v304h1296v-384h-638l360 -402v-304l-396 -404h696z" />
    <glyph glyph-name="minus" unicode="&#x2212;" horiz-adv-x="1384" 
d="M1227 914v-358h-1070v358h1070z" />
    <glyph glyph-name="radical" unicode="&#x221a;" horiz-adv-x="1766" 
d="M1796 1558l-614 -1966h-490l-308 964h-276v358h628l204 -738l420 1382h436z" />
    <glyph glyph-name="infinity" unicode="&#x221e;" horiz-adv-x="2012" 
d="M554 256q-137 0 -250 64q-113 62 -176.5 170.5t-63.5 245.5q0 138 66 246q64 109 175 170.5t249 61.5q124 0 212 -34q139 -54 244 -176q87 100 196 155t260 55q134 0 246 -62q111 -64 173.5 -172t62.5 -244t-64 -246q-64 -111 -172.5 -172.5t-245.5 -61.5q-119 0 -212 36
q-148 58 -244 176q-89 -102 -197 -157t-259 -55zM588 576q123 0 234 160q-56 76 -111 117t-123 41q-63 0 -106.5 -45.5t-43.5 -112.5t43.5 -113.5t106.5 -46.5zM1424 576q67 0 108.5 45.5t41.5 114.5q0 68 -41.5 113t-108.5 45q-70 0 -125 -41t-107 -117q54 -78 108 -119
t124 -41z" />
    <glyph glyph-name="integral" unicode="&#x222b;" horiz-adv-x="852" 
d="M162 -428q-180 0 -292 56l112 330q53 -28 108 -28q44 0 71 33.5t27 100.5v1040q0 224 133.5 356t368.5 132q188 0 292 -56l-114 -330q-49 26 -106 26q-44 0 -71 -33t-27 -99v-1042q0 -224 -133.5 -355t-368.5 -131z" />
    <glyph glyph-name="approxequal" unicode="&#x2248;" horiz-adv-x="1370" 
d="M892 762q-44 0 -90 16.5t-84 39.5t-73 46t-69.5 39.5t-61.5 16.5q-45 0 -73.5 -34.5t-32.5 -97.5h-290q4 216 103 340t257 124q54 0 112.5 -24.5t100 -54.5t87.5 -54.5t78 -24.5q46 0 75.5 35t30.5 97h290q-1 -215 -101 -339.5t-259 -124.5zM892 218q-44 0 -90 16.5
t-84 39.5t-73 46t-69.5 39.5t-61.5 16.5q-45 0 -73.5 -34.5t-32.5 -97.5h-290q4 216 103 340t257 124q54 0 112.5 -24.5t100 -54.5t87.5 -54.5t78 -24.5q46 0 75.5 35t30.5 97h290q-1 -215 -101 -339.5t-259 -124.5z" />
    <glyph glyph-name="notequal" unicode="&#x2260;" horiz-adv-x="1497" 
d="M709 284l-108 -210h-378l108 210h-118v356h298l96 190h-394v356h574l108 210h378l-108 -210h118v-356h-298l-96 -190h394v-356h-574z" />
    <glyph glyph-name="lessequal" unicode="&#x2264;" horiz-adv-x="1401" 
d="M679 946l556 -184v-352l-1070 352v366l1070 352v-352zM1235 358v-358h-1070v358h1070z" />
    <glyph glyph-name="greaterequal" unicode="&#x2265;" horiz-adv-x="1408" 
d="M1239 1128v-366l-1070 -352v352l556 184l-556 182v352zM1239 358v-358h-1070v358h1070z" />
    <glyph glyph-name="uni27E8" unicode="&#x27e8;" horiz-adv-x="758" 
d="M436 576l338 -984h-440l-360 984l360 982h440z" />
    <glyph glyph-name="uni27E9" unicode="&#x27e9;" horiz-adv-x="758" 
d="M786 576l-362 -984h-438l338 984l-338 982h438z" />
    <glyph glyph-name="uniF8FF" unicode="&#xf8ff;" horiz-adv-x="2380" 
d="M1178 -176q-190 0 -363.5 75t-298.5 201t-199.5 300t-74.5 364q0 191 74.5 364.5t200.5 299t299.5 200t363.5 74.5t363.5 -74.5t299.5 -200.5t200.5 -299.5t74.5 -363.5q0 -192 -74.5 -366t-200 -299.5t-299.5 -200t-366 -74.5zM1180 -64q168 0 321 65.5t263.5 176
t176 263.5t65.5 321q0 135 -41.5 261t-117.5 227.5t-177 178t-226.5 118.5t-259.5 43q-169 0 -322.5 -65t-264.5 -175.5t-177 -263t-66 -320.5q0 -169 65 -322.5t175.5 -264.5t263.5 -177t322 -66zM914 294h-2q26 26 40 38q27 24 42 74q61 168 76 214q44 130 96 220v4
q-3 -4 -9 -11t-9 -11q-4 -4 -9.5 -10.5t-8.5 -9.5q-35 -51 -52 -96q-5 -10 -14 -10q-167 6 -296 114l-98 92q-4 4 -7.5 8.5t-7.5 10t-7 9.5l18 -6q84 -34 166 -46q58 -6 120 4q60 14 80 20q1 0 26 10l-27 13.5t-28.5 14.5t-22.5 15t-22 21h30q71 3 126 32q106 65 230 102
q48 15 96 18q8 0 34 1.5t40 0.5q93 -3 148 -56q8 -7 16 -16t17.5 -20.5t14.5 -17.5q-2 -2 -2 -4l-8 4q-76 29 -139.5 6t-104.5 -90q-12 -21 -42 -94q-6 -15 -35 -82.5t-45 -103.5q-50 -104 -108 -172q-42 -51 -110 -96q-76 -58 -196 -92q-1 0 -3 -1t-3 -1zM1476 -342v-72
h-24v72h-8v16h8v14q3 24 34 24h10v-18q-17 3 -20 -8v-12h20v-16h-20zM644 -418q-18 0 -28 13.5t-10 34.5q0 23 12 35.5t30 12.5q13 0 22 -6l6 -8v44h22v-122h-22v14l-6 -10q-12 -8 -26 -8zM912 -316q-12 0 -12 12t12 12q14 0 14 -12t-14 -12zM1758 -400v-16h-14
q-26 0 -26 18v56h-14v16h14v22h24v-22h18v-16h-18v-48q3 -12 16 -10zM758 -418q-19 0 -31.5 12.5t-12.5 35.5q0 21 12.5 34.5t33.5 13.5q19 0 30.5 -13t11.5 -33q0 -4 -2 -8h-62q2 -24 20 -24q17 0 20 16h22q-3 -16 -14.5 -25t-27.5 -9zM850 -418q-34 0 -40 30h24
q3 -14 16 -14q14 0 14 10q0 8 -22 16q-28 7 -28 26q0 12 10 20t26 8q15 0 24.5 -8t9.5 -20h-22q-3 12 -14 12q-12 0 -12 -10q0 -8 22 -14q28 -9 28 -28q0 -28 -36 -28zM986 -450q-41 0 -44 30v2h22v-2q4 -14 22 -14q21 0 24 22v14l-6 -12q-12 -4 -24 -4q-18 0 -29 11.5
t-11 32.5q0 23 12.5 35.5t31.5 12.5q14 0 20 -6l6 -8v12h24v-68q0 -12 -2 -18q0 -40 -46 -40zM1076 -374v-40h-22v90h22v-16l8 12q12 6 22 6q29 0 32 -26q2 -6 2 -16v-50h-26v58q0 18 -16 18q-9 0 -15.5 -9t-6.5 -27zM1198 -418q-21 0 -32.5 13.5t-11.5 34.5t11.5 34.5
t32.5 13.5q22 0 35 -13.5t13 -34.5t-13 -34.5t-35 -13.5zM1380 -418q-11 0 -19.5 7.5t-8.5 20.5q0 30 50 30h4v2v8q0 12 -12 12q-18 0 -18 -16h-22q0 15 11.5 23.5t28.5 8.5q32 0 36 -26v-44v-22h-22l-2 12l-4 -10q-9 -6 -22 -6zM1548 -418q-22 0 -34 13t-12 35t12 35t34 13
t34 -13t12 -35t-12 -35t-34 -13zM1632 -374v-40h-22v90h22v-16l8 12q9 6 22 6q26 0 32 -26v-16v-50h-24v58q-4 18 -16 18q-22 0 -22 -36zM1808 -418q-37 0 -40 30h22q3 -14 18 -14q12 0 12 10q0 5 -3.5 8t-16.5 8q-28 6 -28 26q0 12 9.5 20t24.5 8q31 0 38 -28h-26
q0 12 -14 12q-8 0 -8 -10q0 -9 18 -14q30 -10 30 -28q0 -28 -36 -28zM1936 -418q-19 0 -30.5 12.5t-11.5 35.5q0 22 12.5 35t31.5 13q40 0 40 -34h-22q-3 18 -18 18q-22 0 -22 -32q0 -30 22 -30q15 0 18 16h22q-3 -34 -42 -34zM2036 -418q-23 0 -35.5 13t-12.5 35t12.5 35
t35.5 13q21 0 32.5 -13.5t11.5 -34.5t-11.5 -34.5t-32.5 -13.5zM2118 -368v-46h-22v90h22v-14l8 10q9 6 18 6q21 0 28 -18l8 12q9 6 20 6t19.5 -7t8.5 -15q2 -6 2 -18v-52h-22v46q0 3 -1 7.5t-1 6.5q0 16 -16 16t-16 -30v-46h-22v60q-3 16 -16 16q-18 0 -18 -30zM220 -348
l-14 -66h-26l-30 90h28l14 -72l14 70h28l16 -70l16 72h24l-28 -90h-26zM362 -348l-18 -66h-26l-28 90h26l16 -72l16 70h28l14 -70l16 72h24l-28 -90h-26zM500 -348l-14 -66h-28l-28 90h26l16 -72l14 70h28l16 -70l16 72h24l-28 -90h-26zM924 -324v-90h-22v90h22zM1346 -324
l-34 -90h-28l-32 90h24l22 -74l22 74h26zM652 -400q24 0 24 30v2q0 30 -22 30q-24 0 -24 -32q0 -30 22 -30zM738 -362h40q-3 24 -20 24t-20 -24zM986 -398q24 0 24 28v2q0 30 -24 30q-22 0 -22 -30t22 -30zM1198 -400q24 0 24 30q0 32 -24 32q-22 0 -22 -32q0 -30 22 -30z
M1548 -400q24 0 24 30q0 32 -24 32q-22 0 -22 -32q0 -30 22 -30zM2036 -400q22 0 22 30q0 32 -22 32q-24 0 -24 -32q0 -30 24 -30zM1388 -400q8 0 13 5t5 13v8q-30 3 -30 -16q0 -10 12 -10zM580 -418q-12 0 -12 14t12 14q14 0 14 -14t-14 -14zM1868 -418q-14 0 -14 14t14 14
t14 -14t-14 -14z" />
    <glyph glyph-name="tildecomb_acutecomb" horiz-adv-x="0" 
d="M958 1932l-352 -274h-314l214 274h452zM672 1254q-46 0 -105.5 26t-109.5 52t-75 26q-36 0 -59.5 -23.5t-28.5 -62.5h-232q0 149 77.5 231.5t212.5 82.5q47 0 107.5 -26.5t111.5 -53t75 -26.5q38 0 63 26t27 60h226q0 -146 -75 -229t-215 -83z" />
    <glyph glyph-name="_Fontastica" horiz-adv-x="1359" 
d="M306 512v-312h-180q-3 0 -4.5 2t-1.5 4v2v1082h812v-160h-626v-450h626v-168h-626zM1238 1290v-1090h-810v170h626v442h-626v172h626v306h184zM778 34q-35 0 -56 18l12 26q22 -18 44 -18q10 0 12 2q4 0 4 8q0 4 -4 6q-12 8 -20 8q-10 5 -22 8l-5 3q-5 3 -7 7q-6 9 -6 18
q0 19 14.5 29.5t33.5 10.5q24 0 48 -14l-12 -26q-18 12 -36 12q-14 0 -14 -8q0 -10 22 -16q21 -5 22 -6q2 -1 7 -5t7 -5q4 -12 4 -20q0 -38 -48 -38zM288 32q-29 0 -47.5 18t-18.5 46q0 27 18.5 44.5t47.5 17.5q27 0 45.5 -17.5t18.5 -44.5t-18 -45.5t-46 -18.5zM1060 32
q-26 0 -44 18.5t-18 45.5t18.5 44.5t45.5 17.5q28 0 48 -20l-18 -22q-13 16 -30 16q-13 0 -23.5 -10t-10.5 -28q0 -7 6 -16q9 -18 28 -18q16 0 30 14l20 -18q-24 -24 -52 -24zM156 78v-42h-30v120h90v-24h-60v-28h54v-26h-54zM398 108v-72h-30v120h28l56 -72v72h30v-120h-28
zM562 130v-94h-30v94h-38v26h104v-26h-36zM626 56l-8 -20h-32l52 120h32l52 -120h-34l-10 20h-52zM902 130v-94h-34v94h-34v26h102v-26h-34zM980 156v-120h-30v120h30zM1150 56l-8 -20h-32l52 120h32l52 -120h-34l-8 20h-54zM288 60q14 0 23 10.5t9 23.5q0 8 -4 20
q-6 18 -28 18q-15 0 -24.5 -10.5t-9.5 -25.5q0 -14 10 -25t24 -11zM668 80l-14 44l-18 -44h32zM1194 80l-16 44l-18 -44h34z" />
    <glyph glyph-name="_VendorID" horiz-adv-x="1022" 
d="M729 756q-104 0 -168.5 53.5t-53.5 126.5h74q-16 -43 29 -77.5t119 -34.5q62 0 105 26.5t43 65.5q0 68 -156 90q-99 15 -149.5 55t-50.5 99q0 66 58 109t144 43q96 0 158 -51t50 -123h-74q18 40 -24 73t-110 33q-56 0 -94 -24t-38 -58q0 -67 140 -86q106 -15 161 -56
t55 -104q0 -70 -62 -115t-156 -45zM139 1000v-234h-70v536h414v-70h-344v-164h324v-68h-324zM729 126q-102 0 -167.5 53.5t-54.5 128.5h74q-16 -43 29 -77.5t119 -34.5q62 0 105 25.5t43 64.5q0 71 -152 92q-100 15 -152 54.5t-52 99.5q0 66 58.5 109t145.5 43q96 0 157 -51
t49 -123h-74q18 40 -23.5 73t-108.5 33q-56 0 -95 -24t-39 -60q0 -62 138 -84q218 -30 218 -162q0 -69 -62 -114.5t-156 -45.5zM139 370v-232h-70v534h414v-68h-344v-164h324v-70h-324zM255 34q-7 0 -12.5 6.5t-5.5 15.5q0 22 20 22q8 0 10 -2l4 -4v22h10v-58h-10v6l-4 -4
q-4 -4 -12 -4zM649 70v-34h-12v34h-4v6h4v8q0 10 16 10h4v-8q-8 3 -8 -4v-6h8v-6h-8zM383 82q-6 0 -6 6q0 4 6 4t6 -4q0 -6 -6 -6zM781 42v-8h-6q-12 0 -12 10v26h-8v6h8v12h10v-12h8v-6h-8v-24q3 -6 8 -4zM55 66l-6 -30h-12l-14 42h12l8 -34l6 32h14l6 -32l8 34h12l-14 -42
h-12zM123 66l-8 -30h-14l-12 42h12l6 -34l8 32h14l6 -32l8 34h12l-14 -42h-12zM187 66l-6 -30h-14l-12 42h12l6 -34l8 32h14l6 -32l8 34h12l-14 -42h-12zM309 34q-20 0 -20 22t22 22q20 0 20 -22l-2 -2h-30q2 -12 10 -12q7 0 10 8h10q-3 -16 -20 -16zM353 34q-17 0 -20 14
h12q0 -8 8 -8q6 0 6 6q0 3 -10 8q-14 4 -14 12q0 12 18 12q16 0 16 -12h-10q-3 6 -8 6q-4 0 -4 -6q0 -4 10 -6q12 -3 12 -14q0 -12 -16 -12zM387 78v-42h-10v42h10zM417 18q-20 0 -20 14v2h10v-2q0 -6 10 -6q9 0 12 10v6l-4 -4q-2 -2 -10 -2q-20 0 -20 20q0 22 20 22
q8 0 10 -2l4 -4v6h10v-32v-8q0 -20 -22 -20zM459 54v-18h-10v42h10v-8l4 6q4 2 10 2q13 0 16 -12v-6v-24h-12v28q0 8 -8 8q-10 0 -10 -18zM517 34q-22 0 -22 22t22 22t22 -22t-22 -22zM587 78l-16 -42h-14l-14 42h10l12 -34l10 34h12zM603 34q-14 0 -14 12q0 14 24 14h2v2v4
q0 6 -6 6q-8 0 -8 -8h-10q0 14 18 14q15 0 18 -12v-30h-10l-2 4l-2 -4q-4 -2 -10 -2zM681 34q-9 0 -14.5 6.5t-5.5 15.5q0 22 20 22q22 0 22 -22t-22 -22zM721 54v-18h-10v42h10v-8l4 6q4 2 10 2q13 0 16 -12v-6v-24h-12v28q0 8 -8 8q-10 0 -10 -18zM805 34q-17 0 -20 14h12
q0 -8 8 -8q6 0 6 6q0 1 -10 8q-14 4 -14 12q0 12 16 12q15 0 18 -12h-12q0 6 -6 6q-4 0 -4 -6q0 -3 8 -6q14 -3 14 -14q0 -12 -16 -12zM865 34q-20 0 -20 22t22 22q18 0 18 -16h-10q-3 10 -8 10q-12 0 -12 -16q0 -14 12 -14q5 0 8 8h10q-3 -16 -20 -16zM911 34q-22 0 -22 22
t22 22t22 -22t-22 -22zM951 56v-20h-10v42h10v-6l4 4q2 2 8 2q11 0 14 -8l4 6q2 2 8 2q14 0 14 -10v-32h-10v20v8q0 8 -8 8t-8 -16v-20h-10v28q0 8 -8 8t-8 -16zM259 42q12 0 12 14v2q0 14 -12 14q-10 0 -10 -16q0 -14 10 -14zM299 60h20q-4 12 -10 12q-7 0 -10 -12zM417 42
q12 0 12 14v2q0 14 -12 14q-10 0 -10 -16q0 -14 10 -14zM517 42q10 0 10 14q0 16 -10 16t-10 -16q0 -14 10 -14zM681 42q12 0 12 14q0 16 -12 16q-10 0 -10 -16q0 -14 10 -14zM911 42q12 0 12 14q0 16 -12 16q-10 0 -10 -16q0 -14 10 -14zM607 42q8 0 8 8v4q-14 4 -14 -6
q0 -6 6 -6zM225 34q-6 0 -6 6q0 8 6 8q8 0 8 -8q0 -6 -8 -6zM833 34q-6 0 -6 6q0 8 6 8t6 -8q0 -6 -6 -6z" />
    <glyph glyph-name="_Designova" horiz-adv-x="1556" 
d="M776 28q-127 0 -242.5 50t-199.5 134t-134 200.5t-50 243.5q1 128 51 243.5t134 199.5t200 133.5t243 49.5t243.5 -49.5t200.5 -133.5t134 -200t50 -243q0 -171 -84.5 -315.5t-229.5 -228.5t-316 -84zM778 102q149 0 276.5 74t201.5 201.5t74 276.5q0 113 -43.5 215.5
t-117 176.5t-175.5 118t-214 44q-113 0 -215.5 -43.5t-176.5 -117.5t-118 -176t-44 -215t43.5 -215.5t117.5 -176.5t176 -118t215 -44zM600 342h-2l26 24q19 16 30 50q8 24 25 72t25 72q32 90 64 146v2q-8 -8 -12 -14q-8 -8 -10 -14q-23 -29 -36 -64q-6 -6 -10 -6
q-114 6 -198 76q-10 10 -32 31t-32 31q-3 3 -8 9t-8 9q8 0 12 -4q53 -21 112 -30q45 -3 80 2q36 8 52 14l18 6q-6 4 -17.5 9.5t-18 9.5t-15.5 10.5t-15 14.5h20q41 0 84 20q74 46 154 70q33 10 64 10q5 0 23 1.5t27 0.5q64 -4 98 -38q7 -5 32 -36v-2q-2 2 -6 2
q-52 20 -94 4.5t-70 -58.5q-6 -11 -15 -33.5t-13 -30.5q-6 -12 -24 -56.5t-30 -67.5q-33 -69 -72 -116q-20 -27 -72 -64q-49 -37 -132 -62h-4z" />
    </font>
</defs>
</svg>
