<svg width="412" height="380" viewBox="0 0 412 380" fill="none" xmlns="http://www.w3.org/2000/svg">
<circle cx="148.347" cy="101.097" r="0.765461" fill="#ACBDFC"/>
<path d="M148.352 104.922V171.894" stroke="#ACBDFC" stroke-width="4.05913" stroke-linecap="round" stroke-linejoin="round"/>
<circle cx="148.347" cy="173.805" r="0.765461" fill="#ACBDFC"/>
<path d="M152.133 173.809H222.235" stroke="#ACBDFC" stroke-width="4.05913" stroke-linecap="round" stroke-linejoin="round"/>
<circle cx="224.131" cy="173.805" r="0.765461" fill="#ACBDFC"/>
<circle cx="305.734" cy="155.703" r="0.765461" fill="#ACBDFC"/>
<path d="M309.693 155.699H331.478" stroke="#ACBDFC" stroke-width="4.05913" stroke-linecap="round" stroke-linejoin="round"/>
<circle cx="333.463" cy="155.703" r="0.765461" fill="#ACBDFC"/>
<path d="M333.461 151.852V111.441" stroke="#ACBDFC" stroke-width="4.05913" stroke-linecap="round" stroke-linejoin="round"/>
<circle cx="333.463" cy="109.515" r="0.765461" fill="#ACBDFC"/>
<path d="M337.193 109.52H350.255" stroke="#ACBDFC" stroke-width="4.05913" stroke-linecap="round" stroke-linejoin="round"/>
<circle cx="352.123" cy="109.515" r="0.765461" fill="#ACBDFC"/>
<path d="M352.121 105.878V100.418" stroke="#ACBDFC" stroke-width="4.05913" stroke-linecap="round" stroke-linejoin="round"/>
<circle cx="352.123" cy="98.5975" r="0.765461" fill="#ACBDFC"/>
<circle cx="213.064" cy="109.597" r="0.765461" fill="#ACBDFC"/>
<path d="M213.066 113.555V155.132" stroke="#ACBDFC" stroke-width="4.05913" stroke-linecap="round" stroke-linejoin="round"/>
<circle cx="213.064" cy="157.105" r="0.765461" fill="#ACBDFC"/>
<circle cx="135.722" cy="181.035" r="0.765461" fill="#ACBDFC"/>
<path d="M135.715 184.906V256.55" stroke="#ACBDFC" stroke-width="4.05913" stroke-linecap="round" stroke-linejoin="round"/>
<circle cx="135.722" cy="258.484" r="0.765461" fill="#ACBDFC"/>
<path d="M132.338 258.488H127.27" stroke="#ACBDFC" stroke-width="4.05913" stroke-linecap="round" stroke-linejoin="round"/>
<circle cx="125.582" cy="258.484" r="0.765461" fill="#ACBDFC"/>
<circle cx="213.064" cy="121.433" r="0.765461" fill="#ACBDFC"/>
<path d="M216.811 121.434H289.914" stroke="#ACBDFC" stroke-width="4.05913" stroke-linecap="round" stroke-linejoin="round"/>
<circle cx="291.789" cy="121.433" r="0.765461" fill="#ACBDFC"/>
<path d="M291.789 118.664V117.281" stroke="#ACBDFC" stroke-width="4.05913" stroke-linecap="round" stroke-linejoin="round"/>
<circle cx="291.789" cy="115.898" r="0.765461" fill="#ACBDFC"/>
<circle cx="169.711" cy="150.855" r="0.765461" fill="#ACBDFC"/>
<path d="M169.715 154.676V171.895" stroke="#ACBDFC" stroke-width="4.05913" stroke-linecap="round" stroke-linejoin="round"/>
<circle cx="169.711" cy="173.816" r="0.765461" fill="#ACBDFC"/>
<circle cx="263.174" cy="177.14" r="0.765461" fill="#ACBDFC"/>
<path d="M263.172 180.633V192.86" stroke="#ACBDFC" stroke-width="4.05913" stroke-linecap="round" stroke-linejoin="round"/>
<circle cx="263.174" cy="194.605" r="0.765461" fill="#ACBDFC"/>
<path d="M259.231 194.613H229.67" stroke="#ACBDFC" stroke-width="4.05913" stroke-linecap="round" stroke-linejoin="round"/>
<circle cx="227.699" cy="194.605" r="0.765461" fill="#ACBDFC"/>
<circle cx="359.316" cy="158.621" r="0.765461" fill="#ACBDFC"/>
<path d="M359.316 162.43V179.567" stroke="#ACBDFC" stroke-width="4.05913" stroke-linecap="round" stroke-linejoin="round"/>
<circle cx="359.316" cy="181.472" r="0.765461" fill="#ACBDFC"/>
<path d="M355.465 181.477H291.928" stroke="#ACBDFC" stroke-width="4.05913" stroke-linecap="round" stroke-linejoin="round"/>
<circle cx="290.002" cy="181.472" r="0.765461" fill="#ACBDFC"/>
<path d="M290.002 178.915V177.637" stroke="#ACBDFC" stroke-width="4.05913" stroke-linecap="round" stroke-linejoin="round"/>
<circle cx="290.002" cy="176.355" r="0.765461" fill="#ACBDFC"/>
<path d="M308.842 67.5078V77.5354" stroke="#ACBDFC" stroke-width="4.05913" stroke-miterlimit="10" stroke-linecap="round" stroke-linejoin="round"/>
<path d="M321.372 230.023V243.633H179.986" stroke="#ACBDFC" stroke-width="4.05913" stroke-miterlimit="10" stroke-linecap="round" stroke-linejoin="round"/>
<path opacity="0.13" d="M318.363 81.8107C318.317 81.8061 318.275 81.7969 318.228 81.7969H277.879C277.833 81.7969 277.789 81.8061 277.744 81.8107C277.174 81.8696 276.711 82.2875 276.596 82.8394C276.578 82.9259 276.568 83.0155 276.568 83.1073V110.903C276.568 111.056 276.6 111.2 276.647 111.336C276.827 111.846 277.308 112.213 277.879 112.213H278.058H318.227C318.303 112.213 318.376 112.203 318.448 112.191C318.921 112.111 319.303 111.778 319.459 111.336C319.507 111.2 319.538 111.055 319.538 110.903V83.1073C319.538 83.0155 319.528 82.9259 319.51 82.8394C319.396 82.2875 318.932 81.8696 318.363 81.8107Z" fill="#797A7A"/>
<path d="M278.453 81.0977C278.436 81.1842 278.426 81.2737 278.426 81.3656V109.161C278.426 109.313 278.457 109.458 278.505 109.594L296.451 96.8914L278.453 81.0977Z" fill="#635BFF"/>
<path d="M302.138 97.8906C301.459 98.3147 300.688 98.5336 299.913 98.5336C299.137 98.5336 298.366 98.3147 297.688 97.8906L279.918 110.469H320.087C320.163 110.469 320.236 110.459 320.308 110.447L319.864 110.438L302.138 97.8906Z" fill="#635BFF"/>
<path d="M301.676 96.3406L320.222 80.0646C320.177 80.06 320.133 80.0508 320.087 80.0508H279.738C279.692 80.0508 279.649 80.06 279.604 80.0646L298.15 96.3406C299.155 97.2224 300.671 97.2231 301.676 96.3406Z" fill="#635BFF"/>
<path d="M321.317 109.594C321.365 109.458 321.395 109.313 321.395 109.161V81.3656C321.395 81.2737 321.385 81.1842 321.368 81.0977L303.371 96.8914L321.317 109.594Z" fill="#635BFF"/>
<path d="M321.367 81.0952C321.252 80.5433 320.789 80.1253 320.219 80.0664L301.673 96.3424C300.668 97.2242 299.152 97.2235 298.148 96.3424L279.601 80.0664C279.031 80.1253 278.568 80.5433 278.453 81.0952L296.45 96.8889L278.504 109.592C278.684 110.102 279.165 110.469 279.736 110.469H279.915L297.685 97.8902C298.364 98.3142 299.135 98.5332 299.91 98.5332C300.684 98.5332 301.456 98.3142 302.135 97.8902L319.861 110.438L320.305 110.447C320.777 110.366 321.16 110.034 321.316 109.592L303.37 96.8889L321.367 81.0952Z" fill="#635BFF"/>
<path opacity="0.13" d="M256.708 25.8867H193.793C192.148 25.8867 190.814 27.2202 190.814 28.8651V102.054C190.814 103.699 192.148 105.032 193.793 105.032H256.708C258.353 105.032 259.687 103.699 259.687 102.054V28.8651C259.687 27.2202 258.353 25.8867 256.708 25.8867Z" fill="#797A7A"/>
<path d="M258.999 103.146H196.084C194.439 103.146 193.105 101.812 193.105 100.167V26.9784C193.105 25.3334 194.439 24 196.084 24H258.999C260.644 24 261.978 25.3334 261.978 26.9784V100.167C261.979 101.812 260.645 103.146 258.999 103.146Z" fill="#001C55"/>
<path d="M210.602 32.6133H253.659" stroke="white" stroke-width="4.05913" stroke-miterlimit="10" stroke-linecap="round" stroke-linejoin="round"/>
<path d="M210.602 36.3047H244.789" stroke="white" stroke-width="4.05913" stroke-miterlimit="10" stroke-linecap="round" stroke-linejoin="round"/>
<path d="M206.387 34.461C206.387 37.0329 204.302 39.1173 201.731 39.1173C199.159 39.1173 197.074 37.0322 197.074 34.461C197.074 31.889 199.159 29.8047 201.731 29.8047C204.302 29.8047 206.387 31.889 206.387 34.461Z" fill="#635BFF"/>
<path d="M198.803 34.3268L201.131 36.6133L204.666 33.2031" stroke="white" stroke-width="2.02957" stroke-miterlimit="10" stroke-linecap="round" stroke-linejoin="round"/>
<path d="M210.602 46.8086H253.659" stroke="white" stroke-width="4.05913" stroke-miterlimit="10" stroke-linecap="round" stroke-linejoin="round"/>
<path d="M210.602 50.5078H244.789" stroke="white" stroke-width="4.05913" stroke-miterlimit="10" stroke-linecap="round" stroke-linejoin="round"/>
<path d="M206.387 48.6602C206.387 51.2322 204.302 53.3165 201.731 53.3165C199.159 53.3165 197.074 51.2314 197.074 48.6602C197.074 46.0883 199.159 44.0039 201.731 44.0039C204.302 44.0031 206.387 46.0883 206.387 48.6602Z" fill="#635BFF"/>
<path d="M198.803 48.526L201.131 50.8125L204.666 47.4023" stroke="white" stroke-width="2.02957" stroke-miterlimit="10" stroke-linecap="round" stroke-linejoin="round"/>
<path d="M210.602 61.0039H253.659" stroke="white" stroke-width="4.05913" stroke-miterlimit="10" stroke-linecap="round" stroke-linejoin="round"/>
<path d="M210.602 64.6953H244.789" stroke="white" stroke-width="4.05913" stroke-miterlimit="10" stroke-linecap="round" stroke-linejoin="round"/>
<path d="M206.387 62.8516C206.387 65.4236 204.302 67.5079 201.731 67.5079C199.159 67.5079 197.074 65.4228 197.074 62.8516C197.074 60.2797 199.159 58.1953 201.731 58.1953C204.302 58.1953 206.387 60.2797 206.387 62.8516Z" fill="#635BFF"/>
<path d="M198.803 62.7174L201.131 65.0039L204.666 61.5938" stroke="white" stroke-width="2.02957" stroke-miterlimit="10" stroke-linecap="round" stroke-linejoin="round"/>
<path d="M210.602 89.168H253.659" stroke="white" stroke-width="4.05913" stroke-miterlimit="10" stroke-linecap="round" stroke-linejoin="round"/>
<path d="M210.602 92.8633H244.789" stroke="white" stroke-width="4.05913" stroke-miterlimit="10" stroke-linecap="round" stroke-linejoin="round"/>
<path d="M206.387 91.0196C206.387 93.5915 204.302 95.6759 201.731 95.6759C199.159 95.6759 197.074 93.5908 197.074 91.0196C197.074 88.4476 199.159 86.3633 201.731 86.3633C204.302 86.3633 206.387 88.4476 206.387 91.0196Z" fill="#635BFF"/>
<path d="M198.803 90.8847L201.131 93.1711L204.666 89.7617" stroke="white" stroke-width="2.02957" stroke-miterlimit="10" stroke-linecap="round" stroke-linejoin="round"/>
<path d="M210.602 75.6797H253.659" stroke="white" stroke-width="4.05913" stroke-miterlimit="10" stroke-linecap="round" stroke-linejoin="round"/>
<path d="M210.602 79.3828H244.789" stroke="white" stroke-width="4.05913" stroke-miterlimit="10" stroke-linecap="round" stroke-linejoin="round"/>
<path d="M206.387 77.5352C206.387 80.1072 204.302 82.1915 201.731 82.1915C199.159 82.1915 197.074 80.1064 197.074 77.5352C197.074 74.9633 199.159 72.8789 201.731 72.8789C204.302 72.8789 206.387 74.9633 206.387 77.5352Z" fill="#635BFF"/>
<path d="M198.803 77.4081L201.131 79.6945L204.666 76.2852" stroke="white" stroke-width="2.02957" stroke-miterlimit="10" stroke-linecap="round" stroke-linejoin="round"/>
<path opacity="0.13" d="M336.117 164.873C337.767 166.523 340.449 166.523 342.1 164.873L349.241 157.689L348.381 156.83L351.235 153.975C356.062 156.877 362.416 156.259 366.57 152.104C371.467 147.208 371.467 139.272 366.57 134.376C361.673 129.479 353.738 129.479 348.841 134.376C344.674 138.543 344.068 144.884 346.971 149.711L344.117 152.565L343.257 151.705L336.116 158.889C334.466 160.541 334.466 163.223 336.117 164.873ZM348.685 143.247C348.685 138.269 352.721 134.232 357.7 134.232C362.678 134.232 366.715 138.269 366.715 143.247C366.715 148.227 362.678 152.263 357.7 152.263C352.72 152.263 348.685 148.227 348.685 143.247Z" fill="#797A7A"/>
<path d="M339.643 163.025C341.293 164.675 343.975 164.675 345.626 163.025L352.767 155.841L351.907 154.981L354.761 152.128C359.588 155.029 365.942 154.411 370.096 150.257C374.992 145.361 374.992 137.425 370.096 132.528C365.199 127.631 357.264 127.631 352.367 132.528C348.2 136.695 347.594 143.036 350.496 147.863L347.643 150.717L346.783 149.857L339.642 157.041C337.992 158.692 337.992 161.374 339.643 163.025ZM352.21 141.399C352.21 136.42 356.246 132.384 361.225 132.384C366.204 132.384 370.24 136.42 370.24 141.399C370.24 146.377 366.203 150.414 361.225 150.414C356.246 150.414 352.21 146.378 352.21 141.399Z" fill="#001C55"/>
<path opacity="0.13" d="M368.473 48.6484H342.629C338.493 48.6484 335.139 52.0019 335.139 56.1385V92.5775C335.139 96.7141 338.492 100.068 342.629 100.068H368.473C372.61 100.068 375.964 96.7141 375.964 92.5775V56.1392C375.964 52.0019 372.61 48.6484 368.473 48.6484Z" fill="#797A7A"/>
<path d="M370.511 98.0878H344.668C340.531 98.0878 337.178 94.7344 337.178 90.597V54.1588C337.178 50.0222 340.531 46.668 344.668 46.668H370.511C374.648 46.668 378.002 50.0215 378.002 54.1588V90.5978C378.001 94.7343 374.648 98.0878 370.511 98.0878Z" fill="#635BFF"/>
<path d="M345.641 58.9766H369.534" stroke="white" stroke-width="4.05913" stroke-miterlimit="10" stroke-linecap="round" stroke-linejoin="round"/>
<path d="M345.641 65.6758H369.534" stroke="white" stroke-width="4.05913" stroke-miterlimit="10" stroke-linecap="round" stroke-linejoin="round"/>
<path d="M345.641 72.3672H369.534" stroke="white" stroke-width="4.05913" stroke-miterlimit="10" stroke-linecap="round" stroke-linejoin="round"/>
<path d="M345.641 79.0664H369.534" stroke="white" stroke-width="4.05913" stroke-miterlimit="10" stroke-linecap="round" stroke-linejoin="round"/>
<path d="M345.641 85.7656H361.542" stroke="white" stroke-width="4.05913" stroke-miterlimit="10" stroke-linecap="round" stroke-linejoin="round"/>
<path d="M346.299 44.4141V48.9058" stroke="#001C55" stroke-width="8.11827" stroke-miterlimit="10" stroke-linecap="round" stroke-linejoin="round"/>
<path d="M351.941 44.4141V48.9058" stroke="#001C55" stroke-width="8.11827" stroke-miterlimit="10" stroke-linecap="round" stroke-linejoin="round"/>
<path d="M357.586 44.4141V48.9058" stroke="#001C55" stroke-width="8.11827" stroke-miterlimit="10" stroke-linecap="round" stroke-linejoin="round"/>
<path d="M363.232 44.4141V48.9058" stroke="#001C55" stroke-width="8.11827" stroke-miterlimit="10" stroke-linecap="round" stroke-linejoin="round"/>
<path d="M368.881 44.4141V48.9058" stroke="#001C55" stroke-width="8.11827" stroke-miterlimit="10" stroke-linecap="round" stroke-linejoin="round"/>
<path opacity="0.13" d="M144.003 102.082H39.5021C35.3587 102.082 32 105.441 32 109.584V168.213C32 172.356 35.3587 175.715 39.5021 175.715H144.003C148.146 175.715 151.505 172.356 151.505 168.213V109.584C151.507 105.441 148.146 102.082 144.003 102.082Z" fill="#797A7A"/>
<path d="M149.577 170.696H45.0763C40.9329 170.696 37.5742 167.337 37.5742 163.194V104.565C37.5742 100.421 40.9329 97.0625 45.0763 97.0625H149.577C153.72 97.0625 157.079 100.421 157.079 104.565V163.194C157.079 167.337 153.72 170.696 149.577 170.696Z" fill="#635BFF"/>
<path d="M111.989 130.935L92.8578 119.89C90.5905 118.582 87.7578 120.217 87.7578 122.835V144.925C87.7578 147.542 90.5905 149.178 92.8578 147.869L111.989 136.824C114.256 135.516 114.256 132.244 111.989 130.935Z" fill="white"/>
<path opacity="0.13" d="M373.129 220.869H349.758V196.082C349.758 194.144 348.187 192.574 346.251 192.574H301.199C299.261 192.574 297.691 194.144 297.691 196.082V223.319C297.691 225.256 299.261 226.826 301.199 226.826H301.418V232.435L309.457 226.915L308.998 226.826H331.042V245.442C331.042 247.38 332.612 248.95 334.549 248.95H365.33L364.871 249.038L372.909 254.558V248.95H373.129C375.066 248.95 376.636 247.38 376.636 245.443V224.378C376.636 222.439 375.067 220.869 373.129 220.869Z" fill="#797A7A"/>
<path d="M348.669 188.988H303.617C301.679 188.988 300.109 190.558 300.109 192.496V219.733C300.109 221.67 301.679 223.24 303.617 223.24H303.836V228.848L311.875 223.328L311.416 223.24H348.669C350.606 223.24 352.176 221.669 352.176 219.732V192.495C352.176 190.558 350.606 188.988 348.669 188.988Z" fill="#D1D5DB"/>
<path d="M310.066 196.895H342.216" stroke="white" stroke-width="4.05913" stroke-miterlimit="10" stroke-linecap="round" stroke-linejoin="round"/>
<path d="M310.066 201.547H342.216" stroke="white" stroke-width="4.05913" stroke-miterlimit="10" stroke-linecap="round" stroke-linejoin="round"/>
<path d="M310.066 206.199H342.216" stroke="white" stroke-width="4.05913" stroke-miterlimit="10" stroke-linecap="round" stroke-linejoin="round"/>
<path d="M310.066 210.855H342.216" stroke="white" stroke-width="4.05913" stroke-miterlimit="10" stroke-linecap="round" stroke-linejoin="round"/>
<path d="M310.066 215.508H328.948" stroke="white" stroke-width="4.05913" stroke-miterlimit="10" stroke-linecap="round" stroke-linejoin="round"/>
<path d="M336.966 217.285H375.546C377.484 217.285 379.054 218.855 379.054 220.793V241.858C379.054 243.795 377.484 245.365 375.546 245.365H375.327V250.974L367.288 245.454L367.747 245.365H336.966C335.029 245.365 333.459 243.795 333.459 241.858V220.793C333.459 218.856 335.03 217.285 336.966 217.285Z" fill="#001C55"/>
<path d="M343.086 224.016H369.422" stroke="white" stroke-width="4.05913" stroke-miterlimit="10" stroke-linecap="round" stroke-linejoin="round"/>
<path d="M343.086 228.668H369.422" stroke="white" stroke-width="4.05913" stroke-miterlimit="10" stroke-linecap="round" stroke-linejoin="round"/>
<path d="M343.086 233.324H369.422" stroke="white" stroke-width="4.05913" stroke-miterlimit="10" stroke-linecap="round" stroke-linejoin="round"/>
<path d="M343.086 237.977H356.154" stroke="white" stroke-width="4.05913" stroke-miterlimit="10" stroke-linecap="round" stroke-linejoin="round"/>
<path opacity="0.13" d="M301.86 131.879H252.705C251.058 131.879 249.723 133.214 249.723 134.861V138.86V170.552C249.723 172.199 251.058 173.534 252.705 173.534H301.86C303.507 173.534 304.842 172.199 304.842 170.552V138.86V134.861C304.842 133.214 303.507 131.879 301.86 131.879Z" fill="#797A7A"/>
<path d="M304.179 171.674H255.025C253.378 171.674 252.043 170.339 252.043 168.692V133.002C252.043 131.355 253.378 130.02 255.025 130.02H304.18C305.827 130.02 307.162 131.355 307.162 133.002V168.692C307.162 170.339 305.827 171.674 304.179 171.674Z" fill="#001C55"/>
<path d="M307.162 137.001H252.043V133.002C252.043 131.355 253.378 130.02 255.025 130.02H304.18C305.827 130.02 307.162 131.355 307.162 133.002V137.001Z" fill="#D1D5DB"/>
<path d="M279.601 165.118C273.216 165.118 268.021 159.923 268.021 153.538C268.021 147.152 273.216 141.957 279.601 141.957C285.988 141.957 291.182 147.152 291.182 153.538C291.182 159.923 285.988 165.118 279.601 165.118ZM279.601 142.888C273.729 142.888 268.952 147.665 268.952 153.538C268.952 159.41 273.729 164.188 279.601 164.188C285.474 164.188 290.252 159.41 290.252 153.538C290.252 147.665 285.474 142.888 279.601 142.888Z" fill="white"/>
<path d="M279.599 165.118C279.342 165.118 279.135 164.91 279.135 164.653V142.422C279.135 142.165 279.343 141.957 279.599 141.957C279.857 141.957 280.064 142.165 280.064 142.422V164.653C280.064 164.91 279.857 165.118 279.599 165.118Z" fill="white"/>
<path d="M290.549 153.997H269.144C268.887 153.997 268.68 153.789 268.68 153.532C268.68 153.275 268.887 153.066 269.144 153.066H290.549C290.806 153.066 291.014 153.275 291.014 153.532C291.014 153.788 290.806 153.997 290.549 153.997Z" fill="white"/>
<path d="M273.997 163.419C273.795 163.419 273.61 163.288 273.55 163.085C269.838 150.477 273.439 144.032 273.594 143.764C273.722 143.542 274.005 143.465 274.229 143.594C274.451 143.722 274.528 144.006 274.4 144.229C274.364 144.292 270.854 150.636 274.444 162.823C274.516 163.069 274.376 163.328 274.129 163.401C274.084 163.414 274.04 163.419 273.997 163.419Z" fill="white"/>
<path d="M285.067 163.42C285.023 163.42 284.98 163.413 284.935 163.4C284.689 163.328 284.548 163.069 284.621 162.823C288.209 150.636 284.7 144.291 284.664 144.229C284.537 144.006 284.613 143.722 284.836 143.593C285.059 143.466 285.343 143.541 285.47 143.763C285.625 144.031 289.226 150.477 285.514 163.085C285.454 163.289 285.268 163.42 285.067 163.42Z" fill="white"/>
<path d="M270.051 148.406C269.85 148.406 269.665 148.275 269.605 148.072C269.532 147.826 269.673 147.567 269.92 147.494C282.525 143.781 288.974 147.382 289.241 147.538C289.463 147.666 289.539 147.95 289.411 148.172C289.284 148.395 288.998 148.471 288.777 148.344C288.714 148.308 282.368 144.799 270.183 148.387C270.139 148.4 270.095 148.406 270.051 148.406Z" fill="white"/>
<path d="M280.584 161.133C277.732 161.133 274.178 160.713 269.92 159.459C269.673 159.386 269.532 159.127 269.605 158.881C269.678 158.634 269.934 158.493 270.183 158.566C282.368 162.156 288.713 158.646 288.777 158.609C288.998 158.482 289.284 158.558 289.411 158.781C289.539 159.003 289.463 159.287 289.241 159.415C289.064 159.519 286.177 161.133 280.584 161.133Z" fill="white"/>
<path opacity="0.13" d="M181.394 226.562H117.037C114.881 226.562 113.133 228.311 113.133 230.467V235.703V274.173C113.133 276.33 114.881 278.078 117.037 278.078H181.394C183.551 278.078 185.299 276.33 185.299 274.173V235.703V230.467C185.299 228.311 183.551 226.562 181.394 226.562Z" fill="#797A7A"/>
<path d="M184.433 275.644H120.076C117.92 275.644 116.172 273.896 116.172 271.74V228.034C116.172 225.877 117.92 224.129 120.076 224.129H184.433C186.59 224.129 188.338 225.877 188.338 228.034V271.74C188.338 273.896 186.59 275.644 184.433 275.644Z" fill="#001C55"/>
<path d="M188.338 235.993H116.172V228.034C116.172 225.877 117.92 224.129 120.076 224.129H184.433C186.59 224.129 188.338 225.877 188.338 228.034V235.993Z" fill="#635BFF"/>
<path d="M131.714 251.715H125.868C124.608 251.715 123.578 250.685 123.578 249.425V243.579C123.578 242.319 124.608 241.289 125.868 241.289H131.714C132.973 241.289 134.004 242.319 134.004 243.579V249.425C134.004 250.684 132.973 251.715 131.714 251.715Z" stroke="white" stroke-width="2.02957" stroke-miterlimit="10"/>
<path d="M146.925 251.715H141.079C139.819 251.715 138.789 250.685 138.789 249.425V243.579C138.789 242.319 139.819 241.289 141.079 241.289H146.925C148.184 241.289 149.215 242.319 149.215 243.579V249.425C149.215 250.684 148.184 251.715 146.925 251.715Z" fill="#D1D5DB"/>
<path d="M162.141 251.715H156.294C155.035 251.715 154.004 250.685 154.004 249.425V243.579C154.004 242.319 155.034 241.289 156.294 241.289H162.141C163.4 241.289 164.431 242.319 164.431 243.579V249.425C164.431 250.684 163.4 251.715 162.141 251.715Z" stroke="white" stroke-width="2.02957" stroke-miterlimit="10"/>
<path d="M177.355 251.715H171.508C170.249 251.715 169.219 250.685 169.219 249.425V243.579C169.219 242.319 170.249 241.289 171.508 241.289H177.355C178.614 241.289 179.645 242.319 179.645 243.579V249.425C179.644 250.684 178.614 251.715 177.355 251.715Z" stroke="white" stroke-width="2.02957" stroke-miterlimit="10"/>
<path d="M131.714 267.028H125.868C124.608 267.028 123.578 265.998 123.578 264.738V258.891C123.578 257.632 124.608 256.602 125.868 256.602H131.714C132.973 256.602 134.004 257.632 134.004 258.891V264.738C134.004 265.998 132.973 267.028 131.714 267.028Z" stroke="white" stroke-width="2.02957" stroke-miterlimit="10"/>
<path d="M146.925 267.028H141.079C139.819 267.028 138.789 265.998 138.789 264.738V258.891C138.789 257.632 139.819 256.602 141.079 256.602H146.925C148.184 256.602 149.215 257.632 149.215 258.891V264.738C149.215 265.998 148.184 267.028 146.925 267.028Z" stroke="white" stroke-width="2.02957" stroke-miterlimit="10"/>
<path d="M162.141 267.028H156.294C155.035 267.028 154.004 265.998 154.004 264.738V258.891C154.004 257.632 155.034 256.602 156.294 256.602H162.141C163.4 256.602 164.431 257.632 164.431 258.891V264.738C164.431 265.998 163.4 267.028 162.141 267.028Z" fill="#D1D5DB"/>
<path d="M177.355 267.028H171.508C170.249 267.028 169.219 265.998 169.219 264.738V258.891C169.219 257.632 170.249 256.602 171.508 256.602H177.355C178.614 256.602 179.645 257.632 179.645 258.891V264.738C179.644 265.998 178.614 267.028 177.355 267.028Z" stroke="white" stroke-width="2.02957" stroke-miterlimit="10"/>
<path opacity="0.13" d="M227.14 191.44H166.322C164.858 191.44 163.66 190.242 163.66 188.778V147.24C163.66 145.776 164.858 144.578 166.322 144.578H227.14C228.604 144.578 229.802 145.776 229.802 147.24V188.778C229.803 190.242 228.604 191.44 227.14 191.44Z" fill="#797A7A"/>
<path d="M229.761 188.726H168.944C167.479 188.726 166.281 187.528 166.281 186.063V144.526C166.281 143.061 167.479 141.863 168.944 141.863H229.761C231.225 141.863 232.423 143.061 232.423 144.526V186.063C232.423 187.528 231.225 188.726 229.761 188.726Z" fill="#001C55"/>
<path d="M189.353 158.723H184.783V178.811H189.353V158.723Z" fill="white"/>
<path d="M213.404 154.297H208.834V178.811H213.404V154.297Z" fill="#D1D5DB"/>
<path d="M205.429 162.742H200.859V178.809H205.429V162.742Z" fill="white"/>
<path d="M197.373 166.73H192.803V178.816H197.373V166.73Z" fill="#635BFF"/>
<path d="M179.811 151.77V178.812H218.897" stroke="#D1D5DB" stroke-width="2.02957" stroke-miterlimit="10" stroke-linecap="round" stroke-linejoin="round"/>
<path d="M229.395 153.807C235.552 153.807 240.543 148.816 240.543 142.659C240.543 136.503 235.552 131.512 229.395 131.512C223.239 131.512 218.248 136.503 218.248 142.659C218.248 148.816 223.239 153.807 229.395 153.807Z" fill="#D1D5DB"/>
<path d="M223.527 141.975L228.189 146.552L235.265 139.727" stroke="white" stroke-width="3.97288" stroke-miterlimit="10" stroke-linecap="round" stroke-linejoin="round"/>
<rect x="117.055" y="310.551" width="176.941" height="45.3934" rx="6.71803" fill="#465FFF"/>
<path d="M141.114 338.903C140.361 338.903 139.65 338.757 138.982 338.464C138.313 338.171 137.728 337.769 137.226 337.257C136.724 336.734 136.327 336.134 136.035 335.454C135.753 334.765 135.611 334.028 135.611 333.244C135.611 332.46 135.753 331.729 136.035 331.049C136.327 330.37 136.724 329.775 137.226 329.262C137.738 328.74 138.334 328.338 139.013 328.055C139.703 327.763 140.445 327.617 141.239 327.617C142.106 327.617 142.911 327.784 143.653 328.118C144.395 328.453 145.017 328.928 145.518 329.545L144.296 330.767C143.972 330.308 143.538 329.957 142.995 329.717C142.451 329.466 141.866 329.341 141.239 329.341C140.486 329.341 139.823 329.508 139.248 329.842C138.684 330.166 138.245 330.621 137.931 331.206C137.618 331.791 137.461 332.471 137.461 333.244C137.461 334.017 137.618 334.702 137.931 335.298C138.255 335.883 138.689 336.343 139.232 336.677C139.776 337.011 140.392 337.179 141.082 337.179C141.814 337.179 142.441 337.048 142.963 336.787C143.496 336.515 143.904 336.118 144.186 335.595C144.468 335.062 144.609 334.409 144.609 333.636L145.738 334.451H141.051V332.805H146.474V333.056C146.474 334.362 146.239 335.449 145.769 336.316C145.309 337.184 144.677 337.832 143.872 338.26C143.068 338.689 142.148 338.903 141.114 338.903ZM151.482 338.903C150.751 338.903 150.087 338.73 149.491 338.386C148.896 338.03 148.42 337.555 148.065 336.959C147.72 336.363 147.548 335.7 147.548 334.968C147.548 334.237 147.72 333.578 148.065 332.993C148.42 332.408 148.896 331.943 149.491 331.598C150.087 331.243 150.751 331.065 151.482 331.065C152.224 331.065 152.893 331.238 153.489 331.582C154.084 331.927 154.555 332.398 154.899 332.993C155.255 333.578 155.432 334.237 155.432 334.968C155.432 335.7 155.255 336.363 154.899 336.959C154.555 337.555 154.084 338.03 153.489 338.386C152.893 338.73 152.224 338.903 151.482 338.903ZM151.482 337.241C151.911 337.241 152.287 337.147 152.611 336.959C152.945 336.761 153.201 336.489 153.379 336.144C153.567 335.799 153.661 335.407 153.661 334.968C153.661 334.529 153.567 334.143 153.379 333.808C153.191 333.474 152.935 333.213 152.611 333.025C152.287 332.826 151.911 332.727 151.482 332.727C151.064 332.727 150.688 332.826 150.354 333.025C150.03 333.213 149.774 333.474 149.585 333.808C149.408 334.143 149.319 334.529 149.319 334.968C149.319 335.407 149.408 335.799 149.585 336.144C149.774 336.489 150.03 336.761 150.354 336.959C150.688 337.147 151.064 337.241 151.482 337.241ZM161.149 338.746V328.087H162.873V338.746H161.149ZM159.346 332.789V331.222H164.676V332.789H159.346ZM169.163 338.903C168.431 338.903 167.768 338.73 167.172 338.386C166.576 338.03 166.101 337.555 165.746 336.959C165.401 336.363 165.228 335.7 165.228 334.968C165.228 334.237 165.401 333.578 165.746 332.993C166.101 332.408 166.576 331.943 167.172 331.598C167.768 331.243 168.431 331.065 169.163 331.065C169.905 331.065 170.574 331.238 171.169 331.582C171.765 331.927 172.235 332.398 172.58 332.993C172.935 333.578 173.113 334.237 173.113 334.968C173.113 335.7 172.935 336.363 172.58 336.959C172.235 337.555 171.765 338.03 171.169 338.386C170.574 338.73 169.905 338.903 169.163 338.903ZM169.163 337.241C169.591 337.241 169.968 337.147 170.292 336.959C170.626 336.761 170.882 336.489 171.06 336.144C171.248 335.799 171.342 335.407 171.342 334.968C171.342 334.529 171.248 334.143 171.06 333.808C170.872 333.474 170.615 333.213 170.292 333.025C169.968 332.826 169.591 332.727 169.163 332.727C168.745 332.727 168.369 332.826 168.034 333.025C167.71 333.213 167.454 333.474 167.266 333.808C167.089 334.143 167 334.529 167 334.968C167 335.407 167.089 335.799 167.266 336.144C167.454 336.489 167.71 336.761 168.034 336.959C168.369 337.147 168.745 337.241 169.163 337.241ZM179.159 334.091V332.601H181.933C182.487 332.601 182.916 332.46 183.219 332.178C183.532 331.885 183.689 331.483 183.689 330.971C183.689 330.511 183.537 330.125 183.234 329.811C182.931 329.498 182.503 329.341 181.949 329.341H179.159V327.773H182.027C182.717 327.773 183.323 327.914 183.846 328.197C184.368 328.468 184.77 328.844 185.053 329.325C185.345 329.795 185.492 330.334 185.492 330.94C185.492 331.577 185.345 332.131 185.053 332.601C184.77 333.072 184.368 333.437 183.846 333.699C183.323 333.96 182.717 334.091 182.027 334.091H179.159ZM177.92 338.746V327.773H179.723V338.746H177.92ZM183.94 338.746L180.099 333.981L181.776 333.369L186.213 338.746H183.94ZM190.58 338.903C189.827 338.903 189.148 338.736 188.542 338.401C187.946 338.056 187.471 337.586 187.116 336.99C186.771 336.395 186.598 335.726 186.598 334.984C186.598 334.242 186.771 333.578 187.116 332.993C187.461 332.398 187.926 331.927 188.511 331.582C189.106 331.238 189.765 331.065 190.486 331.065C191.186 331.065 191.803 331.227 192.336 331.551C192.879 331.875 193.302 332.319 193.605 332.883C193.919 333.448 194.076 334.091 194.076 334.812C194.076 334.937 194.065 335.068 194.044 335.203C194.034 335.329 194.013 335.47 193.981 335.627H187.805V334.216H193.088L192.445 334.78C192.424 334.32 192.336 333.934 192.179 333.62C192.022 333.307 191.797 333.066 191.505 332.899C191.223 332.732 190.873 332.648 190.455 332.648C190.016 332.648 189.634 332.742 189.31 332.931C188.986 333.119 188.735 333.385 188.558 333.73C188.38 334.064 188.291 334.467 188.291 334.937C188.291 335.407 188.385 335.82 188.573 336.175C188.762 336.531 189.028 336.808 189.373 337.006C189.718 337.194 190.115 337.288 190.564 337.288C190.951 337.288 191.306 337.22 191.63 337.085C191.965 336.949 192.247 336.75 192.477 336.489L193.574 337.602C193.208 338.03 192.764 338.354 192.242 338.574C191.719 338.793 191.165 338.903 190.58 338.903ZM197.919 338.903C197.501 338.903 197.098 338.851 196.712 338.746C196.325 338.631 195.97 338.474 195.646 338.276C195.322 338.067 195.04 337.816 194.799 337.523L195.897 336.426C196.158 336.729 196.456 336.959 196.79 337.116C197.135 337.262 197.522 337.335 197.95 337.335C198.337 337.335 198.629 337.278 198.828 337.163C199.027 337.048 199.126 336.881 199.126 336.661C199.126 336.431 199.032 336.254 198.844 336.128C198.656 336.003 198.41 335.898 198.107 335.815C197.814 335.721 197.501 335.627 197.166 335.533C196.842 335.439 196.529 335.313 196.226 335.156C195.933 334.989 195.693 334.765 195.505 334.482C195.317 334.2 195.223 333.834 195.223 333.385C195.223 332.904 195.332 332.492 195.552 332.147C195.782 331.802 196.1 331.535 196.508 331.347C196.926 331.159 197.422 331.065 197.997 331.065C198.603 331.065 199.136 331.175 199.596 331.394C200.066 331.603 200.458 331.922 200.772 332.351L199.674 333.448C199.455 333.176 199.204 332.972 198.922 332.836C198.64 332.701 198.316 332.633 197.95 332.633C197.605 332.633 197.339 332.685 197.151 332.789C196.963 332.894 196.869 333.045 196.869 333.244C196.869 333.453 196.963 333.615 197.151 333.73C197.339 333.845 197.579 333.944 197.872 334.028C198.175 334.111 198.488 334.205 198.812 334.31C199.147 334.404 199.46 334.54 199.753 334.718C200.056 334.885 200.301 335.115 200.49 335.407C200.678 335.689 200.772 336.06 200.772 336.52C200.772 337.252 200.516 337.832 200.004 338.26C199.492 338.689 198.797 338.903 197.919 338.903ZM205.642 338.903C204.91 338.903 204.247 338.73 203.651 338.386C203.055 338.03 202.58 337.555 202.225 336.959C201.88 336.363 201.707 335.7 201.707 334.968C201.707 334.237 201.88 333.578 202.225 332.993C202.58 332.408 203.055 331.943 203.651 331.598C204.247 331.243 204.91 331.065 205.642 331.065C206.384 331.065 207.053 331.238 207.648 331.582C208.244 331.927 208.714 332.398 209.059 332.993C209.414 333.578 209.592 334.237 209.592 334.968C209.592 335.7 209.414 336.363 209.059 336.959C208.714 337.555 208.244 338.03 207.648 338.386C207.053 338.73 206.384 338.903 205.642 338.903ZM205.642 337.241C206.07 337.241 206.447 337.147 206.771 336.959C207.105 336.761 207.361 336.489 207.539 336.144C207.727 335.799 207.821 335.407 207.821 334.968C207.821 334.529 207.727 334.143 207.539 333.808C207.351 333.474 207.094 333.213 206.771 333.025C206.447 332.826 206.07 332.727 205.642 332.727C205.224 332.727 204.848 332.826 204.513 333.025C204.189 333.213 203.933 333.474 203.745 333.808C203.568 334.143 203.479 334.529 203.479 334.968C203.479 335.407 203.568 335.799 203.745 336.144C203.933 336.489 204.189 336.761 204.513 336.959C204.848 337.147 205.224 337.241 205.642 337.241ZM214.114 338.903C213.477 338.903 212.907 338.762 212.405 338.48C211.914 338.197 211.528 337.811 211.245 337.32C210.974 336.818 210.838 336.243 210.838 335.595V331.222H212.562V335.517C212.562 335.883 212.62 336.196 212.735 336.457C212.86 336.708 213.038 336.902 213.268 337.037C213.508 337.173 213.79 337.241 214.114 337.241C214.616 337.241 214.997 337.095 215.258 336.802C215.53 336.499 215.666 336.071 215.666 335.517V331.222H217.39V335.595C217.39 336.254 217.249 336.834 216.967 337.335C216.695 337.826 216.314 338.213 215.823 338.495C215.332 338.767 214.762 338.903 214.114 338.903ZM219.124 338.746V331.222H220.848V338.746H219.124ZM220.848 334.561L220.253 334.263C220.253 333.312 220.462 332.544 220.88 331.959C221.308 331.363 221.951 331.065 222.808 331.065C223.184 331.065 223.524 331.133 223.827 331.269C224.13 331.405 224.412 331.624 224.673 331.927L223.544 333.087C223.409 332.941 223.257 332.836 223.09 332.774C222.923 332.711 222.729 332.68 222.51 332.68C222.029 332.68 221.632 332.831 221.319 333.134C221.005 333.437 220.848 333.913 220.848 334.561ZM228.742 338.903C228 338.903 227.326 338.73 226.72 338.386C226.124 338.041 225.654 337.57 225.309 336.975C224.964 336.379 224.792 335.716 224.792 334.984C224.792 334.242 224.964 333.578 225.309 332.993C225.654 332.398 226.124 331.927 226.72 331.582C227.326 331.238 228 331.065 228.742 331.065C229.327 331.065 229.871 331.18 230.372 331.41C230.884 331.629 231.318 331.948 231.673 332.366L230.545 333.511C230.325 333.249 230.059 333.056 229.745 332.931C229.442 332.795 229.108 332.727 228.742 332.727C228.314 332.727 227.932 332.826 227.598 333.025C227.274 333.213 227.018 333.474 226.83 333.808C226.652 334.143 226.563 334.535 226.563 334.984C226.563 335.423 226.652 335.815 226.83 336.16C227.018 336.494 227.274 336.761 227.598 336.959C227.932 337.147 228.314 337.241 228.742 337.241C229.108 337.241 229.442 337.179 229.745 337.053C230.059 336.917 230.325 336.719 230.545 336.457L231.673 337.602C231.318 338.02 230.884 338.344 230.372 338.574C229.871 338.793 229.327 338.903 228.742 338.903ZM236.259 338.903C235.507 338.903 234.827 338.736 234.221 338.401C233.626 338.056 233.15 337.586 232.795 336.99C232.45 336.395 232.277 335.726 232.277 334.984C232.277 334.242 232.45 333.578 232.795 332.993C233.14 332.398 233.605 331.927 234.19 331.582C234.786 331.238 235.444 331.065 236.165 331.065C236.865 331.065 237.482 331.227 238.015 331.551C238.558 331.875 238.981 332.319 239.284 332.883C239.598 333.448 239.755 334.091 239.755 334.812C239.755 334.937 239.744 335.068 239.723 335.203C239.713 335.329 239.692 335.47 239.661 335.627H233.484V334.216H238.767L238.124 334.78C238.103 334.32 238.015 333.934 237.858 333.62C237.701 333.307 237.476 333.066 237.184 332.899C236.902 332.732 236.552 332.648 236.134 332.648C235.695 332.648 235.313 332.742 234.989 332.931C234.665 333.119 234.415 333.385 234.237 333.73C234.059 334.064 233.97 334.467 233.97 334.937C233.97 335.407 234.064 335.82 234.253 336.175C234.441 336.531 234.707 336.808 235.052 337.006C235.397 337.194 235.794 337.288 236.243 337.288C236.63 337.288 236.985 337.22 237.309 337.085C237.644 336.949 237.926 336.75 238.156 336.489L239.253 337.602C238.887 338.03 238.443 338.354 237.921 338.574C237.398 338.793 236.844 338.903 236.259 338.903ZM243.598 338.903C243.18 338.903 242.778 338.851 242.391 338.746C242.004 338.631 241.649 338.474 241.325 338.276C241.001 338.067 240.719 337.816 240.478 337.523L241.576 336.426C241.837 336.729 242.135 336.959 242.469 337.116C242.814 337.262 243.201 337.335 243.629 337.335C244.016 337.335 244.309 337.278 244.507 337.163C244.706 337.048 244.805 336.881 244.805 336.661C244.805 336.431 244.711 336.254 244.523 336.128C244.335 336.003 244.089 335.898 243.786 335.815C243.493 335.721 243.18 335.627 242.845 335.533C242.522 335.439 242.208 335.313 241.905 335.156C241.612 334.989 241.372 334.765 241.184 334.482C240.996 334.2 240.902 333.834 240.902 333.385C240.902 332.904 241.011 332.492 241.231 332.147C241.461 331.802 241.78 331.535 242.187 331.347C242.605 331.159 243.102 331.065 243.676 331.065C244.282 331.065 244.815 331.175 245.275 331.394C245.745 331.603 246.137 331.922 246.451 332.351L245.354 333.448C245.134 333.176 244.883 332.972 244.601 332.836C244.319 332.701 243.995 332.633 243.629 332.633C243.284 332.633 243.018 332.685 242.83 332.789C242.642 332.894 242.548 333.045 242.548 333.244C242.548 333.453 242.642 333.615 242.83 333.73C243.018 333.845 243.258 333.944 243.551 334.028C243.854 334.111 244.167 334.205 244.491 334.31C244.826 334.404 245.139 334.54 245.432 334.718C245.735 334.885 245.981 335.115 246.169 335.407C246.357 335.689 246.451 336.06 246.451 336.52C246.451 337.252 246.195 337.832 245.683 338.26C245.171 338.689 244.476 338.903 243.598 338.903Z" fill="white"/>
<path d="M259.286 333.251H270.949M270.949 333.251L265.351 327.652M270.949 333.251L265.351 338.849" stroke="#F2F2F2" stroke-width="1.67951" stroke-linecap="round" stroke-linejoin="round"/>
</svg>
