<svg width="556" height="298" viewBox="0 0 556 298" fill="none" xmlns="http://www.w3.org/2000/svg">
    <path
        d="M551.151 269.94C547.231 266.02 540.917 266.02 537.038 269.94C533.118 266.02 526.804 266.02 522.925 269.94C519.046 273.861 519.004 280.174 522.925 284.053L537.038 297.836L551.151 284.053C555.071 280.133 555.071 273.819 551.151 269.94Z"
        fill="#FF4B60" />
    <path
        d="M554.453 282.609C552.389 280.546 549.005 280.546 546.901 282.609C544.837 280.546 541.454 280.546 539.349 282.609C537.286 284.672 537.286 288.056 539.349 290.161L546.901 297.712L554.453 290.161C556.516 288.097 556.516 284.713 554.453 282.609Z"
        fill="url(#paint0_linear_3201_6621)" />
    <path
        d="M255.222 164H214.603C211.423 164 208.846 166.577 208.846 169.756V219.05C208.846 222.23 211.423 224.807 214.603 224.807H255.222C258.401 224.807 260.978 222.23 260.978 219.05V169.756C260.978 166.577 258.401 164 255.222 164Z"
        fill="url(#paint1_linear_3201_6621)" />
    <path
        d="M254.168 208.916L244.925 192.458C244.358 191.485 242.898 191.485 242.331 192.458L238.358 200.484L230.413 185.242C229.845 184.188 228.386 184.188 227.818 185.242L215.413 208.916C214.44 210.862 215.819 213.132 218.008 213.132H251.736C253.925 213.132 255.384 210.781 254.249 208.835L254.168 208.916Z"
        fill="url(#paint2_linear_3201_6621)" />
    <path
        d="M255.141 175.594C255.141 178.756 252.546 181.35 249.384 181.35C246.222 181.35 243.628 178.756 243.628 175.594C243.628 172.432 246.222 169.837 249.384 169.837C252.546 169.837 255.141 172.432 255.141 175.594Z"
        fill="url(#paint3_linear_3201_6621)" />
    <path
        d="M240.466 248.643C240.466 251.4 238.277 253.589 235.52 253.589C232.764 253.589 230.575 251.4 230.575 248.643C230.575 245.886 232.764 243.697 235.52 243.697C238.277 243.697 240.466 245.886 240.466 248.643Z"
        fill="url(#paint4_linear_3201_6621)" />
    <path
        d="M225.168 131.383H299.028C304.532 131.383 308.994 126.922 308.994 121.418V79.0529C308.994 73.5493 304.532 69.0878 299.028 69.0878H225.168C219.665 69.0878 215.203 73.5493 215.203 79.0529V121.418C215.203 126.922 219.665 131.383 225.168 131.383Z"
        fill="url(#paint5_linear_3201_6621)" />
    <path
        d="M249.628 68.288C234.494 64.7176 221.225 66.0499 217.015 55.1788C212.805 44.3077 217.015 29.4933 217.015 29.4933C217.015 29.4933 209.927 29.3867 203.959 28.1077C203.959 28.1077 199.536 44.8939 199.962 58.3229C200.388 71.8052 205.291 73.7769 213.498 78.8927C221.704 84.0085 233.748 87.5256 233.748 87.5256L249.682 68.288H249.628Z"
        fill="url(#paint6_linear_3201_6621)" />
    <path
        d="M271.104 74.5762C281.07 79.1059 287.251 87.3124 291.568 105.484C295.884 123.656 297.909 131.596 297.909 131.596H281.496L273.503 117.634L271.104 74.5229V74.5762Z"
        fill="#3900A3" />
    <path
        d="M257.515 68.6077C273.289 72.7643 276.167 78.6794 278.139 88.0051C280.11 97.3308 278.139 131.649 278.139 131.649H226.98C226.98 131.649 228.739 99.0893 229.218 89.5505C229.645 80.0117 230.924 61.6268 257.569 68.6077H257.515Z"
        fill="url(#paint7_linear_3201_6621)" />
    <path
        d="M217.015 29.5465C217.015 29.5465 223.143 27.8413 224.795 22.7255C226.447 17.6097 228.792 14.5189 230.551 12.9202C232.309 11.3748 227.833 9.18993 224.795 12.9202L221.758 16.6505C221.758 16.6505 226.447 1.94255 222.344 0.557021C218.241 -0.828507 209.821 0.557021 208.329 2.6886C206.836 4.82019 204.279 11.9077 205.078 17.6097C205.877 23.3117 207.21 26.4557 207.21 26.4557V28.7472L217.015 29.5465Z"
        fill="url(#paint8_linear_3201_6621)" />
    <path d="M272.064 144.652V131.329H256.237L270.305 145.398C270.945 146.037 272.064 145.611 272.064 144.652Z"
        fill="url(#paint9_linear_3201_6621)" />
    <path
        d="M256.876 50.7025C256.876 50.7025 255.171 58.8558 253.305 58.3229C251.44 57.79 252.08 53.6334 252.08 53.6334C252.08 53.6334 249.682 56.1913 249.309 52.3545C248.936 48.5176 251.6 40.1512 252.08 35.142L259.487 36.2078L256.343 48.1446L256.929 50.7025H256.876Z"
        fill="#3B3457" />
    <path
        d="M266.948 63.2792C266.948 63.2792 264.017 69.1411 263.75 71.6457L267.694 74.2569C267.694 74.2569 274.035 86.4602 260.713 86.1937C247.39 85.9273 245.738 71.4325 245.845 68.395L249.682 68.2884C249.682 68.2884 254.691 55.4989 254.957 50.9693L267.001 63.2792H266.948Z"
        fill="#FFB876" />
    <path
        d="M282.775 38.8192C282.562 47.1323 280.324 57.4172 274.782 62.2666C269.239 67.1159 265.989 66.3699 263.218 63.7587C260.447 61.1475 253.519 55.9251 255.118 46.4396C256.716 36.954 257.729 31.0389 262.365 29.0139C267.001 26.9889 283.042 27.8948 282.775 38.8192Z"
        fill="url(#paint10_linear_3201_6621)" />
    <path
        d="M256.876 50.7024C256.876 50.7024 252.346 53.3669 251.334 47.6649C250.321 41.9629 252.986 36.5807 257.462 41.6965L256.929 50.7024H256.876Z"
        fill="url(#paint11_linear_3201_6621)" />
    <path
        d="M262.631 36.3678C262.631 36.3678 259.114 46.4395 257.143 46.4395C255.171 46.4395 256.343 33.9165 256.343 33.9165L262.631 36.3145V36.3678Z"
        fill="#3B3457" />
    <path
        d="M284.214 42.3359C284.214 42.3359 285.706 33.4365 282.775 28.6938C279.844 23.951 264.283 17.5563 255.757 25.0701C253.145 27.3615 252.026 35.1951 252.026 35.1951C252.026 35.1951 257.888 38.126 262.578 38.4991L275.314 43.4017L284.214 42.3359Z"
        fill="url(#paint12_linear_3201_6621)" />
    <path
        d="M284.214 42.3358C284.214 42.3358 272.117 42.8687 262.578 38.499C262.578 38.499 265.349 45.6931 275.314 48.5707C285.226 51.5016 292.847 52.0345 291.355 48.5707C289.863 45.1069 284.214 42.3358 284.214 42.3358Z"
        fill="url(#paint13_linear_3201_6621)" />
    <path
        d="M202.893 103.139H201.188V101.434C201.188 100.581 200.495 99.8886 199.642 99.8886C198.79 99.8886 198.097 100.581 198.097 101.434V103.139H196.392C195.539 103.139 194.846 103.832 194.846 104.685C194.846 105.537 195.539 106.23 196.392 106.23H198.097V107.935C198.097 108.788 198.79 109.481 199.642 109.481C200.495 109.481 201.188 108.788 201.188 107.935V106.23H202.893C203.746 106.23 204.438 105.537 204.438 104.685C204.438 103.832 203.746 103.139 202.893 103.139Z"
        fill="url(#paint14_linear_3201_6621)" />
    <path
        d="M309.846 51.3418C309.846 53.1536 308.407 54.5925 306.595 54.5925C304.783 54.5925 303.345 53.1536 303.345 51.3418C303.345 49.5299 304.783 48.0911 306.595 48.0911C308.407 48.0911 309.846 49.5299 309.846 51.3418Z"
        fill="url(#paint15_linear_3201_6621)" />
    <path
        d="M373.888 250.445H465.427C471.734 250.445 476.846 245.333 476.846 239.026V190.478C476.846 184.172 471.734 179.059 465.427 179.059H373.888C367.581 179.059 362.468 184.172 362.468 190.478V239.026C362.468 245.333 367.581 250.445 373.888 250.445Z"
        fill="url(#paint16_linear_3201_6621)" />
    <path d="M413.459 265.773V250.506H431.596L415.474 266.628C414.742 267.361 413.459 266.872 413.459 265.773Z"
        fill="#FA6C69" />
    <path
        d="M437.764 128.435C448.389 135.579 452.053 141.381 450.71 152.189C449.305 163.059 448.878 171.792 452.786 175.517C456.694 179.242 466.648 187.119 461.336 194.691C456.023 202.263 449.733 204.095 449.733 204.095C449.733 204.095 453.03 214.721 442.405 215.148C431.779 215.637 399.475 210.752 397.643 197.867C395.811 184.921 397.643 179.181 392.086 174.784C386.529 170.387 389.521 161.166 392.086 156.098C394.651 151.029 386.773 142.236 393.918 135.091C401.063 127.946 408.94 122.878 417.001 128.374C425.062 133.931 437.764 128.374 437.764 128.374V128.435Z"
        fill="url(#paint17_linear_3201_6621)" />
    <path
        d="M379.018 207.27L374.316 210.995C374.316 210.995 370.408 200.187 366.744 189.622C363.141 179.058 362.347 173.44 362.347 173.44L352.088 176.188C352.088 176.188 354.591 188.951 357.156 206.11C359.721 223.27 365.644 230.353 370.224 231.025C374.804 231.636 392.758 215.698 392.758 215.698L379.018 207.27Z"
        fill="url(#paint18_linear_3201_6621)" />
    <path
        d="M403.872 184.92C395.628 184.92 391.353 186.447 385.613 194.752C379.873 202.996 375.903 207.332 375.903 207.332C375.903 207.332 382.132 215.148 388.911 217.713C395.75 220.278 403.811 184.92 403.811 184.92H403.872Z"
        fill="#FF4B60" />
    <path
        d="M419.627 187.73C401.491 182.662 398.498 183.883 391.842 194.692C385.125 205.5 379.629 216.309 383.293 223.271C386.957 230.171 391.109 236.4 390.01 250.506H435.444C435.444 250.506 432.696 241.041 435.444 229.499C438.192 217.958 449.062 210.141 442.344 200.92C435.627 191.699 419.627 187.791 419.627 187.791V187.73Z"
        fill="#FA6C69" />
    <path
        d="M411.505 177.043C411.505 177.043 412.604 183.271 411.505 186.935L410.772 189.5C410.772 189.5 403.75 188.889 403.872 195.485C403.994 202.08 411.505 207.331 418.222 207.331C424.94 207.331 433.062 202.874 431.413 197.927C429.764 192.981 427.81 193.714 427.81 191.332C427.81 188.951 428.848 179.668 430.375 173.562L411.505 177.165V177.043Z"
        fill="#FFB876" />
    <path
        d="M418.1 134.236C408.33 133.198 400.696 144.312 400.452 158.479C400.208 172.708 405.338 179.059 413.215 180.768C421.032 182.478 431.84 175.395 434.527 169.96C437.214 164.586 448.756 137.35 418.1 134.175V134.236Z"
        fill="url(#paint19_linear_3201_6621)" />
    <path
        d="M434.527 161.532C434.527 161.532 440.207 157.502 442.771 160.189C445.336 162.875 443.199 171.425 438.68 172.035C434.1 172.646 431.657 169.654 431.657 169.654L434.589 161.593L434.527 161.532Z"
        fill="url(#paint20_linear_3201_6621)" />
    <path
        d="M414.253 128.435C406.62 133.198 409.857 144.801 416.574 149.686C423.291 154.51 432.512 152.8 434.589 161.533C436.665 170.204 446.313 169.777 446.313 169.777C446.313 169.777 448.817 134.725 437.764 128.496C426.711 122.267 420.91 124.343 414.253 128.496V128.435Z"
        fill="url(#paint21_linear_3201_6621)" />
    <path d="M451.931 225.713L462.801 250.506H447.657L438.863 231.758L451.931 225.713Z"
        fill="url(#paint22_linear_3201_6621)" />
    <path
        d="M435.626 194.691C446.069 199.699 450.649 218.873 453.641 226.507C453.641 226.507 449.183 233.163 441.183 235.3L437.703 236.216C437.703 236.216 426.955 221.499 428.115 212.462C429.275 203.424 435.565 194.752 435.565 194.752L435.626 194.691Z"
        fill="#FA6C69" />
    <path
        d="M362.347 173.502C362.347 173.502 365.278 170.937 364.728 165.685C364.179 160.433 361.553 161.227 360.209 156.342C358.866 151.457 355.69 149.747 355.568 152.251C355.446 154.754 359.293 160.067 357.278 161.227C355.263 162.388 346.958 150.235 343.294 151.701C339.569 153.167 337.37 163.059 339.996 165.685C342.622 168.372 352.087 176.25 352.087 176.25L362.347 173.502Z"
        fill="url(#paint23_linear_3201_6621)" />
    <path
        d="M376.942 107H349.584C346.582 107 344.149 109.434 344.149 112.435V134.297C344.149 137.299 346.582 139.732 349.584 139.732H376.942C379.943 139.732 382.376 137.299 382.376 134.297V112.435C382.376 109.434 379.943 107 376.942 107Z"
        fill="url(#paint24_linear_3201_6621)" />
    <path
        d="M355.995 130.389V116.405C355.995 115.061 357.461 114.145 358.682 114.817L372.056 121.84C373.338 122.511 373.338 124.404 372.056 125.076L358.682 132.099C357.461 132.709 355.995 131.854 355.995 130.511V130.389Z"
        fill="url(#paint25_linear_3201_6621)" />
    <path
        d="M473.366 149.258H471.412V147.304C471.412 146.327 470.618 145.533 469.641 145.533C468.664 145.533 467.87 146.327 467.87 147.304V149.258H465.916C464.939 149.258 464.145 150.052 464.145 151.029C464.145 152.006 464.939 152.8 465.916 152.8H467.87V154.754C467.87 155.731 468.664 156.525 469.641 156.525C470.618 156.525 471.412 155.731 471.412 154.754V152.8H473.366C474.343 152.8 475.137 152.006 475.137 151.029C475.137 150.052 474.343 149.258 473.366 149.258Z"
        fill="url(#paint26_linear_3201_6621)" />
    <path
        d="M38.4477 211.127L149.585 211.127C157.242 211.127 163.449 204.92 163.449 197.263V138.321C163.449 130.665 157.242 124.457 149.585 124.457L38.4477 124.457C30.7906 124.457 24.5834 130.665 24.5834 138.321V197.263C24.5834 204.92 30.7906 211.127 38.4477 211.127Z"
        fill="#813ABE" />
    <path d="M124.08 166.346C136.388 171.981 150.771 211.127 150.771 211.127H128.751L124.08 166.346Z"
        fill="url(#paint27_linear_3201_6621)" />
    <path
        d="M92.4962 157.301C114.071 157.301 137.648 166.272 131.643 192.295C128.751 204.677 128.751 211.127 128.751 211.127H51.348C51.348 211.127 48.3083 192.295 47.9376 180.284C47.5669 168.274 66.4728 157.449 92.4962 157.375V157.301Z"
        fill="url(#paint28_linear_3201_6621)" />
    <path
        d="M105.694 145.661C105.694 145.661 103.321 154.187 103.692 160.267C103.692 160.267 112.589 162.046 109.994 166.569C107.399 171.091 103.692 175.465 93.5344 174.279C83.3772 173.093 71.737 164.789 74.851 162.046C77.9649 159.303 80.7081 158.858 83.0806 140.101L105.619 145.661H105.694Z"
        fill="#FFB876" />
    <path
        d="M115.554 121.121C119.854 119.415 128.38 115.338 128.01 110.148C127.787 107.33 123.487 108.887 123.487 108.887C123.487 108.887 131.643 100.954 131.643 95.2457C131.643 89.5369 123.932 94.9491 121.782 95.2457C121.782 95.2457 124.97 85.6816 121.782 84.6436C118.594 83.6057 113.404 89.3886 110.438 89.1662C107.473 88.9438 85.7494 84.3471 78.2612 89.8334C70.7729 95.3198 70.9954 101.177 70.9954 101.177C70.9954 101.177 65.6572 104.513 67.3625 112.15C69.0677 119.712 75.1472 130.388 74.999 135.504C74.8507 140.619 72.3299 144.401 74.999 144.92C77.668 145.438 79.5957 143.363 79.5957 143.363C79.5957 143.363 77.8905 147.663 80.1147 147.663C82.3389 147.663 87.0098 140.026 87.0098 140.026L115.628 121.121H115.554Z"
        fill="#3B3457" />
    <path
        d="M117.704 108.22C117.704 108.22 117.704 123.863 115.925 132.686C114.145 141.509 103.914 152.407 96.3516 151.221C88.7892 150.035 79.0768 142.102 76.7784 133.279C74.48 124.456 74.999 103.994 74.999 103.994L117.704 108.294V108.22Z"
        fill="url(#paint29_linear_3201_6621)" />
    <path
        d="M79.5215 129.869C79.5215 129.869 76.111 132.464 73.2937 129.869C70.4763 127.274 67.0659 116.969 70.1056 115.041C73.0713 113.113 79.5215 116.746 79.5215 116.746V129.795V129.869Z"
        fill="url(#paint30_linear_3201_6621)" />
    <path
        d="M120.521 103.92C120.521 103.92 123.116 112.001 111.625 112.15C100.133 112.372 91.4582 107.998 87.3063 110.963C83.1544 113.929 83.6734 128.757 78.7801 127.052C76.9266 126.384 72.8489 109.332 72.8489 109.332V99.4716L120.521 103.846V103.92Z"
        fill="#3B3457" />
    <path
        d="M58.9848 165.011C44.0825 171.832 32.5166 193.481 29.3285 211.126L27.0301 217.503C27.0301 217.503 33.1838 220.32 37.8547 215.649C42.5256 210.978 62.8401 190.145 62.8401 190.145C67.3627 181.841 65.8058 171.61 59.059 165.011H58.9848Z"
        fill="#F4F0FF" />
    <path
        d="M47.7894 168.051C47.7894 168.051 46.1583 181.174 43.0444 192.295C39.9305 203.416 33.9992 220.023 26.9558 217.503C19.9866 214.908 19.3935 205.121 23.9902 192.073C27.6231 181.693 34.3699 164.937 34.3699 164.937L47.7153 168.125L47.7894 168.051Z"
        fill="#FFB876" />
    <path
        d="M37.632 168.051H58.0207C59.7814 168.051 61.2088 166.624 61.2088 164.863L61.2088 123.048C61.2088 121.287 59.7814 119.86 58.0207 119.86H37.632C35.8713 119.86 34.4439 121.287 34.4439 123.048L34.4439 164.863C34.4439 166.624 35.8713 168.051 37.632 168.051Z"
        fill="url(#paint31_linear_3201_6621)" />
    <path
        d="M53.7206 129.795C55.1947 129.795 56.3897 128.6 56.3897 127.126C56.3897 125.652 55.1947 124.457 53.7206 124.457C52.2465 124.457 51.0515 125.652 51.0515 127.126C51.0515 128.6 52.2465 129.795 53.7206 129.795Z"
        fill="#1194F6" />
    <path
        d="M27.6231 148.7C29.2542 145.809 31.9232 143.659 35.0372 142.473C41.4133 140.1 47.3445 138.024 46.6031 141.064C45.7134 144.771 40.1529 147.588 40.1529 147.588C40.1529 147.588 46.7514 143.14 46.6773 147.588C46.6773 152.037 48.4566 165.085 43.4151 167.977C38.3735 170.868 33.7768 171.461 31.256 166.272C28.7352 161.082 25.8437 151.963 27.6231 148.774C27.6231 148.774 27.6231 148.774 27.6231 148.7Z"
        fill="#FDCCA3" />
    <path
        d="M32.4421 145.958C32.4421 145.958 31.5524 142.992 30.1438 139.582C28.7351 136.171 29.5506 133.131 32.4421 134.614C35.3336 136.097 37.0389 143.956 37.0389 143.956L32.4421 145.958Z"
        fill="url(#paint32_linear_3201_6621)" />
    <path d="M181.91 194.148H163.375V172.129L182.948 191.702C183.838 192.591 183.245 194.148 181.91 194.148Z"
        fill="#813ABE" />
    <path fill-rule="evenodd" clip-rule="evenodd"
        d="M50.8271 58H3.30085C1.48564 58 0.000198364 59.4852 0.000198364 61.3006V93.9747C0.000198364 95.7904 1.48536 97.2753 3.30085 97.2753H40.8887L52.5462 104.924L50.2634 97.2753H50.8271C52.6423 97.2753 54.1277 95.7904 54.1277 93.9747V61.3006C54.1274 59.4854 52.6423 58 50.8271 58Z"
        fill="url(#paint33_linear_3201_6621)" />
    <path fill-rule="evenodd" clip-rule="evenodd"
        d="M12.2121 77.5494C13.9665 77.5494 15.3889 78.9718 15.3889 80.7262C15.3889 82.4803 13.9665 83.903 12.2121 83.903C10.458 83.903 9.03535 82.4803 9.03535 80.7262C9.03535 78.9715 10.458 77.5494 12.2121 77.5494Z"
        fill="white" />
    <path
        d="M27.0644 83.903C28.8189 83.903 30.2411 82.4807 30.2411 80.7262C30.2411 78.9717 28.8189 77.5494 27.0644 77.5494C25.3099 77.5494 23.8876 78.9717 23.8876 80.7262C23.8876 82.4807 25.3099 83.903 27.0644 83.903Z"
        fill="white" />
    <path fill-rule="evenodd" clip-rule="evenodd"
        d="M41.9167 77.5494C43.6708 77.5494 45.0934 78.9718 45.0934 80.7262C45.0934 82.4803 43.6708 83.903 41.9167 83.903C40.1623 83.903 38.7399 82.4803 38.7399 80.7262C38.7399 78.9715 40.162 77.5494 41.9167 77.5494Z"
        fill="white" />
    <path fill-rule="evenodd" clip-rule="evenodd"
        d="M324.43 191H279.936C278.236 191 276.846 192.391 276.846 194.09V224.68C276.846 226.379 278.236 227.77 279.936 227.77H315.126L326.039 234.931L323.902 227.77H324.43C326.13 227.77 327.52 226.38 327.52 224.68V194.09C327.52 192.391 326.129 191 324.43 191Z"
        fill="url(#paint34_linear_3201_6621)" />
    <path fill-rule="evenodd" clip-rule="evenodd"
        d="M288.278 209.301C289.921 209.301 291.252 210.633 291.252 212.275C291.252 213.917 289.921 215.249 288.278 215.249C286.636 215.249 285.304 213.917 285.304 212.275C285.304 210.633 286.636 209.301 288.278 209.301Z"
        fill="white" />
    <path
        d="M305.098 213.006C305.475 211.407 304.485 209.806 302.887 209.428C301.289 209.051 299.687 210.041 299.309 211.639C298.932 213.237 299.922 214.839 301.52 215.217C303.119 215.594 304.72 214.604 305.098 213.006Z"
        fill="white" />
    <path fill-rule="evenodd" clip-rule="evenodd"
        d="M316.088 209.301C317.73 209.301 319.062 210.633 319.062 212.275C319.062 213.917 317.73 215.249 316.088 215.249C314.445 215.249 313.113 213.917 313.113 212.275C313.113 210.633 314.445 209.301 316.088 209.301Z"
        fill="white" />
    <defs>
        <linearGradient id="paint0_linear_3201_6621" x1="534.562" y1="305.264" x2="556.928" y2="271.054"
            gradientUnits="userSpaceOnUse">
            <stop stop-color="#E55EC9" />
            <stop offset="1" stop-color="#FDF2FB" />
        </linearGradient>
        <linearGradient id="paint1_linear_3201_6621" x1="188.01" y1="304.504" x2="246.87" y2="166.189"
            gradientUnits="userSpaceOnUse">
            <stop stop-color="#1194F6" />
            <stop offset="1" stop-color="#95D0FF" />
        </linearGradient>
        <linearGradient id="paint2_linear_3201_6621" x1="224.494" y1="234.455" x2="250.681" y2="173.242"
            gradientUnits="userSpaceOnUse">
            <stop stop-color="#3900A3" />
            <stop offset="1" stop-color="#5251DE" />
        </linearGradient>
        <linearGradient id="paint3_linear_3201_6621" x1="224.17" y1="234.293" x2="250.438" y2="173.08"
            gradientUnits="userSpaceOnUse">
            <stop stop-color="#3900A3" />
            <stop offset="1" stop-color="#5251DE" />
        </linearGradient>
        <linearGradient id="paint4_linear_3201_6621" x1="223.278" y1="309.936" x2="248.817" y2="181.512"
            gradientUnits="userSpaceOnUse">
            <stop stop-color="#BEBAD1" />
            <stop offset="0.5" stop-color="#E8E3F8" />
            <stop offset="1" stop-color="#F4F0FF" />
        </linearGradient>
        <linearGradient id="paint5_linear_3201_6621" x1="229.485" y1="145.132" x2="313.735" y2="29.0665"
            gradientUnits="userSpaceOnUse">
            <stop stop-color="#E55EC9" />
            <stop offset="1" stop-color="#FDF2FB" />
        </linearGradient>
        <linearGradient id="paint6_linear_3201_6621" x1="196.338" y1="157.495" x2="233.907" y2="22.7253"
            gradientUnits="userSpaceOnUse">
            <stop stop-color="#3900A3" />
            <stop offset="1" stop-color="#5251DE" />
        </linearGradient>
        <linearGradient id="paint7_linear_3201_6621" x1="236.732" y1="168.739" x2="274.248" y2="33.9693"
            gradientUnits="userSpaceOnUse">
            <stop stop-color="#3900A3" />
            <stop offset="1" stop-color="#5251DE" />
        </linearGradient>
        <linearGradient id="paint8_linear_3201_6621" x1="204.918" y1="14.7853" x2="230.924" y2="14.7853"
            gradientUnits="userSpaceOnUse">
            <stop stop-color="#FFB876" />
            <stop offset="1" stop-color="#FDCCA3" />
        </linearGradient>
        <linearGradient id="paint9_linear_3201_6621" x1="266.575" y1="171.829" x2="258.795" y2="41.3766"
            gradientUnits="userSpaceOnUse">
            <stop stop-color="#3900A3" />
            <stop offset="1" stop-color="#5251DE" />
        </linearGradient>
        <linearGradient id="paint10_linear_3201_6621" x1="270.518" y1="31.1455" x2="267.587" y2="54.2731"
            gradientUnits="userSpaceOnUse">
            <stop stop-color="#FFB876" />
            <stop offset="1" stop-color="#FDCCA3" />
        </linearGradient>
        <linearGradient id="paint11_linear_3201_6621" x1="256.29" y1="29.3333" x2="253.359" y2="52.461"
            gradientUnits="userSpaceOnUse">
            <stop stop-color="#FFB876" />
            <stop offset="1" stop-color="#FDCCA3" />
        </linearGradient>
        <linearGradient id="paint12_linear_3201_6621" x1="252.08" y1="32.4773" x2="284.587" y2="32.4773"
            gradientUnits="userSpaceOnUse">
            <stop stop-color="#1194F6" />
            <stop offset="1" stop-color="#95D0FF" />
        </linearGradient>
        <linearGradient id="paint13_linear_3201_6621" x1="262.631" y1="44.7338" x2="291.515" y2="44.7338"
            gradientUnits="userSpaceOnUse">
            <stop stop-color="#1194F6" />
            <stop offset="1" stop-color="#95D0FF" />
        </linearGradient>
        <linearGradient id="paint14_linear_3201_6621" x1="206.41" y1="158.134" x2="198.417" y2="95.732"
            gradientUnits="userSpaceOnUse">
            <stop stop-color="#813ABE" />
            <stop offset="1" stop-color="#E55EC9" />
        </linearGradient>
        <linearGradient id="paint15_linear_3201_6621" x1="290.448" y1="109.854" x2="306.435" y2="51.9812"
            gradientUnits="userSpaceOnUse">
            <stop stop-color="#1194F6" />
            <stop offset="1" stop-color="#95D0FF" />
        </linearGradient>
        <linearGradient id="paint16_linear_3201_6621" x1="420.237" y1="282.81" x2="419.199" y2="164.831"
            gradientUnits="userSpaceOnUse">
            <stop stop-color="#1194F6" />
            <stop offset="1" stop-color="#95D0FF" />
        </linearGradient>
        <linearGradient id="paint17_linear_3201_6621" x1="430.497" y1="220.705" x2="419.2" y2="118.542"
            gradientUnits="userSpaceOnUse">
            <stop stop-color="#813ABE" />
            <stop offset="1" stop-color="#E55EC9" />
        </linearGradient>
        <linearGradient id="paint18_linear_3201_6621" x1="383.048" y1="229.987" x2="356.668" y2="180.768"
            gradientUnits="userSpaceOnUse">
            <stop stop-color="#FFB876" />
            <stop offset="1" stop-color="#FDCCA3" />
        </linearGradient>
        <linearGradient id="paint19_linear_3201_6621" x1="424.818" y1="110.481" x2="418.772" y2="163.548"
            gradientUnits="userSpaceOnUse">
            <stop stop-color="#FFB876" />
            <stop offset="1" stop-color="#FDCCA3" />
        </linearGradient>
        <linearGradient id="paint20_linear_3201_6621" x1="443.932" y1="112.679" x2="437.886" y2="165.746"
            gradientUnits="userSpaceOnUse">
            <stop stop-color="#FFB876" />
            <stop offset="1" stop-color="#FDCCA3" />
        </linearGradient>
        <linearGradient id="paint21_linear_3201_6621" x1="436.36" y1="220.095" x2="425.062" y2="117.87"
            gradientUnits="userSpaceOnUse">
            <stop stop-color="#813ABE" />
            <stop offset="1" stop-color="#E55EC9" />
        </linearGradient>
        <linearGradient id="paint22_linear_3201_6621" x1="438.863" y1="238.109" x2="462.801" y2="238.109"
            gradientUnits="userSpaceOnUse">
            <stop stop-color="#FFB876" />
            <stop offset="1" stop-color="#FDCCA3" />
        </linearGradient>
        <linearGradient id="paint23_linear_3201_6621" x1="386.285" y1="228.217" x2="359.904" y2="178.997"
            gradientUnits="userSpaceOnUse">
            <stop stop-color="#FFB876" />
            <stop offset="1" stop-color="#FDCCA3" />
        </linearGradient>
        <linearGradient id="paint24_linear_3201_6621" x1="335.05" y1="178.264" x2="377.551" y2="95.6417"
            gradientUnits="userSpaceOnUse">
            <stop stop-color="#E55EC9" />
            <stop offset="1" stop-color="#FDF2FB" />
        </linearGradient>
        <linearGradient id="paint25_linear_3201_6621" x1="347.202" y1="134.541" x2="376.819" y2="109.443"
            gradientUnits="userSpaceOnUse">
            <stop stop-color="#813ABE" />
            <stop offset="1" stop-color="#E55EC9" />
        </linearGradient>
        <linearGradient id="paint26_linear_3201_6621" x1="451.321" y1="169.044" x2="493.64" y2="127.335"
            gradientUnits="userSpaceOnUse">
            <stop stop-color="#BEBAD1" />
            <stop offset="0.5" stop-color="#E8E3F8" />
            <stop offset="1" stop-color="#F4F0FF" />
        </linearGradient>
        <linearGradient id="paint27_linear_3201_6621" x1="96.7222" y1="102.734" x2="157.961" y2="256.946"
            gradientUnits="userSpaceOnUse">
            <stop stop-color="#BEBAD1" />
            <stop offset="0.5" stop-color="#E8E3F8" />
            <stop offset="1" stop-color="#F4F0FF" />
        </linearGradient>
        <linearGradient id="paint28_linear_3201_6621" x1="87.2322" y1="222.915" x2="92.0512" y2="158.636"
            gradientUnits="userSpaceOnUse">
            <stop stop-color="#BEBAD1" />
            <stop offset="0.5" stop-color="#E8E3F8" />
            <stop offset="1" stop-color="#F4F0FF" />
        </linearGradient>
        <linearGradient id="paint29_linear_3201_6621" x1="95.2395" y1="100.361" x2="98.205" y2="135.726"
            gradientUnits="userSpaceOnUse">
            <stop stop-color="#FFB876" />
            <stop offset="1" stop-color="#FDCCA3" />
        </linearGradient>
        <linearGradient id="paint30_linear_3201_6621" x1="72.923" y1="102.215" x2="75.8886" y2="137.58"
            gradientUnits="userSpaceOnUse">
            <stop stop-color="#FFB876" />
            <stop offset="1" stop-color="#FDCCA3" />
        </linearGradient>
        <linearGradient id="paint31_linear_3201_6621" x1="25.6953" y1="197.707" x2="56.9081" y2="121.788"
            gradientUnits="userSpaceOnUse">
            <stop stop-color="#1194F6" />
            <stop offset="1" stop-color="#95D0FF" />
        </linearGradient>
        <linearGradient id="paint32_linear_3201_6621" x1="29.4765" y1="140.101" x2="36.9647" y2="140.101"
            gradientUnits="userSpaceOnUse">
            <stop stop-color="#FFB876" />
            <stop offset="1" stop-color="#FDCCA3" />
        </linearGradient>
        <linearGradient id="paint33_linear_3201_6621" x1="27.7921" y1="75.7584" x2="31.5966" y2="57.7728"
            gradientUnits="userSpaceOnUse">
            <stop stop-color="#FA5DB1" />
            <stop offset="1" stop-color="#FEBFBF" />
        </linearGradient>
        <linearGradient id="paint34_linear_3201_6621" x1="301.834" y1="197.864" x2="302.553" y2="221.613"
            gradientUnits="userSpaceOnUse">
            <stop stop-color="#FDD248" />
            <stop offset="1" stop-color="#FABD23" />
        </linearGradient>
    </defs>
</svg>